<svg width="90" height="55" viewBox="0 0 90 55" fill="none" xmlns="http://www.w3.org/2000/svg">
<path d="M57.0878 3H32.2727C31.2483 3 30.3027 3.54588 29.7912 4.43274L17.3836 25.9239C16.8721 26.8108 16.8721 27.9025 17.3836 28.7894L29.7912 50.2805C30.3027 51.1674 31.2497 51.7133 32.2727 51.7133H57.0878C58.1122 51.7133 59.0578 51.1674 59.5693 50.2805L71.9769 28.7894C72.4884 27.9025 72.4884 26.8108 71.9769 25.9239L59.5693 4.43274C59.0578 3.54588 58.1122 3 57.0878 3Z" fill="#2979FF"/>
<path d="M56.1418 43.1168H33.2179C32.427 43.1168 31.7852 42.4749 31.7852 41.6841V13.0292C31.7852 12.2383 32.427 11.5964 33.2179 11.5964H51.8436L57.5745 17.3274V41.6841C57.5745 42.4749 56.9327 43.1168 56.1418 43.1168Z" fill="white"/>
<path d="M51.8438 11.5964V15.8947C51.8438 16.6855 52.4856 17.3274 53.2765 17.3274H57.5747L51.8438 11.5964Z" fill="#B1CFFF"/>
<path d="M42.1934 27.1146H40.2807V21.024L38.4009 21.5727V20.1242L42.0172 18.8734H42.192V27.1146H42.1934ZM51.416 23.7462C51.416 24.3422 51.3458 24.858 51.2068 25.295C51.0678 25.7291 50.8715 26.0916 50.6179 26.3782C50.3658 26.6647 50.0635 26.8782 49.7124 27.0172C49.3614 27.1561 48.9746 27.2263 48.5519 27.2263C48.125 27.2263 47.7353 27.1561 47.3828 27.0172C47.0303 26.8782 46.728 26.6647 46.4759 26.3782C46.2237 26.0916 46.0246 25.7291 45.8841 25.295C45.7423 24.858 45.6735 24.3422 45.6735 23.7462V22.2404C45.6735 21.6487 45.7437 21.1329 45.8827 20.6959C46.0217 20.2589 46.218 19.8964 46.4716 19.6099C46.7237 19.3233 47.026 19.1098 47.3771 18.9709C47.7252 18.8305 48.1135 18.7603 48.5405 18.7603C48.9631 18.7603 49.35 18.8305 49.7024 18.9694C50.0549 19.1084 50.3586 19.3219 50.6122 19.6084C50.8644 19.895 51.0606 20.2575 51.2025 20.6945C51.3443 21.1314 51.416 21.6472 51.416 22.239V23.7462ZM49.5076 21.9983C49.5076 21.6702 49.4846 21.3951 49.4402 21.1687C49.3944 20.9466 49.3313 20.7632 49.2482 20.6228C49.1651 20.4838 49.0634 20.3836 48.9445 20.3234C48.8256 20.2632 48.6923 20.2331 48.5405 20.2331C48.39 20.2331 48.2539 20.2632 48.135 20.3234C48.0161 20.3836 47.9158 20.4838 47.8355 20.6228C47.7539 20.7618 47.6923 20.9452 47.6493 21.1687C47.6063 21.3951 47.5848 21.6702 47.5848 21.9983V23.9797C47.5848 24.315 47.6049 24.5973 47.6493 24.8236C47.6923 25.05 47.7567 25.2334 47.8398 25.3695C47.9229 25.5085 48.0247 25.6073 48.145 25.6675C48.2654 25.7277 48.4015 25.7578 48.5519 25.7578C48.6995 25.7578 48.8313 25.7277 48.9502 25.6675C49.0691 25.6073 49.1709 25.5085 49.254 25.3695C49.3371 25.2334 49.3987 25.05 49.4431 24.8236C49.4861 24.5973 49.509 24.3164 49.509 23.9797V21.9983H49.5076ZM43.6878 35.3385C43.6878 35.9346 43.6175 36.4503 43.4786 36.8873C43.3396 37.3215 43.1433 37.6839 42.8897 37.9705C42.6375 38.257 42.3352 38.4705 41.9842 38.6095C41.6332 38.7485 41.2464 38.8187 40.8237 38.8187C40.3967 38.8187 40.007 38.7485 39.6546 38.6095C39.3021 38.4705 38.9998 38.257 38.7477 37.9705C38.4955 37.6839 38.2963 37.3215 38.1559 36.8873C38.0141 36.4503 37.9453 35.9346 37.9453 35.3385V33.8327C37.9453 33.241 38.0155 32.7252 38.1545 32.2882C38.2935 31.8512 38.4898 31.4887 38.7434 31.2022C38.9955 30.9157 39.2978 30.7022 39.6488 30.5632C39.9999 30.4242 40.3881 30.354 40.8151 30.354C41.2378 30.354 41.6246 30.4242 41.9771 30.5632C42.3295 30.7022 42.6333 30.9157 42.8868 31.2022C43.139 31.4887 43.3353 31.8512 43.4771 32.2882C43.619 32.7252 43.6906 33.241 43.6906 33.8327V35.3385H43.6878ZM41.7808 33.5892C41.7808 33.2611 41.7578 32.986 41.7134 32.7596C41.6676 32.5375 41.6045 32.3541 41.5214 32.2137C41.4383 32.0747 41.3366 31.9744 41.2177 31.9143C41.0988 31.8541 40.9655 31.824 40.8137 31.824C40.6618 31.824 40.5271 31.8541 40.4082 31.9143C40.2893 31.9744 40.189 32.0747 40.1088 32.2137C40.0271 32.3527 39.9655 32.5361 39.9225 32.7596C39.8795 32.986 39.858 33.2611 39.858 33.5892V35.5706C39.858 35.9059 39.8781 36.1882 39.9225 36.4145C39.9655 36.6409 40.03 36.8243 40.1131 36.9604C40.1962 37.0994 40.2979 37.1982 40.4182 37.2584C40.5386 37.3186 40.6747 37.3487 40.8251 37.3487C40.9727 37.3487 41.1045 37.3186 41.2234 37.2584C41.3423 37.1982 41.4441 37.0994 41.5272 36.9604C41.6103 36.8243 41.6719 36.6409 41.7163 36.4145C41.7593 36.1882 41.7822 35.9073 41.7822 35.5706V33.5892H41.7808ZM49.9216 38.7055H48.0089V32.6149L46.1291 33.1636V31.7151L49.7454 30.4643H49.9202V38.7055H49.9216Z" fill="#03A9F4"/>
</svg>
