<svg xmlns="http://www.w3.org/2000/svg" xmlns:xlink="http://www.w3.org/1999/xlink" width="90" height="55" viewBox="0 0 90 55">
  <defs>
    <clipPath id="clip-kubernetes-clusters">
      <rect width="90" height="55"/>
    </clipPath>
  </defs>
  <g id="kubernetes-clusters" clip-path="url(#clip-kubernetes-clusters)">
    <rect width="90" height="55" fill="#fff"/>
    <g id="Group_6" data-name="Group 6" transform="translate(-442.578 -101.942)">
      <path id="Path_1733" data-name="Path 1733" d="M477.747,158.544a4.537,4.537,0,0,1-3.577-1.731l-13.462-16.732a4.515,4.515,0,0,1-.885-3.924l4.808-20.886a4.549,4.549,0,0,1,2.5-3.116l19.463-9.309a4.564,4.564,0,0,1,4,0l19.463,9.27a4.55,4.55,0,0,1,2.5,3.116l4.808,20.886a4.639,4.639,0,0,1-.884,3.923l-13.463,16.733a4.657,4.657,0,0,1-3.577,1.731l-21.694.038Z" transform="translate(-1.176 -1.062)" fill="#326de6"/>
      <path id="Path_1734" data-name="Path 1734" d="M487.38,102.286a3.767,3.767,0,0,1,1.577.346l19.463,9.27a3.736,3.736,0,0,1,2,2.5l4.808,20.886a3.6,3.6,0,0,1-.731,3.154l-13.463,16.732a3.664,3.664,0,0,1-2.885,1.385H476.571a3.664,3.664,0,0,1-2.885-1.385l-13.463-16.732a3.849,3.849,0,0,1-.731-3.154L464.3,114.4a3.673,3.673,0,0,1,2-2.5l19.463-9.308a4.629,4.629,0,0,1,1.615-.307Zm0-1.808a5.828,5.828,0,0,0-2.385.538l-19.463,9.309a5.448,5.448,0,0,0-3,3.731l-4.808,20.887a5.454,5.454,0,0,0,1.077,4.693l13.463,16.732a5.435,5.435,0,0,0,4.27,2.039h21.578a5.433,5.433,0,0,0,4.269-2.039l13.463-16.732a5.425,5.425,0,0,0,1.077-4.693l-4.808-20.886a5.447,5.447,0,0,0-3-3.731l-19.386-9.309A5.517,5.517,0,0,0,487.38,100.478Z" fill="#fff"/>
      <path id="Path_1735" data-name="Path 1735" d="M518.723,144.786h-.039c-.039,0-.077,0-.077-.038-.077,0-.154-.039-.231-.039a5.231,5.231,0,0,0-.731-.077,1.421,1.421,0,0,1-.384-.039h-.039a10.134,10.134,0,0,1-2.077-.346.749.749,0,0,1-.423-.423c0-.039-.039-.039-.039-.077l-.5-.153a15.215,15.215,0,0,0-.269-5.424,15.853,15.853,0,0,0-2.154-5.039l.384-.346v-.077a.868.868,0,0,1,.193-.577,11.2,11.2,0,0,1,1.731-1.192c.115-.077.231-.115.346-.192a5.8,5.8,0,0,0,.654-.384c.038-.039.115-.077.192-.154.039-.039.077-.039.077-.077a1.285,1.285,0,0,0,.269-1.731,1.1,1.1,0,0,0-.885-.423,1.428,1.428,0,0,0-.846.308l-.077.077c-.077.039-.115.115-.193.154a6.5,6.5,0,0,0-.5.538,1.75,1.75,0,0,1-.269.269,9.777,9.777,0,0,1-1.539,1.385.619.619,0,0,1-.346.116.486.486,0,0,1-.231-.039h-.077l-.462.308a18.7,18.7,0,0,0-1.577-1.462,15.36,15.36,0,0,0-8.039-3.193l-.038-.5-.077-.077a.8.8,0,0,1-.308-.5,13.47,13.47,0,0,1,.116-2.078v-.038a1.362,1.362,0,0,1,.077-.385c.039-.231.077-.462.115-.731v-.346a1.174,1.174,0,0,0-2.039-.885,1.221,1.221,0,0,0-.346.885v.307a2.244,2.244,0,0,0,.115.731c.039.116.039.231.077.385v.039a9.933,9.933,0,0,1,.115,2.077.8.8,0,0,1-.308.5l-.077.077-.039.5a19.382,19.382,0,0,0-2.077.308,14.83,14.83,0,0,0-7.616,4.308l-.385-.269H487.8c-.077,0-.154.039-.231.039a.624.624,0,0,1-.346-.115,10.221,10.221,0,0,1-1.538-1.423,1.773,1.773,0,0,0-.269-.269,6.3,6.3,0,0,0-.5-.538c-.039-.039-.115-.077-.193-.154-.038-.039-.077-.039-.077-.077a1.343,1.343,0,0,0-.846-.308,1.1,1.1,0,0,0-.885.423,1.285,1.285,0,0,0,.27,1.731c.038,0,.038.039.077.039.077.038.115.115.192.153a5.841,5.841,0,0,0,.654.385,1.549,1.549,0,0,1,.346.192,11.17,11.17,0,0,1,1.731,1.192.707.707,0,0,1,.192.577v.077l.384.346a1.359,1.359,0,0,0-.192.308,14.982,14.982,0,0,0-2.154,10.154l-.5.154c0,.039-.039.039-.039.077a.894.894,0,0,1-.423.423,9.724,9.724,0,0,1-2.077.346h-.039a1.3,1.3,0,0,0-.384.039,5.3,5.3,0,0,0-.731.077c-.077,0-.154.039-.231.039a.142.142,0,0,0-.115.038,1.261,1.261,0,0,0-1,1.423,1.185,1.185,0,0,0,1.231.885.848.848,0,0,0,.308-.039c.038,0,.077,0,.077-.039.077,0,.154-.039.231-.039a3.676,3.676,0,0,0,.693-.269c.115-.038.231-.115.346-.153h.039a9.442,9.442,0,0,1,2-.577h.077a.855.855,0,0,1,.5.192c.038,0,.038.039.077.039l.539-.077a15.206,15.206,0,0,0,5.039,7.231,15.588,15.588,0,0,0,1.654,1.116l-.231.5c0,.039.039.039.039.077a.793.793,0,0,1,.077.616,10.85,10.85,0,0,1-1,1.808v.038c-.077.116-.154.192-.231.308-.154.192-.27.385-.424.615a.839.839,0,0,0-.115.192.135.135,0,0,1-.039.077,1.217,1.217,0,0,0,.5,1.654,1.028,1.028,0,0,0,.462.116,1.383,1.383,0,0,0,1.154-.731.133.133,0,0,1,.039-.077.837.837,0,0,1,.115-.192,7.24,7.24,0,0,0,.231-.693l.116-.346a9.042,9.042,0,0,1,.807-1.923.991.991,0,0,1,.5-.346c.038,0,.038,0,.077-.039l.27-.5a15.023,15.023,0,0,0,5.385,1,13.967,13.967,0,0,0,3.347-.384,17.108,17.108,0,0,0,2-.577l.231.423c.039,0,.039,0,.077.038a.715.715,0,0,1,.5.346,13.22,13.22,0,0,1,.807,1.923v.039l.115.346a4.914,4.914,0,0,0,.231.693c.039.077.077.115.116.192a.135.135,0,0,0,.039.077,1.307,1.307,0,0,0,1.154.731,1.028,1.028,0,0,0,.462-.116,1.148,1.148,0,0,0,.577-.692,1.4,1.4,0,0,0-.077-.962c0-.039-.039-.039-.039-.077a.865.865,0,0,0-.115-.192,3.493,3.493,0,0,0-.424-.615c-.077-.115-.153-.192-.23-.307v-.039a8.6,8.6,0,0,1-1-1.808,1.075,1.075,0,0,1,.038-.615c0-.039.039-.039.039-.077l-.192-.462a15.26,15.26,0,0,0,6.693-8.424l.462.077c.039,0,.039-.039.077-.039a.982.982,0,0,1,.5-.192h.077a9.444,9.444,0,0,1,2,.576h.038c.115.039.231.115.346.154a3.687,3.687,0,0,0,.692.27c.077,0,.154.038.231.038a.14.14,0,0,1,.115.039.847.847,0,0,0,.308.039,1.294,1.294,0,0,0,1.231-.885,1.48,1.48,0,0,0-1.115-1.269ZM500.914,142.9l-1.693.808-1.692-.808-.423-1.808,1.154-1.462h1.885l1.154,1.462-.384,1.808Zm10.039-4a12.136,12.136,0,0,1,.27,3.885l-5.885-1.692a1.042,1.042,0,0,1-.731-1.231.918.918,0,0,1,.231-.423l4.654-4.193a12.319,12.319,0,0,1,1.462,3.654Zm-3.308-5.962-5.039,3.577a1.024,1.024,0,0,1-1.346-.231.859.859,0,0,1-.192-.423l-.346-6.27a11.674,11.674,0,0,1,6.924,3.347Zm-11.155-3.155c.423-.077.808-.154,1.231-.231l-.346,6.154a1.053,1.053,0,0,1-1.039,1,.915.915,0,0,1-.462-.115l-5.116-3.654a11.733,11.733,0,0,1,5.731-3.155Zm-7.578,5.462,4.577,4.077a1.024,1.024,0,0,1,.115,1.423.766.766,0,0,1-.462.308l-5.962,1.731a12.38,12.38,0,0,1,1.731-7.539Zm-1.039,10.424,6.116-1.039a1.037,1.037,0,0,1,1.077.808,1.1,1.1,0,0,1-.038.616l-2.346,5.654a12.126,12.126,0,0,1-4.808-6.039Zm14.039,7.654a12.554,12.554,0,0,1-2.693.308,13.022,13.022,0,0,1-3.885-.616l3.039-5.5a1.01,1.01,0,0,1,1.231-.27,1.648,1.648,0,0,1,.462.423l2.962,5.347c-.346.115-.731.192-1.116.308Zm7.5-5.346a12.215,12.215,0,0,1-3.693,3.731L503.3,145.9a1.036,1.036,0,0,1,.538-1.192,1.232,1.232,0,0,1,.539-.115l6.154,1.039a7.749,7.749,0,0,1-1.115,2.347Z" transform="translate(-11.842 -11.152)" fill="#fff"/>
    </g>
  </g>
</svg>
