<svg xmlns="http://www.w3.org/2000/svg" xmlns:xlink="http://www.w3.org/1999/xlink" width="82" height="60" viewBox="0 0 82 60">
  <defs>
    <linearGradient id="linear-gradient" x1="1" y1="0.389" x2="0" y2="0.381" gradientUnits="objectBoundingBox">
      <stop offset="0" stop-color="#366a96"/>
      <stop offset="1" stop-color="#3679b0"/>
    </linearGradient>
    <linearGradient id="linear-gradient-2" x1="1" y1="0.5" x2="-0.975" y2="0.5" gradientUnits="objectBoundingBox">
      <stop offset="0" stop-color="#ffc836"/>
      <stop offset="1" stop-color="#ffe873"/>
    </linearGradient>
    <clipPath id="clip-lang-python">
      <rect width="82" height="60"/>
    </clipPath>
  </defs>
  <g id="lang-python" clip-path="url(#clip-lang-python)">
    <g id="python-vertical" transform="translate(15)">
      <g id="Group_59" data-name="Group 59">
        <path id="Path_42" data-name="Path 42" d="M6.261,71.876q0-3.7-2.16-3.805a4.143,4.143,0,0,0-1.676.269,2.492,2.492,0,0,0-.881.455v5.892A4.4,4.4,0,0,0,4,75.48c1.509-.1,2.265-1.3,2.265-3.6Zm1.777.1A5.161,5.161,0,0,1,7.132,75.1a3.362,3.362,0,0,1-2.8,1.446,5.058,5.058,0,0,1-2.784-.826v5.355L0,80.538V68.651a3.535,3.535,0,0,1,.975-.792,6.809,6.809,0,0,1,3.351-.806l.022.022a3.078,3.078,0,0,1,2.773,1.446,6.043,6.043,0,0,1,.905,3.453Zm9.44,3.515a8.194,8.194,0,0,1-.517,3.494,3.615,3.615,0,0,1-1.979,1.55,7.735,7.735,0,0,1-2.559.5l-.255-.952a12.6,12.6,0,0,0,1.967-.372,2.591,2.591,0,0,0,1.545-1.131,5.6,5.6,0,0,0,.338-2.377V75.81a8.082,8.082,0,0,1-3.321.7,3.094,3.094,0,0,1-2.009-.7,2.37,2.37,0,0,1-.973-1.943V67.576l1.545-.517v6.326a1.9,1.9,0,0,0,.67,1.561,2.558,2.558,0,0,0,1.732.527,4.37,4.37,0,0,0,2.273-.806v-7.38h1.545V75.5Zm6.032.972L23,76.487a3.1,3.1,0,0,1-2.042-.611,2.084,2.084,0,0,1-.728-1.69V68.238H19.172v-.951H20.23V64.763l1.543-.538v3.06H23.51v.951H21.778v5.907a1.424,1.424,0,0,0,.466,1.2,2.4,2.4,0,0,0,1.269.332v.792Zm9.352-.125H31.317V70.512a2.708,2.708,0,0,0-.424-1.53,1.55,1.55,0,0,0-1.36-.724,5.071,5.071,0,0,0-2.657,1.1v6.988H25.331V62.409l1.545-.476v6.339a5.467,5.467,0,0,1,3.236-1.054,2.608,2.608,0,0,1,1.988.806,2.813,2.813,0,0,1,.762,2.006v6.305Zm8.212-4.7a4.561,4.561,0,0,0-.551-2.351,2.294,2.294,0,0,0-2.03-1.188q-2.54.144-2.538,3.556a5.651,5.651,0,0,0,.531,2.612,2.134,2.134,0,0,0,2.038,1.315q2.551-.02,2.55-3.938Zm1.7.011a5.285,5.285,0,0,1-1.058,3.37A3.836,3.836,0,0,1,38.5,76.534a3.756,3.756,0,0,1-3.168-1.509,5.356,5.356,0,0,1-1.036-3.37,4.743,4.743,0,0,1,1.12-3.205,3.9,3.9,0,0,1,3.11-1.385,3.967,3.967,0,0,1,3.132,1.385,4.744,4.744,0,0,1,1.12,3.205Zm8.85,4.692H50.07V70.187a2.037,2.037,0,0,0-.623-1.583,2.288,2.288,0,0,0-1.661-.547,3.771,3.771,0,0,0-2.094.7v7.582H44.146V68.566A7.83,7.83,0,0,1,46.6,67.321a7.648,7.648,0,0,1,1.863-.269,4.889,4.889,0,0,1,1.036.1,3.013,3.013,0,0,1,1.481.765,2,2,0,0,1,.635,1.488v6.926Z" transform="translate(0 -21.077)" fill="#646464"/>
        <path id="Path_43" data-name="Path 43" d="M16.338,5.037c0-2.592.711-4,4.636-4.673a29.639,29.639,0,0,1,9.269,0C32.759.77,34.877,2.6,34.877,5.037v8.551a4.6,4.6,0,0,1-4.636,4.562H20.973a5.812,5.812,0,0,0-5.8,5.586v4.1H11.99c-2.7,0-4.265-1.9-4.925-4.559a16.257,16.257,0,0,1,0-9.122A5.757,5.757,0,0,1,12.858,9.6h12.75V8.458H16.338Z" transform="translate(0.821 0)" fill="url(#linear-gradient)"/>
        <path id="Path_44" data-name="Path 44" d="M40,37.355c0,2.592-2.3,3.9-4.636,4.559a16.019,16.019,0,0,1-9.269,0c-2.452-.7-4.636-2.125-4.636-4.559V28.8a4.653,4.653,0,0,1,4.636-4.562h9.269a5.86,5.86,0,0,0,5.8-5.7V14.552h3.475c2.7,0,3.97,1.961,4.636,4.559.927,3.609.968,6.309,0,9.122-.937,2.733-1.94,4.559-4.636,4.559h-13.9v1.141H40v3.42Z" transform="translate(-4.299 -4.952)" fill="url(#linear-gradient-2)"/>
        <path id="Path_45" data-name="Path 45" d="M24.972,5.893A1.738,1.738,0,1,1,26.71,7.6,1.723,1.723,0,0,1,24.972,5.893ZM35.4,34.392A1.738,1.738,0,1,1,37.14,36.1,1.725,1.725,0,0,1,35.4,34.392Z" transform="translate(-5.495 -1.422)" fill="#fff"/>
      </g>
    </g>
  </g>
</svg>
