<svg xmlns="http://www.w3.org/2000/svg" xmlns:xlink="http://www.w3.org/1999/xlink" width="90" height="55" viewBox="0 0 90 55">
  <defs>
    <clipPath id="clip-mysql">
      <rect width="90" height="55"/>
    </clipPath>
  </defs>
  <g id="mysql" clip-path="url(#clip-mysql)">
    <rect width="90" height="55" fill="#fff"/>
    <g id="Group_63" data-name="Group 63" transform="translate(-1271.944 -296.064)">
      <path id="Path_1818" data-name="Path 1818" d="M1272.944,342.317h2.9V330.9l4.471,9.96a2.991,2.991,0,0,0,5.312,0l4.471-9.96v11.421h2.877v-11.4a1.746,1.746,0,0,0-1.35-1.926c-2.191-.686-3.675-.089-4.338,1.395l-4.382,9.805-4.249-9.805c-.642-1.483-2.147-2.081-4.338-1.395a1.742,1.742,0,0,0-1.372,1.926v11.4Zm22.443-9.3h2.877v6.286c-.022.354.111,1.151,1.7,1.173.8.021,6.219,0,6.263,0V333h2.9c.022,0,0,10.2,0,10.248.022,2.523-3.121,3.054-4.56,3.1h-9.119V344.4s9.1.022,9.119,0c1.86-.177,1.638-1.106,1.638-1.416v-.753h-6.131c-2.855-.044-4.67-1.284-4.692-2.722,0-.132.066-6.418,0-6.485Zm62.173-7.238a9.962,9.962,0,0,0-4.294.62c-.331.133-.841.133-.907.554a2.991,2.991,0,0,1,.354.708,5.729,5.729,0,0,0,1.173,1.35,16.044,16.044,0,0,0,1.394,1.018c.885.531,1.859.819,2.678,1.351.51.309,1,.708,1.483,1.062a2.778,2.778,0,0,0,.686.553v-.044a6.9,6.9,0,0,1-.332-.709l-.664-.664a11,11,0,0,0-2.325-2.213c-.686-.487-2.235-1.173-2.523-1.97-.023-.022-.045-.022-.045-.045a14.769,14.769,0,0,0,1.506-.355c.753-.2,1.439-.155,2.213-.354.355-.111.708-.2,1.063-.31v-.2a15.64,15.64,0,0,0-1.106-1.306,31.019,31.019,0,0,0-3.63-2.723,22.425,22.425,0,0,0-2.323-1.128c-.244-.111-.687-.177-.863-.4a10.354,10.354,0,0,1-.908-1.7q-.974-1.894-1.814-3.852a23.731,23.731,0,0,0-1.106-2.523,22.38,22.38,0,0,0-8.588-8.278,10.646,10.646,0,0,0-2.833-.907c-.553-.044-1.106-.066-1.66-.111a9.972,9.972,0,0,1-1.018-.753c-1.262-.8-4.516-2.545-5.445-.243-.6,1.439.885,2.855,1.416,3.586a10.353,10.353,0,0,1,1.108,1.66c.176.376.2.752.354,1.151a29.706,29.706,0,0,0,1.151,2.988,10.625,10.625,0,0,0,.819,1.372c.177.243.509.354.553.752a6.312,6.312,0,0,0-.508,1.66,9.758,9.758,0,0,0,.664,7.436c.355.553,1.173,1.771,2.325,1.306,1-.421.774-1.66,1.062-2.789.067-.244.022-.421.155-.6v.044c.288.62.6,1.218.908,1.815a11.891,11.891,0,0,0,2.878,2.988c.508.4.929,1.085,1.615,1.306v-.044h-.066c-.133-.2-.332-.287-.487-.443a13.265,13.265,0,0,1-1.173-1.328,33.274,33.274,0,0,1-2.478-4.028c-.355-.686-.665-1.439-.951-2.125-.112-.265-.112-.664-.355-.819a11.111,11.111,0,0,0-1.063,1.527,12.5,12.5,0,0,0-.6,3.32c-.089.044-.067.022-.112.067-.707-.177-.951-.908-1.217-1.527a9.741,9.741,0,0,1-.2-5.91c.155-.465.842-1.926.554-2.368-.134-.421-.554-.686-.8-1.018a7.9,7.9,0,0,1-.818-1.394c-.531-1.24-.775-2.612-1.351-3.851a11.245,11.245,0,0,0-1.106-1.7,10.875,10.875,0,0,1-1.217-1.726c-.11-.243-.265-.642-.11-.908a.438.438,0,0,1,.309-.31c.287-.221,1.107.089,1.416.2a13.342,13.342,0,0,1,2.169,1.129c.332.221.665.642,1.063.752h.443c.708.155,1.5.044,2.168.243a12.475,12.475,0,0,1,3.188,1.527,19.692,19.692,0,0,1,6.927,7.57c.266.509.376.974.6,1.5.466,1.085,1.062,2.191,1.527,3.232a14.108,14.108,0,0,0,1.549,2.988c.355.465,1.682.709,2.28.952a12.515,12.515,0,0,1,1.506.62c.775.442,1.5,1,2.235,1.5.353.246,1.459.8,1.5,1.264Z" transform="translate(0)" fill="#00678c" fill-rule="evenodd"/>
      <path id="Path_1819" data-name="Path 1819" d="M1427.743,314.87a3.794,3.794,0,0,0-.907.111v.044h.066a7.092,7.092,0,0,0,.708.907c.155.354.332.709.487,1.063l.066-.066a1.19,1.19,0,0,0,.443-1.106c-.111-.133-.133-.288-.243-.443a3.45,3.45,0,0,0-.62-.51Z" transform="translate(-92.759 -8.321)" fill="#00678c" fill-rule="evenodd"/>
      <path id="Path_1820" data-name="Path 1820" d="M1369.669,384.66h8.3a6.418,6.418,0,0,0,2.678-.554,2.633,2.633,0,0,0,1.859-2.368v-2.125c0-.818-.708-1.615-2.058-2.124a6.951,6.951,0,0,0-2.479-.421h-3.5c-1.173,0-1.726-.355-1.859-1.129a1.066,1.066,0,0,1-.022-.265v-1.306a.9.9,0,0,1,.022-.243c.133-.6.443-.775,1.461-.863.088,0,.2-.022.288-.022h8.256v-1.925h-8.123a8.08,8.08,0,0,0-2.324.243c-1.726.553-2.479,1.395-2.479,2.878v1.682c0,1.306,1.483,2.412,3.94,2.678.288,0,.553.022.841.022h2.988a1.344,1.344,0,0,1,.309.022c.93.089,1.306.243,1.594.574a.759.759,0,0,1,.222.532v1.682a.946.946,0,0,1-.421.686,2.074,2.074,0,0,1-1.218.4c-.11,0-.2.022-.31.022h-7.968Zm30.854-3.365c0,1.992,1.461,3.1,4.45,3.32.265.022.553.044.818.044h7.526v-1.926h-7.57c-1.7,0-2.346-.421-2.346-1.438v-9.982h-2.878v9.982Zm-16.179.11v-6.861c0-1.749,1.217-2.811,3.652-3.143a4.53,4.53,0,0,1,.775-.044h5.489a4.92,4.92,0,0,1,.8.044c2.412.332,3.652,1.394,3.652,3.143v6.861a2.5,2.5,0,0,1-1.726,2.656l2.855,2.568h-3.364l-2.3-2.059-2.324.133h-3.076a6.087,6.087,0,0,1-1.7-.243c-1.836-.487-2.721-1.461-2.721-3.055Zm3.121-.176a1.5,1.5,0,0,0,.045.31c.177.8.929,1.239,2.058,1.239h2.635l-2.412-2.169h3.364l2.1,1.881a1.359,1.359,0,0,0,.731-.908,1.343,1.343,0,0,0,.022-.288v-6.6a.989.989,0,0,0-.022-.244c-.177-.752-.929-1.172-2.036-1.172h-4.382c-1.284,0-2.1.553-2.1,1.416v6.53Zm27.18,3.431h.421v-1.594h.576v-.332h-1.572v.332h.575v1.594Zm3.232,0h.376v-1.926h-.575l-.509,1.328-.508-1.328h-.6v1.926h.4V383.2l.553,1.461h.288l.553-1.461h.022v1.461Z" transform="translate(-58.301 -42.343)" fill="#ce8b2c" fill-rule="evenodd"/>
    </g>
  </g>
</svg>
