<svg width="90" height="55" viewBox="0 0 90 55" fill="none" xmlns="http://www.w3.org/2000/svg">
<path d="M39.87 28.607H45.06L42.31 24.197L37.31 32.197H34.99L41.11 22.607C41.2463 22.419 41.4252 22.266 41.6321 22.1605C41.8389 22.055 42.0678 22 42.3 22C42.5322 22 42.7611 22.055 42.9679 22.1605C43.1748 22.266 43.3537 22.419 43.49 22.607L49.64 32.207H47.35L46.23 30.427H41.02L39.87 28.607ZM63.66 30.387V22.107H61.66V31.237C61.6663 31.4924 61.77 31.7357 61.95 31.917C62.0434 32.0097 62.1543 32.083 62.2761 32.1328C62.3979 32.1825 62.5284 32.2077 62.66 32.207H71.52L72.66 30.427L63.66 30.387ZM31.51 28.937C31.974 28.9621 32.4383 28.8924 32.8744 28.7321C33.3106 28.5718 33.7096 28.3244 34.0469 28.0048C34.3842 27.6852 34.6529 27.3002 34.8365 26.8734C35.0202 26.4465 35.1149 25.9867 35.1149 25.522C35.1149 25.0573 35.0202 24.5975 34.8365 24.1706C34.6529 23.7437 34.3842 23.3588 34.0469 23.0392C33.7096 22.7196 33.3106 22.4721 32.8744 22.3118C32.4383 22.1516 31.974 22.0819 31.51 22.107H23.01V32.207H24.95V23.887H31.38C31.7915 23.9192 32.1758 24.1054 32.4561 24.4085C32.7364 24.7116 32.892 25.1092 32.892 25.522C32.892 25.9348 32.7364 26.3324 32.4561 26.6355C32.1758 26.9385 31.7915 27.1248 31.38 27.157H25.9L31.7 32.217H34.53L30.62 28.947L31.51 28.937ZM11.05 32.207C9.71066 32.207 8.42617 31.6749 7.47911 30.7279C6.53205 29.7808 6 28.4963 6 27.157C6 25.8176 6.53205 24.5332 7.47911 23.5861C8.42617 22.639 9.71066 22.107 11.05 22.107H16.92C18.2593 22.107 19.5438 22.639 20.4909 23.5861C21.4379 24.5332 21.97 25.8176 21.97 27.157C21.97 28.4963 21.4379 29.7808 20.4909 30.7279C19.5438 31.6749 18.2593 32.207 16.92 32.207H11.05ZM16.79 30.427C17.6573 30.427 18.489 30.0825 19.1022 29.4692C19.7155 28.856 20.06 28.0242 20.06 27.157C20.06 26.2897 19.7155 25.458 19.1022 24.8447C18.489 24.2315 17.6573 23.887 16.79 23.887H11.23C10.3627 23.887 9.531 24.2315 8.91776 24.8447C8.30452 25.458 7.96 26.2897 7.96 27.157C7.96 28.0242 8.30452 28.856 8.91776 29.4692C9.531 30.0825 10.3627 30.427 11.23 30.427H16.79ZM53.69 32.207C52.3507 32.207 51.0662 31.6749 50.1191 30.7279C49.1721 29.7808 48.64 28.4963 48.64 27.157C48.64 25.8176 49.1721 24.5332 50.1191 23.5861C51.0662 22.639 52.3507 22.107 53.69 22.107H60.69L59.53 23.887H53.82C52.9527 23.887 52.121 24.2315 51.5078 24.8447C50.8945 25.458 50.55 26.2897 50.55 27.157C50.55 28.0242 50.8945 28.856 51.5078 29.4692C52.121 30.0825 52.9527 30.427 53.82 30.427H60.82L59.68 32.207H53.69ZM77.45 30.427C76.7386 30.4272 76.0467 30.1947 75.4798 29.765C74.9128 29.3353 74.502 28.732 74.31 28.047H82.61L83.76 26.267H74.31C74.505 25.5837 74.9165 24.9822 75.4828 24.553C76.0491 24.1238 76.7395 23.89 77.45 23.887H83.15L84.31 22.107H77.31C75.9707 22.107 74.6862 22.639 73.7391 23.5861C72.7921 24.5332 72.26 25.8176 72.26 27.157C72.26 28.4963 72.7921 29.7808 73.7391 30.7279C74.6862 31.6749 75.9707 32.207 77.31 32.207H83.31L84.46 30.427H77.45Z" fill="#EA1B22"/>
</svg>
