<svg id="Layer_1" data-name="Layer 1" xmlns="http://www.w3.org/2000/svg" width="90" height="55" viewBox="0 0 90 55"><defs><style>.cls-1{fill:#ea1b22;}</style></defs><path class="cls-1" d="M39.64,29h5.19l-2.75-4.41-5,8H34.76L40.88,23a1.47,1.47,0,0,1,2.38,0l6.15,9.6H47.12L46,30.82H40.79L39.64,29Zm23.79,1.78V22.5h-2v9.13a1,1,0,0,0,.29.68,1,1,0,0,0,.71.29h8.86l1.14-1.78ZM31.28,29.33a3.42,3.42,0,1,0,0-6.83h-8.5V32.6h1.94V24.28h6.43a1.64,1.64,0,0,1,0,3.27H25.67l5.8,5.06H34.3l-3.91-3.27ZM10.82,32.6a5.05,5.05,0,0,1,0-10.1h5.87a5.05,5.05,0,1,1,0,10.1Zm5.74-1.78a3.27,3.27,0,0,0,0-6.54H11a3.27,3.27,0,0,0,0,6.54Zm36.9,1.78a5,5,0,0,1,0-10.1h7L59.3,24.28H53.59a3.27,3.27,0,0,0,0,6.54h7L59.45,32.6Zm23.76-1.78a3.26,3.26,0,0,1-3.14-2.38h8.3l1.15-1.78H74.08a3.28,3.28,0,0,1,3.14-2.38h5.7l1.16-1.78h-7a5.05,5.05,0,1,0,0,10.1h6l1.15-1.78Z"/></svg>