<svg xmlns="http://www.w3.org/2000/svg" xmlns:xlink="http://www.w3.org/1999/xlink" width="82" height="60" viewBox="0 0 82 60">
  <defs>
    <clipPath id="clip-platform-docker">
      <rect width="82" height="60"/>
    </clipPath>
  </defs>
  <g id="platform-docker" clip-path="url(#clip-platform-docker)">
    <g id="docker-3" transform="translate(-9.887 -235.9)">
      <path id="Path_97" data-name="Path 97" d="M80.417,282.7c-.167-.139-1.673-1.283-4.907-1.283a15.6,15.6,0,0,0-2.537.223,9.559,9.559,0,0,0-4.294-6.441l-.864-.5-.558.809a11.923,11.923,0,0,0-1.533,3.569,8.472,8.472,0,0,0,1,6.664,11.829,11.829,0,0,1-4.377,1.06H22.759a1.868,1.868,0,0,0-1.868,1.868,28.213,28.213,0,0,0,1.729,10.177,15.263,15.263,0,0,0,6.022,7.835c2.955,1.812,7.779,2.844,13.216,2.844a40.533,40.533,0,0,0,7.333-.669,30.264,30.264,0,0,0,9.591-3.485,26.253,26.253,0,0,0,6.524-5.353A35.5,35.5,0,0,0,71.69,289h.558a9.174,9.174,0,0,0,6.719-2.537,7.426,7.426,0,0,0,1.784-2.621L81,283.12Z" transform="translate(0 -21.491)" fill="#0091e2"/>
      <path id="Path_98" data-name="Path 98" d="M39.574,264.166h5.3a.47.47,0,0,0,.474-.474v-4.74a.47.47,0,0,0-.474-.474h-5.3a.47.47,0,0,0-.474.474v4.74A.488.488,0,0,0,39.574,264.166Zm7.3,0h5.3a.47.47,0,0,0,.474-.474v-4.74a.47.47,0,0,0-.474-.474h-5.3a.47.47,0,0,0-.474.474v4.74a.488.488,0,0,0,.474.474m7.444,0h5.3a.47.47,0,0,0,.474-.474v-4.74a.47.47,0,0,0-.474-.474h-5.3a.47.47,0,0,0-.474.474v4.74A.454.454,0,0,0,54.323,264.166Zm7.333,0h5.3a.47.47,0,0,0,.474-.474v-4.74a.47.47,0,0,0-.474-.474h-5.3a.47.47,0,0,0-.474.474v4.74A.47.47,0,0,0,61.656,264.166Zm-14.777-6.775h5.3a.489.489,0,0,0,.474-.474v-4.74a.47.47,0,0,0-.474-.474h-5.3a.47.47,0,0,0-.474.474v4.74a.51.51,0,0,0,.474.474m7.444,0h5.3a.489.489,0,0,0,.474-.474v-4.74a.47.47,0,0,0-.474-.474h-5.3a.47.47,0,0,0-.474.474v4.74a.47.47,0,0,0,.474.474m7.333,0h5.3a.489.489,0,0,0,.474-.474v-4.74a.489.489,0,0,0-.474-.474h-5.3a.47.47,0,0,0-.474.474v4.74a.489.489,0,0,0,.474.474m0-6.8h5.3a.47.47,0,0,0,.474-.474v-4.74a.489.489,0,0,0-.474-.474h-5.3a.47.47,0,0,0-.474.474v4.74a.489.489,0,0,0,.474.474m7.389,13.578h5.3a.47.47,0,0,0,.474-.474v-4.74a.47.47,0,0,0-.474-.474h-5.3a.47.47,0,0,0-.474.474v4.74a.488.488,0,0,0,.474.474" transform="translate(-13.135 0)" fill="#0091e2"/>
    </g>
  </g>
</svg>
