<svg width="90" height="55" viewBox="0 0 90 55" fill="none" xmlns="http://www.w3.org/2000/svg">
<path d="M67.1025 22H51.8129C51.4443 21.9999 51.0909 21.8493 50.8303 21.5816C50.5697 21.3138 50.4232 20.9506 50.423 20.5719V4.19633C50.423 2.98368 49.4662 2 48.2867 2H42.8287C41.6485 2 40.6922 2.98368 40.6922 4.19633V20.4727C40.6922 21.3171 40.0279 22.0035 39.2062 22.0072L34.1956 22.0318C33.3669 22.0364 32.6936 21.3454 32.6952 20.4945L32.7263 4.20002C32.729 2.98552 31.7718 2 30.59 2H25.1365C23.9561 2 23 2.98368 23 4.19633V50.05C23 51.1273 23.8492 52 24.8966 52H67.1025C68.1508 52 69 51.1273 69 50.05V23.95C69 22.8727 68.1508 22 67.1025 22V22ZM59.9326 39.2163C59.9326 40.628 58.8189 41.7727 57.4452 41.7727H53.1318C51.7579 41.7727 50.6442 40.628 50.6442 39.2163V34.7835C50.6442 33.3716 51.7579 32.2271 53.1318 32.2271H57.4452C58.8189 32.2271 59.9326 33.3716 59.9326 34.7835V39.2163V39.2163Z" fill="#FF6600"/>
</svg>
