<svg width="90" height="55" viewBox="0 0 90 55" fill="none" xmlns="http://www.w3.org/2000/svg">
<g clip-path="url(#clip0_2807_8245)">
<path fill-rule="evenodd" clip-rule="evenodd" d="M70.6193 39.8817C67.7301 41.5206 52.4702 47.6656 48.7582 49.7139C45.4586 51.3527 43.8088 51.3527 41.3343 50.1238C38.8594 48.8945 22.3619 42.34 19.4745 40.7012C17.8247 39.8817 17 39.4723 17 39.0624C17 33.3269 17 33.3269 17 33.3269C17 33.3269 38.4473 28.8203 41.7464 27.5914C45.4586 26.3625 46.6958 26.3625 49.5832 27.1819C52.4702 28.4109 69.7906 31.2785 72.6798 32.5075C72.6798 38.2429 72.6798 38.2429 72.6798 38.2429C72.6798 38.6529 72.2678 39.0624 70.6193 39.8817Z" fill="#B79900"/>
<path fill-rule="evenodd" clip-rule="evenodd" d="M70.6629 34.4282C67.7737 35.6755 52.4836 42.3277 48.765 43.9907C45.4597 45.6536 43.8068 45.6536 41.3275 44.4063C38.8482 43.1589 22.3209 36.5072 19.4282 35.2599C16.5359 33.5969 16.1229 32.7652 19.4282 31.5179C22.3209 30.2711 38.4352 24.0349 41.741 22.7876C45.4597 21.5403 46.699 21.5403 49.5914 22.3715C52.4836 23.6188 67.7737 29.855 70.6629 30.6867C73.5565 31.934 73.5565 32.7652 70.6629 34.4282Z" fill="#FFD800"/>
<path fill-rule="evenodd" clip-rule="evenodd" d="M70.6193 30.8914C67.7301 32.5586 52.4702 38.8114 48.7582 40.4792C45.4586 42.1466 43.8088 42.1466 41.3343 40.8958C38.8594 39.6454 22.3619 32.9756 19.4745 31.7248C17.8247 30.8914 17 30.4744 17 29.6405C17 24.2216 17 24.2216 17 24.2216C17 24.2216 38.4473 19.2192 41.7464 17.9683C45.4586 16.7179 46.6958 16.7179 49.5832 17.9683C52.4702 19.2192 69.7906 22.1374 72.6798 23.3877C72.6798 28.807 72.6798 28.807 72.6798 28.807C72.6798 29.6405 72.2678 30.0574 70.6193 30.8914Z" fill="#B79900"/>
<path fill-rule="evenodd" clip-rule="evenodd" d="M70.6629 25.0027C67.7737 26.6376 52.4836 32.7681 48.765 34.8115C45.4597 36.4464 43.8068 36.4464 41.3275 35.2202C38.8482 33.9943 22.3209 27.4548 19.4282 25.8203C16.5359 24.5941 16.1229 23.3678 19.4282 22.5506C22.3209 21.3243 38.4352 14.7852 41.741 13.968C45.4597 12.7418 46.699 12.3331 49.5914 13.559C52.4836 14.7852 67.7737 20.5071 70.6629 21.7334C73.5565 22.5506 73.5565 23.7769 70.6629 25.0027Z" fill="#FFD800"/>
<path fill-rule="evenodd" clip-rule="evenodd" d="M70.6193 21.4387C67.7301 23.0775 52.4702 29.2228 48.7582 30.8612C45.4586 32.5001 43.8088 32.5 41.3343 31.2712C38.8594 30.0418 22.3619 23.4874 19.4745 22.258C17.8247 21.4387 17 21.0292 17 20.2097C17 14.8842 17 14.8842 17 14.8842C17 14.8842 38.4473 9.96772 41.7464 8.73882C45.4586 7.50991 46.6958 7.50991 49.5832 8.73882C52.4702 9.55823 69.7906 12.8355 72.6798 14.0648C72.6798 19.3904 72.6798 19.3904 72.6798 19.3904C72.6798 20.2097 72.2678 20.6196 70.6193 21.4387Z" fill="#B79900"/>
<path fill-rule="evenodd" clip-rule="evenodd" d="M70.6629 15.5882C67.7737 17.2524 52.4836 23.4947 48.765 25.575C45.4597 27.2397 43.8068 27.2397 41.3275 25.991C38.8482 24.7429 22.3209 18.085 19.4282 16.4202C16.5359 15.1716 16.1229 13.9234 19.4282 13.0914C22.3209 11.8427 38.4352 5.18478 41.741 3.93614C45.4597 2.68795 46.699 2.68795 49.5914 3.93614C52.4836 4.76871 67.7737 11.0106 70.6629 12.2587C73.5565 13.0913 73.5565 14.3395 70.6629 15.5882Z" fill="#FFD800"/>
<path fill-rule="evenodd" clip-rule="evenodd" d="M45.9671 7.73725L49.4908 6.45223L48.4842 9.02227L52.511 10.3073L47.4775 10.8216L46.2188 13.6486L44.7089 10.8216L38.9199 10.0504L43.4502 8.76535L42.1918 6.19531L45.9671 7.73725Z" fill="white"/>
<path fill-rule="evenodd" clip-rule="evenodd" d="M46.142 22.855L37.167 19.1381L49.8813 17.1555L46.142 22.855Z" fill="white"/>
<path fill-rule="evenodd" clip-rule="evenodd" d="M26.6455 14.525C26.6455 13.0721 29.6882 11.8945 33.4411 11.8945C37.194 11.8945 40.2367 13.0721 40.2367 14.525C40.2367 15.978 37.194 17.1556 33.4411 17.1556C29.6882 17.1556 26.6455 15.978 26.6455 14.525Z" fill="white"/>
<path fill-rule="evenodd" clip-rule="evenodd" d="M57.7734 11.0181L65.665 13.9918L57.7734 16.7176V11.0181Z" fill="#846E00"/>
<path fill-rule="evenodd" clip-rule="evenodd" d="M57.7734 11.0181V16.6649L57.015 17.156L49.4434 14.4553L57.7734 11.0181Z" fill="#B79900"/>
</g>
<defs>
<clipPath id="clip0_2807_8245">
<rect width="56" height="48" fill="white" transform="translate(17 3)"/>
</clipPath>
</defs>
</svg>
