<svg xmlns="http://www.w3.org/2000/svg" xmlns:xlink="http://www.w3.org/1999/xlink" width="90" height="55" viewBox="0 0 90 55">
  <defs>
    <clipPath id="clip-spark">
      <rect width="90" height="55"/>
    </clipPath>
  </defs>
  <g id="spark" clip-path="url(#clip-spark)">
    <rect width="90" height="55" fill="#fff"/>
    <g id="g4163" transform="translate(-885.103 -507.014)">
      <g id="g4165" transform="translate(887.103 512.014)">
        <path id="path4167" d="M1054.628,534.573c-.074-.158-.108-.238-.148-.315q-1.615-3.071-3.238-6.14a.375.375,0,0,1,.054-.5q2.57-3,5.124-6.018a.542.542,0,0,0,.137-.271c-.5.131-1,.259-1.5.392q-3.105.823-6.209,1.651a.285.285,0,0,1-.376-.164q-1.763-2.945-3.538-5.883a.8.8,0,0,0-.256-.286c-.1.523-.192,1.046-.285,1.569q-.494,2.771-.985,5.543c-.036.2-.085.4-.1.6s-.114.261-.287.315q-3.659,1.149-7.314,2.312a.811.811,0,0,0-.326.182l6.012,2.39c-.073.058-.122.1-.175.139-1.247.807-2.5,1.61-3.739,2.421a.4.4,0,0,1-.434.035c-1.489-.67-2.983-1.328-4.475-1.994a4.614,4.614,0,0,1-1.74-1.27,2.308,2.308,0,0,1,.562-3.674,6.68,6.68,0,0,1,1.511-.687c2.389-.778,4.788-1.529,7.185-2.282a.408.408,0,0,0,.332-.37c.319-1.85.651-3.7.984-5.543a9.653,9.653,0,0,1,.753-2.905,4.89,4.89,0,0,1,.669-.98,2.133,2.133,0,0,1,3.286-.091,6.274,6.274,0,0,1,.884,1.151q1.663,2.711,3.284,5.448a.356.356,0,0,0,.481.2q4.01-1.075,8.025-2.129a3.773,3.773,0,0,1,1.677-.094,1.652,1.652,0,0,1,1.355,2.361,4.544,4.544,0,0,1-.885,1.434q-2.8,3.294-5.6,6.585a.383.383,0,0,0-.05.508q1.676,3.16,3.337,6.328a3.519,3.519,0,0,1,.475,1.609,2.593,2.593,0,0,1-2.261,2.59,4.691,4.691,0,0,1-2.1-.262q-2.514-.777-5.035-1.533a.288.288,0,0,1-.243-.275c-.193-1.182-.4-2.362-.608-3.542a.736.736,0,0,1,.009-.14l5.782,1.6" transform="translate(-975.984 -512.014)" fill="#e25a1c" fill-rule="evenodd"/>
        <path id="path4169" d="M1060.441,581.971c-1.511,0-3.023-.009-4.535,0a.438.438,0,0,1-.424-.227q-2.685-4.089-5.384-8.168c-.058-.087-.118-.171-.22-.316l-1.144,8.694h-3.958c.046-.386.087-.759.136-1.13q.58-4.428,1.162-8.854.556-4.23,1.116-8.459a.365.365,0,0,1,.136-.235q2.043-1.332,4.1-2.65a.639.639,0,0,1,.118-.034c-.414,3.153-.824,6.282-1.234,9.41l.049.033,6.479-7.182c.064.365.118.678.172.991.154.9.3,1.794.465,2.688a.424.424,0,0,1-.135.418q-2.08,2.177-4.151,4.362c-.06.064-.118.13-.187.2.044.07.082.138.126.2q3.577,5.021,7.157,10.04a1.376,1.376,0,0,0,.159.162v.053" transform="translate(-985.065 -542.193)" fill="#3c3a3e" fill-rule="evenodd"/>
        <path id="path4171" d="M937.965,581.621a9.3,9.3,0,0,0-.241-1.185,4.092,4.092,0,0,0-4.934-2.662,5.5,5.5,0,0,0-4.332,4.86,3.948,3.948,0,0,0,2.587,4.182,4.671,4.671,0,0,0,4.145-.473A5.5,5.5,0,0,0,937.965,581.621Zm-10.465,7.6c-.117.88-.23,1.709-.339,2.539q-.218,1.655-.429,3.31c-.016.129-.055.186-.193.185-1.087,0-2.175,0-3.262-.005a.574.574,0,0,1-.109-.03c.066-.521.13-1.043.2-1.565q.36-2.745.722-5.489c.279-2.092.5-4.194.856-6.272a9.811,9.811,0,0,1,7.418-7.642,7.684,7.684,0,0,1,6.011.949,6.707,6.707,0,0,1,3.152,5.1,8.987,8.987,0,0,1-2.976,7.743,9.234,9.234,0,0,1-5.132,2.566,7.582,7.582,0,0,1-5.679-1.235c-.064-.044-.131-.083-.239-.151" transform="translate(-909.511 -550.545)" fill="#3c3a3e" fill-rule="evenodd"/>
        <path id="path4173" d="M903.321,562.355l-3.576,2.662c-.19-.3-.36-.6-.56-.878a2.752,2.752,0,0,0-2.074-1.316,2.319,2.319,0,0,0-1.951.767,1.365,1.365,0,0,0-.092,1.8c.482.631,1.01,1.229,1.548,1.813.893.968,1.826,1.9,2.713,2.872a6.051,6.051,0,0,1,1.649,3.089,6.292,6.292,0,0,1-.731,4.075,8.176,8.176,0,0,1-9.3,3.941,5.063,5.063,0,0,1-3.211-2.808c-.237-.49-.418-1.007-.633-1.532l3.877-2.075c.045.108.077.2.118.281a11.649,11.649,0,0,0,.674,1.316,2.632,2.632,0,0,0,3.444.975,3.8,3.8,0,0,0,.949-.616,2.018,2.018,0,0,0,.382-2.77,13.485,13.485,0,0,0-1.261-1.532c-1.058-1.175-2.159-2.312-3.192-3.508a5.543,5.543,0,0,1-1.35-2.89,4.956,4.956,0,0,1,.7-3.358,7.281,7.281,0,0,1,6.823-3.726,5.373,5.373,0,0,1,4.126,2.189c.313.393.606.8.926,1.227" transform="translate(-887.103 -541.164)" fill="#3c3a3e" fill-rule="evenodd"/>
        <path id="path4175" d="M987.119,585.288c-.2,1.52-.386,2.964-.581,4.407a.294.294,0,0,1-.129.2,7.865,7.865,0,0,1-9.259-1.576,7.113,7.113,0,0,1-1.767-5.185,9.771,9.771,0,0,1,8.416-9.015,7.207,7.207,0,0,1,6.687,2.418,6.737,6.737,0,0,1,1.684,4.865c-.054,1.206-.243,2.406-.393,3.607-.213,1.7-.445,3.4-.669,5.1-.008.06-.02.12-.034.2h-3.53c.047-.39.09-.772.139-1.154.256-1.962.537-3.921.761-5.887a6.292,6.292,0,0,0-.508-3.573,3.453,3.453,0,0,0-2.907-1.982,5.512,5.512,0,0,0-5.884,4.276,4.089,4.089,0,0,0,1.627,4.394,4.453,4.453,0,0,0,4.332.323,5.664,5.664,0,0,0,2.016-1.414" transform="translate(-941.946 -550.554)" fill="#3c3a3e" fill-rule="evenodd"/>
        <path id="path4177" d="M1030.561,575.125c-.161,1.224-.32,2.429-.482,3.66-.746,0-1.478,0-2.209,0a1.392,1.392,0,0,0-1.312.941,3.852,3.852,0,0,0-.125.675q-.557,4.216-1.108,8.431c-.093.709-.184,1.418-.276,2.137h-3.674c.069-.54.133-1.063.2-1.586q.359-2.732.72-5.463c.209-1.575.4-3.155.641-4.724a5.107,5.107,0,0,1,4.547-4.065c1.013-.044,2.03-.008,3.078-.008" transform="translate(-970.524 -551.216)" fill="#3c3a3e" fill-rule="evenodd"/>
        <path id="path4179" d="M1091.7,613.943v-1.551h-.009l-.609,1.551h-.194l-.609-1.551h-.009v1.551h-.307v-1.858h.474l.554,1.411.546-1.411H1092v1.858Zm-2.7-1.609v1.609h-.307v-1.609h-.582v-.248h1.47v.248H1089" transform="translate(-1011.988 -574.188)" fill="#3c3a3e"/>
        <path id="path4181" d="M939.616,556.834h.911l-.215-1.379Zm1.054.891h-1.516l-.482.943H937.6l2.368-4.423H941l.806,4.423h-.995l-.143-.943" transform="translate(-918.476 -538.252)" fill="#3c3a3e"/>
        <path id="path4183" d="M956.6,555.136h-.54l-.182,1.021h.54a.565.565,0,0,0,.586-.618A.37.37,0,0,0,956.6,555.136Zm-1.307-.891h1.418a1.153,1.153,0,0,1,1.261,1.2,1.543,1.543,0,0,1-1.639,1.6h-.611l-.287,1.62h-.923l.78-4.423" transform="translate(-928.984 -538.252)" fill="#3c3a3e"/>
        <path id="path4185" d="M968.625,556.834h.911l-.215-1.379Zm1.054.891h-1.515l-.482.943h-1.073l2.367-4.423h1.035l.806,4.423h-.995l-.143-.943" transform="translate(-936.5 -538.252)" fill="#3c3a3e"/>
        <path id="path4187" d="M985.768,558.393a2.422,2.422,0,0,1-1,.228,1.867,1.867,0,0,1-1.906-1.978,2.621,2.621,0,0,1,2.589-2.589,1.929,1.929,0,0,1,.93.228l-.13,1.061a1.192,1.192,0,0,0-.9-.365,1.588,1.588,0,0,0-1.522,1.574,1.052,1.052,0,0,0,1.041,1.145,1.659,1.659,0,0,0,1.021-.358l-.124,1.053" transform="translate(-946.597 -538.134)" fill="#3c3a3e"/>
        <path id="path4189" d="M1000.257,556.886h-1.925l-.313,1.782H997.1l.78-4.423h.924l-.312,1.75h1.925l.312-1.75h.924l-.78,4.423h-.924l.312-1.782" transform="translate(-955.441 -538.252)" fill="#3c3a3e"/>
        <path id="path4191" d="M1014.387,558.668l.78-4.423h2.452l-.156.891h-1.529l-.156.859h1.4l-.156.891h-1.405l-.156.891H1017l-.156.891h-2.452" transform="translate(-966.184 -538.252)" fill="#3c3a3e"/>
      </g>
    </g>
  </g>
</svg>
