<svg xmlns="http://www.w3.org/2000/svg" xmlns:xlink="http://www.w3.org/1999/xlink" width="375" height="388" viewBox="0 0 375 388">
  <defs>
    <clipPath id="clip-path">
      <rect id="Rectangle_43" data-name="Rectangle 43" width="375" height="388" transform="translate(0 69)" fill="none"/>
    </clipPath>
    <linearGradient id="linear-gradient" x1="-0.013" y1="0.804" x2="0.973" y2="0.22" gradientUnits="objectBoundingBox">
      <stop offset="0" stop-color="#00a6cd"/>
      <stop offset="1" stop-color="#111d36"/>
    </linearGradient>
    <linearGradient id="linear-gradient-2" y1="0.5" x2="1" y2="0.5" gradientUnits="objectBoundingBox">
      <stop offset="0" stop-color="#e5daec"/>
      <stop offset="0.29" stop-color="#d1c9d5"/>
      <stop offset="0.744" stop-color="#b6b4b7"/>
      <stop offset="1" stop-color="#adacac"/>
    </linearGradient>
    <linearGradient id="linear-gradient-119" x1="0" y1="0.5" x2="1" y2="0.5" xlink:href="#linear-gradient-2"/>
    <linearGradient id="linear-gradient-120" y1="0.5" x2="1" y2="0.5" gradientUnits="objectBoundingBox">
      <stop offset="0" stop-color="#2ab9d9"/>
      <stop offset="1" stop-color="#0076bf"/>
    </linearGradient>
    <linearGradient id="linear-gradient-121" x1="0" y1="0.5" x2="1" y2="0.5" xlink:href="#linear-gradient"/>
    <linearGradient id="linear-gradient-122" x1="0.431" y1="0.316" x2="0.813" y2="1.271" xlink:href="#linear-gradient-120"/>
    <linearGradient id="linear-gradient-124" x1="0.732" y1="0.092" x2="0.143" y2="1.002" xlink:href="#linear-gradient-120"/>
  </defs>
  <g id="mobile-view-banner" transform="translate(-5.981 -837.114)">
    <g id="Group_232" data-name="Group 232" transform="translate(5.981 768.114)" clip-path="url(#clip-path)">
      <g id="Group_231" data-name="Group 231" transform="translate(-8.14)">
        <rect id="Rectangle_32" data-name="Rectangle 32" width="375" height="457.085" transform="translate(8.14)" fill="url(#linear-gradient)"/>
        <g id="Group_206" data-name="Group 206" transform="translate(0 257.063)" opacity="0.5">
          <g id="Group_204" data-name="Group 204" opacity="0.52" style="mix-blend-mode: color-burn;isolation: isolate">
            <path id="Path_35" data-name="Path 35" d="M1146.087,1187.741c-42.5-3.455-82.394-13.367-123.638-20.124-99.249-16.263-207.746-13.793-304.376,6.926-61.538,13.194-117.529,33.34-175.686,50.78-166.761,50.007-359.082,77.32-545.9,70.157V1182.124c.375.035.749.075,1.123.109,106.05,9.667,216.664,2.708,316.4-19.9,73.2-16.6,139.769-41.205,210.2-61.281s147.731-35.881,226.371-32.735c91.8,3.673,173.52,32.361,257.937,53.135,53.7,13.214,114.61,23.054,172.013,21.44v46.177C1169.012,1189.1,1157.492,1188.669,1146.087,1187.741Z" transform="translate(3.513 -1067.913)" fill="#707288" opacity="0.5"/>
            <path id="Path_36" data-name="Path 36" d="M542.388,1240.131c58.157-17.44,114.148-37.585,175.686-50.78,96.63-20.719,205.128-23.188,304.376-6.926,41.244,6.758,81.141,16.67,123.638,20.125,11.4.927,22.925,1.363,34.442,1.323v28.68c-10.524-.431-20.993-1.153-31.255-2.088-52.83-4.812-104.606-14.453-158.107-14.948-114.371-1.059-215.21,38.884-313.4,72.145-106.494,36.074-220.434,66.129-341.328,81.914-111.483,14.558-229.365,16.559-339.951.43v-59.719C183.306,1317.451,375.627,1290.138,542.388,1240.131Z" transform="translate(3.513 -1082.721)" fill="#9192a3"/>
            <path id="Path_37" data-name="Path 37" d="M336.438,1376.842c120.894-15.785,234.834-45.841,341.328-81.914,98.191-33.261,199.03-73.2,313.4-72.146,53.5.494,105.277,10.136,158.107,14.948,10.262.935,20.731,1.656,31.255,2.088v28.38c-56.5-4.04-111.959-13.421-168.918-14.4-62.416-1.076-127.28,8.888-173.224,32.861s-69.01,63.2-47.616,96.457c6.429,9.993,16.183,18.872,28,26.969H-3.513v-32.809C107.074,1393.4,224.956,1391.4,336.438,1376.842Z" transform="translate(3.513 -1089.986)" fill="#b4b5c1"/>
            <path id="Path_38" data-name="Path 38" d="M969.094,1291.8c45.945-23.973,110.808-33.938,173.224-32.861,56.959.983,112.414,10.364,168.918,14.4v141.883H949.476c-11.816-8.1-21.569-16.976-28-26.969C900.083,1355,923.149,1315.774,969.094,1291.8Z" transform="translate(-127.193 -1095.132)" fill="#d9d9e0"/>
          </g>
          <g id="Group_205" data-name="Group 205" transform="translate(0 132.782)" opacity="0.52" style="mix-blend-mode: color-burn;isolation: isolate">
            <path id="Path_39" data-name="Path 39" d="M1367.454,1440.082l7.9-4.48v-2.381l-12.1,6.861Z" transform="translate(-191.314 -1252.768)" fill="url(#linear-gradient-2)"/>
            <path id="Path_40" data-name="Path 40" d="M1352.757,1438.894l20.5-11.623v-2.381l-24.7,14Z" transform="translate(-189.219 -1251.58)" fill="url(#linear-gradient-2)"/>
            <path id="Path_41" data-name="Path 41" d="M1338.059,1437.707l33.107-18.767v-2.381l-37.307,21.148Z" transform="translate(-187.124 -1250.393)" fill="url(#linear-gradient-2)"/>
            <path id="Path_42" data-name="Path 42" d="M1323.363,1436.519l45.708-25.911v-2.381l-49.91,28.292Z" transform="translate(-185.029 -1249.205)" fill="url(#linear-gradient-2)"/>
            <path id="Path_43" data-name="Path 43" d="M1308.665,1435.782l57.736-32.729c-1.858.27-3.722.524-5.584.785l-56.353,31.945Z" transform="translate(-182.934 -1248.467)" fill="url(#linear-gradient-2)"/>
            <path id="Path_44" data-name="Path 44" d="M1293.968,1436.156l53.754-30.471c-1.8.23-3.6.462-5.407.683l-52.548,29.788Z" transform="translate(-180.839 -1248.843)" fill="url(#linear-gradient-2)"/>
            <path id="Path_45" data-name="Path 45" d="M1279.271,1436.477l50.349-28.541q-2.6.292-5.2.568l-49.347,27.973Z" transform="translate(-178.744 -1249.163)" fill="url(#linear-gradient-2)"/>
            <path id="Path_46" data-name="Path 46" d="M1264.574,1436.747l47.493-26.923c-1.687.165-3.374.332-5.063.489l-46.631,26.434Z" transform="translate(-176.649 -1249.433)" fill="url(#linear-gradient-2)"/>
            <path id="Path_47" data-name="Path 47" d="M1249.876,1436.974l45.076-25.552c-1.628.137-3.258.26-4.888.389l-44.388,25.163Z" transform="translate(-174.554 -1249.661)" fill="url(#linear-gradient-2)"/>
            <path id="Path_48" data-name="Path 48" d="M1235.18,1437.16l43.11-24.437c-1.6.113-3.194.23-4.793.336l-42.517,24.1Z" transform="translate(-172.459 -1249.846)" fill="url(#linear-gradient-2)"/>
            <path id="Path_49" data-name="Path 49" d="M1220.483,1437.313l41.488-23.52q-2.33.137-4.662.262l-41.028,23.258Z" transform="translate(-170.364 -1249.998)" fill="url(#linear-gradient-2)"/>
            <path id="Path_50" data-name="Path 50" d="M1205.785,1437.433l40.205-22.791c-1.512.07-3.028.129-4.541.193l-39.865,22.6Z" transform="translate(-168.269 -1250.12)" fill="url(#linear-gradient-2)"/>
            <path id="Path_51" data-name="Path 51" d="M1191.088,1437.524l39.251-22.251q-2.233.079-4.465.151l-38.987,22.1Z" transform="translate(-166.174 -1250.209)" fill="url(#linear-gradient-2)"/>
            <path id="Path_52" data-name="Path 52" d="M1176.391,1437.588l38.566-21.862c-1.464.035-2.926.078-4.391.108l-38.375,21.753Z" transform="translate(-164.079 -1250.274)" fill="url(#linear-gradient-2)"/>
            <path id="Path_53" data-name="Path 53" d="M1161.694,1437.629l38.132-21.616q-2.143.028-4.287.049l-38.046,21.568Z" transform="translate(-161.984 -1250.315)" fill="url(#linear-gradient-2)"/>
            <path id="Path_54" data-name="Path 54" d="M1142.8,1437.646h4.2l37.936-21.505c-1.4,0-2.794,0-4.192,0Z" transform="translate(-159.889 -1250.333)" fill="url(#linear-gradient-2)"/>
            <path id="Path_55" data-name="Path 55" d="M1166.157,1416.061l-38.059,21.575h4.2l37.99-21.535C1168.912,1416.091,1167.534,1416.075,1166.157,1416.061Z" transform="translate(-157.794 -1250.322)" fill="url(#linear-gradient-2)"/>
            <path id="Path_56" data-name="Path 56" d="M1151.777,1415.852l-38.375,21.754h4.2l38.247-21.682Q1153.813,1415.891,1151.777,1415.852Z" transform="translate(-155.699 -1250.292)" fill="url(#linear-gradient-2)"/>
            <path id="Path_57" data-name="Path 57" d="M1137.588,1415.516l-38.884,22.042h4.2l38.7-21.938C1140.266,1415.586,1138.926,1415.554,1137.588,1415.516Z" transform="translate(-153.604 -1250.244)" fill="url(#linear-gradient-2)"/>
            <path id="Path_58" data-name="Path 58" d="M1123.581,1415.059l-39.574,22.434h4.2l39.335-22.3C1126.223,1415.148,1124.9,1415.109,1123.581,1415.059Z" transform="translate(-151.509 -1250.179)" fill="url(#linear-gradient-2)"/>
            <path id="Path_59" data-name="Path 59" d="M1109.753,1414.485l-40.442,22.926h4.2l40.147-22.759C1112.356,1414.6,1111.054,1414.545,1109.753,1414.485Z" transform="translate(-149.414 -1250.097)" fill="url(#linear-gradient-2)"/>
            <path id="Path_60" data-name="Path 60" d="M1096.1,1413.8l-41.483,23.515h4.2L1099.938,1414C1098.657,1413.934,1097.375,1413.869,1096.1,1413.8Z" transform="translate(-147.319 -1249.999)" fill="url(#linear-gradient-2)"/>
            <path id="Path_61" data-name="Path 61" d="M1082.592,1413.009l-42.677,24.192h4.2l42.262-23.957Q1084.484,1413.13,1082.592,1413.009Z" transform="translate(-145.224 -1249.887)" fill="url(#linear-gradient-2)"/>
            <path id="Path_62" data-name="Path 62" d="M1069.237,1412.121l-44.018,24.953h4.2l43.549-24.687Q1071.1,1412.258,1069.237,1412.121Z" transform="translate(-143.129 -1249.76)" fill="url(#linear-gradient-2)"/>
            <path id="Path_63" data-name="Path 63" d="M1056.023,1411.14l-45.5,25.793h4.2l44.983-25.5C1058.476,1411.34,1057.251,1411.238,1056.023,1411.14Z" transform="translate(-141.034 -1249.62)" fill="url(#linear-gradient-2)"/>
            <path id="Path_64" data-name="Path 64" d="M1042.945,1410.069l-47.122,26.712h4.2l46.555-26.39C1045.367,1410.288,1044.157,1410.175,1042.945,1410.069Z" transform="translate(-138.939 -1249.467)" fill="url(#linear-gradient-2)"/>
            <path id="Path_65" data-name="Path 65" d="M1030,1408.911l-48.873,27.706h4.2l48.262-27.358C1032.39,1409.147,1031.2,1409.026,1030,1408.911Z" transform="translate(-136.843 -1249.303)" fill="url(#linear-gradient-2)"/>
            <path id="Path_66" data-name="Path 66" d="M1017.18,1407.67l-50.751,28.77h4.2l50.1-28.4C1019.544,1407.922,1018.363,1407.793,1017.18,1407.67Z" transform="translate(-134.749 -1249.125)" fill="url(#linear-gradient-2)"/>
            <path id="Path_67" data-name="Path 67" d="M1004.482,1406.349l-52.75,29.9h4.2l52.058-29.51C1006.819,1406.614,1005.652,1406.478,1004.482,1406.349Z" transform="translate(-132.654 -1248.937)" fill="url(#linear-gradient-2)"/>
            <path id="Path_68" data-name="Path 68" d="M991.9,1404.949l-54.866,31.1h4.2l54.136-30.688C994.213,1405.23,993.059,1405.087,991.9,1404.949Z" transform="translate(-130.559 -1248.738)" fill="url(#linear-gradient-2)"/>
            <path id="Path_69" data-name="Path 69" d="M979.434,1403.475l-57.1,32.366h4.2l56.329-31.931C981.721,1403.77,980.579,1403.619,979.434,1403.475Z" transform="translate(-128.463 -1248.528)" fill="url(#linear-gradient-2)"/>
            <path id="Path_70" data-name="Path 70" d="M970.46,1402.382c-1.129-.147-2.253-.3-3.381-.455l-59.439,33.694h4.2l58.632-33.237Z" transform="translate(-126.368 -1248.307)" fill="url(#linear-gradient-2)"/>
            <path id="Path_71" data-name="Path 71" d="M954.822,1400.313l-61.879,35.078h4.2l61.049-34.607Q956.507,1400.552,954.822,1400.313Z" transform="translate(-124.274 -1248.077)" fill="url(#linear-gradient-2)"/>
            <path id="Path_72" data-name="Path 72" d="M942.664,1398.635l-64.418,36.517h4.2l63.565-36.032Q944.337,1398.877,942.664,1398.635Z" transform="translate(-122.178 -1247.838)" fill="url(#linear-gradient-2)"/>
            <path id="Path_73" data-name="Path 73" d="M930.6,1396.892,863.549,1434.9h4.2l66.176-37.513C932.819,1397.222,931.709,1397.062,930.6,1396.892Z" transform="translate(-120.083 -1247.589)" fill="url(#linear-gradient-2)"/>
            <path id="Path_74" data-name="Path 74" d="M918.645,1395.082l-69.792,39.563h4.2l68.879-39.045C920.836,1395.427,919.739,1395.257,918.645,1395.082Z" transform="translate(-117.988 -1247.331)" fill="url(#linear-gradient-2)"/>
            <path id="Path_75" data-name="Path 75" d="M906.774,1393.213l-72.62,41.166h4.2l71.672-40.629Q908.4,1393.482,906.774,1393.213Z" transform="translate(-115.893 -1247.065)" fill="url(#linear-gradient-2)"/>
            <path id="Path_76" data-name="Path 76" d="M894.988,1391.288,819.457,1434.1h4.2l74.551-42.26Q896.6,1391.569,894.988,1391.288Z" transform="translate(-113.798 -1246.791)" fill="url(#linear-gradient-2)"/>
            <path id="Path_77" data-name="Path 77" d="M883.284,1389.309l-78.524,44.513h4.2l77.511-43.938C885.408,1389.694,884.346,1389.5,883.284,1389.309Z" transform="translate(-111.703 -1246.509)" fill="url(#linear-gradient-2)"/>
            <path id="Path_78" data-name="Path 78" d="M871.659,1387.278l-81.6,46.254h4.2l80.552-45.663C873.763,1387.676,872.712,1387.474,871.659,1387.278Z" transform="translate(-109.608 -1246.219)" fill="url(#linear-gradient-2)"/>
            <path id="Path_79" data-name="Path 79" d="M860.112,1385.2l-84.746,48.04h4.2l83.681-47.437Q861.679,1385.5,860.112,1385.2Z" transform="translate(-107.513 -1245.922)" fill="url(#linear-gradient-2)"/>
            <path id="Path_80" data-name="Path 80" d="M848.638,1383.065l-87.969,49.867h4.2l86.892-49.256C850.72,1383.472,849.677,1383.271,848.638,1383.065Z" transform="translate(-105.418 -1245.618)" fill="url(#linear-gradient-2)"/>
            <path id="Path_81" data-name="Path 81" d="M837.246,1380.879l-91.275,51.741h4.2l90.173-51.116C839.313,1381.3,838.278,1381.09,837.246,1380.879Z" transform="translate(-103.323 -1245.307)" fill="url(#linear-gradient-2)"/>
            <path id="Path_82" data-name="Path 82" d="M825.929,1378.644,731.274,1432.3h4.2L829,1379.286Q827.465,1378.965,825.929,1378.644Z" transform="translate(-101.228 -1244.988)" fill="url(#linear-gradient-2)"/>
            <path id="Path_83" data-name="Path 83" d="M814.68,1376.365l-98.1,55.612h4.2l96.945-54.956Q816.2,1376.7,814.68,1376.365Z" transform="translate(-99.133 -1244.663)" fill="url(#linear-gradient-2)"/>
            <path id="Path_84" data-name="Path 84" d="M803.5,1374.043l-101.616,57.6h4.2l100.432-56.931C805.505,1374.493,804.5,1374.266,803.5,1374.043Z" transform="translate(-97.038 -1244.332)" fill="url(#linear-gradient-2)"/>
            <path id="Path_85" data-name="Path 85" d="M792.376,1371.678l-105.193,59.631h4.2l103.984-58.946C794.368,1372.138,793.374,1371.905,792.376,1371.678Z" transform="translate(-94.943 -1243.995)" fill="url(#linear-gradient-2)"/>
            <path id="Path_86" data-name="Path 86" d="M781.316,1369.273l-108.831,61.693h4.2l107.611-61C783.3,1369.734,782.309,1369.506,781.316,1369.273Z" transform="translate(-92.848 -1243.653)" fill="url(#linear-gradient-2)"/>
            <path id="Path_87" data-name="Path 87" d="M770.323,1366.824l-112.535,63.793h4.2l111.3-63.093C772.3,1367.29,771.31,1367.06,770.323,1366.824Z" transform="translate(-90.753 -1243.303)" fill="url(#linear-gradient-2)"/>
            <path id="Path_88" data-name="Path 88" d="M759.4,1364.331l-116.3,65.931h4.2l115.046-65.217Q760.867,1364.69,759.4,1364.331Z" transform="translate(-88.658 -1242.948)" fill="url(#linear-gradient-2)"/>
            <path id="Path_89" data-name="Path 89" d="M748.526,1361.8l-120.132,68.1h4.2l118.849-67.372Z" transform="translate(-86.563 -1242.587)" fill="url(#linear-gradient-2)"/>
            <path id="Path_90" data-name="Path 90" d="M737.71,1359.236l-124.014,70.3h4.2l122.707-69.56C739.638,1359.732,738.675,1359.482,737.71,1359.236Z" transform="translate(-84.468 -1242.221)" fill="url(#linear-gradient-2)"/>
            <path id="Path_91" data-name="Path 91" d="M726.946,1356.635,599,1429.165h4.2l126.625-71.779C728.864,1357.137,727.906,1356.885,726.946,1356.635Z" transform="translate(-82.373 -1241.851)" fill="url(#linear-gradient-2)"/>
            <path id="Path_92" data-name="Path 92" d="M716.235,1354,584.3,1428.789h4.2l130.6-74.034C718.149,1354.5,717.19,1354.254,716.235,1354Z" transform="translate(-80.278 -1241.475)" fill="url(#linear-gradient-2)"/>
            <path id="Path_93" data-name="Path 93" d="M705.586,1351.324l-135.981,77.084h4.2l134.631-76.319C707.487,1351.833,706.534,1351.58,705.586,1351.324Z" transform="translate(-78.183 -1241.094)" fill="url(#linear-gradient-2)"/>
            <path id="Path_94" data-name="Path 94" d="M694.987,1348.614l-140.079,79.407h4.2l138.709-78.63Z" transform="translate(-76.088 -1240.708)" fill="url(#linear-gradient-2)"/>
            <path id="Path_95" data-name="Path 95" d="M684.436,1345.874,540.21,1427.631h4.2l142.834-80.969Q685.84,1346.27,684.436,1345.874Z" transform="translate(-73.993 -1240.317)" fill="url(#linear-gradient-2)"/>
            <path id="Path_96" data-name="Path 96" d="M673.931,1343.1l-148.417,84.134h4.2L676.721,1343.9C675.789,1343.637,674.862,1343.368,673.931,1343.1Z" transform="translate(-71.898 -1239.922)" fill="url(#linear-gradient-2)"/>
            <path id="Path_97" data-name="Path 97" d="M663.469,1340.3l-152.653,86.534h4.2L666.254,1341.1Q664.863,1340.7,663.469,1340.3Z" transform="translate(-69.803 -1239.523)" fill="url(#linear-gradient-2)"/>
            <path id="Path_98" data-name="Path 98" d="M653.061,1337.466l-156.942,88.965h4.2l155.513-88.155Q654.448,1337.871,653.061,1337.466Z" transform="translate(-67.708 -1239.118)" fill="url(#linear-gradient-2)"/>
            <path id="Path_99" data-name="Path 99" d="M642.7,1334.6l-161.279,91.425h4.2l159.83-90.6Z" transform="translate(-65.613 -1238.71)" fill="url(#linear-gradient-2)"/>
            <path id="Path_100" data-name="Path 100" d="M632.38,1331.706l-165.655,93.906h4.2l164.189-93.075Q633.746,1332.125,632.38,1331.706Z" transform="translate(-63.518 -1238.297)" fill="url(#linear-gradient-2)"/>
            <path id="Path_101" data-name="Path 101" d="M622.1,1328.786l-170.073,96.408h4.2l168.589-95.567C623.909,1329.348,623.006,1329.065,622.1,1328.786Z" transform="translate(-61.422 -1237.881)" fill="url(#linear-gradient-2)"/>
            <path id="Path_102" data-name="Path 102" d="M611.859,1325.84,437.33,1424.775h4.2l173.04-98.091Q613.215,1326.261,611.859,1325.84Z" transform="translate(-59.327 -1237.461)" fill="url(#linear-gradient-2)"/>
            <path id="Path_103" data-name="Path 103" d="M601.664,1322.863,422.633,1424.351h4.2l177.531-100.636C603.465,1323.43,602.563,1323.148,601.664,1322.863Z" transform="translate(-57.232 -1237.037)" fill="url(#linear-gradient-2)"/>
            <path id="Path_104" data-name="Path 104" d="M595.176,1319.859,439.795,1407.94c-1.915,2-3.977,3.954-6.148,5.867l164.213-93.088Z" transform="translate(-58.802 -1236.609)" fill="url(#linear-gradient-2)"/>
            <path id="Path_105" data-name="Path 105" d="M589.394,1316.831l-137.573,77.986c-.338.569-.657,1.141-1.02,1.706-.45.7-.954,1.38-1.435,2.068l142.7-80.89Q590.726,1317.268,589.394,1316.831Z" transform="translate(-61.043 -1236.177)" fill="url(#linear-gradient-2)"/>
            <path id="Path_106" data-name="Path 106" d="M582.374,1313.781l-125.079,70.9q-.517,1.52-1.143,3.03l128.875-73.055C584.141,1314.367,583.259,1314.073,582.374,1313.781Z" transform="translate(-62.011 -1235.742)" fill="url(#linear-gradient-2)"/>
            <path id="Path_107" data-name="Path 107" d="M574.867,1310.707l-115.1,65.25c-.129.886-.3,1.77-.48,2.653l118.234-67.023C576.633,1311.293,575.748,1311,574.867,1310.707Z" transform="translate(-62.457 -1235.304)" fill="url(#linear-gradient-2)"/>
            <path id="Path_108" data-name="Path 108" d="M567.11,1307.606l-106.722,60.5c.012.8.006,1.6-.023,2.394l109.382-62.006Q568.43,1308.05,567.11,1307.606Z" transform="translate(-62.611 -1234.862)" fill="url(#linear-gradient-2)"/>
            <path id="Path_109" data-name="Path 109" d="M559.133,1304.487l-99.423,56.36c.115.735.225,1.47.307,2.207l101.739-57.673Z" transform="translate(-62.518 -1234.417)" fill="url(#linear-gradient-2)"/>
            <path id="Path_110" data-name="Path 110" d="M551.04,1301.351l-92.968,52.7c.2.688.389,1.375.557,2.064l95.028-53.868Z" transform="translate(-62.284 -1233.971)" fill="url(#linear-gradient-2)"/>
            <path id="Path_111" data-name="Path 111" d="M542.852,1298.205l-87.19,49.426q.4.975.755,1.952l89.048-50.478Z" transform="translate(-61.941 -1233.522)" fill="url(#linear-gradient-2)"/>
            <path id="Path_112" data-name="Path 112" d="M534.582,1295.053l-81.977,46.47c.324.618.617,1.24.919,1.86l83.669-47.429Z" transform="translate(-61.505 -1233.072)" fill="url(#linear-gradient-2)"/>
            <path id="Path_113" data-name="Path 113" d="M526.229,1291.9l-77.28,43.807q.562.879,1.094,1.761l78.8-44.667Q527.534,1292.351,526.229,1291.9Z" transform="translate(-60.984 -1232.623)" fill="url(#linear-gradient-2)"/>
            <path id="Path_114" data-name="Path 114" d="M517.8,1288.748l-73.013,41.389c.42.557.842,1.114,1.244,1.675l74.381-42.165Z" transform="translate(-60.391 -1232.174)" fill="url(#linear-gradient-2)"/>
            <path id="Path_115" data-name="Path 115" d="M509.3,1285.6l-69.117,39.181c.465.535.9,1.077,1.348,1.617l70.386-39.9Z" transform="translate(-59.734 -1231.725)" fill="url(#linear-gradient-2)"/>
            <path id="Path_116" data-name="Path 116" d="M500.715,1282.469,435.1,1319.662c.5.509,1.011,1.018,1.5,1.532l66.736-37.831Z" transform="translate(-59.01 -1231.279)" fill="url(#linear-gradient-2)"/>
            <path id="Path_117" data-name="Path 117" d="M492.053,1279.348l-62.416,35.382c.542.489,1.07.982,1.6,1.476l63.448-35.966Z" transform="translate(-58.231 -1230.834)" fill="url(#linear-gradient-2)"/>
            <path id="Path_118" data-name="Path 118" d="M483.3,1276.247,423.761,1310c.578.466,1.153.934,1.718,1.407l60.467-34.277Z" transform="translate(-57.393 -1230.392)" fill="url(#linear-gradient-2)"/>
            <path id="Path_119" data-name="Path 119" d="M474.466,1273.169,417.5,1305.46q.922.668,1.826,1.346l57.791-32.76Q475.793,1273.606,474.466,1273.169Z" transform="translate(-56.501 -1229.953)" fill="url(#linear-gradient-2)"/>
            <path id="Path_120" data-name="Path 120" d="M465.534,1270.116l-54.671,30.992q.977.637,1.933,1.285l55.4-31.407Z" transform="translate(-55.555 -1229.518)" fill="url(#linear-gradient-2)"/>
            <path id="Path_121" data-name="Path 121" d="M456.5,1267.1l-52.66,29.851c.687.4,1.371.81,2.047,1.221l53.3-30.214Q457.842,1267.525,456.5,1267.1Z" transform="translate(-54.553 -1229.088)" fill="url(#linear-gradient-2)"/>
            <path id="Path_122" data-name="Path 122" d="M447.354,1264.113l-50.921,28.865c.725.383,1.439.773,2.151,1.163l51.473-29.178Q448.706,1264.536,447.354,1264.113Z" transform="translate(-53.498 -1228.662)" fill="url(#linear-gradient-2)"/>
            <path id="Path_123" data-name="Path 123" d="M438.1,1261.169,388.646,1289.2c.758.363,1.515.728,2.263,1.1l49.908-28.291C439.91,1261.728,439,1261.447,438.1,1261.169Z" transform="translate(-52.388 -1228.243)" fill="url(#linear-gradient-2)"/>
            <path id="Path_124" data-name="Path 124" d="M428.716,1258.273l-48.19,27.318c.789.345,1.568.7,2.349,1.049l48.59-27.543Q430.091,1258.683,428.716,1258.273Z" transform="translate(-51.23 -1227.829)" fill="url(#linear-gradient-2)"/>
            <path id="Path_125" data-name="Path 125" d="M419.209,1255.428l-47.166,26.736c.823.327,1.65.651,2.464.985l47.478-26.914Q420.6,1255.828,419.209,1255.428Z" transform="translate(-50.021 -1227.424)" fill="url(#linear-gradient-2)"/>
            <path id="Path_126" data-name="Path 126" d="M409.572,1252.637,363.244,1278.9c.854.308,1.693.628,2.538.943l46.594-26.413Q410.975,1253.032,409.572,1252.637Z" transform="translate(-48.767 -1227.026)" fill="url(#linear-gradient-2)"/>
            <path id="Path_127" data-name="Path 127" d="M399.79,1249.909l-45.719,25.917c.888.29,1.781.575,2.661.872l45.892-26.015Q401.206,1250.3,399.79,1249.909Z" transform="translate(-47.459 -1226.637)" fill="url(#linear-gradient-2)"/>
            <path id="Path_128" data-name="Path 128" d="M389.851,1247.253l-45.278,25.667c.92.27,1.833.548,2.744.825L392.725,1248Q391.29,1247.627,389.851,1247.253Z" transform="translate(-46.105 -1226.259)" fill="url(#linear-gradient-2)"/>
            <path id="Path_129" data-name="Path 129" d="M379.749,1244.672,334.721,1270.2q1.429.378,2.848.767l45.1-25.563Q381.209,1245.033,379.749,1244.672Z" transform="translate(-44.701 -1225.891)" fill="url(#linear-gradient-2)"/>
            <path id="Path_130" data-name="Path 130" d="M369.472,1242.173l-44.959,25.485c.988.233,1.976.465,2.958.705l44.956-25.485Q370.951,1242.524,369.472,1242.173Z" transform="translate(-43.246 -1225.535)" fill="url(#linear-gradient-2)"/>
            <path id="Path_131" data-name="Path 131" d="M359.009,1239.764,313.963,1265.3c1.02.213,2.031.436,3.044.656l45-25.51Q360.51,1240.1,359.009,1239.764Z" transform="translate(-41.742 -1225.191)" fill="url(#linear-gradient-2)"/>
            <path id="Path_132" data-name="Path 132" d="M348.34,1237.456l-45.307,25.683q1.583.29,3.157.592l45.2-25.623C350.375,1237.89,349.358,1237.67,348.34,1237.456Z" transform="translate(-40.184 -1224.862)" fill="url(#linear-gradient-2)"/>
            <path id="Path_133" data-name="Path 133" d="M337.446,1235.262l-45.72,25.917c1.094.173,2.189.343,3.277.524l45.555-25.824Q339,1235.566,337.446,1235.262Z" transform="translate(-38.572 -1224.549)" fill="url(#linear-gradient-2)"/>
            <path id="Path_134" data-name="Path 134" d="M326.315,1233.188,280.04,1259.42q1.692.228,3.378.466l46.076-26.119Q327.908,1233.473,326.315,1233.188Z" transform="translate(-36.906 -1224.254)" fill="url(#linear-gradient-2)"/>
            <path id="Path_135" data-name="Path 135" d="M314.925,1231.247l-46.971,26.627c1.165.128,2.325.268,3.487.4l46.736-26.494C317.095,1231.6,316.01,1231.424,314.925,1231.247Z" transform="translate(-35.184 -1223.977)" fill="url(#linear-gradient-2)"/>
            <path id="Path_136" data-name="Path 136" d="M303.251,1229.454l-47.813,27.1c1.206.1,2.408.221,3.611.334l47.531-26.944C305.472,1229.779,304.362,1229.617,303.251,1229.454Z" transform="translate(-33.399 -1223.722)" fill="url(#linear-gradient-2)"/>
            <path id="Path_137" data-name="Path 137" d="M291.265,1227.824l-48.8,27.663q1.877.119,3.749.255l48.464-27.472C293.543,1228.117,292.4,1227.971,291.265,1227.824Z" transform="translate(-31.55 -1223.489)" fill="url(#linear-gradient-2)"/>
            <path id="Path_138" data-name="Path 138" d="M278.935,1226.376l-49.918,28.3q1.947.081,3.893.175l49.535-28.08C281.277,1226.633,280.107,1226.5,278.935,1226.376Z" transform="translate(-29.633 -1223.283)" fill="url(#linear-gradient-2)"/>
            <path id="Path_139" data-name="Path 139" d="M266.225,1225.132l-51.175,29.01q2.022.037,4.044.089l50.748-28.767C268.638,1225.346,267.432,1225.24,266.225,1225.132Z" transform="translate(-27.642 -1223.106)" fill="url(#linear-gradient-2)"/>
            <path id="Path_140" data-name="Path 140" d="M253.09,1224.115l-52.575,29.8c1.4-.008,2.8,0,4.2,0l52.1-29.537Q254.959,1224.239,253.09,1224.115Z" transform="translate(-25.57 -1222.96)" fill="url(#linear-gradient-2)"/>
            <path id="Path_141" data-name="Path 141" d="M239.469,1223.354,185.3,1254.062q2.2-.064,4.4-.115l53.626-30.4C242.044,1223.479,240.758,1223.412,239.469,1223.354Z" transform="translate(-23.401 -1222.852)" fill="url(#linear-gradient-2)"/>
            <path id="Path_142" data-name="Path 142" d="M225.313,1222.9l-55.78,31.619c1.513-.074,3.029-.129,4.544-.195L229.33,1223Q227.324,1222.941,225.313,1222.9Z" transform="translate(-21.154 -1222.787)" fill="url(#linear-gradient-2)"/>
            <path id="Path_143" data-name="Path 143" d="M210.552,1222.774l-57.44,32.561q2.373-.161,4.747-.309l56.9-32.253Q212.657,1222.763,210.552,1222.774Z" transform="translate(-18.813 -1222.769)" fill="url(#linear-gradient-2)"/>
            <path id="Path_144" data-name="Path 144" d="M195.126,1223.027l-58.985,33.436c1.637-.136,3.273-.273,4.911-.4l58.448-33.132C198.042,1222.961,196.581,1222.982,195.126,1223.027Z" transform="translate(-16.394 -1222.791)" fill="url(#linear-gradient-2)"/>
            <path id="Path_145" data-name="Path 145" d="M178.959,1223.713,118.7,1257.871c1.67-.16,3.342-.308,5.014-.462l59.9-33.954C182.061,1223.53,180.511,1223.627,178.959,1223.713Z" transform="translate(-13.909 -1222.866)" fill="url(#linear-gradient-2)"/>
            <path id="Path_146" data-name="Path 146" d="M162.146,1224.8l-61.3,34.752c1.715-.178,3.43-.361,5.145-.535l60.974-34.565C165.355,1224.565,163.749,1224.675,162.146,1224.8Z" transform="translate(-11.362 -1223.009)" fill="url(#linear-gradient-2)"/>
            <path id="Path_147" data-name="Path 147" d="M144.661,1226.3,82.754,1261.4q2.59-.282,5.182-.558l61.765-35.012C148.02,1225.978,146.341,1226.14,144.661,1226.3Z" transform="translate(-8.784 -1223.204)" fill="url(#linear-gradient-2)"/>
            <path id="Path_148" data-name="Path 148" d="M126.666,1228.14l-62.1,35.2,5.2-.563,62.08-35.192C130.116,1227.771,128.39,1227.95,126.666,1228.14Z" transform="translate(-6.192 -1223.456)" fill="url(#linear-gradient-2)"/>
            <path id="Path_149" data-name="Path 149" d="M108.249,1230.263l-61.8,35.032q2.585-.271,5.168-.549l61.951-35.118C111.8,1229.836,110.023,1230.051,108.249,1230.263Z" transform="translate(-3.609 -1223.747)" fill="url(#linear-gradient-2)"/>
            <path id="Path_150" data-name="Path 150" d="M89.654,1232.54,28.6,1267.15c1.688-.163,3.377-.322,5.064-.49l61.354-34.78Q92.335,1232.21,89.654,1232.54Z" transform="translate(-1.064 -1224.067)" fill="url(#linear-gradient-2)"/>
            <path id="Path_151" data-name="Path 151" d="M71.067,1234.847,11.1,1268.84q2.484-.209,4.966-.433l60.36-34.216Z" transform="translate(1.43 -1224.397)" fill="url(#linear-gradient-2)"/>
            <path id="Path_152" data-name="Path 152" d="M53.07,1237.045l-56.583,32.076v1.028c.923-.067,1.842-.146,2.764-.214l59.085-33.493Q55.7,1236.75,53.07,1237.045Z" transform="translate(3.513 -1224.718)" fill="url(#linear-gradient-2)"/>
            <path id="Path_153" data-name="Path 153" d="M37.477,1239.032l-40.99,23.235v2.381l46.155-26.164C40.92,1238.669,39.2,1238.857,37.477,1239.032Z" transform="translate(3.513 -1225.009)" fill="url(#linear-gradient-2)"/>
            <path id="Path_154" data-name="Path 154" d="M22.414,1240.679l-25.927,14.7v2.381l30.872-17.5C25.718,1240.406,24.065,1240.542,22.414,1240.679Z" transform="translate(3.513 -1225.261)" fill="url(#linear-gradient-2)"/>
            <path id="Path_155" data-name="Path 155" d="M7.985,1241.908l-11.5,6.518v2.382l16.217-9.193C11.135,1241.722,9.56,1241.813,7.985,1241.908Z" transform="translate(3.513 -1225.455)" fill="url(#linear-gradient-2)"/>
            <path id="Path_156" data-name="Path 156" d="M-3.513,1242.636v1.158l2.231-1.265C-2.026,1242.563-2.768,1242.605-3.513,1242.636Z" transform="translate(3.513 -1225.586)" fill="url(#linear-gradient-119)"/>
          </g>
        </g>
        <g id="Group_252" data-name="Group 252" transform="translate(280.735 82.573)">
          <g id="Group_212" data-name="Group 212">
            <path id="Path_157" data-name="Path 157" d="M1209,1134.2l-28.914-8.869,7.286-26.4,29.958,5.1Zm-28.615-9.033,28.447,8.726,8.19-29.673-29.472-5.014Z" transform="translate(-1133.689 -1091.4)" fill="#114148"/>
            <path id="Path_158" data-name="Path 158" d="M1146.009,1175.031l-.058-.108-9.966-18.588,11.643-6.242,1.945,3.626,8.079,15.07-.108.058Zm-9.692-18.6,9.792,18.265,11.211-6.01-7.963-14.854h0l-1.829-3.41-1.453.779Z" transform="translate(-1134.877 -1113.687)" fill="#114148"/>
            <circle id="Ellipse_15" data-name="Ellipse 15" cx="8.094" cy="8.094" r="8.094" transform="translate(72.889 22.598)" fill="#156db6" opacity="0.2" style="mix-blend-mode: multiply;isolation: isolate"/>
            <circle id="Ellipse_16" data-name="Ellipse 16" cx="8.094" cy="8.094" r="8.094" transform="translate(72.088 22.598)" fill="#fbb151"/>
            <path id="Path_159" data-name="Path 159" d="M1229.548,1138.142s8.6-26.344,8.356-26.344-2.874-.489-2.874-.489Z" transform="translate(-1156.187 -1097.03)" fill="#156db6" opacity="0.2" style="mix-blend-mode: multiply;isolation: isolate"/>
            <path id="Path_160" data-name="Path 160" d="M1200.449,1171.25,1210.663,1155l-10.214-2.86Z" transform="translate(-1142.952 -1115.604)" fill="#156db6" opacity="0.2" style="mix-blend-mode: multiply;isolation: isolate"/>
            <path id="Path_161" data-name="Path 161" d="M1205.9,1167.243a3.941,3.941,0,0,0-1.868.459l-1.7-1.36a2.449,2.449,0,0,0,.457-1.41,3.481,3.481,0,1,0-3.418,2.825,3.8,3.8,0,0,0,2.387-.8l1.57,1.256a2.552,2.552,0,0,0-.846,1.858,3.481,3.481,0,1,0,3.418-2.825Z" transform="translate(-1140.904 -1120.136)" fill="#156db6" opacity="0.2" style="mix-blend-mode: multiply;isolation: isolate"/>
            <g id="Group_208" data-name="Group 208" transform="translate(0 39.126)">
              <path id="Path_162" data-name="Path 162" d="M1152.653,1167.955l-11.427,6.127-9.908-18.481,9.866-5.289,1.561-.837,1.887,3.518Z" transform="translate(-1131.318 -1149.475)" fill="url(#linear-gradient-120)"/>
              <circle id="Ellipse_17" data-name="Ellipse 17" cx="1.162" cy="1.162" r="1.162" transform="translate(4.07 9.472)" fill="#a2c2e6"/>
              <path id="Path_167" data-name="Path 167" d="M1150.016,1161.479l-5.7,3.058a.484.484,0,0,1-.654-.2h0a.484.484,0,0,1,.2-.655l5.7-3.057a.484.484,0,0,1,.655.2h0A.484.484,0,0,1,1150.016,1161.479Z" transform="translate(-1136.904 -1154.521)" fill="#a2c2e6"/>
              <circle id="Ellipse_18" data-name="Ellipse 18" cx="1.162" cy="1.162" r="1.162" transform="translate(5.743 12.593)" fill="#a2c2e6"/>
              <path id="Path_168" data-name="Path 168" d="M1153.086,1167.2l-5.7,3.057a.483.483,0,0,1-.654-.2h0a.483.483,0,0,1,.2-.654l5.7-3.058a.484.484,0,0,1,.655.2h0A.484.484,0,0,1,1153.086,1167.2Z" transform="translate(-1138.301 -1157.125)" fill="#a2c2e6"/>
              <circle id="Ellipse_19" data-name="Ellipse 19" cx="1.162" cy="1.162" r="1.162" transform="translate(7.417 15.714)" fill="#a2c2e6"/>
              <path id="Path_169" data-name="Path 169" d="M1156.155,1172.929l-5.7,3.057a.484.484,0,0,1-.655-.2h0a.484.484,0,0,1,.2-.655l5.7-3.057a.484.484,0,0,1,.655.2h0A.484.484,0,0,1,1156.155,1172.929Z" transform="translate(-1139.697 -1159.729)" fill="#a2c2e6"/>
              <circle id="Ellipse_20" data-name="Ellipse 20" cx="1.162" cy="1.162" r="1.162" transform="translate(9.09 18.835)" fill="#a2c2e6"/>
              <path id="Path_170" data-name="Path 170" d="M1159.224,1178.654l-5.7,3.058a.483.483,0,0,1-.654-.2h0a.484.484,0,0,1,.2-.655l5.7-3.057a.484.484,0,0,1,.655.2h0A.483.483,0,0,1,1159.224,1178.654Z" transform="translate(-1141.093 -1162.333)" fill="#a2c2e6"/>
            </g>
            <path id="Path_171" data-name="Path 171" d="M1151.957,1152.993l-1.526,3.052-.75,1.5-2,3.991-.262.523.037-.4.284-3.073.106-1.155.285-3.083.062-.67.079-.856.039-.424.193-2.083,1.562-.837Z" transform="translate(-1118.834 -1114.39)" fill="#156db6" opacity="0.2" style="mix-blend-mode: multiply;isolation: isolate"/>
            <path id="Path_172" data-name="Path 172" d="M1235.4,1142.933a1.141,1.141,0,0,1-.771-.411l-2.186-2.661a1.141,1.141,0,1,1,1.764-1.449l1.462,1.779,4.55-3.739a1.142,1.142,0,0,1,1.449,1.764l-5.433,4.463A1.137,1.137,0,0,1,1235.4,1142.933Z" transform="translate(-1157.386 -1108.348)" fill="#fff"/>
            <g id="Group_211" data-name="Group 211" transform="translate(28.59 8.489)">
              <path id="Path_173" data-name="Path 173" d="M1214.255,1105.745l-7.546,27.338a2.424,2.424,0,1,1-4.673-1.29l1.366-4.951-24.234-6.687,5.371-19.464Z" transform="translate(-1161.862 -1100.69)" fill="url(#linear-gradient-121)"/>
              <path id="Path_174" data-name="Path 174" d="M1207.866,1113.673l-.169.611-21.312-5.881.609-2.207C1190.631,1107.485,1207.866,1113.673,1207.866,1113.673Z" transform="translate(-1165.144 -1103.194)" fill="#156db6" opacity="0.2" style="mix-blend-mode: multiply;isolation: isolate"/>
              <path id="Path_175" data-name="Path 175" d="M1223.936,1121.011a3.28,3.28,0,0,0-2.148.137l-3.164,11.465,3.408.941-2.05,7.428a2.7,2.7,0,0,0,.295,2.288,2.778,2.778,0,0,0,1.449-1.863l2.036-7.376,2.435-8.823.04-.143A3.3,3.3,0,0,0,1223.936,1121.011Z" transform="translate(-1179.808 -1109.879)" fill="#156db6" opacity="0.2" style="mix-blend-mode: multiply;isolation: isolate"/>
              <path id="Path_176" data-name="Path 176" d="M1200.749,1138.073,1175.1,1131a3.382,3.382,0,0,1-2.36-4.159l5.215-18.895,20.218,5.579-.877,3.177a3.278,3.278,0,0,1,1.315-1.842c.076-.053.155-.1.235-.148a3.3,3.3,0,0,1,4.8,3.742l-4.592,16.641A2.425,2.425,0,0,0,1200.749,1138.073Z" transform="translate(-1158.883 -1103.988)" fill="url(#linear-gradient-122)"/>
              <path id="Path_177" data-name="Path 177" d="M1213.009,1142.749l-4.73-1.305,5.257-19.051a2.265,2.265,0,1,1,3.414,2.228l-4.4,15.95A2.422,2.422,0,0,0,1213.009,1142.749Z" transform="translate(-1175.103 -1109.757)" fill="url(#linear-gradient-120)"/>
              <g id="Group_210" data-name="Group 210" transform="translate(0 2.306)">
                <path id="Path_178" data-name="Path 178" d="M1176.331,1149.77l9.506-34.448a3.3,3.3,0,0,1,4.053-2.3l-28.932-7.984a3.272,3.272,0,0,0-4.023,2.283l-9.512,34.472Z" transform="translate(-1147.423 -1104.92)" fill="url(#linear-gradient-124)"/>
                <g id="Group_209" data-name="Group 209" transform="translate(3.952 5.669)">
                  <circle id="Ellipse_21" data-name="Ellipse 21" cx="1.557" cy="1.557" r="1.557" transform="translate(7.125)" fill="#dce7f6"/>
                  <path id="Rectangle_33" data-name="Rectangle 33" d="M.779,0h0a.779.779,0,0,1,.779.779V19.3a.779.779,0,0,1-.779.779h0A.779.779,0,0,1,0,19.3V.779A.779.779,0,0,1,.779,0Z" transform="matrix(0.266, -0.964, 0.964, 0.266, 11.191, 3.057)" fill="#dce7f6"/>
                  <circle id="Ellipse_22" data-name="Ellipse 22" cx="1.557" cy="1.557" r="1.557" transform="translate(5.705 5.146)" fill="#dce7f6"/>
                  <path id="Rectangle_34" data-name="Rectangle 34" d="M.779,0h0a.779.779,0,0,1,.779.779V19.3a.779.779,0,0,1-.779.779h0A.779.779,0,0,1,0,19.3V.779A.779.779,0,0,1,.779,0Z" transform="matrix(0.266, -0.964, 0.964, 0.266, 9.771, 8.204)" fill="#dce7f6"/>
                  <circle id="Ellipse_23" data-name="Ellipse 23" cx="1.557" cy="1.557" r="1.557" transform="translate(4.284 10.293)" fill="#dce7f6"/>
                  <path id="Rectangle_35" data-name="Rectangle 35" d="M.779,0H19.3a.779.779,0,0,1,.779.779v0a.779.779,0,0,1-.779.779H.779A.779.779,0,0,1,0,.779v0A.779.779,0,0,1,.779,0Z" transform="translate(8.765 11.849) rotate(15.427)" fill="#dce7f6"/>
                  <circle id="Ellipse_24" data-name="Ellipse 24" cx="1.557" cy="1.557" r="1.557" transform="translate(2.864 15.439)" fill="#dce7f6"/>
                  <path id="Rectangle_36" data-name="Rectangle 36" d="M.779,0h0a.779.779,0,0,1,.779.779V19.3a.779.779,0,0,1-.779.779h0A.779.779,0,0,1,0,19.3V.779A.779.779,0,0,1,.779,0Z" transform="matrix(0.266, -0.964, 0.964, 0.266, 6.931, 18.496)" fill="#dce7f6"/>
                  <circle id="Ellipse_25" data-name="Ellipse 25" cx="1.557" cy="1.557" r="1.557" transform="translate(1.444 20.585)" fill="#dce7f6"/>
                  <path id="Rectangle_37" data-name="Rectangle 37" d="M.779,0h0a.779.779,0,0,1,.779.779V19.3a.779.779,0,0,1-.779.779h0A.779.779,0,0,1,0,19.3V.779A.779.779,0,0,1,.779,0Z" transform="matrix(0.266, -0.964, 0.964, 0.266, 5.511, 23.643)" fill="#dce7f6"/>
                  <circle id="Ellipse_26" data-name="Ellipse 26" cx="1.557" cy="1.557" r="1.557" transform="translate(0.024 25.731)" fill="#dce7f6"/>
                  <path id="Rectangle_38" data-name="Rectangle 38" d="M.779,0h0a.779.779,0,0,1,.779.779V19.3a.779.779,0,0,1-.779.779h0A.779.779,0,0,1,0,19.3V.779A.779.779,0,0,1,.779,0Z" transform="translate(4.091 28.789) rotate(-74.573)" fill="#dce7f6"/>
                  <path id="Path_179" data-name="Path 179" d="M1165.866,1127.58a.417.417,0,0,1-.252-.2l-.621-1.095a.417.417,0,0,1,.726-.411l.416.732,1.872-1.062a.417.417,0,1,1,.412.725l-2.234,1.268A.413.413,0,0,1,1165.866,1127.58Z" transform="translate(-1159.342 -1119.946)" fill="#fbb151"/>
                  <path id="Path_180" data-name="Path 180" d="M1160.81,1145.9a.419.419,0,0,1-.252-.2l-.621-1.094a.417.417,0,0,1,.725-.412l.416.732,1.871-1.062a.417.417,0,0,1,.412.725l-2.234,1.268A.418.418,0,0,1,1160.81,1145.9Z" transform="translate(-1157.042 -1128.279)" fill="#fbb151"/>
                  <path id="Path_181" data-name="Path 181" d="M1158.128,1155.621a.417.417,0,0,1-.252-.2l-.622-1.095a.417.417,0,1,1,.725-.411l.416.731,1.872-1.062a.417.417,0,0,1,.412.725l-2.235,1.268A.414.414,0,0,1,1158.128,1155.621Z" transform="translate(-1155.823 -1132.7)" fill="#fbb151"/>
                  <path id="Path_182" data-name="Path 182" d="M1155.6,1164.783a.416.416,0,0,1-.252-.2l-.621-1.094a.417.417,0,1,1,.725-.412l.416.732,1.872-1.062a.417.417,0,1,1,.411.725l-2.234,1.268A.418.418,0,0,1,1155.6,1164.783Z" transform="translate(-1154.673 -1136.867)" fill="#fbb151"/>
                </g>
              </g>
            </g>
            <circle id="Ellipse_27" data-name="Ellipse 27" cx="1.868" cy="1.868" r="1.868" transform="translate(56.033)" fill="#2d73ba"/>
            <circle id="Ellipse_28" data-name="Ellipse 28" cx="1.532" cy="1.532" r="1.532" transform="translate(20.48 25.224)" fill="#2d73ba"/>
            <circle id="Ellipse_29" data-name="Ellipse 29" cx="1.868" cy="1.868" r="1.868" transform="translate(75.674 50.069)" fill="#2d73ba"/>
          </g>
        </g>
      </g>
    </g>
  </g>
</svg>
