<svg xmlns="http://www.w3.org/2000/svg" xmlns:xlink="http://www.w3.org/1999/xlink" width="1366" height="465.679" viewBox="0 0 1366 465.679">
  <defs>
    <clipPath id="clip-path">
      <rect id="Rectangle_43" data-name="Rectangle 43" width="1366" height="465.679" transform="translate(0 69)" fill="none"/>
    </clipPath>
    <linearGradient id="linear-gradient" x1="-0.013" y1="0.804" x2="0.973" y2="0.22" gradientUnits="objectBoundingBox">
      <stop offset="0" stop-color="#00a6cd"/>
      <stop offset="1" stop-color="#111d36"/>
    </linearGradient>
    <linearGradient id="linear-gradient-2" y1="0.5" x2="1" y2="0.5" gradientUnits="objectBoundingBox">
      <stop offset="0" stop-color="#e5daec"/>
      <stop offset="0.29" stop-color="#d1c9d5"/>
      <stop offset="0.744" stop-color="#b6b4b7"/>
      <stop offset="1" stop-color="#adacac"/>
    </linearGradient>
    <linearGradient id="linear-gradient-119" x1="0" y1="0.5" x2="1" y2="0.5" xlink:href="#linear-gradient-2"/>
    <linearGradient id="linear-gradient-120" y1="0.5" x2="1" y2="0.5" gradientUnits="objectBoundingBox">
      <stop offset="0" stop-color="#2ab9d9"/>
      <stop offset="1" stop-color="#0076bf"/>
    </linearGradient>
    <linearGradient id="linear-gradient-121" x1="0" y1="0.5" x2="1" y2="0.5" xlink:href="#linear-gradient"/>
    <linearGradient id="linear-gradient-122" x1="0.431" y1="0.316" x2="0.813" y2="1.271" xlink:href="#linear-gradient-120"/>
    <linearGradient id="linear-gradient-124" x1="0.732" y1="0.092" x2="0.143" y2="1.002" xlink:href="#linear-gradient-120"/>
  </defs>
  <g id="regular-desktop-banner" transform="translate(-5.981 -837.114)">
    <g id="Group_232" data-name="Group 232" transform="translate(5.981 768.114)" clip-path="url(#clip-path)">
      <g id="Group_231" data-name="Group 231" transform="translate(-9.522)">
        <rect id="Rectangle_32" data-name="Rectangle 32" width="1366" height="534.679" transform="translate(9.522)" fill="url(#linear-gradient)"/>
        <g id="Group_206" data-name="Group 206" transform="translate(0 300.702)" opacity="0.5">
          <g id="Group_204" data-name="Group 204" opacity="0.52" style="mix-blend-mode: color-burn;isolation: isolate">
            <path id="Path_35" data-name="Path 35" d="M1341.242,1208.083c-49.711-4.041-96.381-15.636-144.627-23.541-116.1-19.023-243.013-16.135-356.047,8.1-71.984,15.434-137.48,39-205.51,59.4-195.07,58.5-420.039,90.446-638.572,82.067v-132.6c.438.041.876.087,1.314.127,124.053,11.308,253.445,3.168,370.106-23.282,85.624-19.413,163.5-48.2,245.887-71.683s172.809-41.972,264.8-38.292c107.383,4.3,202.977,37.855,301.724,62.156,62.811,15.457,134.066,26.968,201.214,25.079v54.015C1368.059,1209.678,1354.583,1209.169,1341.242,1208.083Z" transform="translate(3.513 -1067.913)" fill="#707288" opacity="0.5"/>
            <path id="Path_36" data-name="Path 36" d="M635.059,1251.731c68.029-20.4,133.525-43.966,205.51-59.4,113.034-24.236,239.95-27.125,356.047-8.1,48.246,7.9,94.915,19.5,144.627,23.541,13.34,1.085,26.817,1.595,40.289,1.549v33.549c-12.311-.5-24.557-1.349-36.561-2.443-61.8-5.629-122.364-16.907-184.947-17.485-133.787-1.239-251.744,45.485-366.6,84.393-124.572,42.2-257.855,77.355-399.272,95.82-130.408,17.028-268.3,19.369-397.661.5V1333.8C215.02,1342.177,439.989,1310.227,635.059,1251.731Z" transform="translate(3.513 -1067.6)" fill="#9192a3"/>
            <path id="Path_37" data-name="Path 37" d="M394.148,1403c141.417-18.464,274.7-53.622,399.272-95.82,114.859-38.908,232.817-85.631,366.6-84.393,62.583.579,123.148,11.857,184.947,17.485,12,1.093,24.25,1.938,36.561,2.443v33.2c-66.1-4.726-130.965-15.7-197.593-16.85-73.011-1.26-148.886,10.4-202.631,38.44s-80.726,73.931-55.7,112.832c7.521,11.689,18.93,22.075,32.751,31.547H-3.513V1403.5C125.847,1422.368,263.74,1420.027,394.148,1403Z" transform="translate(3.513 -1067.446)" fill="#b4b5c1"/>
            <path id="Path_38" data-name="Path 38" d="M978.544,1297.393c53.744-28.042,129.619-39.7,202.631-38.44,66.628,1.15,131.5,12.124,197.593,16.85v165.969H955.6c-13.821-9.472-25.231-19.858-32.751-31.547C897.818,1371.324,924.8,1325.435,978.544,1297.393Z" transform="translate(6.277 -1067.337)" fill="#d9d9e0"/>
          </g>
          <g id="Group_205" data-name="Group 205" transform="translate(0 155.322)" opacity="0.52" style="mix-blend-mode: color-burn;isolation: isolate">
            <path id="Path_39" data-name="Path 39" d="M1368.167,1441.246l9.244-5.24v-2.786l-14.158,8.026Z" transform="translate(7.633 -1222.134)" fill="url(#linear-gradient-2)"/>
            <path id="Path_40" data-name="Path 40" d="M1353.47,1441.271l23.985-13.6v-2.786l-28.9,16.382Z" transform="translate(7.589 -1222.159)" fill="url(#linear-gradient-2)"/>
            <path id="Path_41" data-name="Path 41" d="M1338.773,1441.3l38.727-21.953v-2.786l-43.641,24.739Z" transform="translate(7.544 -1222.184)" fill="url(#linear-gradient-2)"/>
            <path id="Path_42" data-name="Path 42" d="M1324.076,1441.322l53.468-30.31v-2.786l-58.382,33.1Z" transform="translate(7.5 -1222.209)" fill="url(#linear-gradient-2)"/>
            <path id="Path_43" data-name="Path 43" d="M1309.378,1441.337l67.538-38.285c-2.174.316-4.354.614-6.532.918l-65.919,37.367Z" transform="translate(7.456 -1222.225)" fill="url(#linear-gradient-2)"/>
            <path id="Path_44" data-name="Path 44" d="M1294.681,1441.329l62.88-35.644c-2.107.27-4.214.541-6.325.8l-61.469,34.845Z" transform="translate(7.412 -1222.217)" fill="url(#linear-gradient-2)"/>
            <path id="Path_45" data-name="Path 45" d="M1279.984,1441.322l58.9-33.386q-3.039.341-6.085.664l-57.724,32.722Z" transform="translate(7.367 -1222.21)" fill="url(#linear-gradient-2)"/>
            <path id="Path_46" data-name="Path 46" d="M1265.287,1441.317l55.555-31.493c-1.973.193-3.946.388-5.922.572l-54.547,30.921Z" transform="translate(7.323 -1222.205)" fill="url(#linear-gradient-2)"/>
            <path id="Path_47" data-name="Path 47" d="M1250.59,1441.312l52.728-29.89c-1.9.16-3.811.3-5.717.455l-51.924,29.435Z" transform="translate(7.279 -1222.2)" fill="url(#linear-gradient-2)"/>
            <path id="Path_48" data-name="Path 48" d="M1235.893,1441.308l50.428-28.586c-1.87.132-3.736.269-5.607.393l-49.734,28.193Z" transform="translate(7.234 -1222.196)" fill="url(#linear-gradient-2)"/>
            <path id="Path_49" data-name="Path 49" d="M1221.2,1441.3l48.532-27.512q-2.726.16-5.453.306l-47.993,27.206Z" transform="translate(7.19 -1222.193)" fill="url(#linear-gradient-2)"/>
            <path id="Path_50" data-name="Path 50" d="M1206.5,1441.3l47.03-26.66c-1.769.082-3.542.151-5.312.226l-46.632,26.435Z" transform="translate(7.146 -1222.19)" fill="url(#linear-gradient-2)"/>
            <path id="Path_51" data-name="Path 51" d="M1191.8,1441.3l45.914-26.027q-2.612.092-5.223.176l-45.605,25.852Z" transform="translate(7.101 -1222.188)" fill="url(#linear-gradient-2)"/>
            <path id="Path_52" data-name="Path 52" d="M1177.1,1441.3l45.113-25.573c-1.712.041-3.423.091-5.137.126l-44.89,25.447Z" transform="translate(7.057 -1222.187)" fill="url(#linear-gradient-2)"/>
            <path id="Path_53" data-name="Path 53" d="M1162.407,1441.3l44.605-25.286q-2.507.033-5.014.057l-44.5,25.229Z" transform="translate(7.013 -1222.186)" fill="url(#linear-gradient-2)"/>
            <path id="Path_54" data-name="Path 54" d="M1142.8,1441.3h4.915l44.376-25.156c-1.634,0-3.269-.005-4.9-.006Z" transform="translate(6.968 -1222.186)" fill="url(#linear-gradient-2)"/>
            <path id="Path_55" data-name="Path 55" d="M1172.618,1416.061,1128.1,1441.3h4.914l44.44-25.191C1175.84,1416.1,1174.229,1416.077,1172.618,1416.061Z" transform="translate(6.924 -1222.186)" fill="url(#linear-gradient-2)"/>
            <path id="Path_56" data-name="Path 56" d="M1158.291,1415.852,1113.4,1441.3h4.914l44.74-25.362Q1160.674,1415.9,1158.291,1415.852Z" transform="translate(6.88 -1222.187)" fill="url(#linear-gradient-2)"/>
            <path id="Path_57" data-name="Path 57" d="M1144.189,1415.516,1098.7,1441.3h4.914l45.269-25.662C1147.321,1415.6,1145.755,1415.56,1144.189,1415.516Z" transform="translate(6.836 -1222.188)" fill="url(#linear-gradient-2)"/>
            <path id="Path_58" data-name="Path 58" d="M1130.3,1415.059l-46.292,26.242h4.914l46.013-26.083C1133.389,1415.163,1131.844,1415.117,1130.3,1415.059Z" transform="translate(6.791 -1222.189)" fill="url(#linear-gradient-2)"/>
            <path id="Path_59" data-name="Path 59" d="M1116.618,1414.485,1069.31,1441.3h4.914l46.962-26.622C1119.663,1414.615,1118.14,1414.555,1116.618,1414.485Z" transform="translate(6.747 -1222.191)" fill="url(#linear-gradient-2)"/>
            <path id="Path_60" data-name="Path 60" d="M1103.137,1413.8l-48.525,27.507h4.914l48.107-27.27C1106.134,1413.957,1104.634,1413.88,1103.137,1413.8Z" transform="translate(6.703 -1222.193)" fill="url(#linear-gradient-2)"/>
            <path id="Path_61" data-name="Path 61" d="M1089.836,1413.009l-49.921,28.3h4.914l49.436-28.023Q1092.05,1413.15,1089.836,1413.009Z" transform="translate(6.658 -1222.195)" fill="url(#linear-gradient-2)"/>
            <path id="Path_62" data-name="Path 62" d="M1076.709,1412.121l-51.491,29.189h4.914l50.942-28.878C1079.618,1412.332,1078.163,1412.225,1076.709,1412.121Z" transform="translate(6.614 -1222.198)" fill="url(#linear-gradient-2)"/>
            <path id="Path_63" data-name="Path 63" d="M1063.747,1411.14l-53.226,30.173h4.914l52.619-29.829C1066.617,1411.374,1065.183,1411.254,1063.747,1411.14Z" transform="translate(6.57 -1222.201)" fill="url(#linear-gradient-2)"/>
            <path id="Path_64" data-name="Path 64" d="M1050.945,1410.069l-55.122,31.247h4.915l54.459-30.871C1053.777,1410.325,1052.362,1410.193,1050.945,1410.069Z" transform="translate(6.525 -1222.204)" fill="url(#linear-gradient-2)"/>
            <path id="Path_65" data-name="Path 65" d="M1038.3,1408.911l-57.17,32.408h4.914l56.455-32C1041.093,1409.187,1039.7,1409.046,1038.3,1408.911Z" transform="translate(6.481 -1222.208)" fill="url(#linear-gradient-2)"/>
            <path id="Path_66" data-name="Path 66" d="M1025.8,1407.67l-59.366,33.653h4.914l58.6-33.221C1028.561,1407.964,1027.18,1407.813,1025.8,1407.67Z" transform="translate(6.437 -1222.211)" fill="url(#linear-gradient-2)"/>
            <path id="Path_67" data-name="Path 67" d="M1013.436,1406.349l-61.7,34.978h4.914l60.9-34.52C1016.171,1406.659,1014.806,1406.5,1013.436,1406.349Z" transform="translate(6.392 -1222.215)" fill="url(#linear-gradient-2)"/>
            <path id="Path_68" data-name="Path 68" d="M1001.215,1404.949l-64.18,36.382h4.914l63.326-35.9C1003.919,1405.277,1002.569,1405.109,1001.215,1404.949Z" transform="translate(6.348 -1222.219)" fill="url(#linear-gradient-2)"/>
            <path id="Path_69" data-name="Path 69" d="M989.127,1403.475l-66.79,37.861h4.915l65.891-37.351C991.8,1403.819,990.466,1403.643,989.127,1403.475Z" transform="translate(6.304 -1222.224)" fill="url(#linear-gradient-2)"/>
            <path id="Path_70" data-name="Path 70" d="M981.124,1402.459c-1.321-.172-2.636-.356-3.955-.532L907.64,1441.34h4.914l68.586-38.879Z" transform="translate(6.26 -1222.229)" fill="url(#linear-gradient-2)"/>
            <path id="Path_71" data-name="Path 71" d="M965.327,1400.313l-72.383,41.032h4.914l71.413-40.482Q967.3,1400.593,965.327,1400.313Z" transform="translate(6.215 -1222.233)" fill="url(#linear-gradient-2)"/>
            <path id="Path_72" data-name="Path 72" d="M953.6,1398.635l-75.354,42.715h4.914l74.355-42.15Q955.556,1398.918,953.6,1398.635Z" transform="translate(6.171 -1222.238)" fill="url(#linear-gradient-2)"/>
            <path id="Path_73" data-name="Path 73" d="M941.986,1396.892l-78.437,44.464h4.914l77.41-43.881C944.578,1397.278,943.28,1397.091,941.986,1396.892Z" transform="translate(6.127 -1222.244)" fill="url(#linear-gradient-2)"/>
            <path id="Path_74" data-name="Path 74" d="M930.492,1395.082l-81.64,46.279h4.914l80.571-45.673C933.056,1395.485,931.772,1395.287,930.492,1395.082Z" transform="translate(6.082 -1222.249)" fill="url(#linear-gradient-2)"/>
            <path id="Path_75" data-name="Path 75" d="M919.1,1393.213l-84.947,48.154h4.914l83.839-47.526Q921,1393.528,919.1,1393.213Z" transform="translate(6.038 -1222.255)" fill="url(#linear-gradient-2)"/>
            <path id="Path_76" data-name="Path 76" d="M907.81,1391.288l-88.353,50.085h4.914l87.206-49.434Q909.692,1391.616,907.81,1391.288Z" transform="translate(5.994 -1222.261)" fill="url(#linear-gradient-2)"/>
            <path id="Path_77" data-name="Path 77" d="M896.614,1389.309l-91.854,52.07h4.914l90.67-51.4C899.1,1389.759,897.857,1389.533,896.614,1389.309Z" transform="translate(5.949 -1222.266)" fill="url(#linear-gradient-2)"/>
            <path id="Path_78" data-name="Path 78" d="M885.511,1387.278l-95.448,54.107h4.914L889.2,1387.97C887.971,1387.743,886.743,1387.508,885.511,1387.278Z" transform="translate(5.905 -1222.273)" fill="url(#linear-gradient-2)"/>
            <path id="Path_79" data-name="Path 79" d="M874.5,1385.2l-99.132,56.195h4.914l97.887-55.49Q876.332,1385.552,874.5,1385.2Z" transform="translate(5.861 -1222.279)" fill="url(#linear-gradient-2)"/>
            <path id="Path_80" data-name="Path 80" d="M863.571,1383.065l-102.9,58.333h4.913l101.642-57.618C866.007,1383.54,864.787,1383.306,863.571,1383.065Z" transform="translate(5.817 -1222.285)" fill="url(#linear-gradient-2)"/>
            <path id="Path_81" data-name="Path 81" d="M852.741,1380.879,745.971,1441.4h4.914l105.481-59.794C855.158,1381.366,853.948,1381.126,852.741,1380.879Z" transform="translate(5.772 -1222.292)" fill="url(#linear-gradient-2)"/>
            <path id="Path_82" data-name="Path 82" d="M842,1378.644l-110.724,62.767h4.914l109.4-62.016Q843.794,1379.02,842,1378.644Z" transform="translate(5.728 -1222.299)" fill="url(#linear-gradient-2)"/>
            <path id="Path_83" data-name="Path 83" d="M831.334,1376.365l-114.757,65.053h4.914l113.4-64.285Q833.112,1376.752,831.334,1376.365Z" transform="translate(5.684 -1222.306)" fill="url(#linear-gradient-2)"/>
            <path id="Path_84" data-name="Path 84" d="M820.746,1374.043,701.88,1441.425h4.914l117.481-66.6C823.1,1374.569,821.923,1374.3,820.746,1374.043Z" transform="translate(5.639 -1222.313)" fill="url(#linear-gradient-2)"/>
            <path id="Path_85" data-name="Path 85" d="M810.233,1371.678l-123.05,69.754H692.1l121.637-68.952C812.564,1372.216,811.4,1371.944,810.233,1371.678Z" transform="translate(5.595 -1222.32)" fill="url(#linear-gradient-2)"/>
            <path id="Path_86" data-name="Path 86" d="M799.791,1369.273l-127.306,72.166H677.4l125.879-71.358C802.117,1369.812,800.952,1369.545,799.791,1369.273Z" transform="translate(5.551 -1222.327)" fill="url(#linear-gradient-2)"/>
            <path id="Path_87" data-name="Path 87" d="M789.427,1366.824l-131.639,74.622H662.7l130.194-73.8C791.741,1367.369,790.581,1367.1,789.427,1366.824Z" transform="translate(5.506 -1222.334)" fill="url(#linear-gradient-2)"/>
            <path id="Path_88" data-name="Path 88" d="M779.14,1364.331l-136.049,77.123H648l134.576-76.287Q780.86,1364.75,779.14,1364.331Z" transform="translate(5.462 -1222.342)" fill="url(#linear-gradient-2)"/>
            <path id="Path_89" data-name="Path 89" d="M768.919,1361.8l-140.525,79.659h4.914l139.025-78.809Z" transform="translate(5.418 -1222.349)" fill="url(#linear-gradient-2)"/>
            <path id="Path_90" data-name="Path 90" d="M758.762,1359.236,613.7,1441.469h4.915L762.148,1360.1C761.018,1359.816,759.891,1359.524,758.762,1359.236Z" transform="translate(5.374 -1222.357)" fill="url(#linear-gradient-2)"/>
            <path id="Path_91" data-name="Path 91" d="M748.666,1356.635,599,1441.477h4.914l148.12-83.964C750.91,1357.222,749.789,1356.927,748.666,1356.635Z" transform="translate(5.329 -1222.365)" fill="url(#linear-gradient-2)"/>
            <path id="Path_92" data-name="Path 92" d="M738.632,1354,584.3,1441.485h4.914l152.774-86.6C740.871,1354.587,739.749,1354.3,738.632,1354Z" transform="translate(5.285 -1222.373)" fill="url(#linear-gradient-2)"/>
            <path id="Path_93" data-name="Path 93" d="M728.67,1351.324,569.6,1441.493h4.914l157.486-89.274C730.894,1351.92,729.779,1351.624,728.67,1351.324Z" transform="translate(5.241 -1222.381)" fill="url(#linear-gradient-2)"/>
            <path id="Path_94" data-name="Path 94" d="M718.766,1348.614,554.908,1441.5h4.914l162.256-91.979Q720.422,1349.07,718.766,1348.614Z" transform="translate(5.196 -1222.389)" fill="url(#linear-gradient-2)"/>
            <path id="Path_95" data-name="Path 95" d="M708.919,1345.874,540.21,1441.51h4.915L712.206,1346.8Q710.561,1346.337,708.919,1345.874Z" transform="translate(5.152 -1222.397)" fill="url(#linear-gradient-2)"/>
            <path id="Path_96" data-name="Path 96" d="M699.126,1343.1l-173.612,98.416h4.913l171.963-97.48C701.3,1343.728,700.215,1343.413,699.126,1343.1Z" transform="translate(5.108 -1222.406)" fill="url(#linear-gradient-2)"/>
            <path id="Path_97" data-name="Path 97" d="M689.384,1340.3,510.816,1441.526h4.914L692.641,1341.24Q691.014,1340.771,689.384,1340.3Z" transform="translate(5.063 -1222.414)" fill="url(#linear-gradient-2)"/>
            <path id="Path_98" data-name="Path 98" d="M679.7,1337.466,496.119,1441.535h4.914l181.913-103.121Q681.325,1337.94,679.7,1337.466Z" transform="translate(5.019 -1222.423)" fill="url(#linear-gradient-2)"/>
            <path id="Path_99" data-name="Path 99" d="M670.079,1334.6,481.422,1441.544h4.914L673.3,1335.56Z" transform="translate(4.975 -1222.432)" fill="url(#linear-gradient-2)"/>
            <path id="Path_100" data-name="Path 100" d="M660.5,1331.706,466.725,1441.552h4.914L663.7,1332.678Q662.1,1332.195,660.5,1331.706Z" transform="translate(4.93 -1222.44)" fill="url(#linear-gradient-2)"/>
            <path id="Path_101" data-name="Path 101" d="M650.971,1328.786,452.027,1441.561h4.914L654.149,1329.77C653.087,1329.444,652.031,1329.113,650.971,1328.786Z" transform="translate(4.886 -1222.449)" fill="url(#linear-gradient-2)"/>
            <path id="Path_102" data-name="Path 102" d="M641.487,1325.84,437.33,1441.57h4.914l202.415-114.743Q643.073,1326.332,641.487,1325.84Z" transform="translate(4.842 -1222.458)" fill="url(#linear-gradient-2)"/>
            <path id="Path_103" data-name="Path 103" d="M632.056,1322.863,422.633,1441.579h4.914l207.668-117.721C634.163,1323.526,633.108,1323.2,632.056,1322.863Z" transform="translate(4.798 -1222.467)" fill="url(#linear-gradient-2)"/>
            <path id="Path_104" data-name="Path 104" d="M622.6,1319.859,440.839,1422.893c-2.24,2.342-4.652,4.625-7.192,6.863l192.089-108.89Q624.166,1320.362,622.6,1319.859Z" transform="translate(4.831 -1222.476)" fill="url(#linear-gradient-2)"/>
            <path id="Path_105" data-name="Path 105" d="M613.165,1316.831l-160.927,91.224c-.4.666-.768,1.334-1.194,1.995-.527.818-1.115,1.614-1.679,2.419l166.92-94.621Q614.722,1317.341,613.165,1316.831Z" transform="translate(4.878 -1222.485)" fill="url(#linear-gradient-2)"/>
            <path id="Path_106" data-name="Path 106" d="M603.8,1313.781,457.489,1396.72q-.6,1.778-1.337,3.544L606.9,1314.807C605.868,1314.467,604.837,1314.122,603.8,1313.781Z" transform="translate(4.899 -1222.494)" fill="url(#linear-gradient-2)"/>
            <path id="Path_107" data-name="Path 107" d="M594.488,1310.707l-134.645,76.326c-.151,1.036-.348,2.07-.562,3.1l138.306-78.4C596.555,1311.392,595.519,1311.052,594.488,1310.707Z" transform="translate(4.908 -1222.503)" fill="url(#linear-gradient-2)"/>
            <path id="Path_108" data-name="Path 108" d="M585.231,1307.606l-124.839,70.768c.014.934.007,1.868-.027,2.8l127.951-72.532Q586.775,1308.125,585.231,1307.606Z" transform="translate(4.911 -1222.513)" fill="url(#linear-gradient-2)"/>
            <path id="Path_109" data-name="Path 109" d="M576.01,1304.487l-116.3,65.927c.134.86.263,1.72.359,2.582l119.011-67.464Z" transform="translate(4.909 -1222.522)" fill="url(#linear-gradient-2)"/>
            <path id="Path_110" data-name="Path 110" d="M566.822,1301.351,458.072,1363c.231.8.455,1.609.652,2.415l111.16-63.012Q568.353,1301.876,566.822,1301.351Z" transform="translate(4.904 -1222.532)" fill="url(#linear-gradient-2)"/>
            <path id="Path_111" data-name="Path 111" d="M557.654,1298.205l-101.992,57.817q.465,1.14.884,2.284l104.165-59.047Z" transform="translate(4.897 -1222.541)" fill="url(#linear-gradient-2)"/>
            <path id="Path_112" data-name="Path 112" d="M548.5,1295.053l-95.893,54.359c.379.723.722,1.45,1.075,2.175l97.872-55.481Z" transform="translate(4.888 -1222.551)" fill="url(#linear-gradient-2)"/>
            <path id="Path_113" data-name="Path 113" d="M539.348,1291.9l-90.4,51.244q.657,1.027,1.28,2.06l92.173-52.25Z" transform="translate(4.877 -1222.56)" fill="url(#linear-gradient-2)"/>
            <path id="Path_114" data-name="Path 114" d="M530.2,1288.748l-85.408,48.415c.491.652.985,1.3,1.455,1.96l87.007-49.322Z" transform="translate(4.864 -1222.57)" fill="url(#linear-gradient-2)"/>
            <path id="Path_115" data-name="Path 115" d="M521.032,1285.6l-80.85,45.832c.544.626,1.054,1.261,1.577,1.892l82.334-46.672Q522.565,1286.128,521.032,1285.6Z" transform="translate(4.85 -1222.579)" fill="url(#linear-gradient-2)"/>
            <path id="Path_116" data-name="Path 116" d="M511.853,1282.469l-76.75,43.507c.589.6,1.183,1.191,1.752,1.792l78.065-44.253Z" transform="translate(4.835 -1222.589)" fill="url(#linear-gradient-2)"/>
            <path id="Path_117" data-name="Path 117" d="M502.648,1279.348l-73.011,41.388c.634.572,1.252,1.148,1.869,1.726l74.219-42.072Z" transform="translate(4.819 -1222.598)" fill="url(#linear-gradient-2)"/>
            <path id="Path_118" data-name="Path 118" d="M493.411,1276.247l-69.65,39.484c.676.546,1.349,1.093,2.009,1.646l70.732-40.1Z" transform="translate(4.801 -1222.607)" fill="url(#linear-gradient-2)"/>
            <path id="Path_119" data-name="Path 119" d="M484.136,1273.169,417.5,1310.942q1.079.782,2.135,1.575l67.6-38.321Q485.688,1273.681,484.136,1273.169Z" transform="translate(4.782 -1222.617)" fill="url(#linear-gradient-2)"/>
            <path id="Path_120" data-name="Path 120" d="M474.815,1270.116l-63.952,36.253q1.143.746,2.261,1.5l64.81-36.739Z" transform="translate(4.762 -1222.626)" fill="url(#linear-gradient-2)"/>
            <path id="Path_121" data-name="Path 121" d="M465.437,1267.1l-61.6,34.919c.8.474,1.6.948,2.394,1.428l62.346-35.342Q467.009,1267.6,465.437,1267.1Z" transform="translate(4.741 -1222.635)" fill="url(#linear-gradient-2)"/>
            <path id="Path_122" data-name="Path 122" d="M456,1264.113l-59.565,33.765c.848.448,1.683.9,2.516,1.36l60.211-34.132Z" transform="translate(4.719 -1222.644)" fill="url(#linear-gradient-2)"/>
            <path id="Path_123" data-name="Path 123" d="M446.49,1261.169l-57.844,32.79c.887.425,1.772.851,2.647,1.285l58.38-33.094Q448.082,1261.66,446.49,1261.169Z" transform="translate(4.695 -1222.653)" fill="url(#linear-gradient-2)"/>
            <path id="Path_124" data-name="Path 124" d="M436.9,1258.273l-56.37,31.955c.923.4,1.835.817,2.747,1.228l56.839-32.22Q438.505,1258.753,436.9,1258.273Z" transform="translate(4.671 -1222.661)" fill="url(#linear-gradient-2)"/>
            <path id="Path_125" data-name="Path 125" d="M427.216,1255.428,372.043,1286.7c.963.382,1.93.761,2.883,1.151l55.538-31.483Q428.842,1255.9,427.216,1255.428Z" transform="translate(4.645 -1222.67)" fill="url(#linear-gradient-2)"/>
            <path id="Path_126" data-name="Path 126" d="M417.437,1252.637l-54.193,30.72c1,.36,1.98.735,2.969,1.1l54.5-30.9Q419.078,1253.1,417.437,1252.637Z" transform="translate(4.619 -1222.679)" fill="url(#linear-gradient-2)"/>
            <path id="Path_127" data-name="Path 127" d="M407.551,1249.909l-53.481,30.317c1.039.339,2.083.673,3.113,1.02l53.682-30.431Q409.208,1250.361,407.551,1249.909Z" transform="translate(4.591 -1222.687)" fill="url(#linear-gradient-2)"/>
            <path id="Path_128" data-name="Path 128" d="M397.537,1247.253l-52.964,30.024c1.076.316,2.143.641,3.21.966l53.117-30.111Q399.22,1247.691,397.537,1247.253Z" transform="translate(4.562 -1222.695)" fill="url(#linear-gradient-2)"/>
            <path id="Path_129" data-name="Path 129" d="M387.393,1244.672l-52.672,29.858q1.672.442,3.331.9l52.752-29.9Q389.1,1245.094,387.393,1244.672Z" transform="translate(4.533 -1222.703)" fill="url(#linear-gradient-2)"/>
            <path id="Path_130" data-name="Path 130" d="M377.1,1242.173l-52.591,29.812c1.155.273,2.312.544,3.46.825L380.561,1243Q378.834,1242.583,377.1,1242.173Z" transform="translate(4.502 -1222.71)" fill="url(#linear-gradient-2)"/>
            <path id="Path_131" data-name="Path 131" d="M366.656,1239.764l-52.693,29.87c1.193.249,2.376.51,3.561.767l52.642-29.841Q368.412,1240.16,366.656,1239.764Z" transform="translate(4.47 -1222.717)" fill="url(#linear-gradient-2)"/>
            <path id="Path_132" data-name="Path 132" d="M356.031,1237.456l-53,30.043q1.852.338,3.693.692l52.874-29.973C358.411,1237.964,357.222,1237.707,356.031,1237.456Z" transform="translate(4.437 -1222.724)" fill="url(#linear-gradient-2)"/>
            <path id="Path_133" data-name="Path 133" d="M345.207,1235.262l-53.481,30.316c1.28.2,2.561.4,3.833.613l53.288-30.208Q347.029,1235.617,345.207,1235.262Z" transform="translate(4.403 -1222.731)" fill="url(#linear-gradient-2)"/>
            <path id="Path_134" data-name="Path 134" d="M334.171,1233.188l-54.131,30.684q1.98.266,3.952.545l53.9-30.553Q336.033,1233.521,334.171,1233.188Z" transform="translate(4.368 -1222.737)" fill="url(#linear-gradient-2)"/>
            <path id="Path_135" data-name="Path 135" d="M322.9,1231.247l-54.945,31.147c1.363.15,2.72.313,4.079.473l54.67-30.991C325.437,1231.661,324.168,1231.455,322.9,1231.247Z" transform="translate(4.331 -1222.743)" fill="url(#linear-gradient-2)"/>
            <path id="Path_136" data-name="Path 136" d="M311.368,1229.454l-55.93,31.705c1.41.123,2.816.258,4.224.391l55.6-31.518C313.966,1229.834,312.667,1229.645,311.368,1229.454Z" transform="translate(4.294 -1222.748)" fill="url(#linear-gradient-2)"/>
            <path id="Path_137" data-name="Path 137" d="M299.55,1227.824l-57.084,32.359q2.2.14,4.385.3l56.691-32.136C302.214,1228.167,300.882,1228,299.55,1227.824Z" transform="translate(4.254 -1222.753)" fill="url(#linear-gradient-2)"/>
            <path id="Path_138" data-name="Path 138" d="M287.409,1226.376l-58.392,33.1q2.278.095,4.554.2l57.944-32.847C290.149,1226.677,288.78,1226.526,287.409,1226.376Z" transform="translate(4.214 -1222.758)" fill="url(#linear-gradient-2)"/>
            <path id="Path_139" data-name="Path 139" d="M274.913,1225.132l-59.863,33.934q2.365.044,4.73.1l59.363-33.651C277.735,1225.383,276.324,1225.258,274.913,1225.132Z" transform="translate(4.172 -1222.761)" fill="url(#linear-gradient-2)"/>
            <path id="Path_140" data-name="Path 140" d="M262.015,1224.115l-61.5,34.862c1.638-.009,3.278-.006,4.919,0l60.948-34.551Q264.2,1224.26,262.015,1224.115Z" transform="translate(4.128 -1222.765)" fill="url(#linear-gradient-2)"/>
            <path id="Path_141" data-name="Path 141" d="M248.665,1223.354,185.3,1259.275q2.574-.075,5.152-.135l62.73-35.559C251.676,1223.5,250.173,1223.422,248.665,1223.354Z" transform="translate(4.082 -1222.767)" fill="url(#linear-gradient-2)"/>
            <path id="Path_142" data-name="Path 142" d="M234.782,1222.9l-65.249,36.987c1.769-.087,3.544-.151,5.316-.228l64.632-36.638Q237.134,1222.948,234.782,1222.9Z" transform="translate(4.035 -1222.768)" fill="url(#linear-gradient-2)"/>
            <path id="Path_143" data-name="Path 143" d="M220.3,1222.775l-67.191,38.088q2.776-.188,5.553-.362l66.556-37.728Q222.765,1222.763,220.3,1222.775Z" transform="translate(3.985 -1222.769)" fill="url(#linear-gradient-2)"/>
            <path id="Path_144" data-name="Path 144" d="M205.139,1223.043l-69,39.113c1.915-.159,3.828-.32,5.744-.47l68.369-38.757C208.55,1222.967,206.841,1222.991,205.139,1223.043Z" transform="translate(3.934 -1222.768)" fill="url(#linear-gradient-2)"/>
            <path id="Path_145" data-name="Path 145" d="M189.188,1223.757,118.7,1263.713c1.954-.187,3.91-.36,5.866-.54l70.066-39.718C192.817,1223.542,191,1223.656,189.188,1223.757Z" transform="translate(3.881 -1222.766)" fill="url(#linear-gradient-2)"/>
            <path id="Path_146" data-name="Path 146" d="M172.553,1224.858l-71.712,40.651c2.006-.209,4.012-.422,6.018-.626l71.325-40.432C176.307,1224.584,174.428,1224.713,172.553,1224.858Z" transform="translate(3.828 -1222.764)" fill="url(#linear-gradient-2)"/>
            <path id="Path_147" data-name="Path 147" d="M155.171,1226.382l-72.417,41.051q3.03-.329,6.062-.652l72.25-40.956C159.1,1226,157.136,1226.193,155.171,1226.382Z" transform="translate(3.773 -1222.759)" fill="url(#linear-gradient-2)"/>
            <path id="Path_148" data-name="Path 148" d="M137.207,1228.234l-72.64,41.178q3.039-.329,6.077-.659l72.618-41.166C141.243,1227.8,139.224,1228.011,137.207,1228.234Z" transform="translate(3.718 -1222.754)" fill="url(#linear-gradient-2)"/>
            <path id="Path_149" data-name="Path 149" d="M118.739,1230.371l-72.287,40.978q3.024-.316,6.045-.642l72.468-41.079C122.89,1229.871,120.814,1230.122,118.739,1230.371Z" transform="translate(3.664 -1222.748)" fill="url(#linear-gradient-2)"/>
            <path id="Path_150" data-name="Path 150" d="M100.019,1232.651,28.6,1273.137c1.975-.191,3.95-.376,5.924-.573l71.77-40.684Q103.155,1232.265,100.019,1232.651Z" transform="translate(3.61 -1222.741)" fill="url(#linear-gradient-2)"/>
            <path id="Path_151" data-name="Path 151" d="M81.247,1234.958,11.1,1274.723q2.905-.245,5.808-.507l70.606-40.025Q84.381,1234.576,81.247,1234.958Z" transform="translate(3.557 -1222.734)" fill="url(#linear-gradient-2)"/>
            <path id="Path_152" data-name="Path 152" d="M62.676,1237.147l-66.189,37.521v1.2c1.079-.077,2.154-.169,3.233-.25l69.116-39.18Q65.757,1236.8,62.676,1237.147Z" transform="translate(3.513 -1222.727)" fill="url(#linear-gradient-2)"/>
            <path id="Path_153" data-name="Path 153" d="M44.435,1239.125-3.513,1266.3v2.785l53.99-30.605C48.463,1238.7,46.451,1238.92,44.435,1239.125Z" transform="translate(3.513 -1222.721)" fill="url(#linear-gradient-2)"/>
            <path id="Path_154" data-name="Path 154" d="M26.815,1240.75l-30.328,17.193v2.785L32.6,1240.257C30.68,1240.432,28.747,1240.59,26.815,1240.75Z" transform="translate(3.513 -1222.716)" fill="url(#linear-gradient-2)"/>
            <path id="Path_155" data-name="Path 155" d="M9.937,1241.958l-13.45,7.624v2.787l18.97-10.753C13.621,1241.739,11.779,1241.847,9.937,1241.958Z" transform="translate(3.513 -1222.712)" fill="url(#linear-gradient-2)"/>
            <path id="Path_156" data-name="Path 156" d="M-3.513,1242.654v1.354l2.61-1.479C-1.774,1242.568-2.641,1242.618-3.513,1242.654Z" transform="translate(3.513 -1222.709)" fill="url(#linear-gradient-119)"/>
          </g>
        </g>
        <g id="Group_213" data-name="Group 213" transform="translate(1103.852 351.206)">
          <g id="Group_212" data-name="Group 212" transform="translate(-30.769)">
            <path id="Path_157" data-name="Path 157" d="M1264.756,1202.221l-84.671-25.972,21.336-77.319,87.725,14.925Zm-83.8-26.453,83.3,25.552,23.983-86.893-86.3-14.682Z" transform="translate(-1044.222 -1076.88)" fill="#114148"/>
            <path id="Path_158" data-name="Path 158" d="M1165.338,1223.12l-.169-.316-29.183-54.433,34.094-18.279,5.695,10.619,23.659,44.13-.316.169Zm-28.381-54.456,28.675,53.485,32.83-17.6-23.319-43.5h0l-5.356-9.987-4.256,2.283Z" transform="translate(-1132.739 -1043.484)" fill="#114148"/>
            <circle id="Ellipse_15" data-name="Ellipse 15" cx="23.701" cy="23.701" r="23.701" transform="translate(213.444 66.175)" fill="#156db6" opacity="0.2" style="mix-blend-mode: multiply;isolation: isolate"/>
            <circle id="Ellipse_16" data-name="Ellipse 16" cx="23.701" cy="23.701" r="23.701" transform="translate(211.097 66.175)" fill="#fbb151"/>
            <path id="Path_159" data-name="Path 159" d="M1229.548,1189.885s25.184-77.144,24.468-77.144-8.418-1.432-8.418-1.432Z" transform="translate(-1014.721 -1069.497)" fill="#156db6" opacity="0.2" style="mix-blend-mode: multiply;isolation: isolate"/>
            <path id="Path_160" data-name="Path 160" d="M1200.449,1208.09l29.909-47.572-29.909-8.375Z" transform="translate(-1032.077 -1045.141)" fill="#156db6" opacity="0.2" style="mix-blend-mode: multiply;isolation: isolate"/>
            <path id="Path_161" data-name="Path 161" d="M1225.08,1177.144a11.531,11.531,0,0,0-5.471,1.346l-4.979-3.981a7.169,7.169,0,0,0,1.338-4.128c0-4.569-4.481-8.273-10.009-8.273s-10.01,3.7-10.01,8.273,4.481,8.271,10.01,8.271a11.144,11.144,0,0,0,6.991-2.354l4.6,3.678a7.474,7.474,0,0,0-2.476,5.44c0,4.569,4.481,8.273,10.01,8.273s10.009-3.7,10.009-8.273S1230.608,1177.144,1225.08,1177.144Z" transform="translate(-1034.761 -1039.199)" fill="#156db6" opacity="0.2" style="mix-blend-mode: multiply;isolation: isolate"/>
            <g id="Group_208" data-name="Group 208" transform="translate(0 114.573)">
              <path id="Path_162" data-name="Path 162" d="M1193.793,1203.592l-33.462,17.94-29.014-54.118,28.89-15.488,4.572-2.452,5.525,10.3Z" transform="translate(-1131.318 -1149.474)" fill="url(#linear-gradient-120)"/>
              <circle id="Ellipse_17" data-name="Ellipse 17" cx="3.403" cy="3.403" r="3.403" transform="translate(11.919 27.736)" fill="#a2c2e6"/>
              <path id="Path_167" data-name="Path 167" d="M1162.386,1163.232l-16.7,8.954a1.416,1.416,0,0,1-1.917-.579h0a1.417,1.417,0,0,1,.58-1.917l16.7-8.953a1.417,1.417,0,0,1,1.917.579h0A1.415,1.415,0,0,1,1162.386,1163.232Z" transform="translate(-1123.991 -1142.858)" fill="#a2c2e6"/>
              <circle id="Ellipse_18" data-name="Ellipse 18" cx="3.403" cy="3.403" r="3.403" transform="translate(16.819 36.876)" fill="#a2c2e6"/>
              <path id="Path_168" data-name="Path 168" d="M1165.457,1168.959l-16.7,8.953a1.415,1.415,0,0,1-1.915-.58h0a1.414,1.414,0,0,1,.578-1.916l16.7-8.955a1.416,1.416,0,0,1,1.917.58h0A1.416,1.416,0,0,1,1165.457,1168.959Z" transform="translate(-1122.161 -1139.443)" fill="#a2c2e6"/>
              <circle id="Ellipse_19" data-name="Ellipse 19" cx="3.403" cy="3.403" r="3.403" transform="translate(21.719 46.016)" fill="#a2c2e6"/>
              <path id="Path_169" data-name="Path 169" d="M1168.525,1174.683l-16.7,8.953a1.416,1.416,0,0,1-1.917-.578h0a1.416,1.416,0,0,1,.58-1.917l16.7-8.953a1.416,1.416,0,0,1,1.917.578h0A1.416,1.416,0,0,1,1168.525,1174.683Z" transform="translate(-1120.33 -1136.028)" fill="#a2c2e6"/>
              <circle id="Ellipse_20" data-name="Ellipse 20" cx="3.403" cy="3.403" r="3.403" transform="translate(26.619 55.156)" fill="#a2c2e6"/>
              <path id="Path_170" data-name="Path 170" d="M1171.594,1180.408l-16.7,8.954a1.415,1.415,0,0,1-1.916-.579h0a1.416,1.416,0,0,1,.578-1.918l16.7-8.953a1.416,1.416,0,0,1,1.917.58h0A1.414,1.414,0,0,1,1171.594,1180.408Z" transform="translate(-1118.499 -1132.613)" fill="#a2c2e6"/>
            </g>
            <path id="Path_171" data-name="Path 171" d="M1160.7,1159.778l-4.469,8.937-2.2,4.391-5.844,11.686-.766,1.531.109-1.178.831-9,.312-3.381.835-9.028.181-1.963.231-2.507.115-1.241.564-6.1,4.573-2.452Z" transform="translate(-1063.702 -1046.734)" fill="#156db6" opacity="0.2" style="mix-blend-mode: multiply;isolation: isolate"/>
            <path id="Path_172" data-name="Path 172" d="M1241.6,1155.932a3.34,3.34,0,0,1-2.257-1.205l-6.4-7.792a3.342,3.342,0,1,1,5.165-4.243l4.28,5.209,13.325-10.948a3.343,3.343,0,0,1,4.244,5.166l-15.908,13.07A3.332,3.332,0,0,1,1241.6,1155.932Z" transform="translate(-1013.149 -1054.656)" fill="#fff"/>
            <g id="Group_211" data-name="Group 211" transform="translate(83.721 24.86)">
              <path id="Path_173" data-name="Path 173" d="M1281.913,1115.492l-22.1,80.054a7.1,7.1,0,1,1-13.683-3.777l4-14.5-70.966-19.583,15.729-57Z" transform="translate(-1128.489 -1100.69)" fill="url(#linear-gradient-121)"/>
              <path id="Path_174" data-name="Path 174" d="M1249.289,1128.091l-.495,1.79-62.409-17.222,1.783-6.462C1198.82,1109.97,1249.289,1128.091,1249.289,1128.091Z" transform="translate(-1124.185 -1097.406)" fill="#156db6" opacity="0.2" style="mix-blend-mode: multiply;isolation: isolate"/>
              <path id="Path_175" data-name="Path 175" d="M1234.179,1121.241a9.606,9.606,0,0,0-6.29.4l-9.265,33.573,9.979,2.754-6,21.751a7.9,7.9,0,0,0,.864,6.7,8.136,8.136,0,0,0,4.243-5.455l5.961-21.6,7.13-25.838.116-.42A9.652,9.652,0,0,0,1234.179,1121.241Z" transform="translate(-1104.957 -1088.641)" fill="#156db6" opacity="0.2" style="mix-blend-mode: multiply;isolation: isolate"/>
              <path id="Path_176" data-name="Path 176" d="M1254.995,1196.177l-75.107-20.726a9.9,9.9,0,0,1-6.911-12.179l15.27-55.33,59.205,16.338-2.567,9.3a9.6,9.6,0,0,1,3.849-5.394c.223-.155.455-.3.689-.433a9.65,9.65,0,0,1,14.064,10.959l-13.447,48.73A7.1,7.1,0,0,0,1254.995,1196.177Z" transform="translate(-1132.396 -1096.365)" fill="url(#linear-gradient-122)"/>
              <path id="Path_177" data-name="Path 177" d="M1222.129,1185.412l-13.85-3.822,15.4-55.786a6.633,6.633,0,1,1,10,6.524l-12.889,46.707A7.093,7.093,0,0,0,1222.129,1185.412Z" transform="translate(-1111.127 -1088.801)" fill="url(#linear-gradient-120)"/>
              <g id="Group_210" data-name="Group 210" transform="translate(0 6.752)">
                <path id="Path_178" data-name="Path 178" d="M1232.074,1236.256l27.837-100.875a9.652,9.652,0,0,1,11.87-6.735l-84.722-23.379a9.581,9.581,0,0,0-11.78,6.686L1147.423,1212.9Z" transform="translate(-1147.423 -1104.92)" fill="url(#linear-gradient-124)"/>
                <g id="Group_209" data-name="Group 209" transform="translate(11.573 16.599)">
                  <circle id="Ellipse_21" data-name="Ellipse 21" cx="4.56" cy="4.56" r="4.56" transform="translate(20.863)" fill="#dce7f6"/>
                  <path id="Rectangle_33" data-name="Rectangle 33" d="M1.4,0H3.162a1.4,1.4,0,0,1,1.4,1.4V57.392a1.4,1.4,0,0,1-1.4,1.4H1.4a1.4,1.4,0,0,1-1.4-1.4V1.4A1.4,1.4,0,0,1,1.4,0Z" transform="matrix(0.266, -0.964, 0.964, 0.266, 32.772, 8.953)" fill="#dce7f6"/>
                  <circle id="Ellipse_22" data-name="Ellipse 22" cx="4.56" cy="4.56" r="4.56" transform="translate(16.705 15.07)" fill="#dce7f6"/>
                  <path id="Rectangle_34" data-name="Rectangle 34" d="M1.4,0H3.162a1.4,1.4,0,0,1,1.4,1.4V57.392a1.4,1.4,0,0,1-1.4,1.4H1.4a1.4,1.4,0,0,1-1.4-1.4V1.4A1.4,1.4,0,0,1,1.4,0Z" transform="matrix(0.266, -0.964, 0.964, 0.266, 28.614, 24.023)" fill="#dce7f6"/>
                  <circle id="Ellipse_23" data-name="Ellipse 23" cx="4.56" cy="4.56" r="4.56" transform="translate(12.546 30.14)" fill="#dce7f6"/>
                  <path id="Rectangle_35" data-name="Rectangle 35" d="M1.4,0H57.392a1.4,1.4,0,0,1,1.4,1.4V3.162a1.4,1.4,0,0,1-1.4,1.4H1.4A1.4,1.4,0,0,1,0,3.162V1.4A1.4,1.4,0,0,1,1.4,0Z" transform="translate(25.668 34.698) rotate(15.427)" fill="#dce7f6"/>
                  <circle id="Ellipse_24" data-name="Ellipse 24" cx="4.56" cy="4.56" r="4.56" transform="translate(8.387 45.21)" fill="#dce7f6"/>
                  <path id="Rectangle_36" data-name="Rectangle 36" d="M1.4,0H3.162a1.4,1.4,0,0,1,1.4,1.4V57.392a1.4,1.4,0,0,1-1.4,1.4H1.4a1.4,1.4,0,0,1-1.4-1.4V1.4A1.4,1.4,0,0,1,1.4,0Z" transform="matrix(0.266, -0.964, 0.964, 0.266, 20.296, 54.163)" fill="#dce7f6"/>
                  <circle id="Ellipse_25" data-name="Ellipse 25" cx="4.56" cy="4.56" r="4.56" transform="translate(4.229 60.28)" fill="#dce7f6"/>
                  <path id="Rectangle_37" data-name="Rectangle 37" d="M1.4,0H3.162a1.4,1.4,0,0,1,1.4,1.4V57.392a1.4,1.4,0,0,1-1.4,1.4H1.4a1.4,1.4,0,0,1-1.4-1.4V1.4A1.4,1.4,0,0,1,1.4,0Z" transform="matrix(0.266, -0.964, 0.964, 0.266, 16.138, 69.233)" fill="#dce7f6"/>
                  <circle id="Ellipse_26" data-name="Ellipse 26" cx="4.56" cy="4.56" r="4.56" transform="translate(0.07 75.35)" fill="#dce7f6"/>
                  <path id="Rectangle_38" data-name="Rectangle 38" d="M1.4,0H3.162a1.4,1.4,0,0,1,1.4,1.4V57.392a1.4,1.4,0,0,1-1.4,1.4H1.4a1.4,1.4,0,0,1-1.4-1.4V1.4A1.4,1.4,0,0,1,1.4,0Z" transform="translate(11.979 84.303) rotate(-74.573)" fill="#dce7f6"/>
                  <path id="Path_179" data-name="Path 179" d="M1167.655,1131.6a1.217,1.217,0,0,1-.738-.573l-1.82-3.205a1.221,1.221,0,0,1,2.125-1.206l1.217,2.142,5.481-3.11a1.221,1.221,0,1,1,1.207,2.123l-6.544,3.714A1.207,1.207,0,0,1,1167.655,1131.6Z" transform="translate(-1148.55 -1109.249)" fill="#fbb151"/>
                  <path id="Path_180" data-name="Path 180" d="M1162.6,1149.927a1.221,1.221,0,0,1-.737-.575l-1.818-3.2a1.222,1.222,0,0,1,2.125-1.207l1.217,2.143,5.48-3.11a1.221,1.221,0,1,1,1.205,2.125l-6.542,3.714A1.226,1.226,0,0,1,1162.6,1149.927Z" transform="translate(-1151.565 -1098.321)" fill="#fbb151"/>
                  <path id="Path_181" data-name="Path 181" d="M1159.916,1159.647a1.224,1.224,0,0,1-.737-.575l-1.82-3.206a1.221,1.221,0,0,1,2.125-1.206l1.217,2.143,5.481-3.11a1.222,1.222,0,0,1,1.207,2.125l-6.544,3.712A1.216,1.216,0,0,1,1159.916,1159.647Z" transform="translate(-1153.165 -1092.524)" fill="#fbb151"/>
                  <path id="Path_182" data-name="Path 182" d="M1157.387,1168.807a1.221,1.221,0,0,1-.737-.575l-1.819-3.206a1.221,1.221,0,1,1,2.125-1.205l1.217,2.143,5.48-3.11a1.221,1.221,0,1,1,1.205,2.125l-6.542,3.713A1.221,1.221,0,0,1,1157.387,1168.807Z" transform="translate(-1154.672 -1087.06)" fill="#fbb151"/>
                </g>
              </g>
            </g>
            <circle id="Ellipse_27" data-name="Ellipse 27" cx="5.47" cy="5.47" r="5.47" transform="translate(164.083)" fill="#2d73ba"/>
            <circle id="Ellipse_28" data-name="Ellipse 28" cx="4.486" cy="4.486" r="4.486" transform="translate(59.972 73.864)" fill="#2d73ba"/>
            <circle id="Ellipse_29" data-name="Ellipse 29" cx="5.47" cy="5.47" r="5.47" transform="translate(221.598 146.619)" fill="#2d73ba"/>
          </g>
        </g>
        <g id="Group_217" data-name="Group 217" transform="translate(300.142 403.042)">
          <g id="Group_236" data-name="Group 236" transform="translate(0 -20)">
            <path id="Path_185" data-name="Path 185" d="M319.139,1193.055H300.58a2.894,2.894,0,0,1-2.757-2.372l-2.067-12.959a1.974,1.974,0,0,1,2-2.372h18.559a2.893,2.893,0,0,1,2.756,2.372l2.067,12.959A1.974,1.974,0,0,1,319.139,1193.055Z" transform="translate(-295.727 -1171.756)" fill="none" stroke="#68a6be" stroke-linecap="round" stroke-linejoin="round" stroke-width="1"/>
            <path id="Path_186" data-name="Path 186" d="M320.449,1191.244a2.378,2.378,0,0,0,2.378-2.378v-14.612a2.371,2.371,0,0,0-2.209-2.361l-.578-1.486a.725.725,0,0,0-.675-.462H313.3a.724.724,0,0,0-.675.462l-.571,1.469H301.89a2.379,2.379,0,0,0-2.253,1.615" transform="translate(-297.036 -1169.945)" fill="none" stroke="#68a6be" stroke-linecap="round" stroke-linejoin="round" stroke-width="1"/>
          </g>
        </g>
      </g>
    </g>
  </g>
</svg>
