<svg xmlns="http://www.w3.org/2000/svg" xmlns:xlink="http://www.w3.org/1999/xlink" width="82" height="60" viewBox="0 0 82 60">
  <defs>
    <clipPath id="clip-lang-java">
      <rect width="82" height="60"/>
    </clipPath>
  </defs>
  <g id="lang-java" clip-path="url(#clip-lang-java)">
    <g id="java-4" transform="translate(25)">
      <path id="Path_35" data-name="Path 35" d="M283.293,429.931h-.226V429.8h.608v.126h-.225v.631h-.158Zm1.214.033h0l-.224.6h-.1l-.223-.6h0v.6H283.8v-.757h.219l.206.536.206-.536h.218v.757h-.145Z" transform="translate(-252.392 -382.617)" fill="#e76f00"/>
      <path id="Path_36" data-name="Path 36" d="M77.037,255.21s-1.573.915,1.119,1.224a23.55,23.55,0,0,0,8.522-.361,14.826,14.826,0,0,0,2.264,1.106c-8.056,3.453-18.233-.2-11.905-1.968m-.984-4.506s-1.764,1.306.93,1.584a33.245,33.245,0,0,0,11-.528,4.881,4.881,0,0,0,1.694,1.033c-9.741,2.848-20.59.225-13.619-2.089" transform="translate(-66.371 -223.383)" fill="#5382a1"/>
      <path id="Path_37" data-name="Path 37" d="M154.031,91.45c1.985,2.286-.521,4.342-.521,4.342s5.04-2.6,2.726-5.86c-2.162-3.039-3.82-4.548,5.156-9.754,0,0-14.089,3.519-7.36,11.272" transform="translate(-136.051 -71.772)" fill="#e76f00"/>
      <path id="Path_38" data-name="Path 38" d="M42.3,217.937s1.164.959-1.282,1.7c-4.65,1.409-19.355,1.834-23.44.056-1.468-.639,1.285-1.525,2.152-1.711a5.585,5.585,0,0,1,1.42-.159c-1.633-1.15-10.555,2.259-4.532,3.235,16.426,2.664,29.944-1.2,25.683-3.121M25.087,205.43s-7.48,1.777-2.649,2.422a56.182,56.182,0,0,0,9.894-.106c3.1-.261,6.2-.816,6.2-.816a13.139,13.139,0,0,0-1.881,1.007c-7.6,2-22.269,1.068-18.045-.975a14.153,14.153,0,0,1,6.477-1.531m13.418,7.5c7.721-4.012,4.151-7.868,1.659-7.349a5.778,5.778,0,0,0-.883.237,1.408,1.408,0,0,1,.66-.509c4.93-1.733,8.721,5.112-1.591,7.823a.67.67,0,0,0,.155-.2" transform="translate(-13.665 -182.777)" fill="#5382a1"/>
      <path id="Path_39" data-name="Path 39" d="M112.246,4.4s4.276,4.277-4.056,10.855c-6.681,5.276-1.524,8.285,0,11.722-3.9-3.519-6.762-6.616-4.842-9.5,2.818-4.232,10.626-6.284,8.9-13.078" transform="translate(-92.061 -4.399)" fill="#e76f00"/>
      <path id="Path_40" data-name="Path 40" d="M69.7,344.029c7.411.474,18.793-.263,19.062-3.77,0,0-.518,1.329-6.125,2.385a60.938,60.938,0,0,1-18.755.289s.947.784,5.818,1.1" transform="translate(-57.523 -303.004)" fill="#5382a1"/>
      <path id="Path_41" data-name="Path 41" d="M17.493,410.1a3.364,3.364,0,0,1-2.1.947,1.339,1.339,0,0,1-1.457-1.477c0-.984.548-1.7,2.744-1.7h.813V410.1m1.929,2.177v-6.738c0-1.721-.982-2.857-3.349-2.857a8.821,8.821,0,0,0-3.576.776l.284,1.193a8.311,8.311,0,0,1,2.761-.549c1.363,0,1.95.549,1.95,1.684v.852h-.681c-3.313,0-4.807,1.286-4.807,3.216,0,1.666.985,2.613,2.839,2.613a4.282,4.282,0,0,0,2.913-1.212l.151,1.023h1.514Zm6.438,0H23.455l-2.9-9.424h2.1l1.8,5.79.4,1.741a36.2,36.2,0,0,0,1.874-7.532h2.044a38.273,38.273,0,0,1-2.913,9.424m9.231-2.177a3.373,3.373,0,0,1-2.1.947,1.34,1.34,0,0,1-1.457-1.477c0-.984.549-1.7,2.745-1.7h.814V410.1m1.929,2.177v-6.738c0-1.721-.984-2.857-3.348-2.857a8.821,8.821,0,0,0-3.577.776l.284,1.193a8.324,8.324,0,0,1,2.763-.549c1.362,0,1.95.549,1.95,1.684v.852H34.41c-3.314,0-4.807,1.286-4.807,3.216,0,1.666.984,2.613,2.838,2.613a4.287,4.287,0,0,0,2.915-1.212l.152,1.023H37.02Zm-27.13,1.6a5.069,5.069,0,0,1-2.411,1.8l-.953-1.121a4,4,0,0,0,1.67-1.564,6.043,6.043,0,0,0,.361-2.729V399.5h2.05v10.612c0,2.094-.167,2.939-.717,3.764" transform="translate(-6.527 -355.671)" fill="#e76f00"/>
    </g>
  </g>
</svg>
