<svg xmlns="http://www.w3.org/2000/svg" xmlns:xlink="http://www.w3.org/1999/xlink" width="82" height="60" viewBox="0 0 82 60">
  <defs>
    <clipPath id="clip-platform-instance">
      <rect width="82" height="60"/>
    </clipPath>
  </defs>
  <g id="platform-instance" clip-path="url(#clip-platform-instance)">
    <g id="Group_79" data-name="Group 79" transform="translate(0.623 -1123.224)">
      <path id="Path_114" data-name="Path 114" d="M59.629,1158.647c-1.073-.02-2.146-.006-3.22-.006h-.452v-3.656h.469c1,0,2.01.027,3.013-.014a2.546,2.546,0,0,0,1.127-.31,1.59,1.59,0,0,0-.684-2.885c-.71-.061-1.428-.041-2.143-.048-.588-.006-1.175,0-1.784,0v-3.656h.463c1.032,0,2.066.033,3.095-.017a2.374,2.374,0,0,0,1.14-.375,1.506,1.506,0,0,0,.524-1.734,1.536,1.536,0,0,0-1.406-1.094c-1.169-.029-2.339-.024-3.508-.015-.277,0-.375-.086-.417-.362a7.655,7.655,0,0,0-4.322-6,20.7,20.7,0,0,0-2.18-.819c0-1.1-.037-2.238.011-3.376a1.856,1.856,0,0,0-1.271-2.055h-.743a1.95,1.95,0,0,0-1.247,2.156c.05,1.068.011,2.139.011,3.238H42.472c-.008-.149-.022-.294-.022-.438,0-.975-.025-1.951.006-2.925a1.841,1.841,0,0,0-1.306-2.031h-.66a1.842,1.842,0,0,0-1.307,2.03c.033,1.11.008,2.221.008,3.362H35.556c-.008-.131-.022-.262-.023-.394,0-.948-.04-1.9.01-2.842a1.943,1.943,0,0,0-1.246-2.157h-.743a1.855,1.855,0,0,0-1.273,2.055c.045,1.016,0,2.036.017,3.053.006.319-.082.446-.409.511a7.843,7.843,0,0,0-6.093,6.59c-.037.316-.153.406-.464.4-1.128-.016-2.257-.022-3.384.007a1.586,1.586,0,0,0-1.568,1.591,1.623,1.623,0,0,0,1.583,1.63c.439.021.88.007,1.321.007h2.4v3.656c-.83,0-1.639-.005-2.447,0a12.479,12.479,0,0,0-1.523.052,1.569,1.569,0,0,0-1.333,1.6,1.6,1.6,0,0,0,1.33,1.561,4.684,4.684,0,0,0,.739.047c1.07,0,2.139,0,3.222,0v3.656c-1.2,0-2.374-.033-3.541.018a2.391,2.391,0,0,0-1.172.4,1.5,1.5,0,0,0-.5,1.7,1.535,1.535,0,0,0,1.4,1.1c1.169.03,2.339.024,3.508.016.272,0,.379.076.421.357a7.665,7.665,0,0,0,4.353,6.021,19.842,19.842,0,0,0,2.15.794c0,.12,0,.284,0,.448,0,1.155-.013,2.311.016,3.466a1.574,1.574,0,0,0,1.467,1.515,1.594,1.594,0,0,0,1.69-1.216,2.991,2.991,0,0,0,.064-.694c.006-1.152,0-2.3,0-3.482h3.656v.463c0,1.032-.026,2.064.014,3.095a2.555,2.555,0,0,0,.3,1.129,1.513,1.513,0,0,0,1.764.64,1.619,1.619,0,0,0,1.178-1.649c.016-1.073,0-2.146,0-3.219,0-.146,0-.293,0-.458h3.657c0,.174,0,.323,0,.472,0,1.1-.017,2.2.007,3.3a1.615,1.615,0,1,0,3.229-.066c.011-1.264,0-2.529,0-3.814.152-.039.282-.078.414-.1a7.867,7.867,0,0,0,6.086-6.6c.039-.323.166-.4.47-.4,1.114.015,2.229.022,3.343,0a1.6,1.6,0,0,0,1.6-1.6A1.619,1.619,0,0,0,59.629,1158.647Zm-6.28,2.39a5.274,5.274,0,0,1-4.151,5.3,5.923,5.923,0,0,1-1.308.135q-7.078.014-14.156,0a5.288,5.288,0,0,1-5.444-5.411q-.024-7.716,0-15.433a5.286,5.286,0,0,1,5.455-5.4q7.058-.009,14.115,0a5.306,5.306,0,0,1,5.488,5.494c.007,2.545,0,5.089,0,7.634S53.361,1158.478,53.349,1161.037Z" fill="#f7981f"/>
      <path id="Path_115" data-name="Path 115" d="M154.934,1251.13a4.725,4.725,0,0,0-.14-1.222,3.839,3.839,0,0,0-3.98-2.927q-6.521-.007-13.042,0a4.562,4.562,0,0,0-1.182.137,3.834,3.834,0,0,0-2.94,3.928q-.008,7.139,0,14.277a4.33,4.33,0,0,0,.139,1.14,3.824,3.824,0,0,0,3.9,2.926q6.6.019,13.207,0a3.969,3.969,0,0,0,2.5-.8,3.918,3.918,0,0,0,1.536-3.268c0-2.38,0-4.759,0-7.139C154.94,1255.834,154.947,1253.482,154.934,1251.13Z" transform="translate(-103.476 -104.832)" fill="#f7981f"/>
    </g>
  </g>
</svg>
