<?xml version="1.0" encoding="UTF-8" standalone="no"?>
<!-- Created with Inkscape (http://www.inkscape.org/) -->

<svg
   width="90"
   height="55"
   viewBox="0 0 23.812499 14.552084"
   version="1.1"
   id="svg714"
   xmlns="http://www.w3.org/2000/svg"
   xmlns:svg="http://www.w3.org/2000/svg">
  <defs
     id="defs711">
    <clipPath
       id="clip0">
      <rect
         x="1688"
         y="1331"
         width="1219"
         height="747"
         id="rect221" />
    </clipPath>
    <clipPath
       id="clip1">
      <rect
         x="1702"
         y="1488"
         width="1185"
         height="451"
         id="rect224" />
    </clipPath>
    <clipPath
       id="clip2">
      <rect
         x="1702"
         y="1488"
         width="1185"
         height="451"
         id="rect227" />
    </clipPath>
    <clipPath
       id="clip3">
      <rect
         x="1702"
         y="1488"
         width="1185"
         height="451"
         id="rect230" />
    </clipPath>
    <linearGradient
       x1="168.836"
       y1="38.615299"
       x2="262.104"
       y2="12.3995"
       gradientUnits="userSpaceOnUse"
       spreadMethod="pad"
       id="fill4">
      <stop
         offset="0"
         stop-color="#F59723"
         id="stop233" />
      <stop
         offset="0.312"
         stop-color="#F69822"
         id="stop235" />
      <stop
         offset="0.838"
         stop-color="#E87726"
         id="stop237" />
      <stop
         offset="1"
         stop-color="#E87726"
         id="stop239" />
    </linearGradient>
    <linearGradient
       x1="-35.3801"
       y1="457.681"
       x2="154.326"
       y2="50.294399"
       gradientUnits="userSpaceOnUse"
       spreadMethod="pad"
       id="fill5">
      <stop
         offset="0"
         stop-color="#9C2063"
         id="stop242" />
      <stop
         offset="0.323"
         stop-color="#9C2063"
         id="stop244" />
      <stop
         offset="0.63"
         stop-color="#C82037"
         id="stop246" />
      <stop
         offset="0.751"
         stop-color="#CC2135"
         id="stop248" />
      <stop
         offset="1"
         stop-color="#E87726"
         id="stop250" />
    </linearGradient>
    <linearGradient
       x1="28.460199"
       y1="427.41901"
       x2="141.455"
       y2="184.767"
       gradientUnits="userSpaceOnUse"
       spreadMethod="pad"
       id="fill6">
      <stop
         offset="0"
         stop-color="#282661"
         id="stop253" />
      <stop
         offset="0.0955"
         stop-color="#662E8C"
         id="stop255" />
      <stop
         offset="0.788"
         stop-color="#9E2064"
         id="stop257" />
      <stop
         offset="0.949"
         stop-color="#CC2032"
         id="stop259" />
      <stop
         offset="1"
         stop-color="#CC2032"
         id="stop261" />
    </linearGradient>
    <linearGradient
       x1="-28.589199"
       y1="433.043"
       x2="161.117"
       y2="25.6563"
       gradientUnits="userSpaceOnUse"
       spreadMethod="pad"
       id="fill7">
      <stop
         offset="0"
         stop-color="#9C2063"
         id="stop264" />
      <stop
         offset="0.323"
         stop-color="#9C2063"
         id="stop266" />
      <stop
         offset="0.63"
         stop-color="#C82037"
         id="stop268" />
      <stop
         offset="0.751"
         stop-color="#CC2135"
         id="stop270" />
      <stop
         offset="1"
         stop-color="#E87726"
         id="stop272" />
    </linearGradient>
    <linearGradient
       x1="-9.1715698"
       y1="405.79901"
       x2="90.496902"
       y2="191.76401"
       gradientUnits="userSpaceOnUse"
       spreadMethod="pad"
       id="fill8">
      <stop
         offset="0"
         stop-color="#282661"
         id="stop275" />
      <stop
         offset="0.0955"
         stop-color="#662E8C"
         id="stop277" />
      <stop
         offset="0.788"
         stop-color="#9E2064"
         id="stop279" />
      <stop
         offset="0.949"
         stop-color="#CC2032"
         id="stop281" />
      <stop
         offset="1"
         stop-color="#CC2032"
         id="stop283" />
    </linearGradient>
    <linearGradient
       x1="13.7368"
       y1="452.75299"
       x2="203.44299"
       y2="45.366001"
       gradientUnits="userSpaceOnUse"
       spreadMethod="pad"
       id="fill9">
      <stop
         offset="0"
         stop-color="#9C2063"
         id="stop286" />
      <stop
         offset="0.323"
         stop-color="#9C2063"
         id="stop288" />
      <stop
         offset="0.63"
         stop-color="#C82037"
         id="stop290" />
      <stop
         offset="0.751"
         stop-color="#CC2135"
         id="stop292" />
      <stop
         offset="1"
         stop-color="#E87726"
         id="stop294" />
    </linearGradient>
    <linearGradient
       x1="-0.18621799"
       y1="476.996"
       x2="189.52"
       y2="69.609497"
       gradientUnits="userSpaceOnUse"
       spreadMethod="pad"
       id="fill10">
      <stop
         offset="0"
         stop-color="#9C2063"
         id="stop297" />
      <stop
         offset="0.323"
         stop-color="#9C2063"
         id="stop299" />
      <stop
         offset="0.63"
         stop-color="#C82037"
         id="stop301" />
      <stop
         offset="0.751"
         stop-color="#CC2135"
         id="stop303" />
      <stop
         offset="1"
         stop-color="#E87726"
         id="stop305" />
    </linearGradient>
    <linearGradient
       x1="26.242201"
       y1="458.57599"
       x2="215.948"
       y2="51.1894"
       gradientUnits="userSpaceOnUse"
       spreadMethod="pad"
       id="fill11">
      <stop
         offset="0"
         stop-color="#9C2063"
         id="stop308" />
      <stop
         offset="0.323"
         stop-color="#9C2063"
         id="stop310" />
      <stop
         offset="0.63"
         stop-color="#C82037"
         id="stop312" />
      <stop
         offset="0.751"
         stop-color="#CC2135"
         id="stop314" />
      <stop
         offset="1"
         stop-color="#E87726"
         id="stop316" />
    </linearGradient>
    <linearGradient
       x1="24.799299"
       y1="457.905"
       x2="214.505"
       y2="50.517399"
       gradientUnits="userSpaceOnUse"
       spreadMethod="pad"
       id="fill12">
      <stop
         offset="0"
         stop-color="#9C2063"
         id="stop319" />
      <stop
         offset="0.323"
         stop-color="#9C2063"
         id="stop321" />
      <stop
         offset="0.63"
         stop-color="#C82037"
         id="stop323" />
      <stop
         offset="0.751"
         stop-color="#CC2135"
         id="stop325" />
      <stop
         offset="1"
         stop-color="#E87726"
         id="stop327" />
    </linearGradient>
    <linearGradient
       x1="130.92999"
       y1="228.73599"
       x2="172.813"
       y2="138.793"
       gradientUnits="userSpaceOnUse"
       spreadMethod="pad"
       id="fill13">
      <stop
         offset="0"
         stop-color="#9C2063"
         id="stop330" />
      <stop
         offset="0.323"
         stop-color="#9C2063"
         id="stop332" />
      <stop
         offset="0.63"
         stop-color="#C82037"
         id="stop334" />
      <stop
         offset="0.751"
         stop-color="#CC2135"
         id="stop336" />
      <stop
         offset="1"
         stop-color="#E87726"
         id="stop338" />
    </linearGradient>
  </defs>
  <g
     id="layer1">
    <g
       clip-path="url(#clip1)"
       id="g423"
       transform="matrix(0.01942922,0,0,0.01942922,-32.675979,-26.04071)">
      <g
         clip-path="url(#clip2)"
         id="g421">
        <g
           clip-path="url(#clip3)"
           id="g419">
          <path
             d="m 189.913,2.09008 c -6.992,4.12855 -18.63,15.81752 -32.512,32.77042 l 12.721,24.0488 c 8.954,-12.7727 18.037,-24.3069 27.094,-34.0606 0.722,-0.7741 1.058,-1.1353 1.058,-1.1353 -0.336,0.3612 -0.723,0.7741 -1.058,1.1353 -2.968,3.2513 -11.973,13.7791 -25.546,34.5767 13.083,-0.6451 33.029,-3.3287 49.543,-6.1155 4.903,-27.3516 -4.774,-39.7373 -4.774,-39.7373 0,0 -12.282,-19.86864 -26.577,-11.37931 z"
             fill="url(#fill4)"
             transform="matrix(1.00731,0,0,1,1706.33,1490.41)"
             id="path343"
             style="fill:url(#fill4)" />
          <path
             d="m 147.08,204.105 c -1.626,0.284 -3.277,0.594 -5.006,0.878 0,0 -0.026,0 -0.026,0.025 0.877,-0.129 1.729,-0.258 2.58,-0.387 0.8,-0.18 1.626,-0.335 2.452,-0.516 z"
             fill="#bd202e"
             transform="matrix(1.00731,0,0,1,1706.33,1490.41)"
             id="path345" />
          <path
             d="m 147.08,204.105 c -1.626,0.284 -3.277,0.594 -5.006,0.878 0,0 -0.026,0 -0.026,0.025 0.877,-0.129 1.729,-0.258 2.58,-0.387 0.8,-0.18 1.626,-0.335 2.452,-0.516 z"
             transform="matrix(1.00731,0,0,1,1706.33,1490.41)"
             id="path347" />
          <path
             d="m 151.466,183.205 v 0 c -0.026,0 -0.026,0 -0.026,0.025 0.259,-0.025 0.542,-0.077 0.8,-0.129 1.084,-0.154 2.142,-0.335 3.174,-0.593 -1.29,0.232 -2.58,0.464 -3.948,0.697 z"
             fill="#bd202e"
             transform="matrix(1.00731,0,0,1,1706.33,1490.41)"
             id="path349" />
          <path
             d="m 151.466,183.205 v 0 c -0.026,0 -0.026,0 -0.026,0.025 0.259,-0.025 0.542,-0.077 0.8,-0.129 1.084,-0.154 2.142,-0.335 3.174,-0.593 -1.29,0.232 -2.58,0.464 -3.948,0.697 z"
             transform="matrix(1.00731,0,0,1,1706.33,1490.41)"
             id="path351" />
          <path
             d="m 132.63,121.018 c 3.87,-7.251 7.792,-14.321 11.74,-21.1844 4.103,-7.1734 8.283,-14.0887 12.489,-20.7976 0.232,-0.3871 0.516,-0.7999 0.748,-1.187 4.155,-6.5799 8.361,-12.9275 12.567,-18.9655 L 157.453,34.8347 c -0.955,1.1611 -1.91,2.3481 -2.89,3.5866 -3.69,4.5931 -7.483,9.4957 -11.405,14.7338 -4.413,5.8832 -8.928,12.1793 -13.547,18.7849 -4.232,6.0896 -8.567,12.4631 -12.902,19.0946 -3.69,5.6251 -7.354,11.4054 -11.018,17.3404 -0.129,0.206 -0.258,0.438 -0.387,0.67 l 16.592,32.771 c 3.509,-7.096 7.121,-14.037 10.734,-20.798 z"
             fill="url(#fill5)"
             transform="matrix(1.00731,0,0,1,1706.33,1490.41)"
             id="path353"
             style="fill:url(#fill5)" />
          <path
             d="m 57.0256,305.513 c -2.1933,6.012 -4.4124,12.179 -6.6056,18.449 -0.0259,0.078 -0.0517,0.181 -0.1033,0.258 -0.3096,0.878 -0.645,1.781 -0.9289,2.658 -1.4966,4.232 -2.7868,8.051 -5.7542,16.695 4.8769,2.219 8.799,8.102 12.5147,14.76 -0.387,-6.89 -3.2254,-13.367 -8.6699,-18.372 24.0746,1.083 44.898,-5.006 55.4776,-22.604 0.955,-1.574 1.832,-3.2 2.632,-4.98 -4.877,6.192 -10.9409,8.799 -22.3202,8.179 -0.0258,0 -0.0517,0.026 -0.0775,0.026 0.0258,0 0.0517,-0.026 0.0775,-0.026 16.7722,-7.508 25.1582,-14.708 32.5122,-26.577 1.755,-2.839 3.484,-5.909 5.238,-9.341 -14.656,15.043 -31.48,19.327 -49.5424,16.075 l -13.4178,1.471 c -0.4387,1.136 -0.8257,2.245 -1.2644,3.381 z"
             fill="url(#fill6)"
             transform="matrix(1.00731,0,0,1,1706.33,1490.41)"
             id="path355"
             style="fill:url(#fill6)" />
          <path
             d="m 63.4765,275.581 c 2.89,-7.483 5.8832,-15.069 8.928,-22.707 2.9416,-7.328 5.9348,-14.708 9.0312,-22.088 3.0964,-7.38 6.2444,-14.837 9.4441,-22.268 3.2512,-7.561 6.6057,-15.095 10.0372,-22.604 3.381,-7.431 6.787,-14.811 10.27,-22.088 1.239,-2.632 2.529,-5.264 3.793,-7.87 2.193,-4.516 4.413,-9.005 6.657,-13.444 0.13,-0.232 0.233,-0.49 0.362,-0.722 l -16.592,-32.77 c -0.258,0.438 -0.542,0.903 -0.826,1.316 -3.87,6.321 -7.7148,12.772 -11.4821,19.352 -3.8189,6.657 -7.5604,13.444 -11.2245,20.333 -3.0707,5.806 -6.0896,11.638 -9.057,17.572 -0.5935,1.187 -1.1612,2.4 -1.7547,3.587 -3.6125,7.457 -6.8637,14.605 -9.8311,21.546 -3.3544,7.818 -6.296,15.301 -8.8506,22.397 -1.703,4.671 -3.2254,9.161 -4.6446,13.496 -1.1612,3.69 -2.2449,7.405 -3.3287,11.095 -2.4771,8.67 -4.6188,17.34 -6.3734,26.062 l 16.669,33.028 c 2.1933,-5.883 4.464,-11.87 6.7863,-17.908 0.6967,-1.728 1.316,-3.431 1.9869,-5.083 z"
             fill="url(#fill7)"
             transform="matrix(1.00731,0,0,1,1706.33,1490.41)"
             id="path357"
             style="fill:url(#fill7)" />
          <path
             d="m 37.673,266.808 c -2.09,10.528 -3.5866,21.004 -4.3349,31.48 l -0.0774,1.084 c -5.2123,-8.335 -19.1204,-16.463 -19.0946,-16.386 9.9859,14.45 17.5463,28.9 18.6559,42.834 -5.3413,1.084 -12.6437,-0.49 -21.0814,-3.586 8.799,8.102 15.4046,10.321 18.0108,10.94 -8.1023,0.516 -16.5142,6.064 -25.00356,12.463 12.41146,-5.057 22.44896,-7.07 29.67396,-5.444 -11.4051,32.254 -22.8102,67.863 -34.318586,105.794 3.509266,-1.032 5.599346,-3.406 6.760506,-6.58 2.03847,-6.838 15.53368,-51.865 36.64088,-110.697 0.6193,-1.677 1.2128,-3.38 1.8321,-5.057 0.1548,-0.491 0.3354,-0.955 0.516,-1.394 2.2191,-6.192 4.5673,-12.514 6.9412,-18.965 0.5418,-1.471 1.0837,-2.942 1.6514,-4.413 0,-0.025 0.0258,-0.051 0.0258,-0.077 L 37.7763,265.776 c -0.0516,0.335 -0.1291,0.722 -0.2065,1.109 z"
             fill="url(#fill8)"
             transform="matrix(1.00731,0,0,1,1706.33,1490.41)"
             id="path359"
             style="fill:url(#fill8)" />
          <path
             d="m 124.373,144.499 c -0.491,0.981 -0.955,1.961 -1.445,2.942 -1.445,2.967 -2.89,5.986 -4.387,9.083 -1.6,3.354 -3.2,6.76 -4.825,10.27 -0.826,1.754 -1.652,3.535 -2.477,5.341 -2.477,5.393 -4.98,10.966 -7.535,16.72 -3.122,7.045 -6.3476,14.399 -9.573,22.037 -3.0706,7.276 -6.2444,14.785 -9.3925,22.578 -3.0189,7.379 -6.0638,15.017 -9.1602,22.862 -2.7609,6.992 -5.5477,14.217 -8.3345,21.623 -0.129,0.335 -0.258,0.722 -0.387,1.058 -2.7868,7.354 -5.5994,14.914 -8.412,22.655 -0.0516,0.181 -0.129,0.336 -0.1806,0.542 l 13.4178,-1.471 c -0.258,-0.051 -0.5419,-0.077 -0.7999,-0.129 16.0239,-1.987 37.4149,-13.985 51.0909,-28.9 6.348,-6.812 12.102,-14.862 17.417,-24.281 3.948,-6.992 7.69,-14.785 11.251,-23.378 3.096,-7.508 6.063,-15.662 8.928,-24.461 -3.69,1.935 -7.896,3.38 -12.541,4.361 -0.826,0.18 -1.651,0.335 -2.503,0.49 -0.851,0.155 -1.703,0.284 -2.58,0.387 0,0 0.026,0 0.026,-0.026 14.966,-5.754 24.384,-16.85 31.222,-30.448 -3.922,2.684 -10.322,6.193 -17.985,7.87 -1.032,0.232 -2.09,0.413 -3.174,0.593 -0.258,0.026 -0.542,0.078 -0.8,0.13 h 0.026 0.026 c 5.212,-2.168 9.573,-4.619 13.366,-7.483 0.826,-0.62 1.625,-1.239 2.348,-1.91 1.161,-1.006 2.245,-2.064 3.329,-3.148 0.671,-0.722 1.316,-1.445 1.961,-2.193 1.496,-1.781 2.89,-3.69 4.18,-5.754 0.387,-0.646 0.8,-1.265 1.161,-1.936 0.516,-0.954 0.981,-1.909 1.445,-2.812 2.09,-4.18 3.767,-7.948 5.083,-11.225 0.671,-1.651 1.239,-3.148 1.755,-4.593 0.206,-0.567 0.387,-1.109 0.568,-1.651 0.541,-1.574 0.954,-2.968 1.29,-4.206 0.516,-1.858 0.825,-3.329 0.98,-4.387 -0.516,0.387 -1.083,0.8 -1.754,1.187 -4.516,2.71 -12.257,5.135 -18.501,6.296 l 12.308,-1.342 -12.308,1.342 c -0.078,0.026 -0.181,0.026 -0.284,0.052 -0.645,0.103 -1.239,0.206 -1.884,0.284 l 0.31,-0.155 -42.06,4.619 c 0,0.103 -0.077,0.284 -0.155,0.438 z"
             fill="url(#fill9)"
             transform="matrix(1.00731,0,0,1,1706.33,1490.41)"
             id="path361"
             style="fill:url(#fill9)" />
          <path
             d="m 171.851,59.3479 c -3.741,5.7542 -7.818,12.2825 -12.257,19.6881 -0.232,0.3612 -0.49,0.7999 -0.696,1.1611 -3.793,6.3993 -7.819,13.4178 -12.102,21.1329 -3.664,6.657 -7.483,13.779 -11.457,21.443 -3.458,6.683 -7.018,13.779 -10.708,21.288 l 42.059,-4.619 c 12.283,-5.651 17.753,-10.734 23.069,-18.14 1.393,-2.038 2.838,-4.154 4.231,-6.373 4.335,-6.761 8.567,-14.192 12.36,-21.5979 3.664,-7.1476 6.89,-14.2177 9.367,-20.617 1.574,-4.0511 2.838,-7.8184 3.716,-11.1471 0.774,-2.9157 1.367,-5.7025 1.832,-8.3603 -16.334,2.8126 -36.383,5.4962 -49.543,6.1412 z"
             fill="url(#fill10)"
             transform="matrix(1.00731,0,0,1,1706.33,1490.41)"
             id="path363"
             style="fill:url(#fill10)" />
          <path
             d="m 144.499,204.621 c -0.851,0.155 -1.703,0.284 -2.58,0.387 0.877,-0.077 1.755,-0.232 2.58,-0.387 z"
             fill="#bd202e"
             transform="matrix(1.00731,0,0,1,1706.33,1490.41)"
             id="path365" />
          <path
             d="m 144.499,204.621 c -0.851,0.155 -1.703,0.284 -2.58,0.387 0.877,-0.077 1.755,-0.232 2.58,-0.387 z"
             fill="#bd202e"
             fill-opacity="0.35"
             transform="matrix(1.00731,0,0,1,1706.33,1490.41)"
             id="path367" />
          <path
             d="m 144.499,204.621 c -0.851,0.155 -1.703,0.284 -2.58,0.387 0.877,-0.077 1.755,-0.232 2.58,-0.387 z"
             fill="url(#fill11)"
             transform="matrix(1.00731,0,0,1,1706.33,1490.41)"
             id="path369"
             style="fill:url(#fill11)" />
          <path
             d="m 151.466,183.205 c 0.258,-0.026 0.542,-0.078 0.8,-0.129 -0.258,0.025 -0.516,0.103 -0.8,0.129 z"
             fill="#bd202e"
             transform="matrix(1.00731,0,0,1,1706.33,1490.41)"
             id="path371" />
          <path
             d="m 151.466,183.205 c 0.258,-0.026 0.542,-0.078 0.8,-0.129 -0.258,0.025 -0.516,0.103 -0.8,0.129 z"
             fill="#bd202e"
             fill-opacity="0.35"
             transform="matrix(1.00731,0,0,1,1706.33,1490.41)"
             id="path373" />
          <path
             d="m 151.466,183.205 c 0.258,-0.026 0.542,-0.078 0.8,-0.129 -0.258,0.025 -0.516,0.103 -0.8,0.129 z"
             fill="url(#fill12)"
             transform="matrix(1.00731,0,0,1,1706.33,1490.41)"
             id="path375"
             style="fill:url(#fill12)" />
          <path
             d="m 151.466,183.205 c 0.026,0 0.026,-0.026 0,0 0.026,-0.026 0.026,0 0,0 z"
             fill="#bd202e"
             transform="matrix(1.00731,0,0,1,1706.33,1490.41)"
             id="path377" />
          <path
             d="m 151.466,183.205 c 0.026,0 0.026,-0.026 0,0 0.026,-0.026 0.026,0 0,0 z"
             fill="#bd202e"
             fill-opacity="0.35"
             transform="matrix(1.00731,0,0,1,1706.33,1490.41)"
             id="path379" />
          <path
             d="m 151.466,183.205 c 0.026,0 0.026,-0.026 0,0 0.026,-0.026 0.026,0 0,0 z"
             fill="url(#fill13)"
             transform="matrix(1.00731,0,0,1,1706.33,1490.41)"
             id="path381"
             style="fill:url(#fill13)" />
          <path
             d="m 836.9,833.474 c -2.581,-0.463 -12.331,-2.968 -13.815,-3.55 -3.586,-1.382 -15.871,-7.684 -17.355,-8.872 -1.93,-1.587 -2.181,-1.781 -5.697,-4.407 -3.483,-2.592 -10.95,-10.07 -13.587,-13.587 -1.109,-1.484 -2.318,-3.082 -2.695,-3.528 -0.372,-0.452 -0.995,-1.21 -1.381,-1.689 -0.82,-1.004 -7.753,-12.674 -7.753,-13.131 0,-0.14 -0.72,-1.861 -1.598,-3.824 -0.881,-1.964 -2.135,-5.093 -2.774,-6.954 -0.648,-1.861 -1.439,-3.996 -1.759,-4.738 -0.716,-1.667 -2.671,-10.869 -3.379,-15.87 -0.747,-5.321 -0.724,-19.866 0.039,-24.662 2.009,-12.559 3.596,-17.925 8.186,-27.744 0.708,-1.519 1.29,-3.117 1.29,-3.551 0,-0.441 0.305,-0.802 0.677,-0.802 0.372,0 0.677,-0.392 0.677,-0.874 0,-0.481 1.884,-3.722 4.179,-7.205 3.722,-5.651 12.217,-15.071 17.811,-19.638 5.789,-4.818 17.24,-11.086 24.091,-13.244 2.009,-0.619 4.419,-1.393 5.343,-1.713 3.437,-1.187 10.048,-2.055 18.611,-2.431 11.041,-0.492 22.606,0.948 30.827,3.836 6.108,2.158 11.646,4.738 12.102,5.572 0.125,0.279 0.522,0.508 0.883,0.508 1.427,0 9.111,5.823 13.701,10.39 5.332,5.297 8.826,9.933 11.646,15.413 1.735,3.425 1.758,3.585 0.543,4.419 -0.692,0.477 -1.575,1.106 -1.964,1.393 -0.388,0.286 -1.507,0.987 -2.477,1.541 -0.971,0.558 -3.163,1.884 -4.887,2.946 -3.494,2.158 -4.829,2.009 -5.857,-0.698 -2.866,-7.547 -15.984,-19.981 -25.004,-23.52 -9.865,-3.95 -15.87,-5.126 -26.032,-5.115 -10.755,0.011 -17.697,1.325 -26.26,5.024 -2.934,1.256 -9.203,5.001 -10.527,6.291 -0.492,0.478 -1.102,0.87 -1.359,0.87 -0.719,0 -8.243,7.433 -11.531,11.406 -3.585,4.304 -9.808,15.413 -11.281,20.095 -0.584,1.861 -1.324,3.996 -1.655,4.738 -2.878,6.553 -4.567,22.378 -3.517,32.996 0.717,7.239 2.227,14.843 3.528,17.811 0.33,0.745 0.802,2.113 1.049,3.049 1.091,4.099 7.467,15.984 10.801,20.095 3.334,4.144 9.42,10.538 12.217,12.787 3.163,2.592 13.473,9.02 14.386,9.02 0.249,0 1.233,0.414 2.203,0.916 0.962,0.501 4.465,1.644 7.787,2.534 5.07,1.359 7.49,1.61 15.185,1.542 12.902,-0.116 21.009,-2.329 31.855,-8.655 7.079,-4.133 16.898,-13.701 20.323,-19.866 1.302,-2.318 2.672,-4.225 3.049,-4.236 1.438,-0.019 14.5,7.113 14.5,7.912 0,0.948 -3.939,8.472 -4.716,8.997 -0.274,0.186 -0.848,1.005 -1.278,1.816 -1.61,3.071 -9.02,10.31 -15.985,15.642 -3.699,2.831 -13.472,7.809 -20.323,10.31 -9.031,3.322 -14.5,4.213 -27.059,4.407 -6.702,0.102 -12.902,0.05 -13.815,-0.118 z m -540.046,-0.946 c 0,-0.377 0.293,-1.21 0.653,-1.861 0.358,-0.646 1.29,-2.695 2.067,-4.556 0.777,-1.861 1.678,-3.996 2.009,-4.738 0.328,-0.744 2.455,-5.766 4.727,-11.166 2.272,-5.401 4.407,-10.424 4.75,-11.166 0.337,-0.745 1.404,-3.334 2.363,-5.755 0.964,-2.42 2.021,-5.012 2.363,-5.754 0.343,-0.742 1.256,-2.877 2.044,-4.738 0.791,-1.862 1.873,-4.339 2.409,-5.515 0.537,-1.176 0.966,-2.329 0.966,-2.581 0,-0.383 1.302,-3.505 3.391,-8.152 0.336,-0.744 1.393,-3.333 2.363,-5.754 0.971,-2.42 2.033,-5.012 2.364,-5.754 0.339,-0.745 1.404,-3.334 2.363,-5.755 0.964,-2.42 2.033,-5.012 2.364,-5.754 0.335,-0.745 1.256,-2.877 2.032,-4.738 0.786,-1.861 1.701,-3.997 2.021,-4.739 0.328,-0.744 1.998,-4.704 3.722,-8.791 1.713,-4.099 3.402,-8.049 3.734,-8.792 0.334,-0.744 1.861,-4.395 3.379,-8.117 1.53,-3.722 3.049,-7.376 3.38,-8.118 0.332,-0.745 1.667,-3.939 2.968,-7.102 7.296,-17.697 8.963,-21.693 10.584,-25.347 0.33,-0.744 1.393,-3.333 2.364,-5.754 0.97,-2.42 2.352,-5.697 3.082,-7.273 l 1.313,-2.877 h 14.729 l 1.507,3.551 c 1.884,4.418 3.95,9.214 4.75,10.995 2.306,5.172 3.379,7.764 3.379,8.118 0,0.377 1.302,3.448 3.768,8.894 0.531,1.176 0.966,2.329 0.966,2.58 0,0.383 1.046,2.9 3.379,8.152 2.307,5.172 3.38,7.764 3.38,8.118 0,0.227 0.631,1.838 1.404,3.585 0.773,1.747 1.861,4.247 2.409,5.549 0.558,1.302 1.279,2.98 1.61,3.722 0.33,0.744 1.393,3.334 2.352,5.754 0.964,2.421 2.021,5.013 2.352,5.755 0.333,0.744 2.466,5.766 4.75,11.166 2.283,5.401 4.418,10.424 4.75,11.166 0.332,0.745 1.099,2.569 1.701,4.065 6.222,15.299 8.688,21.236 9.465,23.063 0.5,1.117 2.158,5.07 3.699,8.792 1.53,3.722 3.06,7.375 3.391,8.117 0.331,0.743 1.245,2.878 2.032,4.739 0.786,1.861 1.702,3.996 2.033,4.738 0.331,0.742 1.393,3.334 2.363,5.754 0.964,2.421 2.032,5.013 2.364,5.755 3.276,7.261 7.444,17.468 7.444,18.268 0,0.82 -1.656,0.987 -9.762,0.987 -9.545,0 -9.774,-0.035 -10.23,-1.518 -0.416,-1.359 -1.987,-5.184 -3.688,-8.963 -0.336,-0.744 -1.404,-3.334 -2.375,-5.754 -1.655,-4.122 -2.991,-7.307 -4.407,-10.493 -0.33,-0.744 -1.393,-3.334 -2.352,-5.754 -0.964,-2.421 -2.032,-5.013 -2.363,-5.755 -2.056,-4.555 -3.391,-7.764 -3.391,-8.118 0,-0.227 -0.567,-1.689 -1.256,-3.253 -0.692,-1.565 -1.679,-3.825 -2.193,-5.036 l -0.938,-2.203 h -80.036 l -1.37,3.22 c -0.752,1.769 -2.204,5.343 -3.22,7.946 -1.019,2.603 -2.421,6.017 -3.117,7.581 -0.697,1.564 -1.268,3.026 -1.268,3.254 0,0.359 -1.335,3.563 -3.391,8.118 -0.335,0.744 -1.392,3.334 -2.363,5.754 -0.97,2.421 -2.032,5.013 -2.386,5.755 -0.347,0.744 -1.736,4.099 -3.072,7.444 -1.347,3.345 -2.603,6.474 -2.797,6.93 -0.445,1.075 -19.866,1.234 -19.866,0.16 z m 118.741,-71.131 c 0,-0.646 -0.997,-3.083 -3.767,-9.202 -0.531,-1.176 -0.966,-2.341 -0.966,-2.603 0,-0.261 -0.443,-1.428 -0.983,-2.604 -0.541,-1.176 -2.683,-6.393 -4.75,-11.645 -2.066,-5.207 -4.053,-10.082 -4.396,-10.824 -0.344,-0.745 -2.032,-5.012 -3.733,-9.477 -1.713,-4.464 -3.38,-8.734 -3.711,-9.476 -0.331,-0.745 -1.057,-2.421 -1.61,-3.722 -0.557,-1.302 -1.644,-3.802 -2.409,-5.549 -0.772,-1.747 -1.404,-3.425 -1.404,-3.722 0,-0.299 -0.397,-1.302 -0.878,-2.238 -0.481,-0.931 -1.61,-3.676 -2.501,-6.086 -0.895,-2.42 -2.02,-5.16 -2.5,-6.085 -0.481,-0.931 -0.876,-2.078 -0.878,-2.535 -0.011,-1.427 -1.233,-0.939 -1.724,0.677 -0.252,0.837 -0.862,2.432 -1.359,3.551 -0.492,1.117 -2.146,5.081 -3.676,8.792 -1.53,3.722 -3.677,8.894 -4.761,11.531 -1.083,2.603 -6.828,16.441 -12.788,30.827 -5.937,14.272 -11.292,27.174 -11.874,28.544 l -1.073,2.535 h 35.851 c 24.661,0 35.851,-0.223 35.851,-0.714 z m 66.336,-18.953 V 651.79 l 37.678,0.011 c 39.39,0.011 46.583,0.374 52.862,2.729 4.465,1.667 11.372,5.092 12.674,6.256 0.484,0.449 1.895,1.576 3.14,2.501 8.734,6.496 17.126,19.41 20.208,31.512 3.083,11.646 1.816,27.516 -3.059,38.591 -7.011,15.87 -18.839,26.831 -33.682,31.398 -2.991,0.906 -8.928,1.117 -37.563,1.336 l -34.024,0.255 v 66.906 H 481.897 V 742.63 Z m 80.265,6.714 c 12.445,-1.724 22.606,-11.235 27.63,-26.032 1.735,-5.081 2.135,-19.067 0.699,-24.776 -1.953,-7.65 -5.526,-14.043 -10.836,-19.296 -2.637,-2.603 -5.697,-5.195 -6.816,-5.754 -1.112,-0.557 -2.169,-1.176 -2.363,-1.381 -0.186,-0.201 -1.713,-0.955 -3.38,-1.679 -2.843,-1.222 -5.16,-1.324 -35.051,-1.53 l -31.969,-0.217 v 81.293 h 28.315 c 16.67,0 30.599,-0.303 33.682,-0.732 z m 37.906,83.461 c -0.164,-0.278 0.87,-3.242 2.294,-6.599 1.428,-3.345 5.218,-12.445 8.438,-20.323 3.208,-7.821 6.245,-15.071 6.748,-16.213 0.502,-1.117 2.169,-5.081 3.71,-8.791 2.695,-6.52 4.156,-9.979 5.424,-12.902 0.328,-0.744 1.849,-4.396 3.379,-8.118 1.53,-3.722 3.186,-7.684 3.677,-8.791 0.491,-1.108 2.466,-5.835 4.384,-10.493 1.918,-4.647 4.373,-10.595 5.446,-13.244 2.295,-5.549 9.979,-23.749 10.858,-25.689 0.332,-0.745 1.393,-3.334 2.352,-5.755 0.964,-2.42 2.021,-5.012 2.364,-5.754 0.335,-0.745 1.255,-2.877 2.043,-4.739 0.791,-1.861 1.873,-4.338 2.409,-5.514 0.531,-1.176 0.966,-2.329 0.966,-2.58 0,-0.383 1.046,-2.901 3.38,-8.153 1.347,-3.014 3.277,-7.672 4.772,-11.531 0.875,-2.238 1.873,-4.442 2.215,-4.91 0.431,-0.585 2.855,-0.846 7.901,-0.846 h 7.285 l 0.882,2.204 c 1.77,4.418 9.545,22.835 11.418,27.288 0.328,0.744 1.849,4.395 3.368,8.117 1.518,3.722 3.06,7.376 3.402,8.118 0.343,0.745 2.934,6.988 5.743,13.93 2.82,6.884 5.401,13.13 5.732,13.815 0.334,0.744 2.192,5.16 4.121,9.807 4.579,10.995 9.328,22.264 10.093,23.977 0.333,0.744 1.245,2.877 2.033,4.738 0.785,1.861 1.701,3.996 2.032,4.738 0.336,0.745 1.404,3.334 2.375,5.755 1.655,4.121 2.991,7.307 4.407,10.492 0.33,0.745 1.393,3.334 2.363,5.755 0.971,2.42 2.204,5.355 2.741,6.531 0.535,1.176 0.972,2.34 0.972,2.591 0,0.256 0.914,2.444 2.033,4.853 1.116,2.409 2.032,4.544 2.032,4.749 0,0.206 0.437,1.313 0.973,2.489 0.535,1.176 1.769,4.111 2.74,6.531 0.97,2.421 2.044,5.012 2.375,5.755 2.34,5.206 3.391,7.798 3.391,8.426 0,1.088 -18.611,0.961 -19.41,-0.133 -0.373,-0.466 -3.345,-7.398 -6.588,-15.413 -3.254,-8.004 -6.314,-15.414 -6.805,-16.556 -0.491,-1.116 -1.689,-4.007 -2.66,-6.428 -0.97,-2.42 -2.044,-5.012 -2.375,-5.754 -0.918,-2.032 -3.06,-7.159 -4.042,-9.648 l -0.867,-2.203 -80.493,0.349 -4.008,9.808 c -2.203,5.4 -4.304,10.515 -4.658,11.383 -0.359,0.862 -0.652,1.712 -0.652,1.895 0,0.29 -1.473,3.768 -3.391,8.038 -0.336,0.744 -1.404,3.334 -2.375,5.754 -0.97,2.421 -2.169,5.31 -2.649,6.428 -0.488,1.117 -1.895,4.545 -3.14,7.616 l -2.249,5.583 h -9.305 c -5.115,0 -9.431,-0.228 -9.602,-0.507 z m 117.599,-70.902 c 0,-0.334 -2.329,-6.131 -4.338,-10.801 -0.481,-1.117 -1.587,-4.008 -2.466,-6.428 -0.875,-2.421 -1.987,-5.161 -2.467,-6.086 -0.48,-0.93 -0.875,-1.941 -0.878,-2.237 -0.011,-0.472 -1.198,-3.369 -3.391,-8.255 -0.335,-0.745 -1.404,-3.334 -2.374,-5.755 -0.971,-2.42 -2.158,-5.309 -2.649,-6.428 -0.488,-1.116 -1.45,-3.55 -2.135,-5.412 -0.684,-1.861 -1.633,-4.144 -2.113,-5.08 -0.477,-0.931 -0.87,-1.953 -0.872,-2.261 0,-0.316 -0.444,-1.53 -0.982,-2.706 -0.537,-1.176 -2.101,-5.024 -3.471,-8.563 -1.37,-3.539 -3.014,-7.65 -3.665,-9.134 -0.646,-1.484 -1.598,-3.699 -2.112,-4.909 -1.176,-2.741 -1.941,-2.524 -3.094,0.884 -0.496,1.473 -1.187,3.277 -1.541,4.019 -0.352,0.745 -1.279,2.878 -2.067,4.739 -0.785,1.861 -1.701,3.996 -2.044,4.738 -0.55,1.221 -7.912,18.839 -17.012,40.646 -1.861,4.464 -3.653,8.734 -3.984,9.476 -0.331,0.743 -1.85,4.396 -3.369,8.118 -1.518,3.722 -3.208,7.764 -3.756,8.986 -0.548,1.221 -0.993,2.363 -0.993,2.534 0,0.174 16.098,0.316 35.851,0.316 19.752,0 35.85,-0.163 35.85,-0.359 z m 227.208,70.56 c -0.182,-0.476 -0.251,-41.217 -0.155,-90.541 l 0.173,-89.627 h 17.583 l 0.175,40.076 0.174,40.075 h 106.181 v -80.493 h 18.27 v 181.537 h -18.27 V 748.701 H 962.859 l -0.348,84.261 -8.643,0.189 c -6.542,0.144 -8.723,-0.02 -8.974,-0.677 z m 182.681,-89.856 v -90.654 h 118.74 v 16.898 h -100.82 v 63.595 h 87.92 v 16.213 h -87.92 v 67.705 h 102.87 v 16.898 h -121.02 z"
             fill="#aa0000"
             transform="matrix(1.00731,0,0,1,1623.29,957.214)"
             id="path383" />
          <path
             d="m 292.287,911.113 v -56.174 h 9.476 v 24.319 h 27.859 v -24.319 h 9.477 v 56.174 h -9.477 v -22.949 h -27.859 v 22.949 z"
             transform="matrix(1.00731,0,0,1,1623.29,957.214)"
             id="path385" />
          <path
             d="m 375.634,864.302 v 47.496 h -9.476 v -47.496 h -17.012 v -8.678 h 43.5 v 8.678 z"
             transform="matrix(1.00731,0,0,1,1623.29,957.214)"
             id="path387" />
          <path
             d="m 423.588,864.302 v 47.496 h -9.477 v -47.496 h -17.012 v -8.678 H 440.6 v 8.678 z"
             transform="matrix(1.00731,0,0,1,1623.29,957.214)"
             id="path389" />
          <path
             d="m 470.399,855.168 c 8.525,0 14.729,1.632 18.611,4.898 3.904,3.265 5.857,8.289 5.857,15.071 0,6.797 -2.01,11.783 -6.029,14.957 -3.958,3.158 -10.047,4.738 -18.267,4.738 h -9.956 v 16.441 h -9.477 v -56.174 z m 1.211,31.055 c 5.244,0 8.802,-0.989 10.675,-2.968 1.926,-2.033 2.888,-4.978 2.888,-8.838 0,-3.904 -1.206,-6.66 -3.619,-8.266 -2.413,-1.606 -6.188,-2.409 -11.326,-2.409 h -9.636 v 22.493 z"
             transform="matrix(1.00731,0,0,1,1623.29,957.214)"
             id="path391" />
          <path
             d="m 544.613,862.018 c -2.733,0 -4.982,0.563 -6.748,1.69 -1.766,1.126 -2.649,2.839 -2.649,5.138 0,2.245 0.883,3.984 2.649,5.217 1.766,1.18 5.515,2.467 11.246,3.86 5.785,1.393 10.124,3.345 13.016,5.857 2.946,2.519 4.419,6.241 4.419,11.166 0,4.872 -1.846,8.83 -5.538,11.874 -3.691,3.045 -8.525,4.571 -14.5,4.579 -8.753,0 -16.555,-3.026 -23.406,-9.077 l 5.937,-7.148 c 5.679,4.925 11.578,7.387 17.697,7.387 3.053,0 5.462,-0.643 7.228,-1.929 1.819,-1.34 2.728,-3.079 2.728,-5.218 0,-2.192 -0.856,-3.878 -2.569,-5.058 -1.659,-1.233 -4.551,-2.329 -8.677,-3.288 -4.125,-1.02 -7.257,-1.93 -9.396,-2.729 -2.139,-0.86 -4.038,-1.956 -5.698,-3.288 -3.318,-2.52 -4.978,-6.363 -4.978,-11.532 0,-5.191 1.873,-9.187 5.618,-11.988 3.798,-2.839 8.479,-4.259 14.043,-4.259 3.585,0 7.144,0.59 10.676,1.77 3.531,1.18 6.584,2.839 9.156,4.978 l -5.058,7.147 c -1.659,-1.499 -3.908,-2.732 -6.747,-3.699 -2.839,-0.967 -5.652,-1.45 -8.438,-1.45 z"
             transform="matrix(1.00731,0,0,1,1623.29,957.214)"
             id="path393" />
          <path
             d="m 618.826,855.168 v 8.917 h -29.914 v 14.842 h 26.946 v 8.438 h -26.946 v 15.071 h 30.942 v 8.917 h -40.418 v -56.174 z"
             transform="matrix(1.00731,0,0,1,1623.29,957.214)"
             id="path395" />
          <path
             d="m 675.914,873.436 c 0,9.286 -4.035,15.109 -12.103,17.468 l 14.728,20.437 h -12.102 l -13.358,-18.838 h -12.445 v 18.838 h -9.477 v -56.173 h 20.894 c 8.601,0 14.729,1.446 18.382,4.338 3.692,2.893 5.538,7.536 5.538,13.93 z m -23.52,10.435 c 5.351,0 8.993,-0.83 10.926,-2.489 1.933,-1.659 2.896,-4.308 2.889,-7.946 0,-3.692 -0.99,-6.208 -2.969,-7.547 -1.979,-1.393 -5.511,-2.09 -10.595,-2.09 h -12.103 v 20.095 z"
             transform="matrix(1.00731,0,0,1,1623.29,957.214)"
             id="path397" />
          <path
             d="m 714.733,911.113 h -10.596 l -22.606,-56.174 h 10.595 l 17.241,41.902 17.24,-41.902 h 10.595 z"
             transform="matrix(1.00731,0,0,1,1623.29,957.214)"
             id="path399" />
          <path
             d="m 784.379,855.168 v 8.917 h -29.913 v 14.842 h 26.945 v 8.438 h -26.945 v 15.071 h 30.941 v 8.917 h -40.418 v -56.174 z"
             transform="matrix(1.00731,0,0,1,1623.29,957.214)"
             id="path401" />
          <path
             d="m 842.608,873.436 c 0,9.286 -4.034,15.109 -12.102,17.468 l 14.728,20.437 h -12.102 l -13.359,-18.838 h -12.445 v 18.838 h -9.476 v -56.173 h 20.894 c 8.601,0 14.728,1.446 18.382,4.338 3.692,2.893 5.537,7.536 5.537,13.93 z m -23.52,10.435 c 5.351,0 8.994,-0.83 10.927,-2.489 1.933,-1.659 2.896,-4.308 2.889,-7.946 0,-3.692 -0.99,-6.208 -2.969,-7.547 -1.979,-1.393 -5.511,-2.09 -10.595,-2.09 h -12.103 v 20.095 z"
             transform="matrix(1.00731,0,0,1,1623.29,957.214)"
             id="path403" />
          <path
             d="m 897.412,855.168 c 8.525,0 14.729,1.632 18.611,4.898 3.904,3.265 5.857,8.289 5.857,15.071 0,6.797 -2.01,11.783 -6.029,14.957 -3.958,3.158 -10.047,4.738 -18.268,4.738 h -9.956 v 16.441 h -9.476 v -56.174 z m 1.21,31.055 c 5.245,0 8.803,-0.989 10.676,-2.968 1.926,-2.033 2.888,-4.978 2.888,-8.838 0,-3.904 -1.206,-6.66 -3.619,-8.266 -2.413,-1.606 -6.188,-2.409 -11.326,-2.409 h -9.636 v 22.493 z"
             transform="matrix(1.00731,0,0,1,1623.29,957.214)"
             id="path405" />
          <path
             d="m 978.476,873.436 c 0,9.286 -4.034,15.109 -12.102,17.468 l 14.728,20.437 H 969 l -13.359,-18.838 h -12.445 v 18.838 h -9.476 v -56.173 h 20.894 c 8.601,0 14.728,1.446 18.382,4.338 3.691,2.893 5.537,7.536 5.537,13.93 z m -23.52,10.435 c 5.351,0 8.993,-0.83 10.927,-2.489 1.933,-1.659 2.896,-4.308 2.888,-7.946 0,-3.692 -0.989,-6.208 -2.968,-7.547 -1.979,-1.393 -5.511,-2.09 -10.596,-2.09 h -12.102 v 20.095 z"
             transform="matrix(1.00731,0,0,1,1623.29,957.214)"
             id="path407" />
          <path
             d="m 1032.14,868.869 c -3.8,-3.958 -8.48,-5.938 -14.05,-5.938 -5.56,0 -10.28,1.98 -14.15,5.938 -3.8,3.958 -5.7,8.791 -5.7,14.5 0,5.625 1.9,10.42 5.7,14.386 3.85,3.958 8.57,5.937 14.15,5.937 5.59,0 10.27,-1.979 14.05,-5.937 3.85,-3.958 5.78,-8.754 5.78,-14.386 0,-5.679 -1.93,-10.512 -5.78,-14.5 z m 6.99,35.165 c -5.68,5.511 -12.69,8.267 -21.01,8.267 -8.33,0 -15.33,-2.756 -21.011,-8.267 -5.678,-5.564 -8.517,-12.452 -8.517,-20.665 0,-8.297 2.839,-15.185 8.517,-20.666 5.681,-5.564 12.681,-8.346 21.011,-8.346 8.32,0 15.33,2.782 21.01,8.346 5.67,5.511 8.51,12.4 8.51,20.666 0,8.22 -2.84,15.109 -8.51,20.665 z"
             transform="matrix(1.00731,0,0,1,1623.29,957.214)"
             id="path409" />
          <path
             d="m 1059.54,863.16 v -8.518 h 27.29 v 36.993 c 0,6.531 -1.66,11.44 -4.98,14.729 -3.32,3.265 -7.58,4.898 -12.79,4.898 -6.53,0 -12.09,-2.303 -16.67,-6.908 l 5.38,-7.467 c 3.64,3.479 7.2,5.218 10.68,5.218 2.46,0 4.55,-0.83 6.26,-2.489 1.77,-1.66 2.65,-4.149 2.65,-7.467 v -29.001 z"
             transform="matrix(1.00731,0,0,1,1623.29,957.214)"
             id="path411" />
          <path
             d="m 1140.6,855.168 v 8.917 h -29.91 v 14.842 h 26.95 v 8.438 h -26.95 v 15.071 h 30.94 v 8.917 h -40.42 v -56.174 z"
             transform="matrix(1.00731,0,0,1,1623.29,957.214)"
             id="path413" />
          <path
             d="m 1179.42,903.121 c 3.27,0 6.08,-0.537 8.44,-1.61 2.35,-1.126 4.82,-2.892 7.39,-5.298 l 6.11,6.269 c -5.95,6.584 -13.18,9.876 -21.7,9.876 -8.45,0 -15.49,-2.729 -21.12,-8.187 -5.56,-5.457 -8.35,-12.346 -8.35,-20.665 0,-8.32 2.84,-15.284 8.52,-20.894 5.73,-5.564 12.93,-8.346 21.58,-8.346 8.75,0 16.02,3.212 21.81,9.636 l -6.03,6.588 c -2.68,-2.573 -5.22,-4.365 -7.63,-5.378 -2.35,-1.02 -5.13,-1.53 -8.34,-1.53 -5.68,0 -10.44,1.846 -14.27,5.538 -3.86,3.638 -5.78,8.319 -5.78,14.043 0,5.678 1.9,10.436 5.7,14.272 3.85,3.798 8.41,5.697 13.7,5.697 z"
             transform="matrix(1.00731,0,0,1,1623.29,957.214)"
             id="path415" />
          <path
             d="m 1234.23,864.302 v 47.496 h -9.48 v -47.496 h -17.01 v -8.678 h 43.5 v 8.678 z"
             transform="matrix(1.00731,0,0,1,1623.29,957.214)"
             id="path417" />
        </g>
      </g>
    </g>
  </g>
</svg>
