<svg xmlns="http://www.w3.org/2000/svg" xmlns:xlink="http://www.w3.org/1999/xlink" width="90" height="55" viewBox="0 0 90 55">
  <defs>
    <clipPath id="clip-aws-ecs">
      <rect width="90" height="55"/>
    </clipPath>
  </defs>
  <g id="aws-ecs" clip-path="url(#clip-aws-ecs)">
    <rect width="90" height="55" fill="#fff"/>
    <g id="Layer_2" data-name="Layer 2" transform="translate(-835.779 -94.837)">
      <g id="Layer_1-2" data-name="Layer 1-2" transform="translate(855.779 94.837)">
        <g id="Group_4" data-name="Group 4" transform="translate(0 0)">
          <path id="Path_1730" data-name="Path 1730" d="M881.072,149.838a2.444,2.444,0,0,1-1.206-.313l-22.875-13.475a2.59,2.59,0,0,1-1.211-2.054V108.306a2.58,2.58,0,0,1,1.173-2.084L877.29,95.062a1.658,1.658,0,0,1,1.653-.007,1.627,1.627,0,0,1,.767,1.434l.072,10.01a2.6,2.6,0,0,1-1.169,2.094l-9.65,5.383-.008,14.4,12.187,6.937,9.982-5.011a2.542,2.542,0,0,1,2.34.007l8.113,5.18a1.606,1.606,0,0,1-.159,2.95L882.3,149.517A2.49,2.49,0,0,1,881.072,149.838Zm-3.749-52.062-19.148,10.5v25.659l22.887,13.51L899.332,136.9l-7.066-4.517-9.907,5.044a2.679,2.679,0,0,1-2.327.012l-12.2-6.939a2.537,2.537,0,0,1-1.273-2.045l0-14.448a2.6,2.6,0,0,1,1.169-2.082l9.65-5.383Zm23.085,38.5a.253.253,0,0,0-.109.063Z" transform="translate(-855.779 -94.838)" fill="#ef7922"/>
        </g>
        <g id="Group_5" data-name="Group 5" transform="translate(25.991)">
          <path id="Path_1731" data-name="Path 1731" d="M936.632,133.69a1.693,1.693,0,0,1-.907-.276l-9.779-6.026a2.7,2.7,0,0,1-1.189-2.033l0-10.965-9.6-5.474a2.6,2.6,0,0,1-1.227-2.012l0-10.408a1.641,1.641,0,0,1,.791-1.448,1.6,1.6,0,0,1,1.617.02l20.6,11.425a2.6,2.6,0,0,1,1.236,2.019l0,23.558a1.618,1.618,0,0,1-.815,1.436A1.479,1.479,0,0,1,936.632,133.69Zm.355-2.311.013.007Zm-9.839-6.113a.691.691,0,0,0,.116.124l8.509,5.24V108.593L916.32,97.8v9.02l9.6,5.451a2.633,2.633,0,0,1,1.227,2.049l0,10.947Z" transform="translate(-913.924 -94.837)" fill="#ef7922"/>
        </g>
      </g>
    </g>
  </g>
</svg>
