<svg xmlns="http://www.w3.org/2000/svg" xmlns:xlink="http://www.w3.org/1999/xlink" width="90" height="55" viewBox="0 0 90 55">
  <defs>
    <clipPath id="clip-generic-etl-workflows">
      <rect width="90" height="55"/>
    </clipPath>
  </defs>
  <g id="generic-etl-workflows" clip-path="url(#clip-generic-etl-workflows)">
    <rect width="90" height="55" fill="#fff"/>
    <path id="Path_2136" data-name="Path 2136" d="M327.111,564.981A10.576,10.576,0,0,0,348.05,567.1h12.907v6.346a2.116,2.116,0,0,0,2.115,2.115H380a2.115,2.115,0,0,0,2.115-2.115V556.519A2.116,2.116,0,0,0,380,554.4H363.072a2.116,2.116,0,0,0-2.115,2.115v6.346H348.05v-.008a10.646,10.646,0,0,0-8.247-8.238V540.473l7.222-7.222h14.147a10.577,10.577,0,1,0,0-4.23H347.025l-7.841-7.842a2.116,2.116,0,0,0-2.992,0l-8.461,8.461a2.114,2.114,0,0,0,0,2.992l7.841,7.842v14.146A10.62,10.62,0,0,0,327.111,564.981Zm4.231,0a6.346,6.346,0,1,1,6.346,6.346A6.314,6.314,0,0,1,331.342,564.981Zm.876-33.846,5.47-5.471,5.47,5.471-5.47,5.47Zm32.97,40.192V558.635H377.88v12.692Zm0-40.192a6.346,6.346,0,1,1,6.346,6.346A6.314,6.314,0,0,1,365.188,531.135Z" transform="translate(-310.111 -520.558)"/>
  </g>
</svg>
