<svg xmlns="http://www.w3.org/2000/svg" xmlns:xlink="http://www.w3.org/1999/xlink" width="90" height="55" viewBox="0 0 90 55">
  <defs>
    <clipPath id="clip-golang">
      <rect width="90" height="55"/>
    </clipPath>
  </defs>
  <g id="golang" clip-path="url(#clip-golang)">
    <rect width="90" height="55" fill="#fff"/>
    <g id="Group_71" data-name="Group 71" transform="translate(36.044 13.236)">
      <path id="Path_1812" data-name="Path 1812" d="M833.815,340.214c-.172,0-.214-.085-.129-.214l.9-1.156a.613.613,0,0,1,.471-.214h15.3c.172,0,.214.128.128.257L849.753,340a.651.651,0,0,1-.428.257Zm-6.47,3.942c-.172,0-.214-.085-.129-.214l.9-1.157a.613.613,0,0,1,.471-.214h19.538a.2.2,0,0,1,.214.257L848,343.856a.374.374,0,0,1-.385.257Zm10.369,3.942c-.172,0-.214-.129-.129-.257l.6-1.071a.569.569,0,0,1,.428-.257h8.57c.171,0,.257.129.257.3l-.086,1.029a.322.322,0,0,1-.3.3Zm44.474-8.655c-2.7.686-4.542,1.2-7.2,1.885-.642.171-.685.214-1.243-.429a5.731,5.731,0,0,0-2.014-1.628,7.45,7.45,0,0,0-7.755.643,9.112,9.112,0,0,0-4.37,8.141,6.717,6.717,0,0,0,5.784,6.727,7.907,7.907,0,0,0,7.284-2.828c.385-.471.728-.985,1.157-1.586h-8.269c-.9,0-1.114-.557-.814-1.285.557-1.329,1.586-3.556,2.185-4.671a1.157,1.157,0,0,1,1.071-.685h15.6c-.086,1.156-.086,2.313-.257,3.47a18.274,18.274,0,0,1-3.514,8.4,17.849,17.849,0,0,1-12.211,7.284,15.176,15.176,0,0,1-11.525-2.828,13.457,13.457,0,0,1-5.442-9.512,16.816,16.816,0,0,1,3.642-12.554,19.016,19.016,0,0,1,12-7.413,14.763,14.763,0,0,1,11.354,2.1,13.431,13.431,0,0,1,4.97,6.041C882.873,339.1,882.7,339.314,882.188,339.443Z" transform="translate(-862.217 -332.495)"/>
      <path id="Path_1813" data-name="Path 1813" d="M940.814,363.464a16.075,16.075,0,0,1-10.454-3.771,13.438,13.438,0,0,1-4.627-8.269,16.356,16.356,0,0,1,3.471-12.939,17.962,17.962,0,0,1,12-7.156c4.37-.771,8.484-.343,12.211,2.185a13.338,13.338,0,0,1,6.041,9.555,16.539,16.539,0,0,1-4.927,14.524,19.632,19.632,0,0,1-10.283,5.485c-1.157.214-2.314.257-3.428.386Zm10.2-17.31a12.513,12.513,0,0,0-.129-1.414,7.058,7.058,0,0,0-8.741-5.7,9.36,9.36,0,0,0-7.5,7.455,7.057,7.057,0,0,0,3.942,8.1,7.855,7.855,0,0,0,6.984-.257,9.378,9.378,0,0,0,5.442-8.184Z" transform="translate(-906.661 -332.822)"/>
    </g>
  </g>
</svg>
