<svg xmlns="http://www.w3.org/2000/svg" xmlns:xlink="http://www.w3.org/1999/xlink" width="90" height="55" viewBox="0 0 90 55">
  <defs>
    <clipPath id="clip-kafka">
      <rect width="90" height="55"/>
    </clipPath>
  </defs>
  <g id="kafka" clip-path="url(#clip-kafka)">
    <rect width="90" height="55" fill="#fff"/>
    <g id="Group_64" data-name="Group 64" transform="translate(-1747.051 -326.397)">
      <path id="Path_1824" data-name="Path 1824" d="M1801.756,356.86a7.147,7.147,0,0,0-5.377,2.443l-3.369-2.385a9.09,9.09,0,0,0,.019-6.246l3.362-2.36a7.153,7.153,0,1,0-1.506-2.7l-3.364,2.362a9.251,9.251,0,0,0-5.734-3.332v-4.054a7.181,7.181,0,1,0-3.078-.033v4.107a9.25,9.25,0,0,0,.064,18.235v4.337a7.17,7.17,0,1,0,3.078,0v-4.337a9.259,9.259,0,0,0,5.637-3.279l3.392,2.4a7.167,7.167,0,1,0,6.876-5.154Zm0-16.765a3.476,3.476,0,1,1-3.477,3.476,3.48,3.48,0,0,1,3.477-3.476Zm-20.921-6.529a3.476,3.476,0,1,1,3.476,3.476,3.48,3.48,0,0,1-3.476-3.476Zm6.952,40.66a3.476,3.476,0,1,1-3.476-3.476,3.48,3.48,0,0,1,3.476,3.476Zm-3.476-15.61a4.848,4.848,0,1,1,4.848-4.848,4.854,4.854,0,0,1-4.848,4.848Zm17.444,8.889a3.476,3.476,0,1,1,3.476-3.476,3.48,3.48,0,0,1-3.476,3.476Z"/>
    </g>
  </g>
</svg>
