<svg xmlns="http://www.w3.org/2000/svg" xmlns:xlink="http://www.w3.org/1999/xlink" width="82" height="60" viewBox="0 0 82 60">
  <defs>
    <linearGradient id="linear-gradient" x1="0.848" y1="1.114" x2="0.582" y2="0.646" gradientUnits="objectBoundingBox">
      <stop offset="0" stop-color="#fb7655"/>
      <stop offset="0.41" stop-color="#e42b1e"/>
      <stop offset="0.99" stop-color="#900"/>
    </linearGradient>
    <linearGradient id="linear-gradient-2" x1="1.167" y1="0.609" x2="0.018" y2="0.193" gradientUnits="objectBoundingBox">
      <stop offset="0" stop-color="#871101"/>
      <stop offset="0.99" stop-color="#911209"/>
    </linearGradient>
    <linearGradient id="linear-gradient-3" x1="0.758" y1="2.193" x2="0.39" y2="0.078" xlink:href="#linear-gradient-2"/>
    <linearGradient id="linear-gradient-4" x1="0.5" y1="0.072" x2="0.665" y2="0.791" gradientUnits="objectBoundingBox">
      <stop offset="0" stop-color="#fff"/>
      <stop offset="0.23" stop-color="#e57252"/>
      <stop offset="0.46" stop-color="#de3b20"/>
      <stop offset="0.99" stop-color="#a60003"/>
    </linearGradient>
    <linearGradient id="linear-gradient-5" x1="0.462" y1="0.163" x2="0.499" y2="0.831" gradientUnits="objectBoundingBox">
      <stop offset="0" stop-color="#fff"/>
      <stop offset="0.23" stop-color="#e4714e"/>
      <stop offset="0.56" stop-color="#be1a0d"/>
      <stop offset="0.99" stop-color="#a80d00"/>
    </linearGradient>
    <linearGradient id="linear-gradient-6" x1="0.37" y1="0.156" x2="0.495" y2="0.925" gradientUnits="objectBoundingBox">
      <stop offset="0" stop-color="#fff"/>
      <stop offset="0.18" stop-color="#e46342"/>
      <stop offset="0.4" stop-color="#c82410"/>
      <stop offset="0.99" stop-color="#a80d00"/>
    </linearGradient>
    <linearGradient id="linear-gradient-7" x1="0.136" y1="0.584" x2="0.858" y2="-0.467" gradientUnits="objectBoundingBox">
      <stop offset="0" stop-color="#fff"/>
      <stop offset="0.54" stop-color="#c81f11"/>
      <stop offset="0.99" stop-color="#bf0905"/>
    </linearGradient>
    <linearGradient id="linear-gradient-8" x1="0.276" y1="0.211" x2="0.507" y2="0.79" gradientUnits="objectBoundingBox">
      <stop offset="0" stop-color="#fff"/>
      <stop offset="0.31" stop-color="#de4024"/>
      <stop offset="0.99" stop-color="#bf190b"/>
    </linearGradient>
    <linearGradient id="linear-gradient-9" x1="-0.207" y1="1.223" x2="1.042" y2="-0.063" gradientUnits="objectBoundingBox">
      <stop offset="0" stop-color="#bd0012"/>
      <stop offset="0.07" stop-color="#fff"/>
      <stop offset="0.17" stop-color="#fff"/>
      <stop offset="0.27" stop-color="#c82f1c"/>
      <stop offset="0.33" stop-color="#820c01"/>
      <stop offset="0.46" stop-color="#a31601"/>
      <stop offset="0.72" stop-color="#b31301"/>
      <stop offset="0.99" stop-color="#e82609"/>
    </linearGradient>
    <linearGradient id="linear-gradient-10" x1="0.588" y1="0.652" x2="0.12" y2="0.501" gradientUnits="objectBoundingBox">
      <stop offset="0" stop-color="#8c0c01"/>
      <stop offset="0.54" stop-color="#990c00"/>
      <stop offset="0.99" stop-color="#a80d0e"/>
    </linearGradient>
    <linearGradient id="linear-gradient-11" x1="0.793" y1="0.627" x2="0.231" y2="0.179" gradientUnits="objectBoundingBox">
      <stop offset="0" stop-color="#7e110b"/>
      <stop offset="0.99" stop-color="#9e0c00"/>
    </linearGradient>
    <linearGradient id="linear-gradient-12" x1="0.929" y1="0.741" x2="0.598" y2="0.397" gradientUnits="objectBoundingBox">
      <stop offset="0" stop-color="#79130d"/>
      <stop offset="0.99" stop-color="#9e120b"/>
    </linearGradient>
    <radialGradient id="radial-gradient" cx="0.32" cy="0.4" r="0.91" gradientUnits="objectBoundingBox">
      <stop offset="0" stop-color="#a80d00"/>
      <stop offset="0.99" stop-color="#7e0e08"/>
    </radialGradient>
    <radialGradient id="radial-gradient-2" cx="0.14" cy="0.41" r="0.99" gradientUnits="objectBoundingBox">
      <stop offset="0" stop-color="#a30c00"/>
      <stop offset="0.99" stop-color="#800e08"/>
    </radialGradient>
    <linearGradient id="linear-gradient-13" x1="0.566" y1="1.017" x2="0.031" y2="0.12" gradientUnits="objectBoundingBox">
      <stop offset="0" stop-color="#8b2114"/>
      <stop offset="0.43" stop-color="#9e100a"/>
      <stop offset="0.99" stop-color="#b3100c"/>
    </linearGradient>
    <linearGradient id="linear-gradient-14" x1="0.309" y1="0.356" x2="0.925" y2="1.007" gradientUnits="objectBoundingBox">
      <stop offset="0" stop-color="#b31000"/>
      <stop offset="0.44" stop-color="#910f08"/>
      <stop offset="0.99" stop-color="#791c12"/>
    </linearGradient>
    <clipPath id="clip-lang-ruby">
      <rect width="82" height="60"/>
    </clipPath>
  </defs>
  <g id="lang-ruby" clip-path="url(#clip-lang-ruby)">
    <g id="ruby-vertical" transform="translate(20)">
      <g id="Group_60" data-name="Group 60">
        <path id="Path_46" data-name="Path 46" d="M35.721,30.939,12.532,44.711l30.026-2.038L44.871,12.4Z" transform="translate(-4.254 -4.208)" fill-rule="evenodd" fill="url(#linear-gradient)"/>
        <path id="Path_47" data-name="Path 47" d="M50.543,31.236l-7.032,9.283,9.61,8.528Z" transform="translate(-14.77 -10.603)" fill-rule="evenodd" fill="url(#linear-gradient-2)"/>
        <path id="Path_48" data-name="Path 48" d="M23.786,55.956l-11.1,3.506L42.7,57.442Z" transform="translate(-4.306 -18.995)" fill-rule="evenodd" fill="url(#linear-gradient-3)"/>
        <path id="Path_49" data-name="Path 49" d="M14.534,37.841,4.14,40.063,9.81,53.312Z" transform="translate(-1.405 -12.845)" fill-rule="evenodd" fill="url(#linear-gradient-4)"/>
        <path id="Path_50" data-name="Path 50" d="M30.54,19.595,18.1,31.251l16.783,5.365Z" transform="translate(-6.145 -6.652)" fill-rule="evenodd" fill="url(#linear-gradient-5)"/>
        <path id="Path_51" data-name="Path 51" d="M40.516,5.422,37.242,16.006l15.031-.984Z" transform="translate(-12.642 -1.841)" fill-rule="evenodd" fill="url(#linear-gradient-6)"/>
        <path id="Path_52" data-name="Path 52" d="M38.964,4.031,34.6.161,45.879.213Z" transform="translate(-11.746 -0.055)" fill-rule="evenodd" fill="url(#linear-gradient-7)"/>
        <path id="Path_53" data-name="Path 53" d="M2.9,37.831.554,31.537,0,43.115Z" transform="translate(0 -10.705)" fill-rule="evenodd" fill="url(#linear-gradient-8)"/>
        <path id="Path_54" data-name="Path 54" d="M.6,20.633,2.957,27.32l10.244-2.3L24.9,14.155,28.2,3.672,23,0,14.163,3.307l-8.38,7.81c-.193.1-3.567,6.478-5.187,9.518Z" transform="translate(-0.202)" fill="#fff" fill-rule="evenodd"/>
        <path id="Path_55" data-name="Path 55" d="M9.4,9.145C15.432,3.163,23.21-.371,26.194,2.64s-.18,10.332-6.212,16.31-13.714,9.709-16.7,6.7S3.368,15.124,9.4,9.145Z" transform="translate(-0.723 -0.524)" fill-rule="evenodd" fill="url(#linear-gradient-9)"/>
        <path id="Path_56" data-name="Path 56" d="M12.724,53.28l4.687-15.523,15.564,5c-5.627,5.276-11.886,9.735-20.25,10.521Z" transform="translate(-4.319 -12.817)" fill-rule="evenodd" fill="url(#linear-gradient-10)"/>
        <path id="Path_57" data-name="Path 57" d="M37.415,20.867l4,15.826c4.7-4.94,8.917-10.256,10.986-16.83l-14.981,1Z" transform="translate(-12.701 -6.743)" fill-rule="evenodd" fill="url(#linear-gradient-11)"/>
        <path id="Path_58" data-name="Path 58" d="M53.991,13.288C55.59,8.462,55.959,1.541,48.419.254l-6.187,3.42,11.759,9.614Z" transform="translate(-14.336 -0.086)" fill-rule="evenodd" fill="url(#linear-gradient-12)"/>
        <path id="Path_59" data-name="Path 59" d="M0,46.36c.221,7.964,5.965,8.083,8.415,8.153L2.761,41.307Z" transform="translate(0 -14.022)" fill="#9e1209" fill-rule="evenodd"/>
        <path id="Path_60" data-name="Path 60" d="M37.45,20.908l11.039,6.765c.23.129,3.136-4.906,3.8-7.749Z" transform="translate(-12.713 -6.763)" fill-rule="evenodd" fill="url(#radial-gradient)"/>
        <path id="Path_61" data-name="Path 61" d="M19.809,37.757l6.265,12.087a40.52,40.52,0,0,0,9.262-7.078L19.809,37.757Z" transform="translate(-6.724 -12.817)" fill-rule="evenodd" fill="url(#radial-gradient-2)"/>
        <path id="Path_62" data-name="Path 62" d="M3.687,41.337,2.8,51.907c1.675,2.287,3.977,2.486,6.4,2.309C7.447,49.863,3.953,41.161,3.687,41.338Z" transform="translate(-0.95 -14.031)" fill-rule="evenodd" fill="url(#linear-gradient-13)"/>
        <path id="Path_63" data-name="Path 63" d="M42.176,3.688,54.619,5.434C53.956,2.622,51.913.8,48.439.236Z" transform="translate(-14.317 -0.08)" fill-rule="evenodd" fill="url(#linear-gradient-14)"/>
        <path id="Path_64" data-name="Path 64" d="M12.358,78.087H9.042l-2-2.986-1.927-2.6H3.86v3.906a1.41,1.41,0,0,0,.1.538.674.674,0,0,0,.408.347,2.734,2.734,0,0,0,.547.112l.661.061v.616H.362V77.47l.6-.061a2.1,2.1,0,0,0,.555-.112.727.727,0,0,0,.373-.33,1.128,1.128,0,0,0,.122-.555V67.506a1.571,1.571,0,0,0-.086-.538.637.637,0,0,0-.408-.357,2.856,2.856,0,0,0-.564-.132,4.819,4.819,0,0,0-.591-.087v-.616H6.047a6.267,6.267,0,0,1,1.467.165,3.878,3.878,0,0,1,1.241.512,2.6,2.6,0,0,1,.859.912,2.647,2.647,0,0,1,.321,1.346,3.252,3.252,0,0,1-.218,1.258,2.681,2.681,0,0,1-.642.946,3.9,3.9,0,0,1-.937.651,7.371,7.371,0,0,1-1.206.46l1.517,2.031,1.484,2a4.356,4.356,0,0,0,.686.773,3.915,3.915,0,0,0,.616.4,2.134,2.134,0,0,0,.564.174,4.259,4.259,0,0,0,.564.069V78.1M7.806,68.917a2.41,2.41,0,0,0-.642-1.77,2.415,2.415,0,0,0-1.814-.661H3.86v5.286H5a2.783,2.783,0,0,0,2-.764,2.772,2.772,0,0,0,.793-2.092m13.984,9.028-2.786.2-.13-.122V76.91H18.8l-.462.462a3.376,3.376,0,0,1-.6.443,3.868,3.868,0,0,1-.755.357,3.421,3.421,0,0,1-1.033.122,2.1,2.1,0,0,1-1.736-.738,3.42,3.42,0,0,1-.591-2.161V71.308a1.01,1.01,0,0,0-.122-.521.977.977,0,0,0-.735-.521,3.3,3.3,0,0,0-.495-.069v-.564l2.856-.208.13.122v5.945a2.016,2.016,0,0,0,.416,1.4,1.29,1.29,0,0,0,.991.462,2.36,2.36,0,0,0,1.476-.495,2.887,2.887,0,0,0,.408-.382,1.986,1.986,0,0,0,.277-.382V71.242a.984.984,0,0,0-.122-.5,1.123,1.123,0,0,0-.338-.382.948.948,0,0,0-.462-.122l-.686-.044v-.564l3.107-.208.13.122v6.8a.973.973,0,0,0,.122.5,1.056,1.056,0,0,0,.338.357,1.017,1.017,0,0,0,.373.13l.478.035v.564m9.764-4.128a4.578,4.578,0,0,1-1.215,3.237A3.743,3.743,0,0,1,27.5,78.353a4.578,4.578,0,0,1-1.388-.217,5.919,5.919,0,0,1-1.276-.581l-.642.991-.538-.122.061-1.546.017-1.744V66.671a1.471,1.471,0,0,0-.132-.591.914.914,0,0,0-.338-.425,1.348,1.348,0,0,0-.555-.165l-.616-.078v-.555l3.142-.2.122.13v5.641l.061.017a3.689,3.689,0,0,1,1.172-.859,2.963,2.963,0,0,1,1.258-.287,3.32,3.32,0,0,1,2.639,1.25,4.862,4.862,0,0,1,1.059,3.255m-1.814.061a6.976,6.976,0,0,0-.132-1.311,3.54,3.54,0,0,0-.434-1.163,2.426,2.426,0,0,0-.773-.816,2.047,2.047,0,0,0-1.145-.312,2.254,2.254,0,0,0-1.067.243,2.856,2.856,0,0,0-.816.642v4.982a2.176,2.176,0,0,0,.616,1.016,2.305,2.305,0,0,0,.591.4,2.031,2.031,0,0,0,2.525-.877,5.134,5.134,0,0,0,.651-2.8m2.429,7.015a1.063,1.063,0,0,1,.234-.711A.773.773,0,0,1,33,79.9a1.025,1.025,0,0,1,.478.1,1.345,1.345,0,0,1,.357.269,1.915,1.915,0,0,1,.277.357l.234.373a3.438,3.438,0,0,0,1.033-1.224,9.774,9.774,0,0,0,.877-1.736l-1.493-3.679-1.4-3.359a1.225,1.225,0,0,0-.555-.616,2.252,2.252,0,0,0-.781-.287v-.573h3.906v.608a2.737,2.737,0,0,0-.625.112q-.365.1-.365.269l.044.13.086.251,2.057,5.069.807-1.918.946-2.352.174-.451a1.452,1.452,0,0,0,.112-.5c0-.151-.132-.289-.4-.416a2.268,2.268,0,0,0-.746-.243v-.555H41.2v.538a2.152,2.152,0,0,0-.686.3,1.526,1.526,0,0,0-.634.727l-1.847,4.356-1.215,2.906a15.3,15.3,0,0,1-.981,1.892A5.611,5.611,0,0,1,35,81.332a2.334,2.334,0,0,1-.729.486,1.764,1.764,0,0,1-.668.13,1.632,1.632,0,0,1-1.067-.321.947.947,0,0,1-.382-.738" transform="translate(-0.123 -21.948)"/>
      </g>
    </g>
  </g>
</svg>
