<svg xmlns="http://www.w3.org/2000/svg" xmlns:xlink="http://www.w3.org/1999/xlink" width="90" height="55" viewBox="0 0 90 55">
  <defs>
    <clipPath id="clip-oozie">
      <rect width="90" height="55"/>
    </clipPath>
  </defs>
  <g id="oozie" clip-path="url(#clip-oozie)">
    <rect width="90" height="55" fill="#fff"/>
    <g id="Group_73" data-name="Group 73" transform="translate(-506.643 -517.477)">
      <path id="Path_1836" data-name="Path 1836" d="M569.492,552.855c-1.652,0-3.3,0-4.956,0a2.347,2.347,0,0,1-2.265-1.412.315.315,0,0,0-.33-.215q-2.774.008-5.547,0a.576.576,0,0,0-.436.227q-1.542,1.539-3.086,3.076a2.491,2.491,0,0,1-3.781.012q-3.625-3.607-7.245-7.219a.838.838,0,0,1-.177-.187c-.228-.457-.629-.456-1.061-.444-.251.007-.305.092-.3.322.01,1.081.008,2.162,0,3.244a2.431,2.431,0,0,1-1.613,2.47,2.343,2.343,0,0,1-.8.127c-3.366,0-6.731,0-10.1,0a2.375,2.375,0,0,1-2.4-2.414q-.012-1.714,0-3.428c0-.233-.054-.326-.3-.314-.418.02-.839.02-1.257,0-.254-.012-.3.086-.3.316.01,1.093-.022,2.188.011,3.28a2.471,2.471,0,0,1-2.555,2.575q-4.9-.06-9.8,0a2.492,2.492,0,0,1-2.551-2.538c.041-3.268.036-6.537,0-9.8a2.478,2.478,0,0,1,2.536-2.516c3.279.037,6.558.011,9.837.013a2.387,2.387,0,0,1,2.524,2.516c0,1.143.008,2.285,0,3.428,0,.256.063.344.327.329a10.976,10.976,0,0,1,1.22,0c.272.016.322-.089.319-.335-.012-1.118-.006-2.236-.005-3.354a2.407,2.407,0,0,1,2.573-2.584q4.882,0,9.763,0a2.4,2.4,0,0,1,2.573,2.547q.015,1.677,0,3.354c0,.279.059.379.361.377.373,0,.7,0,.878-.412a1.362,1.362,0,0,1,.324-.35q3.595-3.585,7.192-7.168a2.5,2.5,0,0,1,3.836,0q1.518,1.51,3.031,3.026a.7.7,0,0,0,.548.232q2.681-.014,5.363,0a.478.478,0,0,0,.5-.312,2.268,2.268,0,0,1,2.116-1.294q5.066-.012,10.133,0a2.368,2.368,0,0,1,2.369,2.37q.014,1.788,0,3.575c0,.264.077.332.333.325.6-.018,1.208-.019,1.812,0,.267.009.327-.082.324-.333q-.018-1.714,0-3.428a2.4,2.4,0,0,1,1.948-2.471,2.61,2.61,0,0,1,.55-.041q4.956,0,9.911,0a2.4,2.4,0,0,1,2.5,2.47q.014,4.939,0,9.879a2.388,2.388,0,0,1-2.489,2.482c-3.291,0-6.583-.026-9.874.016a2.469,2.469,0,0,1-2.555-2.545c.005-1.094-.008-2.187.007-3.281,0-.275-.07-.359-.349-.349-.6.021-1.208.018-1.812,0-.248-.007-.31.075-.307.313.012,1.118-.014,2.236.01,3.354a2.437,2.437,0,0,1-2.511,2.5C572.8,552.826,571.144,552.855,569.492,552.855Z" transform="translate(0 0)" fill="#146cc3"/>
      <path id="Path_1837" data-name="Path 1837" d="M668.3,567.465c0,1.412.006,2.825,0,4.237a1.868,1.868,0,0,1-1.9,1.883q-5.009,0-10.018,0a1.812,1.812,0,0,1-1.835-1.314.384.384,0,0,0-.442-.314q-2.976.017-5.952,0a.706.706,0,0,0-.547.237c-1.084,1.091-2.184,2.166-3.262,3.262a2.047,2.047,0,0,1-2.53.371,1.343,1.343,0,0,1-.265-.2q-1.834-1.821-3.661-3.646c-.033-.033-.058-.074-.134-.172h.434q4.159,0,8.318,0c.143,0,.3.046.427-.062a1.428,1.428,0,0,0,.406-1.2c-.02-.341-.007-.686,0-1.029a.56.56,0,0,1,.1-.383,1.38,1.38,0,0,1,.856-.143,5.851,5.851,0,0,0,1.574,0,1.045,1.045,0,0,1,.742.139c.086.193-.068.293-.17.4-.312.33-.642.641-.992,1h2.007c.836,0,1.671-.008,2.506,0,.3,0,.408-.111.412-.409s-.1-.639.111-.926a1.031,1.031,0,0,1,.538-.075c1.065,0,2.13.005,3.2-.007.238,0,.511.02.582-.311.009-.218-.008-.436.007-.654,0-.17-.007-.34,0-.51,0-.143,0-.286,0-.429,0-.078,0-.157,0-.236,0-.058,0-.116,0-.174s0-.116,0-.173c0-.117,0-.233,0-.35,0-.1,0-.2,0-.3,0-.128-.005-.255,0-.383.031-.112-.013-.287.205-.239a1.025,1.025,0,0,1,.082.575c0,1.609,0,3.219,0,4.828,0,.766.169.938.93.941,1,0,2,.006,3,0,.695,0,.871-.187.872-.88,0-1.6,0-3.194,0-4.791a1.342,1.342,0,0,1,.062-.581.11.11,0,0,1,.11-.063c.171.16.11.369.119.563,0,.1,0,.206,0,.309,0,.079,0,.158,0,.237,0,.058,0,.117,0,.174,0,.1,0,.194,0,.292.006.08,0,.159,0,.239.006.144,0,.288,0,.432.008.17,0,.34,0,.51.01.214,0,.428,0,.642,0,.247.13.346.368.345.746,0,1.494.024,2.239-.015.3-.016.586.025.88.015.27-.01.454-.1.443-.4,0-.191-.007-.382,0-.573a3.316,3.316,0,0,1,.016-.513C668.17,567.552,668.184,567.459,668.3,567.465Z" transform="translate(-91.873 -21.253)" fill="#5396d7"/>
      <path id="Path_1838" data-name="Path 1838" d="M575.573,573.981c0,.835,0,1.669,0,2.5a1.8,1.8,0,0,1-1.871,1.846c-3.312,0-6.625-.02-9.937.013a1.964,1.964,0,0,1-2.022-2.009c-.007-1.24-.013-2.479,0-3.719,0-.315-.068-.432-.406-.418-.652.028-1.305.01-1.958.006-.131,0-.273.041-.389-.062a.374.374,0,0,1,.3-.114c.755-.014,1.509-.017,2.264,0a.477.477,0,0,1,.243.071c.19.226.112.494.12.748,0,.219.009.439,0,.659-.031.292.12.377.392.372.584-.01,1.168.018,1.752-.014.206.017.273.189.364.33a5.555,5.555,0,0,0,1.517,1.582,5.019,5.019,0,0,0,6.177-.586,6.067,6.067,0,0,0,.912-1.149c.06-.105.11-.224.254-.245a15.833,15.833,0,0,0,1.6-.009A1.133,1.133,0,0,1,575.573,573.981Z" transform="translate(-35.829 -26.001)" fill="#5396d7"/>
      <path id="Path_1839" data-name="Path 1839" d="M524.371,572.7c0,1.412.006,2.824,0,4.236a1.869,1.869,0,0,1-1.9,1.883q-5.026,0-10.052,0a1.821,1.821,0,0,1-1.881-1.882c0-.847,0-1.694,0-2.542a.737.737,0,0,1,.522-.105c.569-.009,1.138-.009,1.705-.063.233-.023.27.177.352.317a4.743,4.743,0,0,0,3.468,2.447,4.9,4.9,0,0,0,5.146-2.346c.077-.122.125-.275.3-.291.6.025,1.2-.009,1.793.021.281.014.375-.113.36-.368-.009-.216-.006-.432,0-.647C524.237,573.13,524.066,572.848,524.371,572.7Z" transform="translate(-1.349 -26.483)" fill="#5396d7"/>
      <path id="Path_1840" data-name="Path 1840" d="M769.739,551.456c.1.1.066.232.066.352q0,4.9-.006,9.8a1.94,1.94,0,0,1-1.426,2.036,1.456,1.456,0,0,1-.437.053q-5.085,0-10.17,0a1.8,1.8,0,0,1-1.8-1.769c0-.885,0-1.769,0-2.654a.421.421,0,0,1,.273-.084c.753-.046,1.507,0,2.261,0a.277.277,0,0,1,.255.117,5.528,5.528,0,0,1,.061,1.427c.014.95.136,1.081,1.094,1.082h6.059c.123,0,.247,0,.37-.007.468-.039.665-.234.681-.7s0-.908.006-1.362a.813.813,0,0,1,.082-.464c.1-.095.23-.062.352-.057.578.024,1.157,0,1.735.014.289.008.448-.09.428-.4,0-.2-.008-.391,0-.587,0-.173-.007-.346,0-.519-.007-.15,0-.3,0-.45s0-.3,0-.448c-.006-.171-.005-.343,0-.514s-.005-.345,0-.517-.005-.348,0-.521q-.011-.361,0-.721c0-.2-.008-.392,0-.587,0-.151-.006-.3,0-.454q-.008-.258,0-.516c0-.192-.006-.384,0-.576,0-.168-.005-.337,0-.5a1.743,1.743,0,0,1,.015-.315A.235.235,0,0,1,769.739,551.456Z" transform="translate(-175.988 -11.37)" fill="#5396d7"/>
      <path id="Path_1841" data-name="Path 1841" d="M645.666,560.489c0,.6,0,1.2-.009,1.8-.008.353-.063.7-.5.791q-4.608.005-9.216.013c-.385,0-.59-.18-.643-.627-.108-.2.024-.355.114-.508.278-.474.58-.935.861-1.408a3.692,3.692,0,0,0,.321-.517c.134-.19.244-.394.364-.593s.256-.383.368-.585a2.557,2.557,0,0,0,.209-.383,1.378,1.378,0,0,1,.243-.365,4.821,4.821,0,0,0,.287-.447,1.009,1.009,0,0,0,.13-.268.863.863,0,0,1,.135-.235c.029-.039.059-.077.09-.116.163-.206.119-.291-.149-.288-.611.007-1.222,0-1.833,0a.914.914,0,0,1-.73-.275.85.85,0,0,1-.2-.579c0-.169-.007-.338,0-.506s-.006-.343,0-.515c0-.2-.01-.395,0-.592a4.019,4.019,0,0,1,.013-.546.759.759,0,0,1,.862-.581c1.4-.005,2.8,0,4.2,0h4.462a.82.82,0,0,1,.727.274.739.739,0,0,1,.117.238.765.765,0,0,1-.051.532c-.086.134-.161.276-.248.411-.111.165-.2.344-.312.508a2.566,2.566,0,0,0-.228.374c-.108.144-.185.307-.284.456s-.2.339-.3.5c-.135.181-.236.384-.358.574-.049.082-.1.164-.151.242s-.1.155-.154.233c-.079.113-.132.242-.213.353a2.406,2.406,0,0,0-.156.272,1.038,1.038,0,0,1-.077.109c-.053.069-.1.146-.146.217-.032.051-.061.1-.089.156-.045.085-.095.167-.146.249q-.158.274-.318.547c-.1.288.122.237.262.239.671.009,1.343,0,2.014.005a.736.736,0,0,1,.654.256C645.669,560.091,645.81,560.27,645.666,560.489Z" transform="translate(-90.097 -12.581)" fill="#00529e"/>
      <path id="Path_1842" data-name="Path 1842" d="M639,541.208c1.145-1.147,2.271-2.314,3.442-3.433a1.844,1.844,0,0,1,2.525-.018c1.13,1.02,2.2,2.1,3.235,3.22.083.09.173.174.26.26-.062.191-.234.161-.369.157-.774-.018-1.547.061-2.324.02-.6-.032-1.2.034-1.8.041-.528.007-1.054-.065-1.585-.046-1.018.036-2.037.005-3.056.031C639.179,541.445,638.954,541.506,639,541.208Z" transform="translate(-92.756 -1.273)" fill="#97c1f6"/>
      <path id="Path_1843" data-name="Path 1843" d="M568.99,547.418a1.767,1.767,0,0,1,1.677-1.3q5.129-.016,10.258,0a1.773,1.773,0,0,1,1.7,1.378c-.082.3-.339.205-.517.2-1.082-.058-2.162.042-3.244.016-1.991-.048-3.984.03-5.975-.016-1.156-.026-2.311.073-3.465,0C569.247,547.678,568.961,547.774,568.99,547.418Z" transform="translate(-42.939 -7.563)" fill="#97c1f6"/>
      <path id="Path_1844" data-name="Path 1844" d="M510.789,547.5a1.764,1.764,0,0,1,1.687-1.388q5.137-.017,10.273,0a1.768,1.768,0,0,1,1.657,1.24c.059.269-.131.306-.319.327a6.367,6.367,0,0,1-.812,0c-.75-.013-1.5-.026-2.251-.016-.9.011-1.8.027-2.7.016a15.984,15.984,0,0,1-1.956-.029,7.374,7.374,0,0,0-.81.048c-1.329-.031-2.66.035-3.988-.054-.149-.01-.294.041-.441.034S510.824,547.716,510.789,547.5Z" transform="translate(-1.527 -7.564)" fill="#97c1f6"/>
      <path id="Path_1845" data-name="Path 1845" d="M756.026,547.51a1.9,1.9,0,0,1,2.007-1.4q4.929,0,9.858,0a1.8,1.8,0,0,1,1.817,1.323.469.469,0,0,1-.376.114c-1.191.01-2.384.053-3.573.04-.982-.01-1.967-.057-2.948-.027-1.572.048-3.142-.046-4.714-.01-.564.013-1.128.028-1.692.054A.46.46,0,0,1,756.026,547.51Z" transform="translate(-176.029 -7.567)" fill="#97c1f6"/>
      <path id="Path_1846" data-name="Path 1846" d="M695.915,547.577a1.759,1.759,0,0,1,1.7-1.462q5.135-.018,10.271,0a1.768,1.768,0,0,1,1.658,1.238c.084.2-.076.229-.2.263a2.065,2.065,0,0,1-.656.063c-.683-.036-1.368-.019-2.051-.024s-1.346.006-2.016-.065a.927.927,0,0,1-.393-.264,1.989,1.989,0,0,0-2.635.015,1.582,1.582,0,0,1-.545.427,16.4,16.4,0,0,0-2.28-.025c-.613-.01-1.225-.061-1.84-.017-.168.012-.341-.02-.514,0A.464.464,0,0,1,695.915,547.577Z" transform="translate(-133.256 -7.563)" fill="#97c1f6"/>
      <path id="Path_1847" data-name="Path 1847" d="M654.282,551.013a6.694,6.694,0,0,0,1.472.025,2.684,2.684,0,0,1,.55-.016,21.007,21.007,0,0,0,2.711.006,1.688,1.688,0,0,1,.452.136c.108.283-.057.41-.287.5-1.551-.043-3.1.006-4.654,0-1.355-.009-2.709-.01-4.064-.013-4.189-.011-8.377,0-12.566-.007a1.073,1.073,0,0,1-.294-.014c-.124-.035-.248-.074-.171-.248a2.153,2.153,0,0,1,.442-.445c.016.153.123.158.243.153.557-.025,1.116-.089,1.671-.06.684.035,1.367-.057,2.044,0,.6.05,1.19.016,1.784.042.37.016.757-.08,1.135-.047.806.069,1.61-.049,2.415-.009a.556.556,0,0,0,.171-.051.871.871,0,0,0,.64.2c1.963-.008,3.926,0,5.889,0C654.018,551.155,654.189,551.2,654.282,551.013Z" transform="translate(-91.623 -10.999)" fill="#92bef3"/>
      <path id="Path_1848" data-name="Path 1848" d="M568.731,550.653c.016.094.06.162.166.161.833,0,1.668.033,2.5-.03.289-.022.554.042.832.039,1.14-.016,2.281,0,3.422-.008,1.272-.009,2.544.018,3.815.027a8.422,8.422,0,0,0,1.612-.076c.3-.055.627.073.947.051.119-.008.251.034.34-.089a1.1,1.1,0,0,1,.066.605.618.618,0,0,1-.454.112c-1.62-.045-3.241.028-4.861,0a2.239,2.239,0,0,0-.51.063,10.078,10.078,0,0,0-2.1.012,13.783,13.783,0,0,0-2.093-.067c-1.068,0-2.135-.036-3.2,0a.838.838,0,0,1-.536-.087.561.561,0,0,1-.016-.4C568.664,550.849,568.644,550.737,568.731,550.653Z" transform="translate(-42.68 -10.799)" fill="#92bef4"/>
      <path id="Path_1849" data-name="Path 1849" d="M510.6,550.582c.07.1.173.078.27.078,1.5,0,3,.039,4.492-.013.984-.034,1.967.028,2.951-.01.643-.025,1.3.049,1.947.011.923-.055,1.844.07,2.768-.019a6.766,6.766,0,0,1,.878.032c.165.007.3-.031.311-.227.074.057.071.141.076.222a1.2,1.2,0,0,1,.015.517c-.352.167-.721.033-1.082.053-1.273.073-2.548-.064-3.823.013a3.164,3.164,0,0,0-.907.1c-.547.008-1.089-.082-1.637-.059a16.908,16.908,0,0,0-2.471-.057c-1.1-.016-2.194,0-3.291-.006a.773.773,0,0,1-.564-.117A.812.812,0,0,1,510.6,550.582Z" transform="translate(-1.339 -10.643)" fill="#93bef4"/>
      <path id="Path_1850" data-name="Path 1850" d="M635.841,552.478c.05.227.233.226.406.226,2.958,0,5.917.061,8.873-.022,1.641-.046,3.279-.012,4.918-.043,1.691-.032,3.383-.007,5.075-.007.648,0,1.3,0,1.945,0a2.167,2.167,0,0,1,.618.077.275.275,0,0,1-.059.418.967.967,0,0,1-.435.056c-1.242-.013-2.485-.021-3.726-.012-1.131.008-2.263-.036-3.393.033-.271.016-.537-.034-.809-.03-1.032.016-2.064.016-3.1.01a.68.68,0,0,1-.457-.108.763.763,0,0,0-.675-.3q-4.359.008-8.717,0c-.44,0-.665.156-.766.517-.188.1-.335.109-.368-.155A4.6,4.6,0,0,1,635.841,552.478Z" transform="translate(-90.034 -12.098)" fill="#8fbcf2"/>
      <path id="Path_1851" data-name="Path 1851" d="M756,550.777c4.56-.154,9.122-.006,13.683-.075.071.057.06.141.072.218-.005.051-.011.1-.016.153a.64.64,0,0,1-.49.112c-1.771-.035-3.543.011-5.315-.016-1.118-.017-2.239.018-3.359.014-1.341,0-2.682.011-4.023,0a.8.8,0,0,1-.565-.113Z" transform="translate(-176 -10.834)" fill="#94bff5"/>
      <path id="Path_1852" data-name="Path 1852" d="M755.97,551.986h13.751c0,.1,0,.2,0,.3a.608.608,0,0,1-.454.111c-.8-.012-1.6.034-2.4-.029a6.022,6.022,0,0,0-.724.052c-1.422.062-2.844.048-4.266.035-.56-.005-1.119,0-1.678,0-.883,0-1.766-.055-2.649-.08-.383-.01-.76.055-1.141.024-.173-.014-.349-.01-.453-.187Z" transform="translate(-175.985 -11.747)" fill="#92bef3"/>
      <path id="Path_1853" data-name="Path 1853" d="M553.582,567.829l2.883,0,.062.01c.452.057.906.019,1.359.031a1.094,1.094,0,0,1,.47.059.15.15,0,0,1,.071.1c-.023.191.027.4-.114.564a1.124,1.124,0,0,1-.571.115c-1.311-.008-2.621-.047-3.932-.03a15.178,15.178,0,0,0-1.652.04.517.517,0,0,1-.445-.126.964.964,0,0,1-.084-.753,11.552,11.552,0,0,0,1.891-.015Z" transform="translate(-30.555 -23.021)" fill="#6ba5e2"/>
      <path id="Path_1854" data-name="Path 1854" d="M551.848,570.387c.238.119.477.011.716.007.866-.016,1.732,0,2.6-.007.711,0,1.422.053,2.135.008.372-.023.749.036,1.124-.01.2.423.081.677-.37.694a2.348,2.348,0,0,1-1.4-.1l-2.817,0H553.7a3.21,3.21,0,0,1-1.783.052.217.217,0,0,1-.149-.149A.5.5,0,0,1,551.848,570.387Z" transform="translate(-30.667 -24.84)" fill="#66a2e0"/>
      <path id="Path_1855" data-name="Path 1855" d="M627.488,564.565a1.047,1.047,0,0,0,.723.21c.747-.011,1.494,0,2.308,0-.166.231-.222.46-.428.6a5.977,5.977,0,0,1-1.175.029c-1.583,0-3.167.04-4.75,0-.2-.005-.468.071-.521-.256a1.216,1.216,0,0,1,.442-.52c.791-.07,1.585-.022,2.378-.044C626.8,564.566,627.147,564.583,627.488,564.565Z" transform="translate(-81.831 -20.698)" fill="#72aae5"/>
      <path id="Path_1856" data-name="Path 1856" d="M619.495,571.407a.688.688,0,0,1-.21.371.536.536,0,0,1-.494.185q-1.986.01-3.972-.021c-.361-.005-.738.123-1.081-.093-.064-.1-.106-.216-.263-.215-.523,0-1.046,0-1.568,0-.1,0-.162.038-.175.141a.547.547,0,0,1-.409.112,6.21,6.21,0,0,1-1.406-.06.262.262,0,0,1-.093-.312.284.284,0,0,1,.124-.151,8.434,8.434,0,0,1,1.575-.047c.858-.027,1.719-.012,2.579-.009,1.621.006,3.243.019,4.864,0C619.146,571.3,619.34,571.264,619.495,571.407Z" transform="translate(-71.988 -25.491)" fill="#64a1df"/>
      <path id="Path_1857" data-name="Path 1857" d="M596.165,552.961a2.217,2.217,0,0,1,.616-.083c.932-.029,1.867-.026,2.8-.031a21.761,21.761,0,0,1,2.445.034q0,.3,0,.591a.542.542,0,0,1-.277.089,22.258,22.258,0,0,1-2.3.041c-.55-.078-1.095.119-1.646.041-.541-.134-1.018-.441-1.563-.568C596.186,553.065,596.166,553.013,596.165,552.961Z" transform="translate(-62.278 -12.348)" fill="#8fbcf2"/>
      <path id="Path_1858" data-name="Path 1858" d="M755.964,552.749a.975.975,0,0,0,.429.078c.426.044.847-.037,1.276-.021.81.031,1.622.1,2.43.079,1.3-.031,2.592.031,3.888.019.815-.008,1.637.008,2.445-.041,1.1-.067,2.2.014,3.294-.04v.516a.952.952,0,0,1-.633.128c-.609.021-1.216-.082-1.826-.048a.5.5,0,0,1-.275-.093,1.153,1.153,0,0,0-.791-.242q-3.305.007-6.611,0a2.023,2.023,0,0,0-.653.1c-.853.014-1.7.07-2.558.044a.619.619,0,0,1-.414-.113Z" transform="translate(-175.985 -12.29)" fill="#8fbcf2"/>
      <path id="Path_1859" data-name="Path 1859" d="M733.275,571.713a.157.157,0,0,0-.071.147,4.378,4.378,0,0,1-1.375.077c-.381-.041-.759-.008-1.137-.014a6.592,6.592,0,0,1-1.627-.064v-.442a.485.485,0,0,1,.382-.1c1.362.071,2.725-.008,4.089.021,1.25.027,2.5.008,3.757-.024.541-.014,1.079.053,1.622.01a.733.733,0,0,1,.683.184.15.15,0,0,1-.061.172,7.934,7.934,0,0,1-1.857.048c-.31,0-.638.1-.932-.089-1.029,0-2.059,0-3.088.005C733.531,571.648,733.388,571.6,733.275,571.713Z" transform="translate(-156.845 -25.502)" fill="#64a1df"/>
      <path id="Path_1860" data-name="Path 1860" d="M631.723,578.481l-.822,1.373a1.165,1.165,0,0,0-.228.528c-.675-.6-1.3-1.243-1.917-1.9a.433.433,0,0,1,.334-.126c.814-.033,1.627-.016,2.44.031A.254.254,0,0,1,631.723,578.481Z" transform="translate(-85.468 -30.5)" fill="#5396d7"/>
      <path id="Path_1861" data-name="Path 1861" d="M510.562,552.747q2.416,0,4.832,0a7.323,7.323,0,0,1,1.539.08c0,.053-.026.106-.077.113-.588.08-1.126.345-1.707.45a15.844,15.844,0,0,0-1.828-.061c-.8-.032-1.61.021-2.416.033a.452.452,0,0,1-.344-.1Z" transform="translate(-1.365 -12.287)" fill="#8fbcf2"/>
      <path id="Path_1862" data-name="Path 1862" d="M623.426,573.026h2.157q1.462,0,2.924,0a.927.927,0,0,0,.466-.072,2.321,2.321,0,0,1-.367.593.624.624,0,0,1-.419.106c-1.335-.02-2.67,0-4.005.006a.911.911,0,0,1-.253-.04A1.571,1.571,0,0,1,623.426,573.026Z" transform="translate(-81.676 -26.668)" fill="#609fdd"/>
      <path id="Path_1863" data-name="Path 1863" d="M729.065,556.216v-.3a1.027,1.027,0,0,1,.743-.151,26.122,26.122,0,0,0,2.655.021c.565.018.607-.062.636-.521,0-.172-.008-.344,0-.515,0-.129-.006-.258,0-.387-.007-.214,0-.427,0-.641-.006-.127,0-.254,0-.381,0-.147,0-.294,0-.441s0-.293,0-.44c0-.105,0-.211,0-.316-.008-.172,0-.344,0-.515a.536.536,0,0,1,.11-.438c.112.14.07.306.07.461q0,2.168,0,4.335a1.158,1.158,0,0,0,.542.039c.883.006,1.767,0,2.65,0,.119,0,.246.041.356-.042h-.006a7.854,7.854,0,0,1,1.309-.048,8.778,8.778,0,0,0,1.025-.034.446.446,0,0,1,.444.1.2.2,0,0,1-.056.246.854.854,0,0,1-.468.068c-3.161-.006-6.322,0-9.483,0A.7.7,0,0,1,729.065,556.216Z" transform="translate(-156.845 -11.185)" fill="#6ea7e3"/>
      <path id="Path_1864" data-name="Path 1864" d="M730.994,550.648l0,.449a.37.37,0,0,1-.236.093q-2.212.046-4.424,0a.559.559,0,0,1-.378-.6c.653.022,1.31.053,1.958.044.56-.008,1.124.032,1.688-.02a7.45,7.45,0,0,0,1.016.012c.125-.028.283,0,.3-.193C730.992,550.484,730.988,550.568,730.994,550.648Z" transform="translate(-154.629 -10.637)" fill="#93bef4"/>
      <path id="Path_1865" data-name="Path 1865" d="M625.17,575.068a.716.716,0,0,1,.391-.078q2.143,0,4.286.006a2.073,2.073,0,0,1-.367.594,6.41,6.41,0,0,1-1.167.043c-.829.028-1.659-.033-2.489,0a.264.264,0,0,1-.138-.045A2.579,2.579,0,0,1,625.17,575.068Z" transform="translate(-82.917 -28.116)" fill="#5c9cdb"/>
      <path id="Path_1866" data-name="Path 1866" d="M601.542,555.137c.767.013,1.53-.068,2.3-.036.659.028,1.335-.038,2-.043v.589c-.182.146-.394.091-.6.094-.938.012-1.876-.054-2.813.021A1.14,1.14,0,0,1,601.542,555.137Z" transform="translate(-66.104 -13.933)" fill="#89b8f0"/>
      <path id="Path_1867" data-name="Path 1867" d="M620.2,567.771l-.14.221a5.853,5.853,0,0,1-1.939.083c-.506-.051-1,.032-1.506-.007-1.224-.1-2.449.062-3.679.005-.9-.042-1.812-.055-2.719-.017a.4.4,0,0,1-.316-.068.21.21,0,0,1,.02-.24.357.357,0,0,1,.238-.075c.544.032,1.089-.046,1.632.017l1.891,0a2.514,2.514,0,0,1,.8-.026c1.717.018,3.435-.036,5.152,0A.784.784,0,0,1,620.2,567.771Z" transform="translate(-72.028 -22.888)" fill="#6ea7e3"/>
      <path id="Path_1868" data-name="Path 1868" d="M628.578,562.871c-.015.11-.091.132-.186.132-1.018,0-2.037,0-3.056,0-.053,0-.106-.048-.16-.073a5.684,5.684,0,0,1,.74-.741,16.935,16.935,0,0,0,2.124.031c.143.006.3-.056.384.122A1.1,1.1,0,0,0,628.578,562.871Z" transform="translate(-82.922 -19.005)" fill="#78ade8"/>
      <path id="Path_1869" data-name="Path 1869" d="M626.96,576.841a3.447,3.447,0,0,1,1.136-.074c.731-.008,1.462,0,2.193,0a.808.808,0,0,1,.465.083,1.413,1.413,0,0,1-.309.508,25.466,25.466,0,0,0-2.967,0A2.61,2.61,0,0,1,626.96,576.841Z" transform="translate(-84.19 -29.373)" fill="#589ad9"/>
      <path id="Path_1870" data-name="Path 1870" d="M629.593,567H625.48c-.66,0-1.32,0-1.979,0a.764.764,0,0,1-.427-.084.552.552,0,0,1,.165-.36c.1.205.291.146.455.147q2.746,0,5.492,0a.867.867,0,0,1,.5.08Z" transform="translate(-81.425 -22.114)" fill="#6ea8e4"/>
      <path id="Path_1871" data-name="Path 1871" d="M510.561,554.366c.7,0,1.406-.037,2.108-.064a13.421,13.421,0,0,1,1.8.063c.224.021.489-.195.68.085-.1.27-.336.329-.585.367-1.157.046-2.313,0-3.47.025a.7.7,0,0,1-.529-.107Z" transform="translate(-1.365 -13.39)" fill="#8cbaf1"/>
      <path id="Path_1872" data-name="Path 1872" d="M510.561,555.725c.67-.035,1.347-.041,2.012-.032a19.264,19.264,0,0,1,2.074.042.882.882,0,0,1-.682.543,2,2,0,0,0-.731-.036c-.834.07-1.667-.105-2.5-.02a.221.221,0,0,1-.171-.055Z" transform="translate(-1.365 -14.38)" fill="#88b8ef"/>
      <path id="Path_1873" data-name="Path 1873" d="M755.97,565.267q0-.3,0-.591a.655.655,0,0,1,.452-.114c.624-.011,1.249.021,1.873-.025a.618.618,0,0,1,.419.107.59.59,0,0,1,.049.587.273.273,0,0,1-.25.124A17.957,17.957,0,0,1,755.97,565.267Z" transform="translate(-175.989 -20.677)" fill="#72aae5"/>
      <path id="Path_1874" data-name="Path 1874" d="M604.383,557.052c.03-.075.109-.145.162-.13.408.116.815-.112,1.222,0a.946.946,0,0,0,.327.023c.593-.044,1.185-.008,1.777,0q0,.221,0,.443a.539.539,0,0,1-.379.113c-.871,0-1.742.023-2.613-.013A.56.56,0,0,1,604.383,557.052Z" transform="translate(-68.125 -15.239)" fill="#85b6ee"/>
      <path id="Path_1875" data-name="Path 1875" d="M758.709,576.917h-2.734q0-.3,0-.591a11.323,11.323,0,0,1,2.773.011A.5.5,0,0,1,758.709,576.917Z" transform="translate(-175.993 -29.01)" fill="#589ad9"/>
      <path id="Path_1876" data-name="Path 1876" d="M510.556,572.446v-.958c.2-.138.426-.041.637-.035a4.057,4.057,0,0,1,1.19.061c.224.181.2.43.186.676-.023.114-.065.221-.2.225a11.162,11.162,0,0,0-1.751.069C510.6,572.488,510.575,572.462,510.556,572.446Z" transform="translate(-1.36 -25.572)" fill="#62a0de"/>
      <path id="Path_1877" data-name="Path 1877" d="M758.7,563.373h-2.735q0-.3,0-.591a14.05,14.05,0,0,1,1.941-.056,1.094,1.094,0,0,1,.845.151A.425.425,0,0,1,758.7,563.373Z" transform="translate(-175.988 -19.375)" fill="#77ade8"/>
      <path id="Path_1878" data-name="Path 1878" d="M755.964,555.565v-.516a.5.5,0,0,1,.344-.107c.7.008,1.4.013,2.1,0a.489.489,0,0,1,.315.084.5.5,0,0,1,.032.512,1.2,1.2,0,0,1-.911.172,9.012,9.012,0,0,0-1.427-.03A.619.619,0,0,1,755.964,555.565Z" transform="translate(-175.985 -13.851)" fill="#89b8ef"/>
      <path id="Path_1879" data-name="Path 1879" d="M510.56,557.184a5.386,5.386,0,0,1,1.6-.018,5.966,5.966,0,0,0,1.258-.044.835.835,0,0,1,.591.136c.051.255-.144.307-.315.381a28.675,28.675,0,0,1-2.938.005.305.305,0,0,1-.2-.09Z" transform="translate(-1.364 -15.397)" fill="#85b6ee"/>
      <path id="Path_1880" data-name="Path 1880" d="M758.709,575.078a1.27,1.27,0,0,1-.819.047c-.576-.063-1.14.054-1.709.021a.828.828,0,0,1-.207-.068q0-.221,0-.442c.226-.174.5-.094.747-.119.57-.057,1.144,0,1.717,0a.361.361,0,0,1,.322.144A.357.357,0,0,1,758.709,575.078Z" transform="translate(-175.993 -27.761)" fill="#5c9cdb"/>
      <path id="Path_1881" data-name="Path 1881" d="M551.554,572.153a1.484,1.484,0,0,0,.9.116c.317-.078.643.056.962-.029,0,.023-.01.046-.015.069-.143.208-.039.443-.072.663a.347.347,0,0,1-.229.1,7.447,7.447,0,0,1-1.692-.069A.722.722,0,0,1,551.554,572.153Z" transform="translate(-30.382 -26.098)" fill="#619fdd"/>
      <path id="Path_1882" data-name="Path 1882" d="M758.707,573.455c-.452-.054-.909.008-1.357-.021-.464-.03-.918.064-1.377.022q0-.258,0-.516a2.188,2.188,0,0,1,.931-.087c.451-.029.9-.019,1.352-.019a.545.545,0,0,1,.5.17A.376.376,0,0,1,758.707,573.455Z" transform="translate(-175.992 -26.58)" fill="#609fdd"/>
      <path id="Path_1883" data-name="Path 1883" d="M755.967,560.232v-.443a2.4,2.4,0,0,1,1.08-.13,6.112,6.112,0,0,0,1.141-.02c.224,0,.45-.029.585.209a.384.384,0,0,1-.091.43,1.545,1.545,0,0,1-.687.07c-.514,0-1.027,0-1.541,0A.7.7,0,0,1,755.967,560.232Z" transform="translate(-175.987 -17.191)" fill="#7eb2eb"/>
      <path id="Path_1884" data-name="Path 1884" d="M605.595,558.643l3.134-.009v.443a1.413,1.413,0,0,1-.961.091c-.523-.059-1.04.072-1.559,0a1,1,0,0,1-.284-.056C605.754,558.994,605.548,558.907,605.595,558.643Z" transform="translate(-68.983 -16.478)" fill="#82b4ec"/>
      <path id="Path_1885" data-name="Path 1885" d="M512.845,576.716c-.067.154-.2.15-.339.15-.651,0-1.3,0-1.952,0q0-.258,0-.516a1.724,1.724,0,0,1,1.106-.149c.33,0,.659.008.988-.026A.459.459,0,0,1,512.845,576.716Z" transform="translate(-1.359 -28.958)" fill="#589ada"/>
      <path id="Path_1886" data-name="Path 1886" d="M610.727,577.037a9.333,9.333,0,0,0-2.04-.046.266.266,0,0,1-.257-.109.409.409,0,0,1,.224-.545c.557,0,1.114-.041,1.672-.019a.542.542,0,0,1,.4.129Z" transform="translate(-70.983 -29.057)" fill="#589ad9"/>
      <path id="Path_1887" data-name="Path 1887" d="M510.559,560.14v-.3a.551.551,0,0,1,.519-.228,20.752,20.752,0,0,0,2.173.012.35.35,0,0,1,.177.045c0,.344-.236.509-.5.657a13.415,13.415,0,0,0-1.836-.014A.567.567,0,0,1,510.559,560.14Z" transform="translate(-1.363 -17.173)" fill="#7eb2eb"/>
      <path id="Path_1888" data-name="Path 1888" d="M611.215,574.908a10.555,10.555,0,0,0-1.52-.012c-.179.029-.393.09-.56-.075a.442.442,0,0,1,.129-.558,3.451,3.451,0,0,1,1.95.055Z" transform="translate(-71.47 -27.517)" fill="#5c9cdb"/>
      <path id="Path_1889" data-name="Path 1889" d="M513.421,558.987a10.757,10.757,0,0,1-2.193.008c-.252-.048-.446.094-.668.14q0-.258,0-.516c1.056-.028,2.112.067,3.168,0C513.753,558.846,513.6,558.932,513.421,558.987Z" transform="translate(-1.364 -16.464)" fill="#82b4ec"/>
      <path id="Path_1890" data-name="Path 1890" d="M606.662,559.89a1.781,1.781,0,0,0,1.048.012c.2-.088.4.058.609.057.39,0,.781,0,1.171,0v.442a.448.448,0,0,1-.3.108c-.707,0-1.414.044-2.12-.026C606.827,560.357,606.633,560.2,606.662,559.89Z" transform="translate(-69.745 -17.36)" fill="#7eb2eb"/>
      <path id="Path_1891" data-name="Path 1891" d="M510.558,563.346v-.516a.4.4,0,0,1,.393-.158,7.155,7.155,0,0,0,1.471.008.542.542,0,0,1,.442.146.525.525,0,0,1-.292.6,14.945,14.945,0,0,1-1.712.025A.427.427,0,0,1,510.558,563.346Z" transform="translate(-1.363 -19.347)" fill="#77ade7"/>
      <path id="Path_1892" data-name="Path 1892" d="M512.631,574.777a.6.6,0,0,1-.54.132,6.807,6.807,0,0,0-1.536.029q0-.258,0-.516a4.38,4.38,0,0,1,1.789-.1c.105,0,.121-.054.135-.129A.4.4,0,0,1,512.631,574.777Z" transform="translate(-1.36 -27.548)" fill="#5c9cdb"/>
      <path id="Path_1893" data-name="Path 1893" d="M755.965,557.081c.912-.036,1.824.067,2.736,0a.338.338,0,0,1,.005.472.663.663,0,0,1-.387.086q-.97.008-1.941,0a.6.6,0,0,1-.413-.116Z" transform="translate(-175.986 -15.368)" fill="#85b6ee"/>
      <path id="Path_1894" data-name="Path 1894" d="M630.248,561.16c-.427-.006-.854-.017-1.281-.017-.34,0-.681.012-1.021.02-.112,0-.19-.033-.2-.155a2.163,2.163,0,0,1,.443-.442,3.83,3.83,0,0,1,.952-.012,2.728,2.728,0,0,0,.8.015.332.332,0,0,1,.309.077Z" transform="translate(-84.746 -17.827)" fill="#7db1ea"/>
      <path id="Path_1895" data-name="Path 1895" d="M610.742,562.889v.441a.332.332,0,0,1-.3.175,11.082,11.082,0,0,1-1.711-.027.606.606,0,0,1-.3-.664,2.6,2.6,0,0,1,.938-.043,4.419,4.419,0,0,0,.949-.007C610.472,562.749,610.638,562.72,610.742,562.889Z" transform="translate(-70.997 -19.405)" fill="#77ade7"/>
      <path id="Path_1896" data-name="Path 1896" d="M631.34,559.2a9.14,9.14,0,0,1-1.764,0c-.105.005-.222.028-.3-.079a3.887,3.887,0,0,1,.591-.59,7.236,7.236,0,0,1,1.135-.021.333.333,0,0,1,.338.173Z" transform="translate(-85.838 -16.378)" fill="#80b2eb"/>
      <path id="Path_1897" data-name="Path 1897" d="M755.967,561.7H758.7a.3.3,0,0,1,0,.442c-.7-.138-1.4.107-2.1-.069-.207-.052-.425.16-.637-.006C755.967,561.945,755.967,561.823,755.967,561.7Z" transform="translate(-175.987 -18.66)" fill="#7bb0e9"/>
      <path id="Path_1898" data-name="Path 1898" d="M609.182,564.84c.547,0,1.093,0,1.64,0a.769.769,0,0,0,.424-.075q0,.332,0,.665c-.039.03-.077.07-.126.071a6.842,6.842,0,0,1-1.82-.111A.441.441,0,0,1,609.182,564.84Z" transform="translate(-71.5 -20.841)" fill="#72aae5"/>
      <path id="Path_1899" data-name="Path 1899" d="M755.966,558.633H758.7a.3.3,0,0,1,0,.442,1.394,1.394,0,0,0-.931-.031c-.5.095-1-.2-1.483.074-.075.042-.212-.026-.321-.042Q755.966,558.855,755.966,558.633Z" transform="translate(-175.987 -16.477)" fill="#82b4ec"/>
      <path id="Path_1900" data-name="Path 1900" d="M758.707,554.224h-2.743v-.369a19.726,19.726,0,0,0,2.4-.065,1.934,1.934,0,0,1,.536.064C758.982,554.054,758.841,554.137,758.707,554.224Z" transform="translate(-175.985 -13.027)" fill="#8dbbf2"/>
      <path id="Path_1901" data-name="Path 1901" d="M510.558,565.023l2.073,0a.473.473,0,0,1-.14.6.844.844,0,0,1-.569.041c-.328-.026-.658-.005-.986-.015a.534.534,0,0,1-.376-.11Z" transform="translate(-1.363 -21.024)" fill="#72aae5"/>
      <path id="Path_1902" data-name="Path 1902" d="M512.838,561.961a3.7,3.7,0,0,0-1.205,0c-.36.028-.717-.18-1.074,0q0-.258,0-.516a3.442,3.442,0,0,0,1.224.031,3.574,3.574,0,0,1,1.215.116C513.083,561.775,513.008,561.888,512.838,561.961Z" transform="translate(-1.363 -18.478)" fill="#7bb0e9"/>
      <path id="Path_1903" data-name="Path 1903" d="M610.269,562.142a.944.944,0,0,0-.423-.026,9.552,9.552,0,0,1-1.868-.049c-.144-.082-.273-.171-.205-.369h2.5Q610.27,561.92,610.269,562.142Z" transform="translate(-70.524 -18.658)" fill="#7bb0e9"/>
      <path id="Path_1904" data-name="Path 1904" d="M510.557,568.543V568.1a2.347,2.347,0,0,1,1.856-.023.41.41,0,0,1,.027.454,2.487,2.487,0,0,1-1.213.154A1.182,1.182,0,0,1,510.557,568.543Z" transform="translate(-1.362 -23.07)" fill="#6ba5e2"/>
      <path id="Path_1905" data-name="Path 1905" d="M611.49,573.465c-.406-.023-.813-.036-1.217-.073a4.645,4.645,0,0,0-.723.07c-.111-.195-.124-.373.087-.513h1.853Q611.49,573.207,611.49,573.465Z" transform="translate(-71.746 -26.664)" fill="#62a0de"/>
      <path id="Path_1906" data-name="Path 1906" d="M510.556,570.136a17.423,17.423,0,0,0,1.84,0,.375.375,0,0,1,.006.516,10.214,10.214,0,0,1-1.847-.074Q510.555,570.357,510.556,570.136Z" transform="translate(-1.36 -24.662)" fill="#67a3e0"/>
      <path id="Path_1907" data-name="Path 1907" d="M512.416,567.318a5.728,5.728,0,0,0-1.858,0V566.8a9.683,9.683,0,0,1,1.691.064c.074.017.164-.037.247-.059C512.586,566.993,512.661,567.18,512.416,567.318Z" transform="translate(-1.363 -22.283)" fill="#6fa8e4"/>
      <path id="Path_1908" data-name="Path 1908" d="M755.961,566.882a3.6,3.6,0,0,1,1.3-.018c.475-.016.957.006,1.436.016a.145.145,0,0,1,0,.221c-.648.024-1.3.046-1.945.075a3.02,3.02,0,0,1-.794-.081C755.958,567.025,755.96,566.953,755.961,566.882Z" transform="translate(-175.98 -22.292)" fill="#6ea8e4"/>
      <path id="Path_1909" data-name="Path 1909" d="M632.8,557.3a3.424,3.424,0,0,0-1.057-.072c-.141-.014-.3.055-.417-.08a3.973,3.973,0,0,1,.593-.591.968.968,0,0,0,.641.052.172.172,0,0,1,.239.1Z" transform="translate(-87.297 -15.001)" fill="#85b6ee"/>
      <path id="Path_1910" data-name="Path 1910" d="M758.514,572.732a5.822,5.822,0,0,0-1.63-.063c-.368,0-.737.015-1.1-.011l-.078-.218,2.813,0A.192.192,0,0,1,758.514,572.732Z" transform="translate(-175.798 -26.3)" fill="#63a1df"/>
      <path id="Path_1911" data-name="Path 1911" d="M609.628,566.813l1.922.074q.006.106.013.213a2.912,2.912,0,0,1-1.1.088c-.255-.013-.511,0-.766-.006A.22.22,0,0,1,609.628,566.813Z" transform="translate(-71.806 -22.298)" fill="#6ea8e4"/>
      <path id="Path_1912" data-name="Path 1912" d="M634.263,555.442c-.228-.125-.446.138-.686.01-.084-.045-.185-.04-.194-.164l.516-.515c.072.173.223.157.368.155Q634.265,555.185,634.263,555.442Z" transform="translate(-88.761 -13.731)" fill="#89b8ef"/>
      <path id="Path_1913" data-name="Path 1913" d="M557.975,551.725q0-.26,0-.521c.114.139.07.305.07.46q.005,2.168,0,4.335l-.008,0c-.212-.055-.149-.235-.172-.376-.009-.173,0-.346,0-.519q-.011-.358,0-.716c0-.172-.007-.345,0-.518s-.006-.341,0-.512c0-.127-.006-.253,0-.38,0-.147-.005-.294,0-.442,0-.127-.006-.255,0-.382A.58.58,0,0,1,557.975,551.725Z" transform="translate(-35.024 -11.191)" fill="#6ba5e2"/>
      <path id="Path_1914" data-name="Path 1914" d="M568.56,551.694l.015.379a1.006,1.006,0,0,1,.1.649c0,.175.007.35,0,.524s.006.346,0,.519.006.345,0,.518.006.345,0,.518c.006.195.006.389,0,.584s.007.391,0,.586c-.022.143.04.325-.173.381l0,0q0-2.115,0-4.229C568.5,551.977,568.458,551.825,568.56,551.694Z" transform="translate(-42.586 -11.54)" fill="#6ba5e2"/>
      <path id="Path_1915" data-name="Path 1915" d="M747.224,567.813c-.066.1-.171.08-.266.08h-3.013c-.1,0-.2.019-.268-.077Z" transform="translate(-167.242 -23.009)" fill="#6aa5e2"/>
      <path id="Path_1916" data-name="Path 1916" d="M716.292,563.8q0,2.781-.006,5.561c0,.619-.219.846-.833.848q-1.681.006-3.363,0c-.621,0-.843-.227-.843-.844q0-2.817,0-5.635a.17.17,0,0,1-.037-.114c.044-.237.223-.344.418-.438a1.267,1.267,0,0,1,.505-.077h3.3a1.374,1.374,0,0,1,.574.1C716.219,563.342,716.414,563.495,716.292,563.8Z" transform="translate(-144.137 -19.654)" fill="#00529e"/>
      <path id="Path_1917" data-name="Path 1917" d="M682.731,574c0,.38-.006.76,0,1.14,0,.154-.024.26-.217.26-1.656,0-3.312,0-5.047,0l1.413-1.473c.117-.267.374-.412.551-.627a4.129,4.129,0,0,0,.436-.46,2.542,2.542,0,0,0,.395-.53.457.457,0,0,1,.272-.233c.64-.058,1.28-.02,1.921-.022a.321.321,0,0,1,.369.285,2.894,2.894,0,0,1,.014.545c.005.222.007.445,0,.667A.619.619,0,0,1,682.731,574Z" transform="translate(-120.127 -26.018)" fill="#146cc3"/>
      <path id="Path_1918" data-name="Path 1918" d="M663.9,568.46l.227-.36c2.044.065,4.089.016,6.133.033,2.267.019,4.534-.026,6.8-.006a.633.633,0,0,1,.454.118v.369a.253.253,0,0,1-.239.067,4.318,4.318,0,0,0-1.288-.034c-1.106.059-2.216.035-3.318.015-1.24-.022-2.48.019-3.72,0-.968-.018-1.938-.039-2.909,0a11.21,11.21,0,0,1-1.843-.02C664.078,568.62,663.913,568.659,663.9,568.46Z" transform="translate(-110.474 -23.214)" fill="#6ba6e2"/>
      <path id="Path_1919" data-name="Path 1919" d="M663.512,569.347a1.369,1.369,0,0,0,.779.118c.865.016,1.733-.073,2.6-.027.669.035,1.333-.023,2,.011.911.046,1.83-.061,2.74-.012.669.036,1.332-.024,2,.012a26.523,26.523,0,0,0,2.7-.037c.28-.014.525.116.8.089v.147a1.733,1.733,0,0,1-.892.166c-.991-.006-1.982.037-2.973.006-.744-.023-1.495-.079-2.233-.036-.762.044-1.521.005-2.281.034-.806.03-1.616-.084-2.417-.038-.725.042-1.447.017-2.17.035a4.28,4.28,0,0,1-.553,0c-.114-.012-.261,0-.253-.187A.483.483,0,0,1,663.512,569.347Z" transform="translate(-110.088 -24.101)" fill="#69a4e1"/>
      <path id="Path_1920" data-name="Path 1920" d="M671.987,571.848c.008-.219-.139-.216-.3-.216-.664,0-1.328,0-1.992,0a1.31,1.31,0,0,1-.762.055,1.249,1.249,0,0,0-.331-.024c-1.339.065-2.68-.005-4.02.037-.647.02-1.3-.025-1.955-.05-.111,0-.261.006-.267-.176,0-.06.008-.119.075-.147,1.019-.041,2.039-.025,3.059-.023,1.966.005,3.933-.016,5.9,0,1.523.012,3.046-.012,4.569,0a.611.611,0,0,1,.456.1v.442a4.359,4.359,0,0,1-1.337.068,22.635,22.635,0,0,0-2.607.016A.59.59,0,0,1,671.987,571.848Z" transform="translate(-109.381 -25.489)" fill="#64a1df"/>
      <path id="Path_1921" data-name="Path 1921" d="M678.073,567.481q-6.495,0-12.99,0c-.138,0-.336.1-.4-.14l.146-.226c1.407.034,2.815.031,4.222.035.722,0,1.444,0,2.166-.034a1.1,1.1,0,0,1,.184.066,7.832,7.832,0,0,0,2.154-.013.7.7,0,0,1,.122-.05,4.66,4.66,0,0,1,1.025-.06c.931.061,1.864,0,2.8-.023.214-.006.42-.033.575.155Z" transform="translate(-111.034 -22.45)" fill="#6ea7e3"/>
      <path id="Path_1922" data-name="Path 1922" d="M729.065,569.9V569.6a.569.569,0,0,1,.419-.1c1.046-.013,2.093,0,3.14,0,1.486,0,2.973-.036,4.459,0,.688.018,1.372-.017,2.059-.008a.705.705,0,0,1,.429.078.268.268,0,0,1,.012.335,2.115,2.115,0,0,1-1.195.075,14.642,14.642,0,0,0-1.69,0c-1.166-.007-2.332-.009-3.5-.02-1.213-.01-2.429.032-3.644.036A.654.654,0,0,1,729.065,569.9Z" transform="translate(-156.845 -24.204)" fill="#69a4e1"/>
      <path id="Path_1923" data-name="Path 1923" d="M695.728,575.36V574.7a.663.663,0,0,1,.488-.118q1.729,0,3.458,0a.673.673,0,0,1,.488.118v.663a14.21,14.21,0,0,1-2.078.1,19.621,19.621,0,0,0-1.975-.014A.446.446,0,0,1,695.728,575.36Z" transform="translate(-133.123 -27.822)" fill="#5b9cdb"/>
      <path id="Path_1924" data-name="Path 1924" d="M729.064,570.9h10.5a.191.191,0,0,1,0,.295,31.871,31.871,0,0,0-3.22-.053c-.583.008-1.166,0-1.751.01-1.012.022-2.025-.014-3.037-.007-.827.006-1.659.045-2.488-.024Q729.064,571.013,729.064,570.9Z" transform="translate(-156.844 -25.207)" fill="#66a3e0"/>
      <path id="Path_1925" data-name="Path 1925" d="M700.162,573.515h-4.434q0-.258,0-.516a13.354,13.354,0,0,1,2.208-.067,21.308,21.308,0,0,1,2.226.067Q700.162,573.257,700.162,573.515Z" transform="translate(-133.123 -26.64)" fill="#619fdd"/>
      <path id="Path_1926" data-name="Path 1926" d="M729.063,575.359V574.7a.67.67,0,0,1,.488-.117q1.582,0,3.164,0a.673.673,0,0,1,.488.118v.59c-.144.127-.322.093-.491.1-.732.047-1.467.037-2.2.04A6.637,6.637,0,0,1,729.063,575.359Z" transform="translate(-156.843 -27.822)" fill="#5b9cdb"/>
      <path id="Path_1927" data-name="Path 1927" d="M733.2,565.041c0,.11-.006.22,0,.33.013.184-.057.255-.251.264a18.831,18.831,0,0,1-3.2,0c-.229-.028-.453.1-.689.065q0-.294,0-.589a.486.486,0,0,1,.469-.148,9.637,9.637,0,0,0,1.873.021c.487-.038.972.007,1.455-.04A.43.43,0,0,1,733.2,565.041Z" transform="translate(-156.836 -20.969)" fill="#71a9e5"/>
      <path id="Path_1928" data-name="Path 1928" d="M676.6,570.936c-1.1.029-2.211.024-3.315.028-1.286.005-2.575-.021-3.862-.027-1.678-.007-3.355,0-5.033,0-.476,0-.953,0-1.429,0-.118,0-.25.04-.344-.077l.149-.219a.559.559,0,0,0,.389.076c.393,0,.786.008,1.179,0,.859-.023,1.718-.051,2.575-.047.561,0,1.125.038,1.69.043,1.007.011,2.015-.084,3.017-.041.835.035,1.669.051,2.5.04.722-.01,1.445,0,2.167-.048a.4.4,0,0,1,.314.057Z" transform="translate(-109.566 -25.02)" fill="#67a3e0"/>
      <path id="Path_1929" data-name="Path 1929" d="M729.065,568.6h10.5a.212.212,0,0,1,.006.31c-1.593.006-3.186-.016-4.78,0-1.373.016-2.747-.016-4.121-.018-.4,0-.808.022-1.212,0-.133-.007-.273.025-.388-.074Z" transform="translate(-156.845 -23.571)" fill="#6ba6e2"/>
      <path id="Path_1930" data-name="Path 1930" d="M733.2,573.536h-4.14q0-.258,0-.516a11.037,11.037,0,0,1,1.924-.057c.735-.045,1.477.033,2.216.057Z" transform="translate(-156.844 -26.661)" fill="#619fdd"/>
      <path id="Path_1931" data-name="Path 1931" d="M732.405,563.739c-.984.024-1.968.038-2.951.079a4.342,4.342,0,0,0-1.192,0l-.061,0a.758.758,0,0,0-.259-.5.652.652,0,0,1,.548-.154c1.141.012,2.282.011,3.422-.035a.647.647,0,0,1,.493.1Z" transform="translate(-156.046 -19.667)" fill="#77ade7"/>
      <path id="Path_1932" data-name="Path 1932" d="M695.727,577.089a8.35,8.35,0,0,1,2.005-.036,13.567,13.567,0,0,1,1.526.02c.294.032.6-.119.9.016.051.256-.059.39-.315.413-.133.012-.267.029-.4.029q-1.859,0-3.718,0Q695.727,577.31,695.727,577.089Z" transform="translate(-133.123 -29.551)" fill="#5799d9"/>
      <path id="Path_1933" data-name="Path 1933" d="M729.037,577.111a3.324,3.324,0,0,1,1.308-.012,5.959,5.959,0,0,0,.866-.03c.652.041,1.31-.015,1.966-.031,0,.474-.037.513-.528.515-1.063,0-2.126-.012-3.189.008C729.107,577.568,728.987,577.439,729.037,577.111Z" transform="translate(-156.817 -29.574)" fill="#5799d9"/>
      <path id="Path_1934" data-name="Path 1934" d="M674.779,576.238a2.721,2.721,0,0,1-.591.59c-1.06-.047-2.12-.049-3.179,0a1.617,1.617,0,0,0-.134-.518.477.477,0,0,1,.459-.181c1.022.012,2.045-.02,3.067,0A.49.49,0,0,1,674.779,576.238Z" transform="translate(-115.438 -28.922)" fill="#599ada"/>
      <path id="Path_1935" data-name="Path 1935" d="M676.974,570.492c-.969.025-1.939.059-2.909.071-1.509.019-3.015-.066-4.526-.012-1.238.044-2.482-.086-3.72-.041-.786.029-1.571.038-2.357.053-.123,0-.287.058-.322-.148l.062-.091c.086.126.22.1.337.091.853-.07,1.708,0,2.564-.033.58-.026,1.187-.01,1.779.009.985.031,1.977.035,2.969-.012.592-.028,1.212,0,1.816.013.971.02,1.948.059,2.927-.012a8.847,8.847,0,0,1,1.381-.037Z" transform="translate(-109.935 -24.797)" fill="#67a3e0"/>
      <path id="Path_1936" data-name="Path 1936" d="M699.927,566.193a2.5,2.5,0,0,0-.679-.026c-.962-.026-1.923.093-2.885-.008a5.759,5.759,0,0,0-.87.035.341.341,0,0,1,0-.471.782.782,0,0,1,.462-.088c1.043,0,2.086-.008,3.129,0a1.4,1.4,0,0,1,.847.188Z" transform="translate(-132.888 -21.456)" fill="#71a9e5"/>
      <path id="Path_1937" data-name="Path 1937" d="M729.065,569.364h4.958q2.479,0,4.958,0a1.85,1.85,0,0,1,.579.076.047.047,0,0,1,.016.049c-.005.016-.01.025-.016.025h-10.5Z" transform="translate(-156.845 -24.112)" fill="#6aa5e2"/>
      <path id="Path_1938" data-name="Path 1938" d="M699.99,565c-1.476-.147-2.956-.042-4.434-.074a.229.229,0,0,1-.035-.293,2.2,2.2,0,0,1,1.112-.152c.869.043,1.738,0,2.606.024a1.472,1.472,0,0,1,.82.126l0,.074C699.959,564.788,700,564.9,699.99,565Z" transform="translate(-132.95 -20.633)" fill="#74abe6"/>
      <path id="Path_1939" data-name="Path 1939" d="M584.908,557.006a.643.643,0,0,0,.065.369c0,.073.01.147.014.221a.383.383,0,0,1,.083.177,1.28,1.28,0,0,1-.081.706c0,.1-.008.2-.012.3a1.318,1.318,0,0,0-.087.513,1.543,1.543,0,0,0-.139.506,1.428,1.428,0,0,0-.218.522,5.851,5.851,0,0,1-2.257,2.3,5.249,5.249,0,0,1-5.505-.549,7.256,7.256,0,0,1-1.4-1.689c-.167-.134-.2-.346-.3-.519-.07-.184-.108-.378-.185-.559a1.2,1.2,0,0,1-.034-.72c.083-.347-.014-.707.052-1.058l0-.078c-.1-.146-.022-.295-.008-.443.039-.2.1-.391.139-.591a1.925,1.925,0,0,1,.258-.588,8.134,8.134,0,0,1,.456-.745,2.618,2.618,0,0,0,.292-.4c.179-.179.371-.345.548-.525.285-.229.6-.418.893-.63a3.532,3.532,0,0,1,1.434-.42,7.414,7.414,0,0,1,2.053,0,8.339,8.339,0,0,1,1.551.591l.819.61.354.351a1.112,1.112,0,0,0,.305.365l.332.51.205.369.228.589Z" transform="translate(-47.085 -12.491)" fill="#00529e"/>
      <path id="Path_1940" data-name="Path 1940" d="M570.6,568.615c.007.46.022.921.017,1.381a1.469,1.469,0,0,0,.08.457,1.065,1.065,0,0,1-.778.107,4.612,4.612,0,0,1-1.155-.106l0-.736c.4,0,.8.04,1.2.01.58-.043.582-.013.569-.6C570.565,568.957,570.477,568.772,570.6,568.615Z" transform="translate(-42.779 -23.58)" fill="#619fde"/>
      <path id="Path_1941" data-name="Path 1941" d="M568.77,574.881c.644-.13,1.288.076,1.932,0a1.537,1.537,0,0,1,.148.5c.006.182-.136.233-.266.246a8.524,8.524,0,0,1-1.655,0,.307.307,0,0,1-.16-.087Z" transform="translate(-42.783 -28.008)" fill="#5b9cdb"/>
      <path id="Path_1942" data-name="Path 1942" d="M568.732,576.891c.539,0,1.079,0,1.618,0a.507.507,0,0,0,.463-.164,1.26,1.26,0,0,1,.223.516c-.288.188-.615.069-.921.1s-.636-.033-.95-.007C568.8,577.371,568.668,577.24,568.732,576.891Z" transform="translate(-42.746 -29.354)" fill="#5799d9"/>
      <path id="Path_1943" data-name="Path 1943" d="M516.954,557.511c.1-.161.048-.344.079-.515l.136-.52.207-.518a.766.766,0,0,0,.16-.368l.422-.591.307-.37a.742.742,0,0,0,.282-.294l.636-.505.5-.294a7.708,7.708,0,0,1,1.787-.52,10.87,10.87,0,0,1,1.6.076,2.907,2.907,0,0,1,1.261.358c.183.1.368.2.541.317.176.155.381.275.543.445.147.154.3.3.453.453a4.629,4.629,0,0,1,.38.457c.116.167.212.348.324.517.119.218.2.454.3.68a4.409,4.409,0,0,1,.158.529c0,.147.106.3,0,.441l.065.733q0,.254-.009.508a4.741,4.741,0,0,0-.139.819.765.765,0,0,1-.086.525c-.091.172-.111.384-.29.505a5.282,5.282,0,0,1-2.3,2.255,5.068,5.068,0,0,1-6.716-2.156c-.046-.085-.1-.165-.153-.248l-.216-.528a1.509,1.509,0,0,0-.15-.586,2.04,2.04,0,0,0-.078-.653q0-.258-.006-.516Q516.945,557.731,516.954,557.511Z" transform="translate(-5.901 -12.476)" fill="#00529e"/>
      <path id="Path_1944" data-name="Path 1944" d="M551.062,575.509l.153-.516h1.917v.664c-.019.015-.039.039-.06.04a7.427,7.427,0,0,1-1.852-.029C551.142,575.652,551.044,575.631,551.062,575.509Z" transform="translate(-30.182 -28.118)" fill="#5b9cdb"/>
      <path id="Path_1945" data-name="Path 1945" d="M550.517,576.783a2.033,2.033,0,0,0,.955.1,5.763,5.763,0,0,1,1.115.043c0,.469,0,.459-.488.446s-.975,0-1.463,0c-.117,0-.248.039-.342-.074Z" transform="translate(-29.637 -29.392)" fill="#5799d9"/>
      <path id="Path_1946" data-name="Path 1946" d="M765.451,558.226v-1.4q0-.258,0-.516v-.442q0-.221,0-.443t0-.442v-.442q0-.258.006-.516l.2-.37a.636.636,0,0,1,.474-.149q3.526,0,7.051,0a.809.809,0,0,1,.641.3.933.933,0,0,1,.174.732c.006.149,0,.3,0,.445s0,.3,0,.443c.006.168,0,.336,0,.5a1.2,1.2,0,0,1-.2.827.778.778,0,0,1-.6.233c-.29-.024-.331.095-.246.329.008.76.026,1.52-.01,2.279-.012.239.066.3.281.3a.724.724,0,0,1,.729.461.394.394,0,0,1-.05.378c0,.626-.006,1.252-.011,1.878,0,.5-.238.763-.738.764q-3.474.011-6.948,0c-.5,0-.734-.258-.742-.765-.009-.626-.007-1.252-.011-1.878v-.59q0-.221,0-.442v-1.18Q765.451,558.373,765.451,558.226Z" transform="translate(-182.735 -12.826)" fill="#00529e"/>
      <path id="Path_1947" data-name="Path 1947" d="M791.835,569.64c-.231-.508-.714-.36-1.141-.4a4.218,4.218,0,0,0,.122-1.573c.019-.377.009-.756.012-1.135a.079.079,0,0,1,.106.036,1.148,1.148,0,0,1,.059.5c.006.168.006.335,0,.5,0,.149.007.3,0,.447s0,.3,0,.453c-.018.312.152.389.436.393.85.01,1.7-.043,2.55,0a.666.666,0,0,1,.456.11q0,.3,0,.59c-.286.2-.619.11-.927.123A12.661,12.661,0,0,1,791.835,569.64Z" transform="translate(-200.699 -22.091)" fill="#5b9cdb"/>
      <path id="Path_1948" data-name="Path 1948" d="M794.114,562.451a1.319,1.319,0,0,0,.184-.8.809.809,0,0,1,.667-.1c.566.086,1.141-.017,1.7.1a.425.425,0,0,1,.2.068v.737a2.567,2.567,0,0,1-1.327.145,7.339,7.339,0,0,0-.915.012C794.439,562.649,794.229,562.676,794.114,562.451Z" transform="translate(-203.132 -18.538)" fill="#78aee8"/>
      <path id="Path_1949" data-name="Path 1949" d="M791.382,568.533q0-.258,0-.516a.556.556,0,0,1,.415-.112c.905.02,1.81-.054,2.716,0a.607.607,0,0,1,.414.114v.516a.518.518,0,0,1-.348.093c-.934.061-1.872-.037-2.806.068A.423.423,0,0,1,791.382,568.533Z" transform="translate(-201.188 -23.06)" fill="#6ba6e2"/>
      <path id="Path_1950" data-name="Path 1950" d="M794.928,573.4h-3.04c-.509,0-.509,0-.507-.516a.455.455,0,0,1,.3-.108c.979-.034,1.958-.019,2.937,0a.441.441,0,0,1,.3.108Z" transform="translate(-201.187 -26.528)" fill="#619fdd"/>
      <path id="Path_1951" data-name="Path 1951" d="M794.922,566.753h-3.545q0-.258,0-.515a.593.593,0,0,1,.482-.128c.847.026,1.693,0,2.54.014a.729.729,0,0,1,.526.114Z" transform="translate(-201.183 -21.796)" fill="#70a9e4"/>
      <path id="Path_1952" data-name="Path 1952" d="M794.459,565.252h-3.547l-.062,0-.126-.354a1.766,1.766,0,0,0,.978-.172.564.564,0,0,0,.421.082,4.8,4.8,0,0,1,1.116-.019,11.859,11.859,0,0,0,1.22-.051Z" transform="translate(-200.719 -20.811)" fill="#73aae5"/>
      <path id="Path_1953" data-name="Path 1953" d="M791.382,570.134c.276.145.552,0,.828,0,.906,0,1.812,0,2.718,0q0,.222,0,.444c-.067.14-.193.124-.316.121-.817-.021-1.634-.016-2.451.011a1.269,1.269,0,0,1-.78-.132Z" transform="translate(-201.188 -24.661)" fill="#67a3e0"/>
      <path id="Path_1954" data-name="Path 1954" d="M794.549,555.278a2.535,2.535,0,0,0-.082-.737,5.888,5.888,0,0,0,1.173.061,12.592,12.592,0,0,0,1.483.013v.59a.483.483,0,0,1-.342.111c-.7.013-1.4-.006-2.1.015A.213.213,0,0,1,794.549,555.278Z" transform="translate(-203.383 -13.566)" fill="#8ab9f0"/>
      <path id="Path_1955" data-name="Path 1955" d="M797.326,560.382a13.389,13.389,0,0,1-1.663-.048c-.3-.019-.607-.018-.911-.026v-.519c.09-.175.264-.1.4-.12a17.757,17.757,0,0,1,1.871.011.41.41,0,0,1,.3.112Z" transform="translate(-203.586 -17.194)" fill="#7eb2eb"/>
      <path id="Path_1956" data-name="Path 1956" d="M791.382,571.666c1.124.086,2.252-.081,3.375.052a.46.46,0,0,0,.171-.052v.442h-3.546Z" transform="translate(-201.188 -25.75)" fill="#64a1df"/>
      <path id="Path_1957" data-name="Path 1957" d="M794.649,577.12a.805.805,0,0,1,.46-.085q1.072,0,2.144,0c0,.517,0,.531-.5.513a10.845,10.845,0,0,1-2.075-.07Z" transform="translate(-203.512 -29.572)" fill="#5799d9"/>
      <path id="Path_1958" data-name="Path 1958" d="M794.753,556.895a6.745,6.745,0,0,1,1.577-.07c.332-.014.664,0,1,0q0,.258,0,.516a.364.364,0,0,1-.273.094c-.652-.034-1.3.028-1.957.012a.462.462,0,0,1-.344-.106Z" transform="translate(-203.586 -15.182)" fill="#85b6ee"/>
      <path id="Path_1959" data-name="Path 1959" d="M794.753,558.577c.858.011,1.715-.056,2.573,0v.442a18.129,18.129,0,0,0-2.573,0Z" transform="translate(-203.586 -16.421)" fill="#82b4ec"/>
      <path id="Path_1960" data-name="Path 1960" d="M641.493,557.787H638.66c-.824,0-.824,0-.824-.823,0-.369.008-.738,0-1.106-.006-.2.066-.252.257-.252q4.234.007,8.469,0c.419,0,.139.209.079.307q-1.77,2.89-3.551,5.773c-.069.112-.13.229-.221.39.991,0,1.935,0,2.878,0,.281,0,.656-.089.818.054.193.17.05.553.062.843.012.307-.017.616.008.921.024.279-.068.345-.344.344-2.182-.012-4.364-.007-6.545-.007h-2.217Z" transform="translate(-91.708 -14.323)" fill="#feef01"/>
      <path id="Path_1961" data-name="Path 1961" d="M610.087,568.806c0-.05,0-.1,0-.151.542.019,1.077-.075,1.626-.033a5.057,5.057,0,0,0,1.2,0,5.694,5.694,0,0,1,.944.029,15.177,15.177,0,0,0,2.035-.071c.34-.041.669.068,1.018.043a11.884,11.884,0,0,1,1.778.037,12.55,12.55,0,0,1,1.528-.008,1.3,1.3,0,0,1-.28.449.972.972,0,0,1-.571.108c-2.067-.031-4.134.026-6.2-.015-.811-.016-1.623.019-2.434.015a1.392,1.392,0,0,1-.511-.05C610.053,569.085,610.154,568.916,610.087,568.806Z" transform="translate(-72.183 -23.551)" fill="#6aa5e2"/>
      <path id="Path_1962" data-name="Path 1962" d="M671.667,554.486c.835.019,1.673.027,2.506.007.441-.011.9-.042,1.334-.023,1.1.046,2.2-.036,3.293.037.345.023.692-.04,1.043-.03,1.022.028,2.045.01,3.067.01.222,0,.443,0,.664,0a.309.309,0,0,1,.007.375.515.515,0,0,1-.35.086c-1.021.023-2.043,0-3.063,0-1.24-.005-2.482-.012-3.721-.014-1.068,0-2.138-.035-3.206.016a11.116,11.116,0,0,1-1.4-.04c-.122-.057-.055-.191-.113-.274Z" transform="translate(-116.002 -13.51)" fill="#8bbaf1"/>
      <path id="Path_1963" data-name="Path 1963" d="M668.444,572.848a1.187,1.187,0,0,1-.388.513,7.485,7.485,0,0,1-1.867.1c-1.007.012-2.015.022-3.025-.035-.631-.036-1.275.025-1.913.038-.182,0-.417.033-.438-.26a1.577,1.577,0,0,1,.3-.5q1.931.029,3.863.025c1.054,0,2.109-.041,3.163.014A.4.4,0,0,1,668.444,572.848Z" transform="translate(-108.278 -26.488)" fill="#609fdd"/>
      <path id="Path_1964" data-name="Path 1964" d="M610.21,570.309c.98-.021,1.963-.046,2.939-.026,1.337.026,2.674,0,4.011.024.943.017,1.886.007,2.829.009l-.241.362h-9.539A.423.423,0,0,1,610.21,570.309Z" transform="translate(-72.241 -24.762)" fill="#67a3e0"/>
      <path id="Path_1965" data-name="Path 1965" d="M660.314,574.445c.075.173.228.161.377.158.656-.011,1.32-.093,1.967-.051,1.02.066,2.037.041,3.054.04a6.609,6.609,0,0,0,1.49-.053.979.979,0,0,1,.356.062,1.407,1.407,0,0,1-.437.443c-1.11,0-2.219,0-3.329,0a1.811,1.811,0,0,0-.576.075.68.68,0,0,0-.59-.233q-1.068.008-2.135,0c-.126,0-.312.075-.367-.072S660.2,574.544,660.314,574.445Z" transform="translate(-107.78 -27.729)" fill="#5c9cdb"/>
      <path id="Path_1966" data-name="Path 1966" d="M665.669,565.049a2.086,2.086,0,0,1,.371-.6,18.05,18.05,0,0,0,2.135.052c.944.074,1.892-.07,2.838,0a.868.868,0,0,0,.326-.056c.351.05.442.308.487.6a2.232,2.232,0,0,1-1.188.129c-1.24-.012-2.48.058-3.72.011a6.961,6.961,0,0,0-.922,0A.35.35,0,0,1,665.669,565.049Z" transform="translate(-111.734 -20.61)" fill="#73abe6"/>
      <path id="Path_1967" data-name="Path 1967" d="M672.29,563.193c-.1.255-.332.145-.478.121a4.626,4.626,0,0,0-.834,0c-.812.012-1.624.04-2.436-.017-.4-.028-.806.018-1.209.03-.151,0-.3.009-.375-.163a1.858,1.858,0,0,1,.3-.5c.925.083,1.853-.029,2.779.038a13.4,13.4,0,0,0,1.68-.059A.594.594,0,0,1,672.29,563.193Z" transform="translate(-112.651 -19.329)" fill="#77ade8"/>
      <path id="Path_1968" data-name="Path 1968" d="M665.328,566.411c.469,0,.938,0,1.407.007.372.009.745.03,1.117.058a6.386,6.386,0,0,0,.836-.05c.532-.028,1.069.041,1.6.009a4.639,4.639,0,0,0,1.19-.081c.238.042.24.178.142.353a21.1,21.1,0,0,1-2.633.068c-.778,0-1.556.02-2.335-.047-.3-.026-.629.054-.948.053a.754.754,0,0,1-.514-.151Z" transform="translate(-111.393 -21.972)" fill="#6fa8e4"/>
      <path id="Path_1969" data-name="Path 1969" d="M669.193,572.284c-1.087-.057-2.175-.009-3.263-.027-.769-.012-1.546.024-2.319.016-.475-.005-.948.016-1.422.007-.122,0-.287.063-.325-.143l.144-.229c.093.117.225.072.343.078.586.03,1.172-.023,1.762.058.41.055.841-.069,1.26-.05.966.044,1.93-.017,2.894,0,.359,0,.717.049,1.076.076Z" transform="translate(-109.027 -25.923)" fill="#64a1df"/>
      <path id="Path_1970" data-name="Path 1970" d="M672.523,561.6a.244.244,0,0,1-.278.132c-.612-.119-1.225.035-1.848-.038a14.394,14.394,0,0,0-1.688.029,1.321,1.321,0,0,1-.7-.139,1.425,1.425,0,0,1,.289-.459,4.985,4.985,0,0,0,1.488.1c.5-.008,1,.008,1.5.032a2.388,2.388,0,0,0,.835-.069C672.36,561.221,672.533,561.322,672.523,561.6Z" transform="translate(-113.402 -18.249)" fill="#7bafe9"/>
      <path id="Path_1971" data-name="Path 1971" d="M672.867,560.268c-.248.2-.543.121-.819.12a12.053,12.053,0,0,0-1.564-.018,12.651,12.651,0,0,0-1.313-.006c-.112.025-.143-.11-.158-.21a.755.755,0,0,1,.222-.362,5.158,5.158,0,0,0,1.281.013c.624-.117,1.243.043,1.862-.032A.513.513,0,0,1,672.867,560.268Z" transform="translate(-114.114 -17.28)" fill="#7eb1eb"/>
      <path id="Path_1972" data-name="Path 1972" d="M672.971,558.666c-.316.258-.656.009-.986.031-.186.012-.38.053-.543.048-.552-.017-1.128.179-1.66-.114a1.731,1.731,0,0,1,.3-.5,19.5,19.5,0,0,0,2.385.03A.528.528,0,0,1,672.971,558.666Z" transform="translate(-114.662 -16.119)" fill="#81b3ec"/>
      <path id="Path_1973" data-name="Path 1973" d="M673.279,557.214a14.648,14.648,0,0,1-2.336.04c-.069,0-.092-.071-.1-.134l.223-.368c.592-.044,1.188.033,1.78-.042A.551.551,0,0,1,673.279,557.214Z" transform="translate(-115.414 -15.11)" fill="#85b6ee"/>
      <path id="Path_1974" data-name="Path 1974" d="M673.385,555.6a1.916,1.916,0,0,1-1.019.022c-.133-.056-.238.02-.347.054-.163.052-.307.09-.407-.1a1.086,1.086,0,0,0,.082-.517c.078.055.062.14.067.218.289.148.6.036.9.072a6.2,6.2,0,0,1,.62.027A.206.206,0,0,1,673.385,555.6Z" transform="translate(-115.963 -13.938)" fill="#89b8ef"/>
      <path id="Path_1975" data-name="Path 1975" d="M712.772,550.443q.007-.183.014-.365a.687.687,0,0,0,.069-.372,1.127,1.127,0,0,0,.2-.443,2.155,2.155,0,0,1,3.479-.218l.3.514a.461.461,0,0,1,.166.294,3.186,3.186,0,0,1,.077.5.948.948,0,0,1-.027.223,4.639,4.639,0,0,1-.148.58,3.122,3.122,0,0,1-.244.414,3.336,3.336,0,0,1-.568.578,2.192,2.192,0,0,1-2.134.177,1.152,1.152,0,0,1-.423-.252,1.961,1.961,0,0,1-.444-.509,3.284,3.284,0,0,1-.237-.405,2.621,2.621,0,0,1-.136-.571A.185.185,0,0,1,712.772,550.443Z" transform="translate(-145.214 -9.098)" fill="#00529e"/>
      <path id="Path_1976" data-name="Path 1976" d="M574.626,553.054a10.507,10.507,0,0,0-1.437.513.714.714,0,0,1-.388.1c-.786-.044-1.567.142-2.354.029a3.143,3.143,0,0,0-.771.026,1.279,1.279,0,0,1-.895-.08q0-.332,0-.663C570.729,553,572.679,552.9,574.626,553.054Z" transform="translate(-42.791 -12.444)" fill="#8ebcf2"/>
      <path id="Path_1977" data-name="Path 1977" d="M539.456,553.338l-1.269-.445a2.521,2.521,0,0,1,1.355-.139c.582-.016,1.173.013,1.755.019a12.016,12.016,0,0,0,1.986-.037c.238-.037.456.092.691.074v.442c-.279.2-.6.09-.893.084-.928-.019-1.855.009-2.782.023C540.017,553.365,539.736,553.36,539.456,553.338Z" transform="translate(-21.022 -12.277)" fill="#8fbcf2"/>
      <path id="Path_1978" data-name="Path 1978" d="M570.5,566.337q-.036.223-.072.446c-.529,0-1.057,0-1.586,0-.12,0-.288.069-.321-.142.115-.107.052-.247.072-.372a.845.845,0,0,1,.592-.112c.3,0,.606-.008.909,0C570.254,566.162,570.417,566.166,570.5,566.337Z" transform="translate(-42.609 -21.825)" fill="#6fa8e4"/>
      <path id="Path_1979" data-name="Path 1979" d="M551.694,566.607l-.078-.444a4.866,4.866,0,0,1,1.912.071c.017.125-.044.264.07.371-.006.011-.008.026-.017.032A3.277,3.277,0,0,1,551.694,566.607Z" transform="translate(-30.578 -21.793)" fill="#70a8e4"/>
      <path id="Path_1980" data-name="Path 1980" d="M610.156,569.672v.369l-.064.072q0-.366,0-.732C610.186,569.461,610.145,569.572,610.156,569.672Z" transform="translate(-72.187 -24.124)" fill="#62a0de"/>
      <path id="Path_1981" data-name="Path 1981" d="M701.646,561.574a2.2,2.2,0,0,0,2.142-.17c1.61.123,3.221.033,4.832.025a.859.859,0,0,1,.648.208q0,.184,0,.369c-.5.022-1.01.056-1.5.044a15.322,15.322,0,0,1-1.989-.022,4.371,4.371,0,0,0-.972.063,2.054,2.054,0,0,0-.649-.086q-1.633.008-3.265,0a1.887,1.887,0,0,0-.578.072.456.456,0,0,1-.277.081,17.656,17.656,0,0,0-1.979,0c-.72-.015-1.443.05-2.162-.033-.153-.018-.326.029-.433-.137a.336.336,0,0,1,.052-.382c.215-.114.435-.01.652-.013,1.375-.016,2.751.04,4.126-.035A11.63,11.63,0,0,0,701.646,561.574Z" transform="translate(-132.909 -18.449)" fill="#79afe9"/>
      <path id="Path_1982" data-name="Path 1982" d="M729.9,560.347a17.414,17.414,0,0,0-2.772-.066,11.454,11.454,0,0,0-1.944.048,1.07,1.07,0,0,1-.763-.215l.518-.514a9.451,9.451,0,0,0,1.944.026,8.979,8.979,0,0,1,.988.032,7.678,7.678,0,0,0,1.568-.057.667.667,0,0,1,.462.082Z" transform="translate(-153.539 -17.159)" fill="#7eb1eb"/>
      <path id="Path_1983" data-name="Path 1983" d="M727.083,553.051l-.086-.3h4.737q0,.258,0,.516a.546.546,0,0,1-.419.1c-.981-.038-1.963,0-2.944-.056a6.511,6.511,0,0,1-.955.021C727.235,553.3,727.121,553.231,727.083,553.051Z" transform="translate(-155.373 -12.294)" fill="#8fbcf2"/>
      <path id="Path_1984" data-name="Path 1984" d="M726.958,556.863l.154-.584a4.305,4.305,0,0,0,1.852.127c.836.017,1.672-.039,2.507.014a.382.382,0,0,1,.235.1v.442a.524.524,0,0,1-.38.108c-1.312-.012-2.623.05-3.934,0C727.232,557.057,727.006,557.133,726.958,556.863Z" transform="translate(-155.346 -14.802)" fill="#85b6ee"/>
      <path id="Path_1985" data-name="Path 1985" d="M726.429,558.3c.272.2.6.106.885.111,1.287.021,2.575-.006,3.863-.017v.369a8.122,8.122,0,0,1-1.6.116,10.855,10.855,0,0,0-1.256-.072c-.571,0-1.15,0-1.724.029-.148.008-.3.016-.376-.157C726.234,558.529,726.358,558.432,726.429,558.3Z" transform="translate(-154.817 -16.244)" fill="#82b4ec"/>
      <path id="Path_1986" data-name="Path 1986" d="M732.085,555.691c-.849-.05-1.7-.017-2.55-.016a4.814,4.814,0,0,0-1.29.061.69.69,0,0,1-.754-.282c0-.069.006-.137.009-.206a1.622,1.622,0,0,1,1.005-.088c.849.049,1.691-.081,2.537-.029.22.013.442,0,.663,0a.55.55,0,0,1,.38.112Z" transform="translate(-155.725 -13.977)" fill="#89b8ef"/>
      <path id="Path_1987" data-name="Path 1987" d="M731.946,554.3c-1.528-.036-3.057.082-4.585,0q-.032-.257-.065-.514a.916.916,0,0,0,.895.194,5.957,5.957,0,0,1,1.289.012c.3.021.6-.025.9,0,.517.045,1.041.012,1.563.013Z" transform="translate(-155.586 -13.028)" fill="#8cbaf1"/>
      <path id="Path_1988" data-name="Path 1988" d="M544.856,555.818l-.539-.433a1.016,1.016,0,0,1,.8-.184,23.1,23.1,0,0,0,2.716.01.536.536,0,0,1,.5.163v.442c-.244.144-.506.028-.753.027A17.7,17.7,0,0,1,544.856,555.818Z" transform="translate(-25.384 -14.03)" fill="#89b8ef"/>
      <path id="Path_1989" data-name="Path 1989" d="M550.369,562.646l-.3-.666a.29.29,0,0,1,.231-.091c.678-.01,1.355.025,2.033.037.035,0,.065.032.093.055v.737a.24.24,0,0,1-.125.073,8.054,8.054,0,0,1-1.6.045A.4.4,0,0,1,550.369,562.646Z" transform="translate(-29.481 -18.793)" fill="#78aee8"/>
      <path id="Path_1990" data-name="Path 1990" d="M547.1,554.787a1.612,1.612,0,0,0-.93-.04c-.405.022-.817-.064-1.2-.008-.636.093-1.271-.153-1.892.058l-.5-.294c.052-.028.1-.078.156-.08.755-.021,1.512-.051,2.265-.055.7,0,1.4,0,2.1.049Z" transform="translate(-24.152 -13.442)" fill="#8cbaf1"/>
      <path id="Path_1991" data-name="Path 1991" d="M546.184,557.178a1.2,1.2,0,0,1,.746-.025,4.965,4.965,0,0,0,1.2-.02,10.829,10.829,0,0,1,1.537.044v.369a.539.539,0,0,1-.343.1c-.8.076-1.609-.02-2.412.051a.424.424,0,0,1-.276-.082Z" transform="translate(-26.713 -15.39)" fill="#85b6ee"/>
      <path id="Path_1992" data-name="Path 1992" d="M551.653,560.494c-.786.093-1.571-.035-2.357,0l-.315-.512a1.151,1.151,0,0,1,.8-.174c.5.052,1-.012,1.492.057a.637.637,0,0,1,.377.114Z" transform="translate(-28.703 -17.306)" fill="#7eb1ea"/>
      <path id="Path_1993" data-name="Path 1993" d="M550.768,559.149a19.756,19.756,0,0,0-2.672,0l-.359-.446c1.008-.1,2.021-.021,3.031-.073Q550.769,558.891,550.768,559.149Z" transform="translate(-27.818 -16.477)" fill="#81b3ec"/>
      <path id="Path_1994" data-name="Path 1994" d="M551.1,564.519a2.28,2.28,0,0,0,1.071.085,5.886,5.886,0,0,1,.99-.013v.516c-.509,0-1.018,0-1.526,0a.665.665,0,0,1-.386-.072Z" transform="translate(-30.209 -20.665)" fill="#73abe6"/>
      <path id="Path_1995" data-name="Path 1995" d="M568.78,555.124l4.408-.074-.847.6c-.724.069-1.451.022-2.176.05-.354.014-.712-.029-1.069,0a.4.4,0,0,1-.317-.059Z" transform="translate(-42.791 -13.928)" fill="#89b9f0"/>
      <path id="Path_1996" data-name="Path 1996" d="M568.779,556.911a9.421,9.421,0,0,1,1.526-.038c.535-.012,1.074-.006,1.611-.035a.7.7,0,0,1,.425.083,3.036,3.036,0,0,1-.538.506,1.724,1.724,0,0,1-.619.036c-.685-.008-1.37.019-2.054.023-.121,0-.245.032-.351-.058Z" transform="translate(-42.791 -15.198)" fill="#85b6ee"/>
      <path id="Path_1997" data-name="Path 1997" d="M568.778,558.7a24.022,24.022,0,0,1,2.816-.067.7.7,0,0,1,.208.067.8.8,0,0,1-.278.374c-.109.151-.27.156-.436.2-.659.192-1.314-.084-1.967.029a.387.387,0,0,1-.344-.091Z" transform="translate(-42.79 -16.472)" fill="#81b3ec"/>
      <path id="Path_1998" data-name="Path 1998" d="M568.777,560.322a15.208,15.208,0,0,1,1.671.031,2.16,2.16,0,0,0,1.076-.174l-.451.737a14.606,14.606,0,0,1-2.1.017.312.312,0,0,1-.2-.1Z" transform="translate(-42.789 -17.577)" fill="#7db1ea"/>
      <path id="Path_1999" data-name="Path 1999" d="M568.776,562.464q.934,0,1.87,0a.765.765,0,0,1,.425.078c-.016.221-.241.359-.237.589a.21.21,0,0,1-.278.1,3.78,3.78,0,0,0-1.269-.05.634.634,0,0,1-.513-.129Z" transform="translate(-42.788 -19.203)" fill="#78aee8"/>
      <path id="Path_2000" data-name="Path 2000" d="M568.774,564.476a7.549,7.549,0,0,0,1.368-.013c.246-.01.443.23.692.09l-.153.584a4.528,4.528,0,0,0-1.279-.068c-.209-.014-.419,0-.628,0Q568.773,564.77,568.774,564.476Z" transform="translate(-42.786 -20.625)" fill="#73abe6"/>
      <path id="Path_2001" data-name="Path 2001" d="M717.266,568.471c0,.871-.006,1.742,0,2.613,0,.2-.048.274-.264.272-1.108-.01-2.216-.008-3.323,0-.185,0-.258-.044-.257-.245q.011-2.631,0-5.263c0-.172.05-.239.229-.239,1.132.006,2.265.008,3.4,0,.236,0,.213.137.213.287Q717.264,567.183,717.266,568.471Z" transform="translate(-145.717 -21.44)" fill="#feef01"/>
      <path id="Path_2002" data-name="Path 2002" d="M695.5,563.448c.722.008,1.445.018,2.164.027a14.013,14.013,0,0,1,2.633.045,1.191,1.191,0,0,0-.295.37c-1.5,0-3-.083-4.5,0A.3.3,0,0,1,695.5,563.448Z" transform="translate(-132.891 -19.892)" fill="#77ade7"/>
      <path id="Path_2004" data-name="Path 2004" d="M682.757,558.151q0,.221,0,.442c0,.1,0,.2,0,.3v.443a.176.176,0,0,0-.007.063,6.126,6.126,0,0,1-1.3.042,4.9,4.9,0,0,1-.984-.023l-.084-.082a.349.349,0,0,0-.142-.353c-.187-.14-.205-.424-.446-.519a2.081,2.081,0,0,0-.518-.515.992.992,0,0,0-.368-.36,1811.851,1811.851,0,0,1-.888-.884,1.551,1.551,0,0,0-.444-.442.171.171,0,0,1-.073-.17,3.349,3.349,0,0,1,1.267-.077c1.225,0,2.45-.007,3.675,0,.175,0,.355,0,.4.232a2.076,2.076,0,0,1,.016.48c0,.151.007.3,0,.452,0,.126.006.252-.006.378a.377.377,0,0,1-.091.231Z" transform="translate(-120.15 -14.595)" fill="#146cc3"/>
      <path id="Path_2005" data-name="Path 2005" d="M687.776,567.817l2.288-.019c-.052.089-.14.084-.225.084h-1.863A.237.237,0,0,1,687.776,567.817Z" transform="translate(-127.465 -22.999)" fill="#6ba6e2"/>
      <path id="Path_2006" data-name="Path 2006" d="M581.659,564.059a4.45,4.45,0,1,1,4.425-4.464A4.373,4.373,0,0,1,581.659,564.059Z" transform="translate(-48.79 -14.006)" fill="#feef01"/>
      <path id="Path_2007" data-name="Path 2007" d="M523.575,555.16a4.45,4.45,0,1,1-4.438,4.451A4.386,4.386,0,0,1,523.575,555.16Z" transform="translate(-7.467 -14.006)" fill="#feef01"/>
      <path id="Path_2008" data-name="Path 2008" d="M767.654,559.94c0-1.338.006-2.677-.006-4.015,0-.261.08-.328.334-.327q3.27.014,6.541,0c.268,0,.333.085.324.336-.017.515-.018,1.032,0,1.547.009.25-.081.309-.317.306-.911-.012-1.823,0-2.735-.011-.258,0-.333.07-.33.328.009.735,0,.735.724.735.456,0,.912.01,1.367,0,.214-.007.272.066.267.272q-.019.829,0,1.657c0,.2-.067.252-.255.25-.591-.009-1.183.009-1.774-.009-.262-.008-.332.078-.329.333.007.737,0,.737.722.737.789,0,1.577.008,2.365,0,.223,0,.3.052.293.285-.017.528-.021,1.057,0,1.583.011.264-.1.3-.323.3q-3.289-.009-6.578,0c-.257,0-.3-.09-.3-.317C767.658,562.592,767.654,561.265,767.654,559.94Z" transform="translate(-184.299 -14.317)" fill="#feef01"/>
      <path id="Path_2009" data-name="Path 2009" d="M678.938,556.188c.006-.281-.2-.218-.362-.219q-2.448,0-4.9,0h-1.21c-.136,0-.274.009-.341-.149h11.76l.006.13c.1.285-.08.289-.288.307-.92.078-1.84-.019-2.759.026-.478.023-.958-.008-1.434.042A.517.517,0,0,1,678.938,556.188Z" transform="translate(-116.331 -14.475)" fill="#89b8ef"/>
      <path id="Path_2010" data-name="Path 2010" d="M715.139,551.871a1.463,1.463,0,1,1,1.474,1.47A1.444,1.444,0,0,1,715.139,551.871Z" transform="translate(-146.936 -10.633)" fill="#feef01"/>
      <path id="Path_2011" data-name="Path 2011" d="M695.736,556.51a9.435,9.435,0,0,0,1.587-.025c.239-.016.477.005.717-.008a15.507,15.507,0,0,1,1.736.039c.266.016.517-.13.794-.027.118.044.106-.127.123-.217l.156.586c-.017.249-.221.193-.359.2-.947.016-1.894-.015-2.84.023-.479.02-.956-.029-1.433,0a.556.556,0,0,1-.481-.125Z" transform="translate(-133.129 -14.797)" fill="#85b6ee"/>
      <path id="Path_2012" data-name="Path 2012" d="M695.735,558.4c.564-.02,1.128,0,1.692-.006.9-.014,1.811-.006,2.716,0,.233,0,.491.1.7-.089l.213.379c.08.177-.051.212-.172.244a1.425,1.425,0,0,1-.367.023c-1.419-.005-2.839.022-4.258,0a.735.735,0,0,1-.528-.108Z" transform="translate(-133.128 -16.242)" fill="#81b4ec"/>
      <path id="Path_2013" data-name="Path 2013" d="M695.735,559.776c.874.025,1.747-.025,2.625.037a3.623,3.623,0,0,0,1.146-.075,8.891,8.891,0,0,1,1.239.039c.127-.013.286.043.316-.159l.432.468c-.055.2-.226.157-.36.161-1.18.039-2.361.013-3.542.011a10.346,10.346,0,0,1-1.437,0c-.145-.02-.3,0-.418-.109Z" transform="translate(-133.128 -17.178)" fill="#7eb2eb"/>
      <path id="Path_2014" data-name="Path 2014" d="M695.734,561.3c1.06.053,2.119,0,3.179,0,.742,0,1.484,0,2.226,0,.119,0,.248.039.353-.057.124.074.217.2.374.217-.11.2-.3.13-.464.135-.438.016-.874-.021-1.313-.01-1.232.032-2.466.015-3.7.008a6.188,6.188,0,0,1-.656-.07C695.734,561.447,695.734,561.373,695.734,561.3Z" transform="translate(-133.128 -18.332)" fill="#7cb0ea"/>
      <path id="Path_2016" data-name="Path 2016" d="M589.584,567.535a.881.881,0,0,1,.855-.917.91.91,0,0,1,.016,1.817A.878.878,0,0,1,589.584,567.535Z" transform="translate(-57.595 -22.159)" fill="#01529e"/>
      <path id="Path_2017" data-name="Path 2017" d="M533.268,567.551a.856.856,0,1,1-.831-.933A.868.868,0,0,1,533.268,567.551Z" transform="translate(-16.306 -22.159)" fill="#01529e"/>
      <path id="Path_2018" data-name="Path 2018" d="M592.036,568.838c.164,0,.229.1.231.258s-.047.266-.22.271-.233-.1-.234-.255S591.856,568.849,592.036,568.838Z" transform="translate(-59.181 -23.739)" fill="#69a4e1"/>
      <path id="Path_2019" data-name="Path 2019" d="M534.173,569.089c-.022.137-.057.265-.233.274-.193.009-.263-.116-.26-.277a.231.231,0,0,1,.243-.259C534.1,568.827,534.145,568.946,534.173,569.089Z" transform="translate(-17.815 -23.731)" fill="#629edc"/>
    </g>
  </g>
</svg>
