<svg id="Layer_1" data-name="Layer 1" xmlns="http://www.w3.org/2000/svg" xmlns:xlink="http://www.w3.org/1999/xlink" width="90" height="55" viewBox="0 0 90 55"><defs><style>.cls-1{fill:url(#linear-gradient);}.cls-2{fill:url(#linear-gradient-2);}.cls-3{fill:url(#radial-gradient);}</style><linearGradient id="linear-gradient" x1="165.36" y1="-869.29" x2="166.41" y2="-869.97" gradientTransform="matrix(30.75, 0, 0, -28.18, -5157.4, -24524.21)" gradientUnits="userSpaceOnUse"><stop offset="0" stop-color="#909ca9"/><stop offset="1" stop-color="#ededee"/></linearGradient><linearGradient id="linear-gradient-2" x1="161.45" y1="-954.88" x2="163.01" y2="-954.88" gradientTransform="matrix(16.71, 0, 0, -10.01, -2811.29, -9551.25)" gradientUnits="userSpaceOnUse"><stop offset="0" stop-color="#939fab"/><stop offset="1" stop-color="#dcdee1"/></linearGradient><radialGradient id="radial-gradient" cx="160.25" cy="-846.14" r="0.13" gradientTransform="matrix(-30.66, -4.62, 9.23, -61.31, 11840.77, -51425.09)" gradientUnits="userSpaceOnUse"><stop offset="0" stop-color="#ee352c"/><stop offset="1" stop-color="#a91d22"/></radialGradient></defs><g id="microsoft-sql-server"><g id="Group_235" data-name="Group 235"><path id="Path_142" data-name="Path 142" class="cls-1" d="M51.6,25.67l-11,3.6L31,33.5l-2.68.71c-.68.65-1.4,1.3-2.17,2s-1.64,1.4-2.25,1.89a16,16,0,0,0-2.19,2.16A9.78,9.78,0,0,0,20.11,43a4.56,4.56,0,0,0,.65,4.12,14.47,14.47,0,0,0,6,4.52,38.19,38.19,0,0,0,5.29,1.77A70.42,70.42,0,0,0,43.36,55a11.85,11.85,0,0,0,1.46,0,22,22,0,0,0,1.07-2,50.91,50.91,0,0,0,3.9-10.33,48,48,0,0,0,1-7.16c.06-.81.09-3.51,0-4.43a31.84,31.84,0,0,0-.42-3.9.83.83,0,0,1,0-.35,14.26,14.26,0,0,1,1.49-.44l-.28-.65h0Zm-2.51,1.48a26.44,26.44,0,0,1,.43,4.17,2.09,2.09,0,0,1,0,.56c-.06,0-1.4-.79-2.36-1.39s-2.41-1.57-2.66-1.77c-.09,0-.08-.06.6-.3,1.16-.39,3.91-1.27,4-1.27ZM43.48,29a2.57,2.57,0,0,1,.73.39,51.75,51.75,0,0,0,5,2.81c.31.13.34.08-.36.56a36.74,36.74,0,0,1-5.73,3.08l-.75.32a1.8,1.8,0,0,1,.1-.46,24.65,24.65,0,0,0,.89-5.85c0-.83,0-.83.08-.86s0,0,0,0Zm-1.16.44a17.81,17.81,0,0,1,0,2.42,21.17,21.17,0,0,1-.76,3.62,5.66,5.66,0,0,1-.2.58,13.64,13.64,0,0,1-1.54-1.5,11.36,11.36,0,0,1-1.54-2.23,8,8,0,0,1-.46-1.14c.13-.09,4.52-1.79,4.55-1.75Zm-5.44,2.14h0a1.94,1.94,0,0,1,.13.3,11.37,11.37,0,0,0,1.38,2.48,13.94,13.94,0,0,0,1.92,2.07l.41.35s.07,0-1.29.56c-1.57.6-3.29,1.2-5.25,1.83l-1.41.46c-.08,0,0,0,.17-.36a48.05,48.05,0,0,0,3.28-6.63c.15-.36.29-.73.32-.81a.33.33,0,0,1,.31-.25Zm-1.67.69A18,18,0,0,1,34.4,34c-.81,1.57-1.69,3.12-2.88,5l-.41.66c0,.06-.06,0-.19-.21a7.91,7.91,0,0,1-.65-1.94A7.94,7.94,0,0,1,30.32,35c.1-.52.1-.5.35-.63,1.06-.54,4.51-2.16,4.54-2.12Zm14.36.58v.35a45.15,45.15,0,0,1-.49,6.26c0,.33-.09.59-.1.6s-.24-.07-.52-.15a21.24,21.24,0,0,1-3.83-1.64,17.57,17.57,0,0,1-2-1.2l.77-.41A50.58,50.58,0,0,0,48,34c.51-.34,1.27-.89,1.44-1l.13-.1ZM28.93,35.31s0,.07,0,.37-.07.62-.09.89a6.12,6.12,0,0,0,.73,3.35c.11.2.2.42.29.63-.06.05-5.57,1.67-7.3,2.14l-1,.28c-.06,0-.07,0,0-.14a8.77,8.77,0,0,1,2.42-4.17,11,11,0,0,1,2.74-2.1c.85-.48,2.16-1.2,2.26-1.24h0Zm13,2.33a3.21,3.21,0,0,1,.45.24,25.29,25.29,0,0,0,6.38,2.48l.19,0-.27.15a90.08,90.08,0,0,1-8.46,3.52L39,44.51a.6.6,0,0,1-.19.06s.15-.3.34-.65a41.15,41.15,0,0,0,2.63-6c.06-.16.1-.31.11-.31Zm-1.32.43a2.46,2.46,0,0,1-.14.38,52.5,52.5,0,0,1-2.89,5.82c-.31.55-.57,1-.57,1l-.56-.33a17.18,17.18,0,0,1-4.36-3.7L31.92,41l.76-.21A52.59,52.59,0,0,0,40,38.31l.6-.24Zm8.22,2.87h0a31.57,31.57,0,0,1-.76,3.15c-.3,1-.55,1.86-1,3.3-.2.63-.38,1.15-.39,1.15l-.1,0a35.51,35.51,0,0,1-6.77-1.91c-.58-.23-1.41-.61-1.46-.65a10.4,10.4,0,0,1,1.12-.52c3.78-1.65,7.71-3.54,9.06-4.34a1.08,1.08,0,0,1,.3-.16Zm-19,.65s-1,1.54-2.52,3.62c-.52.72-1.12,1.57-1.34,1.89s-.57.81-.76,1.11l-.35.54-.37-.31a13.6,13.6,0,0,1-1.55-1.58,6.72,6.72,0,0,1-1.39-2.69c-.09-.4-.09-.6,0-.63l4.43-1c1.16-.26,2.5-.58,3-.7l.88-.21Zm1.07.41.26.3a15.67,15.67,0,0,0,3.91,3.2,2.16,2.16,0,0,1,.45.29c-.06,0-5.15,1.85-7.5,2.66l-2.42.84a1,1,0,0,1-.17-.1l-.15-.1.24-.35c.78-1.14,1.77-2.38,3.91-5Zm6.64,4.75.83.3a25.49,25.49,0,0,0,3.08,1,33.67,33.67,0,0,0,4.68.81c.18,0,.28,0,.24.06s-1.28.44-2.18.73c-1.43.45-5.8,1.74-9.37,2.76l-1.25.36a.74.74,0,0,1-.36-.09,4.71,4.71,0,0,1,.44-.56A50.08,50.08,0,0,0,37,47.52c.27-.41.51-.75.51-.76Zm-1.46,0s-.59,1-1.62,2.58l-1.11,1.75-.55.92-.25.42-.12,0c-.3-.08-2.41-.82-3-1a18.93,18.93,0,0,1-1.94-.89,8.32,8.32,0,0,1-1.44-.91l2.53-.69c3.65-1,5.67-1.56,7-2a3.45,3.45,0,0,1,.46-.12Zm10.36,2.43h0c0,.08-1.32,3.83-1.81,5-.1.27-.15.33-.21.32l-3.28-.45c-2.08-.32-5.56-.93-6.43-1.13l-.2,0,1.24-.28c2.66-.6,4-.93,5.24-1.33a36,36,0,0,0,4.91-1.89,4.93,4.93,0,0,1,.53-.22Z"/><path id="Path_143" data-name="Path 143" class="cls-2" d="M40.25,0c-1.71.52-3.4,1.13-5,1.81a31.51,31.51,0,0,0-5.8,2.92,4.45,4.45,0,0,0-1.13,1.12.93.93,0,0,0-.05.29l1.12,1.05L32,8l6.32,1.13,7.22,1.25.08-.63h-.07l-.95-.15-.19-.34c-1-1.73-2.07-3.88-2.7-5.33A26.78,26.78,0,0,1,40.5.61C40.35,0,40.34,0,40.25,0Zm-.14.42h0s0,.25.08.52A16.85,16.85,0,0,0,41,4.45c.32.92.32.87,0,.76-.84-.24-4.65-.89-7.4-1.28a7.46,7.46,0,0,1-.82-.12s2-1.09,2.88-1.51c1.14-.53,4.27-1.83,4.5-1.88Zm-8,3.73.32.11a51,51,0,0,0,8.65,1.65l.52,0a4.25,4.25,0,0,1-.52.27c-1.18.59-2.48,1.32-3.38,1.87a2.86,2.86,0,0,1-.54.3l-.39-.05-.33,0-.84-.82L32.52,4.54Zm-.33.26,1.17,1.47c.64.81,1.29,1.6,1.43,1.77a2.51,2.51,0,0,1,.25.32s-1.7-.3-2.58-.5S30.75,7.16,30.19,7l-.46-.15V6.73c0-.56.72-1.39,1.92-2.24Zm10,2s.07.08.17.3c.29.62,1.17,2.31,1.39,2.63.06.11.18.12-1-.07-2.82-.46-3.73-.61-3.73-.63a.82.82,0,0,1,.2-.12A16.43,16.43,0,0,0,41.3,6.76c.19-.16.36-.31.4-.33s0,0,0,0Z"/><path id="Path_144" data-name="Path 144" class="cls-3" d="M28.33,5.74a.86.86,0,0,0,0,.72,3.37,3.37,0,0,0,.79.93s3.7,3.61,4.15,4.13a11.55,11.55,0,0,1,3,7.91,12.78,12.78,0,0,1-1.32,6c-1.73,3.78-5.38,8-11,12.58l.83-.27A25.8,25.8,0,0,1,27.72,36a104.46,104.46,0,0,1,13.75-6.15,171.32,171.32,0,0,1,27.89-7.48l.76-.11L70,22a25.64,25.64,0,0,0-1.67-2.35,19.87,19.87,0,0,0-5.91-4.92,43.75,43.75,0,0,0-12.83-4.31c-1-.2-3.22-.58-5-.86-3.81-.59-6.28-1-9-1.46-1-.17-2.43-.42-3.4-.63A18.79,18.79,0,0,1,30,6.91c-.6-.23-1.47-.46-1.65-1.17Zm2.15,2.08a1.6,1.6,0,0,1,.31.1L32,8.29l1.1.29c.5.12.91.24.92.24s.9,2.75,1.19,3.78c.1.39.19.73.18.73a1.85,1.85,0,0,1-.21-.33,17.19,17.19,0,0,0-4.3-4.85,3.19,3.19,0,0,1-.4-.33ZM34.58,9A3.5,3.5,0,0,1,35,9c1.41.32,3.95.8,5.57,1.08a2.11,2.11,0,0,1,.5.1.79.79,0,0,1-.23.14c-.27.14-1.38.8-1.75,1.05a15.75,15.75,0,0,0-2.35,1.88l-.45.44s0-.14-.09-.31a28,28,0,0,0-1.49-4.08,2.59,2.59,0,0,1-.17-.38S34.57,9,34.58,9Zm7.21,1.37a3.75,3.75,0,0,1,.3.93,14,14,0,0,1,.4,3.81c0,.24,0,.48-.05.72l0,.08L42,15.72c-.89-.29-2.34-.71-3.58-1.06-.71-.19-1.28-.37-1.28-.38a18.66,18.66,0,0,1,1.47-1.48,38.48,38.48,0,0,1,3.2-2.48Zm.57.09s3.45.56,5,.86c1.16.23,2.84.58,2.94.62s-.12.11-.68.36a36.39,36.39,0,0,0-5.45,3l-.79.52a4.78,4.78,0,0,1,0-.53,11.52,11.52,0,0,0-.9-4.53,1.48,1.48,0,0,1-.1-.27Zm8.85,1.74a5.75,5.75,0,0,1-.19,1.1,20.66,20.66,0,0,1-2.1,4.82,6.42,6.42,0,0,1-.34.56,2.62,2.62,0,0,1-.5-.26,27.45,27.45,0,0,0-3.27-1.6c-.33-.15-.62-.26-.63-.28s2.62-1.82,4-2.67c1.13-.68,3-1.7,3-1.67Zm.63.11c.07,0,1.59.41,2.38.65A48.07,48.07,0,0,1,59.89,15l.61.28-.43.1a62.31,62.31,0,0,0-9.6,3,3.05,3.05,0,0,1-.47.18,2.47,2.47,0,0,1,.17-.42,16.58,16.58,0,0,0,1.61-5.54.62.62,0,0,1,.06-.3ZM36.75,15.72a18.59,18.59,0,0,1,1.81.43,27.54,27.54,0,0,1,3,1l-.49.43c-1.09.91-2.14,1.86-3.39,3.08-.38.36-.69.65-.71.65s0-.05,0-.12a18.76,18.76,0,0,0-.11-5,3,3,0,0,1,0-.44Zm24.32,0a15.17,15.17,0,0,1-.88,1.37c-.5.72-1.23,1.67-2.89,3.75l-2.19,2.75c-.32.42-.6.77-.61.77a3.43,3.43,0,0,1-.24-.33,17.08,17.08,0,0,0-3.37-3.73l-.61-.5a.75.75,0,0,1-.17-.14s1.42-.63,2.49-1.06C54.48,17.86,57,17,59,16.35c1-.32,2.09-.63,2.1-.61Zm.64.16a2.16,2.16,0,0,1,.48.24,28,28,0,0,1,5.57,4.18c.44.43,1.53,1.56,1.51,1.57l-.83.07a82.76,82.76,0,0,0-12.31,2l-.56.13s.31-.33.71-.72a21.23,21.23,0,0,0,5.06-6.72l.37-.79Zm-18.54,1.9c.12,0,1.2.53,2,.93s1.87,1,1.93,1-.39.21-.88.45c-1.56.79-2.91,1.53-4.31,2.38l-.74.44s0,0,.2-.44A17.12,17.12,0,0,0,43.08,18C43.12,17.89,43.15,17.81,43.17,17.81Zm-1.08.2c-.12.54-.26,1.08-.43,1.6A19.91,19.91,0,0,1,40.18,23c-.13.24-.33.58-.44.77l-.21.33-.46-.45a6,6,0,0,0-1.55-1.14,2.36,2.36,0,0,1-.4-.24c0-.06,1.42-1.35,2.51-2.29.79-.66,2.44-2,2.46-2Zm6.62,2.72.41.26A34.92,34.92,0,0,1,52,23.12c.47.39,1.39,1.21,1.57,1.41l.11.11-.68.19c-3.81,1.06-6.76,2-10.2,3.26l-.72.26s-.1,0,.76-.75a36.51,36.51,0,0,0,5.6-6.43ZM47,21.16s-1.12,1.62-1.81,2.53c-.81,1.08-2.26,2.9-3.26,4.08l-.79.91s0-.12,0-.31a6.92,6.92,0,0,0-.7-3c-.19-.38-.23-.47-.19-.52s2.59-1.52,4.12-2.35c1-.54,2.65-1.36,2.67-1.34ZM36.45,23.74a3.48,3.48,0,0,1,.43.22,8.72,8.72,0,0,1,1.43,1,2,2,0,0,1-.48.4c-.79.57-2,1.48-2.69,2s-.76.59-.67.47a16,16,0,0,0,1.11-1.92,16.21,16.21,0,0,0,.7-1.74,1.33,1.33,0,0,1,.17-.43Zm2.81,2.2s.09.07.31.4a6.24,6.24,0,0,1,.94,2.42v.17l-1.14.44c-2,.79-3.92,1.57-5.2,2.16-.36.16-1,.46-1.39.66s-.74.37-.74.36l.58-.43a33.92,33.92,0,0,0,6.26-5.77c.17-.21.33-.4.35-.41ZM38,26.25A17.62,17.62,0,0,1,36.41,28a27.63,27.63,0,0,1-5.17,4.17l-.5.31c-.06,0,0,0,.88-1,.55-.59,1-1.09,1.44-1.7a2.72,2.72,0,0,1,.83-.79c1.22-.88,4-2.8,4.08-2.76Z"/></g></g></svg>