<svg xmlns="http://www.w3.org/2000/svg" xmlns:xlink="http://www.w3.org/1999/xlink" width="82" height="60" viewBox="0 0 82 60">
  <defs>
    <clipPath id="clip-platform-kubernetes">
      <rect width="82" height="60"/>
    </clipPath>
  </defs>
  <g id="platform-kubernetes" clip-path="url(#clip-platform-kubernetes)">
    <g id="kubernets_1_" data-name="kubernets (1)" transform="translate(17.468 6.835)">
      <path id="Path_93" data-name="Path 93" d="M18.8,48.1a3.579,3.579,0,0,1-2.822-1.365l-10.62-13.2a3.563,3.563,0,0,1-.7-3.1L8.45,13.964a3.589,3.589,0,0,1,1.972-2.458L25.776,4.163a3.6,3.6,0,0,1,3.156,0l15.354,7.313a3.589,3.589,0,0,1,1.972,2.458L50.051,30.41a3.661,3.661,0,0,1-.7,3.1L38.733,46.7a3.674,3.674,0,0,1-2.822,1.365L18.8,48.1Z" transform="translate(-3.283 -2.966)" fill="#326de6"/>
      <path id="Path_94" data-name="Path 94" d="M24.041,1.591a2.968,2.968,0,0,1,1.244.273L40.639,9.177a2.947,2.947,0,0,1,1.578,1.972L46.01,27.626a2.837,2.837,0,0,1-.577,2.488l-10.62,13.2a2.891,2.891,0,0,1-2.276,1.092H15.515a2.891,2.891,0,0,1-2.276-1.092l-10.62-13.2a3.037,3.037,0,0,1-.577-2.488L5.835,11.149A2.9,2.9,0,0,1,7.413,9.177L22.767,1.834a3.654,3.654,0,0,1,1.274-.243Zm0-1.426A4.593,4.593,0,0,0,22.16.59L6.806,7.933a4.3,4.3,0,0,0-2.367,2.943L.646,27.353a4.3,4.3,0,0,0,.85,3.7l10.62,13.2a4.287,4.287,0,0,0,3.368,1.608H32.507a4.287,4.287,0,0,0,3.368-1.608l10.62-13.2a4.28,4.28,0,0,0,.85-3.7L43.552,10.876a4.3,4.3,0,0,0-2.367-2.943L25.892.59A4.353,4.353,0,0,0,24.041.165Z" fill="#fff"/>
      <path id="Path_95" data-name="Path 95" d="M72.495,57.465h-.03c-.03,0-.061,0-.061-.03-.061,0-.121-.03-.182-.03a4.15,4.15,0,0,0-.577-.061,1.133,1.133,0,0,1-.3-.031h-.03a8.005,8.005,0,0,1-1.639-.273.592.592,0,0,1-.334-.334c0-.03-.03-.03-.03-.061l-.394-.121a12,12,0,0,0-.212-4.279A12.5,12.5,0,0,0,67,48.271l.3-.273v-.061a.686.686,0,0,1,.152-.455,8.853,8.853,0,0,1,1.366-.941c.091-.061.182-.091.273-.152a4.543,4.543,0,0,0,.516-.3c.03-.03.091-.061.152-.121.03-.03.061-.03.061-.061a1.014,1.014,0,0,0,.212-1.366.863.863,0,0,0-.7-.334,1.128,1.128,0,0,0-.667.243l-.061.061c-.061.03-.091.091-.152.121a5.012,5.012,0,0,0-.394.425,1.4,1.4,0,0,1-.212.212,7.713,7.713,0,0,1-1.214,1.092.489.489,0,0,1-.273.091.383.383,0,0,1-.182-.03h-.061l-.364.243a14.75,14.75,0,0,0-1.244-1.153,12.118,12.118,0,0,0-6.342-2.519l-.03-.394-.061-.061a.635.635,0,0,1-.243-.394A10.66,10.66,0,0,1,57.93,40.5v-.03a1.079,1.079,0,0,1,.061-.3c.03-.182.061-.364.091-.577v-.273a.926.926,0,0,0-1.608-.7.962.962,0,0,0-.273.7v.243a1.768,1.768,0,0,0,.091.577c.03.091.03.182.061.3v.03a7.847,7.847,0,0,1,.091,1.639.635.635,0,0,1-.243.394l-.061.061-.03.394a15.216,15.216,0,0,0-1.639.243,11.7,11.7,0,0,0-6.008,3.4l-.3-.212H48.1c-.061,0-.121.03-.182.03a.49.49,0,0,1-.273-.091,8.045,8.045,0,0,1-1.214-1.123,1.4,1.4,0,0,0-.212-.212,5.017,5.017,0,0,0-.395-.425c-.03-.03-.091-.061-.152-.121-.03-.03-.061-.03-.061-.061a1.06,1.06,0,0,0-.668-.243.863.863,0,0,0-.7.334,1.013,1.013,0,0,0,.212,1.365c.03,0,.03.03.061.03.061.03.091.091.152.121a4.6,4.6,0,0,0,.516.3,1.225,1.225,0,0,1,.273.152,8.847,8.847,0,0,1,1.365.941.557.557,0,0,1,.152.455v.061l.3.273a1.072,1.072,0,0,0-.152.243,11.818,11.818,0,0,0-1.7,8.011l-.394.121c0,.031-.03.031-.03.061a.7.7,0,0,1-.334.334,7.656,7.656,0,0,1-1.638.273H43a1.033,1.033,0,0,0-.3.03,4.149,4.149,0,0,0-.577.061c-.061,0-.121.031-.182.031a.112.112,0,0,0-.091.03,1,1,0,0,0-.789,1.123.935.935,0,0,0,.971.7.666.666,0,0,0,.243-.03c.03,0,.061,0,.061-.03.061,0,.121-.03.182-.03a2.908,2.908,0,0,0,.546-.212c.091-.03.182-.091.273-.121h.03a7.441,7.441,0,0,1,1.578-.455H45a.674.674,0,0,1,.394.152c.03,0,.03.03.061.03l.425-.061a12,12,0,0,0,3.975,5.7,12.307,12.307,0,0,0,1.3.88l-.182.394c0,.031.03.031.03.061a.624.624,0,0,1,.061.486,8.537,8.537,0,0,1-.789,1.426v.03c-.061.091-.121.152-.182.243-.121.152-.213.3-.334.486a.66.66,0,0,0-.091.152.106.106,0,0,1-.03.061.96.96,0,0,0,.394,1.3.808.808,0,0,0,.364.091,1.091,1.091,0,0,0,.91-.577.106.106,0,0,1,.03-.061.668.668,0,0,1,.091-.152,5.7,5.7,0,0,0,.182-.546l.091-.273a7.134,7.134,0,0,1,.637-1.517.78.78,0,0,1,.394-.273c.03,0,.03,0,.061-.03l.213-.394a11.854,11.854,0,0,0,4.248.789,11.017,11.017,0,0,0,2.64-.3,13.482,13.482,0,0,0,1.578-.455l.182.334c.03,0,.03,0,.061.03a.563.563,0,0,1,.394.273,10.391,10.391,0,0,1,.637,1.517v.03l.091.273a3.846,3.846,0,0,0,.182.546c.03.061.061.091.091.152a.106.106,0,0,0,.03.061,1.031,1.031,0,0,0,.91.577.808.808,0,0,0,.364-.091.9.9,0,0,0,.455-.546,1.1,1.1,0,0,0-.061-.759c0-.03-.031-.03-.031-.061a.669.669,0,0,0-.091-.152,2.754,2.754,0,0,0-.334-.486c-.061-.091-.121-.152-.182-.243v-.03a6.794,6.794,0,0,1-.789-1.426.846.846,0,0,1,.03-.485c0-.03.03-.03.03-.061l-.152-.364a12.036,12.036,0,0,0,5.28-6.645l.364.061c.031,0,.031-.03.061-.03a.772.772,0,0,1,.395-.152h.061a7.443,7.443,0,0,1,1.578.455h.03c.091.03.182.091.273.121a2.924,2.924,0,0,0,.546.213c.061,0,.121.03.182.03a.111.111,0,0,1,.091.03.669.669,0,0,0,.243.03,1.021,1.021,0,0,0,.971-.7,1.168,1.168,0,0,0-.88-1ZM58.445,55.978l-1.335.637-1.335-.637-.334-1.426.91-1.153h1.487l.91,1.153-.3,1.426Zm7.92-3.156a9.568,9.568,0,0,1,.212,3.064l-4.643-1.335a.823.823,0,0,1-.577-.971.723.723,0,0,1,.182-.334l3.672-3.308a9.731,9.731,0,0,1,1.153,2.883Zm-2.61-4.7-3.975,2.822a.808.808,0,0,1-1.062-.182.677.677,0,0,1-.152-.334l-.273-4.946a9.21,9.21,0,0,1,5.462,2.64Zm-8.8-2.488c.334-.061.637-.121.971-.182L55.654,50.3a.83.83,0,0,1-.819.789A.722.722,0,0,1,54.471,51l-4.036-2.882a9.257,9.257,0,0,1,4.521-2.488Zm-5.978,4.309,3.611,3.216a.808.808,0,0,1,.091,1.123.606.606,0,0,1-.364.243l-4.7,1.365A9.768,9.768,0,0,1,48.978,49.939Zm-.819,8.223,4.825-.819a.818.818,0,0,1,.85.637.868.868,0,0,1-.03.486l-1.851,4.46a9.565,9.565,0,0,1-3.793-4.764ZM59.235,64.2a9.909,9.909,0,0,1-2.124.243,10.276,10.276,0,0,1-3.064-.485l2.4-4.339a.8.8,0,0,1,.971-.212,1.294,1.294,0,0,1,.364.334l2.336,4.218c-.273.091-.577.152-.88.243Zm5.917-4.218a9.633,9.633,0,0,1-2.913,2.943l-1.912-4.582a.817.817,0,0,1,.425-.941.969.969,0,0,1,.425-.091l4.855.819A6.108,6.108,0,0,1,65.151,59.983Z" transform="translate(-33.069 -31.143)" fill="#fff"/>
    </g>
  </g>
</svg>
