<svg xmlns="http://www.w3.org/2000/svg" xmlns:xlink="http://www.w3.org/1999/xlink" width="90" height="55" viewBox="0 0 90 55">
  <defs>
    <clipPath id="clip-redis">
      <rect width="90" height="55"/>
    </clipPath>
  </defs>
  <g id="redis" clip-path="url(#clip-redis)">
    <rect width="90" height="55" fill="#fff"/>
    <g id="Group_74" data-name="Group 74" transform="translate(-2900.448 -987.5)">
      <path id="Path_2137" data-name="Path 2137" d="M160.555,584.475c-3.438,1.792-21.245,9.114-25.036,11.09s-5.9,1.958-8.892.526S104.682,587,101.268,585.373c-1.706-.815-2.6-1.5-2.6-2.154v-6.511s24.671-5.371,28.654-6.8,5.364-1.48,8.754-.239,23.656,4.9,27.006,6.126v6.419c0,.643-.773,1.349-2.522,2.261" transform="translate(2814.783 445.387)" fill="#912626"/>
      <path id="Path_2138" data-name="Path 2138" d="M160.553,572.562c-3.438,1.791-21.244,9.114-25.036,11.09s-5.9,1.958-8.891.525-21.944-9.086-25.358-10.717-3.485-2.755-.132-4.067,22.2-8.707,26.182-10.136,5.364-1.481,8.754-.239,21.09,8.287,24.439,9.514,3.479,2.239.042,4.031" transform="translate(2814.783 450.827)" fill="#c6302b"/>
      <path id="Path_2139" data-name="Path 2139" d="M160.555,562.943c-3.438,1.792-21.245,9.113-25.036,11.091s-5.9,1.957-8.892.525-21.945-9.087-25.359-10.718c-1.706-.815-2.6-1.5-2.6-2.153v-6.512s24.671-5.37,28.654-6.8,5.364-1.48,8.754-.239,23.656,4.9,27.006,6.125v6.42c0,.643-.773,1.349-2.522,2.261" transform="translate(2814.783 456.384)" fill="#912626"/>
      <path id="Path_2140" data-name="Path 2140" d="M160.553,551.03c-3.438,1.792-21.244,9.113-25.036,11.09s-5.9,1.957-8.891.525-21.944-9.086-25.358-10.717-3.485-2.755-.132-4.068,22.2-8.707,26.182-10.135,5.364-1.481,8.754-.239,21.09,8.286,24.439,9.514,3.479,2.239.042,4.031" transform="translate(2814.783 461.824)" fill="#c6302b"/>
      <path id="Path_2133" data-name="Path 2133" d="M160.555,540.613c-3.438,1.791-21.245,9.113-25.036,11.091s-5.9,1.957-8.892.525-21.945-9.087-25.359-10.717c-1.706-.816-2.6-1.5-2.6-2.154v-6.512s24.671-5.37,28.654-6.8,5.364-1.48,8.754-.239,23.656,4.9,27.006,6.125v6.419c0,.643-.773,1.349-2.522,2.261" transform="translate(2814.783 467.788)" fill="#912626"/>
      <path id="Path_2134" data-name="Path 2134" d="M160.554,528.7c-3.438,1.792-21.244,9.113-25.036,11.09s-5.9,1.957-8.891.526-21.944-9.087-25.358-10.718-3.485-2.754-.132-4.067,22.2-8.706,26.182-10.136,5.364-1.48,8.754-.239,21.09,8.287,24.439,9.514,3.479,2.238.042,4.03" transform="translate(2814.783 473.229)" fill="#c6302b"/>
      <path id="Path_2135" data-name="Path 2135" d="M149.938,525.9l-5.538.575-1.24,2.983-2-3.328-6.395-.575,4.772-1.721L138.1,521.2l4.467,1.747,4.212-1.379-1.139,2.731,4.294,1.608m-7.108,14.472-10.336-4.287,14.81-2.273-4.475,6.56M128.5,527.561c4.372,0,7.916,1.374,7.916,3.068s-3.544,3.069-7.916,3.069-7.916-1.374-7.916-3.069,3.544-3.068,7.916-3.068" transform="translate(2803.588 469.693)" fill="#fff"/>
      <path id="Path_2141" data-name="Path 2141" d="M193.957,532.484l8.766,3.463-8.758,3.461-.008-6.925" transform="translate(2766.113 463.927)" fill="#621b1c"/>
      <path id="Path_2142" data-name="Path 2142" d="M174.137,536.32l9.7-3.836.008,6.924-.951.372-8.754-3.46" transform="translate(2776.236 463.927)" fill="#9a2928"/>
    </g>
  </g>
</svg>
