<svg y="0px" xmlns="http://www.w3.org/2000/svg" x="0px" viewBox="0 0 215 45" version="1.1" style="enable-background:new 0 0 215 45;" id="Layer_1" xmlns:xlink="http://www.w3.org/1999/xlink" xml:space="preserve"><style type="text/css"> .st0{fill:#A0D6D4;} .st1{fill:#096A8F;} .st2{fill:#0B6977;} .st3{fill:#0F8B9F;} .st4{fill:none;} .st5{fill:#23B5E9;} .st6{fill:#00ADE1;stroke:#00A1C6;stroke-width:0.2658;stroke-miterlimit:10;} </style><g><path d="M67.4,21.7c-2.4-0.2-4.2-1.3-5.7-3.1c-0.6-0.8-0.8-1.9,0.5-1.8c4.5,0.2,8.4-1.4,12.1-3.5   c-1.7,2.5-4.2,3.8-7,4.7c-0.7,0.2-1.8,0.1-2,1c-0.2,0.8,0.6,1.4,1.2,2C66.8,21.2,67.1,21.5,67.4,21.7z" class="st0"></path><path d="M25.2,41.7c1-2.3,2.8-4.2,3.3-6.8c0.1-0.6,0.6-0.8,1.1-0.4c2.7,2.3,5.8,1.9,9,1.9c-2.2,1-4.4,1.2-6.7,0.9   c-1.3-0.2-2.2,0.1-3.1,1.2C27.7,39.7,26.6,40.9,25.2,41.7z" class="st1"></path><path d="M53.8,7c-4.4-1.5-8.9-1.6-13.4-0.9c-1.3-0.1-2.7,0.5-4,0.1c-1.7,0.6-1.8,0.7-1,1.5c2.8-0.2,5.6,0.1,8.5,0.4   c-2.8-0.2-5.6-0.6-8.5-0.4c0.7,0.7,1.6,1,2.5,1.3c4.7,1.8,9.6,2,14.5,0.8c0.7,0,1.4-0.2,1.9-0.6c0.8,0,1.5-0.2,2.2-0.4   C55.9,7.7,54.8,7.4,53.8,7z" class="st1"></path><path d="M67.4,8.8c-0.1,0.9-0.5,1.5-1.4,1.4c-0.9,0-1.4-0.6-1.3-1.4c0-0.8,0.5-1.3,1.3-1.3C66.9,7.4,67.3,8,67.4,8.8z" class="st2"></path><path d="M75.4,26.3c-3.9-0.7-7.7-0.3-11.5,0.7c-4.2,1-8.3,1.9-12.7,1.6c-0.8-0.2-1.7-0.3-2.5-0.5   c-1.3-0.9-2.5-1.7-3.8-2.6l0,0c0.3,1.1,0.6,2.2,0.8,3.3c0,0.4,0,0.8,0,1.1c0,0.4,0,0.7-0.1,1.1c0.6,0.1,1.3,0.3,1.9,0.4   c1.8,0.6,3.7,0.8,5.6,0.6c3-0.3,5.7-1.6,8.5-2.5c4.3-1.4,8.6-2.3,13.1-1.5c1.4,0.2,2.7,0.5,4.1,0.7C78.5,26.9,76.7,26.9,75.4,26.3z" class="st1"></path><path d="M44.9,25.6C44.9,25.6,44.9,25.5,44.9,25.6C44.9,25.5,44.9,25.6,44.9,25.6z" class="st3"></path><path d="M66,10.2c0.9,0,1.3-0.5,1.4-1.4C67.3,8,66.8,7.5,66,7.5S64.7,8,64.7,8.8S65.1,10.1,66,10.2z" class="st4"></path><path d="M36.6,19.7c-2.7,1.2-4.3,3.2-5.9,5.1c-0.8,2-1.9,3.7-3,5.5c-0.7,2-1.9,3.7-3.2,5.4c-0.8,1.1-1.7,1.3-2.9,0.5   c-1.8,1.9-3.5,3.9-5.8,5.2c-1.4,0.8-1,1.4,0.2,1.8c3.4,1.3,6.3,0.4,9-1.7c1-2.3,2.8-4.2,3.3-6.8c0.1-0.6,0.6-0.8,1.1-0.4   c2.7,2.3,5.8,1.9,9,1.9c3.1-0.8,5.5-2.5,7.1-5.3c0-0.4,0-0.7,0.1-1.1c0-0.4,0-0.8,0-1.1c-0.3-1.1-0.6-2.2-0.8-3.3l0,0   c1.3,0.9,2.5,1.7,3.8,2.6c0.8,0.2,1.7,0.3,2.5,0.5c4.4,0.3,8.6-0.5,12.8-1.5c3.8-0.9,7.7-1.4,11.6-0.6c1.3,0.6,3.1,0.5,3.4,2.5   c0.3,0.1,0.6,0.2,0.9,0.2c0.6,0.1,1.4,0.7,1.9,0c0.4-0.6-0.2-1.3-0.5-1.9c-1.3-2.4-3.6-3.2-6.1-3.8c-2.5-0.6-5.2-0.7-7.6-1.7   c-2.4-0.2-4.2-1.3-5.7-3.1c-0.6-0.8-0.8-1.9,0.5-1.8c4.5,0.2,8.4-1.4,12.1-3.5c1.9-2.6,1.8-3.3-0.5-5.5s-5.1-3.6-8.1-4.5   c-10.2-3.1-20-1.4-29.5,2.9c1.3,0.4,2.7-0.2,4-0.1c4.5-0.7,9-0.6,13.4,0.9c1,0.4,2.1,0.7,2.7,1.8c-0.3,2.1-1.7,3.4-3,4.8   c-3.2,2.6-6.7,3.8-10.4,3.8 M43,17.4L43,17.4 M66,7.5c0.9,0,1.3,0.5,1.4,1.3c-0.1,0.9-0.5,1.5-1.4,1.4c-0.9,0-1.4-0.6-1.3-1.4   C64.7,7.9,65.2,7.5,66,7.5z" class="st5"></path><path d="M37.4,16.7c-2.5-0.8-4.4-2.5-6.3-4.1l0,0c-2.4,1.8-2.5,4.1-0.4,6.4c1.2,0.8,1.2,1.7,0.1,2.7   c-0.3,0.3-0.5,0.7-0.8,1l0,0c-1.5,2.1-2.6,4.5-3.7,6.8c-1.5,2.3-3,4.7-4.6,7c1.1,0.8,2.1,0.6,2.9-0.5c1.3-1.7,2.5-3.4,3.2-5.4   c1.1-1.8,2.2-3.6,3-5.5c1.6-1.9,3.2-3.9,5.9-5.1l6.4-2.4C41.2,17.4,39.3,17.1,37.4,16.7z M31,13c-0.1,0.4-0.1,0.9-0.1,1.3   C30.9,13.9,30.9,13.4,31,13z M30.9,14.9c0,0.2,0.1,0.5,0.1,0.7C31,15.4,30.9,15.1,30.9,14.9z M31.5,17.2L31.5,17.2   c1.1,0.8,2.3,1.4,3.7,2C33.8,18.6,32.6,18,31.5,17.2z" class="st1"></path><path d="M43,17.4L43,17.4c-3,0.5-6.4,2.4-6.4,2.4S40,17.9,43,17.4" class="st1"></path></g><path d="M96,28.4c0,1.5-0.5,2.7-1.6,3.5c-1.1,0.9-2.4,1.3-3.9,1.3c-1.4,0-2.7-0.4-3.7-1.2c-1.1-0.9-1.8-1.9-2.2-3.3l2-0.9  c0.1,0.5,0.3,1,0.6,1.4c0.2,0.4,0.5,0.7,0.9,1.1s0.7,0.5,1.1,0.6c0.4,0.2,0.9,0.2,1.3,0.2c1,0,1.8-0.2,2.4-0.7s1-1.2,1-2  c0-0.7-0.2-1.3-0.7-1.8s-1.4-1-2.8-1.4c-1.4-0.5-2.1-0.9-2.6-1c-1.8-1-2.7-2.2-2.7-4c0-1.3,0.5-2.2,1.5-3.2c1-0.9,2.2-1.3,3.7-1.3  c1.3,0,2.3,0.3,3.3,1s1.6,1.5,1.9,2.4l-2,0.9c-0.2-0.6-0.5-1.2-1.1-1.6s-1.3-0.6-2-0.6c-0.9,0-1.6,0.2-2.1,0.7  c-0.5,0.4-0.9,1-0.9,1.7c0,0.5,0.2,1.1,0.6,1.5c0.5,0.4,1.6,1,3.3,1.5s2.9,1.3,3.6,2.1C95.6,26.2,96,27.3,96,28.4z"></path><path d="M98.2,21.5h2v1.6h0.1c0.3-0.5,0.9-1.1,1.5-1.4c0.6-0.4,1.4-0.5,2.1-0.5c1.4,0,2.4,0.4,3.2,1.2c0.7,0.7,1.2,1.9,1.2,3.4V33  h-2.1v-7c0-1.9-1-2.8-2.9-2.8c-0.9,0-1.6,0.3-2.1,1.1s-0.9,1.5-0.9,2.4v6.4h-2.1V21.5z"></path><path d="M115.2,21.1c1.6,0,2.9,0.4,3.7,1.3c1,0.9,1.4,2,1.4,3.5v7h-2v-1.6h-0.1c-0.9,1.3-2.1,1.9-3.5,1.9c-1.3,0-2.3-0.4-3.2-1.2  c-0.9-0.7-1.3-1.5-1.3-2.7c0-1.2,0.4-2.1,1.4-2.9s2.1-1.1,3.6-1.1c1.3,0,2.3,0.2,3.2,0.7v-0.5c0-0.7-0.3-1.4-0.9-1.9  c-0.6-0.5-1.3-0.7-2.1-0.7c-1.2,0-2.1,0.5-2.9,1.5l-1.9-1.2C111.6,21.8,113.2,21.1,115.2,21.1z M112.5,29.4c0,0.5,0.2,1.1,0.7,1.4  c0.4,0.4,1.1,0.5,1.7,0.5c0.9,0,1.7-0.3,2.4-1s1.1-1.5,1.1-2.3c-0.6-0.5-1.6-0.7-2.8-0.7c-0.9,0-1.6,0.2-2.2,0.6  C112.8,28.3,112.5,28.9,112.5,29.4z"></path><path d="M128.8,33.3c-0.9,0-1.6-0.2-2.3-0.5c-0.7-0.3-1.3-0.9-1.6-1.4h-0.1l0.1,1.6v5h-2.1V21.5h2v1.6h0.1c0.4-0.6,1-1.1,1.6-1.4  c0.6-0.3,1.5-0.5,2.3-0.5c1.5,0,2.8,0.6,3.8,1.8c1.1,1.2,1.6,2.7,1.6,4.4c0,1.7-0.5,3.2-1.6,4.4C131.6,32.7,130.3,33.3,128.8,33.3z   M128.5,31.4c1.1,0,1.9-0.4,2.6-1.2c0.7-0.7,1.1-1.8,1.1-3c0-1.2-0.3-2.2-1.1-3c-0.7-0.7-1.6-1.2-2.6-1.2c-1.1,0-1.9,0.4-2.7,1.2  c-0.6,0.7-1.1,1.8-1.1,3s0.3,2.2,1.1,3C126.6,31,127.4,31.4,128.5,31.4z"></path><path d="M142.1,33.3c-0.9,0-1.6-0.2-2.3-0.5c-0.7-0.3-1.3-0.9-1.6-1.4h-0.1l0.1,1.6v5h-2.1V21.5h2v1.6h0.1c0.4-0.6,1-1.1,1.6-1.4  c0.6-0.3,1.5-0.5,2.3-0.5c1.5,0,2.8,0.6,3.8,1.8c1.1,1.2,1.6,2.7,1.6,4.4c0,1.7-0.5,3.2-1.6,4.4C144.9,32.7,143.6,33.3,142.1,33.3z   M141.7,31.4c1.1,0,1.9-0.4,2.6-1.2c0.7-0.7,1.1-1.8,1.1-3c0-1.2-0.3-2.2-1.1-3c-0.7-0.7-1.6-1.2-2.6-1.2c-1.1,0-1.9,0.4-2.7,1.2  c-0.6,0.7-1.1,1.8-1.1,3s0.3,2.2,1.1,3C139.8,31,140.6,31.4,141.7,31.4z"></path><path d="M159.3,21.5L152.1,38h-2.2l2.7-5.7l-4.7-10.7h2.3l3.4,8.2l0,0l3.3-8.2C156.9,21.5,159.3,21.5,159.3,21.5z"></path><path d="M163.9,26.2v7.2h-2.1V16.6h9.8v2h-7.7v5.5h6.9v2H163.9z" class="st6"></path><path d="M175.8,16.6v16.8h-2.1V16.6H175.8z" class="st6"></path><path d="M177.7,27.7c0-1.8,0.5-3.2,1.7-4.4c1.2-1.2,2.6-1.7,4.3-1.7s3.1,0.5,4.3,1.7c1.2,1.2,1.7,2.7,1.7,4.4  c0,1.8-0.5,3.2-1.7,4.4c-1.1,1.2-2.6,1.7-4.3,1.7s-3.1-0.5-4.3-1.7C178.3,30.9,177.7,29.4,177.7,27.7z M179.9,27.7  c0,1.3,0.3,2.2,1.1,3c0.7,0.7,1.6,1.2,2.7,1.2s1.9-0.4,2.7-1.2c0.7-0.7,1.1-1.8,1.1-3s-0.3-2.2-1.1-3c-0.7-0.7-1.6-1.2-2.7-1.2  s-1.9,0.4-2.7,1.2C180.2,25.5,179.9,26.4,179.9,27.7z" class="st6"></path><path d="M207.5,21.9l-3.7,11.5h-2.1l-2.9-8.8l-2.9,8.8h-2.1l-3.7-11.5h2.2l2.6,8.6l0,0l2.9-8.6h2.2l2.9,8.6l0,0l2.6-8.6  C205.4,21.9,207.5,21.9,207.5,21.9z" class="st6"></path></svg>