<?xml version="1.0" encoding="utf-8"?>
<!-- Generator: Adobe Illustrator 25.0.0, SVG Export Plug-In . SVG Version: 6.00 Build 0)  -->
<svg version="1.1" id="Layer_1" xmlns="http://www.w3.org/2000/svg" xmlns:xlink="http://www.w3.org/1999/xlink" x="0px" y="0px"
	 viewBox="0 0 170 40" style="enable-background:new 0 0 170 40;" xml:space="preserve">
<style type="text/css">
	.st0{fill:#A1D7D5;}
	.st1{fill:#0D6A90;}
	.st2{fill:#0E6977;}
	.st3{fill:#128CA0;}
	.st4{fill:none;}
	.st5{fill:#25B6EA;}
	.st6{fill:#080D0E;}
	.st7{fill:#01A3D6;}
</style>
<g>
	<g>
		<path class="st0" d="M44.5,19.3c-2-0.1-3.5-1.1-4.7-2.6c-0.5-0.7-0.7-1.6,0.4-1.5c3.7,0.2,6.9-1.1,10.1-2.9
			c-1.4,2.1-3.5,3.2-5.8,3.9c-0.6,0.2-1.5,0.1-1.6,0.9c-0.1,0.7,0.5,1.2,1,1.6C44.1,18.9,44.3,19.1,44.5,19.3z"/>
		<path class="st1" d="M9.5,35.9c0.8-1.9,2.3-3.5,2.7-5.6c0.1-0.5,0.5-0.7,0.9-0.3c2.2,1.9,4.9,1.6,7.5,1.6c-1.8,0.8-3.7,1-5.6,0.8
			c-1.1-0.2-1.9,0.1-2.6,1C11.6,34.2,10.7,35.3,9.5,35.9z"/>
		<path class="st2" d="M44.6,8.6c-0.1,0.8-0.4,1.2-1.2,1.2c-0.7,0-1.1-0.5-1.1-1.2c0-0.7,0.5-1,1.1-1.1C44.1,7.4,44.5,7.9,44.6,8.6z
			"/>
		<path class="st1" d="M51.2,23.1c-3.3-0.6-6.4-0.3-9.6,0.5c-3.5,0.9-6.9,1.6-10.5,1.4c-0.7-0.1-1.4-0.3-2.1-0.4
			c-1.1-0.7-2.1-1.4-3.2-2.2l0,0c0.2,0.9,0.5,1.8,0.7,2.7c0,0.3,0,0.6,0,1c0,0.3,0,0.6-0.1,0.9c0.5,0.1,1.1,0.2,1.6,0.4
			c1.5,0.5,3.1,0.7,4.7,0.5c2.5-0.3,4.7-1.4,7.1-2.1c3.5-1.2,7.1-1.9,10.9-1.3c1.1,0.2,2.3,0.4,3.4,0.6
			C53.8,23.6,52.3,23.7,51.2,23.1z"/>
		<path class="st3" d="M25.8,22.5C25.8,22.5,25.9,22.5,25.8,22.5C25.9,22.5,25.8,22.5,25.8,22.5z"/>
		<path class="st4" d="M43.4,9.7c0.7,0,1.1-0.4,1.2-1.2c-0.1-0.7-0.5-1.1-1.2-1.1c-0.6,0-1.1,0.4-1.1,1.1
			C42.3,9.3,42.7,9.7,43.4,9.7z"/>
		<path class="st5" d="M19,17.7c-2.3,1-3.5,2.7-4.9,4.3c-0.7,1.6-1.6,3.1-2.5,4.6C11.1,28.2,10,29.6,9,31c-0.7,0.9-1.4,1.1-2.4,0.4
			c-1.5,1.6-2.9,3.2-4.8,4.3C0.7,36.5,1,36.9,2,37.3c2.8,1.1,5.3,0.4,7.5-1.4c0.8-1.9,2.3-3.5,2.7-5.6c0.1-0.5,0.5-0.7,0.9-0.3
			c2.2,1.9,4.9,1.6,7.5,1.6c2.6-0.6,4.5-2.1,5.9-4.4c0-0.3,0-0.6,0.1-0.9c0-0.3,0-0.6,0-1c-0.2-0.9-0.5-1.8-0.7-2.7c0,0,0,0,0,0
			c1.1,0.7,2.1,1.4,3.2,2.2c0.7,0.1,1.4,0.3,2.1,0.4c3.6,0.2,7.1-0.5,10.5-1.4c3.2-0.8,6.4-1.2,9.6-0.5c1.1,0.5,2.6,0.5,2.8,2.1
			c0.2,0.1,0.5,0.1,0.8,0.2c0.5,0.1,1.2,0.6,1.6,0c0.3-0.5-0.2-1.1-0.4-1.6c-1.1-2-3-2.7-5.1-3.2c-2.1-0.5-4.3-0.6-6.3-1.4
			c-2-0.1-3.5-1.1-4.7-2.6c-0.5-0.7-0.7-1.6,0.4-1.5c3.7,0.2,6.9-1.1,10.1-2.9c1.6-2.1,1.5-2.7-0.4-4.6c-1.9-1.8-4.2-3-6.7-3.7
			c-8.5-2.6-16.6-1.2-24.5,2.4c1.1,0.3,2.2-0.2,3.3-0.1c3.8-0.6,7.5-0.5,11.2,0.7c0.8,0.3,1.7,0.6,2.2,1.5c-0.2,1.7-1.4,2.8-2.5,4
			c-2.7,2.2-5.6,3.1-8.7,3.1 M24.3,15.7L24.3,15.7 M43.4,7.5c0.7,0,1.1,0.4,1.2,1.1c-0.1,0.8-0.4,1.2-1.2,1.2
			c-0.7,0-1.1-0.5-1.1-1.2C42.3,7.9,42.8,7.5,43.4,7.5z"/>
		<path class="st1" d="M19,17.7l5.3-2c-1.5,0-3.1-0.2-4.6-0.6c-2.1-0.6-3.6-2.1-5.2-3.4c0,0,0,0,0,0c-2,1.5-2.1,3.4-0.4,5.3
			c1,0.7,1,1.4,0.1,2.2c-0.3,0.2-0.5,0.5-0.7,0.8v0c-1.3,1.7-2.1,3.7-3.1,5.6c-1.3,1.9-2.5,3.9-3.8,5.8C7.5,32.1,8.3,31.9,9,31
			c1-1.4,2.1-2.8,2.6-4.5c0.9-1.5,1.8-3,2.5-4.6C15.5,20.3,16.8,18.7,19,17.7"/>
		<path class="st1" d="M24.3,15.7L24.3,15.7c-2.5,0.4-5.3,2-5.3,2S21.8,16.1,24.3,15.7"/>
		<path class="st1" d="M34.8,8.8c0.2-0.1,0.4-0.1,0.6-0.2c-0.5-0.9-1.4-1.1-2.2-1.5c-3.7-1.3-7.4-1.3-11.2-0.7
			c-1.1-0.1-2.2,0.4-3.3,0.1c-1.2,0.4-1.1,0.9-1.1,1c0.1,0.3,1.1,2.2,7.4,2.6c0.2,0,0.4,0,0.6,0.1C26.5,10.1,30.3,10.5,34.8,8.8z"/>
	</g>
	<g>
		<path class="st6" d="M69,23.9c0.1,1.2-0.5,2.3-1.4,3.1c-1,0.8-2.2,1.2-3.5,1.1c-1.1,0-2.3-0.3-3.2-1.1c-1-0.7-1.7-1.8-1.9-2.9
			l1.8-0.7c0.1,0.4,0.3,0.8,0.5,1.2c0.2,0.3,0.5,0.6,0.8,0.9c0.3,0.2,0.6,0.5,1,0.6c0.3,0.2,0.7,0.2,1.1,0.2
			c0.7,0.1,1.5-0.2,2.1-0.7c0.5-0.4,0.8-1.1,0.8-1.8c0-0.6-0.2-1.2-0.7-1.6c-0.7-0.6-1.5-1-2.4-1.3c-1.2-0.4-1.9-0.7-2.2-0.9
			c-1.5-0.8-2.3-1.9-2.3-3.5c0-1.1,0.5-2.1,1.3-2.8c0.9-0.7,2.1-1.2,3.2-1.1c1,0,2.1,0.3,2.9,0.9c0.8,0.5,1.4,1.3,1.7,2.1l-1.8,0.7
			c-0.2-0.6-0.5-1-1-1.4c-1.1-0.7-2.6-0.7-3.7,0.1c-0.5,0.3-0.7,0.9-0.7,1.5c0,0.5,0.2,1,0.6,1.3c0.9,0.6,1.8,1,2.9,1.3
			c1.2,0.3,2.3,1,3.2,1.9C68.7,22,69,23,69,23.9z"/>
		<path class="st6" d="M71,17.8h1.8v1.4h0.1c0.3-0.5,0.8-1,1.3-1.3c0.6-0.3,1.2-0.5,1.9-0.5c1.1-0.1,2.1,0.3,2.9,1.1
			c0.7,0.9,1.1,1.9,1,3v6.3h-1.9v-6.2c-0.1-1.7-0.9-2.5-2.5-2.5c-0.7,0-1.4,0.3-1.9,0.9c-0.5,0.6-0.8,1.4-0.7,2.2v5.6H71L71,17.8
			L71,17.8z"/>
		<path class="st6" d="M85.8,17.5c1.2-0.1,2.4,0.3,3.3,1.1c0.8,0.8,1.3,1.9,1.2,3.1v6.2h-1.8v-1.4h-0.1c-0.7,1.1-1.8,1.7-3.1,1.7
			c-1,0.1-2-0.3-2.8-1c-0.7-0.6-1.1-1.5-1.1-2.5c-0.1-1,0.4-1.9,1.2-2.5c0.9-0.6,2-1,3.1-0.9c1-0.1,1.9,0.2,2.8,0.6v-0.5
			c0-0.6-0.3-1.3-0.8-1.7c-0.5-0.5-1.1-0.7-1.8-0.7c-1,0-1.9,0.5-2.5,1.3l-1.7-1C82.7,18.2,84.2,17.4,85.8,17.5z M83.4,24.8
			c0,0.5,0.2,1,0.6,1.3c0.4,0.3,0.9,0.5,1.5,0.5c0.8,0,1.5-0.3,2.1-0.9c0.6-0.5,0.9-1.3,0.9-2.1c-0.7-0.5-1.6-0.7-2.5-0.7
			c-0.7,0-1.4,0.2-1.9,0.6C83.7,23.8,83.4,24.3,83.4,24.8z"/>
		<path class="st6" d="M97.8,28.2c-0.7,0-1.4-0.2-2-0.5c-0.6-0.3-1.1-0.7-1.4-1.3h-0.1l0.1,1.4v4.5h-1.9V17.9h1.8v1.4h0.1
			c0.3-0.5,0.9-1,1.4-1.3c1.8-0.9,4.1-0.5,5.4,1.1c0.9,1,1.4,2.4,1.4,3.8c0.1,1.4-0.5,2.7-1.4,3.8C100.4,27.6,99.1,28.2,97.8,28.2z
			 M97.5,26.5c0.9,0,1.7-0.3,2.3-1c0.6-0.7,1-1.7,0.9-2.6c0.1-1-0.3-1.9-0.9-2.6c-1.1-1.3-3.1-1.4-4.3-0.2c-0.1,0.1-0.2,0.2-0.2,0.2
			c-0.6,0.7-0.9,1.7-0.9,2.6c-0.1,1,0.3,1.9,0.9,2.6C95.8,26.2,96.6,26.5,97.5,26.5L97.5,26.5z"/>
		<path class="st6" d="M109.3,28.2c-0.7,0-1.4-0.2-2.1-0.5c-0.6-0.3-1.1-0.7-1.4-1.3h-0.1l0.1,1.4v4.5H104V17.9h1.8v1.4h0.1
			c0.3-0.5,0.9-1,1.4-1.3c1.8-0.9,4.1-0.5,5.4,1.1c0.9,1,1.4,2.4,1.4,3.8c0.1,1.4-0.5,2.7-1.4,3.8C111.9,27.6,110.6,28.2,109.3,28.2
			z M109,26.5c0.9,0,1.7-0.3,2.3-1c0.6-0.7,1-1.7,0.9-2.6c0.1-1-0.3-1.9-0.9-2.6c-0.6-0.7-1.4-1-2.3-1s-1.7,0.3-2.3,1
			c-0.6,0.7-0.9,1.7-0.9,2.6c-0.1,1,0.3,1.9,0.9,2.6C107.3,26.2,108.2,26.5,109,26.5L109,26.5z"/>
		<path class="st6" d="M124.5,17.8l-6.3,14.5h-1.9l2.3-5.1l-4.2-9.4h2.1l3,7.3h0.1l2.9-7.3H124.5z"/>
		<path class="st7" d="M126,13.1h9.4v2.6h-6.6v3.6h5.9V22h-5.9v5.9H126V13.1z"/>
		<path class="st7" d="M137.2,27.9V13.1h2.7v14.7H137.2z"/>
		<path class="st7" d="M146.8,17.5c0.7,0,1.5,0.1,2.2,0.4c0.6,0.2,1.2,0.6,1.7,1.1c0.5,0.5,0.9,1.1,1.1,1.7c0.5,1.4,0.5,2.9,0,4.3
			c-0.2,0.6-0.6,1.2-1.1,1.7c-0.5,0.5-1,0.9-1.7,1.1c-1.4,0.5-2.9,0.5-4.3,0c-1.3-0.5-2.3-1.5-2.8-2.8c-0.5-1.4-0.5-2.9,0-4.3
			c0.5-1.3,1.5-2.3,2.8-2.8C145.4,17.6,146.1,17.5,146.8,17.5z M146.8,25.7c0.3,0,0.7-0.1,1-0.2c0.7-0.3,1.2-0.8,1.4-1.5
			c0.3-0.8,0.3-1.7,0-2.4c-0.2-0.7-0.8-1.2-1.4-1.5c-0.3-0.1-0.7-0.2-1-0.2c-0.3,0-0.7,0.1-1,0.2c-0.3,0.1-0.6,0.3-0.9,0.6
			c-0.2,0.3-0.5,0.6-0.6,0.9c-0.3,0.8-0.3,1.7,0,2.4c0.1,0.3,0.3,0.6,0.6,0.9c0.2,0.2,0.5,0.5,0.9,0.6
			C146.1,25.6,146.5,25.8,146.8,25.7L146.8,25.7z"/>
		<path class="st7" d="M152.6,17.8h3l1.7,6.3h0.2l2-6.3h2.8l2,6.3h0.2l1.7-6.3h3l-3.3,10.1H163l-2-6.3h-0.2l-2,6.3H156L152.6,17.8z"
			/>
	</g>
</g>
</svg>
