<svg xmlns="http://www.w3.org/2000/svg" xmlns:xlink="http://www.w3.org/1999/xlink" width="90" height="55" viewBox="0 0 90 55">
  <defs>
    <clipPath id="clip-stack">
      <rect width="90" height="55"/>
    </clipPath>
  </defs>
  <g id="stack" clip-path="url(#clip-stack)">
    <rect width="90" height="55" fill="#fff"/>
    <g id="slack-new-logo" transform="translate(18)">
      <path id="Path_2071" data-name="Path 2071" d="M20.125,0a5.5,5.5,0,0,0,0,11h5.49V5.5A5.5,5.5,0,0,0,20.125,0h0m0,14.667H5.49a5.5,5.5,0,0,0,0,11H20.125a5.5,5.5,0,0,0,0-11Z" fill="#36c5f0" fill-rule="evenodd"/>
      <path id="Path_2072" data-name="Path 2072" d="M1331.015,20.166a5.49,5.49,0,1,0-10.98,0v5.5h5.49A5.5,5.5,0,0,0,1331.015,20.166Zm-14.637,0V5.5a5.489,5.489,0,1,0-10.978,0V20.166a5.489,5.489,0,1,0,10.978,0Z" transform="translate(-1276.125 0)" fill="#2eb67d" fill-rule="evenodd"/>
      <path id="Path_2073" data-name="Path 2073" d="M1310.79,1333.569a5.5,5.5,0,0,0,0-11h-5.49v5.5A5.5,5.5,0,0,0,1310.79,1333.569Zm0-14.669h14.638a5.5,5.5,0,0,0,0-11h-14.637a5.5,5.5,0,0,0,0,11Z" transform="translate(-1276.027 -1278.569)" fill="#ecb22e" fill-rule="evenodd"/>
      <path id="Path_2074" data-name="Path 2074" d="M0,1313.5a5.49,5.49,0,1,0,10.98,0V1308H5.49A5.5,5.5,0,0,0,0,1313.5Zm14.638,0v14.667a5.489,5.489,0,1,0,10.978,0V1313.5a5.489,5.489,0,1,0-10.978,0h0" transform="translate(0 -1278.667)" fill="#e01e5a" fill-rule="evenodd"/>
    </g>
  </g>
</svg>
