<svg xmlns="http://www.w3.org/2000/svg" width="90" height="55" viewBox="0 0 90 55"><defs><style>.cls-1{fill:#f7f7f7;opacity:0;}.cls-2{fill:#fff;}.cls-3{fill:#c12766;}.cls-4{fill:#3e489f;}.cls-5{fill:#714099;}.cls-6{fill:#78932c;}.cls-7{fill:#cf242a;}.cls-8{fill:none;stroke:#fff;stroke-width:0.52px;}</style></defs><g id="Layer_2" data-name="Layer 2"><g id="Layer_1-2" data-name="Layer 1"><rect class="cls-1" width="90" height="55"/><g id="activemq-1"><g id="layer2"><g id="g5073"><path id="path4883" class="cls-2" d="M55.76,50l-8.87,0L42.5,42.24,47,34.58l8.87.05,4.39,7.71Z"/><path id="path4883-4" class="cls-2" d="M42.94,42.56l-8.87-.05L29.68,34.8l4.48-7.66,8.87.05,4.39,7.71Z"/><path id="path4883-4-2" class="cls-2" d="M55.84,35.17,47,35.11l-4.39-7.7,4.48-7.66,8.87.05,4.39,7.71Z"/><path id="path4883-4-2-0" class="cls-2" d="M55.83,20.41,47,20.36l-4.39-7.7L47.05,5l8.87,0,4.39,7.71Z"/><path id="path4883-4-2-0-0" class="cls-2" d="M43,27.82l-8.88-.05-4.39-7.71,4.48-7.66,8.88.06,4.39,7.71Z"/></g></g><g id="layer1"><path id="path5019-02-9" class="cls-3" d="M55.31,34.17l-7.75,0L43.7,27.43l3.9-6.7,7.75,0,3.85,6.72Z"/><path id="path5019-0-5-1" class="cls-4" d="M42.42,41.57l-7.76,0-3.85-6.72,3.89-6.7,7.75,0,3.86,6.73Z"/><path id="path5019-4-1-2" class="cls-5" d="M55.23,49l-7.75,0-3.86-6.71,3.9-6.71,7.75,0,3.85,6.72Z"/><path id="path5019-0-4-9-8" class="cls-6" d="M42.48,26.83l-7.75,0-3.85-6.72,3.89-6.7,7.75,0,3.86,6.73Z"/><path id="path5019-0-0-7-9" class="cls-7" d="M55.3,19.42l-7.75,0L43.7,12.68,47.59,6l7.75,0,3.86,6.73Z"/><circle id="path5553-7" class="cls-2" cx="51.37" cy="42.29" r="1.7"/><path id="path5592" class="cls-8" d="M52.63,11.92,37.47,20.61"/><path id="path5592-7" class="cls-8" d="M38.57,18.82l0,17.47"/><path id="path5592-7-1" class="cls-8" d="M37.52,34.24l15,8.92"/><path id="path5592-7-7" class="cls-8" d="M51.4,11.31l.05,17.47"/><path id="path5592-7-4" class="cls-8" d="M51.47,26.14l.05,17.47"/><path id="path5592-5" class="cls-8" d="M52.65,26.79,37.49,35.48"/><path id="path5592-7-1-3" class="cls-8" d="M37.56,19.5l15,8.92"/><circle id="path5553-7-1" class="cls-2" cx="38.38" cy="34.8" r="1.7"/><circle id="path5553-7-3" class="cls-2" cx="51.73" cy="27.62" r="1.7"/><circle id="path5553-7-0" class="cls-2" cx="38.62" cy="20.11" r="1.7"/><circle id="path5553-7-39" class="cls-2" cx="51.44" cy="12.71" r="1.7"/></g></g></g></g></svg>