<svg xmlns="http://www.w3.org/2000/svg" xmlns:xlink="http://www.w3.org/1999/xlink" width="90" height="55" viewBox="0 0 90 55">
  <defs>
    <clipPath id="clip-aws-elastic-beanstalk">
      <rect width="90" height="55"/>
    </clipPath>
  </defs>
  <g id="aws-elastic-beanstalk" clip-path="url(#clip-aws-elastic-beanstalk)">
    <rect width="90" height="55" fill="#fff"/>
    <g id="A" transform="translate(-1030.684 -89.743)">
      <g id="Group_3" data-name="Group 3" transform="translate(1054.684 89.743)">
        <path id="Path_1722" data-name="Path 1722" d="M1080.6,93.15v24.093h-2.92v22.689l9.994,4.81,6.013-27.5-6.013-27.5Z" transform="translate(-1067.049 -89.743)" fill="#9d5025" fill-rule="evenodd"/>
        <path id="Path_1723" data-name="Path 1723" d="M1099.3,89.743v55l7.074-3.407V117.243h2.92V94.553Z" transform="translate(-1078.672 -89.743)" fill="#f58536" fill-rule="evenodd"/>
        <path id="Path_1724" data-name="Path 1724" d="M1124.374,119.742l-12.643,1.149-4.154-.5,13.177-12.928Z" transform="translate(-1083.124 -99.27)" fill="#6b3a19" fill-rule="evenodd"/>
        <path id="Path_1725" data-name="Path 1725" d="M1136.08,107.462l3.62,1.743v10.537l-3.62-.7Z" transform="translate(-1098.45 -99.27)" fill="#f58536" fill-rule="evenodd"/>
        <path id="Path_1726" data-name="Path 1726" d="M1107.577,120.39l13.177-1.343V107.462l-13.177,3.434Z" transform="translate(-1083.124 -99.27)" fill="#9d5025" fill-rule="evenodd"/>
        <path id="Path_1727" data-name="Path 1727" d="M1054.684,163.1l12.642-1.149,4.154.5L1058.3,175.376Z" transform="translate(-1054.684 -128.566)" fill="#fbbf93" fill-rule="evenodd"/>
        <path id="Path_1728" data-name="Path 1728" d="M1058.3,176.712l-3.62-1.743V164.432l3.62.735Z" transform="translate(-1054.684 -129.903)" fill="#9d5025" fill-rule="evenodd"/>
        <path id="Path_1729" data-name="Path 1729" d="M1075.692,163.03l-13.177,1.383v11.545l13.177-3.434Z" transform="translate(-1058.895 -129.149)" fill="#f58536" fill-rule="evenodd"/>
      </g>
    </g>
  </g>
</svg>
