<svg xmlns="http://www.w3.org/2000/svg" width="805" height="325" viewBox="0 0 805 325"><defs><style>.cls-1{isolation:isolate;}.cls-2{fill:#fff;}.cls-3{fill:#acacac;}.cls-4{fill:#445d75;}.cls-5{opacity:0.5;}.cls-21,.cls-6,.cls-9{font-size:20px;font-family:Lato-Regular, Lato;}.cls-6{fill:#191919;}.cls-7{letter-spacing:-0.04em;}.cls-8{letter-spacing:-0.01em;}.cls-10{letter-spacing:0em;}.cls-11{mix-blend-mode:luminosity;opacity:0.6;}.cls-12{fill:#db521c;}.cls-13{fill:#25b6ea;}.cls-14{fill:#a1d7d5;}.cls-15{fill:#0d6a90;}.cls-16{fill:#0e6977;}.cls-17,.cls-20{fill:none;}.cls-18{font-size:32.65px;fill:#a8a8a8;}.cls-18,.cls-24{font-family:Lato-Medium, Lato;font-weight:500;}.cls-19,.cls-21,.cls-24{fill:#080d0e;}.cls-20{stroke:#080d0e;stroke-miterlimit:10;stroke-width:2px;}.cls-22{letter-spacing:-0.04em;}.cls-23{fill:#01a3d6;}.cls-24{font-size:19.53px;}.cls-25{letter-spacing:-0.03em;}.cls-26{letter-spacing:-0.25em;}</style></defs><g class="cls-1"><g id="Layer_1" data-name="Layer 1"><rect class="cls-2" x="12" y="23.28" width="424.32" height="278.84" rx="12"/><path class="cls-3" d="M424.32,23.28h-11v3h11v-3Zm-22,0h-11v3h11v-3Zm-22,0h-11v3h11v-3Zm-22,0h-11v3h11v-3Zm-22,0h-11v3h11v-3Zm-22,0h-11v3h11v-3Zm-22,0h-11v3h11v-3Zm-22,0h-11v3h11v-3Zm-22,0h-11v3h11v-3Zm-22,0h-11v3h11v-3Zm-22,0h-11v3h11v-3Zm-22,0h-11v3h11v-3Zm-22,0h-11v3h11v-3Zm-22,0h-11v3h11v-3Zm-22,0h-11v3h11v-3Zm-22,0h-11v3h11v-3Zm-22,0h-11v3h11v-3Zm-22,0h-11v3h11v-3Zm-22,0H22.71a12,12,0,0,0-5,1.72h0l1.58,2.55A9,9,0,0,1,24,26.28h4.32v-3ZM12.05,34.11c0,.3,0,.6-.05.9h0v0h0v0h0v0h0v0h0v0h0v0h0v9.85h3V35.28a8.64,8.64,0,0,1,0-.88l-3-.29Zm2.95,22H12v11h3v-11Zm0,22H12v11h3v-11Zm0,22H12v11h3v-11Zm0,22H12v11h3v-11Zm0,22H12v11h3v-11Zm0,22H12v11h3v-11Zm0,22H12v11h3v-11Zm0,22H12v11h3v-11Zm0,22H12v11h3v-11Zm0,22H12v11h3v-11Zm0,22H12v11h3v-11Zm1.92,19.57-2.36,1.85a12.07,12.07,0,0,0,6.82,4.31h0l.12,0h0l.11,0h0l.09,0H22l.08,0h2.08v-3H24a8.94,8.94,0,0,1-7.08-3.44Zm29.22,3.44h-11v3h11v-3Zm22,0h-11v3h11v-3Zm22,0h-11v3h11v-3Zm22,0h-11v3h11v-3Zm22,0h-11v3h11v-3Zm22,0h-11v3h11v-3Zm22,0h-11v3h11v-3Zm22,0h-11v3h11v-3Zm22,0h-11v3h11v-3Zm22,0h-11v3h11v-3Zm22,0h-11v3h11v-3Zm22,0h-11v3h11v-3Zm22,0h-11v3h11v-3Zm22,0h-11v3h11v-3Zm22,0h-11v3h11v-3Zm22,0h-11v3h11v-3Zm22,0h-11v3h11v-3Zm22,0h-11v3h11v-3Zm13.14-8.22a9,9,0,0,1-4.12,6.81l1.62,2.53a12,12,0,0,0,5.46-8.72h0v0h0v-.08h0v-.07h0v-.05h0v0h0l-3-.25Zm3-21.75h-3v11h3v-11Zm0-22h-3v11h3v-11Zm0-22h-3v11h3v-11Zm0-22h-3v11h3v-11Zm0-22h-3v11h3v-11Zm0-22h-3v11h3v-11Zm0-22h-3v11h3v-11Zm0-22h-3v11h3v-11Zm0-22h-3v11h3v-11Zm0-22h-3v11h3v-11Zm0-22h-3v11h3v-11Zm-2.65-21.39-2.34,1.88a8.9,8.9,0,0,1,2,5.64v2.87h3V35.26h0v0h0v0h0v0h0v0h0v0h0v0h0v0h0v0h0v0h0v0h0v0h0v0h0v0h0v0h0v0h0v0h0v0h0v0h0v0h0v0h0v0h0v0h0v0h0v0h0v0h0v0h0v0h0v0h0v0h0v0h0v0h0v0h0v0h0v0h0v0h0v0h0v0h0v0h0v0h0v0h0v-.07h0v0h0v0h0v-.07h0v0h0v0h0v-.07h0v0h0v0h0v0h0l0-.07h0v0h0l0-.09h0v0h0l0-.11h0l0-.09h0v0h0a11.94,11.94,0,0,0-2.34-4.81Z"/><rect class="cls-2" x="34.36" y="44.59" width="379.6" height="235.77" rx="15"/><path class="cls-4" d="M399,45.59a14,14,0,0,1,14,14V265.36a14,14,0,0,1-14,14H49.36a14,14,0,0,1-14-14V59.59a14,14,0,0,1,14-14H399m0-2H49.36a16,16,0,0,0-16,16V265.36a16,16,0,0,0,16,16H399a16,16,0,0,0,16-16V59.59a16,16,0,0,0-16-16Z"/><g class="cls-5"><text class="cls-6" transform="translate(68.66 223.06)"><tspan class="cls-7">A</tspan><tspan class="cls-8" x="12.68" y="0">W</tspan><tspan x="33.28" y="0">S Lambda</tspan></text><text class="cls-9" transform="translate(68.66 223.06)"><tspan class="cls-7">A</tspan><tspan class="cls-8" x="12.68" y="0">W</tspan><tspan x="33.28" y="0">S Lambda</tspan></text></g><g class="cls-5"><text class="cls-6" transform="translate(287.32 223.06)">Ex<tspan class="cls-10" x="21.51" y="0">t</tspan><tspan x="28.63" y="0">ension</tspan></text><text class="cls-9" transform="translate(287.32 223.06)">Ex<tspan class="cls-10" x="21.51" y="0">t</tspan><tspan x="28.63" y="0">ension</tspan></text></g><g class="cls-11"><path class="cls-12" d="M127.79,98.52A47.18,47.18,0,1,1,80.61,145.7a47.23,47.23,0,0,1,47.18-47.18m0-2A49.18,49.18,0,1,0,177,145.7a49.18,49.18,0,0,0-49.17-49.18Z"/><path class="cls-12" d="M154.46,160.15v12.22a1.11,1.11,0,0,1-1.11,1.11h-13.7a1.11,1.11,0,0,1-1-.63l-19.36-40.48H111.1a1.09,1.09,0,0,1-.78-.33,1.11,1.11,0,0,1-.33-.79V119a1.11,1.11,0,0,1,.33-.79,1.08,1.08,0,0,1,.78-.32h17.11a1.15,1.15,0,0,1,.59.17,1.17,1.17,0,0,1,.41.47L148.47,159h4.88a1.13,1.13,0,0,1,.79.33A1.15,1.15,0,0,1,154.46,160.15Z"/><path class="cls-12" d="M125.67,155.67a1.34,1.34,0,0,1-.11.48l-7.91,16.7a1.08,1.08,0,0,1-1,.63H102.22a1.13,1.13,0,0,1-.93-.51,1.14,1.14,0,0,1-.17-.53,1.07,1.07,0,0,1,.1-.53l15.1-31.63a1.11,1.11,0,0,1,.4-.46,1.12,1.12,0,0,1,.59-.17,1.06,1.06,0,0,1,.58.16,1.21,1.21,0,0,1,.42.45l7.25,14.93A1.3,1.3,0,0,1,125.67,155.67Z"/></g><g class="cls-11"><path class="cls-13" d="M330.48,98.52A47.18,47.18,0,1,1,283.3,145.7a47.23,47.23,0,0,1,47.18-47.18m0-2a49.18,49.18,0,1,0,49.17,49.18,49.18,49.18,0,0,0-49.17-49.18Z"/><path class="cls-14" d="M352.43,145.18a8.44,8.44,0,0,1-6.06-3.3c-.64-.85-.85-2,.53-1.91,4.78.21,8.93-1.49,12.86-3.72-1.81,2.66-4.46,4-7.44,5-.74.21-1.91.1-2.13,1.06s.64,1.49,1.28,2.13A8,8,0,0,1,352.43,145.18Z"/><path class="cls-15" d="M307.57,166.33c1.06-2.44,3-4.46,3.51-7.22a.66.66,0,0,1,1.16-.43c2.87,2.44,6.17,2,9.57,2a12.72,12.72,0,0,1-7.12,1,3.15,3.15,0,0,0-3.3,1.27A10.65,10.65,0,0,1,307.57,166.33Z"/><path class="cls-15" d="M338,129.55a29.43,29.43,0,0,0-14.24-1c-1.39-.11-2.87.53-4.26.1-1.8.64-1.91.75-1.06,1.6a52.16,52.16,0,0,1,9,.42,64.43,64.43,0,0,0-9-.42,6.4,6.4,0,0,0,2.66,1.38,25.43,25.43,0,0,0,15.41.85,3.25,3.25,0,0,0,2-.64,8.37,8.37,0,0,0,2.34-.42C340.2,130.3,339,130,338,129.55Z"/><path class="cls-16" d="M352.53,131.36c-.1,1-.53,1.6-1.49,1.49a1.44,1.44,0,0,1,0-2.87A1.5,1.5,0,0,1,352.53,131.36Z"/><path class="cls-15" d="M361,150.07a28.35,28.35,0,0,0-12.33.64c-4.47,1.06-8.83,2-13.5,1.7-.86-.21-1.81-.32-2.66-.53-1.38-1-2.66-1.81-4-2.77h0c.32,1.17.64,2.34.85,3.51v1.17a4.22,4.22,0,0,1-.11,1.17c.64.11,1.38.32,2,.42a14,14,0,0,0,6,.64c3.19-.32,6.06-1.7,9-2.66,4.57-1.48,9.14-2.44,13.93-1.59,1.48.21,2.87.53,4.35.74C364.33,150.6,362.42,150.71,361,150.07Z"/><path class="cls-17" d="M350.94,133c.95,0,1.38-.54,1.49-1.49a1.43,1.43,0,0,0-1.49-1.38,1.28,1.28,0,0,0-1.38,1.38A1.43,1.43,0,0,0,350.94,133Z"/><path class="cls-13" d="M319.79,143.05c-2.87,1.28-4.57,3.41-6.27,5.43a38.76,38.76,0,0,1-3.19,5.84,20.92,20.92,0,0,1-3.4,5.74,2,2,0,0,1-3.08.53c-1.92,2-3.72,4.15-6.17,5.53-1.49.85-1.06,1.49.21,1.91,3.62,1.39,6.7.43,9.57-1.8,1.06-2.45,3-4.47,3.51-7.23a.67.67,0,0,1,1.17-.43c2.87,2.45,6.16,2,9.57,2a11.6,11.6,0,0,0,7.54-5.63,4.22,4.22,0,0,1,.11-1.17v-1.17c-.32-1.17-.64-2.34-.85-3.51h0c1.38,1,2.66,1.81,4,2.77.85.21,1.8.32,2.66.53a48.73,48.73,0,0,0,13.5-1.7,28.35,28.35,0,0,1,12.33-.64c1.38.64,3.29.53,3.61,2.66a3.31,3.31,0,0,0,1,.21c.63.11,1.48.74,2,0s-.22-1.38-.54-2c-1.38-2.55-3.82-3.4-6.48-4s-5.53-.74-8.08-1.81a8.5,8.5,0,0,1-6.06-3.29c-.63-.85-.85-2,.53-1.91,4.79.21,8.93-1.49,12.87-3.73,2-2.76,1.91-3.5-.54-5.84a20.9,20.9,0,0,0-8.61-4.79c-10.84-3.29-21.25-1.48-31.35,3.09,1.38.42,2.87-.22,4.25-.11a29.43,29.43,0,0,1,14.24,1c1.07.42,2.24.74,2.87,1.91-.32,2.23-1.8,3.62-3.19,5.1a17.09,17.09,0,0,1-11.05,4m0,0h0M350.94,130a1.37,1.37,0,0,1,1.49,1.38c-.11,1-.54,1.6-1.49,1.49a1.26,1.26,0,0,1-1.38-1.49A1.48,1.48,0,0,1,350.94,130Z"/><path class="cls-15" d="M320.54,139.76c-2.66-.85-4.68-2.66-6.7-4.36h0c-2.55,1.91-2.66,4.36-.43,6.8,1.28.85,1.28,1.81.11,2.87-.32.32-.53.75-.85,1.07h0a48.08,48.08,0,0,0-3.93,7.22c-1.6,2.45-3.19,5-4.89,7.45a2,2,0,0,0,3.08-.54,20.77,20.77,0,0,0,3.4-5.74,44.31,44.31,0,0,0,3.19-5.84c1.7-2,3.4-4.15,6.27-5.42l6.81-2.55A41,41,0,0,1,320.54,139.76Zm-6.81-3.83a6.46,6.46,0,0,0-.1,1.38A6.46,6.46,0,0,1,313.73,135.93Zm-.1,2c0,.21.1.53.1.75A1.69,1.69,0,0,0,313.63,138Zm.63,2.45h0a19.87,19.87,0,0,0,3.94,2.12A19.87,19.87,0,0,1,314.26,140.4Z"/><path class="cls-15" d="M326.49,140.5h0a25.3,25.3,0,0,0-6.8,2.55,32.81,32.81,0,0,1,6.8-2.55"/></g><text class="cls-18" transform="translate(219.63 155.28)">+</text><polygon class="cls-19" points="561.17 156.63 561.17 168.78 567.25 162.7 561.17 156.63"/><line class="cls-20" x1="445.4" y1="162.7" x2="566.12" y2="162.7"/><path class="cls-4" d="M779.52,83.9h-12v3h12v-3Zm-24,0h-12v3h12v-3Zm-24,0h-12v3h12v-3Zm-24,0h-12v3h12v-3Zm-24,0h-12v3h12v-3Zm-24,0h-12v3h12v-3Zm-24,0h-12v3h12v-3Zm-24,0h-12v3h12v-3Zm-24,0h-7.7l0,0h0l0,0h0v0h0l0,0h0l0,0h0l0,0h0l0,0h0l-.06,0h0l-.05,0h0A12.4,12.4,0,0,0,577,88.6l2.38,1.83a8.94,8.94,0,0,1,7.14-3.53h1v-3Zm-10,16.15h-3v12h3v-12Zm0,24h-3v12h3v-12Zm0,24h-3v12h3v-12Zm0,24h-3v12h3v-12Zm0,24h-3v12h3v-12Zm0,24h-3v9.47h0v0h0v0h0v0h0v0h0v0h0v0h0v0h0v0h0v0h0v0h0v0h0v0h0v0h0v0h0v.06h0v0h0v0h0v0h0v0h0v0h0v0h0v0h0v0h0v0h0v0h0v0h0v0h0v0h0v0h0v0h0a1.5,1.5,0,0,1,0,.22h0v0h0v0h0c0,.35.1.68.17,1l2.93-.63a9.29,9.29,0,0,1-.2-1.9v-9.45Zm5.84,17.88-1.05,2.81a11.47,11.47,0,0,0,1.41.43h0l.13,0h0l.1,0h.06l.08,0h.24l.08,0h9.75v-3h-7.7a8.93,8.93,0,0,1-3.16-.57Zm34.86.57h-12v3h12v-3Zm24,0h-12v3h12v-3Zm24,0h-12v3h12v-3Zm24,0h-12v3h12v-3Zm24,0h-12v3h12v-3Zm24,0h-12v3h12v-3Zm24,0h-12v3h12v-3Zm22.07-1.36a9,9,0,0,1-4.77,1.36h-5.3v3h7a12.2,12.2,0,0,0,3.2-.94h0l0,0h0l0,0h0l0,0H785l0,0h.9l-1.59-2.54Zm7.23-19.48h-3v12l3,0v-.06h0v-.08h0V217.66Zm0-24h-3v12h3v-12Zm0-24h-3v12h3v-12Zm0-24h-3v12h3v-12Zm0-24h-3v12h3v-12Zm0-24h-3v12h3v-12Zm-12-13.76v3a9,9,0,0,1,5.91,2.22l2-2.26h0l-.05,0h-.08l-.07-.06h-.07l-.07-.06H787l-.09-.07h0l-.1-.08h0l0,0h0l-.12-.09h0l-.13-.09h0a11.91,11.91,0,0,0-1.62-1h0l-.48-.22h0l-.17-.07h0l-.14,0h-.05l-.1,0h-.08l-.11,0h-.07l-.09,0h-.1l-.07,0h-.12l-.08,0H783l-.07,0h-.1l-.08,0h-3.22Z"/><path class="cls-14" d="M715.84,149.41a13.84,13.84,0,0,1-9.86-5.36c-1-1.38-1.38-3.29.87-3.11,7.78.34,14.52-2.42,20.92-6.06-2.94,4.33-7.26,6.58-12.11,8.13-1.21.35-3.11.17-3.45,1.73-.35,1.38,1,2.42,2.07,3.46A12.46,12.46,0,0,1,715.84,149.41Z"/><path class="cls-15" d="M642.87,183.82c1.72-4,4.84-7.26,5.7-11.76a1.08,1.08,0,0,1,1.9-.69c4.67,4,10,3.29,15.57,3.29a20.74,20.74,0,0,1-11.59,1.55,5.13,5.13,0,0,0-5.36,2.08A17.47,17.47,0,0,1,642.87,183.82Z"/><path class="cls-15" d="M692.32,124c-7.61-2.59-15.39-2.77-23.17-1.56-2.25-.17-4.67.87-6.92.18-2.94,1-3.11,1.21-1.73,2.59a84.92,84.92,0,0,1,14.7.69c-4.84-.34-9.68-1-14.7-.69a10.4,10.4,0,0,0,4.33,2.25,41.38,41.38,0,0,0,25.07,1.38,5.3,5.3,0,0,0,3.28-1,13.34,13.34,0,0,0,3.81-.7C696,125.2,694.05,124.68,692.32,124Z"/><path class="cls-16" d="M716,126.93c-.17,1.56-.86,2.59-2.42,2.42a2.06,2.06,0,0,1-2.25-2.42,2.1,2.1,0,0,1,2.25-2.25A2.45,2.45,0,0,1,716,126.93Z"/><path class="cls-15" d="M729.84,157.36c-6.74-1.38-13.48-.51-20.06,1-7.26,1.73-14.35,3.29-22,2.77-1.38-.35-2.94-.52-4.32-.87-2.25-1.55-4.32-2.94-6.57-4.49h0c.52,1.9,1,3.8,1.38,5.7v1.91a7.2,7.2,0,0,1-.17,1.9c1,.17,2.25.52,3.29.69a23,23,0,0,0,9.68,1c5.19-.52,9.86-2.77,14.7-4.33,7.43-2.42,14.87-4,22.65-2.59,2.42.35,4.67.87,7.09,1.21C735.2,158.23,732.09,158.4,729.84,157.36Z"/><path class="cls-17" d="M713.42,129.52c1.55,0,2.24-.86,2.42-2.42a2.33,2.33,0,0,0-2.42-2.24,2.08,2.08,0,0,0-2.25,2.24A2.32,2.32,0,0,0,713.42,129.52Z"/><path class="cls-13" d="M662.75,146c-4.67,2.08-7.43,5.53-10.2,8.82a62.81,62.81,0,0,1-5.19,9.51,34.08,34.08,0,0,1-5.53,9.34c-1.39,1.9-2.94,2.25-5,.86-3.11,3.29-6,6.75-10,9-2.42,1.39-1.72,2.43.35,3.12,5.88,2.24,10.89.69,15.56-2.94,1.73-4,4.84-7.27,5.71-11.76a1.08,1.08,0,0,1,1.9-.69c4.67,4,10,3.28,15.56,3.28a18.91,18.91,0,0,0,12.28-9.16,7.2,7.2,0,0,1,.17-1.9v-1.91c-.51-1.9-1-3.8-1.38-5.7h0c2.25,1.55,4.32,2.94,6.57,4.49,1.38.35,2.94.52,4.32.87,7.44.34,14.7-1,22-2.77,6.58-1.55,13.32-2.42,20.06-1,2.25,1,5.36.87,5.88,4.33a5.15,5.15,0,0,0,1.56.34c1,.18,2.42,1.21,3.28,0,.7-1-.34-2.25-.86-3.28-2.25-4.15-6.23-5.54-10.55-6.57s-9-1.21-13.14-2.94a13.86,13.86,0,0,1-9.86-5.36c-1-1.39-1.38-3.29.87-3.12,7.78.35,14.52-2.42,20.92-6,3.29-4.49,3.11-5.7-.86-9.51a34.1,34.1,0,0,0-14-7.78c-17.64-5.36-34.58-2.42-51,5,2.25.7,4.67-.34,6.92-.17,7.78-1.21,15.56-1,23.17,1.56,1.73.69,3.63,1.21,4.67,3.11-.52,3.63-2.94,5.88-5.19,8.3a27.84,27.84,0,0,1-18,6.57m0,0h0m39.77-17.12a2.24,2.24,0,0,1,2.42,2.25c-.18,1.56-.87,2.59-2.42,2.42a2.06,2.06,0,0,1-2.25-2.42A2.43,2.43,0,0,1,713.42,124.68Z"/><path class="cls-15" d="M664,140.59c-4.32-1.38-7.61-4.32-10.89-7.09h0c-4.15,3.11-4.33,7.09-.69,11.07,2.07,1.38,2.07,2.94.17,4.67-.52.52-.87,1.21-1.38,1.73h0a76.91,76.91,0,0,0-6.4,11.75c-2.6,4-5.19,8.13-8,12.11,1.91,1.38,3.63,1,5-.87a34.17,34.17,0,0,0,5.53-9.33,73.49,73.49,0,0,0,5.19-9.51c2.77-3.29,5.53-6.75,10.2-8.82l11.07-4.15A64.77,64.77,0,0,1,664,140.59Zm-11.06-6.22a9.42,9.42,0,0,0-.18,2.24A9.42,9.42,0,0,1,652.9,134.37Zm-.18,3.28c0,.35.18.87.18,1.21A2.48,2.48,0,0,0,652.72,137.65Zm1,4h0a32.36,32.36,0,0,0,6.4,3.46A32.36,32.36,0,0,1,653.76,141.63Z"/><path class="cls-15" d="M673.65,141.8h0c-5.19.87-11.07,4.15-11.07,4.15a53.18,53.18,0,0,1,11.07-4.15"/><g class="cls-5"><text class="cls-21" transform="translate(484.29 183.85)"><tspan class="cls-22">L</tspan><tspan class="cls-10" x="9.54" y="0">o</tspan><tspan x="20.83" y="0">gs</tspan></text><text class="cls-21" transform="translate(484.29 183.85)"><tspan class="cls-22">L</tspan><tspan class="cls-10" x="9.54" y="0">o</tspan><tspan x="20.83" y="0">gs</tspan></text></g><path class="cls-19" d="M610.75,208.74a3.64,3.64,0,0,1-1.38,3,5.21,5.21,0,0,1-3.4,1.13,4.93,4.93,0,0,1-3.16-1.05,4.77,4.77,0,0,1-1.87-2.84l1.79-.73a2.89,2.89,0,0,0,.48,1.14,4.59,4.59,0,0,0,.81.89,2.43,2.43,0,0,0,1,.57,2.6,2.6,0,0,0,1.13.24,3,3,0,0,0,2-.65,2.29,2.29,0,0,0,.81-1.7,2.18,2.18,0,0,0-.65-1.54A6.6,6.6,0,0,0,606,206c-1.14-.4-1.87-.73-2.19-.81a3.64,3.64,0,0,1-2.27-3.48,3.72,3.72,0,0,1,1.3-2.76,5.16,5.16,0,0,1,6-.32,3.59,3.59,0,0,1,1.62,2l-1.7.73a2.81,2.81,0,0,0-1-1.38,3,3,0,0,0-3.56.09,1.71,1.71,0,0,0-.73,1.45,1.62,1.62,0,0,0,.56,1.3,10.93,10.93,0,0,0,2.76,1.3,7.42,7.42,0,0,1,3.16,1.86A5.72,5.72,0,0,1,610.75,208.74Z"/><path class="cls-19" d="M612.7,202.82h1.78v1.38h.08a3.78,3.78,0,0,1,1.3-1.22,3.58,3.58,0,0,1,1.86-.48,3.49,3.49,0,0,1,2.76,1.05,4.25,4.25,0,0,1,1,2.92v6.16h-1.86v-6.08c-.08-1.62-.81-2.43-2.43-2.43a2.43,2.43,0,0,0-1.87.89,3.09,3.09,0,0,0-.73,2.11v5.43H612.7v-9.73Z"/><path class="cls-19" d="M627.13,202.42a4.44,4.44,0,0,1,3.24,1.13,3.81,3.81,0,0,1,1.14,3v6.08h-1.79v-1.38h-.08a3.56,3.56,0,0,1-3.08,1.71,4,4,0,0,1-2.76-1,3.31,3.31,0,0,1-1.13-2.43,2.85,2.85,0,0,1,1.13-2.43,4.63,4.63,0,0,1,3.09-.89,4.75,4.75,0,0,1,2.75.65v-.49a1.88,1.88,0,0,0-.81-1.62,2.42,2.42,0,0,0-1.78-.65,3,3,0,0,0-2.43,1.3l-1.63-1A5.29,5.29,0,0,1,627.13,202.42Zm-2.27,7.13a1.43,1.43,0,0,0,.65,1.22,2.27,2.27,0,0,0,1.46.48,2.84,2.84,0,0,0,2-.81,2.6,2.6,0,0,0,.89-2,3.66,3.66,0,0,0-2.43-.65,3,3,0,0,0-1.86.56A1.34,1.34,0,0,0,624.86,209.55Z"/><path class="cls-19" d="M638.8,213a4.08,4.08,0,0,1-1.94-.49,3.27,3.27,0,0,1-1.38-1.22h-.08l.08,1.38V217h-1.87V202.82h1.79v1.38h.08a3.34,3.34,0,0,1,1.38-1.22,4.35,4.35,0,0,1,5.27,1.06,5.57,5.57,0,0,1,1.37,3.73,5.3,5.3,0,0,1-1.37,3.73A4.54,4.54,0,0,1,638.8,213Zm-.24-1.71a3.06,3.06,0,0,0,2.27-1,4.23,4.23,0,0,0,0-5.19,3,3,0,0,0-4.22-.24l-.24.24a3.75,3.75,0,0,0-.89,2.6,3.4,3.4,0,0,0,.89,2.59,2.67,2.67,0,0,0,2.19,1Z"/><path class="cls-19" d="M650.07,213a4.73,4.73,0,0,1-2-.49,3.3,3.3,0,0,1-1.37-1.22h-.08l.08,1.38V217H644.8V202.82h1.79v1.38h.08A3.37,3.37,0,0,1,648,203a4.35,4.35,0,0,1,5.27,1.06,5.53,5.53,0,0,1,1.38,3.73,5.31,5.31,0,0,1-1.38,3.73A4.22,4.22,0,0,1,650.07,213Zm-.24-1.71a3.06,3.06,0,0,0,2.27-1,4.23,4.23,0,0,0,0-5.19,2.94,2.94,0,0,0-2.27-1,3.06,3.06,0,0,0-2.27,1,3.75,3.75,0,0,0-.89,2.6,3.4,3.4,0,0,0,.89,2.59,2.94,2.94,0,0,0,2.27,1Z"/><path class="cls-19" d="M664.91,202.82l-6.16,14.11h-1.87l2.27-5L655,202.74h2l2.92,7H660l2.84-7h2Z"/><path class="cls-23" d="M666,198.53l9.73-.17v3.25h-6.49V204H675l-.16,3.16-5.52.08V213H666Z"/><path class="cls-23" d="M677.39,213V198.53h3.24V213Z"/><path class="cls-23" d="M687.12,202.5a4.73,4.73,0,0,1,2.11.4,7.55,7.55,0,0,1,1.7,1.06,4.46,4.46,0,0,1,1.05,1.7,6.21,6.21,0,0,1,0,4.21,7.22,7.22,0,0,1-1.05,1.71,4.09,4.09,0,0,1-1.7,1,6.24,6.24,0,0,1-4.22,0,5.09,5.09,0,0,1-2.75-2.76,6.21,6.21,0,0,1,0-4.21A4.85,4.85,0,0,1,685,202.9,6.18,6.18,0,0,1,687.12,202.5Zm0,8a4.1,4.1,0,0,0,1-.16,2.43,2.43,0,0,0,1.38-1.46,3.92,3.92,0,0,0,0-2.35,3,3,0,0,0-1.38-1.46,3,3,0,0,0-1.94,0,1.47,1.47,0,0,0-.81.57,2,2,0,0,0-.57.89,3.92,3.92,0,0,0,0,2.35,2,2,0,0,0,.57.89,1.75,1.75,0,0,0,.81.57,1.91,1.91,0,0,0,1,.16Z"/><path class="cls-23" d="M692.88,203.23h2.91l1.63,6.08h.16l1.94-6.08h2.76l2,6.08h.16l1.62-6.08h2.92L705.77,213H703l-2-6.17h-.16L699,213H696.2Z"/><text class="cls-24" transform="translate(709.09 214.16)"> <tspan class="cls-25" x="4.93" y="0">P</tspan><tspan x="16.25" y="0">ortal</tspan><tspan class="cls-26" x="56.01" y="0">​</tspan></text><text class="cls-24" transform="translate(709.09 214.16)"> <tspan class="cls-25" x="4.93" y="0">P</tspan><tspan x="16.25" y="0">ortal</tspan><tspan class="cls-26" x="56.01" y="0">​</tspan></text></g></g></svg>