<svg width="90" height="55" viewBox="0 0 90 55" fill="none" xmlns="http://www.w3.org/2000/svg">
<g clip-path="url(#clip0_2807_8279)">
<path fill-rule="evenodd" clip-rule="evenodd" d="M26 8.92163V45.7436C26 49.5671 34.5069 52.6666 45 52.6666V8.92163H26Z" fill="#0072C6"/>
<path fill-rule="evenodd" clip-rule="evenodd" d="M44.7393 52.6667H44.9996C55.4926 52.6667 63.9996 49.5684 63.9996 45.745V8.92236H44.7393V52.6667Z" fill="#0072C6"/>
<path fill-rule="evenodd" clip-rule="evenodd" d="M64 8.9217C64 12.7445 55.4931 15.8434 45 15.8434C34.5069 15.8434 26 12.7445 26 8.9217C26 5.0989 34.5069 2 45 2C55.4931 2 64 5.0989 64 8.9217Z" fill="white"/>
<path fill-rule="evenodd" clip-rule="evenodd" d="M60.1153 8.52341C60.1153 11.0472 53.3482 13.0904 45.0002 13.0904C36.6522 13.0904 29.8838 11.0466 29.8838 8.52341C29.8838 6.00021 36.6522 3.95581 45.0002 3.95581C53.3482 3.95581 60.1153 6.00021 60.1153 8.52341Z" fill="#7FBA00"/>
<path fill-rule="evenodd" clip-rule="evenodd" d="M56.949 11.3145C58.9275 10.5424 60.1157 9.57596 60.1157 8.5278C60.1163 6.00143 53.3491 3.95703 44.9999 3.95703C36.6507 3.95703 29.8848 6.00143 29.8848 8.52336C29.8848 9.57343 31.0735 10.5405 33.0514 11.31C35.8166 10.2334 40.1346 9.5367 44.9999 9.5367C49.8652 9.5367 54.1832 10.2334 56.9484 11.31" fill="#B8D432"/>
<path fill-rule="evenodd" clip-rule="evenodd" d="M38.9658 34.4818C38.9913 34.9924 38.8919 35.5016 38.6761 35.9651C38.4603 36.4287 38.1348 36.8326 37.7276 37.1418C36.722 37.8229 35.5202 38.1541 34.3076 38.0842C33.2333 38.1212 32.1667 37.8898 31.2043 37.411V34.7168C32.0734 35.5009 33.2004 35.9382 34.3709 35.9454C34.8267 35.9737 35.2796 35.8556 35.6636 35.6085C35.8076 35.5092 35.9246 35.3756 36.0042 35.2199C36.0838 35.0641 36.1234 34.891 36.1196 34.7161C36.1193 34.5355 36.08 34.357 36.0042 34.1931C35.9284 34.0291 35.8181 33.8834 35.6807 33.7661C35.1329 33.3431 34.5328 32.9925 33.8953 32.723C32.0688 31.8604 31.1557 30.6831 31.1561 29.1909C31.1392 28.6939 31.2386 28.1997 31.4463 27.7478C31.654 27.2959 31.9643 26.8988 32.3525 26.5879C33.2632 25.8978 34.3881 25.5509 35.5293 25.6082C36.5209 25.5782 37.5092 25.7353 38.4426 26.0711V28.5861C37.6331 28.0248 36.6682 27.7307 35.6832 27.745C35.2488 27.7213 34.8182 27.8373 34.4545 28.0763C34.3116 28.1749 34.1955 28.3077 34.1168 28.4625C34.0381 28.6173 33.9992 28.7893 34.0036 28.9629C33.9973 29.1358 34.0264 29.3082 34.089 29.4695C34.1516 29.6307 34.2465 29.7775 34.3678 29.9009C34.8175 30.2748 35.3204 30.5796 35.8599 30.8053C36.7579 31.1832 37.5724 31.7348 38.2564 32.4285C38.7406 33.0005 38.9945 33.7322 38.9689 34.4812L38.9658 34.4818ZM51.8668 31.7585C51.8991 33.0551 51.5657 34.3347 50.9047 35.4508C50.285 36.4756 49.327 37.252 48.196 37.6459L51.6736 40.8842H48.1624L45.6791 38.0829C44.6608 38.0578 43.6672 37.7649 42.7981 37.2336C41.9471 36.7122 41.2603 35.9615 40.8164 35.0676C40.3437 34.1156 40.1049 33.0645 40.1197 32.0017C40.0988 30.8426 40.3582 29.6956 40.8759 28.6583C41.3485 27.7131 42.0885 26.9277 43.0039 26.3998C43.9631 25.8613 45.0486 25.5884 46.1484 25.6094C47.1874 25.5928 48.2115 25.8574 49.1124 26.3751C49.9869 26.8876 50.6928 27.6441 51.1435 28.5519C51.6384 29.5466 51.8869 30.6457 51.868 31.7566L51.8668 31.7585ZM49.0244 31.9105C49.0813 30.8834 48.8025 29.8658 48.2302 29.0111C47.9834 28.6684 47.6558 28.3919 47.2765 28.2062C46.8972 28.0205 46.478 27.9312 46.0559 27.9464C45.6231 27.9326 45.1933 28.0223 44.802 28.2079C44.4108 28.3935 44.0695 28.6697 43.8063 29.0136C43.2081 29.8369 42.9101 30.8403 42.9621 31.8566C42.9094 32.8643 43.2008 33.8599 43.7886 34.68C44.0441 35.0189 44.3771 35.2916 44.7597 35.4752C45.1423 35.6588 45.5634 35.7479 45.9875 35.7352C46.4114 35.7516 46.8331 35.6676 47.2183 35.4901C47.6035 35.3125 47.9414 35.0465 48.2042 34.7136C48.793 33.9018 49.0838 32.9117 49.0275 31.9105H49.0244ZM60.9899 37.8727H53.8491V25.8134H56.5496V35.668H60.9893L60.9899 37.8727Z" fill="white"/>
</g>
<defs>
<clipPath id="clip0_2807_8279">
<rect width="38" height="50.6667" fill="white" transform="translate(26 2)"/>
</clipPath>
</defs>
</svg>
