<svg width="90" height="55" viewBox="0 0 90 55" fill="none" xmlns="http://www.w3.org/2000/svg">
<path d="M54.7467 43C53.968 43 53.676 42.6136 53.7733 41.9375L58.932 13.0625C59.0293 12.3864 59.4187 12 60.1973 12H71.0987C78.3987 12 82 14.2216 82 18.7614C82 20.5937 81.5133 22.2357 80.54 23.591C79.5667 25.0399 78.204 26.0058 76.452 26.5824C77.62 26.8722 78.6907 27.5483 79.372 28.6108C80.1507 29.5767 80.54 30.929 80.54 32.4745C80.54 36.142 79.2747 38.753 76.744 40.4886C74.2133 42.1307 70.8067 43 66.6213 43H54.7467ZM66.816 37.9772C71.8773 37.9772 74.408 36.142 74.408 32.4745C74.408 31.3154 73.9213 30.5426 73.0453 29.9631C72.1693 29.3835 70.612 29.1904 68.568 29.1904H62.2413L60.684 37.8836H66.816V37.9772V37.9772ZM69.152 24.7471C73.6293 24.7471 75.7707 23.1051 75.7707 19.7274C75.7707 18.6648 75.3813 17.9887 74.5053 17.5057C73.6293 17.0228 72.2667 16.8296 70.4173 16.8296H64.3827L62.9227 24.7471H69.152V24.7471ZM48.2253 23.9744C48.2253 23.4877 48.0305 23.0208 47.6837 22.6767C47.3369 22.3325 46.8665 22.1391 46.376 22.1391H10.8493C10.3589 22.1391 9.88847 22.3325 9.54166 22.6767C9.19484 23.0208 9 23.4877 9 23.9744C9 24.4611 9.19484 24.9279 9.54166 25.2721C9.88847 25.6163 10.3589 25.8096 10.8493 25.8096H46.2787C47.3493 25.8096 48.2253 25.0369 48.2253 23.9744V23.9744ZM52.3133 17.4092C52.3133 16.9224 52.1185 16.4556 51.7717 16.1114C51.4249 15.7673 50.9545 15.5739 50.464 15.5739H28.6613C28.4185 15.5739 28.178 15.6214 27.9536 15.7136C27.7293 15.8058 27.5254 15.941 27.3537 16.1114C27.1819 16.2819 27.0457 16.4842 26.9528 16.7068C26.8598 16.9295 26.812 17.1681 26.812 17.4092C26.812 17.6502 26.8598 17.8888 26.9528 18.1115C27.0457 18.3341 27.1819 18.5365 27.3537 18.7069C27.5254 18.8773 27.7293 19.0125 27.9536 19.1047C28.178 19.1969 28.4185 19.2444 28.6613 19.2444H50.464C51.4373 19.2444 52.3133 18.4717 52.3133 17.4092V17.4092ZM44.8187 37.4943C44.8187 37.0075 44.6238 36.5407 44.277 36.1965C43.9302 35.8524 43.4598 35.659 42.9693 35.659H34.112C33.6215 35.659 33.1511 35.8524 32.8043 36.1965C32.4575 36.5407 32.2627 37.0075 32.2627 37.4943C32.2627 37.981 32.4575 38.4478 32.8043 38.792C33.1511 39.1361 33.6215 39.3295 34.112 39.3295H42.9693C43.9427 39.3295 44.8187 38.5568 44.8187 37.4943V37.4943ZM42.1907 30.6392C42.1907 30.1525 41.9958 29.6857 41.649 29.3415C41.3022 28.9973 40.8318 28.804 40.3413 28.804H18.7333C18.2429 28.804 17.7725 28.9973 17.4257 29.3415C17.0788 29.6857 16.884 30.1525 16.884 30.6392C16.884 31.126 17.0788 31.5928 17.4257 31.937C17.7725 32.2811 18.2429 32.4745 18.7333 32.4745H40.3413C40.8265 32.4579 41.2873 32.2593 41.6305 31.9186C41.9738 31.578 42.174 31.1207 42.1907 30.6392V30.6392Z" fill="black"/>
</svg>
