<svg xmlns="http://www.w3.org/2000/svg" xmlns:xlink="http://www.w3.org/1999/xlink" width="90" height="55" viewBox="0 0 90 55">
  <defs>
    <clipPath id="clip-c-sharp-net">
      <rect width="90" height="55"/>
    </clipPath>
  </defs>
  <g id="c-sharp-net" clip-path="url(#clip-c-sharp-net)">
    <rect width="90" height="55" fill="#fff"/>
    <g id="Group_61" data-name="Group 61" transform="translate(-676.091 -317.203)">
      <path id="Path_1807" data-name="Path 1807" d="M746.024,333.373a4.852,4.852,0,0,0-.6-2.443,4.666,4.666,0,0,0-1.77-1.725q-9.772-5.635-19.548-11.262a4.8,4.8,0,0,0-5.2.051c-2.593,1.529-15.575,8.967-19.444,11.208a4.519,4.519,0,0,0-2.369,4.169q0,11.331,0,22.663a4.876,4.876,0,0,0,.572,2.4,4.656,4.656,0,0,0,1.8,1.772c3.869,2.241,16.853,9.678,19.446,11.208a4.8,4.8,0,0,0,5.2.051q9.769-5.64,19.55-11.261a4.656,4.656,0,0,0,1.8-1.772,4.879,4.879,0,0,0,.572-2.4s0-15.1,0-22.659" fill="#a179dc"/>
      <path id="Path_1808" data-name="Path 1808" d="M722.192,371.38l-23.971,13.8a4.655,4.655,0,0,0,1.8,1.772c3.869,2.241,16.853,9.678,19.446,11.208a4.8,4.8,0,0,0,5.2.051q9.769-5.64,19.55-11.261a4.655,4.655,0,0,0,1.8-1.772l-23.821-13.8" transform="translate(-0.558 -26.751)" fill="#280068"/>
      <path id="Path_1809" data-name="Path 1809" d="M769.963,346.762a4.85,4.85,0,0,0-.6-2.443l-23.792,13.7,23.821,13.8a4.885,4.885,0,0,0,.572-2.4s0-15.105,0-22.659" transform="translate(-23.939 -13.389)" fill="#390091"/>
      <path id="Path_1810" data-name="Path 1810" d="M769.677,361.188v2.58h2.58v-2.58h1.29v2.58h2.58v1.29h-2.58v2.58h2.58v1.29h-2.58v2.58h-1.29v-2.58h-2.58v2.58h-1.29v-2.58h-2.58v-1.29h2.58v-2.58h-2.58v-1.29h2.58v-2.58Zm2.58,3.87h-2.58v2.58h2.58Z" transform="translate(-33.93 -21.718)" fill="#fff"/>
      <path id="Path_1811" data-name="Path 1811" d="M727.935,335.6a18.183,18.183,0,0,1,15.751,9.086l-.031-.053-7.917,4.559a9.052,9.052,0,0,0-7.7-4.46h-.1a9.058,9.058,0,1,0,7.893,13.5l-.037.066,7.9,4.579a18.184,18.184,0,0,1-15.557,9.1h-.2a18.189,18.189,0,1,1,0-36.379Z" transform="translate(-6.248 -9.081)" fill="#fff"/>
    </g>
  </g>
</svg>
