<svg id="Layer_1" data-name="Layer 1" xmlns="http://www.w3.org/2000/svg" width="90" height="55" viewBox="0 0 90 55"><defs><style>.cls-1{fill:#bbe6fb;}.cls-2{fill:#fff;}.cls-3{fill:#373535;}.cls-4{fill:#1287b1;}</style></defs><g id="cassandra"><path id="Path_146" data-name="Path 146" class="cls-1" d="M69,20.53c.6,6.86-10.21,13.41-24.15,14.6S19.13,31.71,18.53,24.85s10.22-13.41,24.15-14.6S68.37,13.64,69,20.53"/><path id="Path_147" data-name="Path 147" class="cls-2" d="M43.06,11c-5.32-.1-11.53,2-16.16,4a13.69,13.69,0,0,0-.76,4.39c0,8.14,7.37,14.75,16.45,14.75s16.48-6.57,16.48-14.75a13.65,13.65,0,0,0-2-7.11,108.92,108.92,0,0,0-14-1.29"/><path id="Path_148" data-name="Path 148" class="cls-2" d="M42.62,11c-2.94-.19-8,1.34-12.25,2.88a12.23,12.23,0,0,0-1,4.92c0,7.14,6.49,12.93,13.32,12.93S55.5,26,56,18.84a11,11,0,0,0-1.75-6.39c-4.36-.75-9-1.22-11.62-1.41"/><path id="Path_149" data-name="Path 149" class="cls-3" d="M35.07,17.93a8.36,8.36,0,0,1,1.44-1.85,5,5,0,0,1-.19-.85,1.44,1.44,0,0,1,1.44-1.44h0a1.61,1.61,0,0,1,.54.09A10.55,10.55,0,0,1,47.07,12c.28.07.56.16.84.22a12.53,12.53,0,0,0-9.11,2.63,3.92,3.92,0,0,1,.28.88c0,.81-.53,1-1.32,1a1.6,1.6,0,0,1-.53-.09,13.91,13.91,0,0,0-1.53,3,11.62,11.62,0,0,0,4.1,2.23c0-.07.06-.16.06-.22a4.54,4.54,0,0,1,4.54-4.39,4.38,4.38,0,0,1,4.33,3.65,10.08,10.08,0,0,0,2.91-2.23,2.52,2.52,0,0,1-.37-1.19,1.32,1.32,0,0,1,1.32-1.31.82.82,0,0,1,.31,0,11.71,11.71,0,0,0,.91-2.63C50,10.73,42.69,11.13,42.69,11.13s-5.83-.31-9.78,1.63a12,12,0,0,0,2.16,5.17"/><path id="Path_150" data-name="Path 150" class="cls-3" d="M53.17,16.84a2.17,2.17,0,0,1,.54.66c.34.62-.35,1.22-1.1,1.22a.78.78,0,0,1-.22,0,14.24,14.24,0,0,1-3.54,3.76,10.7,10.7,0,0,1,5.26,2.31,15.64,15.64,0,0,0,1.88-7,5.06,5.06,0,0,0-2-4.08,13.62,13.62,0,0,1-.85,3.2M37.27,29c.65-1.82,2.25-3.2,3.79-4.42a7.67,7.67,0,0,1-.69-1.41,10.86,10.86,0,0,1-4.77-3s0,.1,0,.13a9.06,9.06,0,0,0-.15,3.2A1.92,1.92,0,0,1,37,25.36a3,3,0,0,1-.87,1.72A8.82,8.82,0,0,0,37.26,29"/><path id="Path_151" data-name="Path 151" class="cls-3" d="M37.14,30.49a14.29,14.29,0,0,1-1.82-3.29c-.09,0-.18,0-.28,0-1.06,0-2.16-.88-1.91-1.91a1.9,1.9,0,0,1,1.16-1.25A12.63,12.63,0,0,1,34.38,20c.07-.35.25-.5.35-.85A11.23,11.23,0,0,1,32.82,13v-.25c-2,1-3.45,2.54-3.45,5,0,5.42,3.13,10.74,7.77,12.81v0M48.57,23A4.41,4.41,0,0,1,44.44,26a4.21,4.21,0,0,1-2.7-.94,12.4,12.4,0,0,0-3.63,5.14,9,9,0,0,0,.91.94,16.53,16.53,0,0,0,3.72,0A13.1,13.1,0,0,0,54,25.35,11.89,11.89,0,0,0,48.57,23"/><path id="Path_152" data-name="Path 152" class="cls-4" d="M35,18.56a10.78,10.78,0,0,1,1.35-2.23,1.24,1.24,0,0,1-.1-.5,1.44,1.44,0,0,1,1.43-1.44h0a1.65,1.65,0,0,1,.54.09A10.55,10.55,0,0,1,47,12.57c.28.07.56.16.84.22A11.7,11.7,0,0,0,39,15.27a1.83,1.83,0,0,1,.13.56,1.44,1.44,0,0,1-1.43,1.44h0a1.65,1.65,0,0,1-.54-.09,9.54,9.54,0,0,0-1.31,2.41A10.88,10.88,0,0,0,40,22.38v-.22a4.39,4.39,0,0,1,8.71-.75,11.22,11.22,0,0,0,2.85-2.6,1.25,1.25,0,0,1-.31-.82,1.32,1.32,0,0,1,1.32-1.31.82.82,0,0,1,.31,0,11.71,11.71,0,0,0,.91-2.63C50,11.26,42.63,11.67,42.63,11.67s-5.83-.32-9.78,1.62A11.15,11.15,0,0,0,35,18.56"/><path id="Path_153" data-name="Path 153" class="cls-4" d="M53.37,17.05a1.3,1.3,0,0,1,.44,1,1.34,1.34,0,0,1-1.32,1.32.83.83,0,0,1-.22,0,10.4,10.4,0,0,1-3.2,3.2,10.49,10.49,0,0,1,5.14,2.32,13.31,13.31,0,0,0,1.69-6.49,5.06,5.06,0,0,0-2-4.07,10.26,10.26,0,0,1-.57,2.79M37.45,29.39a10.33,10.33,0,0,1,3.32-4.63,3.7,3.7,0,0,1-.53-1,11,11,0,0,1-4.77-3s0,.09,0,.13a9.05,9.05,0,0,0-.15,3.2,1.9,1.9,0,0,1,1.53,2.21,1.84,1.84,0,0,1-.59,1.07,10.42,10.42,0,0,0,1.22,2"/><path id="Path_154" data-name="Path 154" class="cls-4" d="M37.14,30.46a10.71,10.71,0,0,1-1.94-2.64c-.1,0-.19,0-.28,0A1.88,1.88,0,0,1,33,26v0a1.93,1.93,0,0,1,1.06-1.72,10.14,10.14,0,0,1,.19-3.6c.06-.34.19-.69.28-1a10.57,10.57,0,0,1-1.85-6v-.24c-2,1-3.44,2.53-3.44,5a13.3,13.3,0,0,0,7.86,12.15s0,0,0,0m11.31-6.83a4.43,4.43,0,0,1-4.14,2.95,4.24,4.24,0,0,1-2.69-.94A10.86,10.86,0,0,0,38.2,30.3c.32.35.66.66,1,1a13.11,13.11,0,0,0,3.35.44,13.33,13.33,0,0,0,11.2-6.07,10.53,10.53,0,0,0-5.3-2"/><path id="Path_155" data-name="Path 155" class="cls-2" d="M48.61,22.5l4-1-4.08-.22,3.33-2.5-3.76,1.34,2.53-3.54L47.13,19l1.23-4.13-2.42,3.41-.06-4.32-1.6,3.85L43,13.89,43,18.46l-2.29-4.1L42,18.72,38.27,16l2.91,3.67L36.55,18l3.63,2.69-4.67.16,4.79,1.22-4.79,1,4.73.34-4,2.54,4.1-1.47-2.85,3.6,3.6-2.92L39.83,30l2.79-3.95-.38,4.64,1.57-4.23,1.35,4.42.31-4.45,2,3.79-1.19-4.32,3.64,2.82-2.35-3.6,4,1.56-3.07-3,4.1.31Z"/><path id="Path_156" data-name="Path 156" d="M5.47,30.24C18,17.68,28.06,13.79,37.17,12c1.19-.22,1.44-2.88,1.44-2.88s.16,1.94,1,2.19,2-3,2-3-1,2.94,0,3.13,2.88-2.88,2.88-2.88-.75,2.6-.25,2.78,3-3.79,3-3.79-1.5,2.6-.1,2.89,3.54-1.79,3.54-1.79S49,10.5,49.76,10.79c3.13,1.1,5.64-2.95,5.64-2.95a13.87,13.87,0,0,1-2.1,3.73c3.29.85,5.73-4.1,5.73-4.1l-2.44,5c1.26.62,6.3-5.2,6.3-5.2s-2.6,4.54-4.13,5.48c.84.69,3.88-2,3.88-2s-2.44,3-1.5,3.2c1.34,1.09,6.32-5.64,6.32-5.64a33.91,33.91,0,0,1-4.79,7.08C65.05,16.52,71,8.84,71,8.84s-.15,2.45-4.48,6.33c3.2-.4,7.33-6.48,7.33-6.48a20.27,20.27,0,0,1-5.13,7.77c3.13-.32,8.17-8.08,8.17-8.08S75,13.76,71,16.9c4.39,1,10.72-5.58,10.72-5.58S79.24,16,76,17.86c3.64,1.38,8.62-4.34,8.62-4.34s-5,7.67-12.91,7.33c-2.6-.13-10.46-7.9-27.31-7.27-22.3.81-27,10.27-38.91,16.66"/><path id="Path_157" data-name="Path 157" class="cls-3" d="M6,29.3c12.56-12.56,22.59-16.45,31.7-18.2,1.19-.22,1.44-2.88,1.44-2.88s.16,1.94,1,2.19,1.94-3,1.94-3-1,3,0,3.14,2.89-2.89,2.89-2.89-.76,2.6-.26,2.79,3-3.79,3-3.79-1.5,2.6-.09,2.88,3.54-1.78,3.54-1.78-1.63,1.85-.91,2.13C53.4,10.94,55.9,6.9,55.9,6.9a13.87,13.87,0,0,1-2.1,3.73c3.29.85,5.74-4.1,5.74-4.1l-2.45,5c1.26.69,6.33-5.14,6.33-5.14s-2.6,4.54-4.13,5.48c.84.6,3.88-2.1,3.88-2.1s-2.44,3-1.5,3.2C63,14,68,7.28,68,7.28a34.89,34.89,0,0,1-4.83,7.08c2.38,1.19,8.36-6.49,8.36-6.49s-.15,2.45-4.48,6.33c3.2-.41,7.33-6.48,7.33-6.48a20.27,20.27,0,0,1-5.13,7.77c3.13-.32,8.17-8.09,8.17-8.09s-1.94,5.39-5.89,8.53c4.39,1,10.72-5.58,10.72-5.58S79.77,15,76.52,16.9c3.63,1.37,8.61-4.36,8.61-4.36s-5,7.67-12.9,7.33c-2.6-.13-10.47-7.9-27.32-7.27C22.6,13.45,17.87,22.88,6,29.3"/><path id="Path_158" data-name="Path 158" d="M5.16,31.62c6.64,3.32,12.71-.5,20.36,1.66,5.83,1.63,12.9,3.66,22.52,2.25S65.87,30,69.81,22.5c1.23-3.32,6.2.75,6.2.75s-3.63-1.5-3.54-.81,5.45,3.2,5.45,3.2-4.85-1.5-4.54-.38S79.46,31,79.46,31,72.85,26,72.32,26.7s2.79,3.42,2.79,3.42-5.52-3.42-7.46-2.41c-1.41.72,5.73,5.39,5.73,5.39s-4.63-3.54-5.73-2.6S72.88,39,72.88,39s-7.2-7.77-7.92-7.4,2,4.1,2,4.1-3.51-3.88-4.48-3.22,5.07,10.74,5.07,10.74S61,32.93,58.26,34.66c4.23,9.3,2.66,10.62,2.66,10.62s-.53-9.49-5.83-9.24c-2.66.12,1.26,7.08,1.26,7.08s-3.6-6.36-6-6.24c4.42,8.4,2.85,11.78,2.85,11.78s.72-7.17-5.26-11.15c2.28,2-1.44,11.15-1.44,11.15s3.25-13.44-2.42-10.87c-.9.41-.06,6.7-.06,6.7s-1.13-7.2-2.85-6.83c-1,.22-6.33,10-6.33,10s4.36-10.55,3-10.11c-1,.31-2.79,4.67-2.79,4.67s.88-4.3,0-4.55-5.83,4.55-5.83,4.55,3.67-4.3,3-5.2a2.51,2.51,0,0,0-3.41-.88c-1.95.75-4.55,4.29-4.55,4.29s2.6-3.6,2.16-4.92c-.72-2.16-8.2,4.17-8.2,4.17s4.41-4.17,3.41-5.08S15.18,34,13.49,34c-5.05.06-6.8-1.13-8.34-2.35"/><path id="Path_159" data-name="Path 159" class="cls-3" d="M4.87,30.87c6.65,3.32,12.72-.5,20.37,1.66,5.82,1.63,12.9,3.66,22.52,2.25s17.82-5.57,21.77-13c1.22-3.32,6.2.75,6.2.75s-3.63-1.5-3.54-.81,5.45,3.2,5.45,3.2-4.85-1.5-4.54-.38,6.08,5.7,6.08,5.7-6.55-5-7.08-4.29,2.79,3.42,2.79,3.42-5.52-3.42-7.46-2.42c-1.41.72,5.73,5.39,5.73,5.39s-4.63-3.54-5.73-2.6,5.23,8.52,5.23,8.52-7.17-7.77-7.89-7.39,2,4.1,2,4.1-3.57-3.85-4.54-3.2,5,10.74,5,10.74S60.69,32.15,58,33.87c4.26,9.33,2.66,10.65,2.66,10.65s-.53-9.49-5.82-9.24c-2.67.12,1.25,7.08,1.25,7.08s-3.57-6.33-6-6.2C54.52,44.56,53,47.94,53,47.94s.72-7.18-5.26-11.15c2.28,2-1.45,11.15-1.45,11.15s3.26-13.44-2.41-10.87c-.91.41-.06,6.7-.06,6.7s-1.13-7.2-2.85-6.83c-1,.22-6.33,10-6.33,10s4.35-10.55,3-10.12c-1,.32-2.79,4.67-2.79,4.67s.88-4.29,0-4.54S29,41.48,29,41.48s3.67-4.29,3-5.2a2.51,2.51,0,0,0-3.41-.87c-1.94.75-4.54,4.29-4.54,4.29s2.6-3.6,2.16-4.92C25.55,32.62,18.06,39,18.06,39s4.42-4.17,3.42-5.08-6.52-.63-8.21-.63c-5.11,0-6.86-1.16-8.4-2.38"/></g></svg>