<svg xmlns="http://www.w3.org/2000/svg" xmlns:xlink="http://www.w3.org/1999/xlink" width="90" height="55" viewBox="0 0 90 55">
  <defs>
    <clipPath id="clip-custom-metrics-using-statsd">
      <rect width="90" height="55"/>
    </clipPath>
  </defs>
  <g id="custom-metrics-using-statsd" clip-path="url(#clip-custom-metrics-using-statsd)">
    <rect width="90" height="55" fill="#fff"/>
    <g id="Layer_2" data-name="Layer 2" transform="translate(-1137.293 -555.375)">
      <g id="Layer_2-2" data-name="Layer 2-2" transform="translate(1154.293 555.375)">
        <path id="Path_2020" data-name="Path 2020" d="M1204.56,568.6c1.849-3.253,1.959-10.821,1.959-10.821l-8.432,4.166a26.65,26.65,0,0,0-31.273.1l-8.6-4.249s.127,7.865,2.086,11.008a26.666,26.666,0,1,0,44.257-.2Z" transform="translate(-1154.984 -556.072)" fill="#aededd"/>
        <path id="Path_2021" data-name="Path 2021" d="M1181.749,610.375a27.481,27.481,0,0,1-23.116-42.3c-1.816-3.517-1.943-10.65-1.943-10.964v-1.37l9.357,4.618a27.427,27.427,0,0,1,31.427-.066l9.219-4.552v1.37c0,.3-.127,7.155-1.838,10.749a27.486,27.486,0,0,1-23.078,42.517ZM1158.4,558.468c.127,2.345.55,7.034,1.893,9.191l.292.451-.292.451a25.83,25.83,0,0,0,7.181,35.816l.013.009a25.835,25.835,0,0,0,35.687-36.017l-.3-.418.253-.451c1.261-2.257,1.684-6.759,1.783-9.048l-7.617,3.759-.407-.314a25.742,25.742,0,0,0-30.271.083l-.413.3Z" transform="translate(-1154.293 -555.375)"/>
        <circle id="Ellipse_1" data-name="Ellipse 1" cx="9.224" cy="9.224" r="9.224" transform="translate(28.612 10.661)" fill="#fff"/>
        <circle id="Ellipse_2" data-name="Ellipse 2" cx="1.893" cy="1.893" r="1.893" transform="translate(35.8 18.064)" fill="#231f20"/>
        <path id="Path_2022" data-name="Path 2022" d="M1214.951,574.225a9.6,9.6,0,1,0,9.626,9.582,9.6,9.6,0,0,0-9.626-9.582Zm0,18.372a8.768,8.768,0,0,1-8.162-5.6h1.938v-.55h-2.146a8.253,8.253,0,0,1-.385-2.273h2.389v-.594h-2.4a8.85,8.85,0,0,1,.551-2.906l2.433.787.182-.55-2.328-.749a8.989,8.989,0,0,1,1.525-2.262l1.37,1.442.4-.4-1.42-1.469a8.73,8.73,0,0,1,1.712-1.288l1.442,1.5.4-.4-1.332-1.37a8.6,8.6,0,0,1,7.628,0l-1.354,1.4.4.4,1.453-1.514a8.869,8.869,0,0,1,1.723,1.288l-1.442,1.437.4.4,1.415-1.453a8.483,8.483,0,0,1,1.525,2.273l-2.416.776.171.55,2.455-.8a8.457,8.457,0,0,1,.55,2.934h-2.438v.55h2.455a8.755,8.755,0,0,1-.38,2.273h-2.235v.55h2.009a8.7,8.7,0,0,1-8.069,5.6Z" transform="translate(-1177.257 -563.85)" fill="#231f20"/>
        <path id="Path_2023" data-name="Path 2023" d="M1221.348,582.736l.9-7.221.661,7.177Z" transform="translate(-1184.442 -564.431)" fill="#ce2229"/>
        <circle id="Ellipse_3" data-name="Ellipse 3" cx="9.224" cy="9.224" r="9.224" transform="translate(7.907 10.661)" fill="#fff"/>
        <circle id="Ellipse_4" data-name="Ellipse 4" cx="1.893" cy="1.893" r="1.893" transform="translate(15.095 18.064)" fill="#231f20"/>
        <path id="Path_2024" data-name="Path 2024" d="M1177.312,574.225a9.6,9.6,0,1,0,9.6,9.6v-.022h0A9.61,9.61,0,0,0,1177.312,574.225Zm0,18.372a8.768,8.768,0,0,1-8.162-5.6h1.932v-.55h-2.146a8.458,8.458,0,0,1-.369-2.29h2.389v-.578h-2.389a8.857,8.857,0,0,1,.55-2.906l2.405.776.182-.55-2.334-.748a8.823,8.823,0,0,1,1.514-2.262l1.343,1.459.4-.4-1.371-1.425a8.508,8.508,0,0,1,1.717-1.3l1.442,1.5.391-.4-1.327-1.37a8.6,8.6,0,0,1,7.628,0l-1.343,1.382.4.4,1.453-1.508a8.847,8.847,0,0,1,1.717,1.3l-1.409,1.442.4.4,1.409-1.469a8.481,8.481,0,0,1,1.525,2.273l-2.411.776.165.55,2.46-.8a8.73,8.73,0,0,1,.55,2.934h-2.444v.55h2.46a8.976,8.976,0,0,1-.385,2.273h-2.218V587h2a8.773,8.773,0,0,1-8.118,5.576Z" transform="translate(-1160.325 -563.85)" fill="#231f20"/>
        <path id="Path_2025" data-name="Path 2025" d="M1183.718,582.736l.919-7.221.666,7.177Z" transform="translate(-1167.523 -564.431)" fill="#ce2229"/>
        <rect id="Rectangle_3" data-name="Rectangle 3" width="41.554" height="1.255" transform="translate(6.861 33.331)" fill="#231f20"/>
        <rect id="Rectangle_4" data-name="Rectangle 4" width="7.342" height="5.482" transform="translate(9.827 33.909)" fill="#fff"/>
        <path id="Path_2026" data-name="Path 2026" d="M1179.583,622.55h-8.465v-6.6h8.465Zm-7.348-1.1h6.23v-4.381h-6.23Z" transform="translate(-1161.858 -582.608)" fill="#231f20"/>
        <rect id="Rectangle_5" data-name="Rectangle 5" width="7.342" height="3.759" transform="translate(37.919 33.909)" fill="#fff"/>
        <path id="Path_2027" data-name="Path 2027" d="M1230.627,620.861h-8.459v-4.876h8.459Zm-7.342-1.1h6.225v-2.642h-6.225Z" transform="translate(-1184.81 -582.626)" fill="#231f20"/>
        <rect id="Rectangle_6" data-name="Rectangle 6" width="7.342" height="11.415" transform="translate(28.486 33.909)" fill="#fff"/>
        <path id="Path_2028" data-name="Path 2028" d="M1213.487,628.512h-8.459V615.985h8.459Zm-7.348-1.1h6.23V617.1h-6.23Z" transform="translate(-1177.104 -582.626)" fill="#231f20"/>
        <rect id="Rectangle_7" data-name="Rectangle 7" width="7.342" height="9.593" transform="translate(19.151 33.909)" fill="#fff"/>
        <path id="Path_2029" data-name="Path 2029" d="M1196.517,626.64h-8.459V615.935h8.459Zm-7.331-1.1h6.23v-8.487h-6.23v8.487Z" transform="translate(-1169.474 -582.604)" fill="#231f20"/>
      </g>
    </g>
  </g>
</svg>
