<svg xmlns="http://www.w3.org/2000/svg" xmlns:xlink="http://www.w3.org/1999/xlink" width="90" height="55" viewBox="0 0 90 55">
  <defs>
    <clipPath id="clip-generic-webhooks">
      <rect width="90" height="55"/>
    </clipPath>
  </defs>
  <g id="generic-webhooks" clip-path="url(#clip-generic-webhooks)">
    <rect width="90" height="55" fill="#fff"/>
    <g id="webhooks_1_" data-name="webhooks (1)" transform="translate(14.999 -0.973)">
      <path id="Path_2119" data-name="Path 2119" d="M55.519,24.026c-2.457,4.131-4.812,8.132-7.215,12.1a3.164,3.164,0,0,0-.43,3.145,5.884,5.884,0,0,1-4.169,8.008,6.008,6.008,0,0,1-7.4-4.99c-.6-3.226,1.9-6.388,5.462-6.892.3-.043.6-.047,1.1-.085l5.41-9.072C44.881,22.859,42.856,18.9,43.3,14a13.914,13.914,0,0,1,4.169-8.912,14.154,14.154,0,0,1,17.66-1.853,13.749,13.749,0,0,1,5.758,15.989l-4.943-1.341A9.373,9.373,0,0,0,63.954,9.32a8.554,8.554,0,0,0-5.355-2.8,8.711,8.711,0,0,0-9.515,6.165c-1.384,4.662.711,8.471,6.435,11.342Z" transform="translate(-27.831 0)" fill="#c73a63"/>
      <path id="Path_2120" data-name="Path 2120" d="M113.378,47.489l5.232,9.227c8.806-2.725,15.446,2.15,17.828,7.369a14.238,14.238,0,0,1-4.74,17.661,14.008,14.008,0,0,1-18.273-1.818l4.032-3.374c5.075,3.287,9.514,3.132,12.81-.76a8.832,8.832,0,0,0-.142-11.523c-3.337-3.752-7.807-3.866-13.21-.265-2.241-3.976-4.522-7.921-6.692-11.926a4.07,4.07,0,0,0-3.189-2.419,5.674,5.674,0,0,1-4.64-5.493,5.989,5.989,0,0,1,10.657-4.057,5.637,5.637,0,0,1,1.04,5.578c-.192.571-.441,1.124-.711,1.8Z" transform="translate(-78.671 -28.349)" fill="#4b4b4b"/>
      <path id="Path_2121" data-name="Path 2121" d="M38.845,132.842h-10.6a14.527,14.527,0,0,1-6.993,9.7,14.138,14.138,0,0,1-9.481,1.689A14.405,14.405,0,0,1,.037,131.344a14.259,14.259,0,0,1,10.927-14.891c.451,1.638.907,3.291,1.358,4.925-5.993,3.058-8.068,6.911-6.39,11.728a8.73,8.73,0,0,0,10.225,5.665c4.651-.918,7-4.783,6.71-10.986,4.409,0,8.822-.046,13.231.022,1.722.027,3.051-.151,4.348-1.67,2.136-2.5,6.066-2.272,8.366.087a6.01,6.01,0,1,1-8.686,8.307,20.737,20.737,0,0,1-1.282-1.69Z" transform="translate(0 -88.733)" fill="#4a4a4a"/>
    </g>
  </g>
</svg>
