<svg xmlns="http://www.w3.org/2000/svg" xmlns:xlink="http://www.w3.org/1999/xlink" width="90" height="55" viewBox="0 0 90 55">
  <defs>
    <radialGradient id="radial-gradient" cx="0.274" cy="0.704" r="0" gradientUnits="objectBoundingBox">
      <stop offset="0" stop-color="#fff" stop-opacity="0.102"/>
      <stop offset="1" stop-color="#fff" stop-opacity="0"/>
    </radialGradient>
    <clipPath id="clip-google-authentication">
      <rect width="90" height="55"/>
    </clipPath>
  </defs>
  <g id="google-authentication" clip-path="url(#clip-google-authentication)">
    <rect width="90" height="55" fill="#fff"/>
    <g id="google-authenticator-2" transform="translate(-8.706 -26.706)">
      <circle id="Ellipse_22" data-name="Ellipse 22" cx="27.5" cy="27.5" r="27.5" transform="translate(26.706 26.706)" fill="#616161"/>
      <path id="Path_2123" data-name="Path 2123" d="M54.466,71.944A17.478,17.478,0,1,1,66.825,42.108l7.062-7.062a27.464,27.464,0,1,0,0,38.845l-7.062-7.062A17.447,17.447,0,0,1,54.466,71.944Z" transform="translate(-0.26 -0.26)" fill="#9e9e9e"/>
      <path id="Path_2124" data-name="Path 2124" d="M899.318,881.84h-8.74a8.739,8.739,0,1,0-15.037,6.055l-.007.007,10.821,10.821,0,0a17.483,17.483,0,0,0,12.961-16.885Z" transform="translate(-827.634 -827.634)" fill="#424242"/>
      <path id="Path_2125" data-name="Path 2125" d="M1495.047,1268h-9.988a17.486,17.486,0,0,1-12.958,16.885l7.713,7.713A27.466,27.466,0,0,0,1495.047,1268Z" transform="translate(-1413.376 -1213.794)" fill="#616161"/>
      <path id="Path_2126" data-name="Path 2126" d="M54.466,1288.209A27.466,27.466,0,0,1,27,1260.9c0,.053,0,.1,0,.157a27.466,27.466,0,0,0,54.933,0c0-.053,0-.1,0-.157a27.468,27.468,0,0,1-27.464,27.309Z" transform="translate(-0.26 -1206.851)" fill="rgba(33,33,33,0.1)"/>
      <path id="Path_2127" data-name="Path 2127" d="M1472.2,1284.885l.243.244a17.481,17.481,0,0,0,12.715-16.816V1268a17.486,17.486,0,0,1-12.958,16.885Z" transform="translate(-1413.474 -1213.794)" fill="rgba(255,255,255,0.05)"/>
      <g id="Group_67" data-name="Group 67" transform="translate(51.709 51.709)">
        <path id="Path_2128" data-name="Path 2128" d="M943.67,918.7H921.2a2.5,2.5,0,1,0,0,4.993h22.471a2.5,2.5,0,0,0,0-4.993Z" transform="translate(-918.7 -918.7)" fill="#9e9e9e"/>
        <path id="Path_2129" data-name="Path 2129" d="M943.67,918.7H921.2a2.5,2.5,0,1,0,0,4.993h22.471a2.5,2.5,0,0,0,0-4.993Z" transform="translate(-918.7 -918.7)" fill="#bdbdbd" opacity="0.5"/>
      </g>
      <g id="Group_69" data-name="Group 69" transform="translate(26.706 26.706)">
        <g id="Group_68" data-name="Group 68" transform="translate(3.154 3.154)">
          <circle id="Ellipse_23" data-name="Ellipse 23" cx="1.872" cy="1.872" r="1.872" transform="translate(0 22.473)" fill="#bdbdbd"/>
          <circle id="Ellipse_24" data-name="Ellipse 24" cx="1.872" cy="1.872" r="1.872" transform="translate(22.473)" fill="#bdbdbd"/>
          <circle id="Ellipse_25" data-name="Ellipse 25" cx="1.872" cy="1.872" r="1.872" transform="translate(22.473 44.944)" fill="#bdbdbd"/>
          <circle id="Ellipse_26" data-name="Ellipse 26" cx="1.872" cy="1.872" r="1.872" transform="translate(6.556 6.582)" fill="#bdbdbd"/>
          <circle id="Ellipse_27" data-name="Ellipse 27" cx="1.872" cy="1.872" r="1.872" transform="translate(6.556 38.391)" fill="#bdbdbd"/>
        </g>
        <circle id="Ellipse_28" data-name="Ellipse 28" cx="1.872" cy="1.872" r="1.872" transform="translate(41.545 41.545)" fill="#757575"/>
        <path id="Path_2130" data-name="Path 2130" d="M1157.7,1155.512h22.471a2.492,2.492,0,0,1,2.488,2.342c0-.053.009-.1.009-.157a2.5,2.5,0,0,0-2.5-2.5H1157.7a2.5,2.5,0,0,0-2.5,2.5,1.234,1.234,0,0,0,.009.157A2.491,2.491,0,0,1,1157.7,1155.512Z" transform="translate(-1130.197 -1130.197)" fill="rgba(255,255,255,0.2)"/>
        <path id="Path_2131" data-name="Path 2131" d="M1182.655,1275a2.5,2.5,0,0,1-2.488,2.342H1157.7a2.492,2.492,0,0,1-2.488-2.342,1.221,1.221,0,0,0-.009.155,2.5,2.5,0,0,0,2.5,2.5h22.471a2.5,2.5,0,0,0,2.5-2.5A1.244,1.244,0,0,0,1182.655,1275Z" transform="translate(-1130.197 -1247.345)" fill="rgba(33,33,33,0.2)"/>
        <path id="Path_2132" data-name="Path 2132" d="M495.778,392.658a17.43,17.43,0,0,1,12.359,5.119l7.215-7.22-.155-.157-7.06,7.062A17.478,17.478,0,0,0,478.3,409.821c0,.053,0,.1,0,.157a17.476,17.476,0,0,1,17.476-17.321Z" transform="translate(-468.278 -382.323)" fill="rgba(33,33,33,0.1)"/>
        <circle id="Ellipse_29" data-name="Ellipse 29" cx="27.5" cy="27.5" r="27.5" transform="translate(0)" fill="url(#radial-gradient)"/>
      </g>
    </g>
  </g>
</svg>
