<svg xmlns="http://www.w3.org/2000/svg" xmlns:xlink="http://www.w3.org/1999/xlink" width="90" height="55" viewBox="0 0 90 55">
  <defs>
    <clipPath id="clip-ha-proxy">
      <rect width="90" height="55"/>
    </clipPath>
  </defs>
  <g id="ha-proxy" clip-path="url(#clip-ha-proxy)">
    <rect width="90" height="55" fill="#fff"/>
    <g id="A_4" data-name="A 4" transform="translate(-1754.451 -117.116)">
      <g id="Group_26" data-name="Group 26" transform="translate(1779.934 123.436)">
        <path id="Path_1752" data-name="Path 1752" d="M1825.919,154.345l-5.715-6.461" transform="translate(-1806.103 -140.297)" fill="none" stroke="#284a6a" stroke-linecap="round" stroke-linejoin="round" stroke-width="0.26"/>
        <path id="Path_1753" data-name="Path 1753" d="M1792.972,151.165l4.473,6.531" transform="translate(-1791.179 -142.095)" fill="none" stroke="#284a6a" stroke-linecap="round" stroke-linejoin="round" stroke-width="0.13"/>
        <g id="Group_24" data-name="Group 24" transform="translate(6.272 7.516)">
          <path id="Path_1754" data-name="Path 1754" d="M1822.08,147.728l-5.653,6.531m13.543,1.554-6.709,5.653m6.709,5.893-6.709-5.9m-6.833,7.021,5.715,6.336m-5.715-6.336-5.715,6.336m-1.368-13.357-6.461,5.653m6.462-5.655-6.461-5.653m0,0,13.544-1.553m13.544,1.553-13.544-1.553" transform="translate(-1802.883 -147.728)" fill="none" stroke="#284a6a" stroke-linecap="round" stroke-linejoin="round" stroke-width="0.26"/>
          <path id="Path_1755" data-name="Path 1755" d="M1845.353,147.728l1.182,13.73m-1.117,13.356,1.117-13.356" transform="translate(-1826.157 -147.728)" fill="none" stroke="#284a6a" stroke-linecap="round" stroke-linejoin="round" stroke-width="0.26"/>
          <path id="Path_1756" data-name="Path 1756" d="M1816.427,191.966l13.544-1.117m-13.542,1.117-13.544-1.375" transform="translate(-1802.884 -171.217)" fill="none" stroke="#284a6a" stroke-linecap="round" stroke-linejoin="round" stroke-width="0.26"/>
          <path id="Path_1757" data-name="Path 1757" d="M1817.162,161.535l1.375,13.356m-1.375-13.358,1.375-13.667" transform="translate(-1810.708 -147.804)" fill="none" stroke="#284a6a" stroke-linecap="round" stroke-linejoin="round" stroke-width="0.26"/>
        </g>
        <g id="Group_25" data-name="Group 25" transform="translate(0 0)">
          <path id="Path_1758" data-name="Path 1758" d="M1795.354,146.691l-6.213,1.74m14.048-9.753-6.531-4.66m6.523,4.66,1.491-7.579m9.876,7.516-9.876-7.516" transform="translate(-1789.08 -131.099)" fill="none" stroke="#284a6a" stroke-linecap="round" stroke-linejoin="round" stroke-width="0.13"/>
          <path id="Path_1759" data-name="Path 1759" d="M1831.57,138.615l-1.49-7.516m1.483,7.517,6.531-4.6m-6.524,4.6,12.364,1.553m0-.009-4.473,6.531m6.336,1.74-6.336-1.74m6.214,9.443-6.214-9.443m-19.258-8.013,9.877-7.579" transform="translate(-1806.102 -131.099)" fill="none" stroke="#284a6a" stroke-linecap="round" stroke-linejoin="round" stroke-width="0.13"/>
          <path id="Path_1760" data-name="Path 1760" d="M1859.769,137.558l1.375,12.673m6.214,9.443-6.214,2.112" transform="translate(-1827.785 -134.639)" fill="none" stroke="#284a6a" stroke-linecap="round" stroke-linejoin="round" stroke-width="0.13"/>
          <path id="Path_1761" data-name="Path 1761" d="M1859.657,169.445l-6.336,9.815m4.473,6.026-4.473-6.026m-1.375,12.176,1.375-12.176m-1.366,12.177-6.461-4.721" transform="translate(-1819.962 -152.113)" fill="none" stroke="#284a6a" stroke-linecap="round" stroke-linejoin="round" stroke-width="0.13"/>
          <path id="Path_1762" data-name="Path 1762" d="M1843.935,204.495l-12.3,1.429m-1.482,7.631,1.482-7.631m-9.94,7.631,9.94-7.631m-9.94,7.649-1.491-7.649" transform="translate(-1806.103 -171.321)" fill="none" stroke="#284a6a" stroke-linecap="round" stroke-linejoin="round" stroke-width="0.13"/>
          <path id="Path_1763" data-name="Path 1763" d="M1815.23,205.947l-9.949-7.631m-6.523,4.721,6.531-4.721m-12.317-1.368,12.317,1.368m-12.317-1.368,4.481-6.336" transform="translate(-1791.179 -163.713)" fill="none" stroke="#284a6a" stroke-linecap="round" stroke-linejoin="round" stroke-width="0.13"/>
          <path id="Path_1764" data-name="Path 1764" d="M1796.584,189.328l-1.3-12.425m-6.273-1.925,6.273,1.925m-6.273-1.926,6.273-9.381" transform="translate(-1789.006 -150.004)" fill="none" stroke="#284a6a" stroke-linecap="round" stroke-linejoin="round" stroke-width="0.13"/>
          <path id="Path_1765" data-name="Path 1765" d="M1789.139,151.973l6.213,9.567m0-11.305,1.3-12.673" transform="translate(-1789.079 -134.64)" fill="none" stroke="#284a6a" stroke-linecap="round" stroke-linejoin="round" stroke-width="0.13"/>
          <path id="Path_1766" data-name="Path 1766" d="M1792.972,149.357l12.3-1.491" transform="translate(-1791.179 -140.288)" fill="none" stroke="#284a6a" stroke-linecap="round" stroke-linejoin="round" stroke-width="0.13"/>
        </g>
      </g>
      <g id="Group_27" data-name="Group 27" transform="translate(1773.223 117.97)">
        <path id="Path_1767" data-name="Path 1767" d="M1795.189,129l4.783,2.236m-.371-5.218.371,5.218m-.371-5.218,8.386,2.3" transform="translate(-1785.683 -122.847)" fill="none" stroke="#24405d" stroke-linecap="round" stroke-linejoin="round" stroke-width="0.101"/>
        <path id="Path_1768" data-name="Path 1768" d="M1810.183,120.276l3.6,4.41m1.49-5.289-1.49,5.289m-3.6-4.41-4.41,7.33m9.5-8.209,6.9,5.289" transform="translate(-1791.483 -119.22)" fill="none" stroke="#24405d" stroke-linecap="round" stroke-linejoin="round" stroke-width="0.101"/>
        <path id="Path_1769" data-name="Path 1769" d="M1830.318,119l1.56,5.466m-1.56-5.466-6.834,5.465m12-4.411-3.6,4.411m3.6-4.41,4.42,7.329" transform="translate(-1801.189 -119.005)" fill="none" stroke="#24405d" stroke-linecap="round" stroke-linejoin="round" stroke-width="0.101"/>
        <path id="Path_1770" data-name="Path 1770" d="M1850.505,126.014l-.435,5.218m.433-5.219-8.448,2.3m12.913.435-4.9,2.485m8.511,1.3-8.511-1.3" transform="translate(-1811.367 -122.845)" fill="none" stroke="#24405d" stroke-linecap="round" stroke-linejoin="round" stroke-width="0.101"/>
        <path id="Path_1771" data-name="Path 1771" d="M1874.248,135.851l-2.671,4.845m-.932-8.635.932,8.635m5.591-.435-5.591.435m7.648,4.349-7.648-4.349" transform="translate(-1827.034 -126.16)" fill="none" stroke="#24405d" stroke-linecap="round" stroke-linejoin="round" stroke-width="0.101"/>
        <path id="Path_1772" data-name="Path 1772" d="M1880.405,150.2l-3.727,8.7m5.778-3.914-5.778,3.914m6.461,1.3-6.461-1.3m6.461,1.3-6.585,6.4" transform="translate(-1830.272 -136.102)" fill="none" stroke="#24405d" stroke-linecap="round" stroke-linejoin="round" stroke-width="0.101"/>
        <path id="Path_1773" data-name="Path 1773" d="M1881.217,175.906l-6.772,1.243m6.772-1.243-6.647-6.461M1880.223,181l-5.777-3.852m5.778,3.852-7.517,4.286" transform="translate(-1828.164 -146.647)" fill="none" stroke="#24405d" stroke-linecap="round" stroke-linejoin="round" stroke-width="0.101"/>
        <path id="Path_1774" data-name="Path 1774" d="M1877.052,195.185l-5.529-.559m5.529.559-3.781-8.7m.87,13.037-2.609-4.9m-.985,8.573.985-8.573" transform="translate(-1826.98 -155.987)" fill="none" stroke="#24405d" stroke-linecap="round" stroke-linejoin="round" stroke-width="0.101"/>
        <path id="Path_1775" data-name="Path 1775" d="M1854.43,216.592l4.845,2.424m-4.473,2.991-.373-5.414m8.448-1.243-8.448,1.243m-4.419,7.455,4.419-7.455" transform="translate(-1815.726 -171.803)" fill="none" stroke="#24405d" stroke-linecap="round" stroke-linejoin="round" stroke-width="0.101"/>
        <path id="Path_1776" data-name="Path 1776" d="M1837.3,229.076l-3.523-4.535m8.325,2.485-8.325-2.485m-1.632,5.591,1.632-5.591m-6.957,5.591,6.957-5.591" transform="translate(-1803.019 -176.84)" fill="none" stroke="#24405d" stroke-linecap="round" stroke-linejoin="round" stroke-width="0.101"/>
        <path id="Path_1777" data-name="Path 1777" d="M1815.277,226.6l-1.491-5.591m6.826,5.591-6.826-5.591m-3.54,4.535,3.54-4.535m-3.541,4.543-4.473-7.455" transform="translate(-1791.483 -173.31)" fill="none" stroke="#24405d" stroke-linecap="round" stroke-linejoin="round" stroke-width="0.101"/>
        <path id="Path_1778" data-name="Path 1778" d="M1798.324,216.238l8.448-2.609m-8.449,2.617.435-5.529m-4.845,2.671,4.845-2.671m-4.854,2.672-.932-8.759" transform="translate(-1784.468 -165.929)" fill="none" stroke="#24405d" stroke-linecap="round" stroke-linejoin="round" stroke-width="0.101"/>
        <path id="Path_1779" data-name="Path 1779" d="M1779.939,198.09l8.51,1.179m-8.518-1.189,2.733-4.9m-5.591.559,5.591-.559m-7.695-4.286,7.695,4.286m-7.695-4.286,5.9-3.976m-6.709-1.181,6.709,1.181" transform="translate(-1774.159 -154.48)" fill="none" stroke="#24405d" stroke-linecap="round" stroke-linejoin="round" stroke-width="0.101"/>
        <path id="Path_1780" data-name="Path 1780" d="M1777.087,185.908l3.781-8.821m-6.71-1.181,6.772-6.461" transform="translate(-1774.158 -146.647)" fill="none" stroke="#24405d" stroke-linecap="round" stroke-linejoin="round" stroke-width="0.101"/>
        <path id="Path_1781" data-name="Path 1781" d="M1774.16,166.079l6.709,6.337m-5.715-11.493,5.778,3.852" transform="translate(-1774.159 -141.977)" fill="none" stroke="#24405d" stroke-linecap="round" stroke-linejoin="round" stroke-width="0.101"/>
        <path id="Path_1782" data-name="Path 1782" d="M1774.158,160.2l6.772-1.3m-3.852-8.7,3.852,8.7" transform="translate(-1774.158 -136.102)" fill="none" stroke="#24405d" stroke-linecap="round" stroke-linejoin="round" stroke-width="0.101"/>
        <path id="Path_1783" data-name="Path 1783" d="M1778.277,140.561l5.591.435m-7.508,4.41,7.508-4.41m-2.664-4.6,2.664,4.6m.994-8.388-.994,8.388" transform="translate(-1775.365 -126.46)" fill="none" stroke="#24405d" stroke-linecap="round" stroke-linejoin="round" stroke-width="0.101"/>
        <path id="Path_1784" data-name="Path 1784" d="M1795.527,137.559l-8.449,1.554" transform="translate(-1781.238 -129.173)" fill="none" stroke="#24405d" stroke-linecap="round" stroke-linejoin="round" stroke-width="0.101"/>
      </g>
      <g id="Group_56" data-name="Group 56" transform="translate(1772.451 117.116)">
        <path id="Path_1785" data-name="Path 1785" d="M1816.357,168.654l.046-6.531-6.536-.046-.046,6.531Zm7.071-7.195.046-6.531-6.536-.046-.046,6.531Zm0,14.326.046-6.531-6.536-.046-.045,6.531Zm7.133-7.193.046-6.531-6.536-.046-.045,6.531Z" transform="translate(-1792.93 -137.812)" fill="#256ea5"/>
        <path id="Path_1786" data-name="Path 1786" d="M1821.6,147.287l.032-4.535-4.555-.032-.032,4.535Zm-11.387,0,.032-4.535-4.555-.032-.032,4.535Zm-7.882,8.078.032-4.535-4.555-.032-.032,4.535Zm-.007,11.408.047-4.535-4.553-.047-.048,4.535Zm27.156-.1.032-4.535-4.555-.032-.032,4.535Zm.09-11.259.047-4.535-4.553-.047-.047,4.535Z" transform="translate(-1786.324 -131.147)" fill="#3378bc"/>
        <path id="Path_1787" data-name="Path 1787" d="M1790.464,139.839l.02-2.982-2.976-.02-.021,2.982Zm5.817-6.069.021-2.982-2.976-.02-.021,2.982Zm8.01-3,.02-2.982-2.976-.021-.021,2.982Zm-15.6,17.329.021-2.982-2.956-.021-.021,2.982Zm34.871-8.244,2.982-.02-.02-2.976-2.982.021Zm-5.821-6.17,2.982-.021-.021-2.976-2.982.021Zm-8.035-2.927,2.982-.021-.02-2.976-2.982.021ZM1825.3,148.1l2.982-.021-.02-2.976-2.982.021Z" transform="translate(-1779.731 -122.949)" fill="#169bd6"/>
        <path id="Path_1788" data-name="Path 1788" d="M1819.633,207.476l.032-4.535-4.555-.032-.032,4.535Zm11.387,0,.032-4.535-4.555-.032-.031,4.535Z" transform="translate(-1795.812 -164.132)" fill="#3378bc"/>
        <path id="Path_1789" data-name="Path 1789" d="M1826.525,194.244l.02-2.982-2.976-.02-.021,2.982Zm-5.756,6.131.02-2.982-2.976-.02-.021,2.982Zm-8.01,2.939.021-2.982-2.976-.021-.021,2.982Zm15.517-17.328.02-2.982-2.976-.021-.021,2.982Zm-40.735,8.232,2.982-.021-.021-2.976-2.982.021Zm5.82,6.109,2.982-.021-.021-2.976-2.982.02Zm7.971,2.926,2.982-.021-.021-2.976-2.982.02Zm-15.527-17.285,2.982-.02-.021-2.976-2.982.02Z" transform="translate(-1779.758 -153.205)" fill="#169bd6"/>
        <g id="Group_55" data-name="Group 55">
          <g id="Group_28" data-name="Group 28" transform="translate(50.047 14.139)">
            <path id="C" d="M1883.178,150.012l.011-1.615,1.646.011-.011,1.615Z" transform="translate(-1883.178 -148.397)" fill="#00a8da"/>
          </g>
          <g id="Group_29" data-name="Group 29" transform="translate(52.173 19.018)">
            <path id="C-2" data-name="C" d="M1887.882,160.808l.011-1.615,1.646.011-.011,1.616Z" transform="translate(-1887.882 -159.193)" fill="#00a8da"/>
          </g>
          <g id="Group_30" data-name="Group 30" transform="translate(47.17 9.821)">
            <path id="C-3" data-name="C" d="M1876.812,140.46l.011-1.615,1.646.011-.011,1.616Z" transform="translate(-1876.812 -138.845)" fill="#00a8da"/>
          </g>
          <g id="Group_31" data-name="Group 31" transform="translate(9.447 6.13)">
            <path id="C-4" data-name="C" d="M1793.352,132.294l.011-1.615,1.647.011-.011,1.616Z" transform="translate(-1793.352 -130.679)" fill="#00a8da"/>
          </g>
          <g id="Group_32" data-name="Group 32" transform="translate(0 24.146)">
            <path id="C-5" data-name="C" d="M1772.451,172.153l.011-1.615,1.647.011-.011,1.615Z" transform="translate(-1772.451 -170.538)" fill="#00a8da"/>
          </g>
          <g id="Group_33" data-name="Group 33" transform="translate(43.542 6.131)">
            <path id="C-6" data-name="C" d="M1868.785,132.3l.011-1.616,1.647.011-.011,1.616Z" transform="translate(-1868.785 -130.68)" fill="#00a8da"/>
          </g>
          <g id="Group_34" data-name="Group 34" transform="translate(0.939 19.016)">
            <path id="C-7" data-name="C" d="M1774.529,160.8l.011-1.615,1.647.011-.011,1.615Z" transform="translate(-1774.529 -159.189)" fill="#00a8da"/>
          </g>
          <g id="Group_35" data-name="Group 35" transform="translate(18.704 1.126)">
            <path id="C-8" data-name="C" d="M1813.833,121.223l.011-1.616,1.646.011-.011,1.615Z" transform="translate(-1813.833 -119.607)" fill="#00a8da"/>
          </g>
          <g id="Group_36" data-name="Group 36" transform="translate(2.94 14.137)">
            <path id="C-9" data-name="C" d="M1778.955,150.009l.011-1.616,1.646.011-.011,1.615Z" transform="translate(-1778.955 -148.393)" fill="#00a8da"/>
          </g>
          <g id="Group_37" data-name="Group 37" transform="translate(5.881 9.759)">
            <path id="C-10" data-name="C" d="M1785.462,140.323l.011-1.615,1.647.011-.011,1.615Z" transform="translate(-1785.462 -138.708)" fill="#00a8da"/>
          </g>
          <path id="Path_1790" data-name="Path 1790" d="M1803.117,121.99l1.615-.011-.011-1.647-1.615.011Zm9.979-3.176,1.615-.011-.011-1.647-1.615.011Z" transform="translate(-1789.25 -117.138)" fill="#00a8da"/>
          <g id="Group_38" data-name="Group 38" transform="translate(39.161 3.253)">
            <path id="C-11" data-name="C" d="M1859.094,125.928l.011-1.615,1.646.011-.011,1.615Z" transform="translate(-1859.094 -124.313)" fill="#00a8da"/>
          </g>
          <g id="Group_39" data-name="Group 39" transform="translate(52.988 24.085)">
            <path id="C-12" data-name="C" d="M1889.684,172.018l.011-1.615,1.647.011-.011,1.615Z" transform="translate(-1889.684 -170.403)" fill="#00a8da"/>
          </g>
          <path id="Path_1791" data-name="Path 1791" d="M1836.811,118.732l.011-1.616,1.646.011-.011,1.616Z" transform="translate(-1807.721 -117.116)" fill="#00a8da"/>
          <g id="Group_40" data-name="Group 40" transform="translate(34.22 1.063)">
            <path id="C-13" data-name="C" d="M1848.161,121.084l.011-1.616,1.646.011-.011,1.616Z" transform="translate(-1848.161 -119.468)" fill="#00a8da"/>
          </g>
          <g id="Group_41" data-name="Group 41" transform="translate(43.54 47.294)">
            <path id="C-14" data-name="C" d="M1868.781,223.367l.011-1.615,1.647.011-.011,1.616Z" transform="translate(-1868.781 -221.752)" fill="#00a8da"/>
          </g>
          <g id="Group_42" data-name="Group 42" transform="translate(52.988 29.277)">
            <path id="C-15" data-name="C" d="M1889.684,183.506l.011-1.615,1.647.011-.011,1.616Z" transform="translate(-1889.684 -181.891)" fill="#00a8da"/>
          </g>
          <g id="Group_43" data-name="Group 43" transform="translate(9.445 47.293)">
            <path id="C-16" data-name="C" d="M1793.348,223.365l.011-1.615,1.646.011-.011,1.616Z" transform="translate(-1793.348 -221.75)" fill="#00a8da"/>
          </g>
          <g id="Group_44" data-name="Group 44" transform="translate(52.173 34.478)">
            <path id="C-17" data-name="C" d="M1887.882,195.013l.011-1.616,1.646.011-.011,1.616Z" transform="translate(-1887.882 -193.397)" fill="#00a8da"/>
          </g>
          <g id="Group_45" data-name="Group 45" transform="translate(34.218 52.362)">
            <path id="C-18" data-name="C" d="M1848.158,234.579l.011-1.615,1.646.011-.011,1.616Z" transform="translate(-1848.158 -232.964)" fill="#00a8da"/>
          </g>
          <g id="Group_46" data-name="Group 46" transform="translate(50.046 39.349)">
            <path id="C-19" data-name="C" d="M1883.176,205.789l.011-1.615,1.646.011-.011,1.615Z" transform="translate(-1883.176 -204.174)" fill="#00a8da"/>
          </g>
          <g id="Group_47" data-name="Group 47" transform="translate(47.169 43.728)">
            <path id="C-20" data-name="C" d="M1876.81,215.479l.011-1.616,1.646.011-.011,1.615Z" transform="translate(-1876.81 -213.863)" fill="#00a8da"/>
          </g>
          <path id="Path_1792" data-name="Path 1792" d="M1846.933,230.041l1.616-.011-.011-1.647-1.615.011Zm-9.919,3.051,1.616-.011-.011-1.647-1.615.011Z" transform="translate(-1807.826 -178.092)" fill="#00a8da"/>
          <g id="Group_48" data-name="Group 48" transform="translate(13.887 50.359)">
            <path id="C-21" data-name="C" d="M1803.176,230.149l.011-1.615,1.647.011-.011,1.616Z" transform="translate(-1803.176 -228.534)" fill="#00a8da"/>
          </g>
          <g id="Group_49" data-name="Group 49" transform="translate(2.877 39.285)">
            <path id="C-22" data-name="C" d="M1778.817,205.649l.011-1.616,1.647.011-.011,1.615Z" transform="translate(-1778.817 -204.033)" fill="#00a8da"/>
          </g>
          <g id="Group_50" data-name="Group 50" transform="translate(0.937 34.469)">
            <path id="C-23" data-name="C" d="M1774.525,194.994l.011-1.616,1.647.011-.011,1.616Z" transform="translate(-1774.525 -193.378)" fill="#00a8da"/>
          </g>
          <g id="Group_51" data-name="Group 51" transform="translate(5.816 43.727)">
            <path id="C-24" data-name="C" d="M1785.319,215.475l.011-1.616,1.646.011-.011,1.615Z" transform="translate(-1785.319 -213.859)" fill="#00a8da"/>
          </g>
          <g id="Group_52" data-name="Group 52" transform="translate(0 29.277)">
            <path id="C-25" data-name="C" d="M1772.451,183.5l.011-1.615,1.647.011-.011,1.616Z" transform="translate(-1772.451 -181.889)" fill="#00a8da"/>
          </g>
          <g id="Group_53" data-name="Group 53" transform="translate(23.897 53.362)">
            <path id="C-26" data-name="C" d="M1825.321,236.792l.011-1.615,1.647.011-.011,1.615Z" transform="translate(-1825.321 -235.177)" fill="#00a8da"/>
          </g>
          <g id="Group_54" data-name="Group 54" transform="translate(18.642 52.298)">
            <path id="C-27" data-name="C" d="M1813.7,234.438l.011-1.615,1.647.011-.011,1.615Z" transform="translate(-1813.696 -232.823)" fill="#00a8da"/>
          </g>
        </g>
      </g>
    </g>
  </g>
</svg>
