<svg xmlns="http://www.w3.org/2000/svg" xmlns:xlink="http://www.w3.org/1999/xlink" width="90" height="55" viewBox="0 0 90 55">
  <defs>
    <clipPath id="clip-jaeger-for-opentracing">
      <rect width="90" height="55"/>
    </clipPath>
  </defs>
  <g id="jaeger-for-opentracing" clip-path="url(#clip-jaeger-for-opentracing)">
    <rect width="90" height="55" fill="#fff"/>
    <g id="jaeger-icon-reverse-color" transform="translate(-18.716 -9.565)">
      <g id="Group_66" data-name="Group 66" transform="translate(43.78 25.055)">
        <path id="Path_2030" data-name="Path 2030" d="M242.307,197.576a4.678,4.678,0,1,0,2.241,4A4.7,4.7,0,0,0,242.307,197.576Z" transform="translate(-217.248 -191.291)" fill="none"/>
        <path id="Path_2031" data-name="Path 2031" d="M115.948,231.563a4.674,4.674,0,1,0-4.674,4.685A4.66,4.66,0,0,0,115.948,231.563Z" transform="translate(-103.132 -217.913)" fill="none"/>
        <path id="Path_2032" data-name="Path 2032" d="M203.6,343.122c.27.518.631.957,1.07.957a.892.892,0,0,0,.282-.056c.45-.18.473-.969.36-1.723A8.639,8.639,0,0,0,203.6,343.122Z" transform="translate(-189.207 -320.316)" fill="#67cfe3"/>
        <path id="Path_2033" data-name="Path 2033" d="M112.543,172.463v-.023a4.062,4.062,0,0,0-1.3-2.534,2.025,2.025,0,0,1-.788-1.87c.135-.811.777-1.318,1.836-1.442a144.256,144.256,0,0,0-2.793-14.472,9.318,9.318,0,0,0-2.838-5.023c-1.464.755-3.221,1.577-5.192,2.421-1.419.619-2.883,1.216-4.28,1.768a14.4,14.4,0,0,1-3.1,2.737,3.58,3.58,0,0,1-1.43.338,2.2,2.2,0,0,1-1.791-.845,6.089,6.089,0,0,1-.8.169c-.225.023-.541.056-.946.079a1.268,1.268,0,0,1-.2,1.25,1.971,1.971,0,0,1-1.611.6,13.835,13.835,0,0,1-4.685-1.25c-.3-.124-.586-.237-.833-.327h-.473c-1.971,0-3.5-.056-4.708-.158-1.318,2.737-.743,5.766-.259,8.267a71.134,71.134,0,0,0,3.559,10.339c.552,1.363,1.092,2.635,1.543,3.705,4.032.36,9.213.574,14.855.574a160.2,160.2,0,0,0,17.017-.788C112.993,174.693,112.61,172.913,112.543,172.463Zm-31.016-7.715a4.689,4.689,0,1,1,2.421.664A4.575,4.575,0,0,1,81.526,164.748ZM97.811,168.6a6.079,6.079,0,0,1-2.3.315c0,.1.011.191.011.259a1.92,1.92,0,0,1-.45,1.52,1.705,1.705,0,0,1-1.273.518,1.919,1.919,0,0,1-.642-.1,1.2,1.2,0,0,1-.529-.405,1.39,1.39,0,0,1-.777.867,1.518,1.518,0,0,1-.586.124c-.687,0-1.284-.473-1.768-1.363-.068.034-.135.079-.191.113a2.494,2.494,0,0,1-1.171.27,2.694,2.694,0,0,1-2.05-.856,1.973,1.973,0,0,1-.462-1.588c.248-1.791,2.613-2.511,2.883-2.59l.552-.158.372.439c.045.056.315.315,1.329.315a8.428,8.428,0,0,0,1.318-.113,3.137,3.137,0,0,0,2.286-1.633L94.59,164h.586c3.514.034,4.054,1.577,4.145,2.05A2.332,2.332,0,0,1,97.811,168.6Zm.619-6.543a4.678,4.678,0,1,1,4.674-4.685A4.658,4.658,0,0,1,98.431,162.056Z" transform="translate(-75.805 -147.1)" fill="#67cfe3"/>
        <path id="Path_2034" data-name="Path 2034" d="M179.158,305a3.986,3.986,0,0,1-2.951,2.14,9.225,9.225,0,0,1-1.453.124,2.5,2.5,0,0,1-2-.631s-2.072.6-2.252,1.87c-.135.957.811,1.442,1.644,1.442a1.587,1.587,0,0,0,.755-.169,10.038,10.038,0,0,1,3.739-1.633,4.635,4.635,0,0,1,.608-.023c.563,0,1.34.034,2.095.034a6.106,6.106,0,0,0,2.129-.248,1.381,1.381,0,0,0,.957-1.588C182.357,305.89,181.738,305.023,179.158,305Z" transform="translate(-159.822 -287.217)" fill="#67cfe3"/>
        <path id="Path_2035" data-name="Path 2035" d="M228.148,340.523c-.191,0-.394,0-.586-.011-.327-.011-.619-.011-.878-.011a2.957,2.957,0,0,0-.484.023c.191.687.439,1.352.7,1.453a1.265,1.265,0,0,0,.36.056c.417,0,.991-.2.912-1.171C228.16,340.759,228.16,340.646,228.148,340.523Z" transform="translate(-209.262 -318.719)" fill="#67cfe3"/>
      </g>
      <path id="Path_2036" data-name="Path 2036" d="M76.187,148s-.023-.1-.056-.27-.079-.417-.135-.7c-.023-.135-.045-.293-.056-.439a1.314,1.314,0,0,1,.023-.428.254.254,0,0,1,.056-.124.128.128,0,0,1,.068-.034h.023l.034-.011c.011,0,0,.011,0,.011h0a.99.99,0,0,1,.146.079,2.041,2.041,0,0,1,.349.349c.113.135.225.282.327.417.214.282.405.563.574.8s.315.439.428.574.169.214.169.214a.315.315,0,0,0-.011-.068c-.011-.045-.011-.113-.034-.2a7.281,7.281,0,0,0-.18-.71,5.893,5.893,0,0,0-.405-.957,4.143,4.143,0,0,0-.315-.507,2.325,2.325,0,0,0-.462-.484,1.157,1.157,0,0,0-.372-.191.479.479,0,0,0-.124-.023h-.169c-.023,0-.068.011-.079.011l-.034.011-.034.011-.045.011-.011.011-.023.011a.756.756,0,0,0-.36.315.94.94,0,0,0-.124.394,1.508,1.508,0,0,0,.079.619,3.17,3.17,0,0,0,.191.473,2.969,2.969,0,0,0,.394.619c.056.068.1.124.135.158A.159.159,0,0,0,76.187,148Z" transform="translate(-31.619 -120.448)" fill="none"/>
      <path id="Path_2037" data-name="Path 2037" d="M306.651,95.417l-.034-.056-.045-.056a.855.855,0,0,0-.225-.18l-.023-.011h-.011l-.034-.011h-.011l-.045-.011-.09-.034a1.31,1.31,0,0,0-.2-.045,1.363,1.363,0,0,0-.214-.011,1.381,1.381,0,0,0-.214.023,1.5,1.5,0,0,0-.732.36,2.562,2.562,0,0,0-.462.541A3.946,3.946,0,0,0,303.846,97a3.79,3.79,0,0,0-.135.8,1.843,1.843,0,0,0-.011.225v.079s.056-.1.146-.27.225-.405.383-.676a7.342,7.342,0,0,1,.586-.867,2.384,2.384,0,0,1,.383-.372.989.989,0,0,1,.417-.191c.034,0,.068-.011.1-.011a.423.423,0,0,1,.113.011c.034.011.079.011.113.023l.09.023.034.011h.011a.039.039,0,0,1,.011.023.517.517,0,0,1,.045.18,2.617,2.617,0,0,1-.034.507c-.034.169-.068.338-.1.5-.068.3-.146.574-.191.755s-.068.293-.068.293a2.906,2.906,0,0,0,.2-.237,4.319,4.319,0,0,0,.451-.676c.079-.146.158-.315.237-.5a2.552,2.552,0,0,0,.158-.642,1.181,1.181,0,0,0-.045-.428C306.7,95.5,306.673,95.45,306.651,95.417Z" transform="translate(-234.254 -75.813)" fill="none"/>
      <path id="Path_2038" data-name="Path 2038" d="M106.7,231.474a4.674,4.674,0,0,1,7.1-4,4.674,4.674,0,0,0-7.1,4,4.611,4.611,0,0,0,2.241,3.987A4.66,4.66,0,0,1,106.7,231.474Z" transform="translate(-59.44 -192.769)" fill="none"/>
      <path id="Path_2039" data-name="Path 2039" d="M237.452,205.661a4.672,4.672,0,0,1,4.854-7.985,4.672,4.672,0,1,0-4.854,7.985Z" transform="translate(-173.468 -166.326)" fill="none"/>
      <path id="Path_2040" data-name="Path 2040" d="M65.508,448.558c-.8.18-3.153,1.464-5.192,1.847s-3.8.6-4.415.822-1.092.687.113,1.137,7.084.619,7.613,0-.36-.89-1.644-.867c-.912.011-.8-.3-.8-.338,0,0,.056-.405,1.464-.6s7.613-.777,7.489-1.442S66.308,448.378,65.508,448.558Z" transform="translate(-13.8 -389.48)" fill="#231f20"/>
      <ellipse id="Ellipse_5" data-name="Ellipse 5" cx="1.216" cy="0.349" rx="1.216" ry="0.349" transform="matrix(0.977, -0.213, 0.213, 0.977, 46.41, 63.883)" fill="#231f20"/>
      <ellipse id="Ellipse_6" data-name="Ellipse 6" cx="1.284" cy="0.338" rx="1.284" ry="0.338" transform="translate(43.554 63.571) rotate(-4.552)" fill="#231f20"/>
      <ellipse id="Ellipse_7" data-name="Ellipse 7" cx="0.856" cy="0.27" rx="0.856" ry="0.27" transform="matrix(0.991, -0.135, 0.135, 0.991, 41.726, 63.377)" fill="#231f20"/>
      <ellipse id="Ellipse_8" data-name="Ellipse 8" cx="0.833" cy="0.214" rx="0.833" ry="0.214" transform="translate(40.098 63.174) rotate(-8.262)" fill="#231f20"/>
      <ellipse id="Ellipse_9" data-name="Ellipse 9" cx="0.833" cy="0.214" rx="0.833" ry="0.214" transform="translate(39.716 62.713) rotate(-8.262)" fill="#231f20"/>
      <ellipse id="Ellipse_10" data-name="Ellipse 10" cx="0.721" cy="0.191" rx="0.721" ry="0.191" transform="translate(39.739 62.189) rotate(-8.262)" fill="#231f20"/>
      <path id="Path_2041" data-name="Path 2041" d="M214.74,430.383c-1.4.068-4.55-.09-4.978.642s1.284,1,3.976.777,6.51-.529,6.667-1.351-.71-.664-.8-1.183.957-.529,1.16-1.306-1.419-.687-2.861-.687-3.84.135-4.066.89,1.092.755,2.038.935.664.529.664.529C216.5,430.113,216.137,430.316,214.74,430.383Z" transform="translate(-150.835 -370.663)" fill="#231f20"/>
      <ellipse id="Ellipse_11" data-name="Ellipse 11" cx="1.205" cy="0.394" rx="1.205" ry="0.394" transform="translate(58.972 61.33)" fill="#231f20"/>
      <ellipse id="Ellipse_12" data-name="Ellipse 12" cx="0.811" cy="0.36" rx="0.811" ry="0.36" transform="translate(62.475 61.274)" fill="#231f20"/>
      <ellipse id="Ellipse_13" data-name="Ellipse 13" cx="0.878" cy="0.293" rx="0.878" ry="0.293" transform="translate(64.919 61.094)" fill="#231f20"/>
      <ellipse id="Ellipse_14" data-name="Ellipse 14" cx="0.642" cy="0.304" rx="0.642" ry="0.304" transform="translate(67.093 60.756)" fill="#231f20"/>
      <ellipse id="Ellipse_15" data-name="Ellipse 15" cx="0.653" cy="0.304" rx="0.653" ry="0.304" transform="translate(68.759 60.396)" fill="#231f20"/>
      <path id="Path_2042" data-name="Path 2042" d="M51.1,380.1c0,.394.845.755,2.354,1.081A7.326,7.326,0,0,1,53.51,379C51.967,379.338,51.1,379.71,51.1,380.1Z" transform="translate(-10.102 -327.828)" fill="#fff"/>
      <path id="Path_2043" data-name="Path 2043" d="M425.38,379.9a1.376,1.376,0,0,1-.079.191,3.227,3.227,0,0,1-.788,1.137A4.541,4.541,0,0,1,422.7,382.4c2.951-.417,4.7-.935,4.7-1.487C427.408,380.542,426.687,380.2,425.38,379.9Z" transform="translate(-339.851 -328.627)" fill="#fff"/>
      <path id="Path_2044" data-name="Path 2044" d="M80.156,355.382a2.881,2.881,0,0,0,2.41-1.374c-.619-1.442-1.633-3.852-2.6-6.408a4.966,4.966,0,0,0-.89,1.07c-.811,1.261-1.487,4.2-.642,5.744A1.785,1.785,0,0,0,80.156,355.382Z" transform="translate(-34.011 -299.965)" fill="#dfcaa3"/>
      <path id="Path_2045" data-name="Path 2045" d="M395.35,329.206a4.118,4.118,0,0,0-3.322-2.872h-.045a5.128,5.128,0,0,0-.6-.034c-.71,0-1.588.158-1.712.878-.079.507.135.766.608,1.25a4.848,4.848,0,0,1,1.487,2.928c.248,1.836.7,2.771,1.329,2.771h0c.293,0,.833-.18,1.723-1.025A3.591,3.591,0,0,0,395.35,329.206Z" transform="translate(-310.531 -281.063)" fill="#dfcaa3"/>
      <path id="Path_2046" data-name="Path 2046" d="M235.3,201.574a4.674,4.674,0,1,0,4.674-4.674A4.66,4.66,0,0,0,235.3,201.574Zm5.507,1.565a1.475,1.475,0,1,1-1.475-1.475A1.48,1.48,0,0,1,240.807,203.139Z" transform="translate(-173.557 -166.237)" fill="#fff"/>
      <path id="Path_2047" data-name="Path 2047" d="M106.7,231.474a4.674,4.674,0,1,0,4.674-4.674A4.66,4.66,0,0,0,106.7,231.474Zm5.721,1.644a1.475,1.475,0,1,1-1.475-1.475A1.48,1.48,0,0,1,112.421,233.118Z" transform="translate(-59.44 -192.769)" fill="#fff"/>
      <circle id="Ellipse_16" data-name="Ellipse 16" cx="1.475" cy="1.475" r="1.475" transform="translate(50.041 38.873)" fill="#231f20"/>
      <circle id="Ellipse_17" data-name="Ellipse 17" cx="1.475" cy="1.475" r="1.475" transform="translate(64.311 35.427)" fill="#231f20"/>
      <path id="Path_2048" data-name="Path 2048" d="M54.83,180.359a1.8,1.8,0,0,0-.293-.045,1.256,1.256,0,0,1-1.306-1.025c-.011-.068-.011-.124-.023-.191a11.223,11.223,0,0,0-.991.619l-.563.394-.417-.541A15.075,15.075,0,0,1,50.01,177.6a4.026,4.026,0,0,0-1.971,1.475.184.184,0,0,0,.011.191C48.219,179.5,49.188,180.235,54.83,180.359Z" transform="translate(-7.368 -149.11)" fill="#648c1a"/>
      <path id="Path_2049" data-name="Path 2049" d="M337.514,111.492a9.583,9.583,0,0,1-.788,2.68l-.225.315c1.014-.5,1.926-.969,2.692-1.4,2.669-1.5,3.007-2.151,3.041-2.32.023-.113,0-.146-.011-.158-.034-.034-.214-.214-1.059-.214a18.513,18.513,0,0,0-3.559.507C337.581,111.087,337.547,111.278,337.514,111.492Z" transform="translate(-263.36 -89.479)" fill="#648c1a"/>
      <path id="Path_2050" data-name="Path 2050" d="M282.17,146.09l-.383-.034c-.011,0-.71-.056-1.678-.056a15.455,15.455,0,0,0-3.39.315,1.245,1.245,0,0,1-.169,1.34c-.259.315-.71.845-1.25,1.453.946-.383,1.926-.8,2.906-1.216C279.659,147.273,280.987,146.653,282.17,146.09Z" transform="translate(-209.052 -121.069)" fill="#648c1a"/>
      <path id="Path_2051" data-name="Path 2051" d="M104.773,64.922a14.634,14.634,0,0,0,3.863.473c5.5,0,11.533-2.376,13.886-3.4l.146-.068a4.258,4.258,0,0,1,.09-1.115,3.476,3.476,0,0,1,.811-1.644,4.325,4.325,0,0,0-.169-.552c-.777-.417-7.23-2.816-10.6-2.816a3.859,3.859,0,0,0-.867.079c-2.985.608-7.512,5.789-7.67,6.521a22.766,22.766,0,0,0,0,2.388Z" transform="translate(-57.254 -41.028)" fill="#648c1a"/>
      <path id="Path_2052" data-name="Path 2052" d="M125.892,149.565a1.253,1.253,0,0,1,1.532.146,1.1,1.1,0,0,0,.327-.113,30.688,30.688,0,0,0,4.539-4.708.82.82,0,0,1,.2-.191c-3.863,1.667-9.269,3.5-14.416,3.5a17.207,17.207,0,0,1-2.343-.146l.113.338-.642.248-.3.124a24.515,24.515,0,0,1,3.356,1.137,10.745,10.745,0,0,0,3.807,1.07,1.264,1.264,0,0,1,1.137-.011c.664-.045,1.183-.079,1.5-.113a4.2,4.2,0,0,0,.619-.124A1.246,1.246,0,0,1,125.892,149.565Z" transform="translate(-66.717 -119.916)" fill="#648c1a"/>
      <path id="Path_2053" data-name="Path 2053" d="M125.611,116.6l-.237.1c-.023.011-.034.011-.056.023-.079.034-.158.068-.248.1-.011.011-.034.011-.045.023l-.237.1c-.011.011-.034.011-.045.023-.09.034-.18.079-.27.113-.023.011-.045.011-.056.023-.1.034-.191.079-.293.113h0c-.1.045-.2.079-.3.124a.16.16,0,0,1-.068.023c-.1.045-.214.079-.315.124-.011.011-.034.011-.045.023-.1.034-.2.079-.3.113-.023.011-.034.011-.056.023-.113.045-.225.079-.338.124a.16.16,0,0,1-.068.023c-.113.045-.237.079-.349.124h-.011c-.124.045-.248.09-.372.124a.209.209,0,0,1-.079.023c-.124.045-.248.09-.372.124a.488.488,0,0,1-.056.011c-.113.034-.237.079-.349.113-.023.011-.045.011-.068.023-.124.045-.259.079-.394.124-.023.011-.056.011-.079.023-.124.045-.259.079-.394.124-.011,0-.011,0-.023.011-.135.045-.27.079-.417.124a.265.265,0,0,1-.09.023c-.135.045-.282.079-.417.113-.023,0-.034.011-.056.011l-.394.1c-.023.011-.056.011-.079.023-.146.034-.282.068-.428.113-.034.011-.056.011-.09.023l-.417.1c-.011,0-.023.011-.034.011l-.439.1c-.034.011-.068.011-.1.023-.146.034-.293.068-.45.09-.023,0-.034.011-.056.011-.135.023-.282.056-.417.079-.034,0-.056.011-.09.011-.146.023-.293.056-.45.079-.034,0-.056.011-.09.011l-.428.068a.068.068,0,0,0-.045.011c-.146.023-.3.045-.462.068-.034,0-.068.011-.1.011-.158.023-.3.034-.462.056h-.045c-.146.011-.282.034-.428.045-.034,0-.056.011-.09.011l-.451.034a.248.248,0,0,0-.09.011c-.146.011-.282.023-.428.023h-.056c-.158.011-.3.011-.45.023h-.1c-.158,0-.3.011-.462.011h-.045c-.146,0-.293,0-.439-.011h-.09c-.146,0-.3-.011-.45-.023h-.09l-.428-.034h-.034c-.146-.011-.3-.034-.45-.045-.034,0-.068-.011-.1-.011-.146-.023-.293-.034-.439-.056a.488.488,0,0,1-.056-.011l-.405-.068c-.023,0-.056-.011-.079-.011-.146-.023-.282-.056-.428-.09-.034-.011-.056-.011-.09-.023-.146-.034-.293-.068-.439-.113h0a7.162,7.162,0,0,1,.394.653,17.484,17.484,0,0,1,1.014,2.151l.259.034c.034,0,.056.011.09.011.056.011.124.011.191.023.034,0,.068.011.113.011s.124.011.191.023c.045,0,.079.011.124.011.068,0,.124.011.191.011.045,0,.09.011.146.011s.124.011.191.011a.8.8,0,0,1,.158.011c.068,0,.124.011.191.011h.169a1.223,1.223,0,0,1,.2.011h.845a2.544,2.544,0,0,0,.293-.011h.124c.1,0,.214-.011.315-.011h.079c.135-.011.27-.011.417-.023a.312.312,0,0,0,.1-.011c.113-.011.225-.023.327-.023.045,0,.09-.011.135-.011l.372-.034c.034,0,.056-.011.09-.011.146-.023.3-.034.462-.056.045,0,.079-.011.124-.011.124-.011.248-.034.372-.056.045-.011.1-.011.146-.023l.417-.068c.034,0,.056-.011.09-.011.169-.034.338-.056.518-.09a.565.565,0,0,1,.135-.023c.135-.023.27-.056.405-.079l.169-.034.473-.1c.023-.011.056-.011.079-.023.18-.045.372-.09.563-.135a.829.829,0,0,0,.158-.045c.146-.034.293-.068.439-.113.056-.011.124-.034.18-.045.18-.045.349-.09.541-.146.023-.011.045-.011.068-.023.2-.056.405-.113.619-.18.056-.023.113-.034.18-.056.158-.045.315-.1.473-.146.068-.023.135-.045.191-.068.2-.068.394-.135.6-.2.023-.011.034-.011.056-.023.225-.079.439-.158.664-.237.068-.023.135-.045.191-.068.169-.056.338-.124.518-.191.068-.023.135-.056.214-.079.225-.079.45-.169.676-.259.011,0,.023-.011.034-.011.237-.09.484-.191.721-.293.068-.034.146-.056.214-.09.18-.079.372-.158.552-.237a1.88,1.88,0,0,1,.225-.09c.248-.113.507-.225.755-.338.1-.338.248-.755.428-1.216h-.045a1.379,1.379,0,0,1-.214-.023A1.182,1.182,0,0,1,125.611,116.6Z" transform="translate(-60.062 -94.98)" fill="#dfcaa3"/>
      <path id="Path_2054" data-name="Path 2054" d="M143.045,147.3h0Z" transform="translate(-91.652 -122.223)" fill="#648c1a"/>
      <path id="Path_2055" data-name="Path 2055" d="M80.3,126.7h0v0Z" transform="translate(-36.014 -103.943)" fill="#67cfe3"/>
      <path id="Path_2056" data-name="Path 2056" d="M279.324,17.655a1.342,1.342,0,0,1,.935,1.036c.023.09.045.191.068.293,1-1.408,2.095-2.129,3.266-2.129a2.373,2.373,0,0,1,1.284.338c.619-.755,1-1.261,1-1.261-.462.079-1.43.214-1.43.214a5.068,5.068,0,0,0,3.367-5.012c0,.631-1.892,2.151-1.892,2.151a2.937,2.937,0,0,0-.214-1.261c.079.721-2.185,2.568-2.185,2.568a1.757,1.757,0,0,0,.045-.924c-.124.676-1.137.924-1.137.924.631-.755,1.813-4.753.923-5.012s-2.106,2.613-2.106,2.613c-.045-.676-.417-.676-.417-.676a5.4,5.4,0,0,1-1.52,3.784c-.124-.417-.8-.631-.8-.631a7.88,7.88,0,0,1-.023,2.421c-.034.338-.068.619-.09.777a1.228,1.228,0,0,1,.7-.248C279.177,17.633,279.256,17.644,279.324,17.655Z" transform="translate(-211.803)" fill="#dfcaa3"/>
      <path id="Path_2057" data-name="Path 2057" d="M274.717,91.014a.562.562,0,0,0,.473-.2c.113-.259.225-.518.36-.788.113-.248.237-.473.36-.7a2.817,2.817,0,0,0-.023-1.273c-.09-.3-.237-.507-.394-.541a.488.488,0,0,1-.056-.011c-.36,0-.9.631-1.1,1.577a2.871,2.871,0,0,0,0,1.385A.7.7,0,0,0,274.717,91.014Z" transform="translate(-208.12 -69.158)" fill="#fff"/>
      <path id="Path_2058" data-name="Path 2058" d="M324.711,101.7Z" transform="translate(-252.889 -81.759)" fill="#67cfe3"/>
      <path id="Path_2059" data-name="Path 2059" d="M285.089,80.7c-2.827,0-4.64,5.778-4.989,6.983a1.286,1.286,0,0,1,.293.1,15.072,15.072,0,0,1,3.976-.451c1,0,1.734.056,1.734.056C286.418,86.951,288.243,80.7,285.089,80.7Zm.721,2.568a2.552,2.552,0,0,1-.158.642,4.071,4.071,0,0,1-.237.5,4.634,4.634,0,0,1-.451.676,2.909,2.909,0,0,1-.2.237s.023-.113.068-.293.113-.45.191-.755c.034-.158.068-.315.1-.5a1.953,1.953,0,0,0,.034-.507.516.516,0,0,0-.045-.18c0-.011-.011-.011-.011-.023h0l-.034-.011-.09-.023c-.034-.011-.079-.011-.113-.023s-.068,0-.113-.011-.068.011-.1.011a.989.989,0,0,0-.417.191,2.385,2.385,0,0,0-.383.372,6.186,6.186,0,0,0-.586.867c-.158.27-.293.507-.383.676s-.146.27-.146.27v-.079a1.843,1.843,0,0,1,.011-.225,4.888,4.888,0,0,1,.135-.8,4.1,4.1,0,0,1,.462-1.081,2.562,2.562,0,0,1,.462-.541,1.6,1.6,0,0,1,.732-.36c.068-.011.146-.011.214-.023a1.363,1.363,0,0,1,.214.011,1.309,1.309,0,0,1,.2.045l.09.034.045.011h.011l.034.011h.011l.023.011a.854.854,0,0,1,.225.18l.045.056.034.056a.6.6,0,0,1,.056.124A.875.875,0,0,1,285.81,83.268Z" transform="translate(-213.312 -63.124)" fill="#67cfe3"/>
      <path id="Path_2060" data-name="Path 2060" d="M324.633,101.6Z" transform="translate(-252.822 -81.67)" fill="#67cfe3"/>
      <path id="Path_2061" data-name="Path 2061" d="M324.7,101.7Z" transform="translate(-252.889 -81.759)" fill="#fff"/>
      <path id="Path_2062" data-name="Path 2062" d="M215.457,155.462a2.73,2.73,0,0,0,1.115-.27c.833-.372,2.861-2.41,5.169-5.181a.513.513,0,0,0,.113-.36.5.5,0,0,0-.18-.338.5.5,0,0,0-.7.068c-1,1.205-3.829,4.449-4.8,4.91l-.011.011a2.3,2.3,0,0,1-.518.169l-.372.056-.27-.259a.477.477,0,0,0-.338-.135.438.438,0,0,0-.259.079.451.451,0,0,0-.214.315.486.486,0,0,0,.068.372A1.4,1.4,0,0,0,215.457,155.462Z" transform="translate(-154.818 -123.909)" fill="#231f20"/>
      <path id="Path_2063" data-name="Path 2063" d="M110.071,188.319a.605.605,0,0,0-.237.056l-.146.079-.169.011H109.4a12.019,12.019,0,0,1-4.021-1.126,13.257,13.257,0,0,0-4.111-1.239.943.943,0,0,0-.135.011.474.474,0,0,0-.315.2.483.483,0,0,0-.079.372.494.494,0,0,0,.484.405h.146a15.182,15.182,0,0,1,3.66,1.16,13.43,13.43,0,0,0,4.4,1.194,1.279,1.279,0,0,0,1.025-.327.513.513,0,0,0,.113-.36.5.5,0,0,0-.18-.338A.569.569,0,0,0,110.071,188.319Z" transform="translate(-54.14 -156.653)" fill="#231f20"/>
      <path id="Path_2064" data-name="Path 2064" d="M69.243,134.844S67.565,129.9,65.29,129.9a1.73,1.73,0,0,0-.912.27c-2.714,1.644,1.07,6.634,1.07,6.634A21.307,21.307,0,0,1,69.243,134.844Zm-4.235-1.34a3.17,3.17,0,0,1-.191-.473,1.761,1.761,0,0,1-.079-.619.94.94,0,0,1,.124-.394.811.811,0,0,1,.36-.315l.023-.011.011-.011.045-.011.034-.011.034-.011c.011,0,.056-.011.079-.011h.169c.045.011.079.011.124.023a1.05,1.05,0,0,1,.372.191,2.308,2.308,0,0,1,.462.484,4.145,4.145,0,0,1,.315.507,5.506,5.506,0,0,1,.405.957,5.954,5.954,0,0,1,.18.71c.023.09.023.158.034.2a.163.163,0,0,0,.011.068s-.068-.079-.169-.214-.259-.338-.428-.574-.36-.518-.574-.8c-.1-.146-.214-.282-.327-.417a2.551,2.551,0,0,0-.349-.349.474.474,0,0,0-.146-.079h0s.011-.011,0-.011l-.034.011H65.47a.375.375,0,0,0-.068.034.254.254,0,0,0-.056.124,1.314,1.314,0,0,0-.023.428c.011.158.034.3.056.439.045.282.1.518.135.7s.056.27.056.27a.407.407,0,0,1-.045-.056c-.034-.034-.079-.09-.135-.158A4.107,4.107,0,0,1,65.008,133.5Z" transform="translate(-21.015 -106.783)" fill="#67cfe3"/>
      <path id="Path_2065" data-name="Path 2065" d="M197.7,287.338c.023,0,.056-.011.079-.011a.265.265,0,0,0,.09-.023c1.194-.248,2.084-.935,2.095-1.633a.642.642,0,0,0-.011-.146.711.711,0,0,0-.09-.259.4.4,0,0,0-.056-.09c-.011-.011-.023-.023-.023-.034l-.034-.034c-.034-.034-.056-.068-.09-.1h0a.625.625,0,0,0-.09-.068h0a1.749,1.749,0,0,0-.541-.282c-.011,0-.023-.011-.034-.011l-.1-.034c-.011,0-.034-.011-.045-.011a.328.328,0,0,0-.1-.023c-.023,0-.034-.011-.056-.011s-.068-.011-.1-.023-.056-.011-.079-.011c-.045-.011-.09-.011-.146-.023-.034,0-.068-.011-.1-.011H197.8a.422.422,0,0,0-.124.011h-.068a.992.992,0,0,0-.191.023c-.056.011-.124.011-.18.023l-.169.034c-.011,0-.023.011-.045.011-.056.011-.113.023-.158.034h0c-.056.011-.113.034-.158.045-.011,0-.023.011-.034.011-.056.011-.1.034-.158.045h0c-.056.023-.1.034-.146.056-.011,0-.023.011-.034.011-.1.045-.191.079-.282.124a.039.039,0,0,0-.023.011,1.236,1.236,0,0,0-.124.068h0a.992.992,0,0,1-.113.068c-.011,0-.011.011-.023.011-.023.023-.056.034-.079.056s-.023.011-.023.023c-.023.023-.045.034-.068.056l-.023.023c-.056.045-.113.1-.169.146a.011.011,0,0,0-.011.011l-.056.056-.023.023a.2.2,0,0,0-.045.056l-.023.023a.342.342,0,0,0-.056.079h0c-.023.023-.034.056-.056.079,0,.011-.011.011-.011.023a.245.245,0,0,1-.034.056.039.039,0,0,1-.011.023c-.011.023-.023.034-.023.056s-.011.011-.011.023a.209.209,0,0,0-.023.079h0c-.011.023-.011.056-.023.079v.023a.1.1,0,0,1-.011.056v.113a.192.192,0,0,0,.011.079c.011.045.023.09.034.124C195.259,287.169,196.408,287.552,197.7,287.338Z" transform="translate(-137.796 -243.971)" fill="#231f20"/>
      <path id="Path_2066" data-name="Path 2066" d="M192.3,286.637a.977.977,0,0,0,.405.619c.023.023.045.034.068.056a2.867,2.867,0,0,0,1.565.417,4.73,4.73,0,0,0,.777-.068,3.738,3.738,0,0,0,1.9-.856,1.842,1.842,0,0,0,.237-.282,1.02,1.02,0,0,0,.146-.293.966.966,0,0,0,.056-.3.642.642,0,0,0-.011-.146.924.924,0,0,0-.293-.529,1.539,1.539,0,0,0-.451-.293,2.54,2.54,0,0,0-.541-.18,2.261,2.261,0,0,0-.27-.045,3.116,3.116,0,0,0-.473-.034h-.011c-.169,0-.338.011-.507.023l-.27.034a4.929,4.929,0,0,0-.755.191C192.867,285.308,192.191,285.984,192.3,286.637Z" transform="translate(-135.392 -244.148)" fill="#231f20"/>
      <path id="Path_2067" data-name="Path 2067" d="M204.67,344.079a.892.892,0,0,0,.282-.056c.45-.18.473-.969.36-1.723a8.33,8.33,0,0,0-1.712.822C203.87,343.64,204.231,344.079,204.67,344.079Z" transform="translate(-145.427 -295.261)" fill="#fff"/>
      <path id="Path_2068" data-name="Path 2068" d="M226.987,341.964a1.265,1.265,0,0,0,.36.056c.417,0,.991-.2.912-1.171a2.852,2.852,0,0,1-.011-.327c-.191,0-.394,0-.586-.011-.327-.011-.619-.011-.878-.011a2.957,2.957,0,0,0-.484.023C226.48,341.2,226.728,341.863,226.987,341.964Z" transform="translate(-165.571 -293.664)" fill="#fff"/>
      <path id="Path_2069" data-name="Path 2069" d="M179.158,305a3.986,3.986,0,0,1-2.951,2.14,9.225,9.225,0,0,1-1.453.124,2.5,2.5,0,0,1-2-.631s-2.072.6-2.252,1.87c-.135.957.811,1.442,1.644,1.442a1.587,1.587,0,0,0,.755-.169,10.038,10.038,0,0,1,3.739-1.633,4.635,4.635,0,0,1,.608-.023c.563,0,1.34.034,2.095.034a6.106,6.106,0,0,0,2.129-.248,1.381,1.381,0,0,0,.957-1.588C182.357,305.89,181.738,305.023,179.158,305Z" transform="translate(-116.042 -262.162)" fill="#dfcaa3"/>
    </g>
  </g>
</svg>
