<svg xmlns="http://www.w3.org/2000/svg" xmlns:xlink="http://www.w3.org/1999/xlink" width="90" height="55" viewBox="0 0 90 55">
  <defs>
    <clipPath id="clip-java">
      <rect width="90" height="55"/>
    </clipPath>
  </defs>
  <g id="java" clip-path="url(#clip-java)">
    <rect width="90" height="55" fill="#fff"/>
    <g id="Group_70" data-name="Group 70" transform="translate(3.215)">
      <path id="Path_1798" data-name="Path 1798" d="M331.635,371.792s-2.1,1.222,1.5,1.636a31.475,31.475,0,0,0,11.389-.483,19.838,19.838,0,0,0,3.027,1.478c-10.767,4.615-24.368-.267-15.911-2.63m-1.315-6.022s-2.357,1.745,1.243,2.117a44.426,44.426,0,0,0,14.694-.705,6.524,6.524,0,0,0,2.264,1.38c-13.018,3.807-27.518.3-18.2-2.792" transform="translate(-296.786 -329.257)" fill="#5382a1"/>
      <path id="Path_1799" data-name="Path 1799" d="M347.492,342.325c2.653,3.054-.7,5.8-.7,5.8s6.736-3.477,3.643-7.832c-2.89-4.061-5.105-6.079,6.89-13.036,0,0-18.829,4.7-9.835,15.065" transform="translate(-302.867 -316.026)" fill="#e76f00"/>
      <path id="Path_1800" data-name="Path 1800" d="M351.052,372.7s1.555,1.282-1.713,2.273c-6.215,1.883-25.867,2.451-31.326.075-1.962-.854,1.718-2.038,2.875-2.287a7.469,7.469,0,0,1,1.9-.213c-2.182-1.537-14.106,3.019-6.056,4.324,21.953,3.56,40.017-1.6,34.323-4.172m-23.006-16.715s-10,2.374-3.54,3.237a75.09,75.09,0,0,0,13.222-.142c4.137-.349,8.291-1.091,8.291-1.091a17.6,17.6,0,0,0-2.514,1.345c-10.151,2.67-29.761,1.428-24.116-1.3a18.913,18.913,0,0,1,8.656-2.046m17.932,10.024c10.319-5.362,5.548-10.516,2.218-9.821a7.732,7.732,0,0,0-1.18.317,1.883,1.883,0,0,1,.882-.68c6.588-2.317,11.654,6.831-2.127,10.454a.892.892,0,0,0,.207-.27" transform="translate(-292.187 -325.713)" fill="#5382a1"/>
      <path id="Path_1801" data-name="Path 1801" d="M346.6,310.147s5.715,5.716-5.42,14.507c-8.93,7.051-2.036,11.072,0,15.666-5.212-4.7-9.037-8.842-6.471-12.695,3.766-5.656,14.2-8.4,11.895-17.478" transform="translate(-299.029 -310.147)" fill="#e76f00"/>
      <path id="Path_1802" data-name="Path 1802" d="M332.888,391.032c9.905.634,25.115-.352,25.475-5.038,0,0-.693,1.776-8.186,3.188a81.434,81.434,0,0,1-25.065.385s1.266,1.048,7.776,1.465" transform="translate(-296.014 -336.205)" fill="#5382a1"/>
    </g>
  </g>
</svg>
