<svg xmlns="http://www.w3.org/2000/svg" width="90" height="55" viewBox="0 0 90 55"><defs><style>.cls-1{fill:#f7f7f7;opacity:0;}.cls-2{fill:#231f20;}</style></defs><g id="Layer_2" data-name="Layer 2"><g id="Layer_1-2" data-name="Layer 1"><rect class="cls-1" width="90" height="55"/><path class="cls-2" d="M41.19,11.06a2.38,2.38,0,0,0-3.41,0h0a2.46,2.46,0,0,0-.71,1.74,2.49,2.49,0,0,0,.7,1.73h0a2.34,2.34,0,0,0,1.69.71,2.41,2.41,0,0,0,1.72-.71h0a2.42,2.42,0,0,0,.69-1.73,2.45,2.45,0,0,0-.7-1.74Zm-1.71,33.6a2.39,2.39,0,0,0,1.71-.72h0a2.44,2.44,0,0,0,.69-1.73,2.53,2.53,0,0,0-.69-1.74h0a2.38,2.38,0,0,0-3.41,0h0a2.51,2.51,0,0,0-.7,1.74,2.47,2.47,0,0,0,.7,1.73h0a2.38,2.38,0,0,0,1.7.72Zm13.14-7.44a2.32,2.32,0,0,0,1.47-1.14l0-.08a2.5,2.5,0,0,0,.19-1.78,2.37,2.37,0,0,0-1.13-1.49l0,0a2.45,2.45,0,0,0-1.8-.22,2.37,2.37,0,0,0-1.46,1.15A2.47,2.47,0,0,0,50.79,37h0a2.37,2.37,0,0,0,1.83.23ZM42,25a3.47,3.47,0,0,0-2.47-1A3.4,3.4,0,0,0,37,25a3.62,3.62,0,0,0,0,5,3.46,3.46,0,0,0,4.93,0,3.63,3.63,0,0,0,1-2.53,3.52,3.52,0,0,0-1-2.51Zm-1.39-4.18a6.5,6.5,0,0,1,3.63,1.91h0c.15.15.3.32.44.49l2.41-1.41a5.34,5.34,0,0,1,2.34-6.23l0,0a5.07,5.07,0,0,1,3.9-.51,5.15,5.15,0,0,1,3.15,2.46h0a5.36,5.36,0,0,1,.53,4,5.28,5.28,0,0,1-2.43,3.22l-.33.2h0a5.12,5.12,0,0,1-3.59.33,5.22,5.22,0,0,1-2.52-1.57l-2.4,1.41a6.91,6.91,0,0,1,0,4.8l2.4,1.41a5.18,5.18,0,0,1,2.52-1.57,5,5,0,0,1,4,.53l.08,0h0a5.34,5.34,0,0,1,1.82,7.19l0,.08h0A5.3,5.3,0,0,1,53.34,40a5.16,5.16,0,0,1-4-.53h0A5.24,5.24,0,0,1,47,36.23a5.32,5.32,0,0,1,.08-3l-2.41-1.41c-.14.17-.28.33-.44.49h0a6.55,6.55,0,0,1-3.62,1.9V37a5.07,5.07,0,0,1,2.59,1.44h0a5.35,5.35,0,0,1,0,7.47v0a5.14,5.14,0,0,1-7.35,0h0v0a5.32,5.32,0,0,1,0-7.47h0A5.06,5.06,0,0,1,38.4,37V34.19a6.48,6.48,0,0,1-3.62-1.9h0a6.85,6.85,0,0,1,0-9.58h0A6.63,6.63,0,0,1,38.4,20.8V18a5.25,5.25,0,0,1-2.6-1.44h0a5.34,5.34,0,0,1,0-7.48h0A5.1,5.1,0,0,1,39.48,7.5a5.16,5.16,0,0,1,3.68,1.55h0a5.35,5.35,0,0,1,0,7.47h0A5.28,5.28,0,0,1,40.56,18V20.8Zm13.53-1.88,0,0a2.43,2.43,0,0,0-1.45-1.12,2.35,2.35,0,0,0-1.83.25h0a2.41,2.41,0,0,0-1.13,1.49,2.5,2.5,0,0,0,.25,1.87h0a2.39,2.39,0,0,0,3.28.88h0a2.48,2.48,0,0,0,.86-3.34"/></g></g></svg>