<svg xmlns="http://www.w3.org/2000/svg" xmlns:xlink="http://www.w3.org/1999/xlink" width="82" height="60" viewBox="0 0 82 60">
  <defs>
    <linearGradient id="linear-gradient" x1="0.682" y1="0.175" x2="0.278" y2="0.898" gradientUnits="objectBoundingBox">
      <stop offset="0" stop-color="#41873f"/>
      <stop offset="0.329" stop-color="#418b3d"/>
      <stop offset="0.635" stop-color="#419637"/>
      <stop offset="0.932" stop-color="#3fa92d"/>
      <stop offset="1" stop-color="#3fae2a"/>
    </linearGradient>
    <linearGradient id="linear-gradient-2" x1="0.433" y1="0.552" x2="1.592" y2="-0.183" gradientUnits="objectBoundingBox">
      <stop offset="0.138" stop-color="#41873f"/>
      <stop offset="0.403" stop-color="#54a044"/>
      <stop offset="0.714" stop-color="#66b848"/>
      <stop offset="0.908" stop-color="#6cc04a"/>
    </linearGradient>
    <linearGradient id="linear-gradient-3" x1="-44.138" y1="0.134" x2="53.279" y2="0.134" gradientUnits="objectBoundingBox">
      <stop offset="0.092" stop-color="#6cc04a"/>
      <stop offset="0.286" stop-color="#66b848"/>
      <stop offset="0.597" stop-color="#54a044"/>
      <stop offset="0.862" stop-color="#41873f"/>
    </linearGradient>
    <linearGradient id="linear-gradient-4" x1="-0.044" y1="0.5" x2="1.015" y2="0.5" xlink:href="#linear-gradient-3"/>
    <linearGradient id="linear-gradient-5" x1="-97.138" y1="0.362" x2="0.279" y2="0.362" xlink:href="#linear-gradient-3"/>
    <linearGradient id="linear-gradient-6" x1="-1.039" y1="0.503" x2="1.008" y2="0.503" xlink:href="#linear-gradient-3"/>
    <linearGradient id="linear-gradient-7" x1="1.306" y1="-2.111" x2="0.044" y2="2.016" xlink:href="#linear-gradient"/>
    <clipPath id="clip-lang-node-js">
      <rect width="82" height="60"/>
    </clipPath>
  </defs>
  <g id="lang-node-js" clip-path="url(#clip-lang-node-js)">
    <g id="nodejs-1" transform="translate(0 5)">
      <path id="Path_65" data-name="Path 65" d="M206.24,207.466a1.626,1.626,0,0,1-.778-.2L203,205.8c-.371-.2-.185-.278-.074-.315a4.5,4.5,0,0,0,1.112-.5.17.17,0,0,1,.185.018l1.891,1.131a.235.235,0,0,0,.222,0l7.4-4.282a.213.213,0,0,0,.111-.2V193.1a.213.213,0,0,0-.111-.2l-7.4-4.263a.235.235,0,0,0-.222,0l-7.4,4.263a.233.233,0,0,0-.111.2v8.545a.233.233,0,0,0,.111.2l2.02,1.168c1.094.556,1.779-.093,1.779-.741v-8.434a.225.225,0,0,1,.222-.222h.945a.225.225,0,0,1,.222.222v8.434a2.056,2.056,0,0,1-2.187,2.317,3.179,3.179,0,0,1-1.705-.463l-1.946-1.112a1.564,1.564,0,0,1-.778-1.353V193.12a1.564,1.564,0,0,1,.778-1.353l7.4-4.282a1.655,1.655,0,0,1,1.557,0l7.4,4.282a1.564,1.564,0,0,1,.779,1.353v8.545a1.564,1.564,0,0,1-.779,1.353l-7.4,4.282a1.9,1.9,0,0,1-.778.167Zm2.28-5.876c-3.244,0-3.911-1.483-3.911-2.743a.225.225,0,0,1,.222-.222h.964a.19.19,0,0,1,.2.185c.148.982.575,1.464,2.539,1.464,1.557,0,2.224-.352,2.224-1.186,0-.482-.186-.834-2.614-1.075-2.02-.2-3.281-.649-3.281-2.261,0-1.5,1.261-2.391,3.373-2.391,2.372,0,3.54.816,3.689,2.595a.3.3,0,0,1-.056.167.229.229,0,0,1-.148.074h-.964a.217.217,0,0,1-.2-.167c-.222-1.019-.8-1.353-2.317-1.353-1.705,0-1.909.593-1.909,1.038,0,.538.241.7,2.539,1,2.28.3,3.355.723,3.355,2.317C212.209,200.664,210.874,201.59,208.52,201.59Z" transform="translate(-165.685 -157.254)" fill="#539e43"/>
      <path id="Path_66" data-name="Path 66" d="M17.84,16.793a.943.943,0,0,0-.482-.816L9.5,11.455a1.141,1.141,0,0,0-.426-.13H9a.881.881,0,0,0-.426.13L.713,15.977a.943.943,0,0,0-.482.816L.25,28.952a.461.461,0,0,0,.241.408.421.421,0,0,0,.463,0l4.671-2.669a.943.943,0,0,0,.482-.816v-5.69a.943.943,0,0,1,.482-.815L8.572,18.22a.9.9,0,0,1,.482-.13.8.8,0,0,1,.463.13L11.5,19.369a.943.943,0,0,1,.482.815v5.69a.943.943,0,0,0,.482.816l4.671,2.669a.452.452,0,0,0,.482,0,.461.461,0,0,0,.241-.408L17.84,16.793ZM55.614.055a.51.51,0,0,0-.463,0,.483.483,0,0,0-.241.408V12.511a.334.334,0,0,1-.5.3l-1.965-1.131a.955.955,0,0,0-.945,0l-7.859,4.541a.943.943,0,0,0-.482.815V26.1a.943.943,0,0,0,.482.816L51.5,31.454a.955.955,0,0,0,.945,0L60.3,26.913a.943.943,0,0,0,.482-.816V3.5a.951.951,0,0,0-.482-.834L55.614.055Zm-.723,23.058a.213.213,0,0,1-.111.2l-2.688,1.557a.275.275,0,0,1-.241,0l-2.688-1.557a.232.232,0,0,1-.111-.2V20a.213.213,0,0,1,.111-.2l2.688-1.557a.275.275,0,0,1,.241,0L54.78,19.8a.232.232,0,0,1,.111.2v3.114Zm26.876-3.188a.926.926,0,0,0,.463-.816V16.9a.965.965,0,0,0-.463-.815l-7.8-4.523a.955.955,0,0,0-.945,0L65.16,16.107a.943.943,0,0,0-.482.816v9.064a.943.943,0,0,0,.482.816l7.8,4.448a.921.921,0,0,0,.927,0l4.726-2.632a.466.466,0,0,0,0-.816l-7.9-4.541a.483.483,0,0,1-.241-.408V20.018a.461.461,0,0,1,.241-.408L73.186,18.2a.452.452,0,0,1,.482,0l2.465,1.409a.483.483,0,0,1,.241.408v2.224a.46.46,0,0,0,.241.408.452.452,0,0,0,.482,0l4.671-2.725Z" transform="translate(-0.231 0)" fill="#333"/>
      <path id="Path_67" data-name="Path 67" d="M447.947,121.441a.168.168,0,0,1,.185,0l1.5.871a.194.194,0,0,1,.093.167v1.742a.2.2,0,0,1-.093.167l-1.5.871a.168.168,0,0,1-.185,0l-1.5-.871a.194.194,0,0,1-.093-.167v-1.742a.194.194,0,0,1,.093-.167Z" transform="translate(-374.807 -101.941)" fill="#539e43"/>
      <g id="Group_63" data-name="Group 63" transform="translate(21.464 9.953)">
        <path id="Path_68" data-name="Path 68" d="M9.674,1.2a.955.955,0,0,0-.945,0L.925,5.7a.926.926,0,0,0-.463.815v9.027a.965.965,0,0,0,.463.815l7.8,4.5a.955.955,0,0,0,.945,0l7.8-4.5a.926.926,0,0,0,.463-.815V6.514a.966.966,0,0,0-.463-.815Z" transform="translate(-0.388 0.455)" fill="url(#linear-gradient)"/>
        <g id="Group_61" data-name="Group 61" transform="translate(0 1.522)">
          <path id="Path_69" data-name="Path 69" d="M8.322,1.179.5,5.683A.961.961,0,0,0,0,6.5v9.027a.893.893,0,0,0,.241.593L9.027,1.068a1.059,1.059,0,0,0-.7.111Zm.76,19.758a1.14,1.14,0,0,0,.222-.093l7.822-4.5a.943.943,0,0,0,.482-.815V6.5a.944.944,0,0,0-.278-.649L9.082,20.937Z" transform="translate(0 -1.051)" fill="none"/>
          <path id="Path_70" data-name="Path 70" d="M18.369,5.869l-7.84-4.5a1.287,1.287,0,0,0-.241-.093L1.5,16.323a.975.975,0,0,0,.26.222l7.84,4.5a.9.9,0,0,0,.723.093L18.573,6.054a.973.973,0,0,0-.2-.185Z" transform="translate(-1.261 -1.237)" fill="url(#linear-gradient-2)"/>
        </g>
        <g id="Group_62" data-name="Group 62" transform="translate(0 0)">
          <path id="Path_71" data-name="Path 71" d="M17.609,15.614V6.588a.961.961,0,0,0-.5-.815l-7.841-4.5a.819.819,0,0,0-.3-.111l8.582,14.661a.374.374,0,0,0,.056-.2ZM.5,5.772a.962.962,0,0,0-.5.816v9.027a1,1,0,0,0,.5.815l7.84,4.5a.873.873,0,0,0,.612.111L.556,5.753.5,5.772Z" transform="translate(0 0.382)" fill="none"/>
          <path id="Path_72" data-name="Path 72" d="M49.809.809,49.7.865h.148Z" transform="translate(-41.728 -0.809)" fill-rule="evenodd" fill="url(#linear-gradient-3)"/>
          <path id="Path_73" data-name="Path 73" d="M19.94,25.587a1.054,1.054,0,0,0,.463-.593l-8.6-14.68a.941.941,0,0,0-.667.111L3.351,14.91l8.4,15.31a1.292,1.292,0,0,0,.352-.111l7.84-4.523Z" transform="translate(-2.814 -8.775)" fill-rule="evenodd" fill="url(#linear-gradient-4)"/>
          <path id="Path_74" data-name="Path 74" d="M111.009,104.227l-.056-.093v.13l.055-.037Z" transform="translate(-93.159 -87.563)" fill-rule="evenodd" fill="url(#linear-gradient-5)"/>
          <path id="Path_75" data-name="Path 75" d="M64,102.434l-7.822,4.5a1.118,1.118,0,0,1-.352.111l.148.278,8.674-5.023v-.111l-.222-.371A.861.861,0,0,1,64,102.434Z" transform="translate(-46.87 -85.622)" fill-rule="evenodd" fill="url(#linear-gradient-6)"/>
          <path id="Path_76" data-name="Path 76" d="M64,102.434l-7.822,4.5a1.118,1.118,0,0,1-.352.111l.148.278,8.674-5.023v-.111l-.222-.371A.861.861,0,0,1,64,102.434Z" transform="translate(-46.87 -85.622)" fill-rule="evenodd" fill="url(#linear-gradient-7)"/>
        </g>
      </g>
    </g>
  </g>
</svg>
