<svg xmlns="http://www.w3.org/2000/svg" xmlns:xlink="http://www.w3.org/1999/xlink" width="82" height="60" viewBox="0 0 82 60">
  <defs>
    <clipPath id="clip-lang-go">
      <rect width="82" height="60"/>
    </clipPath>
  </defs>
  <g id="lang-go" clip-path="url(#clip-lang-go)">
    <g id="go-6" transform="translate(2 16)">
      <path id="Path_77" data-name="Path 77" d="M5.823,8.694c-.15,0-.188-.075-.113-.188L6.5,7.492A.538.538,0,0,1,6.912,7.3H20.323c.15,0,.188.113.113.225l-.639.977a.572.572,0,0,1-.376.225ZM.15,12.15c-.15,0-.188-.075-.113-.188l.789-1.014a.538.538,0,0,1,.413-.188h17.13a.173.173,0,0,1,.188.225l-.3.9a.329.329,0,0,1-.338.225Zm9.091,3.456c-.15,0-.188-.113-.113-.225l.526-.939a.5.5,0,0,1,.376-.225h7.513c.15,0,.225.113.225.263l-.075.9a.282.282,0,0,1-.263.263ZM48.233,8.017c-2.367.6-3.982,1.052-6.311,1.653-.563.15-.6.188-1.089-.376a5.028,5.028,0,0,0-1.766-1.427,6.531,6.531,0,0,0-6.8.563,7.989,7.989,0,0,0-3.832,7.137,5.889,5.889,0,0,0,5.071,5.9,6.933,6.933,0,0,0,6.386-2.479c.338-.413.639-.864,1.014-1.39h-7.25c-.789,0-.977-.488-.714-1.127.488-1.165,1.39-3.118,1.916-4.095a1.014,1.014,0,0,1,.939-.6H49.473c-.075,1.014-.075,2.029-.225,3.043a16.021,16.021,0,0,1-3.08,7.363,15.648,15.648,0,0,1-10.706,6.386,13.306,13.306,0,0,1-10.1-2.479,11.8,11.8,0,0,1-4.771-8.339A14.744,14.744,0,0,1,23.779,6.74,16.67,16.67,0,0,1,34.3.242a12.945,12.945,0,0,1,9.955,1.841,11.775,11.775,0,0,1,4.358,5.3C48.834,7.717,48.684,7.9,48.233,8.017Z" transform="translate(0 0.034)"/>
      <path id="Path_78" data-name="Path 78" d="M139.208,29.369a14.092,14.092,0,0,1-9.166-3.306,11.781,11.781,0,0,1-4.057-7.25,14.34,14.34,0,0,1,3.043-11.345A15.748,15.748,0,0,1,139.547,1.2c3.832-.676,7.438-.3,10.706,1.916a11.693,11.693,0,0,1,5.3,8.377,14.5,14.5,0,0,1-4.32,12.735,17.213,17.213,0,0,1-9.016,4.808c-1.014.188-2.029.225-3.005.338Zm8.94-15.176a10.816,10.816,0,0,0-.113-1.24,6.188,6.188,0,0,0-7.663-5,8.206,8.206,0,0,0-6.574,6.536,6.186,6.186,0,0,0,3.456,7.1,6.887,6.887,0,0,0,6.123-.225,8.221,8.221,0,0,0,4.771-7.175Z" transform="translate(-78.541 -0.544)"/>
    </g>
  </g>
</svg>
