<svg id="Layer_1" data-name="Layer 1" xmlns="http://www.w3.org/2000/svg" width="90" height="55" viewBox="0 0 90 55"><defs><style>.cls-1{fill:#599636;}.cls-2{fill:#6cac48;}.cls-3{fill:#c2bfbf;}</style></defs><g id="mongodb-icon-1"><path id="Path_160" data-name="Path 160" class="cls-1" d="M44.81.15l1.47,2.76a8.19,8.19,0,0,0,1.11,1.38,37.5,37.5,0,0,1,3.44,3.89A33.66,33.66,0,0,1,56.19,19a26.45,26.45,0,0,1,1.14,7.34,25.86,25.86,0,0,1-7.56,19.11,22.08,22.08,0,0,1-2.7,2.31c-.51,0-.75-.39-1-.75a6.16,6.16,0,0,1-.74-2.16,10.37,10.37,0,0,1-.25-2.72V41.7c0-.09-.49-41.33-.31-41.54Z"/><path id="Path_161" data-name="Path 161" class="cls-2" d="M44.81.06c-.06-.12-.12,0-.18,0a2.71,2.71,0,0,1-.51,1.65,7.79,7.79,0,0,1-1.31,1.32,28.64,28.64,0,0,0-6.44,8.2,32.86,32.86,0,0,0-3.71,13.42,45,45,0,0,0,1.07,9.47A28.81,28.81,0,0,0,41.25,46a34,34,0,0,0,2.67,2.27c.26,0,.29-.24.36-.41q.16-.59.27-1.17l.6-4.49Z"/><path id="Path_162" data-name="Path 162" class="cls-3" d="M46.28,49.57A4.13,4.13,0,0,1,47,47.75a1.92,1.92,0,0,1-.84-.78,6.28,6.28,0,0,1-.45-1,17.46,17.46,0,0,1-.62-3.86v-.78a3.73,3.73,0,0,0-.18,1.29,30.4,30.4,0,0,1-.54,4,3.6,3.6,0,0,1-.48,1.56.76.76,0,0,0,0,.21,18.14,18.14,0,0,1,.78,4.85v.6c0,.72,0,.57.56.81A2.46,2.46,0,0,1,46,55c.18,0,.21-.15.21-.27l-.09-1V51a8.39,8.39,0,0,1,.12-1.41Z"/></g></svg>