<svg width="90" height="55" viewBox="0 0 90 55" fill="none" xmlns="http://www.w3.org/2000/svg">
<path d="M51.317 25.7253L41.1501 29.0527L32.2772 32.9623L29.8002 33.6186C29.1717 34.2193 28.5062 34.8201 27.7945 35.4671C27.0829 36.1141 26.2788 36.7611 25.715 37.214C24.9777 37.8129 24.2999 38.4814 23.6908 39.2104C23.0633 39.9684 22.5638 40.8238 22.212 41.7429C22.002 42.3796 21.947 43.0573 22.0515 43.7195C22.156 44.3818 22.417 45.0097 22.8128 45.5508C24.2613 47.4073 26.1743 48.8484 28.3584 49.7285C29.9461 50.3923 31.5802 50.939 33.2477 51.3644C36.6866 52.1365 40.1826 52.628 43.7011 52.834C44.1504 52.8617 44.6012 52.8617 45.0505 52.834C45.4117 52.2352 45.7419 51.6182 46.0395 50.9855C47.5836 47.943 48.7923 44.7416 49.6441 41.4379C50.1181 39.2583 50.4271 37.0461 50.5683 34.8201C50.6238 34.0715 50.6515 31.5759 50.5683 30.7256C50.5132 29.5172 50.3835 28.3134 50.1801 27.121C50.1572 27.0144 50.1572 26.9041 50.1801 26.7975C50.6315 26.637 51.0912 26.5013 51.5573 26.3908L51.2985 25.79L51.317 25.7253ZM48.9971 27.0933C49.2314 28.3655 49.3643 29.6542 49.3945 30.9474C49.4177 31.1192 49.4177 31.2933 49.3945 31.465C49.3391 31.465 48.1006 30.7349 47.2133 30.1803C46.326 29.6257 44.9858 28.7292 44.7547 28.5443C44.6716 28.5443 44.6808 28.4889 45.3093 28.2671C46.3814 27.9066 48.9232 27.0933 49.0063 27.0933H48.9971ZM43.812 28.8031C44.0549 28.8861 44.2828 29.0078 44.4867 29.1636C45.978 30.1141 47.5208 30.9812 49.108 31.7608C49.3945 31.8809 49.4223 31.8347 48.7753 32.2784C47.0976 33.382 45.3253 34.3347 43.4793 35.1251L42.7861 35.4209C42.7982 35.2757 42.8292 35.1328 42.8785 34.9957C43.3688 33.233 43.645 31.4176 43.7011 29.5888C43.7011 28.8216 43.7011 28.8216 43.775 28.7939C43.849 28.7662 43.775 28.7939 43.775 28.7939L43.812 28.8031ZM42.7399 29.2098C42.7906 29.9546 42.7906 30.7019 42.7399 31.4465C42.6038 32.5802 42.3687 33.6997 42.0374 34.7924C41.9856 34.9743 41.9238 35.1532 41.8526 35.3285C41.3424 34.9045 40.8665 34.4409 40.4292 33.9421C39.8742 33.3143 39.3963 32.6224 39.0058 31.8809C38.8373 31.5412 38.6952 31.1889 38.5807 30.8273C38.7008 30.7441 42.7583 29.1728 42.7861 29.2098H42.7399ZM37.7119 31.1877C37.7596 31.2767 37.7999 31.3694 37.832 31.465C38.1598 32.2794 38.5883 33.0494 39.1075 33.7572C39.6328 34.4534 40.2274 35.0944 40.8821 35.6704L41.261 35.9939C41.261 35.9939 41.3257 35.9939 40.0687 36.5115C38.6177 37.0661 37.0279 37.6207 35.2164 38.2029L33.9132 38.6281C33.8392 38.6281 33.9132 38.6281 34.0703 38.2954C35.2367 36.3336 36.2503 34.285 37.1019 32.1675C37.2405 31.8347 37.3699 31.4928 37.3976 31.4188C37.4137 31.3544 37.4504 31.2969 37.5021 31.2552C37.5539 31.2135 37.6177 31.1898 37.6842 31.1877H37.7119ZM36.1684 31.8255C35.9473 32.3714 35.6974 32.9052 35.4197 33.4245C34.6711 34.8756 33.8577 36.3082 32.7578 38.0458L32.3789 38.6558C32.3789 38.7113 32.3234 38.6558 32.2033 38.4617C31.9262 37.8925 31.7243 37.2898 31.6025 36.6687C31.4948 35.8977 31.5104 35.1147 31.6487 34.3487C31.7412 33.8681 31.7412 33.8866 31.9722 33.7664C32.9519 33.2673 36.1406 31.77 36.1684 31.807V31.8255ZM49.4407 32.3616V32.6851C49.4242 34.6219 49.2729 36.5552 48.9879 38.471C48.9879 38.776 48.9047 39.0163 48.8954 39.0255C48.8862 39.0348 48.6736 38.9608 48.4148 38.8869C47.188 38.4988 46.0024 37.9911 44.8749 37.3711C44.2349 37.0428 43.6173 36.6722 43.0264 36.262L43.7381 35.883C45.1974 35.1385 46.6165 34.3179 47.9897 33.4245C48.461 33.1102 49.1635 32.6019 49.3206 32.5002L49.4407 32.4078V32.3616ZM30.364 34.6353C30.364 34.6353 30.364 34.7 30.364 34.9772C30.364 35.2545 30.2993 35.5503 30.2808 35.7998C30.2061 36.8751 30.4402 37.9494 30.9555 38.8961C31.0572 39.081 31.1404 39.2843 31.2236 39.4784C31.1681 39.5246 26.0754 41.022 24.4764 41.4564L23.5522 41.7152C23.4967 41.7152 23.4875 41.7152 23.5522 41.5858C23.923 40.1172 24.6979 38.7821 25.7889 37.7316C26.5256 36.9553 27.3803 36.3003 28.3214 35.7906C29.107 35.347 30.3178 34.6815 30.4102 34.6445L30.364 34.6353ZM42.3794 36.7888C42.5237 36.8516 42.6628 36.9257 42.7953 37.0106C44.6479 38.0384 46.6317 38.8095 48.6921 39.3028H48.8677L48.6182 39.4415C46.0686 40.6578 43.4589 41.7437 40.7989 42.6949L39.6713 43.1385C39.6163 43.1666 39.5569 43.1854 39.4957 43.194C39.4957 43.194 39.6343 42.9167 39.81 42.5932C40.7663 40.8121 41.5792 38.9578 42.2408 37.0476C42.2962 36.8997 42.3332 36.7611 42.3424 36.7611L42.3794 36.7888ZM41.1594 37.1862C41.126 37.3067 41.0827 37.4242 41.03 37.5375C40.2515 39.3839 39.3595 41.1805 38.3589 42.9167C38.0723 43.425 37.832 43.8409 37.832 43.8409L37.3144 43.5359C35.7896 42.6291 34.4275 41.4731 33.2847 40.1162L33.1275 39.8943L33.83 39.7003C36.1384 39.1032 38.3997 38.337 40.5956 37.4081L41.1501 37.1862H41.1594ZM48.7568 39.8389C48.5726 40.8207 48.3382 41.7925 48.0544 42.7503C47.7771 43.6746 47.546 44.4694 47.1301 45.8004C46.9452 46.3827 46.7789 46.8633 46.7696 46.8633H46.6772C44.5382 46.4834 42.4422 45.892 40.42 45.0979C39.8839 44.8854 39.1168 44.5341 39.0705 44.4972C39.4058 44.3166 39.7515 44.1561 40.1057 44.0166C43.5994 42.4915 47.2318 40.7447 48.4795 40.0053C48.5636 39.9416 48.6571 39.8917 48.7568 39.8574V39.8389ZM31.1958 40.4397C31.1958 40.4397 30.2716 41.863 28.8667 43.7855C28.3861 44.451 27.8315 45.2366 27.6282 45.5323C27.4248 45.8281 27.1013 46.281 26.9257 46.5583L26.6022 47.0574L26.2603 46.7709C25.7439 46.3238 25.2647 45.8353 24.8277 45.3105C24.2159 44.5903 23.7765 43.74 23.5429 42.8243C23.4598 42.4546 23.4598 42.2697 23.5429 42.242L27.6374 41.3177C28.7096 41.0774 29.9481 40.7816 30.4102 40.6707L31.2236 40.4766L31.1958 40.4397ZM32.1848 40.8186L32.4251 41.0959C33.4618 42.2708 34.6823 43.2696 36.039 44.0535C36.1882 44.1252 36.3279 44.2153 36.4549 44.3216C36.3994 44.3216 31.6949 46.0314 29.5229 46.7801L27.2862 47.5565C27.2309 47.5309 27.1783 47.4999 27.1291 47.464L26.9904 47.3716L27.2123 47.0481C27.9332 45.9945 28.8482 44.8484 30.8261 42.4268L32.1848 40.8186ZM38.3219 45.2089L39.089 45.4861C40.0174 45.8542 40.9682 46.163 41.9358 46.4104C43.3582 46.7614 44.8036 47.0116 46.2613 47.159C46.4277 47.159 46.5201 47.159 46.4831 47.2145C46.4461 47.27 45.3001 47.6212 44.4682 47.8892C43.1465 48.3051 39.1075 49.4974 35.8079 50.4402L34.6526 50.7729C34.5364 50.7739 34.4219 50.7453 34.3198 50.6897C34.4422 50.5071 34.5781 50.3341 34.7265 50.1721C35.8384 48.8147 36.8721 47.3953 37.8228 45.9205C38.0723 45.5416 38.2942 45.2273 38.2942 45.2181L38.3219 45.2089ZM36.9725 45.2089C36.9725 45.2089 36.4272 46.1331 35.4752 47.5934L34.4492 49.2109L33.9409 50.0612L33.7098 50.4494H33.5989C33.3216 50.3755 31.3715 49.6915 30.8261 49.5251C30.2135 49.2849 29.6148 49.0102 29.0331 48.7026C28.5618 48.4685 28.1158 48.1866 27.7021 47.8615L30.0405 47.2237C33.4141 46.2995 35.2811 45.7819 36.5103 45.3752C36.6494 45.3285 36.7914 45.2914 36.9355 45.2643L36.9725 45.2089ZM46.5478 47.4548C46.5478 47.5287 45.3278 50.9947 44.8749 52.0761C44.7825 52.3257 44.7363 52.3811 44.6808 52.3719L41.6492 51.956C39.7268 51.6602 36.5103 51.0964 35.7062 50.9115H35.5214L36.6675 50.6527C39.126 50.0982 40.3645 49.7932 41.5106 49.4235C43.0639 48.9526 44.5807 48.3688 46.0487 47.6766C46.2079 47.5993 46.3715 47.5315 46.5386 47.4733L46.5478 47.4548Z" fill="url(#paint0_linear_2807_8228)"/>
<path d="M40.8276 2C39.2471 2.48062 37.6851 3.04441 36.2063 3.67291C34.3312 4.38552 32.5347 5.28993 30.8456 6.37176C30.438 6.65128 30.0843 7.00194 29.8011 7.40693C29.7716 7.49326 29.756 7.58373 29.7549 7.67497L30.7901 8.64544L33.2024 9.3941L39.0437 10.4385L45.7169 11.5938L45.7908 11.0115H45.7261L44.8481 10.8729L44.6725 10.5586C43.7482 8.95969 42.7593 6.97253 42.177 5.63235C41.737 4.63524 41.3635 3.61016 41.0586 2.5638C40.92 2 40.9107 2 40.8276 2ZM40.6982 2.38819C40.6982 2.38819 40.6982 2.61926 40.7721 2.8688C40.905 3.97384 41.156 5.06143 41.5208 6.11297C41.8165 6.96329 41.8165 6.91707 41.5208 6.8154C40.7444 6.59358 37.2229 5.99281 34.6812 5.63235C34.4267 5.60945 34.1737 5.57242 33.9233 5.52144C33.9233 5.52144 35.7719 4.51399 36.5852 4.1258C37.6389 3.63594 40.5318 2.4344 40.7444 2.38819H40.6982ZM33.3041 5.83569L33.5999 5.93736C36.2158 6.67525 38.8908 7.1855 41.5947 7.46239H42.0753C41.9211 7.55653 41.7605 7.63991 41.5947 7.71194C40.5041 8.25725 39.3025 8.93196 38.4707 9.44031C38.3148 9.55048 38.1475 9.64345 37.9716 9.71759L37.6111 9.67138H37.3061L36.5298 8.91348L33.683 6.19615L33.3041 5.83569ZM32.9991 6.076L34.0805 7.43466C34.672 8.18331 35.2728 8.91348 35.4022 9.0706C35.487 9.16279 35.5643 9.2617 35.6332 9.36637C35.6332 9.36637 34.062 9.08909 33.2486 8.90423C32.4353 8.71938 32.0471 8.61771 31.5295 8.46983L31.1043 8.33119V8.22028C31.1043 7.70269 31.7698 6.93556 32.8789 6.14994L32.9991 6.076ZM42.2417 7.92452C42.2417 7.92452 42.3064 7.99846 42.3988 8.20179C42.6668 8.77484 43.4802 10.3368 43.6835 10.6326C43.739 10.7343 43.8499 10.7435 42.7593 10.5679C40.1529 10.1427 39.3118 10.0041 39.3118 9.98562C39.3678 9.94003 39.43 9.90265 39.4966 9.87472C40.3125 9.40499 41.083 8.86042 41.798 8.24801C41.9736 8.10013 42.1308 7.96149 42.1677 7.943C42.2047 7.92452 42.1677 7.943 42.1677 7.943L42.2417 7.92452Z" fill="url(#paint1_linear_2807_8228)"/>
<path d="M29.81 7.30566C29.7619 7.41 29.737 7.52351 29.737 7.6384C29.737 7.75328 29.7619 7.86679 29.81 7.97113C29.9991 8.29969 30.2465 8.59099 30.5402 8.8307C30.5402 8.8307 33.9599 12.1673 34.3758 12.6479C36.1914 14.6465 37.1822 17.2588 37.1486 19.9588C37.1989 21.8791 36.7802 23.7825 35.9286 25.5043C34.3296 28.9981 30.9561 32.8985 25.7617 37.1316L26.5289 36.8821C27.3981 36.2865 28.3059 35.7493 29.2462 35.2738C33.3401 33.0758 37.5874 31.1761 41.9548 29.5896C50.3375 26.5638 58.9606 24.2511 67.7325 22.6761L68.4349 22.5744L68.324 22.3341C67.8506 21.5818 67.3353 20.8566 66.7805 20.1621C65.2732 18.3051 63.4176 16.7604 61.3181 15.6148C57.5959 13.6798 53.5953 12.3359 49.4598 11.6312C48.5355 11.4464 46.4836 11.0951 44.8385 10.8363C41.317 10.291 39.0341 9.9121 36.5201 9.48692C35.5959 9.3298 34.2742 9.09873 33.3776 8.90464C32.6932 8.77289 32.0172 8.60005 31.3535 8.38705C30.7989 8.17447 29.9948 7.96189 29.8285 7.30566H29.81ZM31.7971 9.22813C31.8956 9.24911 31.9915 9.28008 32.0837 9.32056L33.202 9.66253L34.2187 9.93059C34.6808 10.0415 35.0598 10.1524 35.069 10.1524C35.0783 10.1524 35.9009 12.6941 36.1689 13.6461C36.2613 14.0066 36.3445 14.3208 36.3353 14.3208C36.26 14.2263 36.1949 14.1241 36.1412 14.0158C35.1127 12.2831 33.7639 10.7618 32.1668 9.53314C32.0356 9.44167 31.9119 9.33966 31.7971 9.22813ZM35.5866 10.3188C35.7159 10.311 35.8456 10.311 35.9748 10.3188C37.278 10.6145 39.6256 11.0582 41.1229 11.317C41.2802 11.329 41.4354 11.36 41.5851 11.4094C41.5221 11.4643 41.4502 11.5082 41.3725 11.5388C41.1229 11.6682 40.097 12.2782 39.755 12.5093C38.9772 13.0178 38.2499 13.5997 37.583 14.2469L37.1671 14.6535C37.1671 14.6535 37.1671 14.5241 37.0839 14.367C36.7232 13.0763 36.2628 11.8155 35.7068 10.596C35.645 10.4834 35.5925 10.3659 35.5496 10.2448C35.5496 10.2448 35.5774 10.3188 35.5866 10.3188ZM42.2505 11.585C42.3801 11.8582 42.4733 12.1472 42.5278 12.4446C42.8119 13.5959 42.9362 14.7808 42.8975 15.966C42.8975 16.1878 42.8975 16.4096 42.8513 16.6315V16.7054L42.4446 16.5298C41.622 16.2617 40.2818 15.8736 39.1358 15.5501C38.4795 15.3745 37.9527 15.2081 37.9527 15.1988C38.3798 14.7179 38.8334 14.2612 39.3114 13.8309C40.2564 13.0155 41.2436 12.2504 42.269 11.5388L42.2505 11.585ZM42.7774 11.6682C42.7774 11.6682 45.9661 12.1858 47.3987 12.463C48.4708 12.6756 50.0236 12.9991 50.116 13.0361C50.2084 13.0731 50.0051 13.1377 49.4875 13.3688C47.7324 14.1476 46.0471 15.0752 44.4503 16.1416L43.7201 16.6222C43.7111 16.4591 43.7111 16.2955 43.7201 16.1324C43.7283 14.6949 43.4454 13.2706 42.8883 11.9455C42.8495 11.8655 42.8185 11.7819 42.7958 11.6959L42.7774 11.6682ZM50.9571 13.2764C50.9317 13.6202 50.8728 13.9607 50.7814 14.2931C50.3268 15.8546 49.6746 17.3518 48.8405 18.748C48.7446 18.9258 48.6398 19.0985 48.5263 19.2656C48.364 19.2024 48.2091 19.1218 48.0641 19.0253C47.0905 18.466 46.0809 17.972 45.0418 17.5465C44.7368 17.4078 44.4687 17.3062 44.4595 17.2877C44.4503 17.2692 46.8811 15.6055 48.1565 14.8199C49.201 14.1914 50.9293 13.2487 50.9293 13.2764H50.9571ZM51.5394 13.3781C51.6041 13.3781 53.0089 13.757 53.7391 13.9788C55.5237 14.4971 57.274 15.1268 58.9797 15.8643L59.5435 16.1231L59.1461 16.2155C56.1186 16.8992 53.1512 17.8265 50.2731 18.9883C50.1331 19.0557 49.9879 19.1113 49.8387 19.1547C49.8791 19.0207 49.9317 18.8908 49.9958 18.7665C50.7873 17.1598 51.2909 15.4267 51.4839 13.6461C51.479 13.5505 51.498 13.4552 51.5394 13.3688V13.3781ZM37.5923 16.5298C38.1562 16.6343 38.7146 16.7669 39.2652 16.9272C40.2064 17.182 41.1321 17.4906 42.0379 17.8515L41.5851 18.2489C40.5776 19.09 39.6071 19.968 38.4518 21.0956C38.1006 21.4284 37.8141 21.6964 37.7956 21.6964C37.7771 21.6964 37.7956 21.6502 37.7956 21.5855C37.9681 20.0474 37.9339 18.4932 37.6939 16.9642C37.684 16.8289 37.684 16.6929 37.6939 16.5575L37.5923 16.5298ZM60.0704 16.5298C59.8221 16.9661 59.5506 17.3888 59.257 17.796C58.7949 18.4615 58.1201 19.3395 56.5859 21.262L54.5617 23.8037C54.266 24.1919 54.0072 24.5154 53.9979 24.5154C53.918 24.4182 53.8439 24.3164 53.7761 24.2104C52.9135 22.9139 51.8639 21.7521 50.6613 20.7629L50.0975 20.3008C50.0391 20.2656 49.9861 20.222 49.9404 20.1714C49.9404 20.1714 51.2528 19.5891 52.2418 19.1917C53.9794 18.5077 56.3086 17.7128 58.1571 17.1121C59.0814 16.8163 60.0888 16.5298 60.0981 16.5483L60.0704 16.5298ZM60.6619 16.6777C60.8183 16.7329 60.9674 16.8074 61.1055 16.8995C62.9756 17.9681 64.7051 19.2659 66.2537 20.7629C66.6603 21.1603 67.6678 22.2047 67.6493 22.214L66.8822 22.2787C63.0485 22.6079 59.2451 23.2258 55.5045 24.1272L54.9869 24.2474C54.9869 24.2474 55.2734 23.9423 55.6431 23.5819C57.6007 21.8442 59.1908 19.7324 60.3199 17.3709L60.6619 16.6407V16.6777ZM43.526 18.4338C43.6369 18.4338 44.6351 18.9236 45.3745 19.2933C46.1139 19.663 47.1029 20.2176 47.1583 20.2176C47.2138 20.2176 46.7979 20.4117 46.345 20.6335C44.9032 21.3637 43.6554 22.0476 42.3614 22.8332L41.6775 23.2399C41.6775 23.2399 41.6775 23.2399 41.8623 22.8332C42.5857 21.5166 43.1179 20.1038 43.4428 18.6371C43.4798 18.5354 43.5075 18.4615 43.526 18.4615V18.4338ZM42.5278 18.6186C42.4169 19.1177 42.2875 19.6168 42.1304 20.0974C41.7743 21.1915 41.3163 22.2499 40.7625 23.2584C40.6423 23.4802 40.4575 23.7945 40.3558 23.9701L40.1617 24.2751L39.7365 23.8592C39.3188 23.4332 38.8351 23.0774 38.3039 22.8055C38.1737 22.744 38.0498 22.6697 37.9342 22.5837C37.9342 22.5282 39.2467 21.3359 40.2541 20.4671C40.9843 19.8571 42.5093 18.6186 42.5278 18.6186ZM48.6464 21.1326L49.0254 21.3729C49.9464 21.9922 50.8349 22.6586 51.6872 23.3693C52.1216 23.7298 52.972 24.4877 53.1383 24.6725L53.24 24.7742L52.6115 24.9498C49.09 25.9295 46.3635 26.7983 43.184 27.9629L42.5186 28.2032C42.5186 28.2032 42.4261 28.2032 43.221 27.51C45.1725 25.738 46.9096 23.7434 48.3969 21.567L48.6464 21.1326ZM47.0659 21.5578C47.0659 21.5578 46.0307 23.0551 45.393 23.8961C44.6444 24.8943 43.3042 26.5765 42.3799 27.6671L41.6498 28.5082C41.6498 28.5082 41.6498 28.3973 41.6498 28.2217C41.6452 27.2606 41.4241 26.3129 41.0028 25.4489C40.8272 25.0977 40.7902 25.0145 40.8272 24.9683C40.8641 24.9221 43.221 23.5634 44.6351 22.7963C45.5594 22.2972 47.0844 21.5393 47.1029 21.5578H47.0659ZM37.315 23.9423C37.452 24.0008 37.5848 24.0688 37.7124 24.1457C38.1828 24.4089 38.6256 24.7185 39.0341 25.0699C38.9065 25.2157 38.7568 25.3404 38.5905 25.4397C37.8603 25.9665 36.7419 26.8076 36.1042 27.2882C35.4665 27.7688 35.4018 27.8335 35.4849 27.7226C35.8675 27.1555 36.2104 26.5626 36.5109 25.948C36.7574 25.4249 36.9734 24.8879 37.1579 24.3398C37.1866 24.1992 37.2398 24.0647 37.315 23.9423ZM39.9121 25.9757C39.9121 25.9757 39.9953 26.0404 40.1987 26.3454C40.6419 27.0218 40.9379 27.7839 41.0675 28.5821V28.7393L40.0138 29.1459C38.1653 29.8761 36.3907 30.597 35.2077 31.1424C34.8749 31.2902 34.2834 31.5675 33.9229 31.7524C33.5625 31.9372 33.239 32.0944 33.239 32.0851L33.7751 31.6877C35.92 30.1601 37.864 28.3683 39.5609 26.3547C39.7181 26.1606 39.8659 25.985 39.8844 25.9757H39.9121ZM38.7476 26.2622C38.2945 26.8337 37.8035 27.3741 37.278 27.8797C35.846 29.352 34.2416 30.646 32.4996 31.7339L32.0375 32.0204C31.982 32.0204 32.0375 32.0204 32.8508 31.0961C33.3591 30.5508 33.7751 30.0887 34.1817 29.5249C34.3827 29.2298 34.6442 28.9809 34.9489 28.7947C36.0765 27.9814 38.6459 26.2068 38.7199 26.2438L38.7476 26.2622Z" fill="url(#paint2_radial_2807_8228)"/>
<defs>
<linearGradient id="paint0_linear_2807_8228" x1="-63.4578" y1="-23.5265" x2="-35.2077" y2="-3.56268" gradientUnits="userSpaceOnUse">
<stop stop-color="#909CA9"/>
<stop offset="1" stop-color="#EDEDEE"/>
</linearGradient>
<linearGradient id="paint1_linear_2807_8228" x1="-101.242" y1="8.56115" x2="-77.1479" y2="8.56115" gradientUnits="userSpaceOnUse">
<stop stop-color="#939FAB"/>
<stop offset="1" stop-color="#DCDEE1"/>
</linearGradient>
<radialGradient id="paint2_radial_2807_8228" cx="0" cy="0" r="1" gradientUnits="userSpaceOnUse" gradientTransform="translate(-811.915 -264.743) rotate(-171.431) scale(3.72551 7.44966)">
<stop stop-color="#EE352C"/>
<stop offset="1" stop-color="#A91D22"/>
</radialGradient>
</defs>
</svg>
