<svg xmlns="http://www.w3.org/2000/svg" xmlns:xlink="http://www.w3.org/1999/xlink" width="90" height="55" viewBox="0 0 90 55">
  <defs>
    <clipPath id="clip-nginx">
      <rect width="90" height="55"/>
    </clipPath>
  </defs>
  <g id="nginx" clip-path="url(#clip-nginx)">
    <rect width="90" height="55" fill="#fff"/>
    <g id="A_2" data-name="A 2" transform="translate(-1248.511 -102.604)">
      <g id="Group_7" data-name="Group 7" transform="translate(1269.511 102.604)">
        <path id="Path_1736" data-name="Path 1736" d="M1269.513,130.118V117a1.168,1.168,0,0,1,.661-1.118l22.62-13.064a1.157,1.157,0,0,1,1.271-.051l22.721,13.114a1.22,1.22,0,0,1,.61,1.118v26.179a1.219,1.219,0,0,1-.61,1.118l-19.519,11.282-3.1,1.779a1.333,1.333,0,0,1-1.374,0l-22.67-13.065a1.141,1.141,0,0,1-.609-1.068V130.118Z" transform="translate(-1269.511 -102.604)" fill="#009438"/>
        <path id="Path_1737" data-name="Path 1737" d="M1298.029,142.654v15.283a3.16,3.16,0,0,1-3.2,3.2,2.987,2.987,0,0,1-2.576-1.473,2.639,2.639,0,0,1-.407-1.525V136.912a3.069,3.069,0,0,1,1.981-2.9,4.764,4.764,0,0,1,3.356,0,5.3,5.3,0,0,1,2.576,1.779l13.521,16.215a1.923,1.923,0,0,0,.2.254V136.809a2.963,2.963,0,0,1,2.7-3.05,3.073,3.073,0,0,1,3.506,2.645V158.04a2.854,2.854,0,0,1-1.576,2.645,4.461,4.461,0,0,1-2.438.457,5.55,5.55,0,0,1-3.356-1.424,18.871,18.871,0,0,1-1.322-1.525l-12.879-15.4c0-.051-.052-.1-.1-.172Z" transform="translate(-1282.017 -120.021)" fill="#fefefe"/>
      </g>
    </g>
  </g>
</svg>
