<svg xmlns="http://www.w3.org/2000/svg" xmlns:xlink="http://www.w3.org/1999/xlink" width="90" height="55" viewBox="0 0 90 55">
  <defs>
    <clipPath id="clip-okta">
      <rect width="90" height="55"/>
    </clipPath>
  </defs>
  <g id="okta" clip-path="url(#clip-okta)">
    <rect width="90" height="55" fill="#fff"/>
    <path id="okta-3" d="M25.477,15.105c0-4.68.007-9.363-.011-14.039A1,1,0,0,1,26.547.011C27.75,0,28.961,0,30.164.011a.988.988,0,0,1,1.073,1.062c-.018,4.141-.011,8.29-.011,12.431v.228a1,1,0,0,0,.632.976.938.938,0,0,0,1.124-.271q1.821-1.951,3.632-3.91c.741-.8,1.492-1.594,2.226-2.4a1.266,1.266,0,0,1,1.015-.441c1.514.011,3.035.011,4.55,0a.967.967,0,0,1,.99.553,1,1,0,0,1-.22,1.164q-3.409,3.773-6.808,7.549a4.5,4.5,0,0,0-.5.643,1.117,1.117,0,0,0-.018,1.225,5.906,5.906,0,0,0,.965,1.174q4.125,4.239,8.264,8.47a1.024,1.024,0,0,1,.264,1.16.929.929,0,0,1-.99.6c-1.684,0-3.372-.007-5.055,0a1.2,1.2,0,0,1-.943-.408c-2.446-2.569-4.911-5.124-7.368-7.683a.969.969,0,0,0-1.146-.293.991.991,0,0,0-.622,1.012v6.3A.913.913,0,0,1,30.2,30.185H26.5c-.741,0-1.03-.293-1.03-1.023ZM48.438,10.4c0-3.1.011-6.2-.011-9.294A1,1,0,0,1,49.541,0c1.171.007,2.334,0,3.5,0a.97.97,0,0,1,1.073,1.062c.007,1.807.007,3.617.011,5.424A1.051,1.051,0,0,0,55.3,7.672h4.86a.9.9,0,0,1,.95.781,4.125,4.125,0,0,1,.04.734v3c0,.784-.351,1.135-1.135,1.135-1.554,0-3.108-.007-4.662-.007a1.069,1.069,0,0,0-1.211,1.185c-.007,1.594-.033,3.18-.011,4.774A5.641,5.641,0,0,0,58.445,24.5a5.782,5.782,0,0,0,2.157.1.885.885,0,0,1,1.084.824c.148,1.261.282,2.526.412,3.787a.932.932,0,0,1-.8,1,10.174,10.174,0,0,1-3.979-.148,11.308,11.308,0,0,1-8.8-9.536,9.7,9.7,0,0,1-.09-1.406Zm41.582,14.8a.753.753,0,0,0-.759-.752c-.293-.011-.582-.022-.874-.047a2.466,2.466,0,0,1-2.537-2.287,19.169,19.169,0,0,1-.21-3.408c-.011-3.278-.007-6.555-.007-9.833,0-.1,0-.188-.007-.282a.939.939,0,0,0-.961-.911c-1.261-.007-2.526-.007-3.787,0a.974.974,0,0,0-1,.972c-.007.137,0,.278,0,.441-.108-.058-.192-.1-.271-.137a11.2,11.2,0,0,0-7.227-1.16,11.318,11.318,0,1,0,9.085,19.915c.152-.123.213-.119.332.047a5.564,5.564,0,0,0,2.634,2.053,8.59,8.59,0,0,0,3.729.43,3.429,3.429,0,0,0,1.312-.3.833.833,0,0,0,.538-.7c.025-1.344.018-2.689.011-4.033Zm-15.712-.582a5.652,5.652,0,1,1,5.673-5.551A5.667,5.667,0,0,1,74.308,24.613ZM11.373,7.628a11.325,11.325,0,1,0,11.3,11.56,11.268,11.268,0,0,0-11.3-11.56Zm-.04,16.984a5.657,5.657,0,1,1,5.655-5.659,5.675,5.675,0,0,1-5.655,5.659Z" transform="translate(-0.027 12)" fill="#007dc1"/>
  </g>
</svg>
