<svg xmlns="http://www.w3.org/2000/svg" xmlns:xlink="http://www.w3.org/1999/xlink" width="90" height="55" viewBox="0 0 90 55">
  <defs>
    <linearGradient id="linear-gradient" x1="0.5" y1="0.166" x2="0.5" y2="1.193" gradientUnits="objectBoundingBox">
      <stop offset="0" stop-color="#2684ff"/>
      <stop offset="0.82" stop-color="#0052cc"/>
    </linearGradient>
    <linearGradient id="linear-gradient-2" x1="0.412" y1="0.243" x2="0.677" y2="0.892" gradientUnits="objectBoundingBox">
      <stop offset="0" stop-color="#2684ff"/>
      <stop offset="0.62" stop-color="#0052cc"/>
    </linearGradient>
    <clipPath id="clip-opsgenie">
      <rect width="90" height="55"/>
    </clipPath>
  </defs>
  <g id="opsgenie" clip-path="url(#clip-opsgenie)">
    <rect width="90" height="55" fill="#fff"/>
    <g id="Layer_2" data-name="Layer 2" transform="translate(21.993 -0.64)">
      <g id="Layer_1" data-name="Layer 1" transform="translate(0.007 0.64)">
        <circle id="Ellipse_20" data-name="Ellipse 20" cx="13.724" cy="13.724" r="13.724" transform="translate(9.372)" fill="url(#linear-gradient)"/>
        <path id="Path_2117" data-name="Path 2117" d="M21.934,62.671A66.2,66.2,0,0,1,.2,39.954a1.539,1.539,0,0,1,.669-2.131l10.393-5.1a1.539,1.539,0,0,1,2.008.615A51.38,51.38,0,0,0,35.581,53.532a66.543,66.543,0,0,1-11.308,9.139,2.208,2.208,0,0,1-2.339,0Z" transform="translate(-0.007 -8.006)" fill="url(#linear-gradient-2)"/>
        <path id="Path_2118" data-name="Path 2118" d="M27.457,62.671A66.158,66.158,0,0,0,49.189,39.954a1.539,1.539,0,0,0-.662-2.131l-10.4-5.1a1.539,1.539,0,0,0-2.008.615A51.357,51.357,0,0,1,13.81,53.532a66.157,66.157,0,0,0,11.308,9.139A2.208,2.208,0,0,0,27.457,62.671Z" transform="translate(-3.192 -8.006)" fill="#2684ff"/>
      </g>
    </g>
  </g>
</svg>
