<svg id="Layer_1" data-name="Layer 1" xmlns="http://www.w3.org/2000/svg" width="90" height="55" viewBox="0 0 90 55"><defs><style>.cls-1{fill:#336791;}.cls-2{fill:#fff;}</style></defs><g id="postgresql"><path id="Path_138" data-name="Path 138" d="M71.53,33a2.7,2.7,0,0,0-2.25-1.81,5.12,5.12,0,0,0-1.79.1,16,16,0,0,1-2.76.36,53.12,53.12,0,0,0,5.63-13.42c1.88-7.24.87-10.54-.3-12A16.19,16.19,0,0,0,57,0a23.24,23.24,0,0,0-6.78,1,26.39,26.39,0,0,0-4-.36,13,13,0,0,0-6.91,1.7,32.55,32.55,0,0,0-4.88-1.22C29.71.28,25.87.9,23.05,2.88c-3.4,2.41-5,6.59-4.69,12.43a71.49,71.49,0,0,0,2.76,12.84,44,44,0,0,0,3,7.58c1.46,2.79,3,4.42,4.8,5a4.71,4.71,0,0,0,4.67-1,3.93,3.93,0,0,0,1,.84,6.64,6.64,0,0,0,1.86.79A10,10,0,0,0,42.89,41c0,.34,0,.66,0,.94,0,.45,0,.89.05,1.3a22.62,22.62,0,0,0,.86,6.49l.12.34a7.78,7.78,0,0,0,1.94,3.43A5.83,5.83,0,0,0,50,55a9.58,9.58,0,0,0,1.92-.22A9,9,0,0,0,58,51.28c1.59-2.27,2.37-5.69,2.51-11.07,0-.15,0-.3,0-.44l0-.28.38,0H61a14.86,14.86,0,0,0,6.22-1.08c1.24-.57,5.21-2.67,4.27-5.5"/><path id="Path_139" data-name="Path 139" class="cls-1" d="M68,33.5c-6.22,1.28-6.64-.83-6.64-.83,6.55-9.73,9.3-22.08,6.93-25.1C61.8-.68,50.62,3.22,50.44,3.32h-.06a22.31,22.31,0,0,0-4.15-.43,10.24,10.24,0,0,0-6.55,2s-19.94-8.21-19,10.33c.19,4,5.65,29.84,12.16,22,2.37-2.86,4.67-5.28,4.67-5.28a6.05,6.05,0,0,0,3.94,1l.11-.1A4.68,4.68,0,0,0,41.6,34c-1.68,1.87-1.18,2.2-4.54,2.89s-1.39,1.94-.1,2.27a6.89,6.89,0,0,0,7.69-2.5l-.09.39c.65.53,1.11,3.43,1,6.05s-.13,4.43.39,5.84,1,4.57,5.43,3.63c3.68-.79,5.59-2.84,5.86-6.25.19-2.42.61-2.06.64-4.23l.34-1c.4-3.28.06-4.34,2.33-3.85l.55,0a12.51,12.51,0,0,0,5.14-.86C69,35.08,70.68,32.94,68,33.5h0"/><path id="Path_140" data-name="Path 140" class="cls-2" d="M40.84,17a2,2,0,0,0-1.32.19.53.53,0,0,0-.21.33,1,1,0,0,0,.23.61,1.78,1.78,0,0,0,1.1.69h.18a1.42,1.42,0,0,0,1.35-.92c.07-.49-.64-.81-1.33-.91m18.55,0c0-.38-.74-.49-1.38-.4s-1.27.38-1.22.76a1.32,1.32,0,0,0,1.22.81h.16a1.58,1.58,0,0,0,.89-.49,1,1,0,0,0,.33-.67"/><path id="Path_141" data-name="Path 141" class="cls-2" d="M70,33.35c-.24-.71-1-1-2.26-.68-3.76.77-5.11.23-5.55-.09a51.64,51.64,0,0,0,6.62-14.86,28.24,28.24,0,0,0,1-6.39,6.9,6.9,0,0,0-1-4.32A14.69,14.69,0,0,0,56.93,1.47a20.33,20.33,0,0,0-6.87,1.08,17.31,17.31,0,0,0-3.86-.5,11.16,11.16,0,0,0-6.62,1.83A29.59,29.59,0,0,0,34.2,2.47c-4.36-.7-7.83-.17-10.3,1.58-2.95,2.09-4.31,5.83-4,11.1a69.83,69.83,0,0,0,2.7,12.47c2.1,6.89,4.39,10.78,6.79,11.58a2.89,2.89,0,0,0,1,.16,4,4,0,0,0,3.07-1.74c1.37-1.63,2.78-3.23,4.24-4.78a7,7,0,0,0,3,.82.25.25,0,0,0,0,.08l-.54.66c-.73.94-.89,1.13-3.25,1.62-.68.14-2.47.51-2.49,1.76s2.11,1.95,2.35,2a10.78,10.78,0,0,0,2.46.32,7.18,7.18,0,0,0,4.91-1.84c0,4.89.16,9.7.75,11.17.48,1.2,1.65,4.13,5.36,4.13a8.35,8.35,0,0,0,1.8-.21c3.87-.83,5.55-2.54,6.2-6.31.35-2,.94-6.82,1.22-9.4a8,8,0,0,0,2.18.27,12.9,12.9,0,0,0,5-1c1.4-.64,3.92-2.24,3.46-3.62ZM60.81,15.91a16,16,0,0,1-.23,2.18,19.87,19.87,0,0,0-.27,2.55,18.55,18.55,0,0,0,.2,2.89c.23,1.93.47,3.91-.45,5.87a8.16,8.16,0,0,1-.41-.84c-.11-.27-.36-.72-.7-1.33-1.34-2.4-4.47-8-2.87-10.31.48-.68,1.69-1.38,4.73-1ZM57.12,3A13,13,0,0,1,67.6,8c1.92,2.45-.19,13.58-6.29,23.18l-.19-.23-.08-.1c1.58-2.6,1.27-5.18,1-7.46a16.92,16.92,0,0,1-.19-2.66,19.05,19.05,0,0,1,.25-2.37,14.31,14.31,0,0,0,.24-2.93,1.12,1.12,0,0,0,0-.41,16.3,16.3,0,0,0-3.76-7.06,16.75,16.75,0,0,0-6-4.49A19.75,19.75,0,0,1,57.12,3ZM32.19,36.64c-1.23,1.48-2.08,1.2-2.36,1.11C28,37.14,25.89,33.28,24,27.17a68.34,68.34,0,0,1-2.63-12.1c-.24-4.71.91-8,3.4-9.76C28.84,2.43,35.51,4.15,38.18,5l-.12.11c-4.39,4.43-4.29,12-4.28,12.48,0,.18,0,.43,0,.78a31.27,31.27,0,0,1-.16,6.34,8,8,0,0,0,2.11,6.7c.18.18.36.36.55.52C35.57,32.76,33.93,34.55,32.19,36.64Zm4.69-6.26A6.49,6.49,0,0,1,35.19,25a32.76,32.76,0,0,0,.17-6.64q0-.28,0-.48c.64-.57,3.62-2.16,5.74-1.68a2.34,2.34,0,0,1,1.8,2c1.27,5.87.17,8.31-.72,10.28-.18.41-.35.79-.5,1.19l-.12.3a20.6,20.6,0,0,0-.72,2.18,5.45,5.45,0,0,1-3.93-1.74Zm.23,7.91a3.48,3.48,0,0,1-1-.44,4.69,4.69,0,0,1,1.09-.32c2.79-.58,3.22-1,4.16-2.17.21-.28.46-.59.8-1h0c.5-.56.73-.46,1.15-.29a1.63,1.63,0,0,1,.8,1,1.15,1.15,0,0,1-.1,1C42,38.84,39.16,38.81,37.11,38.29ZM51.69,51.86c-3.41.73-4.62-1-5.42-3-.51-1.28-.76-7.07-.58-13.46a.67.67,0,0,0,0-.24,3.26,3.26,0,0,0-.09-.45,3.13,3.13,0,0,0-1.69-2,2.37,2.37,0,0,0-1.57-.19,18.28,18.28,0,0,1,.68-2l.11-.31c.13-.35.29-.71.46-1.09.93-2.06,2.2-4.88.82-11.24-.52-2.39-2.24-3.55-4.85-3.28a11.3,11.3,0,0,0-3.71,1.16l-.42.22c.2-2.4,1-6.89,3.77-9.73a9.23,9.23,0,0,1,7-2.62A14.82,14.82,0,0,1,57.52,9a17.11,17.11,0,0,1,3.11,5.33c-2.87-.29-4.82.28-5.82,1.69C52.66,19.11,56,25.09,57.6,28c.29.53.54,1,.62,1.18a10.33,10.33,0,0,0,1.69,2.72c.15.19.3.38.41.54-.87.25-2.43.83-2.29,3.72-.12,1.46-.94,8.26-1.35,10.67-.54,3.18-1.71,4.36-5,5.06ZM65.91,35.58a11.21,11.21,0,0,1-3.79.79A4.75,4.75,0,0,1,59.57,36c-.08-1.8.59-2,1.3-2.19l.33-.1a1.66,1.66,0,0,0,.21.16c1.26.83,3.5.92,6.66.26h0A8.51,8.51,0,0,1,65.91,35.58Z"/></g></svg>