<svg xmlns="http://www.w3.org/2000/svg" xmlns:xlink="http://www.w3.org/1999/xlink" width="90" height="55" viewBox="0 0 90 55">
  <defs>
    <clipPath id="clip-prometheus">
      <rect width="90" height="55"/>
    </clipPath>
  </defs>
  <g id="prometheus" clip-path="url(#clip-prometheus)">
    <rect width="90" height="55" fill="#fff"/>
    <path id="prometheus-2" data-name="prometheus" d="M27.5.667A27.5,27.5,0,1,0,55,28.167,27.5,27.5,0,0,0,27.5.667Zm0,51.469c-4.321,0-7.825-2.886-7.825-6.446H35.325C35.325,49.249,31.822,52.136,27.5,52.136Zm12.924-8.581H14.576V38.868H40.425v4.687h0Zm-.093-7.1H14.649c-.086-.1-.173-.2-.255-.3a18.732,18.732,0,0,1-3.874-6.6c-.01-.056,3.208.657,5.491,1.171,0,0,1.174.272,2.891.585a10.731,10.731,0,0,1-2.628-6.9c0-5.513,4.228-10.33,2.7-14.223,1.485.121,3.072,3.133,3.18,7.843C23.735,15.855,24.4,11.872,24.4,9.43c0-2.529,1.666-5.466,3.333-5.566-1.486,2.448.385,4.547,2.047,9.754.623,1.956.544,5.247,1.025,7.334.16-4.335.905-10.661,3.655-12.844-1.213,2.75.18,6.191,1.132,7.846a14.867,14.867,0,0,1,2.469,8.516,10.639,10.639,0,0,1-2.544,6.866c1.816-.341,3.07-.648,3.07-.648l5.9-1.151A16.721,16.721,0,0,1,40.332,36.455Z" transform="translate(17 -0.667)" fill="#da4e31"/>
  </g>
</svg>
