<svg id="Layer_1" data-name="Layer 1" xmlns="http://www.w3.org/2000/svg" xmlns:xlink="http://www.w3.org/1999/xlink" width="90" height="55" viewBox="0 0 90 55"><defs><style>.cls-1{fill:none;}.cls-2{clip-path:url(#clip-path);}.cls-3{fill:#d1a41b;}.cls-4{fill:#ffdc76;}.cls-5{fill:#010202;}</style><clipPath id="clip-path"><rect class="cls-1" width="90" height="55"/></clipPath></defs><g class="cls-2"><path class="cls-3" d="M22.08,35.32c.84,1,1.73,2,2.66,3a12,12,0,0,0-5.87,3.85,11,11,0,0,0-2.59,7.64H11.41c1-2.13,4.89-8.28,10.67-14.48ZM78.64,51.11H72.71C59.09,44,47.12,39,34.42,37.89a25,25,0,0,1,.95-6l-1.17-.31a26.79,26.79,0,0,0-1,6.22c-1.33-.09-2.67-.13-4-.13A16.32,16.32,0,0,0,26.1,38a42.7,42.7,0,0,1-3.18-3.54A54.31,54.31,0,0,1,46.81,20.74,29,29,0,0,0,60.41,37.6c.45-.25.9-.53,1.34-.81L72.49,48.36l.44,0a5.88,5.88,0,0,1,5,1.85,3,3,0,0,1,.65.94Z"/><path class="cls-4" d="M73.41,12.41A26.05,26.05,0,0,1,60.56,36C47.62,29.5,45.19,13.16,47.38,4.39c.61,3.36,1.74,5.47,4.15,6.48a36.31,36.31,0,0,1,17.82-.15A10.07,10.07,0,0,0,72.9,4.48a52.53,52.53,0,0,1,.51,7.93Z"/><path class="cls-5" d="M40.84,22.51l2,5.87-6-4Zm-5.78,2.57,2.11,3.65-4.46-2.27Zm-4.81,2.86,1,3.64-3.08-2.1ZM63,37.73,61,40.66l3.36-1.54Zm3,3.37-3,2.35,4.24-1.1ZM58.47,9.36l2.27,5,1.47-5ZM47,16.58l3.58,1.91-3.23.22Zm.88,3.89,2.19.88-1.84.5ZM73.48,18l-3,1.23,2.42.37Zm-1.19,3.58L70,22.22l1.82.66ZM45.8,27h7.07v.87H45.8Zm0-2.09h7.07v.88H45.8ZM67.37,27h7.07v.87H67.37Zm0-2.09h7.07v.88H67.37Zm-2.5-5.18H53.36V19h3.58c.44-1.89.52-3.69,0-4.6a1.06,1.06,0,0,0-1-.57c-2,0-2.9,2.18-2.92,2.27l-.72-.29c0-.11,1.07-2.76,3.66-2.76a1.83,1.83,0,0,1,1.67,1c.66,1.12.57,3,.13,5h6.29c.83-2.46,2.56-3.6,5.46-3.6v.79c-3.16,0-4,1.34-4.68,2.84h3.43v.79Z"/><path class="cls-5" d="M65.39,23.68a4.34,4.34,0,0,1-.83-3.89h-.79a4.31,4.31,0,0,0,.52,3.38h-8a18.61,18.61,0,0,0,1.27-3.38h-.81a16.93,16.93,0,0,1-1.45,3.58l-.18.33,4.49,2.81-2.53,1.67.44.65L60.34,27l3,2,.44-.65L61,26.55c1.45-1,2.92-1.93,4.39-2.88Zm-5.07,2.37L57,24h6.48ZM74.73,11.46c0-1.36-.44-7.13-1.21-8.72-2.11.82-6,3.41-6.85,6.09a43.12,43.12,0,0,0-13,.15C53,6.1,49.49,3.91,46.88,2.68c-1.1,1.86-1.58,6.17-1.47,9.22h0c.48,12.83,6.79,20.83,15,25.68C68.88,32.77,75,23.3,74.73,11.46ZM67.68,9l.08,0S67.7,9,67.68,9Zm-.53-.09a1.74,1.74,0,0,0,.22,0A1.12,1.12,0,0,0,67.15,8.89Zm6.26,3.5A26.05,26.05,0,0,1,60.57,35.93c-12.94-6.45-15.4-22.8-13.18-31.56.61,3.36,1.73,5.47,4.15,6.48a36.15,36.15,0,0,1,17.81-.15,10.09,10.09,0,0,0,3.56-6.24,50.76,50.76,0,0,1,.5,7.93Z"/><path class="cls-5" d="M78.93,49.36c-1.35-1.5-3.94-2.2-6.11-2.13C71.28,45.38,62.32,36,62.32,36l-.61.79L72.54,48.37l.44,0a6,6,0,0,1,5,1.84,3.09,3.09,0,0,1,.61.95H72.69C59.07,44,47.1,39,34.41,37.89a24.75,24.75,0,0,1,.94-6l-1.16-.31a27.4,27.4,0,0,0-1,6.22c-1.33-.09-2.66-.13-4-.13a17.16,17.16,0,0,0-3.12.28,44.37,44.37,0,0,1-3.19-3.53A54,54,0,0,1,47,20.68l-.26-1.19c-9.1,2.2-19,8.17-24.6,13.93a18.69,18.69,0,0,1-3.89-8.48,9.22,9.22,0,0,1,1.89-7.25c2.52-3.14,6.12-3.36,9.84-2.75a2.43,2.43,0,0,0,.22,1.5c1,1.45,6.24,1.95,9.36.54-2.31-3.25-7-4.81-8.31-4.19a2.14,2.14,0,0,0-1,1.05,22.66,22.66,0,0,0-3.47-.39,9.26,9.26,0,0,0-7.62,3.47,10.35,10.35,0,0,0-2.13,8.17,20.5,20.5,0,0,0,4.26,9.19l-1.16,1.27C14.29,42.13,10,49.18,10,50.36V51h7.75l-.13-.72a9.51,9.51,0,0,1,2.22-7.36,10.88,10.88,0,0,1,5.91-3.62,75.79,75.79,0,0,0,9.62,7.84h5.76V46.5a2,2,0,0,0-1-1.69,4.3,4.3,0,0,0-3.6-.22,8.8,8.8,0,0,1-2.06-5.47C47,40.22,59,45.27,72.47,52.32h7.42l.09-.48a3.35,3.35,0,0,0-1-2.48ZM18.88,42.11a11,11,0,0,0-2.59,7.64H11.41c1-2.13,4.89-8.26,10.67-14.48.79,1,1.69,2,2.66,3a12.13,12.13,0,0,0-5.87,3.84Z"/></g></svg>