<svg xmlns="http://www.w3.org/2000/svg" xmlns:xlink="http://www.w3.org/1999/xlink" width="90" height="55" viewBox="0 0 90 55">
  <defs>
    <clipPath id="clip-v-center">
      <rect width="90" height="55"/>
    </clipPath>
  </defs>
  <g id="v-center" clip-path="url(#clip-v-center)">
    <rect width="90" height="55" fill="#fff"/>
    <g id="Group_2" data-name="Group 2" transform="translate(-652.86 -112.782)">
      <path id="Path_1718" data-name="Path 1718" d="M704.9,112.783q8.089,0,16.177,0a3.481,3.481,0,0,1,3.778,3.759q0,16.119,0,32.238a3.508,3.508,0,0,1-3.865,3.833c-3.2,0-6.39.015-9.584-.012-.539,0-.679.139-.675.676.025,3.573.015,7.147.012,10.721a3.508,3.508,0,0,1-3.768,3.782q-16.177,0-32.355,0a3.509,3.509,0,0,1-3.757-3.793q0-16.081,0-32.162a3.554,3.554,0,0,1,3.872-3.85c3.143-.008,6.287-.02,9.43.013.641.007.8-.173.8-.805-.031-3.548-.018-7.1-.014-10.644a3.459,3.459,0,0,1,3.771-3.755Q696.809,112.78,704.9,112.783Z" fill="#77bc1f"/>
      <path id="Path_1719" data-name="Path 1719" d="M707.052,117.114q7.96,0,15.919,0c1.346,0,1.7.35,1.7,1.67q0,15.975,0,31.95c0,1.283-.364,1.647-1.649,1.647-3.9,0-7.793.021-11.689-.018-.7-.007-.838.2-.833.857.03,4.224.017,8.448.015,12.672,0,1.328-.377,1.711-1.679,1.712q-15.957,0-31.915,0c-1.365,0-1.729-.365-1.729-1.738q0-15.86,0-31.719c0-1.422.326-1.741,1.775-1.741,3.87,0,7.741-.015,11.612.015.622,0,.757-.183.754-.773-.024-4.3-.014-8.6-.012-12.9,0-1.278.357-1.632,1.653-1.632Q699.016,117.112,707.052,117.114Z" transform="translate(-2.081 -2.078)" fill="#fefefe"/>
      <path id="Path_1720" data-name="Path 1720" d="M707.063,149.959q0-6.787,0-13.574c0-1.429.452-1.882,1.874-1.883q6.526,0,13.053,0c1.508,0,1.908.4,1.909,1.909q0,6.512,0,13.024c0,1.469-.388,1.855-1.861,1.856-3.119,0-6.239-.012-9.358.012-.575,0-.826-.089-.81-.753.04-1.654,0-1.655,1.691-1.655,2.412,0,4.823-.014,7.234.011.514,0,.726-.08.721-.666q-.043-5.335,0-10.67c0-.533-.173-.645-.671-.643q-5.386.029-10.773,0c-.5,0-.6.147-.6.623q.026,13.456.017,26.911c0,.288,0,.576-.013.862-.064,1.1-.519,1.577-1.62,1.58q-6.8.02-13.6,0a1.408,1.408,0,0,1-1.617-1.59q-.033-6.826,0-13.652a1.355,1.355,0,0,1,1.555-1.547c3.3-.013,6.605,0,9.908-.014.425,0,.585.092.6.557.042,1.848.061,1.848-1.8,1.848-2.333,0-4.666.021-7-.014-.618-.009-.85.1-.842.79.04,3.478.029,6.956.007,10.435,0,.546.082.77.713.764q5.308-.05,10.616,0c.566,0,.691-.174.688-.709C707.055,159.164,707.063,154.561,707.063,149.959Z" transform="translate(-10.439 -10.419)" fill="#ebb000"/>
      <path id="Path_1721" data-name="Path 1721" d="M709.714,123.634q5.927,0,11.855,0a2.172,2.172,0,0,1,.916.1,1.114,1.114,0,0,1,.74,1.225,1.079,1.079,0,0,1-1,1.015,6.42,6.42,0,0,1-.85.029q-10.964,0-21.929,0c-1.122,0-1.122,0-1.122,1.1,0,4.513-.013,9.026.014,13.539,0,.615-.169.77-.775.766-4.21-.026-8.42,0-12.63-.029-.641,0-.814.16-.812.806q.035,11.064.012,22.128a4.918,4.918,0,0,1-.061.922,1.07,1.07,0,0,1-1.141.943,1.107,1.107,0,0,1-1.159-.936,3.25,3.25,0,0,1-.044-.768q0-11.8,0-23.6c0-1.45.435-1.886,1.9-1.887,3.874,0,7.749-.015,11.622.012.589,0,.729-.162.726-.735-.024-4.281-.015-8.562-.013-12.843,0-1.36.439-1.791,1.819-1.792Q703.748,123.632,709.714,123.634Z" transform="translate(-5.212 -5.205)" fill="#78bc1f"/>
    </g>
  </g>
</svg>
