<svg width="90" height="55" viewBox="0 0 90 55" fill="none" xmlns="http://www.w3.org/2000/svg">
<path d="M34.0887 20.4005C26.7839 20.4005 19.0078 18.1843 19.0078 14.0852C19.0078 9.98614 26.765 7.77039 34.0887 7.77039C41.4123 7.77039 49.1695 9.9866 49.1695 14.0857C49.1695 18.1847 41.3842 20.4005 34.0887 20.4005ZM34.0887 9.65555C26.5485 9.65555 20.893 11.9932 20.893 14.0857C20.893 16.1781 26.548 18.5144 34.0887 18.5144C41.6293 18.5144 47.2844 16.1768 47.2844 14.0843C47.2844 11.9918 41.6196 9.65417 34.0887 9.65417V9.65555Z" fill="#232F3E"/>
<path d="M49.1996 14.3682H47.3145V30.3914H49.1996V14.3682Z" fill="#232F3E"/>
<path d="M34.0809 51.0049C26.7858 51.0049 19 48.8182 19 44.7557V14.3682H20.8852V44.775C20.8852 46.8486 26.5407 49.1581 34.0809 49.1581C41.6211 49.1581 47.2765 46.8495 47.2765 44.775V41.7024H49.1636V44.775C49.1991 48.8372 41.3856 51.0049 34.0809 51.0049Z" fill="#232F3E"/>
<path d="M34.0887 31.0512C26.7936 31.0512 19.0078 28.835 19.0078 24.736H20.893C20.893 26.8284 26.5485 29.1661 34.0887 29.1661C41.6289 29.1661 47.2844 26.8284 47.2844 24.736H49.1695C49.1506 28.836 41.3934 31.0512 34.0887 31.0512Z" fill="#232F3E"/>
<path d="M34.157 41.4193C26.862 41.4193 19.0762 39.2031 19.0762 35.104H20.9613C20.9613 37.1965 26.6168 39.5341 34.157 39.5341C37.2425 39.5756 40.3152 39.1303 43.262 38.2145L43.8654 39.9958C40.7248 40.98 37.448 41.4605 34.157 41.4193Z" fill="#232F3E"/>
<path d="M56.2133 51.8254C55.9634 51.8254 55.7237 51.7261 55.5469 51.5494C55.3702 51.3727 55.2709 51.133 55.2709 50.8831C55.2709 44.4076 47.872 36.9897 41.3684 36.9897C41.1184 36.9897 40.8786 36.8904 40.7019 36.7136C40.5251 36.5369 40.4258 36.2971 40.4258 36.0471C40.4258 35.7971 40.5251 35.5574 40.7019 35.3806C40.8786 35.2039 41.1184 35.1046 41.3684 35.1046C47.8623 35.1046 55.2709 27.6959 55.2709 21.202C55.2709 20.952 55.3702 20.7122 55.547 20.5355C55.7238 20.3587 55.9635 20.2594 56.2135 20.2594C56.4635 20.2594 56.7033 20.3587 56.88 20.5355C57.0568 20.7122 57.1561 20.952 57.1561 21.202C57.1561 27.6959 64.555 35.1046 71.0587 35.1046C71.3087 35.1046 71.5484 35.2039 71.7252 35.3806C71.9019 35.5574 72.0013 35.7971 72.0013 36.0471C72.0013 36.2971 71.9019 36.5369 71.7252 36.7136C71.5484 36.8904 71.3087 36.9897 71.0587 36.9897C64.555 36.9897 57.1561 44.3886 57.1561 50.8831C57.1561 51.0068 57.1317 51.1294 57.0843 51.2438C57.0369 51.3581 56.9675 51.462 56.8799 51.5496C56.7924 51.6371 56.6884 51.7065 56.574 51.7538C56.4597 51.8011 56.3371 51.8255 56.2133 51.8254ZM45.9864 36.0469C50.5931 38.0094 54.2591 41.6821 56.2133 46.2923C58.1703 41.675 61.8474 38.0006 66.466 36.0469C61.8467 34.0893 58.1699 30.4116 56.2133 25.7918C54.2595 30.4046 50.5937 34.0804 45.9864 36.0469Z" fill="#232F3E"/>
<path d="M62.3949 13.4253H60.5098V19.0808H62.3949V13.4253Z" fill="#232F3E"/>
<path d="M64.2805 15.3104H58.625V17.1956H64.2805V15.3104Z" fill="#232F3E"/>
<path d="M52.0258 4H50.1406V9.65549H52.0258V4Z" fill="#232F3E"/>
<path d="M53.9114 5.88513H48.2559V7.7703H53.9114V5.88513Z" fill="#232F3E"/>
</svg>
