<svg width="90" height="55" viewBox="0 0 90 55" fill="none" xmlns="http://www.w3.org/2000/svg">
<g clip-path="url(#clip0_5388_3063)">
<path fill-rule="evenodd" clip-rule="evenodd" d="M30.6602 21.4793C30.6602 22.3147 30.6602 23.15 30.9368 23.4283C30.9368 23.9854 31.2133 24.5422 31.4927 25.099C31.7692 25.3775 31.7691 25.3775 31.7691 25.6561C31.7691 25.9344 31.4927 26.2128 31.2133 26.2128C29.8308 27.3268 29.8308 27.3268 29.8308 27.3268C29.8308 27.3268 29.5544 27.3268 29.2779 27.3268C29.2779 27.3268 29.0014 27.3267 28.7249 27.0482C28.4483 26.7696 28.169 26.4914 27.8925 26.2128C27.6159 25.6561 27.3396 25.3775 27.3396 24.8207C25.4042 26.7696 23.4655 27.8835 20.698 27.8835C18.7608 27.8835 17.3769 27.3268 16.2698 26.2128C15.1629 25.099 14.6094 23.7068 14.6094 22.0361C14.6094 20.087 15.4397 18.4163 16.8233 17.3026C17.9304 16.1888 19.8676 15.632 22.0819 15.632C22.9119 15.632 23.7422 15.632 24.5717 15.9102C25.1247 15.9102 26.2336 16.1888 27.063 16.1888C27.063 14.7966 27.063 14.7966 27.063 14.7966C27.063 13.1259 26.51 11.7335 25.9571 11.1767C25.1247 10.3414 24.019 10.0628 22.3583 10.0628C21.5283 10.0628 20.698 10.3414 19.8676 10.3414C19.0376 10.6199 18.484 10.8982 17.6537 11.1767C17.1001 11.4553 16.8233 11.4552 16.8233 11.4552C16.5465 11.4552 16.5465 11.4552 16.5465 11.4552C16.2698 11.4552 15.9933 11.1767 15.9933 10.8982C15.9933 9.78428 15.9933 9.78428 15.9933 9.78428C15.9933 9.50603 15.9933 9.22749 16.2698 8.94923C16.2698 8.94923 16.5465 8.67067 16.8233 8.39213C17.6537 8.11358 18.484 7.83534 19.5908 7.5568C20.698 7.27825 21.8051 7 22.9119 7C25.6806 7 27.616 7.5568 28.7249 8.94923C30.1073 10.0628 30.6602 12.012 30.6602 14.2395C30.6602 21.4793 30.6602 21.4793 30.6602 21.4793ZM21.8051 24.8207C22.3583 24.8207 23.1887 24.8207 24.019 24.5422C24.8482 24.2637 25.4042 23.7068 25.9571 23.15C26.51 22.593 26.7865 22.3147 26.7865 21.7576C27.063 21.2008 27.063 20.644 27.063 19.8086C27.063 18.6948 27.063 18.6948 27.063 18.6948C26.51 18.6948 25.6806 18.4163 25.1247 18.4163C24.2953 18.4163 23.7422 18.4163 22.9119 18.4163C21.5283 18.4163 20.4212 18.6948 19.5908 19.2516C18.7608 19.8087 18.484 20.644 18.484 21.7576C18.484 22.8714 18.7608 23.7068 19.314 23.9854C19.8676 24.5421 20.698 24.8207 21.8051 24.8207ZM39.5167 27.3268C38.9637 27.3268 38.6873 27.3267 38.6873 27.0482C38.4107 27.0482 38.1342 26.7696 38.1342 26.2128C32.8751 8.94923 32.8751 8.94923 32.8751 8.94923C32.8751 8.67068 32.5987 8.39214 32.5987 8.11359C32.5987 7.83535 32.8751 7.5568 33.1516 7.5568C35.3665 7.5568 35.3664 7.5568 35.3664 7.5568C35.9194 7.5568 36.1959 7.5568 36.1959 7.83535C36.4724 7.83535 36.4724 8.39214 36.7489 8.67068C40.3461 23.4283 40.3461 23.4283 40.3461 23.4283C43.9464 8.67069 43.9463 8.67068 43.9463 8.67068C43.9463 8.39214 44.2228 7.83535 44.2228 7.83535C44.4993 7.83535 44.7758 7.5568 45.0522 7.5568C46.9907 7.5568 46.9907 7.5568 46.9907 7.5568C47.2671 7.5568 47.5436 7.5568 47.8201 7.83535C48.0965 7.83535 48.0965 8.39214 48.3731 8.67068C51.6939 23.7068 51.6938 23.7068 51.6938 23.7068C55.5676 8.67068 55.5676 8.67068 55.5676 8.67068C55.5676 8.39214 55.847 7.83535 56.1236 7.83535C56.1236 7.83535 56.3999 7.5568 56.953 7.5568C58.8913 7.5568 58.8913 7.5568 58.8913 7.5568C59.1678 7.5568 59.4444 7.83535 59.4444 8.11359C59.4444 8.39214 59.4444 8.39213 59.4444 8.39213C59.4444 8.67067 59.4442 8.94923 59.1678 8.94923C53.9087 26.2128 53.9087 26.2128 53.9087 26.2128C53.9087 26.7696 53.6322 27.0482 53.3557 27.0482C53.3557 27.3267 53.0793 27.3268 52.5233 27.3268C50.8644 27.3268 50.8644 27.3268 50.8644 27.3268C50.3114 27.3268 50.035 27.3267 49.7585 27.0482C49.7585 27.0482 49.479 26.7696 49.479 26.2128C46.1582 12.0121 46.1582 12.012 46.1582 12.012C42.561 26.2128 42.561 26.2128 42.561 26.2128C42.561 26.7696 42.2845 27.0482 42.2845 27.0482C42.0079 27.3267 41.7315 27.3268 41.455 27.3268H39.5167ZM67.7447 27.8835C66.6389 27.8835 65.5329 27.8835 64.424 27.6051C63.3181 27.3267 62.4885 27.0482 61.9356 26.7696C61.3797 26.4914 61.3797 26.2128 61.1032 25.9344C61.1032 25.9344 61.1032 25.6561 61.1032 25.3775C61.1032 24.2637 61.1032 24.2637 61.1032 24.2637C61.1032 23.7068 61.1032 23.7068 61.6561 23.7068H61.9356C62.2121 23.7068 62.2121 23.7068 62.4885 23.9854C63.3181 24.2637 64.1475 24.5422 64.9799 24.5422C65.8093 24.8207 66.6389 24.8207 67.4683 24.8207C68.8536 24.8207 69.9596 24.5421 70.7891 24.2637C71.6215 23.7068 71.8979 22.8715 71.8979 22.0361C71.8979 21.4793 71.6215 20.9223 71.345 20.644C71.0685 20.087 70.2361 19.8087 69.1301 19.2516C65.8093 18.4163 65.8093 18.4163 65.8093 18.4163C64.424 17.8594 63.0416 17.0241 62.4885 16.1888C61.6562 15.0749 61.3797 13.9613 61.3797 12.8474C61.3797 12.0121 61.3797 11.1767 61.9356 10.3414C62.2121 9.78428 62.765 8.94923 63.3181 8.67068C64.1475 8.11359 64.9799 7.55679 65.8093 7.27825C66.6389 7.27825 67.4683 7 68.5772 7C69.1301 7 69.4067 7 69.9596 7C70.5126 7.27825 71.0685 7.27825 71.345 7.27825C71.8979 7.55679 72.4509 7.5568 72.7274 7.83535C73.0038 7.83535 73.2804 8.11359 73.5569 8.11359C73.8334 8.39214 74.1128 8.39214 74.3893 8.67068C74.3893 8.94923 74.3893 9.22749 74.3893 9.50603C74.3893 10.3414 74.3893 10.3414 74.3893 10.3414C74.3893 10.8982 74.3893 11.1767 74.1128 11.1767C73.8334 11.1767 73.5569 11.1767 73.2804 10.8982C71.8979 10.3414 70.5126 10.0628 68.8536 10.0628C67.7447 10.0628 66.6389 10.3414 66.0858 10.6199C65.2564 11.1767 64.9799 11.7335 64.9799 12.5688C64.9799 13.1259 65.2564 13.6827 65.5329 14.2395C66.0858 14.5181 66.9153 15.0749 68.0242 15.3534C71.0685 16.4673 71.0685 16.4673 71.0685 16.4673C72.7274 17.0241 73.8334 17.5809 74.6658 18.6948C75.2187 19.5302 75.4952 20.644 75.4952 21.7576C75.4952 22.593 75.4952 23.4283 74.9422 24.2637C74.6658 25.099 74.1127 25.6561 73.2804 26.2128C72.7274 26.7696 71.8979 27.0482 71.0685 27.3268C69.9596 27.8835 68.8536 27.8835 67.7447 27.8835Z" fill="#252F3E"/>
<path fill-rule="evenodd" clip-rule="evenodd" d="M72.0957 38.7871C64.8894 43.9903 54.3564 47.0025 45.2089 47.0025C32.4582 47.0025 21.0931 42.347 12.2232 34.4053C11.6687 33.8577 12.2232 33.0361 13.0547 33.5839C22.4791 39.0609 34.1201 42.0731 46.0413 42.0731C54.08 42.0731 62.9481 40.4301 70.9868 37.144C72.3722 36.5964 73.481 37.9655 72.0957 38.7871ZM75.1459 35.501C74.3135 34.1315 69.0455 34.6791 66.8307 34.953C65.9983 35.2272 65.9983 34.6792 66.5513 34.1315C70.7103 31.1193 77.6401 31.9408 78.1932 33.0361C79.0256 33.8577 78.1932 40.7039 74.3135 43.9903C73.481 44.538 72.9281 44.2641 73.2046 43.4426C74.037 41.5254 76.2548 36.5964 75.1459 35.501Z" fill="#FF9900"/>
</g>
<defs>
<clipPath id="clip0_5388_3063">
<rect width="66.4865" height="41" fill="white" transform="translate(12 7)"/>
</clipPath>
</defs>
</svg>
