<svg width="90" height="55" viewBox="0 0 90 55" fill="none" xmlns="http://www.w3.org/2000/svg">
<path d="M34.4 40.4399H47.6V53.6399H34.4V40.4399ZM20.8333 53.6399H32.2V40.4399H19V51.8066C19 52.2928 19.1932 52.7591 19.537 53.1029C19.8808 53.4468 20.3471 53.6399 20.8333 53.6399ZM19 38.3621H32.2V25.0399H19V38.3621Z" fill="url(#paint0_linear_5395_3853)"/>
<path fill-rule="evenodd" clip-rule="evenodd" d="M52.4588 2.00097C54.8662 1.97602 57.2541 2.43433 59.4812 3.34876C61.7082 4.26319 63.7292 5.61516 65.4244 7.32462C67.1196 9.03408 68.4546 11.0663 69.3504 13.3009C70.2462 15.5356 70.6845 17.9272 70.6394 20.3343C70.6639 22.7286 70.2104 25.1038 69.3054 27.3206C68.4004 29.5374 67.0622 31.5514 65.3691 33.2445C63.6759 34.9377 61.662 36.2759 59.4451 37.1809C57.2283 38.0859 54.8532 38.5394 52.4588 38.5149H34.2783V20.1815C34.2538 17.7872 34.7073 15.4121 35.6123 13.1952C36.5172 10.9784 37.8555 8.96441 39.5486 7.27129C41.2417 5.57816 43.2557 4.23991 45.4725 3.33494C47.6894 2.42996 50.0645 1.97645 52.4588 2.00097Z" fill="url(#paint1_linear_5395_3853)"/>
<path d="M40.5117 17.5843H44.6673V30.0509H40.5117V17.5843ZM48.8228 21.7398H52.9784V30.0509H48.8228V21.7398ZM57.1339 13.4287H61.2895V30.0509H57.1339V13.4287Z" fill="white"/>
<defs>
<linearGradient id="paint0_linear_5395_3853" x1="33.3" y1="53.6399" x2="33.3" y2="25.0399" gradientUnits="userSpaceOnUse">
<stop stop-color="#1988D9"/>
<stop offset="0.9" stop-color="#54AEF0"/>
</linearGradient>
<linearGradient id="paint1_linear_5395_3853" x1="52.4588" y1="38.3621" x2="52.4588" y2="2.00097" gradientUnits="userSpaceOnUse">
<stop stop-color="#198AB3"/>
<stop offset="0.01" stop-color="#198BB4"/>
<stop offset="0.44" stop-color="#27B2D7"/>
<stop offset="0.79" stop-color="#2FCBED"/>
<stop offset="1" stop-color="#32D4F5"/>
</linearGradient>
</defs>
</svg>
