<svg width="90" height="55" viewBox="0 0 90 55" fill="none" xmlns="http://www.w3.org/2000/svg">
<g clip-path="url(#clip0_5388_2942)">
<mask id="mask0_5388_2942" style="mask-type:luminance" maskUnits="userSpaceOnUse" x="0" y="0" width="90" height="55">
<path d="M90 0H0V55H90V0Z" fill="white"/>
</mask>
<g mask="url(#mask0_5388_2942)">
<path d="M69.9331 16.1699C69.9513 15.317 69.7444 14.4743 69.3331 13.7269C68.9089 13.0033 68.2974 12.4074 67.5631 12.0019C61.0484 8.24524 54.5325 4.49125 48.0151 0.739916C47.2351 0.247981 46.3298 -0.00881352 45.4076 0.000230937C44.4854 0.00927539 43.5854 0.28377 42.8151 0.790911C40.2221 2.31991 27.2401 9.75792 23.3711 11.9989C22.6248 12.4016 22.007 13.0061 21.5881 13.7433C21.1691 14.4805 20.9661 15.3208 21.0021 16.1679C21.0021 23.7219 21.0021 31.2763 21.0021 38.8309C20.9839 39.6667 21.1808 40.4932 21.5741 41.2309C21.9993 41.9762 22.6223 42.5894 23.3741 43.0029C27.2431 45.2439 40.2271 52.6809 42.8201 54.2109C43.5904 54.7181 44.4904 54.9926 45.4126 55.0016C46.3348 55.0107 47.2401 54.7539 48.0201 54.2619C54.5328 50.5019 61.0495 46.7483 67.5701 43.0009C68.3219 42.5874 68.9448 41.9742 69.3701 41.2289C69.7632 40.4911 69.9602 39.6647 69.9421 38.8289C69.9421 38.8289 69.9421 23.7289 69.9421 16.1699" fill="#A179DC"/>
<path d="M45.5433 27.426L21.5723 41.226C21.9975 41.9712 22.6204 42.5845 23.3723 42.998C27.2413 45.239 40.2252 52.676 42.8182 54.206C43.5885 54.7131 44.4886 54.9876 45.4108 54.9966C46.3329 55.0057 47.2382 54.7489 48.0182 54.257C54.5309 50.497 61.0476 46.7433 67.5682 42.996C68.3201 42.5825 68.9431 41.9692 69.3683 41.224L45.5472 27.424" fill="#280068"/>
<path d="M69.933 16.1699C69.9514 15.317 69.7444 14.4743 69.333 13.7269L45.541 27.4269L69.3621 41.2269C69.7549 40.489 69.9518 39.6627 69.934 38.8269C69.934 38.8269 69.934 23.7219 69.934 16.1679" fill="#390091"/>
<path d="M59.6552 22.267V24.847H62.2352V22.267H63.5251V24.847H66.1052V26.137H63.5251V28.717H66.1052V30.007H63.5251V32.587H62.2352V30.007H59.6552V32.587H58.3652V30.007H55.7852V28.717H58.3652V26.137H55.7852V24.847H58.3652V22.267H59.6552ZM62.2352 26.137H59.6552V28.717H62.2352V26.137Z" fill="white"/>
<path d="M45.5957 9.31598C48.7876 9.31471 51.9236 10.1537 54.6885 11.7486C57.4534 13.3436 59.7497 15.6382 61.3467 18.402L61.3157 18.349L53.3987 22.908C52.6079 21.5644 51.4836 20.4479 50.1346 19.6665C48.7856 18.8851 47.2576 18.4654 45.6987 18.448H45.5987C44.0044 18.4478 42.4383 18.8684 41.0586 19.6673C39.6789 20.4662 38.5345 21.6152 37.7411 22.998C36.9476 24.3808 36.5332 25.9486 36.5397 27.5429C36.5462 29.1372 36.9734 30.7015 37.7781 32.0778C38.5828 33.4541 39.7365 34.5937 41.1226 35.3813C42.5088 36.169 44.0782 36.5768 45.6725 36.5637C47.2667 36.5505 48.8293 36.1168 50.2022 35.3063C51.5752 34.4959 52.7099 33.3374 53.4917 31.948L53.4547 32.014L61.3547 36.593C59.776 39.331 57.511 41.6102 54.783 43.206C52.0549 44.8017 48.958 45.6589 45.7977 45.693H45.5977C40.7736 45.693 36.147 43.7766 32.7358 40.3654C29.3246 36.9542 27.4082 32.3276 27.4082 27.5035C27.4082 22.6793 29.3246 18.0527 32.7358 14.6415C36.147 11.2303 40.7736 9.31396 45.5977 9.31396L45.5957 9.31598Z" fill="white"/>
</g>
</g>
<defs>
<clipPath id="clip0_5388_2942">
<rect width="90" height="55" fill="white"/>
</clipPath>
</defs>
</svg>
