<svg width="90" height="55" viewBox="0 0 90 55" fill="none" xmlns="http://www.w3.org/2000/svg">
<rect width="90" height="55" fill="white"/>
<g clip-path="url(#clip0_1_14)">
<path d="M78.8245 37.7992L45.4243 34.2343L12.0017 37.8038L45.4157 46.8008L78.8245 37.7992Z" fill="#B7CA9D"/>
<path d="M18.6895 37.3835L24.3355 38.6658L24.8499 38.2413V9.53661L24.3355 9.04636L18.6895 10.6156V37.3835Z" fill="#4B612C"/>
<path d="M44.3251 36.1147L24.3354 38.6658V9.04712L44.3251 12.3134V36.1147Z" fill="#759C3E"/>
<path d="M35.4122 41.1341L27.6211 39.3891V2.83118L35.4122 0.000762939L36.094 0.540332V40.5306L35.4122 41.1341Z" fill="#4B612C"/>
<path d="M62.1102 36.5833L35.4121 41.1341V0L62.1102 7.56079V36.5833Z" fill="#759C3E"/>
<path d="M45.404 46.4113L12.0017 37.8038V42.7963L45.404 54.931V46.4113Z" fill="#4B612C"/>
<path d="M78.8243 42.7904L45.4038 54.931V46.4113L78.8243 37.7992V42.7904Z" fill="#759C3E"/>
<path d="M69.4375 29.5278H61.3389L38.2524 30.6706L45.4129 31.6297L69.4375 29.5278Z" fill="#B7CA9D"/>
<path d="M38.2524 41.7063L45.4098 43.2664L45.6157 43.1054L45.6097 31.3754L45.4038 31.2317L38.2524 30.6707V41.7063Z" fill="#4B612C"/>
<path d="M69.4376 29.5278L45.4038 31.2309L45.4098 43.2664L69.4376 38.0109V29.5278Z" fill="#759C3E"/>
</g>
<defs>
<clipPath id="clip0_1_14">
<rect width="66.8259" height="55" fill="white" transform="translate(12)"/>
</clipPath>
</defs>
</svg>
