<svg width="90" height="62" viewBox="0 0 90 62" fill="none" xmlns="http://www.w3.org/2000/svg">
<rect width="90" height="61.6006" fill="white"/>
<path fill-rule="evenodd" clip-rule="evenodd" d="M39.8265 10.9495V32.4891H22.8832V10.9495H39.8265ZM43.1043 10.3899V33.0483C43.105 34.302 41.925 35.3224 40.4741 35.3224H22.2358C20.7855 35.3224 19.6055 34.302 19.6055 33.0483V10.3899C19.6055 9.1362 20.7855 8.11621 22.2358 8.11621H40.4741C41.9245 8.11621 43.1043 9.1362 43.1043 10.3899ZM39.8265 43.8033V50.6153H22.8832V43.8033H39.8265ZM40.4741 53.4487H22.2358C20.7855 53.4487 19.6055 52.4287 19.6055 51.1744V43.2441C19.6055 41.9905 20.7855 40.97 22.2358 40.97H40.4741C41.9245 40.97 43.1043 41.99 43.1043 43.2441V51.1744C43.105 52.4287 41.925 53.4487 40.4741 53.4487ZM68.7719 50.6159V29.0763H51.8275V50.6159H68.7719ZM72.0497 51.1751V28.5168C72.0497 27.263 70.8692 26.243 69.4188 26.243H51.1806C49.7297 26.243 48.5497 27.263 48.5497 28.5168V51.1751C48.5497 52.4292 49.7303 53.4492 51.1806 53.4492H69.4183C70.8692 53.4492 72.0492 52.4292 72.0497 51.1751ZM68.7715 10.9495V17.761H51.8275V10.9495H68.7715ZM69.4183 20.5943H51.1806C49.7303 20.5943 48.5497 19.5743 48.5497 18.3201V10.3899C48.5497 9.1362 49.7297 8.11621 51.1806 8.11621H69.4188C70.8692 8.11621 72.0492 9.1362 72.0492 10.3899V18.3206C72.0492 19.5743 70.8692 20.5943 69.4183 20.5943Z" fill="url(#paint0_linear_1382_206)"/>
<defs>
<linearGradient id="paint0_linear_1382_206" x1="45.8277" y1="8.11621" x2="45.8277" y2="53.4492" gradientUnits="userSpaceOnUse">
<stop stop-color="#0044EE"/>
<stop offset="1" stop-color="#23B5E9"/>
</linearGradient>
</defs>
</svg>
