<svg width="90" height="55" viewBox="0 0 90 55" fill="none" xmlns="http://www.w3.org/2000/svg">
<g clip-path="url(#clip0_5375_2772)">
<path fill-rule="evenodd" clip-rule="evenodd" d="M4.93592 27.3165C4.92028 30.2865 7.10137 32.057 10.5819 31.252V23.3811C7.05737 22.3094 4.95066 24.4776 4.93592 27.3165ZM10.6884 12H15.4822V34.6556C10.8872 35.4057 6.48633 35.8814 3.338 34.1237C-0.715752 31.8607 -1.04164 24.6694 2.1661 21.4665C3.79248 19.8427 7.06667 18.6995 10.5819 19.4455V12.3192C10.5727 12.1681 10.5642 12.0178 10.6884 12Z" fill="black"/>
<path fill-rule="evenodd" clip-rule="evenodd" d="M23.2586 16.9991H18.4648V12H23.2586V16.9991Z" fill="black"/>
<path fill-rule="evenodd" clip-rule="evenodd" d="M80.7847 31.4647C86.0106 33.4925 86.5888 22.1252 81.3174 23.1683C78.0438 23.8161 78.1489 30.442 80.7847 31.4647ZM80.9978 19.2328C84.9886 18.8068 87.9994 20.5652 89.2005 23.2747C91.25 27.8977 89.0878 33.2024 85.7916 34.7621C84.0833 35.5705 82.2944 35.6474 80.6782 35.5066C75.6829 35.0716 72.5324 29.9886 74.2866 24.3383C74.5611 23.4539 74.8695 22.913 75.0323 22.6365C76.1182 20.7931 77.9514 19.5581 80.9978 19.2328Z" fill="black"/>
<path fill-rule="evenodd" clip-rule="evenodd" d="M29.863 29.6566C28.5371 31.8814 31.8684 32.4144 34.0174 31.7839V28.4866C32.3662 28.7167 30.4867 28.6096 29.863 29.6566ZM38.2786 34.8684C34.3187 35.0959 28.3008 36.4427 26.1344 33.8048C24.8617 32.2549 24.9986 29.2987 26.1344 27.8483C27.6023 25.9744 30.8065 25.5657 33.6979 25.2956C33.9604 24.6503 33.7834 23.6003 33.4848 23.1682C30.8401 22.4955 28.2123 23.5378 26.3476 24.3382V20.6156C29.164 19.3235 35.6877 17.9631 37.6395 20.9346C38.6645 22.4953 38.2786 25.2172 38.2786 27.6355V34.8684Z" fill="black"/>
<path fill-rule="evenodd" clip-rule="evenodd" d="M55.1079 35.0812H50.3142V28.9119C50.3142 26.8807 50.6432 24.3051 49.5683 23.4873C48.7265 22.8465 46.7293 23.1681 45.5204 23.4873V35.0812H40.7266V20.2964C45.627 19.0254 54.4726 17.6627 55.1079 23.8064C55.4212 26.8354 54.8758 31.3798 55.1079 35.0812Z" fill="black"/>
<path fill-rule="evenodd" clip-rule="evenodd" d="M62.2471 29.9757C63.0538 31.2788 65.2382 31.7674 67.0408 30.9329C66.9418 28.4436 66.9072 25.89 66.9343 23.2747C62.7914 22.1818 60.3224 26.8672 62.2471 29.9757ZM74.2848 19.8711C73.8581 21.147 73.2337 22.2251 72.6869 23.3812C72.1928 23.4917 71.7647 23.1851 71.515 23.3812C71.4057 28.566 72.6209 35.5948 70.5563 39.3357C69.3131 41.5881 67.0244 43.0331 63.5254 43.2713C60.9765 43.4448 58.9981 43.029 57.1337 42.314V37.8467C59.3205 39.1215 64.8462 40.1608 66.4017 37.5275C66.8593 36.7528 66.8303 35.952 67.0408 34.7621C66.0393 34.8146 65.0671 35.2777 63.845 35.294C58.821 35.3605 55.7128 31.3663 56.9207 25.8274C57.3878 23.6848 58.6451 21.9598 60.3297 20.9347C63.8283 18.8056 69.2061 18.9673 74.2848 19.8711Z" fill="black"/>
<path fill-rule="evenodd" clip-rule="evenodd" d="M23.2594 19.5305C23.2539 23.0551 23.2547 25.5878 23.2544 29.8697C23.0507 34.0776 23.0981 37.4285 21.555 39.442C21.2506 39.839 20.6043 40.4183 20.0635 40.8248C19.6094 41.1662 18.7439 41.8584 18.2526 41.8885C17.7573 41.9189 16.4848 41.202 15.9089 40.9311C15.1527 40.5755 14.4536 40.1033 13.6719 39.8676C15.4953 38.7394 17.2263 37.8935 17.9329 35.613C18.5475 33.6296 18.4656 30.7556 18.4656 27.9547C18.4656 25.189 18.478 21.9736 18.478 19.5318L23.2594 19.5305Z" fill="black"/>
</g>
<defs>
<clipPath id="clip0_5375_2772">
<rect width="90" height="55" fill="white"/>
</clipPath>
</defs>
</svg>
