<svg width="90" height="55" viewBox="0 0 90 55" fill="none" xmlns="http://www.w3.org/2000/svg">
<g clip-path="url(#clip0_1379_174)">
<rect width="90" height="55" fill="white"/>
<path d="M42.3159 22.7656C41.8359 22.7506 41.446 23.1256 41.431 23.5905V27.9103C39.3761 26.2604 36.3612 26.5904 34.7113 28.6453C34.0363 29.5002 33.6614 30.5502 33.6614 31.6451C33.6164 34.285 35.7163 36.4599 38.3561 36.5049C40.996 36.5499 43.1709 34.45 43.2159 31.8101V23.6505C43.2159 23.4105 43.1259 23.1856 42.9609 23.0206C42.7809 22.8556 42.5559 22.7656 42.3159 22.7656ZM41.191 32.8001C40.891 33.52 40.321 34.09 39.6011 34.405C38.8511 34.72 38.0111 34.72 37.2612 34.405C36.5412 34.105 35.9862 33.52 35.6862 32.8151C35.3713 32.0801 35.3713 31.2401 35.6862 30.4902C35.9862 29.7702 36.5562 29.2002 37.2612 28.9003C38.0111 28.5853 38.8511 28.5853 39.6011 28.9003C40.321 29.2152 40.891 29.7852 41.191 30.5052C41.506 31.2251 41.506 32.0651 41.191 32.8001ZM52.2904 28.2703C50.4305 26.4104 47.4007 26.4104 45.5407 28.2703C44.6408 29.1702 44.1458 30.3852 44.1458 31.6451C44.1008 34.285 46.2007 36.4599 48.8406 36.5049C51.4804 36.5499 53.6553 34.45 53.7003 31.8101V31.6451C53.7003 31.0152 53.5803 30.4002 53.3404 29.8152C53.1004 29.2302 52.7404 28.7053 52.2904 28.2703ZM51.6754 32.7851C51.5254 33.145 51.3005 33.46 51.0305 33.73C50.7605 34 50.4305 34.225 50.0855 34.375C49.3356 34.69 48.4956 34.69 47.7456 34.375C47.0257 34.075 46.4557 33.49 46.1557 32.7851C45.8407 32.0501 45.8407 31.2101 46.1557 30.4602C46.4557 29.7402 47.0257 29.1852 47.7456 28.8703C48.4956 28.5553 49.3356 28.5553 50.0855 28.8703C50.4455 29.0203 50.7605 29.2452 51.0305 29.5152C51.3005 29.7852 51.5254 30.1152 51.6754 30.4602C51.9904 31.2251 51.9904 32.0651 51.6754 32.7851ZM72.0444 27.7453C72.0444 27.6253 72.0144 27.5053 71.9694 27.4003C71.9244 27.2953 71.8494 27.2053 71.7744 27.1154C71.6994 27.0404 71.5944 26.9654 71.4894 26.9204C71.3844 26.8754 71.2644 26.8454 71.1445 26.8454C70.9795 26.8454 70.8145 26.8904 70.6645 26.9804L65.5647 30.2952V23.6655C65.5647 23.4255 65.4747 23.2005 65.3097 23.0356C65.1448 22.8706 64.9198 22.7656 64.6798 22.7656C64.1848 22.7656 63.7948 23.1556 63.7798 23.6505V35.5149C63.7798 35.7549 63.8698 35.9799 64.0348 36.1449C64.1998 36.3249 64.4248 36.4149 64.6648 36.4149C64.9048 36.4149 65.1298 36.3249 65.2947 36.1449C65.4597 35.9799 65.5647 35.7549 65.5497 35.5149V32.4401L66.5847 31.7651L70.5295 36.1899C70.6945 36.3399 70.9045 36.4299 71.1295 36.4149C71.2494 36.4149 71.3694 36.3999 71.4744 36.3399C71.5794 36.2949 71.6694 36.2349 71.7594 36.1449C71.8344 36.0549 71.9094 35.9649 71.9544 35.8599C71.9994 35.7549 72.0294 35.6349 72.0294 35.5149C72.0294 35.2899 71.9394 35.0649 71.7894 34.9L68.1296 30.7752L71.6994 28.4503C71.9394 28.3003 72.0594 28.0303 72.0444 27.7453ZM57.2402 29.5152C57.5101 29.2452 57.8401 29.0203 58.2001 28.8703C58.5751 28.7203 58.9651 28.6303 59.37 28.6303C59.73 28.6303 60.075 28.6903 60.405 28.8103C60.735 28.9453 61.05 29.1253 61.3199 29.3652C61.4849 29.5002 61.6949 29.5602 61.9049 29.5602C62.1449 29.5752 62.3849 29.4852 62.5499 29.3052C62.7149 29.1403 62.8049 28.9003 62.8049 28.6603C62.8049 28.4053 62.6999 28.1503 62.4899 27.9853C61.6349 27.2203 60.525 26.8004 59.37 26.8304C56.7302 26.8304 54.5853 28.9753 54.5853 31.6151C54.5853 34.255 56.7152 36.3849 59.34 36.3999C60.495 36.3999 61.6049 35.9949 62.4749 35.2449C62.6549 35.08 62.7599 34.84 62.7599 34.585C62.7749 34.105 62.3999 33.715 61.9349 33.7H61.8749C61.6649 33.7 61.4699 33.76 61.3049 33.88C61.035 34.12 60.735 34.3 60.405 34.435C60.075 34.555 59.715 34.615 59.37 34.615C58.9651 34.615 58.5751 34.54 58.2001 34.375C57.8401 34.225 57.5251 34 57.2402 33.73C56.0702 32.5601 56.0702 30.6702 57.2252 29.5002C57.2402 29.5302 57.2402 29.5302 57.2402 29.5152ZM89.7585 27.4603C89.5785 27.2953 89.3835 27.1753 89.1585 27.1004C88.9035 27.0104 88.6336 26.9504 88.3636 26.9204C88.0936 26.8904 87.8236 26.8754 87.5536 26.8754C87.0136 26.8754 86.4587 26.9654 85.9487 27.1603C85.4387 27.3403 84.9737 27.6103 84.5538 27.9403V27.7603C84.5388 27.2653 84.1188 26.8904 83.6238 26.9054C83.3995 26.9128 83.1863 27.0053 83.0276 27.1641C82.8688 27.3228 82.7763 27.5359 82.7689 27.7603V35.5449C82.7839 36.0399 83.2038 36.4149 83.6988 36.3999C83.9232 36.3924 84.1363 36.2999 84.2951 36.1412C84.4538 35.9824 84.5463 35.7693 84.5538 35.5449V31.6601C84.5538 31.2551 84.6288 30.8652 84.7938 30.4902C84.9438 30.1302 85.1537 29.8152 85.4387 29.5452C85.7087 29.2752 86.0387 29.0503 86.3837 28.9003C86.7587 28.7503 87.1486 28.6603 87.5536 28.6603C87.9586 28.6603 88.3486 28.7353 88.7236 28.8703C88.8436 28.9303 88.9635 28.9603 89.0985 28.9603C89.2185 28.9603 89.3385 28.9453 89.4435 28.8853C89.5485 28.8403 89.6385 28.7803 89.7285 28.6903C89.8035 28.6153 89.8785 28.5103 89.9235 28.4053C89.9685 28.3003 89.9985 28.1803 89.9985 28.0603C90.0135 27.8353 89.9235 27.6253 89.7585 27.4603ZM81.4789 29.8152C80.714 28.0453 78.974 26.8904 77.0541 26.8754C74.4143 26.8754 72.2844 29.0053 72.2694 31.6451C72.2694 34.285 74.4143 36.4299 77.0541 36.4299C78.1941 36.4299 79.304 36.0249 80.174 35.2749L80.204 35.2449C80.279 35.1849 80.354 35.1099 80.399 35.02C80.684 34.6 80.579 34.045 80.174 33.76C79.829 33.535 79.379 33.58 79.079 33.865C79.049 33.895 78.9591 33.97 78.9591 33.985L78.9441 34C78.6891 34.21 78.4041 34.39 78.0891 34.495C77.7591 34.615 77.4141 34.675 77.0541 34.66C76.7242 34.66 76.4092 34.615 76.0942 34.51C75.7942 34.405 75.5092 34.27 75.2542 34.075C74.9993 33.895 74.7743 33.67 74.5943 33.415C74.3993 33.16 74.2643 32.8601 74.1743 32.5601H80.924C81.1639 32.5601 81.3889 32.4701 81.5539 32.3051C81.7339 32.1401 81.8239 31.9151 81.8089 31.6751C81.8239 31.0302 81.7039 30.4002 81.4789 29.8152ZM74.1743 30.7752C74.2643 30.4602 74.3993 30.1752 74.5943 29.9202C74.7743 29.6652 74.9993 29.4402 75.2542 29.2602C75.5092 29.0803 75.7942 28.9303 76.0942 28.8253C76.3942 28.7203 76.7242 28.6753 77.0392 28.6753C77.3541 28.6753 77.6841 28.7203 77.9841 28.8253C78.5841 29.0203 79.109 29.4102 79.484 29.9202C79.679 30.1752 79.814 30.4752 79.919 30.7752H74.1743ZM86.7137 35.1249C86.3687 35.1249 86.0987 35.4099 86.0987 35.7549C86.0987 36.0999 86.3837 36.3699 86.7287 36.3699C87.0736 36.3699 87.3436 36.0849 87.3436 35.7549C87.3436 35.3949 87.0586 35.1249 86.7137 35.1249ZM86.7137 36.2349C86.4437 36.2499 86.2187 36.0399 86.2037 35.7699C86.1887 35.4999 86.3987 35.2749 86.6687 35.2599C86.9386 35.2449 87.1636 35.4549 87.1786 35.7249V35.7549C87.1936 36.0099 86.9836 36.2349 86.7287 36.2349H86.7137Z" fill="#0091E2"/>
<path d="M86.8626 35.751C86.9376 35.736 86.9826 35.676 86.9826 35.601C86.9826 35.541 86.9676 35.496 86.9226 35.466C86.8626 35.436 86.7876 35.421 86.7126 35.421C86.6376 35.421 86.5476 35.421 86.4726 35.436V36.051H86.6076V35.811H86.6676C86.7426 35.811 86.7876 35.841 86.8026 35.901C86.8176 35.946 86.8326 36.006 86.8476 36.051H86.9976C86.9676 36.006 86.9526 35.946 86.9526 35.901C86.9676 35.841 86.9226 35.781 86.8626 35.751ZM86.6826 35.706H86.6076V35.526H86.6826C86.7726 35.526 86.8176 35.571 86.8176 35.616C86.8326 35.676 86.7576 35.721 86.6826 35.706ZM32.0254 24.7716C31.9354 24.6966 31.1254 24.0816 29.3855 24.0816C28.9355 24.0816 28.4705 24.1266 28.0206 24.2016C27.6906 21.9067 25.7857 20.7968 25.7107 20.7368L25.2457 20.4668L24.9457 20.9018C24.5707 21.4867 24.2857 22.1467 24.1207 22.8217C23.8058 24.1266 24.0008 25.3565 24.6607 26.4065C23.8658 26.8565 22.5758 26.9615 22.3058 26.9765H1.00691C0.451935 26.9765 0.00195766 27.4264 0.00195766 27.9814C-0.0280408 29.8413 0.286943 31.7012 0.931911 33.4561C1.66687 35.376 2.76182 36.801 4.17175 37.6709C5.76167 38.6459 8.35654 39.2009 11.2814 39.2009C12.6013 39.2009 13.9213 39.0809 15.2262 38.8409C17.0411 38.5109 18.781 37.8809 20.3859 36.966C21.7059 36.201 22.8908 35.2261 23.8958 34.0861C25.5907 32.1812 26.5956 30.0513 27.3306 28.1614H27.6306C29.4755 28.1614 30.6154 27.4264 31.2454 26.7965C31.6654 26.4065 31.9804 25.9265 32.2053 25.3865L32.3403 24.9966L32.0254 24.7716Z" fill="#0091E2"/>
<path d="M2.98472 26.3645H5.83458C5.96957 26.3645 6.08957 26.2595 6.08957 26.1095V23.5596C6.08957 23.4246 5.98457 23.3046 5.83458 23.3046H2.98472C2.84973 23.3046 2.72974 23.4096 2.72974 23.5596V26.1095C2.74474 26.2595 2.84973 26.3645 2.98472 26.3645ZM6.91452 26.3645H9.76438C9.89937 26.3645 10.0194 26.2595 10.0194 26.1095V23.5596C10.0194 23.4246 9.91437 23.3046 9.76438 23.3046H6.91452C6.77953 23.3046 6.65954 23.4096 6.65954 23.5596V26.1095C6.67454 26.2595 6.77953 26.3645 6.91452 26.3645ZM10.9193 26.3645H13.7692C13.9042 26.3645 14.0242 26.2595 14.0242 26.1095V23.5596C14.0242 23.4246 13.9192 23.3046 13.7692 23.3046H10.9193C10.7843 23.3046 10.6643 23.4096 10.6643 23.5596V26.1095C10.6643 26.2595 10.7693 26.3645 10.9193 26.3645ZM14.8641 26.3645H17.714C17.849 26.3645 17.969 26.2595 17.969 26.1095V23.5596C17.969 23.4246 17.864 23.3046 17.714 23.3046H14.8641C14.7291 23.3046 14.6091 23.4096 14.6091 23.5596V26.1095C14.6091 26.2595 14.7291 26.3645 14.8641 26.3645ZM6.91452 22.7197H9.76438C9.89937 22.7197 10.0194 22.5997 10.0194 22.4647V19.9148C10.0194 19.7798 9.91437 19.6598 9.76438 19.6598H6.91452C6.77953 19.6598 6.65954 19.7648 6.65954 19.9148V22.4647C6.67454 22.5997 6.77953 22.7197 6.91452 22.7197ZM10.9193 22.7197H13.7692C13.9042 22.7197 14.0242 22.5997 14.0242 22.4647V19.9148C14.0242 19.7798 13.9192 19.6598 13.7692 19.6598H10.9193C10.7843 19.6598 10.6643 19.7648 10.6643 19.9148V22.4647C10.6643 22.5997 10.7693 22.7197 10.9193 22.7197ZM14.8641 22.7197H17.714C17.849 22.7197 17.969 22.5997 17.969 22.4647V19.9148C17.969 19.7798 17.849 19.6598 17.714 19.6598H14.8641C14.7291 19.6598 14.6091 19.7648 14.6091 19.9148V22.4647C14.6091 22.5997 14.7291 22.7197 14.8641 22.7197ZM14.8641 19.0598H17.714C17.849 19.0598 17.969 18.9549 17.969 18.8049V16.255C17.969 16.12 17.849 16 17.714 16H14.8641C14.7291 16 14.6091 16.105 14.6091 16.255V18.8049C14.6091 18.9399 14.7291 19.0598 14.8641 19.0598ZM18.8389 26.3645H21.6888C21.8238 26.3645 21.9438 26.2595 21.9438 26.1095V23.5596C21.9438 23.4246 21.8388 23.3046 21.6888 23.3046H18.8389C18.7039 23.3046 18.5839 23.4096 18.5839 23.5596V26.1095C18.5989 26.2595 18.7039 26.3645 18.8389 26.3645Z" fill="#0091E2"/>
</g>
<defs>
<clipPath id="clip0_1379_174">
<rect width="90" height="55" fill="white"/>
</clipPath>
</defs>
</svg>
