<svg width="90" height="55" viewBox="0 0 90 55" fill="none" xmlns="http://www.w3.org/2000/svg">
<g clip-path="url(#clip0_5389_3298)">
<path fill-rule="evenodd" clip-rule="evenodd" d="M44.7102 0.339478C33.3931 0.339478 24.3398 4.20849 24.3398 8.38713V46.458C24.3398 50.6366 33.5445 54.6605 44.7102 54.6605C56.0273 54.6605 65.0806 50.9463 65.0806 46.6128V8.54195C65.0806 4.3633 56.0273 0.339478 44.7102 0.339478ZM38.8259 24.3269C37.4679 24.3269 36.8642 23.8625 36.8642 25.4107V28.3515C36.8642 30.5182 36.5627 31.9108 35.0533 32.3753V32.5301C36.5621 33.1494 36.8642 34.8516 36.8642 37.4821V40.8867C36.8642 41.9697 37.015 41.9697 37.3171 42.4342C37.6193 42.8986 38.0715 42.8986 38.8259 42.8986V43.8268V45.8387C36.7135 45.8387 35.2047 45.3743 34.2989 44.6009C33.3931 43.8275 32.9409 42.2794 32.9409 40.1126V36.3984C32.9409 34.3865 32.1865 34.3865 30.9792 34.3865V30.5175C32.3373 30.5175 32.9409 30.5175 32.9409 28.8152V25.8744C32.9409 24.0173 33.3938 22.7795 34.2989 22.1602C35.204 21.3861 36.7135 21.0772 38.8259 21.0772V24.3269ZM58.8948 31.4457V34.5407C57.5368 34.5407 56.9331 34.5407 56.9331 36.5526V40.1119C56.9331 42.2787 56.4802 43.8261 55.5751 44.7544C54.67 45.5284 53.1605 45.9929 50.8974 45.9929V43.0521C51.501 43.0521 52.1047 42.8973 52.4061 42.5876C52.7083 42.1232 52.859 42.1232 52.859 41.0402V37.6356C52.859 35.0051 53.3119 33.4569 54.8207 32.6836V32.5287C53.3113 32.0656 52.8584 30.6723 52.8584 28.3515V25.5661C52.8584 24.0187 52.104 24.4824 50.8967 24.4824V21.2327C53.0091 21.2327 54.5179 21.6971 55.4237 22.3157C56.3288 23.0898 56.9324 24.3276 56.9324 26.0299V28.97C56.9324 30.6723 57.5361 30.5175 58.8941 30.5175L58.8948 31.4457ZM44.7102 12.1013C36.7128 12.1013 30.2248 10.0894 30.2248 7.61306C30.2248 5.1367 36.7128 3.12547 44.7102 3.12547C52.7076 3.12547 59.1956 5.13738 59.1956 7.61374C59.1956 10.0901 52.7076 12.1013 44.7102 12.1013Z" fill="#0078D7"/>
</g>
<defs>
<clipPath id="clip0_5389_3298">
<rect width="41.4198" height="55" fill="white" transform="translate(24)"/>
</clipPath>
</defs>
</svg>
