<svg width="90" height="55" viewBox="0 0 90 55" fill="none" xmlns="http://www.w3.org/2000/svg">
<g clip-path="url(#clip0_5376_4942)">
<path d="M72 0H18V54H72V0Z" fill="#512BD4"/>
<path d="M27.6245 34.5C27.2427 34.5 26.9182 34.3728 26.6509 34.1183C26.3836 33.8573 26.25 33.5474 26.25 33.1886C26.25 32.8231 26.3836 32.51 26.6509 32.249C26.9182 31.988 27.2427 31.8575 27.6245 31.8575C28.0127 31.8575 28.3405 31.988 28.6077 32.249C28.8814 32.51 29.0182 32.8231 29.0182 33.1886C29.0182 33.5474 28.8814 33.8573 28.6077 34.1183C28.3405 34.3728 28.0127 34.5 27.6245 34.5Z" fill="white"/>
<path d="M42.8886 34.2847H40.4068L33.8682 23.9691C33.7027 23.7081 33.5658 23.4373 33.4577 23.1568H33.4004C33.4513 23.457 33.4768 24.0996 33.4768 25.0848V34.2847H31.2812V20.25H33.9254L40.2445 30.3209C40.5118 30.7386 40.6836 31.0256 40.76 31.1822H40.7982C40.7346 30.8103 40.7027 30.1807 40.7027 29.2932V20.25H42.8886V34.2847Z" fill="white"/>
<path d="M53.5786 34.2847H45.8945V20.25H53.2732V22.227H48.1664V26.2005H52.8724V28.1677H48.1664V32.3175H53.5786V34.2847Z" fill="white"/>
<path d="M64.5009 22.227H60.5681V34.2847H58.2962V22.227H54.373V20.25H64.5009V22.227Z" fill="white"/>
</g>
<defs>
<clipPath id="clip0_5376_4942">
<rect width="54" height="54" fill="white" transform="translate(18)"/>
</clipPath>
</defs>
</svg>
