<svg width="90" height="55" viewBox="0 0 90 55" fill="none" xmlns="http://www.w3.org/2000/svg">
<path d="M74.7497 3H15.2503C12.3542 3 10 5.35718 10 8.25866V46.8199C10 49.7206 12.3534 52.0785 15.2503 52.0785H74.7497C77.6458 52.0785 80 49.7214 80 46.8199L79.9994 8.25866C79.9994 5.35796 77.646 3 74.7491 3H74.7497ZM13.5003 8.98607L32.0236 27.539L13.5003 46.0918V8.98607ZM48.7093 31.8599C46.6617 33.9108 43.328 33.9108 41.2808 31.8599L15.9764 6.50557H74.0227L48.7093 31.8599ZM34.4999 30.0191L38.8138 34.3399C40.5203 36.0492 42.7603 36.899 45.0003 36.899C47.2403 36.899 49.4803 36.0486 51.1868 34.3399L55.4996 30.0191L74.0229 48.572H15.9749L34.4999 30.0191ZM57.9763 27.539L76.4996 8.98607V46.0934L57.9763 27.539Z" fill="black"/>
</svg>
