<svg width="90" height="55" viewBox="0 0 90 55" fill="none" xmlns="http://www.w3.org/2000/svg">
<path d="M11.8475 41.5021C10.3367 40.3138 8.7266 39.1765 7.62576 37.5723C5.30866 34.7443 3.52628 31.4613 2.30577 28.0281C1.56735 25.7899 1.31612 23.3913 0.365511 21.2397C-0.627532 19.678 0.53696 17.9695 2.24805 17.473C3.00938 17.3261 4.34957 16.6072 2.73184 17.1216C1.28896 18.1851 1.14212 16.1557 2.62829 16.0182C3.6434 15.8824 4.01686 15.0532 3.66887 14.3063C2.57906 13.595 6.31019 12.8158 4.43275 11.7549C2.47806 9.64574 7.16744 9.23918 6.01143 11.6361C5.73474 13.4779 9.28932 11.2966 8.47282 13.4252C9.31139 14.4471 11.6132 13.6587 11.5538 15.0914C12.776 15.1762 13.1944 16.1947 14.3394 16.2813C15.5277 16.8177 17.6818 17.2404 18.085 18.5789C16.8967 19.5125 14.1782 16.6522 14.0466 19.2341C14.4031 23.0501 14.3123 26.9807 15.7076 30.6134C16.3679 32.8134 17.9687 34.5448 19.4141 36.2576C20.7976 37.9356 22.6708 39.1179 24.5813 40.111C26.2568 40.9003 28.0612 41.424 29.8878 41.7533C30.6279 41.1872 31.935 39.0814 33.0901 39.9692C33.1461 40.9682 30.7985 42.0555 32.9798 41.9451C34.2529 41.5581 35.15 42.9356 36.205 41.693C37.1769 42.8448 40.2451 40.958 39.5542 43.3116C38.6189 43.9057 37.2626 43.5493 36.3179 44.381C34.7732 43.6172 33.5442 45.0702 31.834 44.8861C29.9353 45.2256 28.0027 45.3631 26.0777 45.3656C22.9186 45.1161 19.6934 45.0108 16.6888 43.9117C14.9955 43.4194 13.3447 42.4552 11.856 41.491L11.8475 41.5021ZM14.5151 42.6589C16.1676 43.3719 17.7845 44.1273 19.5958 44.3539C22.4696 44.7528 25.4377 45.369 28.321 44.808C27.0156 44.2189 25.6661 45.0371 24.3658 44.387C22.8066 44.7222 21.1405 44.3021 19.5465 44.0933C17.7438 43.2904 15.7976 42.7387 14.1094 41.6956C11.9985 40.9249 15.2001 42.6844 15.7704 42.827C17.0894 43.5756 14.3275 42.4433 13.9286 42.131C12.8235 41.5114 12.6835 41.6404 13.8183 42.2693C14.0474 42.4034 14.2732 42.5435 14.5126 42.6581L14.5151 42.6589ZM11.3696 40.4352C12.9721 41.0293 11.3628 39.3089 10.6295 39.4167C10.3044 38.8523 9.38693 38.4958 10.0337 38.1945C8.87089 38.5985 8.81402 36.6667 8.26827 36.9358C7.03758 36.547 7.78957 35.1704 6.32208 34.3233C6.18797 33.4321 4.86476 32.6597 4.44378 31.3153C4.25705 30.6363 2.94827 28.6502 3.75204 30.4895C4.43614 32.26 5.64053 33.7767 6.64291 35.2909C7.42036 36.7338 8.34042 38.2411 9.75784 39.14C10.2357 39.5983 10.6966 40.3002 11.3705 40.4445L11.3696 40.4352ZM6.75579 35.3681C7.04861 35.8918 6.81096 35.1262 6.75579 35.3681ZM13.2887 41.1456C13.6434 40.9869 12.7794 40.9453 13.2887 41.1456ZM14.1578 41.463C14.0678 41.0251 13.7606 41.7176 14.1578 41.463ZM15.2467 41.9171C15.756 41.4248 14.4489 41.6056 15.2467 41.9171ZM17.1123 42.9568C17.4263 42.4917 16.1048 42.782 17.1123 42.9568ZM13.5306 40.4598C14.3343 39.9395 12.4908 40.4513 13.5306 40.4598ZM14.3471 40.8672C14.3241 40.593 14.0568 40.9903 14.3471 40.8672ZM18.427 43.4135C19.0831 43.8277 22.2583 44.3216 20.2705 43.5832C19.937 43.6528 16.5844 42.6343 18.427 43.4135ZM11.951 38.3685C11.8874 38.0935 10.9325 38.0629 11.951 38.3685ZM13.8497 39.4761C14.3445 39.1306 12.8312 39.2096 13.8497 39.4761ZM15.4479 40.4555C16.1574 40.1882 14.2978 40.1873 15.4479 40.4555ZM11.177 37.5273C11.9468 38.1181 14.2817 37.6122 12.3652 37.1751C11.4893 36.7083 9.5134 36.3883 10.8604 37.4569L11.1863 37.5273H11.177ZM16.5301 40.7951C16.8509 40.2493 15.1848 40.4827 16.5301 40.7951ZM14.9038 39.5024C16.7855 40.0337 13.3209 38.3116 14.4396 39.3055L14.6874 39.4184L14.9038 39.5024ZM18.1648 41.3866C19.9471 41.4036 16.5547 41.132 18.1648 41.3866ZM10.492 36.4961C10.4224 36.1566 10.0524 36.5233 10.492 36.4961ZM21.1804 43.0774C21.2279 42.4781 20.599 43.5238 21.1804 43.0774ZM13.5416 38.3583C13.4329 38.0425 12.9848 38.3447 13.5416 38.3583ZM10.6686 36.2873C11.6913 36.2254 9.26811 35.8375 10.6686 36.2873ZM7.27353 34.0873C7.14622 33.5951 6.17015 33.2046 7.27353 34.0873ZM16.2084 39.757C16.1201 39.8037 16.0217 39.5431 16.2084 39.757ZM21.7694 43.169C21.7524 42.8422 21.4664 43.2921 21.7694 43.169ZM15.7178 39.2478C15.8179 38.8268 14.8453 39.1205 15.7178 39.2478ZM11.5759 36.6217C12.3372 36.5402 10.3554 36.1074 11.5759 36.6217ZM18.584 40.9758C19.7706 40.5056 17.4272 40.7467 18.584 40.9758ZM14.9395 38.5017C16.2975 38.6774 13.3124 37.5706 14.639 38.4024L14.9395 38.5017ZM19.6908 41.4231C20.9682 40.6609 20.5464 43.2106 21.8568 41.6387C23.1486 40.6949 20.7407 42.8058 22.3321 41.8068C23.4848 41.0361 25.1857 42.1717 26.2602 42.5418C27.0241 42.5044 27.7845 43.2098 28.5773 42.7794C30.1025 42.3686 25.5939 42.17 26.7754 41.4418C25.38 41.8492 24.3479 40.958 23.6621 40.0634C22.0962 39.7019 20.2866 38.9006 19.5049 37.5155C19.1858 36.996 19.965 37.5893 19.2299 36.7389C18.2963 35.9003 17.8159 34.9565 17.1827 33.9278C16.4189 33.5246 16.3374 32.3364 16.261 33.8887C16.2669 32.9093 15.3477 32.2506 15.1237 32.5239C15.1194 31.5903 16.1082 32.0537 15.4165 31.356C15.268 30.3783 14.7774 29.3598 14.6305 28.2564C14.4014 27.7251 14.5983 26.5843 13.8497 27.7896C13.5781 29.0627 13.7597 26.2262 14.1841 27.1615C14.7409 26.2075 13.9838 26.3127 13.9532 26.4519C14.3157 25.6473 14.1824 24.504 13.8582 24.9412C14.0517 24.0873 14.1637 21.8008 13.5696 22.2056C13.9303 21.3127 14.2528 18.1206 12.6869 19.3368C12.0529 19.3453 10.9554 19.566 10.436 19.8249C12.0631 20.722 10.2722 20.1491 9.60846 20.0065C9.52358 20.8366 8.86579 20.4784 8.04675 20.486C9.35722 20.6558 7.40848 21.8271 6.65818 21.3687C5.68211 21.8356 7.50694 22.9984 6.6777 23.3599C6.77955 23.9014 5.18389 23.1647 5.30781 24.4175C4.3606 24.0186 5.17795 25.9028 5.65241 25.2662C7.26334 25.7025 6.78634 26.6964 6.82708 27.641C6.57246 28.191 5.53104 26.3475 6.59792 26.4333C5.74917 25.0753 5.66768 25.9393 4.96831 26.5742C4.79856 26.62 6.7507 27.4772 5.53019 27.9008C6.60386 28.0671 6.63527 29.0067 6.85425 29.6008C7.4993 30.273 7.36689 28.8582 8.13926 29.667C7.65038 28.9456 5.55056 27.63 7.24128 28.0578C7.23279 27.3338 6.93573 26.749 7.45347 26.7634C7.96696 25.8349 6.91536 29.0551 8.07306 27.8736C8.39304 27.7336 8.47197 26.9442 9.04913 27.9483C9.8843 28.7716 9.35128 29.3657 8.17236 28.6129C8.38285 29.3292 9.74935 29.5838 9.49218 30.7034C9.76378 31.6879 10.1457 31.3246 10.4767 31.2686C10.7373 32.2243 10.8841 31.5216 10.8969 31.0649C12.0885 31.3195 11.8093 32.024 12.1827 32.5078C13.0043 32.8779 11.0072 29.9955 12.417 31.6421C13.9006 32.9831 12.9738 33.5407 11.6421 33.326C12.4849 33.2581 12.7556 34.465 13.8098 34.4226C14.7706 34.8809 15.4224 36.6362 13.7648 35.9054C13.1902 35.3961 11.1557 34.7477 12.8176 35.7331C14.3505 36.4443 15.5701 36.8687 17.0495 37.7701C18.1079 38.534 18.5654 39.3827 18.966 39.5627C18.0748 39.987 16.2839 39.2232 17.6148 38.9898C16.7847 38.8387 15.8511 38.4185 16.6455 39.4523C17.3219 40.0176 19.0407 39.9573 19.3496 40.021C19.0882 40.5964 18.6401 40.6423 19.3598 40.6864C18.5569 41.115 19.6178 41.1812 19.6993 41.4248L19.6908 41.4231ZM18.0485 36.7838C17.5596 36.272 17.4331 35.3155 17.9611 36.1473C18.2327 36.2576 18.8293 37.7124 18.0485 36.7838ZM23.399 40.1823C23.7046 40.1619 23.4075 40.414 23.399 40.1823ZM17.277 35.5311C17.4527 36.1277 17.2574 34.7672 17.277 35.5311ZM16.7456 34.8164C17.5206 35.1525 16.1303 33.6282 16.7456 34.8164ZM10.301 30.3689C10.6626 30.2722 10.4708 30.9868 10.301 30.3689ZM15.4309 33.1486C15.6915 33.8471 15.6516 32.3151 15.4309 33.1486ZM11.8067 30.6278C12.3414 31.0522 11.5521 30.1678 11.8067 30.6278ZM14.9157 31.6243C14.3335 30.3197 15.3291 30.9113 15.0456 31.8381L14.9157 31.6243ZM9.55329 28.0484C9.29272 27.6198 8.8624 26.3645 9.0016 25.9809C9.12636 26.6056 10.329 28.6689 9.59063 26.8356C8.77583 25.3078 10.5667 27.3338 10.75 27.7183C10.8349 28.1002 10.2467 27.6139 10.6456 28.5076C9.9174 27.4891 10.2162 29.0687 9.55329 28.0484ZM7.89652 26.906C8.27506 27.5884 7.96442 25.9104 7.89652 26.906ZM8.64172 27.1632C9.23585 28.2106 8.9982 26.412 8.64172 27.1632ZM6.8483 25.7763C6.23126 25.1627 5.78481 24.5881 6.87801 25.3944C7.29814 25.4114 5.94268 24.1094 6.97986 24.981C8.06966 25.1797 7.51797 26.7685 6.84915 25.7755L6.8483 25.7763ZM7.78193 25.7509C8.14011 25.3944 7.97206 26.1006 7.78193 25.7509ZM8.36248 25.9359C9.02197 26.3628 7.81928 24.9174 8.36248 25.9359ZM7.20987 24.8351C5.41645 23.2377 9.46332 25.6694 7.50269 25.1304L7.20987 24.8351ZM12.3491 27.8201C11.5725 27.355 12.1428 24.5439 12.4085 26.4664C13.1724 26.2219 12.3661 27.4594 12.9288 27.4475C12.8405 28.2284 12.5893 28.5085 12.3499 27.821L12.3491 27.8201ZM14.2359 28.9405C14.3954 29.5202 14.3207 28.0917 14.2359 28.9405ZM13.8964 28.6137C13.9812 28.2521 13.9049 29.0398 13.8964 28.6137ZM7.5307 24.3063C6.37809 22.7166 10.8799 25.9147 8.26912 24.7094C7.99752 24.6373 7.67499 24.6118 7.5307 24.3063ZM11.1914 26.2465C11.435 26.4672 11.081 24.9081 11.1914 26.2465ZM13.9702 28.0289C14.1849 27.2667 13.9872 28.5331 13.9702 28.0289ZM7.70809 23.6986C8.39304 23.5517 10.5455 24.9004 8.56873 24.0839C8.34805 23.8403 7.88973 23.9515 7.70809 23.6986ZM13.59 26.6293C13.663 25.2603 13.9991 25.812 13.5934 26.8262L13.59 26.6293ZM8.21904 23.2216C8.49913 22.8125 7.47723 21.3713 8.36588 22.7123C8.74951 23.0179 9.46926 23.2216 8.83524 23.3514C9.85375 24.2426 8.58061 23.5925 8.21989 23.2292L8.21904 23.2216ZM13.2997 26.1922C13.4924 24.6322 13.4694 27.1055 13.2997 26.1922ZM7.63595 21.7719C7.84983 21.6802 7.74883 22.0562 7.63595 21.7719ZM8.9617 22.5612C9.58978 23.3591 9.3029 21.8449 8.9617 22.5612ZM12.6996 24.6407C12.7701 25.0396 12.6962 24.3665 12.6996 24.6407ZM12.4832 24.162C12.967 24.8393 11.9739 22.8821 12.4832 24.162ZM12.1649 23.3132C12.462 23.9778 12.0783 22.7845 12.1649 23.3132ZM12.6742 22.4704C12.3177 21.8423 13.124 19.706 13.214 21.0318C12.838 22.0647 13.1053 22.6419 13.3667 21.2567C13.8505 20.1669 13.2623 23.4092 12.6742 22.4704ZM13.2072 19.2918C13.3625 19.1009 13.2411 19.521 13.2072 19.2918ZM12.316 36.8246C12.3431 36.9409 12.1055 36.6404 12.316 36.8246ZM14.1493 37.7514C15.1678 38.006 15.1644 37.5935 14.2342 37.4679C13.7393 37.0071 12.1742 36.5173 13.5747 37.4111C13.6596 37.6462 13.96 37.6402 14.1408 37.7506L14.1493 37.7514ZM10.5302 35.3469C11.0904 35.7662 12.6453 36.5335 11.3306 35.5166C11.7745 35.0006 10.4818 34.7273 10.9104 34.381C9.8198 33.713 10.0498 33.7733 10.8145 33.7869C9.50406 33.1928 11.0038 33.2454 10.9334 32.9441C10.4284 32.8448 8.42274 32.0529 9.60251 33.0086C8.40322 32.3975 9.31648 33.236 8.95407 33.1486C7.72761 32.8142 10.0456 34.0822 8.75885 33.7682C9.46162 34.325 10.6516 35.1958 9.05592 34.3572C8.84627 34.6603 10.1983 35.1186 10.5302 35.3486V35.3469ZM12.4467 36.4486C14.7774 37.1989 11.3034 35.5302 12.4467 36.4486ZM22.26 42.3933C22.2906 41.9307 21.9417 42.7879 22.26 42.3933ZM23.2785 42.8176C23.8166 42.2973 23.3006 43.6477 24.1697 42.6903C24.1782 42.0045 24.1442 41.5997 23.1716 42.4331C22.9034 42.5825 22.7837 43.2132 23.2785 42.8176ZM7.28287 32.782C7.11736 32.1327 6.12516 32.1369 7.28287 32.782ZM8.35909 33.4864C7.96017 32.8244 6.93318 32.8864 8.35909 33.4864ZM14.4871 37.1819C15.0855 37.7132 17.2345 37.5723 15.2136 37.2481C14.9149 36.8068 13.3141 36.912 14.4871 37.1819ZM22.9093 42.3848C23.8302 41.6209 22.0181 42.7294 22.9093 42.3848ZM24.8241 43.7003C24.83 43.4525 24.4269 43.809 24.8241 43.7003ZM24.8275 43.3608C25.846 42.2812 23.8404 43.4245 24.8275 43.3608ZM4.63305 30.5642C3.76393 29.325 4.09324 28.7673 3.25467 27.7633C3.09511 26.9884 1.81688 25.2323 2.59265 27.0843C3.3039 28.1732 3.51439 29.858 4.6322 30.5642H4.63305ZM24.5075 43.0103C26.3748 41.7983 23.7377 42.4824 24.5075 43.0103ZM25.9394 43.5705C26.8789 42.7642 25.3452 43.4024 25.9394 43.5705ZM6.96373 31.4019C7.23194 31.003 6.26945 31.351 6.96373 31.4019ZM25.6406 43.1784C26.5505 42.5842 25.431 42.6818 25.4759 43.2318L25.6406 43.1784ZM13.298 35.408C13.2666 35.0108 12.8168 35.442 13.298 35.408ZM14.0602 35.8468C13.8174 35.3562 13.6867 35.9317 14.0602 35.8468ZM27.0996 43.5841C28.2649 42.7353 26.3951 43.4143 26.856 43.7436L27.0996 43.5841ZM26.6532 43.3685C27.6038 42.5732 25.6516 43.7207 26.6532 43.3685ZM28.9338 44.8861C29.5703 44.46 28.1588 44.7486 28.9338 44.8861ZM7.54768 31.1218C8.40153 31.3128 10.9614 33.225 9.45144 31.2542C8.68756 31.025 9.14164 29.1349 8.35315 29.4684C8.88277 30.3537 8.78856 30.7288 7.67669 30.1729C6.28049 29.4905 6.89159 30.5098 7.16574 30.7925C6.79229 30.8773 7.65802 31.115 7.54768 31.132V31.1218ZM3.65614 28.0493C3.80891 27.4161 2.2472 24.5694 2.91772 26.6234C3.15961 27.0537 3.13415 27.8685 3.65614 28.0493ZM10.7993 32.4628C10.778 32.4102 10.3579 32.0953 10.7993 32.4628ZM11.8823 32.7149C11.8823 32.0359 10.694 32.4433 11.8823 32.7149ZM21.2695 38.6324C21.0998 38.1741 20.5616 38.6222 21.2695 38.6324ZM21.7193 38.9617C21.6514 38.7054 21.4588 39.0127 21.7193 38.9617ZM25.4394 41.2984C25.7959 41.0437 24.993 41.2644 25.4394 41.2984ZM5.59978 28.5458C6.62338 28.1495 4.50319 28.2632 5.59978 28.5458ZM20.453 37.8974C20.4411 37.2354 19.7995 38.0629 20.453 37.8974ZM5.20342 27.602C5.86035 27.3813 4.59486 27.456 5.20342 27.602ZM7.11142 28.5356C7.10038 28.3184 6.91026 28.6188 7.11142 28.5356ZM30.3792 42.8007C31.2245 42.6292 33.1521 43.231 33.4627 42.5766C32.4442 42.5511 29.9115 41.8518 29.7919 42.7421L30.0168 42.7777L30.3792 42.8007ZM7.71743 28.6791C7.73271 28.0001 7.19375 28.6536 7.71743 28.6791ZM2.70977 25.1992C2.48231 23.9201 1.84404 25.0057 2.70977 25.1992ZM3.89803 25.4996C3.91331 25.0888 2.79465 25.1296 3.89803 25.4996ZM4.58128 25.8357C4.4285 26.0369 4.38352 25.666 4.58128 25.8357ZM8.88447 28.5942C9.08817 28.4075 8.40492 28.4567 8.88447 28.5942ZM4.11871 25.0787C4.00243 24.1128 2.73184 24.9344 4.11871 25.0787ZM1.65732 23.4864C1.62337 23.0408 1.41797 23.6544 1.65732 23.4864ZM2.01379 23.2114C1.95438 22.6826 1.69975 23.2776 2.01379 23.2114ZM4.02959 24.4141C4.88259 24.0797 2.47637 23.7215 3.85559 24.3513L4.02959 24.4141ZM31.02 41.0811C31.5657 40.5718 30.3274 40.9266 31.02 41.0811ZM34.2792 42.7786C34.4982 42.1335 33.7275 42.8635 34.2792 42.7786ZM4.23329 23.3591C4.32326 22.7335 3.55683 23.4838 4.23329 23.3591ZM1.3645 21.4366C1.21172 20.5539 1.23209 19.0033 2.70553 19.5269C0.738963 19.9174 4.06778 21.9714 3.63916 20.3502C4.4667 20.391 5.25774 19.8614 4.82317 20.6643C6.45278 20.4945 7.58333 19.0712 9.15777 19.2698C10.3842 19.1068 11.7253 18.9837 13.0468 18.4889C14.1332 18.4108 15.1797 17.2412 14.5745 16.547C13.0926 16.4213 11.5411 16.6064 9.90382 16.9331C8.08918 17.31 6.4409 18.0263 4.60929 18.3336C2.82351 18.5738 4.96746 18.9939 4.45651 19.0975C3.52543 19.42 5.55989 19.6381 4.33599 19.9802C3.5755 19.8359 2.78277 19.5745 3.10869 18.7724C1.3993 18.9956 -0.10385 19.7043 1.24737 21.4443L1.34752 21.4451L1.3645 21.4366ZM5.4852 19.3385C5.88412 17.8617 7.63255 20.5539 6.14129 19.5354C5.97154 19.4013 5.67023 19.2935 5.4852 19.3385ZM5.56329 18.6222C6.14044 18.1919 5.87054 18.8641 5.56329 18.6222ZM6.29746 18.6341C6.35008 17.955 7.97969 18.9939 6.56567 18.8785L6.29746 18.6341ZM7.30239 18.23C7.6699 17.8006 7.40933 18.6103 7.30239 18.23ZM7.55956 18.0578C8.17066 17.3236 11.0199 17.5884 8.93454 17.9856C8.37436 17.5646 7.94744 18.2334 7.55956 18.0578ZM11.2771 17.4848C13.1257 18.1978 11.1854 15.4784 11.2771 17.4848ZM12.3321 17.4789C12.7183 16.4604 13.8302 17.0732 12.5019 17.2752C12.5299 17.3838 12.4628 17.798 12.3321 17.4789ZM3.81655 22.8405C4.96916 22.1343 2.59434 22.2277 3.81655 22.8405ZM4.66955 23.0764C5.07356 22.647 3.79024 22.9024 4.66955 23.0764ZM2.18354 21.3017C2.84218 20.795 1.40269 21.109 2.18354 21.3017ZM36.2186 42.5936C36.2381 42.0062 35.7153 42.8482 36.2186 42.5936ZM32.7599 40.234C32.8584 39.5584 32.3152 40.2934 32.7599 40.234ZM37.1692 42.8227C38.0901 42.8261 39.9591 42.5359 37.956 42.5367C37.642 42.5851 36.1244 42.5757 37.1692 42.8227ZM5.43767 22.6614C6.18288 22.6105 6.60301 21.8398 5.29338 21.8839C3.26316 21.6743 7.07577 22.5799 5.03282 22.3202C4.75782 22.5027 5.42155 22.7123 5.43767 22.6614ZM6.09376 22.9941C6.01567 22.5163 5.8629 23.2487 6.09376 22.9941ZM6.87292 20.9181C7.19544 20.5166 6.42478 20.8111 6.87292 20.9181ZM4.39455 16.7761C5.7254 16.3246 7.53495 15.817 8.17151 16.9994C7.5324 16.2304 7.91349 15.4733 8.51696 16.5979C9.3708 17.7352 9.79009 16.0886 9.24264 15.6982C9.87581 16.4842 10.5947 16.8559 9.66702 15.7491C10.6855 14.5354 7.64698 15.9079 6.95779 15.8934C6.61829 16.042 3.53731 16.6811 4.39455 16.7761ZM5.17541 15.284C5.93419 14.712 7.80655 15.6252 6.60132 14.7154C6.48419 14.6118 3.98036 15.4062 5.17541 15.284ZM7.94235 15.3986C8.8293 15.4207 7.56041 14.2053 8.61711 14.7561C8.44396 14.1891 7.38641 14.083 6.86867 13.8564C6.57585 14.3657 7.4628 15.4054 7.9432 15.3986H7.94235ZM5.66174 12.888C5.96899 12.4636 5.12278 13.1002 5.66174 12.888ZM6.79229 13.1596C8.22329 12.9703 6.42732 12.5442 6.50371 13.1443L6.79229 13.1596ZM4.68143 11.5088C3.67396 10.1932 6.5767 11.7294 5.55225 10.3519C4.69077 9.66611 3.85474 11.1158 4.68143 11.5088ZM17.608 18.4711C18.0697 17.6529 15.7008 17.3677 17.2973 18.1825C17.4442 18.2309 17.4111 18.5288 17.608 18.4711ZM41.3791 18.6875C41.2203 19.3139 41.1227 20.3638 41.0854 21.8279C41.0854 22.1165 40.9547 22.2625 40.6933 22.2625C40.4318 22.2625 40.2494 22.1352 40.1467 21.8839C39.8666 21.2024 39.6018 20.7271 39.3488 20.4555C39.0501 20.1389 38.6529 19.9462 38.1589 19.8817C37.6267 19.7968 36.3018 19.7544 34.1833 19.7544C33.6978 19.7544 33.3804 19.8053 33.2327 19.9089C33.1478 19.9742 33.0927 20.1143 33.0927 20.329V26.6709C33.0927 26.8857 33.2285 26.9875 33.4975 26.979L37.1098 26.811C37.4179 26.7728 37.6259 26.6735 37.7328 26.5097C37.8397 26.3458 37.945 25.9155 38.0468 25.2425C38.1122 24.869 38.3312 24.7332 38.7046 24.8181C39.0221 24.8834 39.1579 25.0277 39.112 25.2425C38.8506 26.5122 38.7657 28.1639 38.8591 30.1992C38.8693 30.4411 38.7148 30.5726 38.3974 30.5913C38.136 30.6193 37.973 30.4793 37.9077 30.1712C37.6658 29.005 37.2142 28.3888 36.5496 28.3014C35.8851 28.214 34.8199 28.1826 33.3363 28.1826C33.1682 28.1826 33.085 28.242 33.085 28.3642V34.6645C33.085 35.1313 33.2573 35.4487 33.5943 35.6151C33.8659 35.7551 34.449 35.8816 35.3444 35.9936C35.8027 36.0403 36.0022 36.2415 35.9385 36.5878C35.8817 36.8959 35.4717 37.0172 34.7061 36.9527C32.4943 36.783 30.6695 36.7847 29.2317 36.9807C28.8302 37.0359 28.6375 36.873 28.6375 36.491C28.6375 36.2483 28.8379 36.1091 29.2317 36.0709C30.1466 35.969 30.6033 35.1653 30.6033 33.663V21.6785C30.6033 21.0632 30.4929 20.5896 30.2748 20.2577C30.0567 19.9259 29.6467 19.6246 29.05 19.3546C28.6766 19.1866 28.5365 18.9583 28.6299 18.6689C28.6766 18.4923 28.7513 18.3939 28.8531 18.3752C28.938 18.3472 29.1943 18.3667 29.5949 18.4312C30.1831 18.5161 31.57 18.5712 33.7538 18.5712L40.4335 18.4032C41.0582 18.365 41.3714 18.4168 41.3714 18.556C41.3714 18.5942 41.3663 18.6307 41.357 18.668L41.3791 18.6875ZM50.459 36.4605C50.459 36.8339 50.2494 36.9969 49.8293 36.9502C48.5417 36.8288 46.946 36.8483 45.0423 37.0054C44.6603 37.0436 44.4244 37.0334 44.3344 36.9782C44.2445 36.923 44.202 36.7686 44.202 36.5156C44.202 36.2924 44.4566 36.1031 44.9642 35.9487C45.4718 35.7942 45.7281 35.335 45.7281 34.5703V21.9001C45.7281 21.1362 45.6177 20.5887 45.3996 20.2331C45.1815 19.8775 44.7944 19.6033 44.2453 19.4081C43.9567 19.3063 43.8107 19.1603 43.8107 18.9736C43.8107 18.6935 44.0204 18.4838 44.4405 18.3438C45.0754 18.1384 45.734 17.8218 46.4156 17.3915C46.9757 17.0554 47.3305 16.8882 47.4791 16.8882C47.8245 16.8882 47.9883 17.1258 47.9883 17.6011C47.9674 18.0679 47.9485 18.5347 47.9314 19.0016L47.9043 21.732L47.9595 34.2342C47.9595 34.8028 48.0995 35.217 48.3796 35.4734C48.6597 35.7297 49.1409 35.9003 49.8225 35.9826C50.2426 36.0293 50.4523 36.188 50.4523 36.4579L50.459 36.4605ZM63.1225 35.6346C63.1225 35.8298 62.766 36.1269 62.053 36.5233C61.3401 36.9196 60.7672 37.1174 60.3386 37.1174C59.9736 37.1174 59.6528 36.9409 59.3727 36.5852C59.0926 36.2296 58.8957 36.0539 58.7845 36.0539C58.6996 36.0539 58.2583 36.2457 57.4545 36.6277C56.6507 37.0096 55.8444 37.2023 55.033 37.2023C54.2691 37.2023 53.6283 36.9774 53.1148 36.5233C52.5546 36.0284 52.266 35.3562 52.266 34.5066C52.266 32.8914 54.1146 31.7346 57.811 31.0267C58.445 30.9054 58.7675 30.6482 58.776 30.2569L58.804 29.3606C58.86 27.8303 58.1844 27.0647 56.7738 27.0647C56.3723 27.0647 55.9929 27.4238 55.6322 28.1427C55.2715 28.8616 54.758 29.2486 54.0858 29.3055C53.3219 29.3793 52.9374 29.0576 52.9374 28.3379C52.9374 27.8897 53.5061 27.3677 54.646 26.7694C55.841 26.1447 56.9885 25.8315 58.0902 25.8315C59.9846 25.8315 60.9225 26.7329 60.9038 28.5339L60.847 34.3012C60.8385 34.9081 61.0948 35.2111 61.6168 35.2111C61.7186 35.2111 61.9164 35.1882 62.205 35.1415L62.71 35.0719C62.9799 35.0719 63.1157 35.2544 63.1157 35.6185L63.1225 35.6346ZM58.8108 32.4433C58.8193 32.2099 58.7658 32.0554 58.641 31.9816C58.5163 31.9077 58.3406 31.8925 58.0894 31.9391C55.8401 32.3406 54.7147 33.0739 54.7147 34.1459C54.7147 35.2179 55.2978 35.756 56.4648 35.756C56.9316 35.756 57.4129 35.6677 57.9077 35.4903C58.4874 35.2841 58.776 35.0371 58.776 34.7477L58.804 32.4518L58.8108 32.4433ZM73.5299 34.033C73.5299 35.0227 73.148 35.8095 72.3883 36.3926C71.6287 36.9757 70.5898 37.2583 69.2734 37.2583C68.3887 37.2575 67.5065 37.1636 66.6414 36.9782C65.8775 36.8101 65.4464 36.6557 65.3258 36.5165C65.2511 36.3849 65.2138 35.7467 65.2138 34.5983C65.2138 34.1035 65.3258 33.8471 65.5499 33.8285C65.774 33.8005 65.9743 33.9133 66.1237 34.1917C66.8239 35.4139 67.9536 36.025 69.5119 36.025C70.8275 36.025 71.4853 35.5667 71.4853 34.6518C71.4853 34.2512 71.3367 33.915 71.0371 33.6443C70.7103 33.3362 70.0763 32.9763 69.1334 32.5664C67.7703 31.9595 66.8604 31.429 66.4029 30.9707C65.9081 30.4852 65.6611 29.8334 65.6611 29.0186C65.6611 28.0103 66.0481 27.2362 66.8239 26.6675C67.5428 26.126 68.5044 25.8553 69.7071 25.8553C70.4022 25.8493 71.0963 25.9101 71.7798 26.0369C72.452 26.1583 72.8017 26.3068 72.8297 26.485C72.9035 27.007 73.0588 27.7633 73.2914 28.7538C73.3194 28.8743 73.1879 28.9727 72.8993 29.0474C72.5912 29.1128 72.3858 29.061 72.2831 28.8947C71.5464 27.6894 70.6127 27.0885 69.4822 27.0885C68.204 27.0885 67.564 27.4993 67.564 28.3209C67.564 28.7792 67.7372 29.1425 68.0733 29.4124C68.3814 29.6458 69.1045 30.0108 70.2435 30.5056C71.4386 31.0191 72.25 31.4817 72.6795 31.8908C73.2396 32.4229 73.5282 33.1384 73.5282 34.033H73.5299ZM90 36.4825C90 36.8093 89.7793 36.9918 89.3414 36.9918L86.7798 37.1318C86.257 37.2337 85.8835 37.17 85.6595 36.9366C84.1843 35.3494 82.9333 33.6884 81.908 31.9519C81.8231 31.8033 81.717 31.7278 81.5854 31.7278C81.4267 31.7278 81.1611 31.8678 80.7604 32.1479C80.3208 32.3898 80.1018 32.7361 80.1018 33.1834L80.1298 34.5567C80.1485 35.1534 80.297 35.5455 80.5771 35.7322C80.7723 35.8638 81.2264 35.9656 81.9351 36.0403C82.3739 36.0963 82.5938 36.261 82.5938 36.5301C82.5938 36.7448 82.5598 36.8696 82.4885 36.929C82.4172 36.9884 82.2339 36.9918 81.9351 36.9629C81.0015 36.878 79.4245 36.9256 77.2033 37.103C76.6431 37.1497 76.3401 37.0792 76.2935 36.8933C76.2748 36.828 76.2654 36.7346 76.2654 36.6132C76.2654 36.3247 76.5506 36.104 77.1201 35.9563C77.6336 35.8247 77.89 35.223 77.89 34.1502V21.9128C77.89 21.1489 77.8153 20.6159 77.665 20.3171C77.4596 19.9352 77.0302 19.6356 76.3766 19.4209C76.0694 19.319 75.9149 19.1662 75.9149 18.9965C75.9149 18.7249 76.1356 18.5152 76.5727 18.3667C77.2781 18.1288 77.951 17.8038 78.5758 17.3991C79.0893 17.0639 79.4075 16.895 79.5264 16.895C79.91 16.895 80.101 17.1368 80.101 17.6232C80.101 17.557 80.0959 18.0196 80.0865 19.0084L80.073 21.7532L80.101 30.5166C80.101 30.7594 80.1663 30.8799 80.2962 30.8799C80.4362 30.8799 80.651 30.7594 80.9412 30.5166L83.7964 28.1367C84.0214 27.9033 84.1326 27.7166 84.1326 27.5765C84.1326 27.3253 83.7549 27.1471 82.9995 27.0452C82.6727 27.007 82.5182 26.8245 82.5369 26.4986C82.5649 26.1719 82.7287 26.0318 83.0266 26.0785C83.6997 26.1634 84.6792 26.2228 85.9667 26.233L88.6403 26.2465C88.9289 26.255 89.0647 26.4282 89.0647 26.7558C89.0647 27.0724 88.8355 27.2455 88.3789 27.265C87.6591 27.2922 86.9827 27.4552 86.3487 27.7548C85.4617 28.1554 84.5136 28.8607 83.5053 29.8767C83.4315 29.9327 83.3933 30.004 83.3933 30.0863C83.3933 30.217 83.552 30.5302 83.8703 31.025C85.0365 32.8074 86.1382 34.1374 87.1736 35.043C87.8357 35.6117 88.457 35.8969 89.035 35.8969C89.4644 35.8969 89.7309 35.9266 89.8328 35.9886C89.9346 36.0505 89.9873 36.2092 89.9873 36.4706L90 36.4825Z" fill="black"/>
</svg>
