<svg width="90" height="55" viewBox="0 0 90 55" fill="none" xmlns="http://www.w3.org/2000/svg">
<path d="M32.6641 23.9772C32.6641 21.2211 34.2699 19.6153 38.0192 19.6153C39.4036 19.615 40.7827 19.7815 42.1271 20.112L41.8097 22.5767C40.595 22.3492 39.3632 22.2243 38.1275 22.2033C36.1595 22.2033 35.5134 22.8792 35.5134 24.485V30.2585C35.5134 31.8606 36.1446 32.5402 38.1275 32.5402C39.3632 32.5192 40.595 32.3943 41.8097 32.1668L42.1271 34.6315C40.7828 34.962 39.4036 35.1287 38.0192 35.1282C34.2848 35.1282 32.6641 33.5224 32.6641 30.7664V23.9772ZM48.2098 35.117C44.4343 35.117 43.4222 33.0332 43.4222 30.7925V27.9992C43.4222 25.7585 44.438 23.6597 48.2135 23.6597C51.989 23.6597 53.0011 25.7398 53.0011 27.9992V30.7925C52.9973 33.0332 51.9816 35.117 48.2098 35.117ZM48.2098 26.0087C46.7384 26.0087 46.1745 26.666 46.1745 27.9095V30.8672C46.1745 32.1108 46.7384 32.7643 48.2098 32.7643C49.6812 32.7643 50.2413 32.1108 50.2413 30.8672V27.9095C50.2413 26.6846 49.6774 26.0087 48.2098 26.0087ZM61.3812 34.9004V27.2074C61.3812 26.6211 61.131 26.3261 60.4998 26.3261C59.8687 26.3261 58.6326 26.7332 57.628 27.2523V34.9004H54.8724V23.8875H56.9745L57.2397 24.8174C58.6121 24.1299 60.1131 23.7369 61.6463 23.6635C63.4762 23.6635 64.1338 24.9518 64.1338 26.9162V34.9004H61.3812ZM69.8064 35.117C68.5171 35.0956 67.2383 34.8816 66.0122 34.4821L66.3857 32.3834C67.4513 32.6872 68.5528 32.8467 69.6608 32.8577C70.8819 32.8577 71.0612 32.585 71.0612 31.7373C71.0612 31.0614 70.9268 30.7216 69.1417 30.2921C66.4529 29.6386 66.1355 28.9589 66.1355 26.834C66.1355 24.6195 67.1064 23.6485 70.2434 23.6485C71.3533 23.6453 72.4598 23.7707 73.5409 24.022L73.2981 26.2365C72.2984 26.0521 71.2858 25.946 70.2695 25.9191C69.0707 25.9191 68.8691 26.1917 68.8691 26.8676C68.8691 27.7489 68.9363 27.8162 70.4301 28.2008C73.4998 29.0149 73.7911 29.422 73.7911 31.6813C73.7836 33.8062 73.1301 35.117 69.8064 35.117ZM78.3471 23.8875V31.5693C78.3471 32.1556 78.5936 32.4506 79.2284 32.4506C79.8633 32.4506 81.0956 32.0435 82.0965 31.5245V23.8875H84.8525V34.9004H82.7537L82.4811 33.9743C81.1089 34.6623 79.6078 35.0554 78.0745 35.1282C76.2446 35.1282 75.5911 33.8398 75.5911 31.8718V23.8875H78.3471ZM87.2231 34.9004V19.3913L89.9791 19.0178V34.9004H87.2231Z" fill="black"/>
<path d="M11.8678 39.2287C9.93775 39.2296 8.03665 38.7595 6.32948 37.8592C4.62231 36.9588 3.16066 35.6554 2.07138 34.0622C0.982107 32.4689 0.298122 30.6339 0.0787887 28.7163C-0.140544 26.7988 0.111403 24.8567 0.812764 23.0586C1.51413 21.2605 2.64371 19.6607 4.10347 18.3982C5.56324 17.1356 7.30908 16.2483 9.18948 15.8134C11.0699 15.3784 13.028 15.409 14.8939 15.9023C16.7598 16.3957 18.4772 17.337 19.8968 18.6445L17.0923 21.5872C15.9729 20.578 14.5849 19.9149 13.0964 19.6784C11.6079 19.4419 10.0828 19.642 8.70569 20.2546C7.32862 20.8671 6.15869 21.8658 5.33761 23.1297C4.51653 24.3936 4.07953 25.8684 4.07953 27.3756C4.07953 28.8828 4.51653 30.3576 5.33761 31.6215C6.15869 32.8854 7.32862 33.8841 8.70569 34.4966C10.0828 35.1092 11.6079 35.3093 13.0964 35.0728C14.5849 34.8363 15.9729 34.1732 17.0923 33.164L19.8968 36.0955C17.71 38.1129 14.843 39.2317 11.8678 39.2287ZM21.413 33.2947C21.1555 33.2947 20.9085 33.1924 20.7264 33.0103C20.5444 32.8282 20.4421 32.5812 20.4421 32.3237C20.4421 32.0662 20.5444 31.8193 20.7264 31.6372C20.9085 31.4551 21.1555 31.3528 21.413 31.3528C21.6705 31.3528 21.9175 31.4551 22.0996 31.6372C22.2817 31.8193 22.384 32.0662 22.384 32.3237C22.384 32.5812 22.2817 32.8282 22.0996 33.0103C21.9175 33.1924 21.6705 33.2947 21.413 33.2947Z" fill="#E03875"/>
<path d="M11.792 29.9374C11.1105 29.9374 10.457 29.6667 9.97518 29.1849C9.49335 28.703 9.22266 28.0495 9.22266 27.3681C9.22266 26.6867 9.49335 26.0332 9.97518 25.5513C10.457 25.0695 11.1105 24.7988 11.792 24.7988C12.4734 24.7988 13.1269 25.0695 13.6087 25.5513C14.0906 26.0332 14.3612 26.6867 14.3612 27.3681C14.3612 28.0495 14.0906 28.703 13.6087 29.1849C13.1269 29.6667 12.4734 29.9374 11.792 29.9374ZM22.5285 29.9747C22.3364 29.9747 22.1487 29.9178 21.989 29.8111C21.8294 29.7044 21.7049 29.5528 21.6314 29.3754C21.5579 29.1979 21.5387 29.0027 21.5762 28.8144C21.6136 28.626 21.7061 28.453 21.8419 28.3172C21.9777 28.1814 22.1507 28.0889 22.339 28.0515C22.5274 28.014 22.7226 28.0332 22.9 28.1067C23.0775 28.1802 23.2291 28.3047 23.3358 28.4644C23.4425 28.624 23.4994 28.8117 23.4994 29.0038C23.4984 29.261 23.3958 29.5074 23.2139 29.6893C23.0321 29.8711 22.7857 29.9738 22.5285 29.9747ZM19.6384 29.8627C19.3809 29.8627 19.1339 29.7604 18.9518 29.5783C18.7697 29.3962 18.6674 29.1493 18.6674 28.8917C18.6674 28.6342 18.7697 28.3873 18.9518 28.2052C19.1339 28.0231 19.3809 27.9208 19.6384 27.9208C19.8959 27.9208 20.1429 28.0231 20.325 28.2052C20.507 28.3873 20.6093 28.6342 20.6093 28.8917C20.6093 29.1493 20.507 29.3962 20.325 29.5783C20.1429 29.7604 19.8959 29.8627 19.6384 29.8627ZM22.5285 26.7071C22.3364 26.7071 22.1487 26.6502 21.989 26.5435C21.8294 26.4368 21.7049 26.2851 21.6314 26.1077C21.5579 25.9303 21.5387 25.7351 21.5762 25.5467C21.6136 25.3584 21.7061 25.1854 21.8419 25.0496C21.9777 24.9138 22.1507 24.8213 22.339 24.7839C22.5274 24.7464 22.7226 24.7656 22.9 24.8391C23.0775 24.9126 23.2291 25.037 23.3358 25.1967C23.4425 25.3564 23.4994 25.5441 23.4994 25.7361C23.4984 25.9934 23.3958 26.2398 23.2139 26.4216C23.0321 26.6035 22.7857 26.7061 22.5285 26.7071ZM19.6384 26.8191C19.3809 26.8191 19.1339 26.7168 18.9518 26.5347C18.7697 26.3527 18.6674 26.1057 18.6674 25.8482C18.6674 25.5907 18.7697 25.3437 18.9518 25.1616C19.1339 24.9795 19.3809 24.8772 19.6384 24.8772C19.8959 24.8772 20.1429 24.9795 20.325 25.1616C20.507 25.3437 20.6093 25.5907 20.6093 25.8482C20.6093 26.1057 20.507 26.3527 20.325 26.5347C20.1429 26.7168 19.8959 26.8191 19.6384 26.8191ZM21.4679 23.4395C21.2104 23.4395 20.9634 23.3372 20.7813 23.1551C20.5992 22.973 20.4969 22.726 20.4969 22.4685C20.4969 22.211 20.5992 21.964 20.7813 21.7819C20.9634 21.5999 21.2104 21.4976 21.4679 21.4976C21.7254 21.4976 21.9724 21.5999 22.1545 21.7819C22.3365 21.964 22.4388 22.211 22.4388 22.4685C22.4388 22.726 22.3365 22.973 22.1545 23.1551C21.9724 23.3372 21.7254 23.4395 21.4679 23.4395Z" fill="#E03875"/>
<path d="M35.7447 16.1311V14.0212H33.814V16.1311H32.8281V11.0598H33.814V13.1884H35.7447V11.0598H36.7306V16.1311H35.7447ZM40.3493 16.1311H39.5651L39.4941 15.8846C39.1576 16.0937 38.77 16.2061 38.3738 16.2095C37.6792 16.2095 37.3804 15.7502 37.3804 15.1191C37.3804 14.3722 37.7165 14.0884 38.5007 14.0884H39.4157V13.7149C39.4157 13.3116 39.2999 13.1697 38.6688 13.1697C38.314 13.1734 37.96 13.2108 37.6119 13.2817L37.4962 12.5834C37.9223 12.4678 38.3617 12.4087 38.8032 12.4079C39.9982 12.4079 40.353 12.8149 40.353 13.7299L40.3493 16.1311ZM39.3933 14.7344H38.6875C38.3775 14.7344 38.2916 14.8166 38.2916 15.1079C38.2916 15.3992 38.3775 15.4813 38.6651 15.4813C38.9169 15.4786 39.1643 15.4145 39.3858 15.2946L39.3933 14.7344ZM42.3472 16.2282C41.9012 16.22 41.4586 16.1483 41.0327 16.0154L41.1671 15.317C41.5324 15.4166 41.9089 15.4694 42.2875 15.4739C42.7095 15.4739 42.7729 15.3842 42.7729 15.1004C42.7729 14.8166 42.7244 14.7606 42.1082 14.6187C41.1746 14.4021 41.0663 14.1743 41.0663 13.4685C41.0663 12.7627 41.4024 12.4079 42.4891 12.4079C42.8738 12.4079 43.2569 12.4508 43.6319 12.5349L43.5385 13.2817C43.1918 13.2207 42.841 13.1857 42.4891 13.1772C42.0746 13.1772 42.0036 13.2668 42.0036 13.4909C42.0036 13.7859 42.0298 13.8083 42.5451 13.9353C43.6095 14.2041 43.7103 14.3386 43.7103 15.0929C43.7103 15.8473 43.4974 16.2282 42.3472 16.2282ZM46.7202 16.1498V13.5768C46.7202 13.3826 46.6344 13.2855 46.414 13.2855C46.0663 13.3228 45.7291 13.4266 45.4207 13.5917V16.1311H44.4646V11L45.4207 11.1419V12.7627C45.8554 12.5492 46.3297 12.4284 46.8136 12.4079C47.4485 12.4079 47.6725 12.8373 47.6725 13.4909V16.1423L46.7202 16.1498ZM48.4754 11.9747V11.0784H49.4314V11.9747H48.4754ZM48.4754 16.1498V12.49H49.4314V16.1498H48.4754ZM50.1933 12.5199C50.1933 11.605 50.7497 11.071 52.0605 11.071C52.537 11.071 53.012 11.1259 53.4758 11.2353L53.3675 12.0568C52.946 11.9794 52.5189 11.9357 52.0904 11.9261C51.4107 11.9261 51.1904 12.1539 51.1904 12.673V14.5963C51.1904 15.1303 51.4107 15.3432 52.0904 15.3432C52.5188 15.335 52.9459 15.2926 53.3675 15.2162L53.4758 16.034C53.0122 16.1447 52.5372 16.2011 52.0605 16.2021C50.7609 16.2021 50.1933 15.668 50.1933 14.7494V12.5199ZM55.5746 16.2282C54.2675 16.2282 53.9165 15.5336 53.9165 14.783V13.8419C53.9165 13.095 54.2675 12.3967 55.5746 12.3967C56.8816 12.3967 57.2402 13.0876 57.2402 13.8419V14.7643C57.2402 15.5149 56.8667 16.2282 55.5746 16.2282ZM55.5746 13.1996C55.0667 13.1996 54.8688 13.4162 54.8688 13.8307V14.8129C54.8688 15.2274 55.0667 15.444 55.5746 15.444C56.0825 15.444 56.2804 15.2274 56.2804 14.8129V13.812C56.2804 13.3975 56.0825 13.1809 55.5746 13.1809V13.1996ZM59.9215 13.2593C59.5719 13.4106 59.2347 13.5891 58.9132 13.7934V16.1498H57.9572V12.49H58.7638L58.8273 12.8971C59.1387 12.694 59.4751 12.5321 59.8281 12.4154L59.9215 13.2593ZM63.7381 14.9324C63.7381 15.7465 63.3646 16.2282 62.4796 16.2282C62.1371 16.2237 61.7958 16.1875 61.4601 16.1199V17.6137L60.5078 17.7556V12.4714H61.2547L61.348 12.7813C61.7015 12.5345 62.1231 12.4039 62.5543 12.4079C63.3198 12.4079 63.7269 12.8448 63.7269 13.6776L63.7381 14.9324ZM61.4601 15.3469C61.739 15.4063 62.0229 15.4388 62.3078 15.444C62.6514 15.444 62.7858 15.2871 62.7858 14.9548V13.644C62.7858 13.3452 62.6663 13.1809 62.3153 13.1809C62.0013 13.191 61.7 13.3068 61.4601 13.5095V15.3469Z" fill="black"/>
</svg>
