<svg width="90" height="55" viewBox="0 0 90 55" fill="none" xmlns="http://www.w3.org/2000/svg">
<g clip-path="url(#clip0_5395_3764)">
<path d="M58.8213 48.2858L60.0658 50.7824H59.0127L57.8029 48.3647H56.4275V50.7824H55.5312V44.6718H58.2031C59.2654 44.6718 60.1617 45.2392 60.1617 46.4966C60.1617 47.4739 59.6483 48.0765 58.8213 48.2858ZM58.2031 45.5359H56.4275V47.5001H58.2031C58.8124 47.5001 59.2388 47.1861 59.2388 46.5224C59.2388 45.8851 58.8213 45.5359 58.2031 45.5359Z" fill="#CC0000"/>
<path d="M65.122 48.8102H62.1016C62.1975 49.6916 62.6936 50.0671 63.2509 50.0671C63.6338 50.0671 63.9385 49.9277 64.2431 49.7005L64.7743 50.2765C64.3741 50.6604 63.8954 50.8787 63.1986 50.8787C62.1282 50.8787 61.2227 50.0146 61.2227 48.4957C61.2227 46.9417 62.0412 46.1034 63.2243 46.1034C64.5212 46.1034 65.1483 47.1595 65.1483 48.3995C65.1483 48.5648 65.1309 48.714 65.122 48.8102ZM63.1635 46.9154C62.5626 46.9154 62.1971 47.3341 62.1185 48.0677H64.2423C64.1992 47.4392 63.9034 46.9154 63.1635 46.9154Z" fill="#CC0000"/>
<path d="M69.0113 50.7825V50.3465C68.6804 50.652 68.2976 50.8787 67.8188 50.8787C66.8351 50.8787 66.0605 50.1634 66.0605 48.4169C66.0605 46.8455 66.9137 46.1035 67.8624 46.1035C68.3238 46.1035 68.759 46.348 69.0117 46.6273V44.8812L69.8995 44.4185V50.7826L69.0113 50.7825ZM69.0202 47.5354C68.8199 47.2646 68.402 46.9328 67.9494 46.9328C67.3054 46.9328 66.9572 47.4219 66.9572 48.3907C66.9572 49.543 67.3227 50.049 67.9845 50.049C68.4108 50.049 68.7852 49.7608 69.0202 49.4646V47.5354Z" fill="#CC0000"/>
<path d="M77.42 50.7825V48.0414H74.6167V50.7825H73.7031V44.6719H74.6167V47.1422H77.42V44.6719H78.3336V50.7825H77.42Z" fill="#CC0000"/>
<path d="M82.4059 50.7826V50.3291C82.0927 50.6432 81.6486 50.8788 81.1525 50.8788C80.4126 50.8788 79.5684 50.4601 79.5684 49.3337C79.5684 48.3123 80.3518 47.8495 81.3875 47.8495C81.8143 47.8495 82.1536 47.9106 82.4059 48.0241V47.6834C82.4059 47.1859 82.1012 46.9066 81.5442 46.9066C81.0744 46.9066 80.7084 46.9939 80.3518 47.1948L80.0036 46.5142C80.4388 46.2434 80.9265 46.1035 81.5704 46.1035C82.5888 46.1035 83.2856 46.601 83.2856 47.6402V50.7826L82.4059 50.7826ZM82.4059 48.8277C82.1625 48.7052 81.8489 48.6264 81.3613 48.6264C80.787 48.6264 80.4211 48.8883 80.4211 49.3074C80.4211 49.7608 80.7084 50.0668 81.3 50.0668C81.7792 50.0668 82.1967 49.7702 82.4054 49.482V48.8277H82.4059Z" fill="#CC0000"/>
<path d="M86.7567 50.6691C86.5387 50.7916 86.2344 50.8784 85.8774 50.8784C85.2418 50.8784 84.8501 50.486 84.8501 49.6651V47.0202H84.1973V46.1994H84.8501V44.8898L85.7295 44.4186V46.1994H86.8611V47.0202H85.7295V49.5083C85.7295 49.9359 85.8685 50.0584 86.1994 50.0584C86.4343 50.0584 86.6954 49.9711 86.8607 49.8749L86.7567 50.6691Z" fill="#CC0000"/>
<path d="M44.511 23.1992C46.0196 22.4419 47.0464 21.0375 47.0464 19.3084C47.0464 15.2785 43.4064 14.4115 40.0889 14.4683H31.1365H31.0854H26.122V27.3354C26.122 29.2039 25.4725 29.8511 24.316 29.8511C23.0732 29.8511 22.3743 29.1501 22.3743 27.8771V26.095H17.6543V26.9295C17.6543 31.2326 19.2989 34.1759 24.395 34.1759C28.5517 34.1759 30.7495 32.3298 31.0854 28.6844V33.7716H40.3306C44.4553 33.7716 47.8256 32.3667 47.8256 27.7702C47.8256 25.5814 46.5617 23.7968 44.511 23.1992ZM36.1012 18.3595H39.9807C41.0342 18.3595 42.031 18.8223 42.031 20.2263C42.031 21.6049 40.8453 22.0647 39.9807 22.0647H36.1012V18.3595ZM40.1164 29.7443H36.1012V25.3076H40.1164C41.6275 25.3076 42.814 25.8776 42.814 27.577C42.814 29.1747 41.7082 29.7443 40.1164 29.7443Z" fill="#CC0000"/>
<path d="M37.6152 47.5138C37.6152 44.2527 34.9763 41.6031 31.723 41.6031C28.4634 41.6031 25.8262 44.2527 25.8262 47.5138C25.8262 50.7808 28.4634 53.4248 31.723 53.4248C34.9763 53.4248 37.6152 50.7808 37.6152 47.5138Z" fill="#CC0000"/>
<path d="M21.9567 45.6491C21.9567 42.7596 19.6186 40.4156 16.7351 40.4156C13.852 40.4156 11.5156 42.7592 11.5156 45.6491C11.5156 48.541 13.8515 50.8859 16.7351 50.8859C19.6186 50.8859 21.9567 48.541 21.9567 45.6491Z" fill="#CC0000"/>
<path d="M10.1598 36.1907C10.1598 33.5814 8.05372 31.465 5.44821 31.465C2.84186 31.465 0.732422 33.5814 0.732422 36.1907C0.732422 38.8072 2.84185 40.9236 5.44821 40.9236C8.0533 40.9236 10.1598 38.8072 10.1598 36.1907Z" fill="#CC0000"/>
<path d="M7.97128 23.0254C7.97128 20.692 6.08877 18.8062 3.76468 18.8062C1.44101 18.8062 -0.445312 20.6916 -0.445312 23.0254C-0.445312 25.3563 1.441 27.2481 3.76468 27.2481C6.08877 27.2481 7.97128 25.3558 7.97128 23.0254Z" fill="#CC0000"/>
<path d="M13.871 11.2033C13.871 9.24579 12.2838 7.65784 10.3333 7.65784C8.38148 7.65784 6.79688 9.24579 6.79688 11.2033C6.79688 13.1625 8.38148 14.7491 10.3333 14.7491C12.2838 14.7491 13.871 13.1625 13.871 11.2033Z" fill="#CC0000"/>
<path d="M23.9705 5.96743C23.9705 4.19598 22.5402 2.75891 20.7734 2.75891C19.0071 2.75891 17.5742 4.19599 17.5742 5.96743C17.5742 7.74185 19.0075 9.17893 20.7734 9.17893C22.5406 9.17893 23.9705 7.74185 23.9705 5.96743Z" fill="#CC0000"/>
<path d="M34.5814 4.27772C34.5814 2.78512 33.3776 1.5752 31.888 1.5752C30.4023 1.5752 29.1934 2.78512 29.1934 4.27772C29.1934 5.77201 30.4023 6.98152 31.888 6.98152C33.3776 6.98152 34.5814 5.77201 34.5814 4.27772Z" fill="#CC0000"/>
<path d="M83.9538 25.3915C81.8515 24.9329 78.6375 24.6905 78.6375 23.3628C78.6375 22.3881 79.8541 22.3088 80.6067 22.3088C81.1725 22.3088 81.6817 22.4182 82.0632 22.6593C82.4368 22.9034 82.6531 23.2823 82.6531 23.8739H86.8868C86.7241 20.2267 83.5147 19.3334 80.4474 19.3334C77.8917 19.3334 74.5716 20.131 74.1123 22.9526C73.4848 20.0788 70.5865 19.3334 67.798 19.3334C65.0471 19.3334 61.2648 20.2539 61.2648 23.6332C61.2648 23.6929 61.2736 23.7438 61.2749 23.8018C60.2079 21.1336 57.6874 19.3334 54.4451 19.3334C50.9382 19.3334 48.3162 21.3875 47.4297 24.4172C48.1075 25.3317 48.4641 26.5247 48.4641 27.7702C48.4641 28.7928 48.3019 29.6981 47.9947 30.4906C49.2002 32.7252 51.5201 34.1759 54.445 34.1759C57.5526 34.1759 59.9903 32.5349 61.1279 30.057C61.7254 33.2393 64.8303 34.1759 67.8707 34.1759C70.4851 34.1759 73.3724 33.3168 74.2848 30.8821C75.2292 33.4033 78.0413 34.1759 80.8011 34.1759C83.9542 34.1759 87.5139 32.9337 87.5139 29.1747C87.5135 28.0127 86.7824 25.9611 83.9538 25.3915ZM54.445 30.6622C52.3132 30.6622 51.6654 28.556 51.6654 26.7688C51.6654 24.9868 52.3132 22.8466 54.445 22.8466C56.5743 22.8466 57.2479 24.9872 57.2479 26.7688C57.2475 28.5564 56.5743 30.6622 54.445 30.6622ZM67.8436 31.2C67.1979 31.2 66.5759 31.0423 66.1441 30.716C65.6886 30.3647 65.3885 29.8511 65.3885 29.1501H61.4765C61.7051 28.4076 61.8314 27.61 61.8314 26.7688C61.8314 26.3764 61.7963 25.9958 61.7452 25.622C62.8172 27.4761 65.5081 27.6567 67.7638 28.2296C68.5692 28.4165 69.9995 28.6365 69.9995 29.715C69.9995 30.8254 68.7297 31.2 67.8436 31.2ZM80.7736 31.2C80.1283 31.2 79.5067 31.0423 79.0745 30.716C78.6189 30.3647 78.3189 29.8511 78.3189 29.1501H74.5826C74.5729 27.9843 73.8334 25.9573 71.0234 25.3915C68.9216 24.933 65.8483 24.6906 65.8483 23.3628C65.8483 22.3881 67.2051 22.3088 67.9577 22.3088C68.5239 22.3088 69.0327 22.4182 69.4143 22.6593C69.7882 22.9034 70.0042 23.2823 70.0042 23.8739H74.0692C74.2323 27.4143 77.8718 27.513 80.6937 28.2301C81.4995 28.417 82.9295 28.6369 82.9295 29.7155C82.9299 30.8254 81.6597 31.2 80.7736 31.2Z" fill="#61615C"/>
<path d="M87.9243 16.8995H88.332L88.9456 17.9107H89.3432L88.6794 16.8808C89.0204 16.8376 89.2794 16.6562 89.2794 16.2413C89.2794 15.7756 89.0098 15.5747 88.4605 15.5747H87.5723V17.9107H87.9243V16.8995ZM87.9243 16.5969V15.8718H88.4072C88.6468 15.8718 88.9143 15.9277 88.9143 16.2172C88.9143 16.5761 88.6468 16.5969 88.3485 16.5969H87.9243Z" fill="#61615C"/>
<path d="M90.6244 16.7469C90.6244 18.0098 89.6018 19.032 88.343 19.032C87.0812 19.032 86.0586 18.0098 86.0586 16.7469C86.0586 15.481 87.0812 14.4563 88.343 14.4563C89.6018 14.4567 90.6244 15.481 90.6244 16.7469ZM88.3425 14.8636C87.3013 14.8636 86.4613 15.7035 86.4613 16.7469C86.4613 17.7856 87.3013 18.6251 88.3425 18.6251C89.3778 18.6251 90.2179 17.7856 90.2179 16.7469C90.2183 15.7035 89.3778 14.8636 88.3425 14.8636Z" fill="#61615C"/>
<path d="M45.2872 50.8783C44.8257 50.8783 44.3905 50.6342 44.1382 50.3549V50.7825H43.25V44.8812L44.1382 44.4185V46.6357C44.4687 46.3298 44.8515 46.103 45.3307 46.103C46.314 46.103 47.0886 46.8188 47.0886 48.5648C47.0886 50.1367 46.2358 50.8783 45.2872 50.8783ZM45.165 46.9328C44.7383 46.9328 44.3639 47.221 44.1294 47.5181V49.4472C44.3296 49.718 44.7471 50.0494 45.1997 50.0494C45.8437 50.0494 46.1923 49.5612 46.1923 48.592C46.1923 47.4392 45.8268 46.9328 45.165 46.9328Z" fill="#61615C"/>
<path d="M49.8034 52.3975H48.8547L49.516 50.6951L47.8359 46.1991H48.8197L49.568 48.4431C49.707 48.8444 49.9162 49.5254 49.9682 49.778C50.0468 49.5076 50.2382 48.8529 50.3772 48.4605L51.1522 46.1991H52.1008L49.8034 52.3975Z" fill="#61615C"/>
</g>
<defs>
<clipPath id="clip0_5395_3764">
<rect width="90" height="55" fill="white"/>
</clipPath>
</defs>
</svg>
