<svg width="90" height="55" viewBox="0 0 90 55" fill="none" xmlns="http://www.w3.org/2000/svg">
<g clip-path="url(#clip0_5376_4893)">
<g clip-path="url(#clip1_5376_4893)">
<path d="M59.8301 18.0076H75.5065V20.901H69.2878V36.1231H66.1783V20.901H59.8301V18.0076Z" fill="black"/>
<path d="M34.0475 18.0076V20.901H21.4818V25.5557H31.5871V28.4492H21.4818V33.2297H34.0475V36.1231H18.3724V20.901H18.3711V18.0076H34.0475Z" fill="black"/>
<path d="M41.8758 18.0151H37.8066L52.3816 36.1307H56.4627L49.1743 27.0792L56.451 18.029L52.3816 18.0352L47.1369 24.5489L41.8758 18.0151Z" fill="black"/>
<path d="M46.0514 30.9552L44.0136 28.4215L37.7949 36.1445H41.8758L46.0514 30.9552Z" fill="black"/>
<path fill-rule="evenodd" clip-rule="evenodd" d="M18.4813 36.1231L3.8867 18H0V36.1156H3.10936V21.8722L14.5751 36.1231H18.4813Z" fill="black"/>
<path d="M76.2048 36.0125C75.9771 36.0125 75.7834 35.9336 75.6212 35.7758C75.459 35.6181 75.3788 35.4271 75.3809 35.2008C75.3788 34.9807 75.459 34.7918 75.6212 34.634C75.7834 34.4762 75.9771 34.3973 76.2048 34.3973C76.4239 34.3973 76.6155 34.4762 76.7777 34.634C76.9422 34.7918 77.0242 34.9807 77.0265 35.2008C77.0242 35.3502 76.9863 35.4873 76.9104 35.6097C76.8326 35.7343 76.7336 35.8319 76.6091 35.9025C76.4869 35.9751 76.3522 36.0125 76.2048 36.0125Z" fill="black"/>
<path d="M81.511 28.381H82.8889V33.6895C82.8869 34.1773 82.7813 34.5946 82.5751 34.9455C82.3665 35.2963 82.0778 35.5641 81.707 35.753C81.3384 35.9399 80.9064 36.0354 80.4155 36.0354C79.9667 36.0354 79.5644 35.9544 79.2062 35.7966C78.848 35.6389 78.5637 35.4022 78.3551 35.0908C78.1443 34.7794 78.041 34.3912 78.041 33.9261H79.4212C79.4232 34.1296 79.4696 34.306 79.558 34.4534C79.6464 34.6008 79.7686 34.7129 79.9246 34.7918C80.0825 34.8707 80.2638 34.9102 80.468 34.9102C80.6894 34.9102 80.879 34.8645 81.0327 34.7711C81.1865 34.6797 81.3045 34.5427 81.3868 34.36C81.4667 34.1794 81.509 33.9552 81.511 33.6895V28.381Z" fill="black"/>
<path d="M88.5582 30.4571C88.5246 30.1353 88.377 29.8841 88.12 29.7055C87.8608 29.5249 87.5259 29.4357 87.115 29.4357C86.8264 29.4357 86.5779 29.4793 86.3714 29.5644C86.1649 29.6516 86.0048 29.7678 85.8952 29.9152C85.7857 30.0626 85.7309 30.2308 85.7266 30.4197C85.7266 30.5775 85.7645 30.7145 85.8383 30.8287C85.9121 30.9449 86.011 31.0425 86.1396 31.1214C86.2659 31.2024 86.4071 31.2688 86.561 31.3228C86.7168 31.3768 86.8728 31.4224 87.0286 31.4598L87.747 31.6363C88.0357 31.7027 88.316 31.792 88.5835 31.9062C88.851 32.0183 89.0934 32.1615 89.306 32.3338C89.5189 32.5061 89.6875 32.7137 89.8118 32.9566C89.936 33.1995 89.9993 33.4839 89.9993 33.812C89.9993 34.2542 89.8855 34.6424 89.6557 34.9787C89.4262 35.3129 89.0954 35.5745 88.6614 35.7635C88.2294 35.9503 87.707 36.0458 87.0919 36.0458C86.4977 36.0458 85.9794 35.9545 85.5434 35.7718C85.1053 35.5912 84.7638 35.3254 84.5173 34.9766C84.2708 34.6279 84.1381 34.2023 84.1191 33.7019H85.4844C85.5034 33.9635 85.5877 34.1815 85.7309 34.358C85.8762 34.5324 86.0658 34.6611 86.2976 34.7483C86.5316 34.8334 86.7926 34.877 87.0814 34.877C87.3827 34.877 87.6481 34.8313 87.8777 34.742C88.1052 34.6528 88.2843 34.5282 88.4129 34.3663C88.5435 34.2064 88.6089 34.0175 88.6109 33.8016C88.6089 33.6044 88.5497 33.4403 88.4359 33.3116C88.3201 33.1829 88.16 33.075 87.9556 32.9878C87.7493 32.9006 87.509 32.8217 87.2351 32.7532L86.363 32.5331C85.733 32.3733 85.2336 32.1304 84.8691 31.8044C84.5027 31.4785 84.3213 31.0467 84.3213 30.5048C84.3213 30.0606 84.4435 29.6703 84.6902 29.336C84.9344 29.0018 85.2695 28.7423 85.693 28.5575C86.1186 28.3707 86.5989 28.2793 87.1339 28.2793C87.6776 28.2793 88.1536 28.3707 88.5645 28.5575C88.9753 28.7423 89.2978 28.9997 89.5315 29.3277C89.7654 29.6557 89.8876 30.0315 89.894 30.4571H88.5582Z" fill="black"/>
</g>
</g>
<defs>
<clipPath id="clip0_5376_4893">
<rect width="90" height="55" fill="white"/>
</clipPath>
<clipPath id="clip1_5376_4893">
<rect width="90" height="18.2741" fill="white" transform="translate(0 18)"/>
</clipPath>
</defs>
</svg>
