<svg width="90" height="55" viewBox="0 0 90 55" fill="none" xmlns="http://www.w3.org/2000/svg">
<path d="M19.5567 33.6593C19.7268 32.2283 19.6755 32.0177 20.742 32.2499L21.012 32.2742C21.8755 32.3074 22.7364 32.1593 23.5392 31.8395C24.8892 31.2104 25.6992 30.1601 24.3492 30.4355C21.3009 31.0646 21.0903 30.0305 21.0903 30.0305C24.3222 25.265 25.6668 19.2035 24.5058 17.7185C21.336 13.6685 15.8658 15.5855 15.7605 15.6341H15.7308C15.0613 15.4998 14.3805 15.4293 13.6977 15.4235C12.5443 15.3649 11.4062 15.7074 10.4766 16.3928C10.4766 16.3928 0.694514 12.3617 1.14811 21.4607C1.24531 23.3966 3.92371 36.1082 7.11781 32.2607C8.28421 30.8567 9.41281 29.6687 9.41281 29.6687C9.98169 30.052 10.6657 30.2266 11.3487 30.1628L11.4027 30.1169C11.3855 30.297 11.3928 30.4787 11.4243 30.6569C10.6008 31.5749 10.8438 31.7369 9.19681 32.0744C7.54981 32.4119 8.51101 33.0275 9.14821 33.1895C9.92311 33.3812 11.7132 33.6566 12.9282 31.9637L12.8823 32.1554C13.2036 32.4254 13.182 34.0103 13.2279 35.1524C13.2738 36.2945 13.3494 37.361 13.5816 37.9874C13.8138 38.6138 14.0892 40.2338 16.2519 39.7694C18.0528 39.3995 19.4352 38.8433 19.5567 33.6593Z" fill="black"/>
<path d="M15.5065 41.0033C14.0782 41.0033 13.09 40.1933 12.5608 38.5733C12.5392 38.5112 12.523 38.4518 12.5041 38.4032C12.2341 37.658 12.1342 36.5915 12.0802 35.2199C12.0802 35.0174 12.064 34.8014 12.0586 34.58C12.0586 34.4423 12.0586 34.2857 12.0451 34.121C11.0353 34.5355 9.91627 34.602 8.8645 34.31C8.32858 34.1938 7.84129 33.9158 7.4686 33.5135C7.16585 33.7891 6.79532 33.9793 6.39493 34.0647C5.99454 34.1501 5.57865 34.1276 5.1898 33.9995C1.7365 32.852 0.062505 22.403 0.016605 21.5174C-0.126495 18.6527 0.656505 16.6007 2.3197 15.4181C4.9252 13.5794 8.8483 14.6297 10.3252 15.1292C11.3544 14.5367 12.5296 14.2457 13.7164 14.2895C14.3635 14.2975 15.009 14.3562 15.6469 14.465C17.2426 13.9439 22.3078 13.0664 25.3993 17.0138C27.0193 19.0874 25.3723 25.0895 22.7722 29.5094C23.2265 29.4888 23.6781 29.4291 24.1222 29.3312C25.6045 29.0234 26.0122 29.8955 26.1067 30.1709C26.5657 31.5614 24.6163 32.6009 24.0061 32.8709C23.0405 33.2676 22.0009 33.4517 20.9578 33.4109L20.7256 33.392L20.7094 33.5297L20.6851 33.743C20.5474 39.0296 19.0975 40.3391 16.4758 40.9007C16.1572 40.9689 15.8323 41.0033 15.5065 41.0033ZM13.5841 31.2995C14.2294 31.8179 14.2861 32.7629 14.3347 34.5233C14.3347 34.7366 14.3482 34.9445 14.3536 35.1362C14.3779 35.714 14.4319 37.064 14.6398 37.6229C14.6668 37.6985 14.6965 37.7849 14.7262 37.8794C14.9611 38.5976 15.0583 38.8973 16.0087 38.6894C17.3587 38.4032 18.3172 38.1953 18.4387 33.6404V33.5351L18.4684 33.2651C18.5656 32.4227 18.6439 31.7558 19.2487 31.3238C19.5949 31.0928 20.0137 30.9968 20.4259 31.0538C20.2106 30.8412 20.0607 30.5713 19.9939 30.2762L19.8994 29.8118L20.1694 29.4176C23.3689 24.6521 24.2383 19.2386 23.6065 18.4178C21.0928 15.1967 16.7107 16.5116 16.2274 16.6709L16.1437 16.7168L15.7198 16.7951L15.5065 16.7492C14.9062 16.63 14.296 16.5667 13.684 16.5602C12.7856 16.5075 11.8966 16.7669 11.1676 17.2946L10.6465 17.6861L10.0444 17.4404C8.8726 16.9598 5.4301 15.9932 3.6265 17.273C2.6329 17.9777 2.182 19.3655 2.2765 21.404C2.3116 22.1087 2.7895 24.7574 3.5806 27.3035C4.6795 30.8486 5.6488 31.799 5.9053 31.853C6.03428 31.7711 6.14765 31.6669 6.2401 31.5452C7.4173 30.1277 8.5378 28.9478 8.5864 28.8965L9.2425 28.208L10.0336 28.748C10.2978 28.9206 10.6017 29.0228 10.9165 29.045L12.8065 27.4385L12.5365 30.2357C12.5271 30.3201 12.5271 30.4052 12.5365 30.4895L12.6175 31.0295L12.2665 31.4264L13.1386 31.8395L13.5841 31.2995Z" fill="black"/>
<path d="M24.36 30.4463C21.3117 31.0754 21.1011 30.0413 21.1011 30.0413C24.3222 25.265 25.6668 19.2008 24.5058 17.7185C21.3387 13.6712 15.8523 15.5855 15.7605 15.6395H15.7308C15.0612 15.5055 14.3806 15.4341 13.6977 15.4262C12.5453 15.3687 11.4081 15.709 10.4766 16.3901C10.4766 16.3901 0.694514 12.3617 1.14811 21.4607C1.24531 23.3966 3.92371 36.1082 7.11781 32.2607C8.28421 30.8567 9.41281 29.6687 9.41281 29.6687C9.98095 30.0514 10.6639 30.226 11.346 30.1628L11.4027 30.1169C11.3855 30.297 11.3928 30.4787 11.4243 30.6569C10.6008 31.5749 10.8438 31.7369 9.19681 32.0744C7.54981 32.4119 8.51101 33.0275 9.14821 33.1895C9.92311 33.3812 11.7132 33.6566 12.9282 31.9637L12.8796 32.1554C13.2036 32.4254 13.4196 33.8348 13.3926 35.1254C13.3656 36.416 13.3278 37.2854 13.5816 37.9901C13.8354 38.6948 14.0892 40.2365 16.2519 39.7721C18.0528 39.3995 18.9897 38.3951 19.1193 36.7211C19.2111 35.5331 19.4217 35.7086 19.4352 34.6448L19.6026 34.1399C19.797 32.5199 19.6323 32.0069 20.7474 32.2499L21.0174 32.2742C21.879 32.3053 22.7377 32.1573 23.5392 31.8395C24.8892 31.2104 25.6992 30.1601 24.3492 30.4355L24.36 30.4463Z" fill="#336791"/>
<path d="M15.6494 40.2986C13.8296 40.2986 13.2545 38.8595 13.0169 38.2682C12.674 37.4042 12.5984 34.1777 12.6767 31.3589C12.6795 31.2587 12.7221 31.1637 12.795 31.0948C12.8679 31.0259 12.9652 30.9889 13.0655 30.9917C13.1657 30.9946 13.2607 31.0372 13.3296 31.1101C13.3985 31.183 13.4355 31.2803 13.4327 31.3805C13.3436 34.5179 13.4678 37.3583 13.7189 37.9874C14.1104 38.9648 14.7017 39.818 16.3757 39.4589C17.9957 39.1133 18.5627 38.5328 18.83 36.9722C19.0379 35.7815 19.4429 32.3822 19.4942 31.718C19.496 31.6672 19.5081 31.6172 19.5297 31.5712C19.5513 31.5251 19.582 31.4839 19.6199 31.45C19.6579 31.4161 19.7022 31.3902 19.7504 31.3738C19.7986 31.3575 19.8496 31.351 19.9003 31.3548C19.951 31.3586 20.0005 31.3727 20.0456 31.396C20.0908 31.4194 20.1308 31.4517 20.1632 31.4909C20.1957 31.5301 20.2198 31.5755 20.2343 31.6242C20.2488 31.673 20.2533 31.7242 20.2475 31.7747C20.1962 32.474 19.7885 35.8625 19.5752 37.1018C19.2566 38.9513 18.4331 39.8018 16.5323 40.1987C16.2422 40.2623 15.9463 40.2958 15.6494 40.2986Z" fill="white"/>
<path d="M5.88015 33.3271C5.71946 33.3266 5.55991 33.3002 5.40765 33.2488C2.59965 32.3119 0.812249 22.6594 0.750149 21.4417C0.620549 18.8497 1.29015 17.0164 2.73735 15.9904C5.59935 13.9654 10.4053 15.8905 10.6078 15.9742C10.6974 16.0143 10.7679 16.0877 10.8043 16.1788C10.8408 16.2699 10.8404 16.3716 10.8032 16.4624C10.766 16.5532 10.695 16.626 10.6051 16.6654C10.5153 16.7048 10.4136 16.7077 10.3216 16.6735C10.2757 16.6546 5.69385 14.8294 3.17475 16.6087C1.95165 17.4754 1.39005 19.09 1.50615 21.4039C1.54395 22.1356 2.00565 24.7465 2.79675 27.3439C3.71475 30.3436 4.75155 32.2363 5.64795 32.5333C5.78565 32.5792 6.20145 32.7196 6.80625 31.9933C7.96995 30.5947 9.03645 29.4769 9.04725 29.4661C9.11888 29.4056 9.21046 29.3738 9.3042 29.377C9.39793 29.3802 9.48713 29.4182 9.55445 29.4835C9.62178 29.5488 9.66242 29.6368 9.66848 29.7304C9.67454 29.824 9.64559 29.9165 9.58725 29.9899C9.58725 29.9899 8.52615 31.0996 7.38405 32.4739C6.83865 33.1327 6.31215 33.3271 5.88015 33.3271Z" fill="white"/>
<path d="M21.0803 30.3815C21.0055 30.3823 20.9321 30.3606 20.8697 30.3194C20.7866 30.2629 20.7291 30.1759 20.7099 30.0773C20.6907 29.9787 20.7112 29.8764 20.7671 29.7929C24.0071 24.9734 25.16 19.1576 24.188 17.9129C21.2855 14.2031 16.3661 15.7772 15.9206 15.9311L15.8639 15.9554C15.7743 15.9836 15.6776 15.9787 15.5913 15.9415C15.5051 15.9043 15.4351 15.8374 15.3941 15.7529C15.3551 15.669 15.3487 15.5736 15.3762 15.4853C15.4036 15.397 15.4629 15.322 15.5426 15.275L15.6398 15.2372H15.6938C16.6253 14.9186 21.7175 13.5389 24.782 17.4485C26.1725 19.2224 24.4607 25.6646 21.3962 30.2195C21.3606 30.2701 21.3133 30.3114 21.2583 30.3396C21.2032 30.3678 21.1421 30.3822 21.0803 30.3815Z" fill="white"/>
<path d="M21.2465 32.6172C20.7758 32.6414 20.3064 32.5486 19.8803 32.3472C19.7715 32.2896 19.679 32.2055 19.6115 32.1026C19.544 31.9996 19.5036 31.8813 19.4942 31.7586C19.4105 30.3087 20.1854 30.0225 20.6174 29.8983C20.5607 29.82 20.4905 29.7282 20.4149 29.6283C20.0723 29.2225 19.7929 28.7674 19.586 28.2783C19.5482 28.1838 19.4213 27.9597 19.2782 27.7005C18.4925 26.2911 16.8482 23.3562 17.912 21.8442C18.398 21.1503 19.3592 20.8722 20.7659 21.0126C20.3123 19.7409 18.2981 15.8421 13.6703 15.7665C12.2663 15.7395 11.0972 16.1796 10.2278 17.0544C8.27837 19.0227 8.33777 22.6029 8.33777 22.638C8.34341 22.6898 8.33824 22.7423 8.32261 22.7921C8.30697 22.8419 8.2812 22.8879 8.24692 22.9272C8.21264 22.9665 8.17059 22.9983 8.12342 23.0206C8.07624 23.0429 8.02497 23.0551 7.97282 23.0566C7.92067 23.0581 7.86878 23.0488 7.8204 23.0293C7.77203 23.0097 7.72822 22.9804 7.69175 22.9431C7.65527 22.9058 7.62691 22.8614 7.60844 22.8126C7.58998 22.7638 7.58182 22.7117 7.58447 22.6596C7.58447 22.5003 7.50617 18.7257 9.68237 16.5252C10.7057 15.4938 12.0476 14.9862 13.6757 15.0105C19.4753 15.1077 21.5435 20.6184 21.6137 21.3555C21.6344 21.4619 21.6138 21.5722 21.5561 21.6639C21.4985 21.7557 21.408 21.8221 21.3032 21.8496H21.1763C20.2259 21.6957 18.9947 21.6525 18.5438 22.2978C17.7554 23.4237 19.2917 26.1777 19.9478 27.3549C20.1179 27.6573 20.2394 27.876 20.2961 28.011C20.4754 28.4302 20.7185 28.8191 21.017 29.1639C21.2114 29.3759 21.3578 29.6273 21.4463 29.901C21.4814 29.9577 21.9026 30.5247 24.2651 30.0387C24.8888 29.9091 25.2614 30.0225 25.3775 30.3735C25.6016 31.0539 24.365 31.8369 23.6792 32.1555C22.9062 32.4668 22.0797 32.6236 21.2465 32.6172ZM20.2475 31.6965C20.5175 31.9665 22.3535 31.9341 23.3579 31.4697C23.7511 31.2947 24.1153 31.0607 24.4379 30.7758H24.4163C22.8638 31.0971 21.7649 31.0458 21.1466 30.6462L21.0386 30.5652C20.9765 30.5895 20.9198 30.6057 20.882 30.6165C20.5337 30.7164 20.2016 30.8082 20.2475 31.6965Z" fill="white"/>
<path d="M10.2392 33.689C9.83015 33.6873 9.42293 33.6347 9.02688 33.5324C8.90808 33.5027 7.85508 33.2219 7.87128 32.5469C7.87128 31.9313 8.76228 31.7369 9.09168 31.6829C10.2554 31.4453 10.3283 31.3481 10.6901 30.8891C10.7981 30.7541 10.9304 30.584 11.1113 30.3815C11.7269 29.7065 12.2939 29.9495 12.5369 30.044C12.739 30.1376 12.9183 30.2743 13.0619 30.4446C13.2056 30.6148 13.3102 30.8145 13.3685 31.0295C13.4296 31.216 13.447 31.4141 13.4194 31.6083C13.3918 31.8026 13.3199 31.988 13.2092 32.15C12.8813 32.6334 12.4379 33.0273 11.9193 33.2961C11.4007 33.5648 10.8232 33.6999 10.2392 33.689ZM8.71638 32.582C8.86997 32.6832 9.03986 32.7572 9.21858 32.8007C10.2284 33.0518 11.6324 33.0707 12.5936 31.7207C12.6372 31.6509 12.6642 31.572 12.6726 31.4901C12.681 31.4082 12.6706 31.3255 12.6422 31.2482C12.6149 31.1414 12.5661 31.0413 12.4988 30.9541C12.4315 30.8668 12.347 30.7941 12.2507 30.7406C12.0428 30.6569 11.9321 30.6083 11.6837 30.8864C11.519 31.0727 11.3975 31.2239 11.2922 31.3589C10.8305 31.9421 10.6199 32.1419 9.25368 32.4227C9.06954 32.457 8.88947 32.5104 8.71638 32.582Z" fill="white"/>
<path d="M11.349 30.997C11.2585 30.9968 11.171 30.9644 11.1022 30.9055C11.0334 30.8466 10.9879 30.7652 10.9737 30.6757L10.9575 30.5245C10.0487 30.4949 9.18866 30.1066 8.56535 29.4445C8.15308 29.0112 7.84534 28.4894 7.66564 27.919C7.48594 27.3485 7.43905 26.7446 7.52855 26.1532C7.65945 25.1217 7.68568 24.0796 7.60685 23.0428C7.60685 22.8673 7.58795 22.735 7.59065 22.654C7.59065 22.0465 9.37535 21.2689 10.4094 21.1609C11.6865 21.0286 12.5343 21.601 12.7881 22.7809C13.4631 25.9048 12.8421 27.2872 12.3858 28.297C12.3021 28.486 12.2238 28.6615 12.159 28.837L12.1023 28.9882C11.8647 29.6281 11.6595 30.1789 11.7216 30.5839C11.7293 30.633 11.7272 30.6832 11.7155 30.7315C11.7038 30.7798 11.6827 30.8253 11.6533 30.8655C11.624 30.9056 11.587 30.9395 11.5445 30.9653C11.502 30.9912 11.4549 31.0084 11.4057 31.0159L11.349 30.997ZM8.34665 22.7566C8.34665 22.8187 8.34665 22.897 8.36015 22.9915C8.44344 24.0778 8.4154 25.1698 8.27645 26.2504C8.20423 26.7288 8.24182 27.2173 8.38637 27.6791C8.53092 28.1408 8.77863 28.5635 9.11075 28.9153C9.35816 29.1806 9.65679 29.393 9.9886 29.5397C10.3204 29.6863 10.6785 29.7642 11.0412 29.7685C11.1387 29.4066 11.2568 29.0505 11.3949 28.702L11.4516 28.5508C11.5245 28.3564 11.6082 28.1674 11.6973 27.9703C12.132 27.0037 12.672 25.8103 12.0483 22.9213C12.0226 22.6851 11.9236 22.4629 11.7653 22.2857C11.607 22.1085 11.3973 21.9852 11.1654 21.9331C10.1232 21.6955 8.66255 22.4758 8.34665 22.7566Z" fill="white"/>
<path d="M10.4288 22.5947C10.4099 22.7189 10.6529 23.0483 10.9688 23.0915C11.0928 23.1075 11.2187 23.0833 11.328 23.0226C11.4373 22.9618 11.5243 22.8677 11.5763 22.754C11.5925 22.6325 11.3495 22.484 11.0363 22.4516C10.7231 22.4192 10.4477 22.4705 10.4315 22.5947H10.4288Z" fill="white"/>
<path d="M11.0406 23.2239C11.0118 23.2266 10.9829 23.2266 10.9542 23.2239C10.7374 23.187 10.5436 23.0669 10.4142 22.8891C10.3422 22.8035 10.3022 22.6957 10.3008 22.584C10.3145 22.5216 10.3499 22.4661 10.4007 22.4274C10.5982 22.3187 10.8287 22.286 11.0487 22.3356C11.3862 22.3815 11.7345 22.5408 11.7021 22.7811C11.6499 22.9134 11.5587 23.0266 11.4405 23.1058C11.3223 23.1849 11.1828 23.2261 11.0406 23.2239ZM10.5546 22.6191C10.5936 22.7074 10.6531 22.7851 10.7283 22.8457C10.8034 22.9063 10.892 22.948 10.9866 22.9674C11.0789 22.9779 11.1724 22.9616 11.2557 22.9205C11.339 22.8793 11.4087 22.8149 11.4564 22.7352C11.3292 22.6425 11.1786 22.5873 11.0217 22.5759C10.8654 22.5392 10.7015 22.5544 10.5546 22.6191Z" fill="white"/>
<path d="M20.0951 22.3435C20.1113 22.465 19.8683 22.7971 19.5551 22.8403C19.4315 22.8557 19.3062 22.8312 19.1974 22.7705C19.0887 22.7098 19.0021 22.6161 18.9503 22.5028C18.9314 22.3786 19.1744 22.2328 19.4903 22.1977C19.8062 22.1626 20.0789 22.2193 20.0978 22.3435H20.0951Z" fill="white"/>
<path d="M19.4758 22.9078C19.3478 22.9086 19.2225 22.8713 19.1157 22.8006C19.009 22.7299 18.9257 22.6291 18.8764 22.5109C18.8521 22.3246 19.1464 22.1815 19.4758 22.1356C19.8052 22.0897 20.1265 22.1356 20.1535 22.3327C20.1433 22.4589 20.0842 22.5762 19.9888 22.6594C19.8754 22.7857 19.7236 22.8711 19.5568 22.9024L19.4758 22.9078ZM19.681 22.249C19.6178 22.2486 19.5546 22.2531 19.492 22.2625C19.1599 22.3084 18.9952 22.4407 19.0033 22.4947C19.0562 22.5884 19.1358 22.6642 19.232 22.7123C19.3283 22.7604 19.4366 22.7786 19.5433 22.7647C19.6823 22.739 19.8093 22.6689 19.9051 22.5649C19.9711 22.5049 20.0165 22.4255 20.0347 22.3381C20.0212 22.3084 19.897 22.249 19.681 22.249Z" fill="white"/>
<path d="M20.547 29.4635C20.4777 29.464 20.4096 29.4455 20.3501 29.4099C20.2906 29.3744 20.242 29.3231 20.2096 29.2618C20.1773 29.2005 20.1625 29.1314 20.1667 29.0622C20.171 28.9931 20.1942 28.9264 20.2338 28.8695C20.9709 27.7679 20.8359 26.6393 20.7063 25.5485C20.6368 25.0792 20.6034 24.6053 20.6064 24.131C20.6248 23.7109 20.6699 23.2925 20.7414 22.8782C20.8264 22.4243 20.8626 21.9627 20.8494 21.5012C20.8505 21.4052 20.8881 21.3132 20.9545 21.244C21.021 21.1747 21.1113 21.1333 21.2071 21.1281C21.3029 21.123 21.3972 21.1545 21.4706 21.2162C21.5441 21.278 21.5913 21.3654 21.6027 21.4607C21.6209 21.9737 21.582 22.4872 21.4866 22.9916C21.4213 23.3766 21.3799 23.7652 21.3624 24.1553C21.3583 24.5932 21.3863 25.0309 21.4461 25.4648C21.5892 26.6339 21.7485 27.9596 20.8548 29.2961C20.8205 29.3464 20.7747 29.3879 20.7212 29.417C20.6676 29.4461 20.6079 29.462 20.547 29.4635Z" fill="white"/>
<path d="M33.4171 31.0195V23.3832H36.139C36.7331 23.3832 37.2253 23.4913 37.6156 23.7076C38.0059 23.9238 38.2979 24.2196 38.4918 24.595C38.6857 24.9679 38.7827 25.388 38.7827 25.8553C38.7827 26.3251 38.6845 26.7477 38.4881 27.123C38.2942 27.4959 38.0009 27.7917 37.6081 28.0105C37.2179 28.2267 36.7269 28.3349 36.1353 28.3349H34.2635V27.358H36.0309C36.4063 27.358 36.7108 27.2933 36.9444 27.1641C37.1781 27.0323 37.3496 26.8533 37.459 26.6271C37.5684 26.4009 37.623 26.1436 37.623 25.8553C37.623 25.5669 37.5684 25.3109 37.459 25.0872C37.3496 24.8635 37.1768 24.6882 36.9407 24.5614C36.707 24.4347 36.3988 24.3713 36.016 24.3713H34.5692V31.0195H33.4171ZM45.3014 25.7956C45.2293 25.5694 45.1323 25.3668 45.0105 25.1879C44.8912 25.0064 44.7483 24.8523 44.5817 24.7255C44.4152 24.5962 44.225 24.498 44.0112 24.4309C43.7999 24.3638 43.5675 24.3303 43.314 24.3303C42.8839 24.3303 42.4961 24.4409 42.1506 24.6621C41.8051 24.8833 41.5316 25.2077 41.3303 25.6353C41.1314 26.0604 41.032 26.5811 41.032 27.1976C41.032 27.8166 41.1327 28.3398 41.334 28.7674C41.5354 29.195 41.8113 29.5194 42.1618 29.7406C42.5123 29.9618 42.9113 30.0724 43.3587 30.0724C43.7738 30.0724 44.1355 29.9879 44.4438 29.8189C44.7545 29.6499 44.9944 29.4112 45.1634 29.103C45.3349 28.7923 45.4207 28.4268 45.4207 28.0067L45.719 28.0627H43.534V27.1119H46.5356V27.9806C46.5356 28.622 46.3988 29.1788 46.1254 29.6511C45.8544 30.1209 45.4791 30.4838 44.9993 30.7399C44.5221 30.9959 43.9752 31.1239 43.3587 31.1239C42.6677 31.1239 42.0611 30.9648 41.5391 30.6467C41.0196 30.3285 40.6144 29.8773 40.3236 29.2931C40.0327 28.7065 39.8873 28.0105 39.8873 27.2051C39.8873 26.5961 39.9718 26.0492 40.1408 25.5645C40.3099 25.0797 40.5473 24.6683 40.853 24.3303C41.1613 23.9897 41.5229 23.7299 41.9381 23.551C42.3557 23.3695 42.8118 23.2788 43.3065 23.2788C43.7191 23.2788 44.1032 23.3397 44.4587 23.4615C44.8166 23.5833 45.1348 23.756 45.4132 23.9798C45.6941 24.2035 45.9265 24.4695 46.1105 24.7777C46.2944 25.0835 46.4187 25.4228 46.4834 25.7956H45.3014Z" fill="black"/>
<path d="M47.9981 31.0195V23.3832H50.7947C51.3366 23.3832 51.7852 23.4727 52.1407 23.6516C52.4962 23.8281 52.7622 24.068 52.9387 24.3713C53.1151 24.6721 53.2034 25.0114 53.2034 25.3892C53.2034 25.7074 53.145 25.9759 53.0281 26.1946C52.9113 26.4109 52.7547 26.5849 52.5583 26.7166C52.3644 26.8459 52.1507 26.9403 51.917 27V27.0746C52.1705 27.087 52.4179 27.169 52.659 27.3207C52.9026 27.4698 53.104 27.6824 53.2631 27.9583C53.4221 28.2342 53.5017 28.5698 53.5017 28.965C53.5017 29.3553 53.4097 29.7058 53.2258 30.0165C53.0443 30.3248 52.7634 30.5696 52.3831 30.7511C52.0028 30.93 51.5168 31.0195 50.9252 31.0195H47.9981ZM49.1503 30.0314H50.8133C51.3651 30.0314 51.7604 29.9245 51.999 29.7108C52.2377 29.497 52.357 29.2298 52.357 28.9091C52.357 28.668 52.2961 28.4467 52.1743 28.2454C52.0525 28.044 51.8785 27.8837 51.6523 27.7644C51.4285 27.6451 51.1626 27.5854 50.8543 27.5854H49.1503V30.0314ZM49.1503 26.6868H50.694C50.9525 26.6868 51.1849 26.6371 51.3912 26.5376C51.6001 26.4382 51.7654 26.299 51.8872 26.12C52.0115 25.9386 52.0736 25.7248 52.0736 25.4787C52.0736 25.163 51.963 24.8983 51.7417 24.6845C51.5205 24.4707 51.1812 24.3638 50.7238 24.3638H49.1503V26.6868ZM57.1912 31.1351C56.6543 31.1351 56.1857 31.0121 55.7855 30.766C55.3853 30.5199 55.0746 30.1756 54.8533 29.7331C54.6321 29.2907 54.5215 28.7736 54.5215 28.182C54.5215 27.5879 54.6321 27.0684 54.8533 26.6234C55.0746 26.1784 55.3853 25.8329 55.7855 25.5868C56.1857 25.3407 56.6543 25.2177 57.1912 25.2177C57.7282 25.2177 58.1967 25.3407 58.5969 25.5868C58.9972 25.8329 59.3079 26.1784 59.5291 26.6234C59.7504 27.0684 59.861 27.5879 59.861 28.182C59.861 28.7736 59.7504 29.2907 59.5291 29.7331C59.3079 30.1756 58.9972 30.5199 58.5969 30.766C58.1967 31.0121 57.7282 31.1351 57.1912 31.1351ZM57.195 30.1992C57.543 30.1992 57.8313 30.1072 58.06 29.9233C58.2887 29.7393 58.4577 29.4945 58.5671 29.1887C58.679 28.883 58.7349 28.5462 58.7349 28.1783C58.7349 27.8129 58.679 27.4773 58.5671 27.1715C58.4577 26.8633 58.2887 26.6159 58.06 26.4295C57.8313 26.2431 57.543 26.1499 57.195 26.1499C56.8445 26.1499 56.5536 26.2431 56.3224 26.4295C56.0938 26.6159 55.9235 26.8633 55.8116 27.1715C55.7022 27.4773 55.6475 27.8129 55.6475 28.1783C55.6475 28.5462 55.7022 28.883 55.8116 29.1887C55.9235 29.4945 56.0938 29.7393 56.3224 29.9233C56.5536 30.1072 56.8445 30.1992 57.195 30.1992ZM64.7334 28.6444V25.2923H65.8521V31.0195H64.7558V30.0277H64.6962C64.5644 30.3335 64.3531 30.5882 64.0623 30.7921C63.7739 30.9934 63.4147 31.0941 62.9847 31.0941C62.6168 31.0941 62.2911 31.0133 62.0078 30.8517C61.7269 30.6877 61.5056 30.4453 61.3441 30.1246C61.185 29.804 61.1054 29.4075 61.1054 28.9352V25.2923H62.2203V28.801C62.2203 29.1912 62.3284 29.502 62.5447 29.7331C62.761 29.9643 63.0419 30.0799 63.3874 30.0799C63.5962 30.0799 63.8038 30.0277 64.0101 29.9233C64.2189 29.8189 64.3916 29.661 64.5284 29.4498C64.6676 29.2385 64.7359 28.97 64.7334 28.6444ZM68.4649 27.619V31.0195H67.3501V25.2923H68.4202V26.2244H68.491C68.6228 25.9212 68.8291 25.6776 69.11 25.4936C69.3934 25.3097 69.7501 25.2177 70.1801 25.2177C70.5704 25.2177 70.9122 25.2997 71.2055 25.4638C71.4988 25.6254 71.7263 25.8665 71.8879 26.1871C72.0494 26.5078 72.1302 26.9043 72.1302 27.3766V31.0195H71.0154V27.5108C71.0154 27.0957 70.9072 26.7713 70.691 26.5376C70.4747 26.3015 70.1776 26.1834 69.7998 26.1834C69.5413 26.1834 69.3113 26.2393 69.11 26.3512C68.9111 26.4631 68.7533 26.6271 68.6365 26.8434C68.5221 27.0572 68.4649 27.3157 68.4649 27.619ZM76.0379 31.1351C75.4836 31.1351 75.0063 31.0096 74.6061 30.7585C74.2084 30.505 73.9026 30.1557 73.6888 29.7108C73.4751 29.2658 73.3682 28.7562 73.3682 28.182C73.3682 27.6003 73.4775 27.087 73.6963 26.642C73.915 26.1946 74.2233 25.8453 74.621 25.5943C75.0187 25.3432 75.4873 25.2177 76.0267 25.2177C76.4617 25.2177 76.8495 25.2985 77.1901 25.46C77.5306 25.6191 77.8053 25.8429 78.0141 26.1312C78.2254 26.4196 78.3509 26.7564 78.3907 27.1417H77.3057C77.246 26.8732 77.1093 26.642 76.8955 26.4482C76.6842 26.2543 76.4008 26.1573 76.0454 26.1573C75.7346 26.1573 75.4624 26.2393 75.2288 26.4034C74.9976 26.565 74.8174 26.7962 74.6881 27.0969C74.5589 27.3952 74.4942 27.7482 74.4942 28.1559C74.4942 28.5735 74.5576 28.9339 74.6844 29.2372C74.8112 29.5405 74.9901 29.7754 75.2213 29.9419C75.455 30.1085 75.7297 30.1918 76.0454 30.1918C76.2567 30.1918 76.4481 30.1532 76.6196 30.0762C76.7936 29.9966 76.939 29.8835 77.0558 29.7369C77.1752 29.5902 77.2584 29.4137 77.3057 29.2074H78.3907C78.3509 29.5778 78.2304 29.9084 78.029 30.1992C77.8277 30.4901 77.558 30.7187 77.2199 30.8853C76.8843 31.0518 76.4903 31.1351 76.0379 31.1351ZM82.0514 31.1351C81.4871 31.1351 81.0011 31.0146 80.5934 30.7734C80.1883 30.5298 79.875 30.188 79.6538 29.748C79.4351 29.3056 79.3257 28.7873 79.3257 28.1932C79.3257 27.6065 79.4351 27.0895 79.6538 26.642C79.875 26.1946 80.1833 25.8453 80.5785 25.5943C80.9763 25.3432 81.4411 25.2177 81.9731 25.2177C82.2962 25.2177 82.6094 25.2711 82.9127 25.378C83.216 25.4849 83.4881 25.6527 83.7293 25.8814C83.9704 26.1101 84.1606 26.4071 84.2998 26.7725C84.439 27.1355 84.5086 27.5767 84.5086 28.0962V28.4915H79.9558V27.6562H83.4161C83.4161 27.3629 83.3564 27.1032 83.2371 26.877C83.1178 26.6483 82.95 26.468 82.7337 26.3363C82.5199 26.2045 82.2689 26.1387 81.9805 26.1387C81.6673 26.1387 81.3939 26.2157 81.1602 26.3699C80.929 26.5215 80.75 26.7203 80.6233 26.9664C80.499 27.21 80.4368 27.4748 80.4368 27.7607V28.4132C80.4368 28.796 80.504 29.1216 80.6382 29.3901C80.7749 29.6586 80.9651 29.8636 81.2087 30.0053C81.4523 30.1445 81.7369 30.2141 82.0625 30.2141C82.2738 30.2141 82.4665 30.1843 82.6405 30.1246C82.8145 30.0625 82.9649 29.9705 83.0917 29.8487C83.2184 29.7269 83.3154 29.5765 83.3825 29.3975L84.4377 29.5877C84.3532 29.8984 84.2016 30.1706 83.9828 30.4043C83.7666 30.6355 83.4944 30.8157 83.1662 30.945C82.8406 31.0717 82.469 31.1351 82.0514 31.1351ZM85.7456 31.0195V25.2923H86.8232V26.2021H86.8828C86.9872 25.8938 87.1712 25.6515 87.4347 25.475C87.7006 25.296 88.0014 25.2065 88.337 25.2065C88.4066 25.2065 88.4886 25.209 88.5831 25.214C88.68 25.2189 88.7559 25.2251 88.8105 25.2326V26.299C88.7658 26.2866 88.6863 26.2729 88.5719 26.258C88.4576 26.2406 88.3432 26.2319 88.2289 26.2319C87.9654 26.2319 87.7305 26.2878 87.5241 26.3997C87.3203 26.5091 87.1587 26.6619 87.0394 26.8583C86.9201 27.0522 86.8604 27.2734 86.8604 27.522V31.0195H85.7456Z" fill="#336791"/>
</svg>
