<svg width="90" height="55" viewBox="0 0 90 55" fill="none" xmlns="http://www.w3.org/2000/svg">
<g clip-path="url(#clip0_5388_3174)">
<mask id="mask0_5388_3174" style="mask-type:luminance" maskUnits="userSpaceOnUse" x="4" y="6" width="83" height="44">
<path d="M4.19336 27.8687C4.19336 39.8402 22.6428 49.5452 45.4004 49.5452C68.158 49.5452 86.6076 39.8402 86.6076 27.8687C86.6076 15.8974 68.158 6.19223 45.4004 6.19223C22.6428 6.19223 4.19336 15.8974 4.19336 27.8687Z" fill="white"/>
</mask>
<g mask="url(#mask0_5388_3174)">
<path d="M4.19336 27.8687C4.19336 39.8402 22.6428 49.5452 45.4004 49.5452C68.158 49.5452 86.6076 39.8402 86.6076 27.8687C86.6076 15.8974 68.158 6.19223 45.4004 6.19223C22.6428 6.19223 4.19336 15.8974 4.19336 27.8687Z" fill="url(#paint0_radial_5388_3174)"/>
</g>
<mask id="mask1_5388_3174" style="mask-type:luminance" maskUnits="userSpaceOnUse" x="2" y="3" width="87" height="50">
<path d="M2.47461 3.72405H88.3226V52.0135H2.47461V3.72405Z" fill="white"/>
</mask>
<g mask="url(#mask1_5388_3174)">
<path d="M45.3962 47.9359C67.2649 47.9359 84.9936 38.9515 84.9936 27.8688C84.9936 16.7862 67.2649 7.80168 45.3962 7.80168C23.5275 7.80168 5.79883 16.7862 5.79883 27.8688C5.79883 38.9515 23.5275 47.9359 45.3962 47.9359Z" fill="#777BB3"/>
</g>
<mask id="mask2_5388_3174" style="mask-type:luminance" maskUnits="userSpaceOnUse" x="2" y="3" width="87" height="50">
<path d="M2.47461 3.72405H88.3226V52.0135H2.47461V3.72405Z" fill="white"/>
</mask>
<g mask="url(#mask2_5388_3174)">
<path d="M26.5784 30.3568C28.3766 30.3568 29.719 30.0252 30.5684 29.3715C31.4087 28.7245 31.9891 27.6035 32.2933 26.0399C32.5769 24.5784 32.4689 23.5579 31.9723 23.0072C31.4645 22.4447 30.3666 22.1595 28.7093 22.1595H25.8356L24.2425 30.3568H26.5784ZM17.1794 40.4543C17.046 40.4543 16.9193 40.3947 16.8345 40.2916C16.7496 40.1886 16.7152 40.053 16.7406 39.922L20.9627 18.199C21.0035 17.989 21.1876 17.8373 21.4016 17.8373H30.5012C33.361 17.8373 35.4896 18.6138 36.8276 20.1455C38.1727 21.6852 38.5881 23.8375 38.0621 26.5425C37.8481 27.6445 37.4799 28.668 36.968 29.5843C36.4554 30.5016 35.778 31.3504 34.9543 32.1076C33.9682 33.0304 32.8522 33.6996 31.6402 34.0934C30.4474 34.4819 28.9156 34.679 27.0873 34.679H23.4027L22.3504 40.0925C22.3096 40.3026 22.1257 40.4543 21.9116 40.4543H17.1794Z" fill="black"/>
<path d="M26.206 22.6065H28.7111C30.7114 22.6065 31.4062 23.0454 31.6423 23.307C32.034 23.7413 32.1079 24.657 31.8562 25.955C31.5733 27.4082 31.049 28.4385 30.2975 29.0171C29.5282 29.6094 28.2774 29.9095 26.5803 29.9095H24.7867L26.206 22.6065ZM30.5031 17.39H21.4033C20.9753 17.39 20.6073 17.6935 20.5256 18.1136L16.3036 39.8366C16.2526 40.0988 16.3214 40.3699 16.4912 40.576C16.6611 40.7821 16.9142 40.9014 17.1813 40.9014H21.9133C22.3415 40.9014 22.7095 40.5979 22.7912 40.1778L23.7731 35.126H27.0891C28.9643 35.126 30.543 34.9215 31.7808 34.5184C33.0538 34.1048 34.2249 33.4035 35.2615 32.4342C36.1188 31.6454 36.825 30.7601 37.36 29.8025C37.8952 28.8446 38.2798 27.7765 38.5029 26.6276C39.0566 23.7804 38.6067 21.5003 37.1661 19.8513C35.7395 18.2181 33.4976 17.39 30.5031 17.39ZM23.7018 30.8038H26.5803C28.4882 30.8038 29.9093 30.4445 30.843 29.7256C31.7769 29.0066 32.4068 27.8067 32.7341 26.1252C33.0472 24.5108 32.9046 23.3715 32.3062 22.7079C31.707 22.0442 30.5089 21.7123 28.7111 21.7123H25.4689L23.7018 30.8038ZM30.5031 18.2843C33.2405 18.2843 35.2375 19.0027 36.4927 20.4396C37.7478 21.8765 38.1258 23.8821 37.625 26.4571C37.4189 27.5179 37.0703 28.4877 36.5795 29.3663C36.0881 30.2455 35.4465 31.0494 34.6536 31.7784C33.7086 32.6626 32.6589 33.2928 31.5039 33.6681C30.3488 34.0444 28.8776 34.2318 27.0891 34.2318H23.0358L21.9133 40.0071H17.1813L21.4033 18.2843H30.5031Z" fill="white"/>
<path d="M48.916 34.6791C48.7825 34.6791 48.6559 34.6195 48.5711 34.5163C48.486 34.4133 48.4516 34.2779 48.4771 34.1467L50.3447 24.5352C50.5224 23.6211 50.4786 22.965 50.2215 22.6878C50.0641 22.5183 49.5913 22.2341 48.1934 22.2341H44.8099L42.4618 34.3172C42.4209 34.5274 42.2368 34.6791 42.0228 34.6791H37.328C37.1945 34.6791 37.0679 34.6195 36.983 34.5163C36.898 34.4133 36.8636 34.2777 36.8891 34.1467L41.1111 12.4237C41.152 12.2137 41.336 12.062 41.5501 12.062H46.2449C46.3784 12.062 46.505 12.1216 46.5899 12.2246C46.6749 12.3277 46.7093 12.4632 46.6838 12.5944L45.665 17.8374H49.3049C52.0778 17.8374 53.9581 18.3262 55.0532 19.332C56.1696 20.358 56.5179 21.9985 56.0886 24.2085L54.1243 34.3172C54.0834 34.5274 53.8995 34.6791 53.6853 34.6791H48.916Z" fill="black"/>
<path d="M46.2428 11.6147H41.548C41.1198 11.6147 40.7518 11.9181 40.6701 12.3383L36.4481 34.0612C36.3971 34.3234 36.466 34.5945 36.6359 34.8006C36.8058 35.0067 37.0589 35.126 37.3259 35.126H42.0208C42.4488 35.126 42.8169 34.8225 42.8986 34.4024L45.1764 22.681H48.1914C49.5869 22.681 49.8797 22.9791 49.8915 22.9919C49.9762 23.083 50.0875 23.5048 49.9037 24.4497L48.0361 34.0612C47.9851 34.3234 48.054 34.5945 48.2239 34.8006C48.3938 35.0067 48.6468 35.126 48.9139 35.126H53.6833C54.1113 35.126 54.4794 34.8225 54.5611 34.4024L56.5253 24.2936C56.9863 21.9207 56.592 20.1407 55.3537 19.0026C54.1721 17.9175 52.1928 17.39 49.3028 17.39H46.2051L47.1207 12.6796C47.1715 12.4174 47.1028 12.1461 46.9329 11.9402C46.763 11.734 46.5099 11.6147 46.2428 11.6147ZM46.2428 12.5089L45.1204 18.2843H49.3028C51.9344 18.2843 53.7496 18.7436 54.7486 19.6611C55.7476 20.5792 56.0469 22.0668 55.6476 24.1231L53.6833 34.2317H48.9139L50.7816 24.6203C50.9941 23.527 50.916 22.7812 50.547 22.3835C50.1778 21.9859 49.3925 21.7867 48.1914 21.7867H44.4391L42.0208 34.2317H37.3259L41.548 12.5089H46.2428Z" fill="white"/>
<path d="M63.5159 30.3568C65.3141 30.3568 66.6565 30.0252 67.5059 29.3715C68.3462 28.7246 68.9266 27.6037 69.2309 26.0399C69.5145 24.5784 69.4065 23.5579 68.9097 23.0072C68.402 22.4447 67.3041 22.1595 65.6468 22.1595H62.7731L61.18 30.3568H63.5159ZM54.1171 40.4543C53.9837 40.4543 53.857 40.3947 53.7722 40.2916C53.6872 40.1886 53.6526 40.053 53.6781 39.922L57.9002 18.199C57.9412 17.989 58.1251 17.8373 58.3393 17.8373H67.4387C70.2987 17.8373 72.4271 18.6138 73.7652 20.1455C75.1103 21.6851 75.5255 23.8374 74.9997 26.5425C74.7854 27.6445 74.4174 28.668 73.9055 29.5843C73.3929 30.5016 72.7155 31.3504 71.8918 32.1076C70.9057 33.0304 69.7897 33.6996 68.5777 34.0934C67.3849 34.4819 65.853 34.679 64.0247 34.679H60.34L59.2882 40.0925C59.2472 40.3026 59.0633 40.4543 58.8491 40.4543H54.1171Z" fill="black"/>
<path d="M63.1414 22.6065H65.6465C67.6468 22.6065 68.3416 23.0454 68.5777 23.307C68.9696 23.7413 69.0435 24.657 68.7916 25.9549C68.5087 27.4082 67.9842 28.4385 67.2329 29.0171C66.4636 29.6094 65.2128 29.9095 63.5157 29.9095H61.7223L63.1414 22.6065ZM67.4385 17.39H58.3389C57.9108 17.39 57.5428 17.6935 57.4612 18.1136L53.2391 39.8366C53.1881 40.0988 53.257 40.3699 53.4267 40.576C53.5967 40.7821 53.8497 40.9014 54.1168 40.9014H58.8489C59.2769 40.9014 59.6451 40.5979 59.7267 40.1778L60.7085 35.126H64.0245C65.8997 35.126 67.4784 34.9215 68.7162 34.5184C69.9892 34.1048 71.1606 33.4034 72.1972 32.4339C73.0545 31.6453 73.7604 30.7601 74.2954 29.8025C74.8306 28.8446 75.2151 27.7765 75.4383 26.6276C75.992 23.7802 75.5421 21.5002 74.1015 19.8512C72.6749 18.2181 70.4331 17.39 67.4385 17.39ZM60.6374 30.8038H63.5157C65.4236 30.8038 66.8447 30.4445 67.7784 29.7256C68.7125 29.0066 69.3422 27.8067 69.6695 26.1252C69.9827 24.5108 69.8401 23.3715 69.2416 22.7079C68.6424 22.0442 67.4443 21.7123 65.6465 21.7123H62.4043L60.6374 30.8038ZM67.4385 18.2843C70.1759 18.2843 72.1729 19.0027 73.4281 20.4396C74.6834 21.8765 75.0612 23.8821 74.5604 26.4571C74.3543 27.5179 74.0057 28.4877 73.5149 29.3663C73.0235 30.2455 72.3819 31.0494 71.589 31.7784C70.644 32.6626 69.5943 33.2928 68.4393 33.6681C67.2842 34.0444 65.813 34.2318 64.0245 34.2318H59.9712L58.8489 40.0071H54.1168L58.3389 18.2843H67.4385Z" fill="white"/>
</g>
</g>
<defs>
<radialGradient id="paint0_radial_5388_3174" cx="0" cy="0" r="1" gradientUnits="userSpaceOnUse" gradientTransform="translate(28.9343 13.813) scale(54.1107)">
<stop stop-color="#AEB2D5"/>
<stop offset="0.3" stop-color="#AEB2D5"/>
<stop offset="0.75" stop-color="#484C89"/>
<stop offset="1" stop-color="#484C89"/>
</radialGradient>
<clipPath id="clip0_5388_3174">
<rect width="84.7989" height="45.7376" fill="white" transform="translate(3 5)"/>
</clipPath>
</defs>
</svg>
