<svg width="90" height="55" viewBox="0 0 90 55" fill="none" xmlns="http://www.w3.org/2000/svg">
<g clip-path="url(#clip0_5386_2927)">
<path d="M45.1971 0.0155029C31.3042 0.0155029 32.1716 6.04028 32.1716 6.04028L32.1871 12.2821H45.4448V14.1561H26.9213C26.9213 14.1561 18.0312 13.1479 18.0312 27.1657C18.0312 41.1839 25.7907 40.6867 25.7907 40.6867H30.4215V34.1817C30.4215 34.1817 30.1719 26.4223 38.0571 26.4223H51.2064C51.2064 26.4223 58.5941 26.5417 58.5941 19.2824V7.27952C58.5941 7.27952 59.7161 0.0155029 45.1971 0.0155029ZM37.8868 4.21302C38.2 4.21274 38.5103 4.27424 38.7998 4.394C39.0893 4.51376 39.3523 4.68943 39.5739 4.91096C39.7954 5.13249 39.9711 5.39553 40.0908 5.68502C40.2106 5.97452 40.2721 6.28479 40.2718 6.59807C40.2721 6.91136 40.2106 7.22163 40.0908 7.51113C39.9711 7.80062 39.7954 8.06366 39.5739 8.28519C39.3523 8.50672 39.0893 8.68239 38.7998 8.80215C38.5103 8.92191 38.2 8.98341 37.8868 8.98313C37.5735 8.98341 37.2632 8.92191 36.9737 8.80215C36.6842 8.68239 36.4212 8.50672 36.1996 8.28519C35.9781 8.06366 35.8024 7.80062 35.6827 7.51113C35.5629 7.22163 35.5014 6.91136 35.5017 6.59807C35.5014 6.28479 35.5629 5.97452 35.6827 5.68502C35.8024 5.39553 35.9781 5.13249 36.1996 4.91096C36.4212 4.68943 36.6842 4.51376 36.9737 4.394C37.2632 4.27424 37.5735 4.21274 37.8868 4.21302Z" fill="url(#paint0_linear_5386_2927)"/>
<path d="M45.5911 54.4567C59.484 54.4567 58.6166 48.432 58.6166 48.432L58.6011 42.1903H45.3432V40.3164H63.8667C63.8667 40.3164 72.7567 41.3246 72.7567 27.3064C72.7567 13.2884 64.9973 13.7855 64.9973 13.7855H60.3665V20.2903C60.3665 20.2903 60.6161 28.0497 52.7309 28.0497H39.5816C39.5816 28.0497 32.1939 27.9304 32.1939 35.1899V47.1929C32.1939 47.1929 31.0721 54.4567 45.5909 54.4567H45.5911ZM52.9014 50.2597C52.5882 50.2599 52.2779 50.1984 51.9884 50.0787C51.6989 49.9589 51.4359 49.7832 51.2143 49.5617C50.9928 49.3402 50.8171 49.0771 50.6974 48.7877C50.5776 48.4982 50.5161 48.1879 50.5164 47.8746C50.5161 47.5613 50.5776 47.251 50.6973 46.9615C50.8171 46.672 50.9927 46.4089 51.2143 46.1873C51.4358 45.9658 51.6988 45.7901 51.9883 45.6703C52.2779 45.5506 52.5881 45.4891 52.9014 45.4893C53.2147 45.4891 53.525 45.5506 53.8145 45.6703C54.104 45.7901 54.367 45.9657 54.5886 46.1873C54.8101 46.4088 54.9858 46.6718 55.1055 46.9613C55.2253 47.2508 55.2868 47.5611 55.2865 47.8744C55.2868 48.1877 55.2253 48.4979 55.1055 48.7874C54.9858 49.0769 54.8101 49.34 54.5886 49.5615C54.367 49.783 54.104 49.9587 53.8145 50.0785C53.525 50.1982 53.2147 50.2599 52.9014 50.2597Z" fill="url(#paint1_linear_5386_2927)"/>
</g>
<defs>
<linearGradient id="paint0_linear_5386_2927" x1="543.945" y1="489.683" x2="3256" y2="3174.68" gradientUnits="userSpaceOnUse">
<stop stop-color="#387EB8"/>
<stop offset="1" stop-color="#366994"/>
</linearGradient>
<linearGradient id="paint1_linear_5386_2927" x1="808.444" y1="850.802" x2="3720.87" y2="3604.01" gradientUnits="userSpaceOnUse">
<stop stop-color="#FFE052"/>
<stop offset="1" stop-color="#FFC331"/>
</linearGradient>
<clipPath id="clip0_5386_2927">
<rect width="54.8635" height="54.644" fill="white" transform="translate(18)"/>
</clipPath>
</defs>
</svg>
