<svg width="90" height="55" viewBox="0 0 90 55" fill="none" xmlns="http://www.w3.org/2000/svg">
<g clip-path="url(#clip0_5376_4864)">
<path d="M45.4993 32.3015C48.1082 32.3015 50.2232 30.1865 50.2232 27.5776C50.2232 24.9686 48.1082 22.8536 45.4993 22.8536C42.8904 22.8536 40.7754 24.9686 40.7754 27.5776C40.7754 30.1865 42.8904 32.3015 45.4993 32.3015Z" fill="#61DAFB"/>
<path d="M45.5002 37.2557C59.4994 37.2557 70.848 32.9226 70.848 27.5774C70.848 22.2323 59.4994 17.8992 45.5002 17.8992C31.501 17.8992 20.1523 22.2323 20.1523 27.5774C20.1523 32.9226 31.501 37.2557 45.5002 37.2557Z" stroke="#61DAFB" stroke-width="2.30435"/>
<path d="M37.1177 32.4166C44.1173 44.5403 53.5442 52.2019 58.1732 49.5294C62.8023 46.8568 60.8806 34.862 53.8809 22.7384C46.8813 10.6147 37.4545 2.95305 32.8254 5.62563C28.1964 8.29821 30.1181 20.2929 37.1177 32.4166Z" stroke="#61DAFB" stroke-width="2.30435"/>
<path d="M37.1175 22.7382C30.1179 34.8619 28.1962 46.8566 32.8252 49.5292C37.4543 52.2018 46.8812 44.5401 53.8808 32.4165C60.8804 20.2928 62.8021 8.29805 58.1731 5.62547C53.544 2.95289 44.1171 10.6145 37.1175 22.7382Z" stroke="#61DAFB" stroke-width="2.30435"/>
</g>
<defs>
<clipPath id="clip0_5376_4864">
<rect width="53" height="47.155" fill="white" transform="translate(19 4)"/>
</clipPath>
</defs>
</svg>
