<svg width="90" height="55" viewBox="0 0 90 55" fill="none" xmlns="http://www.w3.org/2000/svg">
<mask id="mask0_5388_3031" style="mask-type:luminance" maskUnits="userSpaceOnUse" x="7" y="0" width="76" height="55">
<path d="M82.1667 0H7V55H82.1667V0Z" fill="white"/>
</mask>
<g mask="url(#mask0_5388_3031)">
<path fill-rule="evenodd" clip-rule="evenodd" d="M54.1765 24.5035L32.9199 37.1278L60.4438 35.2597L62.564 7.5094L54.1765 24.5035Z" fill="url(#paint0_linear_5388_3031)"/>
<path fill-rule="evenodd" clip-rule="evenodd" d="M58.1237 18.9136L51.6777 27.423L60.4869 35.2403L58.1237 18.9136Z" fill="url(#paint1_linear_5388_3031)"/>
<path fill-rule="evenodd" clip-rule="evenodd" d="M43.1887 33.8809L33.0137 37.0947L60.5265 35.243L43.1887 33.8809Z" fill="url(#paint2_linear_5388_3031)"/>
<path fill-rule="evenodd" clip-rule="evenodd" d="M37.3657 22.913L27.8379 24.9498L33.0354 37.0947L37.3657 22.913Z" fill="url(#paint3_linear_5388_3031)"/>
<path fill-rule="evenodd" clip-rule="evenodd" d="M47.6943 11.8644L36.291 22.549L51.6754 27.467L47.6943 11.8644Z" fill="url(#paint4_linear_5388_3031)"/>
<path fill-rule="evenodd" clip-rule="evenodd" d="M50.882 3.28259L47.8809 12.9846L61.6593 12.0826L50.882 3.28259Z" fill="url(#paint5_linear_5388_3031)"/>
<path fill-rule="evenodd" clip-rule="evenodd" d="M50.2816 3.64467L46.2812 0.097168L56.6203 0.144835L50.2816 3.64467Z" fill="url(#paint6_linear_5388_3031)"/>
<path fill-rule="evenodd" clip-rule="evenodd" d="M27.9904 24.8656L25.8399 19.0961L25.332 29.7092L27.9904 24.8656Z" fill="url(#paint7_linear_5388_3031)"/>
<path fill-rule="evenodd" clip-rule="evenodd" d="M25.697 18.9136L27.8576 25.0433L37.2479 22.935L47.972 12.9754L50.997 3.366L46.2304 0L38.1298 3.03142L30.4481 10.1906C30.2712 10.2822 27.1784 16.1288 25.6934 18.9154L25.697 18.9136Z" fill="white"/>
<path fill-rule="evenodd" clip-rule="evenodd" d="M33.2863 7.90253C38.8156 2.41903 45.9455 -0.820467 48.6808 1.93962C51.4161 4.6997 48.5158 11.4106 42.9865 16.8904C37.4571 22.3703 30.4153 25.7904 27.6781 23.0321C24.941 20.2739 27.757 13.3833 33.2863 7.90253Z" fill="url(#paint8_linear_5388_3031)"/>
<path fill-rule="evenodd" clip-rule="evenodd" d="M33.0352 37.0911L37.3316 22.8617L51.5986 27.445C46.4405 32.2814 40.7031 36.3688 33.0361 37.0893L33.0352 37.0911Z" fill="url(#paint9_linear_5388_3031)"/>
<path fill-rule="evenodd" clip-rule="evenodd" d="M47.9883 12.9469L51.6549 27.4541C55.9633 22.9258 59.8289 18.0528 61.7254 12.0266L47.9929 12.9433L47.9883 12.9469Z" fill="url(#paint10_linear_5388_3031)"/>
<path fill-rule="evenodd" clip-rule="evenodd" d="M61.6834 12.1018C63.1491 7.67793 63.4874 1.33368 56.5757 0.153931L50.9043 3.28893L61.6834 12.1018Z" fill="url(#paint11_linear_5388_3031)"/>
<path fill-rule="evenodd" clip-rule="evenodd" d="M25.332 29.6431C25.5346 36.9435 30.7999 37.0526 33.0458 37.1167L27.8629 25.0112L25.332 29.6431Z" fill="#9E1209"/>
<path fill-rule="evenodd" clip-rule="evenodd" d="M48.0078 12.9662L58.1269 19.1675C58.3377 19.2857 61.0016 14.6703 61.6102 12.0642L48.0078 12.9662Z" fill="url(#paint12_radial_5388_3031)"/>
<path fill-rule="evenodd" clip-rule="evenodd" d="M37.3281 22.8617L43.071 33.9414C46.199 32.1992 49.0587 30.0139 51.5612 27.4533L37.3281 22.8617Z" fill="url(#paint13_radial_5388_3031)"/>
<path fill-rule="evenodd" clip-rule="evenodd" d="M27.8404 25.0305L27.0273 34.7196C28.5628 36.816 30.6729 36.9985 32.894 36.8362C31.2871 32.846 28.0843 24.8682 27.8404 25.0305Z" fill="url(#paint14_linear_5388_3031)"/>
<path fill-rule="evenodd" clip-rule="evenodd" d="M50.8691 3.3074L62.2752 4.9079C61.6675 2.33023 59.7947 0.660066 56.6102 0.143066L50.8691 3.3074Z" fill="url(#paint15_linear_5388_3031)"/>
<path d="M36.5471 51.4607H33.5074L31.6741 48.7236L29.9077 46.3402H28.7573V49.9207C28.7553 50.0895 28.7865 50.2571 28.8489 50.4139C28.8862 50.4897 28.9387 50.557 29.003 50.6117C29.0673 50.6664 29.1422 50.7073 29.2229 50.732C29.3861 50.7832 29.5542 50.8176 29.7244 50.8347L30.3303 50.8906V51.4552H25.5508V50.8952L26.1008 50.8392C26.2742 50.8281 26.4454 50.7936 26.6095 50.7366C26.7556 50.6791 26.8766 50.572 26.9514 50.4341C27.0315 50.2768 27.07 50.1017 27.0633 49.9253V41.7615C27.0659 41.5938 27.0392 41.4269 26.9844 41.2683C26.95 41.1896 26.8986 41.1195 26.834 41.0629C26.7694 41.0064 26.693 40.9648 26.6104 40.9411C26.4427 40.8833 26.2694 40.8428 26.0934 40.8201C25.9147 40.7823 25.7338 40.7557 25.5517 40.7403V40.1757H30.762C31.2147 40.1729 31.6661 40.2237 32.1068 40.3269C32.5104 40.416 32.8953 40.5749 33.2444 40.7962C33.5711 41.0066 33.8414 41.2936 34.0318 41.6322C34.2375 42.0101 34.3391 42.436 34.326 42.8661C34.3363 43.2599 34.2684 43.6518 34.1262 44.0192C33.9947 44.3472 33.7939 44.643 33.5377 44.8864C33.2822 45.1264 32.9928 45.3274 32.6788 45.4832C32.3233 45.6558 31.9534 45.7969 31.5733 45.9048L32.9639 47.7666L34.3242 49.5999C34.5049 49.8602 34.716 50.0981 34.953 50.3085C35.1293 50.4481 35.3184 50.5709 35.5177 50.6752C35.6818 50.752 35.8558 50.8057 36.0347 50.8347C36.2054 50.8672 36.3781 50.8884 36.5517 50.8979V51.4727M32.3744 43.0549C32.3903 42.7588 32.3463 42.4626 32.2452 42.1838C32.1441 41.9051 31.9879 41.6495 31.7859 41.4324C31.5654 41.2225 31.3038 41.0603 31.0177 40.9561C30.7316 40.8518 30.4271 40.8077 30.1231 40.8265H28.7573V45.672H29.8023C30.139 45.6821 30.4743 45.6254 30.789 45.5052C31.1037 45.385 31.3914 45.2036 31.6356 44.9717C31.8834 44.7201 32.076 44.4196 32.2011 44.0894C32.3263 43.7592 32.3813 43.4066 32.3625 43.054M45.1812 51.3297L42.6274 51.513L42.5082 51.4012V50.3818H42.4523L42.0288 50.8053C41.861 50.9606 41.6766 51.0968 41.4788 51.2114C41.2606 51.3451 41.0285 51.4549 40.7867 51.5387C40.4786 51.624 40.1593 51.6617 39.8398 51.6505C39.5401 51.6696 39.2402 51.6184 38.9639 51.501C38.6876 51.3835 38.4426 51.203 38.2484 50.974C37.8506 50.3932 37.6597 49.6955 37.7067 48.9931V45.2467C37.713 45.0803 37.6744 44.9153 37.5949 44.7691C37.5291 44.6412 37.4336 44.5311 37.3163 44.448C37.1991 44.3649 37.0635 44.3112 36.9211 44.2915C36.7717 44.259 36.62 44.2378 36.4674 44.2282V43.7112L39.0854 43.5206L39.2045 43.6324V49.082C39.1668 49.5424 39.3028 50.0002 39.5859 50.3653C39.697 50.4981 39.836 50.6049 39.993 50.6781C40.15 50.7513 40.3211 50.7891 40.4943 50.7888C40.9836 50.795 41.4606 50.635 41.8473 50.3351C41.983 50.2307 42.1082 50.1134 42.2213 49.9849C42.3195 49.8787 42.4048 49.7611 42.4752 49.6347V45.1862C42.4792 45.0262 42.4406 44.868 42.3634 44.7278C42.2883 44.5889 42.1823 44.4691 42.0535 44.3777C41.9242 44.3048 41.7784 44.2663 41.63 44.2658L41.0012 44.2255V43.7085L43.8493 43.5178L43.9684 43.6297V49.863C43.9639 50.023 44.0025 50.1814 44.0803 50.3213C44.1564 50.4533 44.2625 50.5654 44.3901 50.6486C44.4952 50.7103 44.6114 50.7507 44.732 50.7677L45.1702 50.7998V51.3168M54.1205 47.5328C54.1514 48.6295 53.7516 49.6946 53.0068 50.5001C52.6881 50.8738 52.2929 51.1747 51.8479 51.3825C51.4028 51.5903 50.9184 51.7001 50.4273 51.7046C49.9955 51.7041 49.5663 51.637 49.1549 51.5057C48.7453 51.3751 48.3527 51.1963 47.9853 50.9731L47.3968 51.8815L46.9036 51.7697L46.9595 50.3525L46.9751 48.7538V40.9961C46.9728 40.809 46.9316 40.6246 46.8541 40.4543C46.7927 40.2961 46.6846 40.1602 46.5443 40.0647C46.3877 39.9781 46.2141 39.9265 46.0355 39.9135L45.4709 39.842V39.3332L48.351 39.1499L48.4629 39.2691V44.44L48.5188 44.4556C48.8211 44.1245 49.1863 43.8568 49.5931 43.6682C49.9535 43.4968 50.3472 43.407 50.7463 43.4051C51.2102 43.3991 51.6693 43.4992 52.0886 43.6977C52.5078 43.8963 52.8761 44.1882 53.1654 44.5509C53.8399 45.3949 54.1849 46.4553 54.1361 47.5347M52.4733 47.5906C52.471 47.1871 52.4304 46.7847 52.3523 46.3888C52.2835 46.0128 52.1488 45.6519 51.9544 45.3227C51.7801 45.0214 51.5374 44.7652 51.2459 44.5747C50.9319 44.3779 50.5667 44.2783 50.1963 44.2887C49.8569 44.2815 49.521 44.358 49.2182 44.5115C48.935 44.6603 48.6815 44.8598 48.4702 45.1V49.6668C48.5684 50.0236 48.7639 50.3461 49.0349 50.5982C49.1953 50.7478 49.3781 50.8715 49.5766 50.9648C49.9944 51.1336 50.4592 51.1451 50.8848 50.9973C51.3104 50.8495 51.668 50.5523 51.8912 50.1609C52.3305 49.3796 52.5375 48.4892 52.4879 47.5942M54.7145 54.0247C54.7046 53.7886 54.7809 53.557 54.929 53.3729C54.9955 53.2945 55.0782 53.2316 55.1714 53.1884C55.2647 53.1451 55.3662 53.1227 55.4689 53.1227C55.6203 53.1175 55.7706 53.1489 55.9071 53.2143C56.0292 53.2777 56.1398 53.361 56.2344 53.4609C56.3316 53.5596 56.4169 53.6694 56.4883 53.7882L56.7028 54.1301C57.1023 53.8358 57.4268 53.4514 57.6497 53.0081C57.9699 52.5057 58.2392 51.9726 58.4536 51.4167L57.085 48.0443L55.8017 44.9652C55.7029 44.7236 55.523 44.5239 55.2929 44.4006C55.0727 44.2692 54.8299 44.18 54.577 44.1375V43.6122H58.1575V44.1696C57.9632 44.1815 57.771 44.2159 57.5846 44.2722C57.3616 44.3334 57.25 44.4155 57.25 44.5188L57.2904 44.638L57.3692 44.8681L59.2548 49.5147L59.9945 47.7565L60.8617 45.6005L61.0212 45.1871C61.0823 45.0416 61.1171 44.8864 61.1239 44.7287C61.1239 44.5903 61.0029 44.4638 60.7572 44.3474C60.5439 44.234 60.3125 44.1586 60.0734 44.1247V43.6159H62.9856V44.1091C62.7615 44.1633 62.5487 44.2564 62.3568 44.3841C62.0961 44.5375 61.8922 44.7714 61.7756 45.0505L60.0825 49.0435L58.9688 51.7073C58.7097 52.3056 58.4092 52.8851 58.0695 53.4417C57.8553 53.803 57.5976 54.1367 57.3023 54.4353C57.1096 54.6247 56.8829 54.7758 56.634 54.8808C56.4396 54.9599 56.2316 55.0004 56.0217 55C55.6712 55.0197 55.325 54.9155 55.0436 54.7057C54.9377 54.627 54.851 54.5252 54.7904 54.4079C54.7297 54.2907 54.6965 54.1612 54.6934 54.0292" fill="black"/>
</g>
<defs>
<linearGradient id="paint0_linear_5388_3031" x1="58.0581" y1="40.5043" x2="50.1831" y2="26.637" gradientUnits="userSpaceOnUse">
<stop stop-color="#FB7655"/>
<stop offset="0.41" stop-color="#E42B1E"/>
<stop offset="0.99" stop-color="#990000"/>
</linearGradient>
<linearGradient id="paint1_linear_5388_3031" x1="61.958" y1="28.8566" x2="50.9303" y2="26.7023" gradientUnits="userSpaceOnUse">
<stop stop-color="#871101"/>
<stop offset="0.99" stop-color="#911209"/>
</linearGradient>
<linearGradient id="paint2_linear_5388_3031" x1="53.8684" y1="40.9288" x2="53.7261" y2="33.9286" gradientUnits="userSpaceOnUse">
<stop stop-color="#871101"/>
<stop offset="0.99" stop-color="#911209"/>
</linearGradient>
<linearGradient id="paint3_linear_5388_3031" x1="32.6018" y1="23.934" x2="35.8851" y2="33.5462" gradientUnits="userSpaceOnUse">
<stop stop-color="white"/>
<stop offset="0.23" stop-color="#E57252"/>
<stop offset="0.46" stop-color="#DE3B20"/>
<stop offset="0.99" stop-color="#A60003"/>
</linearGradient>
<linearGradient id="paint4_linear_5388_3031" x1="43.3986" y1="14.4076" x2="43.984" y2="24.8292" gradientUnits="userSpaceOnUse">
<stop stop-color="white"/>
<stop offset="0.23" stop-color="#E4714E"/>
<stop offset="0.56" stop-color="#BE1A0D"/>
<stop offset="0.99" stop-color="#A80D00"/>
</linearGradient>
<linearGradient id="paint5_linear_5388_3031" x1="52.9789" y1="4.7961" x2="53.8441" y2="12.355" gradientUnits="userSpaceOnUse">
<stop stop-color="white"/>
<stop offset="0.18" stop-color="#E46342"/>
<stop offset="0.4" stop-color="#C82410"/>
<stop offset="0.99" stop-color="#A80D00"/>
</linearGradient>
<linearGradient id="paint6_linear_5388_3031" x1="47.6874" y1="2.16891" x2="48.9128" y2="-3.03018" gradientUnits="userSpaceOnUse">
<stop stop-color="white"/>
<stop offset="0.54" stop-color="#C81F11"/>
<stop offset="0.99" stop-color="#BF0905"/>
</linearGradient>
<linearGradient id="paint7_linear_5388_3031" x1="26.0657" y1="21.3354" x2="29.2734" y2="23.3493" gradientUnits="userSpaceOnUse">
<stop stop-color="white"/>
<stop offset="0.31" stop-color="#DE4024"/>
<stop offset="0.99" stop-color="#BF190B"/>
</linearGradient>
<linearGradient id="paint8_linear_5388_3031" x1="21.8364" y1="29.1525" x2="50.6517" y2="-0.559451" gradientUnits="userSpaceOnUse">
<stop stop-color="#BD0012"/>
<stop offset="0.07" stop-color="white"/>
<stop offset="0.17" stop-color="white"/>
<stop offset="0.27" stop-color="#C82F1C"/>
<stop offset="0.33" stop-color="#820C01"/>
<stop offset="0.46" stop-color="#A31601"/>
<stop offset="0.72" stop-color="#B31301"/>
<stop offset="0.99" stop-color="#E82609"/>
</linearGradient>
<linearGradient id="paint9_linear_5388_3031" x1="43.9504" y1="32.1393" x2="35.8021" y2="28.7094" gradientUnits="userSpaceOnUse">
<stop stop-color="#8C0C01"/>
<stop offset="0.54" stop-color="#990C00"/>
<stop offset="0.99" stop-color="#A80D0E"/>
</linearGradient>
<linearGradient id="paint10_linear_5388_3031" x1="58.8819" y1="21.6997" x2="50.4859" y2="15.7401" gradientUnits="userSpaceOnUse">
<stop stop-color="#7E110B"/>
<stop offset="0.99" stop-color="#9E0C00"/>
</linearGradient>
<linearGradient id="paint11_linear_5388_3031" x1="61.7202" y1="9.00728" x2="57.7628" y2="4.9996" gradientUnits="userSpaceOnUse">
<stop stop-color="#79130D"/>
<stop offset="0.99" stop-color="#9E120B"/>
</linearGradient>
<radialGradient id="paint12_radial_5388_3031" cx="0" cy="0" r="1" gradientUnits="userSpaceOnUse" gradientTransform="translate(52.3606 14.9064) scale(12.3782 6.46599)">
<stop stop-color="#A80D00"/>
<stop offset="0.99" stop-color="#7E0E08"/>
</radialGradient>
<radialGradient id="paint13_radial_5388_3031" cx="0" cy="0" r="1" gradientUnits="userSpaceOnUse" gradientTransform="translate(39.3208 27.4044) scale(14.0908 10.969)">
<stop stop-color="#A30C00"/>
<stop offset="0.99" stop-color="#800E08"/>
</radialGradient>
<linearGradient id="paint14_linear_5388_3031" x1="30.3479" y1="37.0828" x2="23.2645" y2="31.2044" gradientUnits="userSpaceOnUse">
<stop stop-color="#8B2114"/>
<stop offset="0.43" stop-color="#9E100A"/>
<stop offset="0.99" stop-color="#B3100C"/>
</linearGradient>
<linearGradient id="paint15_linear_5388_3031" x1="54.3936" y1="1.83935" x2="56.4035" y2="6.92409" gradientUnits="userSpaceOnUse">
<stop stop-color="#B31000"/>
<stop offset="0.44" stop-color="#910F08"/>
<stop offset="0.99" stop-color="#791C12"/>
</linearGradient>
</defs>
</svg>
