<svg width="90" height="62" viewBox="0 0 90 62" fill="none" xmlns="http://www.w3.org/2000/svg">
<rect width="90" height="61.6006" fill="white"/>
<path fill-rule="evenodd" clip-rule="evenodd" d="M65.4592 18.5218C65.4159 17.2443 65.3942 16.0318 65.3942 14.8409C65.3942 13.9315 64.658 13.1953 63.727 13.1953C56.625 13.1953 51.1903 11.1384 46.6648 6.74291C46.0369 6.11499 44.9976 6.11499 44.348 6.74291C39.8444 11.1384 34.4096 13.1953 27.2859 13.1953C26.3765 13.1953 25.6187 13.9315 25.6187 14.8409C25.6187 15.9731 25.5991 17.1248 25.5785 18.3334L25.5753 18.5218C25.5712 18.8489 25.5664 19.1789 25.5615 19.512C25.5404 20.943 25.5186 22.4285 25.5537 23.9566H31.1184C32.0278 23.9566 32.7423 23.2205 32.7423 22.3326C32.7423 21.4449 32.0278 20.7088 31.1184 20.7088H28.8665L28.8684 20.6475C28.8894 19.9545 28.9098 19.2808 28.9098 18.5868C28.9205 18.235 28.9259 17.8831 28.9312 17.5365C28.9367 17.1791 28.9421 16.8272 28.9531 16.4865C35.6221 16.205 40.9485 14.1697 45.5172 10.2073C50.086 14.1697 55.4125 16.205 62.0815 16.4865C62.0923 16.8272 62.0978 17.1791 62.1033 17.5364C62.1087 17.883 62.114 18.235 62.1247 18.5868V20.7088H59.9161C59.0284 20.7088 58.2922 21.4449 58.2922 22.3326C58.2922 23.2205 59.0284 23.9566 59.9161 23.9566H65.4592C65.4943 22.4285 65.4724 20.9432 65.4513 19.5121V19.5101C65.4464 19.1777 65.4417 18.8483 65.4375 18.5218H65.4592ZM51.9542 22.0754C48.4248 18.5461 42.687 18.5461 39.1576 22.0754C35.6282 25.6048 35.6282 31.3209 39.1576 34.8503C40.5 36.2145 42.1673 37.0372 43.9212 37.3403V49.8122C36.5594 46.7159 32.7485 42.1472 30.7998 36.9506H33.7229C34.6106 36.9506 35.3467 36.2362 35.3467 35.3267C35.3467 34.4173 34.6106 33.7027 33.7229 33.7027H26.4909C28.2015 41.8008 32.8134 49.5524 44.9821 53.7529C45.0254 53.7746 45.0903 53.7962 45.1337 53.7962H45.177L45.2256 53.8045C45.3347 53.8231 45.4316 53.8396 45.545 53.8396H45.6967L45.7184 53.8179C45.7833 53.8179 45.8483 53.8179 45.9132 53.7962C46.0215 53.7746 46.108 53.7529 46.1729 53.7097C46.7576 53.4714 47.169 52.9084 47.169 52.2156V37.3403C48.9229 37.0372 50.5902 36.2145 51.9542 34.8503C55.4618 31.3209 55.4618 25.6048 51.9542 22.0754ZM49.659 32.5552C47.3856 34.8288 43.7263 34.8288 41.4527 32.5552C39.2009 30.3033 39.2009 26.6225 41.4527 24.3706C43.7263 22.1187 47.3856 22.1187 49.659 24.3706C51.9109 26.6225 51.9109 30.3033 49.659 32.5552ZM32.1361 30.4534H29.2563H26.1167C26.0518 30.4534 25.9868 30.4534 25.9435 30.475C25.8136 29.3924 25.727 28.2881 25.662 27.2055H32.1361C33.0455 27.2055 33.76 27.9417 33.76 28.8294C33.76 29.7172 33.0455 30.4534 32.1361 30.4534ZM62.0669 27.2055H58.9273C58.0395 27.2055 57.3034 27.9417 57.3034 28.8294C57.3034 29.7172 58.0395 30.4534 58.9273 30.4534H64.9684C64.9684 30.4534 65.055 30.4534 65.0983 30.475C65.2282 29.3924 65.3147 28.2881 65.3797 27.2055H62.0669ZM57.3605 33.7013H61.1714H64.5492C63.0768 40.76 59.3743 47.5372 50.4102 51.9326V48.1868C55.65 45.2203 58.573 41.3229 60.197 36.9491H57.3605C56.4511 36.9491 55.7367 36.213 55.7367 35.3251C55.7367 34.4374 56.4511 33.7013 57.3605 33.7013Z" fill="url(#paint0_linear_1382_206)"/>
<defs>
<linearGradient id="paint0_linear_1382_206" x1="45.5064" y1="6.27197" x2="45.5064" y2="53.8396" gradientUnits="userSpaceOnUse">
<stop stop-color="#0044EE"/>
<stop offset="1" stop-color="#23B5E9"/>
</linearGradient>
</defs>
</svg>
