<svg width="90" height="62" viewBox="0 0 90 62" fill="none" xmlns="http://www.w3.org/2000/svg">
<rect width="90" height="61.6006" fill="white"/>
<path fill-rule="evenodd" clip-rule="evenodd" d="M21.0312 11.9896C21.0312 13.6271 22.6625 14.9591 24.6674 14.9591C24.8408 14.9591 25.0114 14.9492 25.1785 14.9299L27.6178 19.094L21.2488 28.121C21.1164 28.3084 21.1164 28.5399 21.2492 28.7282L27.6135 37.7407L25.5363 41.0941C25.3067 41.0568 25.0693 41.0373 24.8264 41.0373C22.8213 41.0373 21.1899 42.3693 21.1899 44.0068C21.1899 45.6444 22.8212 46.9763 24.8264 46.9763C26.8316 46.9763 28.4629 45.6444 28.4626 44.0068C28.4626 43.0008 27.847 42.1103 26.9075 41.5729L28.9193 38.3249H38.0623C38.4075 39.6712 39.8723 40.6855 41.6213 40.6855C42.0147 40.6855 42.3948 40.6359 42.756 40.5385L47.5474 47.3217C47.6805 47.5101 47.9258 47.6255 48.1921 47.6255H61.346C61.6122 47.6255 61.8585 47.5099 61.9918 47.3217L68.5642 38.0206C68.697 37.8327 68.697 37.6013 68.5642 37.4129L63.6537 30.4677C64.4133 29.9159 64.8636 29.1114 64.8636 28.2527C64.8636 27.4596 64.4753 26.7101 63.8007 26.1589L68.5636 19.4267C68.697 19.2387 68.697 19.0072 68.5636 18.8189L61.9913 9.52605C61.8586 9.33777 61.6132 9.22217 61.3471 9.22217H48.1921C47.9263 9.22217 47.6805 9.33777 47.5474 9.52605L42.756 16.3016C42.3938 16.2038 42.0143 16.1545 41.6213 16.1545C39.8719 16.1545 38.4066 17.1689 38.062 18.5155H28.9285L26.5835 14.5125C27.6153 13.988 28.3035 13.0532 28.3035 11.9896C28.3035 10.3521 26.6722 9.01953 24.6674 9.01953C22.6626 9.01953 21.0312 10.3521 21.0312 11.9896ZM25.5804 42.364C25.5814 42.3644 25.5823 42.3647 25.5833 42.3651C25.6199 42.3803 25.6573 42.3927 25.6952 42.4024C26.448 42.6753 26.9743 43.2918 26.9743 44.0066C26.9743 44.9735 26.0109 45.7606 24.8264 45.7606C23.642 45.7606 22.6782 44.9735 22.6782 44.0066C22.6782 43.0394 23.6421 42.2524 24.8264 42.2524C25.0916 42.2524 25.3457 42.2918 25.5804 42.364ZM22.5195 11.9893C22.5195 11.0217 23.483 10.2347 24.6674 10.2347C25.8515 10.2347 26.8149 11.022 26.8149 11.9893C26.8149 12.9563 25.8515 13.7433 24.6674 13.7433C23.4829 13.7433 22.5195 12.9563 22.5195 11.9893ZM62.555 25.4902C62.133 25.3536 61.684 25.2829 61.2271 25.2829C59.4037 25.2829 57.8892 26.3846 57.6301 27.816H48.6222L46.9754 25.4845L44.0479 21.3395C44.8075 20.7878 45.258 19.983 45.258 19.1242C45.258 18.4446 44.9709 17.7952 44.4692 17.2782C44.4527 17.2612 44.4358 17.2443 44.419 17.2276C44.3044 17.1149 44.1795 17.0087 44.0451 16.9104L48.622 10.4377H60.9175L67.0599 19.1231L62.555 25.4902ZM59.0815 28.1684C59.136 27.2405 60.0775 26.4991 61.2269 26.4991C61.6517 26.4991 62.0665 26.6041 62.4262 26.8024L62.4489 26.8144C63.0293 27.1428 63.3751 27.6787 63.3751 28.2524C63.3751 28.8841 62.9663 29.4647 62.2994 29.7715C61.9704 29.9276 61.6097 30.0065 61.2269 30.0065C60.1395 30.0065 59.226 29.3419 59.0928 28.4364C59.0907 28.4187 59.0889 28.4011 59.0875 28.3833C59.0861 28.3653 59.0837 28.3477 59.0803 28.3302L59.0815 28.1684ZM62.2035 31.1145C62.2571 31.1023 62.3103 31.0891 62.3632 31.0749L67.0586 37.7165L60.916 46.4101H48.6213L44.0456 39.9325C44.8067 39.3807 45.258 38.5753 45.258 37.7157C45.258 36.8634 44.8065 36.0587 44.0465 35.5032L48.6229 29.0319H57.7169C58.1343 30.2971 59.5601 31.2225 61.2262 31.2225C61.5626 31.2225 61.8892 31.1865 62.2035 31.1145ZM39.6822 36.9615C40.0286 36.3717 40.7672 35.9634 41.6201 35.9634C42.0029 35.9634 42.3635 36.0425 42.6926 36.1984L42.7017 36.2026C43.3598 36.5135 43.7679 37.0931 43.7679 37.7166C43.7679 38.0552 43.6504 38.3791 43.4399 38.6535C43.2567 38.8912 43.003 39.0922 42.6938 39.2345C42.3643 39.3905 42.0034 39.4699 41.6213 39.4699C40.4369 39.4699 39.4735 38.6829 39.4735 37.7155C39.4735 37.4457 39.5485 37.1901 39.6822 36.9615ZM42.7574 34.8934L47.3322 28.4242L42.7571 21.9464C42.3959 22.0438 42.0154 22.0935 41.6215 22.0935C41.2232 22.0935 40.8396 22.041 40.4807 21.9438C39.2616 21.6147 38.3263 20.772 38.0602 19.7313L28.8854 19.7307L22.752 28.4243L28.8854 37.1094H38.0602C38.1032 36.9412 38.1638 36.7779 38.2403 36.6214C38.353 36.3902 38.5003 36.1735 38.6768 35.975C39.3382 35.2307 40.4118 34.746 41.6213 34.746C42.0148 34.746 42.3948 34.7953 42.7574 34.8934ZM42.6966 17.6066C42.7391 17.6265 42.7804 17.6475 42.8207 17.6695C43.4086 17.9916 43.7679 18.5379 43.7679 19.1228C43.7679 19.7542 43.3591 20.3348 42.701 20.6376C42.6889 20.6431 42.6771 20.649 42.6654 20.6551C42.3439 20.8027 41.9923 20.8773 41.6201 20.8773C41.3241 20.8773 41.0419 20.8282 40.7851 20.7393C40.0149 20.4724 39.4735 19.8486 39.4735 19.1237C39.4735 18.1567 40.4371 17.3696 41.6213 17.3696C42.0041 17.3696 42.3648 17.4487 42.6966 17.6066ZM36.0159 35.0659C36.4268 35.0659 36.7602 34.7942 36.7605 34.4583C36.7605 34.1224 36.4273 33.8506 36.0164 33.8506H31.1908L27.358 28.4217L31.1918 22.9874H36.016C36.4269 22.9874 36.7602 22.7155 36.7602 22.3797C36.7602 22.0438 36.4269 21.772 36.016 21.772H30.7616C30.4957 21.772 30.2496 21.8882 30.1165 22.0764L25.8537 28.1184C25.7214 28.3058 25.7214 28.5374 25.8541 28.7256L30.1162 34.762C30.2489 34.9504 30.4946 35.0659 30.7607 35.0659H36.0159ZM59.0431 44.3681H50.4966C50.2305 44.3681 49.9851 44.2525 49.8521 44.0642L47.2343 40.3599C47.0288 40.0689 47.1511 39.6973 47.5068 39.5295C47.8627 39.3609 48.3184 39.4612 48.5236 39.7521L50.9263 43.1526H58.613L62.4533 37.7178L59.9323 34.1523C59.7268 33.8615 59.8486 33.4897 60.2048 33.322C60.5602 33.1539 61.0154 33.253 61.2215 33.5445L63.9571 37.4139C64.0899 37.6021 64.0899 37.8337 63.9571 38.0216L59.6873 44.0642C59.5546 44.2525 59.3089 44.3681 59.0431 44.3681ZM60.4509 23.1699C60.5681 23.225 60.6962 23.2513 60.8227 23.2513C61.08 23.2513 61.33 23.1428 61.4676 22.9472L63.9583 19.4268C64.0916 19.2389 64.0916 19.0073 63.9583 18.8191L59.6904 12.7848C59.5578 12.5966 59.3124 12.481 59.0462 12.481H50.497C50.2315 12.481 49.9858 12.5966 49.8526 12.7848L47.2347 16.4858C47.0288 16.7759 47.1505 17.1481 47.5068 17.3162C47.861 17.4837 48.317 17.3845 48.5231 17.0936L50.9262 13.6965H58.6162L62.4543 19.123L60.179 22.3395C59.9733 22.6296 60.095 23.0018 60.4509 23.1699Z" fill="url(#paint0_linear_1382_206)"/>
<path d="M25.1762 14.9297L25.5724 14.7749L25.4335 14.5378L25.1148 14.5745L25.1762 14.9297ZM27.6156 19.0938L27.9961 19.2729L28.1115 19.1093L28.0118 18.9391L27.6156 19.0938ZM27.6113 37.7405L28.0032 37.9023L28.1104 37.7293L27.9918 37.5613L27.6113 37.7405ZM25.5341 41.0939L25.4485 41.4457L25.7755 41.4988L25.926 41.2558L25.5341 41.0939ZM26.9052 41.5727L26.5133 41.4108L26.3415 41.6882L26.6533 41.8665L26.9052 41.5727ZM28.9171 38.3247V37.966H28.6471L28.5252 38.1629L28.9171 38.3247ZM38.0601 38.3247L38.49 38.2512L38.4167 37.966H38.0601V38.3247ZM41.6191 40.6853L41.6686 40.329L41.644 40.3267H41.6191V40.6853ZM41.6191 40.6853L41.5699 41.0417L41.5945 41.044H41.6193L41.6191 40.6853ZM42.7538 40.5383L43.1343 40.3591L42.9556 40.1061L42.6162 40.1977L42.7538 40.5383ZM61.3438 47.6253V47.984H61.3687L61.3935 47.9818L61.3438 47.6253ZM61.3438 47.6253L61.3443 47.2667H61.3194L61.2948 47.269L61.3438 47.6253ZM63.6515 30.4675L63.3595 30.1995L63.0921 30.3938L63.2711 30.6468L63.6515 30.4675ZM63.7985 26.1587L63.4183 25.9792L63.2497 26.2175L63.4879 26.4122L63.7985 26.1587ZM42.7538 16.3014L42.6159 16.642L42.9553 16.7336L43.1341 16.4808L42.7538 16.3014ZM38.0597 18.5153V18.874H38.4167L38.4896 18.5887L38.0597 18.5153ZM28.9262 18.5153L28.5301 18.6701L28.6495 18.874H28.9262V18.5153ZM26.5813 14.5123L26.3492 14.2078L26.0154 14.3775L26.1851 14.6671L26.5813 14.5123ZM25.5782 42.3638L25.7784 42.0445L25.7562 42.0352L25.7328 42.028L25.5782 42.3638ZM25.693 42.4022L25.8712 42.0744L25.8486 42.0662L25.825 42.06L25.693 42.4022ZM62.5528 25.49L62.3908 25.8234L62.7434 25.9376L62.933 25.6695L62.5528 25.49ZM57.6279 27.8158V28.1744H58.0068L58.0623 27.8681L57.6279 27.8158ZM48.62 27.8158L48.2396 27.995L48.3663 28.1744H48.62V27.8158ZM44.0457 21.3393L43.7537 21.0713L43.4865 21.2654L43.6652 21.5185L44.0457 21.3393ZM44.0429 16.9102L43.6626 16.7308L43.4841 16.9831L43.7499 17.1774L44.0429 16.9102ZM48.6198 10.4374V10.0788H48.3663L48.2394 10.2581L48.6198 10.4374ZM60.9153 10.4374L61.2957 10.2581L61.1688 10.0788H60.9153V10.4374ZM67.0576 19.1229L67.438 19.3024L67.5648 19.123L67.438 18.9435L67.0576 19.1229ZM59.0793 28.1681L58.6403 28.1509L58.6401 28.1658L59.0793 28.1681ZM62.424 26.8022L62.1783 27.0996L62.1848 27.103L62.424 26.8022ZM62.4467 26.8142L62.697 26.5193L62.6859 26.5135L62.4467 26.8142ZM62.2972 29.7713L62.0816 29.4588L62.0767 29.4611L62.2972 29.7713ZM59.0906 28.4361L58.6533 28.4709L58.6545 28.4789L59.0906 28.4361ZM59.0781 28.33L58.6389 28.3277L58.6387 28.3565L58.6442 28.3849L59.0781 28.33ZM62.361 31.0747L62.7413 30.8953L62.5626 30.6425L62.2232 30.7341L62.361 31.0747ZM67.0564 37.7162L67.4367 37.8956L67.5634 37.7162L67.4367 37.5369L67.0564 37.7162ZM60.9137 46.4099V46.7685H61.1674L61.2941 46.5892L60.9137 46.4099ZM48.6191 46.4099L48.2387 46.5891L48.3654 46.7685H48.6191V46.4099ZM44.0434 39.9323L43.752 39.664L43.4843 39.8582L43.6631 40.1115L44.0434 39.9323ZM44.0443 35.503L43.664 35.3236L43.4857 35.5758L43.7515 35.7702L44.0443 35.503ZM48.6207 29.0317V28.673H48.3672L48.2403 28.8522L48.6207 29.0317ZM57.7147 29.0317L58.1388 28.9383L58.0513 28.673H57.7147V29.0317ZM42.6904 36.1982L42.4699 36.5084L42.4717 36.5091L42.6904 36.1982ZM42.6995 36.2024L42.4806 36.5134L42.4845 36.5151L42.6995 36.2024ZM42.6995 36.2024L42.9195 35.892L42.9145 35.8898L42.6995 36.2024ZM42.6916 39.2343L42.476 38.9217L42.4715 38.9238L42.6916 39.2343ZM47.33 28.4239L47.7103 28.6033L47.8371 28.4241L47.7105 28.2447L47.33 28.4239ZM42.7552 34.8932L42.6171 35.2337L42.9565 35.3255L43.1355 35.0726L42.7552 34.8932ZM42.7548 21.9462L43.1354 21.767L42.9567 21.5141L42.6173 21.6056L42.7548 21.9462ZM41.6193 22.0933L41.4923 22.4367L41.5545 22.4519H41.6193V22.0933ZM41.6193 22.0933L41.7461 21.7499L41.6841 21.7346H41.6191L41.6193 22.0933ZM38.058 19.731L38.488 19.6577L38.415 19.3724H38.0582L38.058 19.731ZM28.8832 19.7305L28.8832 19.3718H28.6294L28.5027 19.5514L28.8832 19.7305ZM22.7498 28.4241L22.3692 28.245L22.2428 28.4242L22.3693 28.6033L22.7498 28.4241ZM28.8832 37.1092L28.5028 37.2884L28.6295 37.4679H28.8832V37.1092ZM38.058 37.1092V37.4679H38.415L38.488 37.1825L38.058 37.1092ZM42.6944 17.6064L42.4732 17.9163L42.4759 17.9175L42.6944 17.6064ZM42.6631 20.6548L42.8783 20.9676L42.8892 20.9626L42.8998 20.957L42.6631 20.6548ZM41.6191 17.3694H42.0583V17.0107H41.6191V17.3694ZM41.6191 17.3694L41.1799 17.3695V17.7281H41.6191V17.3694ZM36.0138 35.0658L35.7512 35.3533L35.868 35.4245H36.0138V35.0658ZM36.0138 35.0658L36.2763 34.7782L36.1595 34.707H36.0136L36.0138 35.0658ZM31.1885 33.8503L30.808 34.0294L30.9349 34.209H31.1885V33.8503ZM27.3558 28.4215L26.9752 28.2425L26.8489 28.4215L26.9753 28.6007L27.3558 28.4215ZM31.1896 22.9872V22.6285H30.9357L30.8091 22.8082L31.1896 22.9872ZM59.0409 44.3679V44.7265H59.2032L59.3267 44.6402L59.0409 44.3679ZM50.9241 43.1524L50.5436 43.3317L50.6704 43.5111H50.9241V43.1524ZM58.6108 43.1524V43.5111H58.8645L58.9913 43.3317L58.6108 43.1524ZM62.4511 37.7175L62.8314 37.8969L62.9581 37.7175L62.8314 37.5382L62.4511 37.7175ZM59.0409 44.3679V44.0092H58.8784L58.755 44.0956L59.0409 44.3679ZM60.8205 23.251V23.6097H61.0441L61.1757 23.4619L60.8205 23.251ZM60.8205 23.251V22.8922H60.5968L60.4652 23.04L60.8205 23.251ZM50.9239 13.6963V13.3376H50.6704L50.5438 13.5169L50.9239 13.6963ZM58.614 13.6963L58.9943 13.5169L58.8675 13.3376H58.614V13.6963ZM62.4521 19.1227L62.8325 19.3022L62.9593 19.1227L62.8325 18.9434L62.4521 19.1227ZM24.6652 14.6003C22.9028 14.6003 21.4682 13.4288 21.4682 11.9894H20.5898C20.5898 13.825 22.4178 15.3176 24.6652 15.3176V14.6003ZM25.1148 14.5745C24.9681 14.5915 24.818 14.6003 24.6652 14.6003V15.3176C24.8592 15.3176 25.0504 15.3064 25.2377 15.2848L25.1148 14.5745ZM28.0118 18.9391L25.5724 14.7749L24.7801 15.0845L27.2194 19.2486L28.0118 18.9391ZM21.627 28.3L27.9961 19.2729L27.2351 18.9147L20.866 27.9417L21.627 28.3ZM21.6275 28.5489C21.5727 28.4713 21.5732 28.3762 21.627 28.3L20.866 27.9417C20.6551 28.2403 20.6557 28.6082 20.8663 28.907L21.6275 28.5489ZM27.9918 37.5613L21.6275 28.5489L20.8663 28.907L27.2309 37.9197L27.9918 37.5613ZM25.926 41.2558L28.0032 37.9023L27.2194 37.5785L25.1422 40.932L25.926 41.2558ZM25.6197 40.7421C25.3621 40.7002 25.096 40.6784 24.8242 40.6784V41.3958C25.0382 41.3958 25.2469 41.413 25.4485 41.4457L25.6197 40.7421ZM24.8242 40.6784C22.5766 40.6784 20.7485 42.1709 20.7485 44.0066H21.6269C21.6269 42.5672 23.0616 41.3958 24.8242 41.3958V40.6784ZM20.7485 44.0066C20.7485 45.8423 22.5765 47.3348 24.8242 47.3348V46.6175C23.0615 46.6175 21.6269 45.446 21.6269 44.0066H20.7485ZM24.8242 47.3348C27.0718 47.3348 28.8999 45.8423 28.8995 44.0065L28.0212 44.0066C28.0215 45.446 26.5869 46.6175 24.8242 46.6175V47.3348ZM28.8995 44.0065C28.8995 42.8782 28.2087 41.8803 27.1572 41.2789L26.6533 41.8665C27.481 42.3398 28.0212 43.123 28.0212 44.0066L28.8995 44.0065ZM28.5252 38.1629L26.5133 41.4108L27.2971 41.7345L29.309 38.4867L28.5252 38.1629ZM38.0601 37.966H28.9171V38.6834H38.0601V37.966ZM41.6191 40.3267C40.0825 40.3267 38.7935 39.435 38.49 38.2512L37.6302 38.3983C38.017 39.9069 39.6577 41.044 41.6193 41.044L41.6191 40.3267ZM42.6162 40.1977C42.3005 40.2829 41.9668 40.3267 41.6191 40.3267L41.6193 41.044C42.0581 41.044 42.4848 40.9886 42.8915 40.8789L42.6162 40.1977ZM47.9257 47.1423L43.1343 40.3591L42.3735 40.7176L47.1648 47.5008L47.9257 47.1423ZM48.1899 47.2667C48.0805 47.2667 47.9803 47.2195 47.9257 47.1423L47.1648 47.5008C47.3765 47.8002 47.7669 47.984 48.1899 47.984V47.2667ZM61.3443 47.2667H48.1899V47.984H61.3438L61.3443 47.2667ZM61.6096 47.1418C61.5546 47.2193 61.4538 47.2667 61.3443 47.2667L61.3438 47.984C61.7666 47.984 62.1577 47.8002 62.3697 47.5012L61.6096 47.1418ZM68.1816 37.8412L61.6096 47.1418L62.3697 47.5012L68.9423 38.1997L68.1816 37.8412ZM68.1814 37.5917C68.2361 37.6692 68.2361 37.7643 68.1816 37.8412L68.9423 38.1997C69.1533 37.9009 69.1535 37.5327 68.9426 37.2338L68.1814 37.5917ZM63.2711 30.6468L68.1814 37.5917L68.9426 37.2338L64.0318 30.2882L63.2711 30.6468ZM64.4222 28.2525C64.4222 29.0087 64.0255 29.7157 63.3595 30.1995L63.9434 30.7355C64.7965 30.1157 65.3005 29.2136 65.3005 28.2525H64.4222ZM63.4879 26.4122C64.0812 26.897 64.4222 27.5558 64.4222 28.2525H65.3005C65.3005 27.3631 64.865 26.5227 64.1093 25.9052L63.4879 26.4122ZM68.1814 19.2466L63.4183 25.9792L64.1788 26.3382L68.9416 19.6059L68.1814 19.2466ZM68.1811 18.9981C68.2359 19.0752 68.2359 19.1699 68.1814 19.2466L68.9416 19.6059C69.154 19.3067 69.1536 18.9384 68.9414 18.6391L68.1811 18.9981ZM61.6085 9.70479L68.1811 18.9981L68.9414 18.6391L62.3694 9.34644L61.6085 9.70479ZM61.3448 9.58062C61.4543 9.58062 61.5543 9.62798 61.6085 9.70479L62.3694 9.34644C62.158 9.04673 61.7677 8.86328 61.3448 8.86328V9.58062ZM48.1899 9.58062H61.3448V8.86328H48.1899V9.58062ZM47.9255 9.70521C47.9801 9.62807 48.0808 9.58062 48.1899 9.58062V8.86328C47.7674 8.86328 47.3765 9.04711 47.1648 9.3465L47.9255 9.70521ZM43.1341 16.4808L47.9255 9.70521L47.1648 9.3465L42.3735 16.1221L43.1341 16.4808ZM41.6191 16.5129C41.9666 16.5129 42.2993 16.5565 42.6159 16.642L42.8917 15.9609C42.4838 15.8507 42.0578 15.7956 41.6191 15.7956V16.5129ZM38.4896 18.5887C38.7928 17.4046 40.0821 16.5129 41.6191 16.5129V15.7956C39.6572 15.7956 38.0162 16.9327 37.6299 18.442L38.4896 18.5887ZM28.9262 18.874H38.0597V18.1566H28.9262V18.874ZM26.1851 14.6671L28.5301 18.6701L29.3224 18.3605L26.9774 14.3575L26.1851 14.6671ZM27.8621 11.9894C27.8621 12.9236 27.258 13.7458 26.3492 14.2078L26.8134 14.8168C27.9681 14.2297 28.7405 13.1825 28.7405 11.9894H27.8621ZM24.6652 9.37799C26.4274 9.37799 27.8621 10.5499 27.8621 11.9894H28.7405C28.7405 10.1539 26.9127 8.66064 24.6652 8.66064V9.37799ZM21.4682 11.9894C21.4682 10.5499 22.903 9.37799 24.6652 9.37799V8.66064C22.4177 8.66064 20.5898 10.1538 20.5898 11.9894H21.4682ZM25.7784 42.0445L25.378 42.683C25.3799 42.6838 25.3815 42.6844 25.3825 42.6849L25.7784 42.0445ZM25.825 42.06C25.8096 42.0562 25.7936 42.0507 25.7784 42.0445L25.3825 42.6849C25.4405 42.7088 25.5006 42.7287 25.561 42.7442L25.825 42.06ZM25.5147 42.7299C26.1151 42.9477 26.5329 43.4388 26.5329 44.0063H27.4113C27.4113 43.1444 26.7765 42.4026 25.8712 42.0744L25.5147 42.7299ZM26.5329 44.0063C26.5329 44.7752 25.7661 45.4017 24.8242 45.4017V46.1191C26.2513 46.1191 27.4113 45.1713 27.4113 44.0063H26.5329ZM24.8242 45.4017C23.8823 45.4017 23.1152 44.7752 23.1152 44.0063H22.2368C22.2368 45.1714 23.3973 46.1191 24.8242 46.1191V45.4017ZM23.1152 44.0063C23.1152 43.2375 23.8824 42.6108 24.8242 42.6108V41.8935C23.3974 41.8935 22.2368 42.8411 22.2368 44.0063H23.1152ZM24.8242 42.6108C25.0357 42.6108 25.2375 42.6422 25.4236 42.6995L25.7328 42.028C25.4495 41.9411 25.1431 41.8935 24.8242 41.8935V42.6108ZM24.6652 9.87578C23.2381 9.87578 22.0781 10.8235 22.0781 11.989H22.9565C22.9565 11.2195 23.7235 10.5931 24.6652 10.5931V9.87578ZM27.2518 11.989C27.2518 10.8239 26.092 9.87578 24.6652 9.87578V10.5931C25.6065 10.5931 26.3735 11.2197 26.3735 11.989H27.2518ZM24.6652 14.1018C26.0919 14.1018 27.2518 13.154 27.2518 11.989H26.3735C26.3735 12.758 25.6066 13.3844 24.6652 13.3844V14.1018ZM22.0781 11.989C22.0781 13.1541 23.2381 14.1018 24.6652 14.1018V13.3844C23.7233 13.3844 22.9565 12.758 22.9565 11.989H22.0781ZM61.2249 25.6414C61.6259 25.6414 62.0201 25.7035 62.3908 25.8234L62.7146 25.1566C62.2417 25.0035 61.7377 24.924 61.2249 24.924V25.6414ZM58.0623 27.8681C58.2902 26.6099 59.6227 25.6414 61.2249 25.6414V24.924C59.1803 24.924 57.484 26.1587 57.1933 27.7633L58.0623 27.8681ZM48.62 28.1744H57.6279V27.4571H48.62V28.1744ZM46.5927 25.6635L48.2396 27.995L49.0005 27.6364L47.3535 25.3051L46.5927 25.6635ZM43.6652 21.5185L46.5927 25.6635L47.3535 25.3051L44.426 21.1601L43.6652 21.5185ZM44.8166 19.124C44.8166 19.8804 44.4199 20.5876 43.7537 21.0713L44.3375 21.6073C45.1909 20.9875 45.695 20.0854 45.695 19.124H44.8166ZM44.1227 17.5008C44.5643 17.9557 44.8166 18.5271 44.8166 19.124H45.695C45.695 18.3618 45.3729 17.6342 44.8111 17.0552L44.1227 17.5008ZM44.0784 17.4562C44.0931 17.4709 44.1081 17.4858 44.1227 17.5008L44.8111 17.0552C44.7927 17.0362 44.7739 17.0173 44.7549 16.9985L44.0784 17.4562ZM43.7499 17.1774C43.8681 17.2638 43.9779 17.3571 44.0784 17.4562L44.7549 16.9985C44.6267 16.8722 44.4867 16.7532 44.3357 16.6429L43.7499 17.1774ZM48.2394 10.2581L43.6626 16.7308L44.4231 17.0895L49.0001 10.6168L48.2394 10.2581ZM60.9153 10.0788H48.6198V10.7961H60.9153V10.0788ZM67.438 18.9435L61.2957 10.2581L60.535 10.6168L66.6773 19.3024L67.438 18.9435ZM62.933 25.6695L67.438 19.3024L66.6773 18.9435L62.1725 25.3107L62.933 25.6695ZM61.2247 26.1402C59.8397 26.1402 58.706 27.033 58.6403 28.1509L59.5182 28.1852C59.5614 27.4476 60.311 26.8576 61.2247 26.8576V26.1402ZM62.6698 26.5049C62.2392 26.2675 61.7392 26.1402 61.2247 26.1402V26.8576C61.5599 26.8576 61.8894 26.9403 62.1783 27.0996L62.6698 26.5049ZM62.6859 26.5135L62.6633 26.5015L62.1848 27.103L62.2076 27.1151L62.6859 26.5135ZM63.812 28.2522C63.812 27.5598 63.3948 26.9141 62.697 26.5193L62.1967 27.1091C62.6596 27.371 62.9337 27.7973 62.9337 28.2522H63.812ZM62.5127 30.0839C63.3208 29.7121 63.812 29.0104 63.812 28.2522H62.9337C62.9337 28.7574 62.6073 29.217 62.0816 29.4588L62.5127 30.0839ZM61.2247 30.3649C61.6842 30.3649 62.1212 30.2695 62.5177 30.0816L62.0767 29.4611C61.8151 29.5852 61.5305 29.6476 61.2247 29.6476V30.3649ZM58.6545 28.4789C58.8135 29.5609 59.9103 30.3649 61.2247 30.3649V29.6476C60.3642 29.6476 59.6339 29.1225 59.5268 28.3934L58.6545 28.4789ZM58.6472 28.4067C58.6489 28.4282 58.6509 28.4498 58.6533 28.4709L59.5278 28.4014C59.5261 28.3875 59.5247 28.3734 59.5236 28.3594L58.6472 28.4067ZM58.6442 28.3849C58.6454 28.3921 58.6465 28.3993 58.6472 28.4067L59.5236 28.3594C59.5212 28.331 59.5175 28.3027 59.5122 28.275L58.6442 28.3849ZM58.6401 28.1658L58.6389 28.3277L59.5173 28.3323L59.5185 28.1704L58.6401 28.1658ZM62.2232 30.7341C62.177 30.7464 62.1305 30.758 62.0834 30.7688L62.3191 31.4597C62.3794 31.4461 62.4393 31.4312 62.4987 31.4151L62.2232 30.7341ZM67.4367 37.5369L62.7413 30.8953L61.9806 31.254L66.6761 37.8956L67.4367 37.5369ZM61.2941 46.5892L67.4367 37.8956L66.6759 37.5371L60.5332 46.2307L61.2941 46.5892ZM48.6191 46.7685H60.9137V46.0512H48.6191V46.7685ZM43.6631 40.1115L48.2387 46.5891L48.9996 46.2307L44.4239 39.7531L43.6631 40.1115ZM44.8166 37.7155C44.8166 38.4725 44.4192 39.1802 43.752 39.664L44.335 40.2004C45.1899 39.5806 45.695 38.6776 45.695 37.7155H44.8166ZM43.7515 35.7702C44.4195 36.2586 44.8166 36.9665 44.8166 37.7155H45.695C45.695 36.7597 45.189 35.8583 44.3372 35.2357L43.7515 35.7702ZM48.2403 28.8522L43.664 35.3236L44.4246 35.6823L49.001 29.211L48.2403 28.8522ZM57.7147 28.673H48.6207V29.3903H57.7147V28.673ZM61.224 30.8636C59.7595 30.8636 58.5052 30.0496 58.1388 28.9383L57.2906 29.1249C57.7588 30.5443 59.356 31.581 61.224 31.581V30.8636ZM62.0834 30.7688C61.809 30.8316 61.5216 30.8636 61.224 30.8636V31.581C61.599 31.581 61.965 31.5409 62.3191 31.4597L62.0834 30.7688ZM41.6179 35.6045C40.5891 35.6045 39.7005 36.0972 39.284 36.8062L40.076 37.1164C40.3523 36.646 40.9406 36.3219 41.6179 36.3219V35.6045ZM42.9108 35.888C42.5145 35.7001 42.0774 35.6045 41.6179 35.6045V36.3219C41.9237 36.3219 42.2083 36.3844 42.4699 36.5084L42.9108 35.888ZM42.9195 35.892L42.9093 35.8872L42.4717 36.5091L42.4806 36.5134L42.9195 35.892ZM44.2049 37.7164C44.2049 36.9655 43.7139 36.2675 42.9195 35.892L42.4806 36.5134C43.0024 36.7599 43.3265 37.2203 43.3265 37.7164H44.2049ZM43.8094 38.8443C44.0633 38.5135 44.2049 38.1228 44.2049 37.7164H43.3265C43.3265 37.987 43.2325 38.2451 43.0656 38.4629L43.8094 38.8443ZM42.9072 39.5468C43.2815 39.3746 43.5882 39.1313 43.8094 38.8443L43.0656 38.4629C42.9203 38.6514 42.7202 38.8095 42.476 38.9217L42.9072 39.5468ZM41.6191 39.8284C42.0787 39.8284 42.5154 39.7321 42.9117 39.5446L42.4715 38.9238C42.2085 39.0484 41.9235 39.111 41.6191 39.111V39.8284ZM39.0321 37.7152C39.0321 38.8806 40.1921 39.8284 41.6191 39.8284V39.111C40.6775 39.111 39.9105 38.4847 39.9105 37.7152H39.0321ZM39.284 36.8062C39.1226 37.0818 39.0321 37.3907 39.0321 37.7152H39.9105C39.9105 37.5003 39.9697 37.2978 40.076 37.1164L39.284 36.8062ZM46.9496 28.2446L42.3749 34.7139L43.1355 35.0726L47.7103 28.6033L46.9496 28.2446ZM42.3745 22.1254L46.9496 28.6031L47.7105 28.2447L43.1354 21.767L42.3745 22.1254ZM41.6193 22.4519C42.0588 22.4519 42.4859 22.3964 42.8926 22.2868L42.6173 21.6056C42.3014 21.6908 41.9673 21.7346 41.6191 21.7346L41.6193 22.4519ZM40.3404 22.2842C40.7432 22.3931 41.1736 22.4519 41.6193 22.4519L41.6191 21.7346C41.2685 21.7346 40.9315 21.6884 40.6165 21.6032L40.3404 22.2842ZM37.6281 19.8044C37.9266 20.9716 38.9743 21.9152 40.3404 22.2842L40.6165 21.6032C39.5445 21.3136 38.7217 20.5719 38.488 19.6577L37.6281 19.8044ZM28.8832 20.0891L38.058 20.0897L38.0582 19.3724L28.8832 19.3718L28.8832 20.0891ZM23.1303 28.6031L29.2638 19.9095L28.5027 19.5514L22.3692 28.245L23.1303 28.6031ZM29.2637 36.93L23.1302 28.2449L22.3693 28.6033L28.5028 37.2884L29.2637 36.93ZM38.058 36.7506H28.8832V37.4679H38.058V36.7506ZM37.8301 36.4883C37.7446 36.664 37.6764 36.8471 37.6281 37.0359L38.488 37.1825C38.5258 37.0346 38.5789 36.8914 38.646 36.7539L37.8301 36.4883ZM38.3194 35.7639C38.1216 35.9862 37.9564 36.2292 37.8301 36.4883L38.646 36.7539C38.745 36.551 38.8745 36.3603 39.0298 36.1857L38.3194 35.7639ZM41.6191 34.3871C40.2625 34.3871 39.0595 34.931 38.3194 35.7639L39.0298 36.1857C39.6125 35.5302 40.5568 35.1044 41.6191 35.1044V34.3871ZM42.8933 34.5528C42.4848 34.4423 42.0583 34.3871 41.6191 34.3871V35.1044C41.9669 35.1044 42.3002 35.148 42.6171 35.2337L42.8933 34.5528ZM43.0632 17.3714C43.0145 17.3448 42.9643 17.3193 42.9131 17.2953L42.4759 17.9175C42.5094 17.9333 42.5423 17.9499 42.5741 17.9673L43.0632 17.3714ZM44.2049 19.1226C44.2049 18.4179 43.7725 17.76 43.0632 17.3714L42.5741 17.9673C43.0405 18.2229 43.3265 18.6573 43.3265 19.1226H44.2049ZM42.9144 20.9498C43.7147 20.5817 44.2049 19.8797 44.2049 19.1226H43.3265C43.3265 19.6283 42.999 20.0876 42.4832 20.3249L42.9144 20.9498ZM42.8998 20.957C42.9045 20.9545 42.9094 20.9521 42.9144 20.9498L42.4832 20.3249C42.4641 20.3338 42.4451 20.3429 42.4267 20.3527L42.8998 20.957ZM41.6179 21.2357C42.0648 21.2357 42.4903 21.1455 42.8783 20.9676L42.4481 20.3421C42.1929 20.4593 41.9155 20.5184 41.6179 20.5184V21.2357ZM40.6114 21.0693C40.9213 21.1766 41.262 21.2357 41.6179 21.2357V20.5184C41.3819 20.5184 41.158 20.4794 40.9542 20.4089L40.6114 21.0693ZM39.0321 19.1235C39.0321 19.9978 39.6851 20.7484 40.6114 21.0693L40.9542 20.4089C40.34 20.1962 39.9105 19.699 39.9105 19.1235H39.0321ZM41.6191 17.0107C40.1923 17.0107 39.0321 17.9584 39.0321 19.1235H39.9105C39.9105 18.3546 40.6775 17.7281 41.6191 17.7281V17.0107ZM42.9156 17.2966C42.5163 17.1064 42.079 17.0107 41.6191 17.0107V17.7281C41.9246 17.7281 42.209 17.7904 42.4732 17.9163L42.9156 17.2966ZM36.3191 34.4578C36.319 34.5957 36.1819 34.707 36.0136 34.707L36.0138 35.4245C36.6672 35.4245 37.197 34.9921 37.1975 34.4584L36.3191 34.4578ZM36.0142 34.209C36.1826 34.209 36.3191 34.3201 36.3191 34.4578L37.1975 34.4584C37.1975 33.9242 36.6675 33.4917 36.0142 33.4917V34.209ZM31.1885 34.209H36.0142V33.4917H31.1885V34.209ZM26.9753 28.6007L30.808 34.0294L31.569 33.6712L27.7362 28.2423L26.9753 28.6007ZM30.8091 22.8082L26.9752 28.2425L27.7363 28.6005L31.5703 23.1663L30.8091 22.8082ZM36.0138 22.6285H31.1896V23.3459H36.0138V22.6285ZM36.3188 22.3795C36.3188 22.5172 36.1823 22.6285 36.0138 22.6285V23.3459C36.6672 23.3459 37.1972 22.9136 37.1972 22.3795H36.3188ZM36.0138 22.1304C36.1823 22.1304 36.3188 22.2419 36.3188 22.3795H37.1972C37.1972 21.8455 36.6672 21.4131 36.0138 21.4131V22.1304ZM30.7594 22.1304H36.0138V21.4131H30.7594V22.1304ZM30.4946 22.2555C30.5495 22.178 30.6508 22.1304 30.7594 22.1304V21.4131C30.3362 21.4131 29.9453 21.5979 29.734 21.8968L30.4946 22.2555ZM26.2319 28.2974L30.4946 22.2555L29.734 21.8968L25.471 27.9392L26.2319 28.2974ZM26.2325 28.5463C26.1776 28.4686 26.1781 28.3736 26.2319 28.2974L25.471 27.9392C25.26 28.2379 25.2606 28.6056 25.4713 28.9043L26.2325 28.5463ZM30.4945 34.5829L26.2325 28.5463L25.4713 28.9043L29.7335 34.941L30.4945 34.5829ZM30.7585 34.707C30.6489 34.707 30.5486 34.6595 30.4945 34.5829L29.7335 34.941C29.9449 35.2408 30.3359 35.4243 30.7585 35.4243V34.707ZM36.0136 34.707H30.7585V35.4243L36.0138 35.4245L36.0136 34.707ZM50.4944 44.7265H59.0409V44.0092H50.4944V44.7265ZM49.4693 44.2433C49.681 44.5426 50.0714 44.7265 50.4944 44.7265V44.0092C50.385 44.0092 50.2847 43.9619 50.2302 43.8847L49.4693 44.2433ZM46.8516 40.5388L49.4693 44.2433L50.2302 43.8847L47.6125 40.1803L46.8516 40.5388ZM47.285 39.2187C46.7191 39.4855 46.525 40.0765 46.8516 40.5388L47.6125 40.1803C47.5283 40.061 47.5784 39.9087 47.7242 39.84L47.285 39.2187ZM48.9019 39.5729C48.576 39.1106 47.8519 38.9499 47.285 39.2187L47.7242 39.84C47.8689 39.7713 48.0566 39.8115 48.1407 39.9308L48.9019 39.5729ZM51.3045 42.9732L48.9019 39.5729L48.1407 39.9308L50.5436 43.3317L51.3045 42.9732ZM58.6108 42.7937H50.9241V43.5111H58.6108V42.7937ZM62.0706 37.5383L58.2305 42.9732L58.9913 43.3317L62.8314 37.8969L62.0706 37.5383ZM59.5496 34.3313L62.0707 37.8969L62.8314 37.5382L60.3105 33.9727L59.5496 34.3313ZM59.9832 33.0111C59.4165 33.2781 59.2232 33.869 59.5496 34.3313L60.3105 33.9727C60.226 33.8532 60.2762 33.7011 60.422 33.6324L59.9832 33.0111ZM61.5996 33.365C61.2723 32.902 60.5492 32.7435 59.9832 33.0111L60.422 33.6324C60.5671 33.5638 60.754 33.6036 60.8391 33.7238L61.5996 33.365ZM64.3355 37.2348L61.5996 33.365L60.8391 33.7238L63.5745 37.593L64.3355 37.2348ZM64.3354 38.2007C64.5465 37.9018 64.5464 37.5338 64.3355 37.2348L63.5745 37.593C63.6292 37.6705 63.6288 37.7653 63.5745 37.8422L64.3354 38.2007ZM60.0656 44.2433L64.3354 38.2007L63.5745 37.8422L59.3047 43.8847L60.0656 44.2433ZM59.0409 44.7265C59.4632 44.7265 59.8541 44.5431 60.0656 44.2433L59.3047 43.8847C59.2506 43.9613 59.1501 44.0092 59.0409 44.0092V44.7265ZM60.8205 22.8922C60.7688 22.8922 60.7165 22.8818 60.6676 22.8588L60.2288 23.4802C60.4145 23.5674 60.6193 23.6097 60.8205 23.6097V22.8922ZM61.0852 22.7677C61.0295 22.8467 60.928 22.8922 60.8205 22.8922V23.6097C61.2275 23.6097 61.6265 23.4377 61.846 23.1259L61.0852 22.7677ZM63.5761 19.2467L61.0852 22.7677L61.846 23.1259L64.3363 19.6061L63.5761 19.2467ZM63.5757 18.9982C63.6306 19.0754 63.6306 19.1701 63.5761 19.2467L64.3363 19.6061C64.5486 19.3068 64.5483 18.9385 64.3361 18.6391L63.5757 18.9982ZM59.3077 12.9636L63.5757 18.9982L64.3361 18.6391L60.0686 12.6052L59.3077 12.9636ZM59.044 12.8394C59.1535 12.8394 59.2536 12.8868 59.3077 12.9636L60.0686 12.6052C59.8572 12.3055 59.4669 12.1221 59.044 12.1221V12.8394ZM50.4948 12.8394H59.044V12.1221H50.4948V12.8394ZM50.2307 12.964C50.2852 12.8868 50.386 12.8394 50.4948 12.8394V12.1221C50.0724 12.1221 49.6817 12.306 49.47 12.6053L50.2307 12.964ZM47.6125 16.6655L50.2307 12.964L49.47 12.6053L46.8521 16.3062L47.6125 16.6655ZM47.7247 17.0056C47.5782 16.9365 47.5287 16.7836 47.6125 16.6655L46.8521 16.3062C46.5243 16.7682 46.719 17.3594 47.2848 17.6265L47.7247 17.0056ZM48.1409 16.9137C48.0559 17.0337 47.8682 17.0735 47.7247 17.0056L47.2848 17.6265C47.8494 17.8936 48.5738 17.7349 48.901 17.273L48.1409 16.9137ZM50.5438 13.5169L48.1409 16.9137L48.901 17.273L51.3043 13.8757L50.5438 13.5169ZM58.614 13.3376H50.9239V14.055H58.614V13.3376ZM62.8325 18.9434L58.9943 13.5169L58.2336 13.8757L62.0718 19.3021L62.8325 18.9434ZM60.5568 22.5192L62.8325 19.3022L62.0718 18.9434L59.7966 22.16L60.5568 22.5192ZM60.6676 22.8588C60.5215 22.7896 60.473 22.6374 60.5568 22.5192L59.7966 22.16C59.469 22.6218 59.6633 23.213 60.2288 23.4802L60.6676 22.8588Z" fill="url(#paint1_linear_1382_206)"/>
<defs>
<linearGradient id="paint0_linear_1382_206" x1="44.8474" y1="9.01953" x2="44.8474" y2="47.6255" gradientUnits="userSpaceOnUse">
<stop stop-color="#0044EE"/>
<stop offset="1" stop-color="#23B5E9"/>
</linearGradient>
<linearGradient id="paint1_linear_1382_206" x1="44.8452" y1="9.01932" x2="44.8452" y2="47.6253" gradientUnits="userSpaceOnUse">
<stop stop-color="#0044EE"/>
<stop offset="1" stop-color="#23B5E9"/>
</linearGradient>
</defs>
</svg>
