<svg width="90" height="55" viewBox="0 0 90 55" fill="none" xmlns="http://www.w3.org/2000/svg">
<g clip-path="url(#clip0_5388_3116)">
<mask id="mask0_5388_3116" style="mask-type:luminance" maskUnits="userSpaceOnUse" x="0" y="0" width="90" height="55">
<path d="M90 0H0V55H90V0Z" fill="white"/>
</mask>
<g mask="url(#mask0_5388_3116)">
<path d="M52.041 0.000973248C57.4336 0.000973248 62.826 0.000973248 68.218 0.000973248C68.7238 -0.0441411 69.2333 0.0219656 69.7109 0.194645C70.1884 0.367325 70.6224 0.642399 70.9824 1.00058C71.3424 1.35875 71.6197 1.79136 71.7947 2.26804C71.9698 2.74472 72.0385 3.25394 71.9959 3.75998C71.9959 14.506 71.9959 25.252 71.9959 35.998C72.0472 36.5168 71.9822 37.0406 71.8056 37.5311C71.629 38.0216 71.3454 38.4667 70.9752 38.8338C70.605 39.2009 70.1576 39.4809 69.6656 39.6534C69.1736 39.8259 68.6493 39.8866 68.1309 39.831C64.9309 39.831 61.7409 39.846 58.5469 39.819C58.0079 39.819 57.868 39.958 57.872 40.495C57.897 44.068 57.8869 47.642 57.8839 51.216C57.9251 51.7219 57.856 52.2307 57.6814 52.7072C57.5068 53.1838 57.2309 53.6169 56.8726 53.9764C56.5144 54.336 56.0824 54.6135 55.6065 54.7899C55.1305 54.9663 54.622 55.0373 54.1159 54.998C43.3312 54.998 32.5463 54.998 21.7609 54.998C21.2548 55.0356 20.7465 54.963 20.2712 54.7852C19.7958 54.6074 19.3647 54.3286 19.0076 53.968C18.6504 53.6074 18.3757 53.1737 18.2025 52.6967C18.0292 52.2196 17.9614 51.7107 18.0039 51.205C18.0039 40.4843 18.0039 29.7636 18.0039 19.043C17.9582 18.524 18.0272 18.0013 18.206 17.512C18.3848 17.0227 18.669 16.5786 19.0384 16.2113C19.4078 15.8439 19.8535 15.5623 20.3438 15.3863C20.8342 15.2104 21.3572 15.1444 21.8759 15.193C25.0189 15.185 28.1629 15.173 31.3059 15.206C31.9469 15.213 32.106 15.033 32.106 14.401C32.075 10.853 32.0879 7.30098 32.0919 3.75698C32.0462 3.25102 32.1124 2.7412 32.286 2.26375C32.4596 1.78631 32.7362 1.35295 33.0962 0.994496C33.4562 0.636037 33.8907 0.36128 34.3689 0.18974C34.8471 0.0181994 35.3572 -0.0459131 35.8629 0.0019727C41.2543 -0.000693968 46.647 -0.00102675 52.041 0.000973248Z" fill="#77BC1F"/>
<path d="M52.1119 2.25396C57.4186 2.25396 62.7249 2.25396 68.0309 2.25396C69.3769 2.25396 69.731 2.60396 69.731 3.92396C69.731 14.574 69.731 25.224 69.731 35.874C69.731 37.157 69.3669 37.521 68.0819 37.521C64.1819 37.521 60.2889 37.542 56.3929 37.503C55.6929 37.496 55.5549 37.703 55.5599 38.36C55.5899 42.584 55.577 46.808 55.575 51.032C55.575 52.36 55.1979 52.743 53.8959 52.744C43.2579 52.744 32.6196 52.744 21.981 52.744C20.616 52.744 20.252 52.379 20.252 51.006C20.252 40.4326 20.252 29.8596 20.252 19.287C20.252 17.865 20.5779 17.546 22.0269 17.546C25.8969 17.546 29.7679 17.531 33.6389 17.561C34.2609 17.561 34.3959 17.378 34.3929 16.788C34.3689 12.488 34.3789 8.18797 34.3809 3.88797C34.3809 2.60997 34.7379 2.25596 36.0339 2.25596C41.3953 2.2533 46.7546 2.25263 52.1119 2.25396Z" fill="#FEFEFE"/>
<path d="M43.7647 26.758C43.7647 22.2334 43.7647 17.7087 43.7647 13.184C43.7647 11.755 44.2168 11.302 45.6388 11.301C49.9894 11.301 54.3404 11.301 58.6917 11.301C60.1997 11.301 60.5997 11.701 60.6007 13.21C60.6007 17.5514 60.6007 21.8927 60.6007 26.234C60.6007 27.703 60.2128 28.089 58.7398 28.09C55.6208 28.09 52.5007 28.078 49.3817 28.102C48.8067 28.102 48.5557 28.013 48.5717 27.349C48.6117 25.695 48.5717 25.694 50.2627 25.694C52.6747 25.694 55.0857 25.68 57.4967 25.705C58.0107 25.705 58.2227 25.625 58.2177 25.039C58.1891 21.4824 58.1891 17.9257 58.2177 14.369C58.2177 13.836 58.0447 13.724 57.5467 13.726C53.956 13.7454 50.3651 13.7454 46.7738 13.726C46.2738 13.726 46.1737 13.873 46.1737 14.349C46.1911 23.3197 46.1968 32.29 46.1908 41.26C46.1908 41.548 46.1908 41.836 46.1778 42.122C46.1138 43.222 45.6588 43.699 44.5578 43.702C40.0244 43.7154 35.4911 43.7154 30.9577 43.702C30.7398 43.737 30.5167 43.7203 30.3065 43.6532C30.0962 43.5861 29.9046 43.4705 29.7473 43.3158C29.5899 43.1611 29.4712 42.9715 29.4005 42.7624C29.3299 42.5533 29.3094 42.3305 29.3407 42.112C29.3187 37.5614 29.3187 33.0107 29.3407 28.46C29.3077 28.2486 29.3252 28.0324 29.3917 27.829C29.4583 27.6257 29.5721 27.441 29.7238 27.2901C29.8755 27.1391 30.0608 27.0263 30.2645 26.9608C30.4682 26.8952 30.6845 26.8789 30.8957 26.913C34.1957 26.9 37.5007 26.913 40.8037 26.899C41.2287 26.899 41.3888 26.991 41.4038 27.456C41.4458 29.304 41.4647 29.304 39.6037 29.304C37.2707 29.304 34.9377 29.325 32.6037 29.29C31.9857 29.281 31.7537 29.39 31.7617 30.08C31.8017 33.558 31.7908 37.036 31.7688 40.515C31.7688 41.061 31.8508 41.285 32.4818 41.279C36.0204 41.2457 39.5591 41.2457 43.0977 41.279C43.6637 41.279 43.7887 41.105 43.7857 40.57C43.7567 35.963 43.7647 31.36 43.7647 26.758Z" fill="#EBB000"/>
<path d="M51.6425 5.64697C55.5938 5.64697 59.5455 5.64697 63.4975 5.64697C63.8064 5.61441 64.1188 5.64851 64.4135 5.74697C64.6611 5.83172 64.8709 6.00093 65.0063 6.22492C65.1416 6.44891 65.1937 6.71339 65.1535 6.97197C65.1386 7.23378 65.0289 7.48121 64.8449 7.66801C64.6608 7.85481 64.415 7.96819 64.1535 7.98697C63.8711 8.01541 63.5872 8.0251 63.3035 8.01597C55.9942 8.01597 48.6845 8.01597 41.3745 8.01597C40.2525 8.01597 40.2525 8.01597 40.2525 9.11597C40.2525 13.629 40.2395 18.142 40.2665 22.655C40.2665 23.27 40.0975 23.425 39.4915 23.421C35.2815 23.395 31.0715 23.421 26.8615 23.392C26.2205 23.392 26.0475 23.552 26.0495 24.198C26.0728 31.574 26.0768 38.95 26.0615 46.326C26.0701 46.6345 26.0497 46.9432 26.0005 47.248C25.9685 47.5219 25.8319 47.7729 25.6194 47.9486C25.4068 48.1243 25.1346 48.2111 24.8595 48.191C24.5845 48.2071 24.3133 48.1202 24.099 47.9471C23.8846 47.774 23.7425 47.5272 23.7005 47.255C23.6554 47.0016 23.6407 46.7438 23.6565 46.487C23.6565 38.6203 23.6565 30.7536 23.6565 22.887C23.6565 21.437 24.0915 21.001 25.5565 21C29.4305 21 33.3055 20.985 37.1785 21.012C37.7675 21.012 37.9075 20.85 37.9045 20.277C37.8805 15.996 37.8895 11.715 37.8915 7.43397C37.8915 6.07397 38.3305 5.64297 39.7105 5.64197C43.6878 5.64397 47.6652 5.64564 51.6425 5.64697Z" fill="#78BC1F"/>
</g>
</g>
<defs>
<clipPath id="clip0_5388_3116">
<rect width="90" height="55" fill="white"/>
</clipPath>
</defs>
</svg>
