<svg xmlns="http://www.w3.org/2000/svg" xmlns:xlink="http://www.w3.org/1999/xlink" width="82" height="60" viewBox="0 0 82 60">
  <defs>
    <clipPath id="clip-lang-c-sharp">
      <rect width="82" height="60"/>
    </clipPath>
  </defs>
  <g id="lang-c-sharp" clip-path="url(#clip-lang-c-sharp)">
    <g id="c-sharp-c-seeklogo.com" transform="translate(14)">
      <path id="Path_85" data-name="Path 85" d="M53.382,17.64a5.3,5.3,0,0,0-.653-2.665A5.1,5.1,0,0,0,50.8,13.093Q40.138,6.946,29.473.808A5.235,5.235,0,0,0,23.8.864C20.97,2.532,6.807,10.646,2.587,13.091A4.929,4.929,0,0,0,0,17.638Q0,30,0,42.362a5.317,5.317,0,0,0,.624,2.614,5.079,5.079,0,0,0,1.961,1.933C6.805,49.354,20.97,57.467,23.8,59.136a5.236,5.236,0,0,0,5.675.056Q40.131,53.039,50.8,46.907a5.081,5.081,0,0,0,1.961-1.933,5.324,5.324,0,0,0,.624-2.615s0-16.478,0-24.719" transform="translate(0 0)" fill="#a179dc"/>
      <path id="Path_86" data-name="Path 86" d="M29.138,143.241,2.988,158.3a5.079,5.079,0,0,0,1.961,1.933c4.221,2.444,18.385,10.558,21.213,12.227a5.236,5.236,0,0,0,5.675.056q10.657-6.153,21.327-12.285a5.081,5.081,0,0,0,1.961-1.933L29.138,143.241" transform="translate(-2.364 -113.321)" fill="#280068"/>
      <path id="Path_87" data-name="Path 87" d="M154.79,74.357a5.3,5.3,0,0,0-.653-2.665L128.182,86.636l25.987,15.055a5.328,5.328,0,0,0,.624-2.615s0-16.478,0-24.719" transform="translate(-101.408 -56.717)" fill="#390091"/>
      <path id="Path_88" data-name="Path 88" d="M185.9,116.294v2.814h2.814v-2.814h1.407v2.814h2.814v1.407h-2.814v2.814h2.814v1.407h-2.814v2.814h-1.407v-2.814H185.9v2.814H184.5v-2.814h-2.814V123.33H184.5v-2.814h-2.814v-1.407H184.5v-2.814Zm2.814,4.222H185.9v2.814h2.814Z" transform="translate(-143.733 -92.003)" fill="#fff"/>
      <path id="Path_89" data-name="Path 89" d="M53.3,48.626a19.836,19.836,0,0,1,17.183,9.912l-.034-.057-8.637,4.973a9.876,9.876,0,0,0-8.4-4.865H53.3a9.881,9.881,0,1,0,8.61,14.726l-.041.072,8.624,5a19.837,19.837,0,0,1-16.972,9.929H53.3a19.843,19.843,0,1,1,0-39.686Z" transform="translate(-26.468 -38.469)" fill="#fff"/>
    </g>
  </g>
</svg>
